%TF.GenerationSoftware,KiCad,Pcbnew,7.0.6*%
%TF.CreationDate,2023-11-27T09:51:19+01:00*%
%TF.ProjectId,PSACANBridgeHW_v14,50534143-414e-4427-9269-64676548575f,rev?*%
%TF.SameCoordinates,Original*%
%TF.FileFunction,Legend,Top*%
%TF.FilePolarity,Positive*%
%FSLAX46Y46*%
G04 Gerber Fmt 4.6, Leading zero omitted, Abs format (unit mm)*
G04 Created by KiCad (PCBNEW 7.0.6) date 2023-11-27 09:51:19*
%MOMM*%
%LPD*%
G01*
G04 APERTURE LIST*
G04 Aperture macros list*
%AMRoundRect*
0 Rectangle with rounded corners*
0 $1 Rounding radius*
0 $2 $3 $4 $5 $6 $7 $8 $9 X,Y pos of 4 corners*
0 Add a 4 corners polygon primitive as box body*
4,1,4,$2,$3,$4,$5,$6,$7,$8,$9,$2,$3,0*
0 Add four circle primitives for the rounded corners*
1,1,$1+$1,$2,$3*
1,1,$1+$1,$4,$5*
1,1,$1+$1,$6,$7*
1,1,$1+$1,$8,$9*
0 Add four rect primitives between the rounded corners*
20,1,$1+$1,$2,$3,$4,$5,0*
20,1,$1+$1,$4,$5,$6,$7,0*
20,1,$1+$1,$6,$7,$8,$9,0*
20,1,$1+$1,$8,$9,$2,$3,0*%
G04 Aperture macros list end*
%ADD10C,0.150000*%
%ADD11C,0.100000*%
%ADD12C,0.120000*%
%ADD13C,0.200000*%
%ADD14C,1.400000*%
%ADD15RoundRect,0.437500X-0.300000X-0.237500X0.300000X-0.237500X0.300000X0.237500X-0.300000X0.237500X0*%
%ADD16RoundRect,0.437500X0.300000X0.237500X-0.300000X0.237500X-0.300000X-0.237500X0.300000X-0.237500X0*%
%ADD17RoundRect,0.450000X0.725000X-0.600000X0.725000X0.600000X-0.725000X0.600000X-0.725000X-0.600000X0*%
%ADD18O,2.350000X2.100000*%
%ADD19RoundRect,0.437500X0.250000X0.237500X-0.250000X0.237500X-0.250000X-0.237500X0.250000X-0.237500X0*%
%ADD20RoundRect,0.437500X0.237500X-0.250000X0.237500X0.250000X-0.237500X0.250000X-0.237500X-0.250000X0*%
%ADD21RoundRect,0.437500X-0.237500X0.250000X-0.237500X-0.250000X0.237500X-0.250000X0.237500X0.250000X0*%
%ADD22RoundRect,0.200000X-0.450000X1.000000X-0.450000X-1.000000X0.450000X-1.000000X0.450000X1.000000X0*%
%ADD23RoundRect,0.350000X0.587500X0.150000X-0.587500X0.150000X-0.587500X-0.150000X0.587500X-0.150000X0*%
%ADD24RoundRect,0.350000X0.825000X0.150000X-0.825000X0.150000X-0.825000X-0.150000X0.825000X-0.150000X0*%
%ADD25RoundRect,0.437500X0.237500X-0.300000X0.237500X0.300000X-0.237500X0.300000X-0.237500X-0.300000X0*%
%ADD26RoundRect,0.450000X0.300000X-2.050000X0.300000X2.050000X-0.300000X2.050000X-0.300000X-2.050000X0*%
%ADD27RoundRect,0.450002X5.149998X-4.449998X5.149998X4.449998X-5.149998X4.449998X-5.149998X-4.449998X0*%
%ADD28RoundRect,0.200000X1.450000X2.700000X-1.450000X2.700000X-1.450000X-2.700000X1.450000X-2.700000X0*%
%ADD29RoundRect,0.350000X0.875000X0.150000X-0.875000X0.150000X-0.875000X-0.150000X0.875000X-0.150000X0*%
%ADD30RoundRect,0.200000X-1.000000X-1.200000X1.000000X-1.200000X1.000000X1.200000X-1.000000X1.200000X0*%
%ADD31RoundRect,0.581000X0.381000X-0.762000X0.381000X0.762000X-0.381000X0.762000X-0.381000X-0.762000X0*%
%ADD32RoundRect,0.200000X0.800000X0.800000X-0.800000X0.800000X-0.800000X-0.800000X0.800000X-0.800000X0*%
%ADD33C,2.000000*%
%ADD34RoundRect,0.200000X0.750000X-0.500000X0.750000X0.500000X-0.750000X0.500000X-0.750000X-0.500000X0*%
%ADD35RoundRect,0.200000X0.800000X-0.800000X0.800000X0.800000X-0.800000X0.800000X-0.800000X-0.800000X0*%
%ADD36RoundRect,0.450000X-1.000000X-0.650000X1.000000X-0.650000X1.000000X0.650000X-1.000000X0.650000X0*%
G04 APERTURE END LIST*
D10*
X145757124Y-153683476D02*
G75*
G03*
X145757124Y-153683476I-138924J0D01*
G01*
X170611800Y-142621000D02*
G75*
G03*
X170611800Y-142621000I-138924J0D01*
G01*
X175054283Y-119795718D02*
G75*
G03*
X175054283Y-119795718I-1529283J0D01*
G01*
X129779800Y-122375600D02*
G75*
G03*
X129779800Y-122375600I-138924J0D01*
G01*
X143027400Y-146989800D02*
G75*
G03*
X143027400Y-146989800I-138924J0D01*
G01*
X144741124Y-133680200D02*
G75*
G03*
X144741124Y-133680200I-138924J0D01*
G01*
X129755124Y-129870200D02*
G75*
G03*
X129755124Y-129870200I-138924J0D01*
G01*
D11*
X140723808Y-135701847D02*
X140990474Y-135701847D01*
X141104760Y-136120895D02*
X140723808Y-136120895D01*
X140723808Y-136120895D02*
X140723808Y-135320895D01*
X140723808Y-135320895D02*
X141104760Y-135320895D01*
X141409522Y-136082800D02*
X141523808Y-136120895D01*
X141523808Y-136120895D02*
X141714284Y-136120895D01*
X141714284Y-136120895D02*
X141790475Y-136082800D01*
X141790475Y-136082800D02*
X141828570Y-136044704D01*
X141828570Y-136044704D02*
X141866665Y-135968514D01*
X141866665Y-135968514D02*
X141866665Y-135892323D01*
X141866665Y-135892323D02*
X141828570Y-135816133D01*
X141828570Y-135816133D02*
X141790475Y-135778038D01*
X141790475Y-135778038D02*
X141714284Y-135739942D01*
X141714284Y-135739942D02*
X141561903Y-135701847D01*
X141561903Y-135701847D02*
X141485713Y-135663752D01*
X141485713Y-135663752D02*
X141447618Y-135625657D01*
X141447618Y-135625657D02*
X141409522Y-135549466D01*
X141409522Y-135549466D02*
X141409522Y-135473276D01*
X141409522Y-135473276D02*
X141447618Y-135397085D01*
X141447618Y-135397085D02*
X141485713Y-135358990D01*
X141485713Y-135358990D02*
X141561903Y-135320895D01*
X141561903Y-135320895D02*
X141752380Y-135320895D01*
X141752380Y-135320895D02*
X141866665Y-135358990D01*
X142209523Y-136120895D02*
X142209523Y-135320895D01*
X142209523Y-135320895D02*
X142514285Y-135320895D01*
X142514285Y-135320895D02*
X142590475Y-135358990D01*
X142590475Y-135358990D02*
X142628570Y-135397085D01*
X142628570Y-135397085D02*
X142666666Y-135473276D01*
X142666666Y-135473276D02*
X142666666Y-135587561D01*
X142666666Y-135587561D02*
X142628570Y-135663752D01*
X142628570Y-135663752D02*
X142590475Y-135701847D01*
X142590475Y-135701847D02*
X142514285Y-135739942D01*
X142514285Y-135739942D02*
X142209523Y-135739942D01*
X142933332Y-135320895D02*
X143428570Y-135320895D01*
X143428570Y-135320895D02*
X143161904Y-135625657D01*
X143161904Y-135625657D02*
X143276189Y-135625657D01*
X143276189Y-135625657D02*
X143352380Y-135663752D01*
X143352380Y-135663752D02*
X143390475Y-135701847D01*
X143390475Y-135701847D02*
X143428570Y-135778038D01*
X143428570Y-135778038D02*
X143428570Y-135968514D01*
X143428570Y-135968514D02*
X143390475Y-136044704D01*
X143390475Y-136044704D02*
X143352380Y-136082800D01*
X143352380Y-136082800D02*
X143276189Y-136120895D01*
X143276189Y-136120895D02*
X143047618Y-136120895D01*
X143047618Y-136120895D02*
X142971427Y-136082800D01*
X142971427Y-136082800D02*
X142933332Y-136044704D01*
X143733332Y-135397085D02*
X143771428Y-135358990D01*
X143771428Y-135358990D02*
X143847618Y-135320895D01*
X143847618Y-135320895D02*
X144038094Y-135320895D01*
X144038094Y-135320895D02*
X144114285Y-135358990D01*
X144114285Y-135358990D02*
X144152380Y-135397085D01*
X144152380Y-135397085D02*
X144190475Y-135473276D01*
X144190475Y-135473276D02*
X144190475Y-135549466D01*
X144190475Y-135549466D02*
X144152380Y-135663752D01*
X144152380Y-135663752D02*
X143695237Y-136120895D01*
X143695237Y-136120895D02*
X144190475Y-136120895D01*
X145142857Y-136120895D02*
X145142857Y-135320895D01*
X145142857Y-135320895D02*
X145333333Y-135320895D01*
X145333333Y-135320895D02*
X145447619Y-135358990D01*
X145447619Y-135358990D02*
X145523809Y-135435180D01*
X145523809Y-135435180D02*
X145561904Y-135511371D01*
X145561904Y-135511371D02*
X145600000Y-135663752D01*
X145600000Y-135663752D02*
X145600000Y-135778038D01*
X145600000Y-135778038D02*
X145561904Y-135930419D01*
X145561904Y-135930419D02*
X145523809Y-136006609D01*
X145523809Y-136006609D02*
X145447619Y-136082800D01*
X145447619Y-136082800D02*
X145333333Y-136120895D01*
X145333333Y-136120895D02*
X145142857Y-136120895D01*
X146285714Y-135587561D02*
X146285714Y-136120895D01*
X145942857Y-135587561D02*
X145942857Y-136006609D01*
X145942857Y-136006609D02*
X145980952Y-136082800D01*
X145980952Y-136082800D02*
X146057142Y-136120895D01*
X146057142Y-136120895D02*
X146171428Y-136120895D01*
X146171428Y-136120895D02*
X146247619Y-136082800D01*
X146247619Y-136082800D02*
X146285714Y-136044704D01*
X147009524Y-136120895D02*
X147009524Y-135701847D01*
X147009524Y-135701847D02*
X146971429Y-135625657D01*
X146971429Y-135625657D02*
X146895238Y-135587561D01*
X146895238Y-135587561D02*
X146742857Y-135587561D01*
X146742857Y-135587561D02*
X146666667Y-135625657D01*
X147009524Y-136082800D02*
X146933333Y-136120895D01*
X146933333Y-136120895D02*
X146742857Y-136120895D01*
X146742857Y-136120895D02*
X146666667Y-136082800D01*
X146666667Y-136082800D02*
X146628571Y-136006609D01*
X146628571Y-136006609D02*
X146628571Y-135930419D01*
X146628571Y-135930419D02*
X146666667Y-135854228D01*
X146666667Y-135854228D02*
X146742857Y-135816133D01*
X146742857Y-135816133D02*
X146933333Y-135816133D01*
X146933333Y-135816133D02*
X147009524Y-135778038D01*
X147504762Y-136120895D02*
X147428572Y-136082800D01*
X147428572Y-136082800D02*
X147390477Y-136006609D01*
X147390477Y-136006609D02*
X147390477Y-135320895D01*
X148266668Y-136044704D02*
X148228572Y-136082800D01*
X148228572Y-136082800D02*
X148114287Y-136120895D01*
X148114287Y-136120895D02*
X148038096Y-136120895D01*
X148038096Y-136120895D02*
X147923810Y-136082800D01*
X147923810Y-136082800D02*
X147847620Y-136006609D01*
X147847620Y-136006609D02*
X147809525Y-135930419D01*
X147809525Y-135930419D02*
X147771429Y-135778038D01*
X147771429Y-135778038D02*
X147771429Y-135663752D01*
X147771429Y-135663752D02*
X147809525Y-135511371D01*
X147809525Y-135511371D02*
X147847620Y-135435180D01*
X147847620Y-135435180D02*
X147923810Y-135358990D01*
X147923810Y-135358990D02*
X148038096Y-135320895D01*
X148038096Y-135320895D02*
X148114287Y-135320895D01*
X148114287Y-135320895D02*
X148228572Y-135358990D01*
X148228572Y-135358990D02*
X148266668Y-135397085D01*
X148571429Y-135892323D02*
X148952382Y-135892323D01*
X148495239Y-136120895D02*
X148761906Y-135320895D01*
X148761906Y-135320895D02*
X149028572Y-136120895D01*
X149295239Y-136120895D02*
X149295239Y-135320895D01*
X149295239Y-135320895D02*
X149752382Y-136120895D01*
X149752382Y-136120895D02*
X149752382Y-135320895D01*
X150666667Y-135587561D02*
X150857143Y-136120895D01*
X150857143Y-136120895D02*
X151047620Y-135587561D01*
X151771429Y-136120895D02*
X151314286Y-136120895D01*
X151542858Y-136120895D02*
X151542858Y-135320895D01*
X151542858Y-135320895D02*
X151466667Y-135435180D01*
X151466667Y-135435180D02*
X151390477Y-135511371D01*
X151390477Y-135511371D02*
X151314286Y-135549466D01*
X152114287Y-136044704D02*
X152152382Y-136082800D01*
X152152382Y-136082800D02*
X152114287Y-136120895D01*
X152114287Y-136120895D02*
X152076191Y-136082800D01*
X152076191Y-136082800D02*
X152114287Y-136044704D01*
X152114287Y-136044704D02*
X152114287Y-136120895D01*
X152838096Y-135587561D02*
X152838096Y-136120895D01*
X152647620Y-135282800D02*
X152457143Y-135854228D01*
X152457143Y-135854228D02*
X152952382Y-135854228D01*
X144247618Y-136685085D02*
X144285714Y-136646990D01*
X144285714Y-136646990D02*
X144361904Y-136608895D01*
X144361904Y-136608895D02*
X144552380Y-136608895D01*
X144552380Y-136608895D02*
X144628571Y-136646990D01*
X144628571Y-136646990D02*
X144666666Y-136685085D01*
X144666666Y-136685085D02*
X144704761Y-136761276D01*
X144704761Y-136761276D02*
X144704761Y-136837466D01*
X144704761Y-136837466D02*
X144666666Y-136951752D01*
X144666666Y-136951752D02*
X144209523Y-137408895D01*
X144209523Y-137408895D02*
X144704761Y-137408895D01*
X145200000Y-136608895D02*
X145276190Y-136608895D01*
X145276190Y-136608895D02*
X145352381Y-136646990D01*
X145352381Y-136646990D02*
X145390476Y-136685085D01*
X145390476Y-136685085D02*
X145428571Y-136761276D01*
X145428571Y-136761276D02*
X145466666Y-136913657D01*
X145466666Y-136913657D02*
X145466666Y-137104133D01*
X145466666Y-137104133D02*
X145428571Y-137256514D01*
X145428571Y-137256514D02*
X145390476Y-137332704D01*
X145390476Y-137332704D02*
X145352381Y-137370800D01*
X145352381Y-137370800D02*
X145276190Y-137408895D01*
X145276190Y-137408895D02*
X145200000Y-137408895D01*
X145200000Y-137408895D02*
X145123809Y-137370800D01*
X145123809Y-137370800D02*
X145085714Y-137332704D01*
X145085714Y-137332704D02*
X145047619Y-137256514D01*
X145047619Y-137256514D02*
X145009523Y-137104133D01*
X145009523Y-137104133D02*
X145009523Y-136913657D01*
X145009523Y-136913657D02*
X145047619Y-136761276D01*
X145047619Y-136761276D02*
X145085714Y-136685085D01*
X145085714Y-136685085D02*
X145123809Y-136646990D01*
X145123809Y-136646990D02*
X145200000Y-136608895D01*
X145771428Y-136685085D02*
X145809524Y-136646990D01*
X145809524Y-136646990D02*
X145885714Y-136608895D01*
X145885714Y-136608895D02*
X146076190Y-136608895D01*
X146076190Y-136608895D02*
X146152381Y-136646990D01*
X146152381Y-136646990D02*
X146190476Y-136685085D01*
X146190476Y-136685085D02*
X146228571Y-136761276D01*
X146228571Y-136761276D02*
X146228571Y-136837466D01*
X146228571Y-136837466D02*
X146190476Y-136951752D01*
X146190476Y-136951752D02*
X145733333Y-137408895D01*
X145733333Y-137408895D02*
X146228571Y-137408895D01*
X146495238Y-136608895D02*
X146990476Y-136608895D01*
X146990476Y-136608895D02*
X146723810Y-136913657D01*
X146723810Y-136913657D02*
X146838095Y-136913657D01*
X146838095Y-136913657D02*
X146914286Y-136951752D01*
X146914286Y-136951752D02*
X146952381Y-136989847D01*
X146952381Y-136989847D02*
X146990476Y-137066038D01*
X146990476Y-137066038D02*
X146990476Y-137256514D01*
X146990476Y-137256514D02*
X146952381Y-137332704D01*
X146952381Y-137332704D02*
X146914286Y-137370800D01*
X146914286Y-137370800D02*
X146838095Y-137408895D01*
X146838095Y-137408895D02*
X146609524Y-137408895D01*
X146609524Y-137408895D02*
X146533333Y-137370800D01*
X146533333Y-137370800D02*
X146495238Y-137332704D01*
X147333334Y-137332704D02*
X147371429Y-137370800D01*
X147371429Y-137370800D02*
X147333334Y-137408895D01*
X147333334Y-137408895D02*
X147295238Y-137370800D01*
X147295238Y-137370800D02*
X147333334Y-137332704D01*
X147333334Y-137332704D02*
X147333334Y-137408895D01*
X148133333Y-137408895D02*
X147676190Y-137408895D01*
X147904762Y-137408895D02*
X147904762Y-136608895D01*
X147904762Y-136608895D02*
X147828571Y-136723180D01*
X147828571Y-136723180D02*
X147752381Y-136799371D01*
X147752381Y-136799371D02*
X147676190Y-136837466D01*
X148895238Y-137408895D02*
X148438095Y-137408895D01*
X148666667Y-137408895D02*
X148666667Y-136608895D01*
X148666667Y-136608895D02*
X148590476Y-136723180D01*
X148590476Y-136723180D02*
X148514286Y-136799371D01*
X148514286Y-136799371D02*
X148438095Y-136837466D01*
X149238096Y-137332704D02*
X149276191Y-137370800D01*
X149276191Y-137370800D02*
X149238096Y-137408895D01*
X149238096Y-137408895D02*
X149200000Y-137370800D01*
X149200000Y-137370800D02*
X149238096Y-137332704D01*
X149238096Y-137332704D02*
X149238096Y-137408895D01*
X149580952Y-136685085D02*
X149619048Y-136646990D01*
X149619048Y-136646990D02*
X149695238Y-136608895D01*
X149695238Y-136608895D02*
X149885714Y-136608895D01*
X149885714Y-136608895D02*
X149961905Y-136646990D01*
X149961905Y-136646990D02*
X150000000Y-136685085D01*
X150000000Y-136685085D02*
X150038095Y-136761276D01*
X150038095Y-136761276D02*
X150038095Y-136837466D01*
X150038095Y-136837466D02*
X150000000Y-136951752D01*
X150000000Y-136951752D02*
X149542857Y-137408895D01*
X149542857Y-137408895D02*
X150038095Y-137408895D01*
X150304762Y-136608895D02*
X150838096Y-136608895D01*
X150838096Y-136608895D02*
X150495238Y-137408895D01*
X151142858Y-137332704D02*
X151180953Y-137370800D01*
X151180953Y-137370800D02*
X151142858Y-137408895D01*
X151142858Y-137408895D02*
X151104762Y-137370800D01*
X151104762Y-137370800D02*
X151142858Y-137332704D01*
X151142858Y-137332704D02*
X151142858Y-137408895D01*
X139861067Y-120769704D02*
X139822971Y-120807800D01*
X139822971Y-120807800D02*
X139708686Y-120845895D01*
X139708686Y-120845895D02*
X139632495Y-120845895D01*
X139632495Y-120845895D02*
X139518209Y-120807800D01*
X139518209Y-120807800D02*
X139442019Y-120731609D01*
X139442019Y-120731609D02*
X139403924Y-120655419D01*
X139403924Y-120655419D02*
X139365828Y-120503038D01*
X139365828Y-120503038D02*
X139365828Y-120388752D01*
X139365828Y-120388752D02*
X139403924Y-120236371D01*
X139403924Y-120236371D02*
X139442019Y-120160180D01*
X139442019Y-120160180D02*
X139518209Y-120083990D01*
X139518209Y-120083990D02*
X139632495Y-120045895D01*
X139632495Y-120045895D02*
X139708686Y-120045895D01*
X139708686Y-120045895D02*
X139822971Y-120083990D01*
X139822971Y-120083990D02*
X139861067Y-120122085D01*
X140622971Y-120845895D02*
X140165828Y-120845895D01*
X140394400Y-120845895D02*
X140394400Y-120045895D01*
X140394400Y-120045895D02*
X140318209Y-120160180D01*
X140318209Y-120160180D02*
X140242019Y-120236371D01*
X140242019Y-120236371D02*
X140165828Y-120274466D01*
X136336067Y-120744704D02*
X136297971Y-120782800D01*
X136297971Y-120782800D02*
X136183686Y-120820895D01*
X136183686Y-120820895D02*
X136107495Y-120820895D01*
X136107495Y-120820895D02*
X135993209Y-120782800D01*
X135993209Y-120782800D02*
X135917019Y-120706609D01*
X135917019Y-120706609D02*
X135878924Y-120630419D01*
X135878924Y-120630419D02*
X135840828Y-120478038D01*
X135840828Y-120478038D02*
X135840828Y-120363752D01*
X135840828Y-120363752D02*
X135878924Y-120211371D01*
X135878924Y-120211371D02*
X135917019Y-120135180D01*
X135917019Y-120135180D02*
X135993209Y-120058990D01*
X135993209Y-120058990D02*
X136107495Y-120020895D01*
X136107495Y-120020895D02*
X136183686Y-120020895D01*
X136183686Y-120020895D02*
X136297971Y-120058990D01*
X136297971Y-120058990D02*
X136336067Y-120097085D01*
X136640828Y-120097085D02*
X136678924Y-120058990D01*
X136678924Y-120058990D02*
X136755114Y-120020895D01*
X136755114Y-120020895D02*
X136945590Y-120020895D01*
X136945590Y-120020895D02*
X137021781Y-120058990D01*
X137021781Y-120058990D02*
X137059876Y-120097085D01*
X137059876Y-120097085D02*
X137097971Y-120173276D01*
X137097971Y-120173276D02*
X137097971Y-120249466D01*
X137097971Y-120249466D02*
X137059876Y-120363752D01*
X137059876Y-120363752D02*
X136602733Y-120820895D01*
X136602733Y-120820895D02*
X137097971Y-120820895D01*
X122761304Y-131769932D02*
X122799400Y-131808028D01*
X122799400Y-131808028D02*
X122837495Y-131922313D01*
X122837495Y-131922313D02*
X122837495Y-131998504D01*
X122837495Y-131998504D02*
X122799400Y-132112790D01*
X122799400Y-132112790D02*
X122723209Y-132188980D01*
X122723209Y-132188980D02*
X122647019Y-132227075D01*
X122647019Y-132227075D02*
X122494638Y-132265171D01*
X122494638Y-132265171D02*
X122380352Y-132265171D01*
X122380352Y-132265171D02*
X122227971Y-132227075D01*
X122227971Y-132227075D02*
X122151780Y-132188980D01*
X122151780Y-132188980D02*
X122075590Y-132112790D01*
X122075590Y-132112790D02*
X122037495Y-131998504D01*
X122037495Y-131998504D02*
X122037495Y-131922313D01*
X122037495Y-131922313D02*
X122075590Y-131808028D01*
X122075590Y-131808028D02*
X122113685Y-131769932D01*
X122037495Y-131084218D02*
X122037495Y-131236599D01*
X122037495Y-131236599D02*
X122075590Y-131312790D01*
X122075590Y-131312790D02*
X122113685Y-131350885D01*
X122113685Y-131350885D02*
X122227971Y-131427075D01*
X122227971Y-131427075D02*
X122380352Y-131465171D01*
X122380352Y-131465171D02*
X122685114Y-131465171D01*
X122685114Y-131465171D02*
X122761304Y-131427075D01*
X122761304Y-131427075D02*
X122799400Y-131388980D01*
X122799400Y-131388980D02*
X122837495Y-131312790D01*
X122837495Y-131312790D02*
X122837495Y-131160409D01*
X122837495Y-131160409D02*
X122799400Y-131084218D01*
X122799400Y-131084218D02*
X122761304Y-131046123D01*
X122761304Y-131046123D02*
X122685114Y-131008028D01*
X122685114Y-131008028D02*
X122494638Y-131008028D01*
X122494638Y-131008028D02*
X122418447Y-131046123D01*
X122418447Y-131046123D02*
X122380352Y-131084218D01*
X122380352Y-131084218D02*
X122342257Y-131160409D01*
X122342257Y-131160409D02*
X122342257Y-131312790D01*
X122342257Y-131312790D02*
X122380352Y-131388980D01*
X122380352Y-131388980D02*
X122418447Y-131427075D01*
X122418447Y-131427075D02*
X122494638Y-131465171D01*
D10*
X109112319Y-141657333D02*
X109826604Y-141657333D01*
X109826604Y-141657333D02*
X109969461Y-141704952D01*
X109969461Y-141704952D02*
X110064700Y-141800190D01*
X110064700Y-141800190D02*
X110112319Y-141943047D01*
X110112319Y-141943047D02*
X110112319Y-142038285D01*
X109207557Y-141228761D02*
X109159938Y-141181142D01*
X109159938Y-141181142D02*
X109112319Y-141085904D01*
X109112319Y-141085904D02*
X109112319Y-140847809D01*
X109112319Y-140847809D02*
X109159938Y-140752571D01*
X109159938Y-140752571D02*
X109207557Y-140704952D01*
X109207557Y-140704952D02*
X109302795Y-140657333D01*
X109302795Y-140657333D02*
X109398033Y-140657333D01*
X109398033Y-140657333D02*
X109540890Y-140704952D01*
X109540890Y-140704952D02*
X110112319Y-141276380D01*
X110112319Y-141276380D02*
X110112319Y-140657333D01*
D11*
X119370714Y-125485295D02*
X119104047Y-125104342D01*
X118913571Y-125485295D02*
X118913571Y-124685295D01*
X118913571Y-124685295D02*
X119218333Y-124685295D01*
X119218333Y-124685295D02*
X119294523Y-124723390D01*
X119294523Y-124723390D02*
X119332618Y-124761485D01*
X119332618Y-124761485D02*
X119370714Y-124837676D01*
X119370714Y-124837676D02*
X119370714Y-124951961D01*
X119370714Y-124951961D02*
X119332618Y-125028152D01*
X119332618Y-125028152D02*
X119294523Y-125066247D01*
X119294523Y-125066247D02*
X119218333Y-125104342D01*
X119218333Y-125104342D02*
X118913571Y-125104342D01*
X120132618Y-125485295D02*
X119675475Y-125485295D01*
X119904047Y-125485295D02*
X119904047Y-124685295D01*
X119904047Y-124685295D02*
X119827856Y-124799580D01*
X119827856Y-124799580D02*
X119751666Y-124875771D01*
X119751666Y-124875771D02*
X119675475Y-124913866D01*
X120627857Y-124685295D02*
X120704047Y-124685295D01*
X120704047Y-124685295D02*
X120780238Y-124723390D01*
X120780238Y-124723390D02*
X120818333Y-124761485D01*
X120818333Y-124761485D02*
X120856428Y-124837676D01*
X120856428Y-124837676D02*
X120894523Y-124990057D01*
X120894523Y-124990057D02*
X120894523Y-125180533D01*
X120894523Y-125180533D02*
X120856428Y-125332914D01*
X120856428Y-125332914D02*
X120818333Y-125409104D01*
X120818333Y-125409104D02*
X120780238Y-125447200D01*
X120780238Y-125447200D02*
X120704047Y-125485295D01*
X120704047Y-125485295D02*
X120627857Y-125485295D01*
X120627857Y-125485295D02*
X120551666Y-125447200D01*
X120551666Y-125447200D02*
X120513571Y-125409104D01*
X120513571Y-125409104D02*
X120475476Y-125332914D01*
X120475476Y-125332914D02*
X120437380Y-125180533D01*
X120437380Y-125180533D02*
X120437380Y-124990057D01*
X120437380Y-124990057D02*
X120475476Y-124837676D01*
X120475476Y-124837676D02*
X120513571Y-124761485D01*
X120513571Y-124761485D02*
X120551666Y-124723390D01*
X120551666Y-124723390D02*
X120627857Y-124685295D01*
X154120995Y-121179932D02*
X153740042Y-121446599D01*
X154120995Y-121637075D02*
X153320995Y-121637075D01*
X153320995Y-121637075D02*
X153320995Y-121332313D01*
X153320995Y-121332313D02*
X153359090Y-121256123D01*
X153359090Y-121256123D02*
X153397185Y-121218028D01*
X153397185Y-121218028D02*
X153473376Y-121179932D01*
X153473376Y-121179932D02*
X153587661Y-121179932D01*
X153587661Y-121179932D02*
X153663852Y-121218028D01*
X153663852Y-121218028D02*
X153701947Y-121256123D01*
X153701947Y-121256123D02*
X153740042Y-121332313D01*
X153740042Y-121332313D02*
X153740042Y-121637075D01*
X153320995Y-120456123D02*
X153320995Y-120837075D01*
X153320995Y-120837075D02*
X153701947Y-120875171D01*
X153701947Y-120875171D02*
X153663852Y-120837075D01*
X153663852Y-120837075D02*
X153625757Y-120760885D01*
X153625757Y-120760885D02*
X153625757Y-120570409D01*
X153625757Y-120570409D02*
X153663852Y-120494218D01*
X153663852Y-120494218D02*
X153701947Y-120456123D01*
X153701947Y-120456123D02*
X153778138Y-120418028D01*
X153778138Y-120418028D02*
X153968614Y-120418028D01*
X153968614Y-120418028D02*
X154044804Y-120456123D01*
X154044804Y-120456123D02*
X154082900Y-120494218D01*
X154082900Y-120494218D02*
X154120995Y-120570409D01*
X154120995Y-120570409D02*
X154120995Y-120760885D01*
X154120995Y-120760885D02*
X154082900Y-120837075D01*
X154082900Y-120837075D02*
X154044804Y-120875171D01*
X154120995Y-124854966D02*
X153740042Y-125121633D01*
X154120995Y-125312109D02*
X153320995Y-125312109D01*
X153320995Y-125312109D02*
X153320995Y-125007347D01*
X153320995Y-125007347D02*
X153359090Y-124931157D01*
X153359090Y-124931157D02*
X153397185Y-124893062D01*
X153397185Y-124893062D02*
X153473376Y-124854966D01*
X153473376Y-124854966D02*
X153587661Y-124854966D01*
X153587661Y-124854966D02*
X153663852Y-124893062D01*
X153663852Y-124893062D02*
X153701947Y-124931157D01*
X153701947Y-124931157D02*
X153740042Y-125007347D01*
X153740042Y-125007347D02*
X153740042Y-125312109D01*
X153320995Y-124169252D02*
X153320995Y-124321633D01*
X153320995Y-124321633D02*
X153359090Y-124397824D01*
X153359090Y-124397824D02*
X153397185Y-124435919D01*
X153397185Y-124435919D02*
X153511471Y-124512109D01*
X153511471Y-124512109D02*
X153663852Y-124550205D01*
X153663852Y-124550205D02*
X153968614Y-124550205D01*
X153968614Y-124550205D02*
X154044804Y-124512109D01*
X154044804Y-124512109D02*
X154082900Y-124474014D01*
X154082900Y-124474014D02*
X154120995Y-124397824D01*
X154120995Y-124397824D02*
X154120995Y-124245443D01*
X154120995Y-124245443D02*
X154082900Y-124169252D01*
X154082900Y-124169252D02*
X154044804Y-124131157D01*
X154044804Y-124131157D02*
X153968614Y-124093062D01*
X153968614Y-124093062D02*
X153778138Y-124093062D01*
X153778138Y-124093062D02*
X153701947Y-124131157D01*
X153701947Y-124131157D02*
X153663852Y-124169252D01*
X153663852Y-124169252D02*
X153625757Y-124245443D01*
X153625757Y-124245443D02*
X153625757Y-124397824D01*
X153625757Y-124397824D02*
X153663852Y-124474014D01*
X153663852Y-124474014D02*
X153701947Y-124512109D01*
X153701947Y-124512109D02*
X153778138Y-124550205D01*
X146070995Y-125054966D02*
X145690042Y-125321633D01*
X146070995Y-125512109D02*
X145270995Y-125512109D01*
X145270995Y-125512109D02*
X145270995Y-125207347D01*
X145270995Y-125207347D02*
X145309090Y-125131157D01*
X145309090Y-125131157D02*
X145347185Y-125093062D01*
X145347185Y-125093062D02*
X145423376Y-125054966D01*
X145423376Y-125054966D02*
X145537661Y-125054966D01*
X145537661Y-125054966D02*
X145613852Y-125093062D01*
X145613852Y-125093062D02*
X145651947Y-125131157D01*
X145651947Y-125131157D02*
X145690042Y-125207347D01*
X145690042Y-125207347D02*
X145690042Y-125512109D01*
X145613852Y-124597824D02*
X145575757Y-124674014D01*
X145575757Y-124674014D02*
X145537661Y-124712109D01*
X145537661Y-124712109D02*
X145461471Y-124750205D01*
X145461471Y-124750205D02*
X145423376Y-124750205D01*
X145423376Y-124750205D02*
X145347185Y-124712109D01*
X145347185Y-124712109D02*
X145309090Y-124674014D01*
X145309090Y-124674014D02*
X145270995Y-124597824D01*
X145270995Y-124597824D02*
X145270995Y-124445443D01*
X145270995Y-124445443D02*
X145309090Y-124369252D01*
X145309090Y-124369252D02*
X145347185Y-124331157D01*
X145347185Y-124331157D02*
X145423376Y-124293062D01*
X145423376Y-124293062D02*
X145461471Y-124293062D01*
X145461471Y-124293062D02*
X145537661Y-124331157D01*
X145537661Y-124331157D02*
X145575757Y-124369252D01*
X145575757Y-124369252D02*
X145613852Y-124445443D01*
X145613852Y-124445443D02*
X145613852Y-124597824D01*
X145613852Y-124597824D02*
X145651947Y-124674014D01*
X145651947Y-124674014D02*
X145690042Y-124712109D01*
X145690042Y-124712109D02*
X145766233Y-124750205D01*
X145766233Y-124750205D02*
X145918614Y-124750205D01*
X145918614Y-124750205D02*
X145994804Y-124712109D01*
X145994804Y-124712109D02*
X146032900Y-124674014D01*
X146032900Y-124674014D02*
X146070995Y-124597824D01*
X146070995Y-124597824D02*
X146070995Y-124445443D01*
X146070995Y-124445443D02*
X146032900Y-124369252D01*
X146032900Y-124369252D02*
X145994804Y-124331157D01*
X145994804Y-124331157D02*
X145918614Y-124293062D01*
X145918614Y-124293062D02*
X145766233Y-124293062D01*
X145766233Y-124293062D02*
X145690042Y-124331157D01*
X145690042Y-124331157D02*
X145651947Y-124369252D01*
X145651947Y-124369252D02*
X145613852Y-124445443D01*
X154120995Y-128885853D02*
X153740042Y-129152520D01*
X154120995Y-129342996D02*
X153320995Y-129342996D01*
X153320995Y-129342996D02*
X153320995Y-129038234D01*
X153320995Y-129038234D02*
X153359090Y-128962044D01*
X153359090Y-128962044D02*
X153397185Y-128923949D01*
X153397185Y-128923949D02*
X153473376Y-128885853D01*
X153473376Y-128885853D02*
X153587661Y-128885853D01*
X153587661Y-128885853D02*
X153663852Y-128923949D01*
X153663852Y-128923949D02*
X153701947Y-128962044D01*
X153701947Y-128962044D02*
X153740042Y-129038234D01*
X153740042Y-129038234D02*
X153740042Y-129342996D01*
X154120995Y-128123949D02*
X154120995Y-128581092D01*
X154120995Y-128352520D02*
X153320995Y-128352520D01*
X153320995Y-128352520D02*
X153435280Y-128428711D01*
X153435280Y-128428711D02*
X153511471Y-128504901D01*
X153511471Y-128504901D02*
X153549566Y-128581092D01*
X154120995Y-127362044D02*
X154120995Y-127819187D01*
X154120995Y-127590615D02*
X153320995Y-127590615D01*
X153320995Y-127590615D02*
X153435280Y-127666806D01*
X153435280Y-127666806D02*
X153511471Y-127742996D01*
X153511471Y-127742996D02*
X153549566Y-127819187D01*
X154120995Y-132510885D02*
X153740042Y-132777552D01*
X154120995Y-132968028D02*
X153320995Y-132968028D01*
X153320995Y-132968028D02*
X153320995Y-132663266D01*
X153320995Y-132663266D02*
X153359090Y-132587076D01*
X153359090Y-132587076D02*
X153397185Y-132548981D01*
X153397185Y-132548981D02*
X153473376Y-132510885D01*
X153473376Y-132510885D02*
X153587661Y-132510885D01*
X153587661Y-132510885D02*
X153663852Y-132548981D01*
X153663852Y-132548981D02*
X153701947Y-132587076D01*
X153701947Y-132587076D02*
X153740042Y-132663266D01*
X153740042Y-132663266D02*
X153740042Y-132968028D01*
X154120995Y-131748981D02*
X154120995Y-132206124D01*
X154120995Y-131977552D02*
X153320995Y-131977552D01*
X153320995Y-131977552D02*
X153435280Y-132053743D01*
X153435280Y-132053743D02*
X153511471Y-132129933D01*
X153511471Y-132129933D02*
X153549566Y-132206124D01*
X153397185Y-131444219D02*
X153359090Y-131406123D01*
X153359090Y-131406123D02*
X153320995Y-131329933D01*
X153320995Y-131329933D02*
X153320995Y-131139457D01*
X153320995Y-131139457D02*
X153359090Y-131063266D01*
X153359090Y-131063266D02*
X153397185Y-131025171D01*
X153397185Y-131025171D02*
X153473376Y-130987076D01*
X153473376Y-130987076D02*
X153549566Y-130987076D01*
X153549566Y-130987076D02*
X153663852Y-131025171D01*
X153663852Y-131025171D02*
X154120995Y-131482314D01*
X154120995Y-131482314D02*
X154120995Y-130987076D01*
X146070995Y-128885853D02*
X145690042Y-129152520D01*
X146070995Y-129342996D02*
X145270995Y-129342996D01*
X145270995Y-129342996D02*
X145270995Y-129038234D01*
X145270995Y-129038234D02*
X145309090Y-128962044D01*
X145309090Y-128962044D02*
X145347185Y-128923949D01*
X145347185Y-128923949D02*
X145423376Y-128885853D01*
X145423376Y-128885853D02*
X145537661Y-128885853D01*
X145537661Y-128885853D02*
X145613852Y-128923949D01*
X145613852Y-128923949D02*
X145651947Y-128962044D01*
X145651947Y-128962044D02*
X145690042Y-129038234D01*
X145690042Y-129038234D02*
X145690042Y-129342996D01*
X146070995Y-128123949D02*
X146070995Y-128581092D01*
X146070995Y-128352520D02*
X145270995Y-128352520D01*
X145270995Y-128352520D02*
X145385280Y-128428711D01*
X145385280Y-128428711D02*
X145461471Y-128504901D01*
X145461471Y-128504901D02*
X145499566Y-128581092D01*
X145270995Y-127857282D02*
X145270995Y-127362044D01*
X145270995Y-127362044D02*
X145575757Y-127628710D01*
X145575757Y-127628710D02*
X145575757Y-127514425D01*
X145575757Y-127514425D02*
X145613852Y-127438234D01*
X145613852Y-127438234D02*
X145651947Y-127400139D01*
X145651947Y-127400139D02*
X145728138Y-127362044D01*
X145728138Y-127362044D02*
X145918614Y-127362044D01*
X145918614Y-127362044D02*
X145994804Y-127400139D01*
X145994804Y-127400139D02*
X146032900Y-127438234D01*
X146032900Y-127438234D02*
X146070995Y-127514425D01*
X146070995Y-127514425D02*
X146070995Y-127742996D01*
X146070995Y-127742996D02*
X146032900Y-127819187D01*
X146032900Y-127819187D02*
X145994804Y-127857282D01*
X146070995Y-132535885D02*
X145690042Y-132802552D01*
X146070995Y-132993028D02*
X145270995Y-132993028D01*
X145270995Y-132993028D02*
X145270995Y-132688266D01*
X145270995Y-132688266D02*
X145309090Y-132612076D01*
X145309090Y-132612076D02*
X145347185Y-132573981D01*
X145347185Y-132573981D02*
X145423376Y-132535885D01*
X145423376Y-132535885D02*
X145537661Y-132535885D01*
X145537661Y-132535885D02*
X145613852Y-132573981D01*
X145613852Y-132573981D02*
X145651947Y-132612076D01*
X145651947Y-132612076D02*
X145690042Y-132688266D01*
X145690042Y-132688266D02*
X145690042Y-132993028D01*
X146070995Y-131773981D02*
X146070995Y-132231124D01*
X146070995Y-132002552D02*
X145270995Y-132002552D01*
X145270995Y-132002552D02*
X145385280Y-132078743D01*
X145385280Y-132078743D02*
X145461471Y-132154933D01*
X145461471Y-132154933D02*
X145499566Y-132231124D01*
X145537661Y-131088266D02*
X146070995Y-131088266D01*
X145232900Y-131278742D02*
X145804328Y-131469219D01*
X145804328Y-131469219D02*
X145804328Y-130973980D01*
X136389867Y-136127904D02*
X136351771Y-136166000D01*
X136351771Y-136166000D02*
X136237486Y-136204095D01*
X136237486Y-136204095D02*
X136161295Y-136204095D01*
X136161295Y-136204095D02*
X136047009Y-136166000D01*
X136047009Y-136166000D02*
X135970819Y-136089809D01*
X135970819Y-136089809D02*
X135932724Y-136013619D01*
X135932724Y-136013619D02*
X135894628Y-135861238D01*
X135894628Y-135861238D02*
X135894628Y-135746952D01*
X135894628Y-135746952D02*
X135932724Y-135594571D01*
X135932724Y-135594571D02*
X135970819Y-135518380D01*
X135970819Y-135518380D02*
X136047009Y-135442190D01*
X136047009Y-135442190D02*
X136161295Y-135404095D01*
X136161295Y-135404095D02*
X136237486Y-135404095D01*
X136237486Y-135404095D02*
X136351771Y-135442190D01*
X136351771Y-135442190D02*
X136389867Y-135480285D01*
X137075581Y-135670761D02*
X137075581Y-136204095D01*
X136885105Y-135366000D02*
X136694628Y-135937428D01*
X136694628Y-135937428D02*
X137189867Y-135937428D01*
X131681095Y-130994132D02*
X131300142Y-131260799D01*
X131681095Y-131451275D02*
X130881095Y-131451275D01*
X130881095Y-131451275D02*
X130881095Y-131146513D01*
X130881095Y-131146513D02*
X130919190Y-131070323D01*
X130919190Y-131070323D02*
X130957285Y-131032228D01*
X130957285Y-131032228D02*
X131033476Y-130994132D01*
X131033476Y-130994132D02*
X131147761Y-130994132D01*
X131147761Y-130994132D02*
X131223952Y-131032228D01*
X131223952Y-131032228D02*
X131262047Y-131070323D01*
X131262047Y-131070323D02*
X131300142Y-131146513D01*
X131300142Y-131146513D02*
X131300142Y-131451275D01*
X130881095Y-130727466D02*
X130881095Y-130232228D01*
X130881095Y-130232228D02*
X131185857Y-130498894D01*
X131185857Y-130498894D02*
X131185857Y-130384609D01*
X131185857Y-130384609D02*
X131223952Y-130308418D01*
X131223952Y-130308418D02*
X131262047Y-130270323D01*
X131262047Y-130270323D02*
X131338238Y-130232228D01*
X131338238Y-130232228D02*
X131528714Y-130232228D01*
X131528714Y-130232228D02*
X131604904Y-130270323D01*
X131604904Y-130270323D02*
X131643000Y-130308418D01*
X131643000Y-130308418D02*
X131681095Y-130384609D01*
X131681095Y-130384609D02*
X131681095Y-130613180D01*
X131681095Y-130613180D02*
X131643000Y-130689371D01*
X131643000Y-130689371D02*
X131604904Y-130727466D01*
X131808095Y-122764532D02*
X131427142Y-123031199D01*
X131808095Y-123221675D02*
X131008095Y-123221675D01*
X131008095Y-123221675D02*
X131008095Y-122916913D01*
X131008095Y-122916913D02*
X131046190Y-122840723D01*
X131046190Y-122840723D02*
X131084285Y-122802628D01*
X131084285Y-122802628D02*
X131160476Y-122764532D01*
X131160476Y-122764532D02*
X131274761Y-122764532D01*
X131274761Y-122764532D02*
X131350952Y-122802628D01*
X131350952Y-122802628D02*
X131389047Y-122840723D01*
X131389047Y-122840723D02*
X131427142Y-122916913D01*
X131427142Y-122916913D02*
X131427142Y-123221675D01*
X131274761Y-122078818D02*
X131808095Y-122078818D01*
X130970000Y-122269294D02*
X131541428Y-122459771D01*
X131541428Y-122459771D02*
X131541428Y-121964532D01*
X166785580Y-126339695D02*
X165976057Y-126339695D01*
X165976057Y-126339695D02*
X165880819Y-126387314D01*
X165880819Y-126387314D02*
X165833200Y-126434933D01*
X165833200Y-126434933D02*
X165785580Y-126530171D01*
X165785580Y-126530171D02*
X165785580Y-126720647D01*
X165785580Y-126720647D02*
X165833200Y-126815885D01*
X165833200Y-126815885D02*
X165880819Y-126863504D01*
X165880819Y-126863504D02*
X165976057Y-126911123D01*
X165976057Y-126911123D02*
X166785580Y-126911123D01*
X165785580Y-127911123D02*
X165785580Y-127339695D01*
X165785580Y-127625409D02*
X166785580Y-127625409D01*
X166785580Y-127625409D02*
X166642723Y-127530171D01*
X166642723Y-127530171D02*
X166547485Y-127434933D01*
X166547485Y-127434933D02*
X166499866Y-127339695D01*
X172751204Y-120136322D02*
X172751204Y-119983941D01*
X172751204Y-119983941D02*
X172713109Y-119907750D01*
X172713109Y-119907750D02*
X172675014Y-119869655D01*
X172675014Y-119869655D02*
X172560728Y-119793465D01*
X172560728Y-119793465D02*
X172408347Y-119755369D01*
X172408347Y-119755369D02*
X172103585Y-119755369D01*
X172103585Y-119755369D02*
X172027395Y-119793465D01*
X172027395Y-119793465D02*
X171989300Y-119831560D01*
X171989300Y-119831560D02*
X171951204Y-119907750D01*
X171951204Y-119907750D02*
X171951204Y-120060131D01*
X171951204Y-120060131D02*
X171989300Y-120136322D01*
X171989300Y-120136322D02*
X172027395Y-120174417D01*
X172027395Y-120174417D02*
X172103585Y-120212512D01*
X172103585Y-120212512D02*
X172294061Y-120212512D01*
X172294061Y-120212512D02*
X172370252Y-120174417D01*
X172370252Y-120174417D02*
X172408347Y-120136322D01*
X172408347Y-120136322D02*
X172446442Y-120060131D01*
X172446442Y-120060131D02*
X172446442Y-119907750D01*
X172446442Y-119907750D02*
X172408347Y-119831560D01*
X172408347Y-119831560D02*
X172370252Y-119793465D01*
X172370252Y-119793465D02*
X172294061Y-119755369D01*
X170211204Y-119717274D02*
X170211204Y-120250608D01*
X170211204Y-120250608D02*
X169411204Y-119907750D01*
X167328347Y-119907750D02*
X167366442Y-119831560D01*
X167366442Y-119831560D02*
X167404538Y-119793465D01*
X167404538Y-119793465D02*
X167480728Y-119755369D01*
X167480728Y-119755369D02*
X167518823Y-119755369D01*
X167518823Y-119755369D02*
X167595014Y-119793465D01*
X167595014Y-119793465D02*
X167633109Y-119831560D01*
X167633109Y-119831560D02*
X167671204Y-119907750D01*
X167671204Y-119907750D02*
X167671204Y-120060131D01*
X167671204Y-120060131D02*
X167633109Y-120136322D01*
X167633109Y-120136322D02*
X167595014Y-120174417D01*
X167595014Y-120174417D02*
X167518823Y-120212512D01*
X167518823Y-120212512D02*
X167480728Y-120212512D01*
X167480728Y-120212512D02*
X167404538Y-120174417D01*
X167404538Y-120174417D02*
X167366442Y-120136322D01*
X167366442Y-120136322D02*
X167328347Y-120060131D01*
X167328347Y-120060131D02*
X167328347Y-119907750D01*
X167328347Y-119907750D02*
X167290252Y-119831560D01*
X167290252Y-119831560D02*
X167252157Y-119793465D01*
X167252157Y-119793465D02*
X167175966Y-119755369D01*
X167175966Y-119755369D02*
X167023585Y-119755369D01*
X167023585Y-119755369D02*
X166947395Y-119793465D01*
X166947395Y-119793465D02*
X166909300Y-119831560D01*
X166909300Y-119831560D02*
X166871204Y-119907750D01*
X166871204Y-119907750D02*
X166871204Y-120060131D01*
X166871204Y-120060131D02*
X166909300Y-120136322D01*
X166909300Y-120136322D02*
X166947395Y-120174417D01*
X166947395Y-120174417D02*
X167023585Y-120212512D01*
X167023585Y-120212512D02*
X167175966Y-120212512D01*
X167175966Y-120212512D02*
X167252157Y-120174417D01*
X167252157Y-120174417D02*
X167290252Y-120136322D01*
X167290252Y-120136322D02*
X167328347Y-120060131D01*
X157435014Y-119755369D02*
X157473109Y-119793465D01*
X157473109Y-119793465D02*
X157511204Y-119869655D01*
X157511204Y-119869655D02*
X157511204Y-120060131D01*
X157511204Y-120060131D02*
X157473109Y-120136322D01*
X157473109Y-120136322D02*
X157435014Y-120174417D01*
X157435014Y-120174417D02*
X157358823Y-120212512D01*
X157358823Y-120212512D02*
X157282633Y-120212512D01*
X157282633Y-120212512D02*
X157168347Y-120174417D01*
X157168347Y-120174417D02*
X156711204Y-119717274D01*
X156711204Y-119717274D02*
X156711204Y-120212512D01*
X156711204Y-120974417D02*
X156711204Y-120517274D01*
X156711204Y-120745846D02*
X157511204Y-120745846D01*
X157511204Y-120745846D02*
X157396919Y-120669655D01*
X157396919Y-120669655D02*
X157320728Y-120593465D01*
X157320728Y-120593465D02*
X157282633Y-120517274D01*
X175291204Y-120174417D02*
X175291204Y-119793465D01*
X175291204Y-119793465D02*
X174910252Y-119755369D01*
X174910252Y-119755369D02*
X174948347Y-119793465D01*
X174948347Y-119793465D02*
X174986442Y-119869655D01*
X174986442Y-119869655D02*
X174986442Y-120060131D01*
X174986442Y-120060131D02*
X174948347Y-120136322D01*
X174948347Y-120136322D02*
X174910252Y-120174417D01*
X174910252Y-120174417D02*
X174834061Y-120212512D01*
X174834061Y-120212512D02*
X174643585Y-120212512D01*
X174643585Y-120212512D02*
X174567395Y-120174417D01*
X174567395Y-120174417D02*
X174529300Y-120136322D01*
X174529300Y-120136322D02*
X174491204Y-120060131D01*
X174491204Y-120060131D02*
X174491204Y-119869655D01*
X174491204Y-119869655D02*
X174529300Y-119793465D01*
X174529300Y-119793465D02*
X174567395Y-119755369D01*
X162541514Y-133635369D02*
X162579609Y-133673465D01*
X162579609Y-133673465D02*
X162617704Y-133749655D01*
X162617704Y-133749655D02*
X162617704Y-133940131D01*
X162617704Y-133940131D02*
X162579609Y-134016322D01*
X162579609Y-134016322D02*
X162541514Y-134054417D01*
X162541514Y-134054417D02*
X162465323Y-134092512D01*
X162465323Y-134092512D02*
X162389133Y-134092512D01*
X162389133Y-134092512D02*
X162274847Y-134054417D01*
X162274847Y-134054417D02*
X161817704Y-133597274D01*
X161817704Y-133597274D02*
X161817704Y-134092512D01*
X175317704Y-133368703D02*
X175317704Y-132987751D01*
X175317704Y-132987751D02*
X174936752Y-132949655D01*
X174936752Y-132949655D02*
X174974847Y-132987751D01*
X174974847Y-132987751D02*
X175012942Y-133063941D01*
X175012942Y-133063941D02*
X175012942Y-133254417D01*
X175012942Y-133254417D02*
X174974847Y-133330608D01*
X174974847Y-133330608D02*
X174936752Y-133368703D01*
X174936752Y-133368703D02*
X174860561Y-133406798D01*
X174860561Y-133406798D02*
X174670085Y-133406798D01*
X174670085Y-133406798D02*
X174593895Y-133368703D01*
X174593895Y-133368703D02*
X174555800Y-133330608D01*
X174555800Y-133330608D02*
X174517704Y-133254417D01*
X174517704Y-133254417D02*
X174517704Y-133063941D01*
X174517704Y-133063941D02*
X174555800Y-132987751D01*
X174555800Y-132987751D02*
X174593895Y-132949655D01*
X175317704Y-133635370D02*
X174517704Y-133902037D01*
X174517704Y-133902037D02*
X175317704Y-134168703D01*
X161791204Y-120212512D02*
X161791204Y-119755369D01*
X161791204Y-119983941D02*
X162591204Y-119983941D01*
X162591204Y-119983941D02*
X162476919Y-119907750D01*
X162476919Y-119907750D02*
X162400728Y-119831560D01*
X162400728Y-119831560D02*
X162362633Y-119755369D01*
X162591204Y-120707751D02*
X162591204Y-120783941D01*
X162591204Y-120783941D02*
X162553109Y-120860132D01*
X162553109Y-120860132D02*
X162515014Y-120898227D01*
X162515014Y-120898227D02*
X162438823Y-120936322D01*
X162438823Y-120936322D02*
X162286442Y-120974417D01*
X162286442Y-120974417D02*
X162095966Y-120974417D01*
X162095966Y-120974417D02*
X161943585Y-120936322D01*
X161943585Y-120936322D02*
X161867395Y-120898227D01*
X161867395Y-120898227D02*
X161829300Y-120860132D01*
X161829300Y-120860132D02*
X161791204Y-120783941D01*
X161791204Y-120783941D02*
X161791204Y-120707751D01*
X161791204Y-120707751D02*
X161829300Y-120631560D01*
X161829300Y-120631560D02*
X161867395Y-120593465D01*
X161867395Y-120593465D02*
X161943585Y-120555370D01*
X161943585Y-120555370D02*
X162095966Y-120517274D01*
X162095966Y-120517274D02*
X162286442Y-120517274D01*
X162286442Y-120517274D02*
X162438823Y-120555370D01*
X162438823Y-120555370D02*
X162515014Y-120593465D01*
X162515014Y-120593465D02*
X162553109Y-120631560D01*
X162553109Y-120631560D02*
X162591204Y-120707751D01*
X165157704Y-133597274D02*
X165157704Y-134092512D01*
X165157704Y-134092512D02*
X164852942Y-133825846D01*
X164852942Y-133825846D02*
X164852942Y-133940131D01*
X164852942Y-133940131D02*
X164814847Y-134016322D01*
X164814847Y-134016322D02*
X164776752Y-134054417D01*
X164776752Y-134054417D02*
X164700561Y-134092512D01*
X164700561Y-134092512D02*
X164510085Y-134092512D01*
X164510085Y-134092512D02*
X164433895Y-134054417D01*
X164433895Y-134054417D02*
X164395800Y-134016322D01*
X164395800Y-134016322D02*
X164357704Y-133940131D01*
X164357704Y-133940131D02*
X164357704Y-133711560D01*
X164357704Y-133711560D02*
X164395800Y-133635369D01*
X164395800Y-133635369D02*
X164433895Y-133597274D01*
X159975014Y-119755369D02*
X160013109Y-119793465D01*
X160013109Y-119793465D02*
X160051204Y-119869655D01*
X160051204Y-119869655D02*
X160051204Y-120060131D01*
X160051204Y-120060131D02*
X160013109Y-120136322D01*
X160013109Y-120136322D02*
X159975014Y-120174417D01*
X159975014Y-120174417D02*
X159898823Y-120212512D01*
X159898823Y-120212512D02*
X159822633Y-120212512D01*
X159822633Y-120212512D02*
X159708347Y-120174417D01*
X159708347Y-120174417D02*
X159251204Y-119717274D01*
X159251204Y-119717274D02*
X159251204Y-120212512D01*
X160051204Y-120707751D02*
X160051204Y-120783941D01*
X160051204Y-120783941D02*
X160013109Y-120860132D01*
X160013109Y-120860132D02*
X159975014Y-120898227D01*
X159975014Y-120898227D02*
X159898823Y-120936322D01*
X159898823Y-120936322D02*
X159746442Y-120974417D01*
X159746442Y-120974417D02*
X159555966Y-120974417D01*
X159555966Y-120974417D02*
X159403585Y-120936322D01*
X159403585Y-120936322D02*
X159327395Y-120898227D01*
X159327395Y-120898227D02*
X159289300Y-120860132D01*
X159289300Y-120860132D02*
X159251204Y-120783941D01*
X159251204Y-120783941D02*
X159251204Y-120707751D01*
X159251204Y-120707751D02*
X159289300Y-120631560D01*
X159289300Y-120631560D02*
X159327395Y-120593465D01*
X159327395Y-120593465D02*
X159403585Y-120555370D01*
X159403585Y-120555370D02*
X159555966Y-120517274D01*
X159555966Y-120517274D02*
X159746442Y-120517274D01*
X159746442Y-120517274D02*
X159898823Y-120555370D01*
X159898823Y-120555370D02*
X159975014Y-120593465D01*
X159975014Y-120593465D02*
X160013109Y-120631560D01*
X160013109Y-120631560D02*
X160051204Y-120707751D01*
X157537704Y-133825846D02*
X157537704Y-133902036D01*
X157537704Y-133902036D02*
X157499609Y-133978227D01*
X157499609Y-133978227D02*
X157461514Y-134016322D01*
X157461514Y-134016322D02*
X157385323Y-134054417D01*
X157385323Y-134054417D02*
X157232942Y-134092512D01*
X157232942Y-134092512D02*
X157042466Y-134092512D01*
X157042466Y-134092512D02*
X156890085Y-134054417D01*
X156890085Y-134054417D02*
X156813895Y-134016322D01*
X156813895Y-134016322D02*
X156775800Y-133978227D01*
X156775800Y-133978227D02*
X156737704Y-133902036D01*
X156737704Y-133902036D02*
X156737704Y-133825846D01*
X156737704Y-133825846D02*
X156775800Y-133749655D01*
X156775800Y-133749655D02*
X156813895Y-133711560D01*
X156813895Y-133711560D02*
X156890085Y-133673465D01*
X156890085Y-133673465D02*
X157042466Y-133635369D01*
X157042466Y-133635369D02*
X157232942Y-133635369D01*
X157232942Y-133635369D02*
X157385323Y-133673465D01*
X157385323Y-133673465D02*
X157461514Y-133711560D01*
X157461514Y-133711560D02*
X157499609Y-133749655D01*
X157499609Y-133749655D02*
X157537704Y-133825846D01*
X172739609Y-132416322D02*
X172777704Y-132340132D01*
X172777704Y-132340132D02*
X172777704Y-132225846D01*
X172777704Y-132225846D02*
X172739609Y-132111560D01*
X172739609Y-132111560D02*
X172663419Y-132035370D01*
X172663419Y-132035370D02*
X172587228Y-131997275D01*
X172587228Y-131997275D02*
X172434847Y-131959179D01*
X172434847Y-131959179D02*
X172320561Y-131959179D01*
X172320561Y-131959179D02*
X172168180Y-131997275D01*
X172168180Y-131997275D02*
X172091990Y-132035370D01*
X172091990Y-132035370D02*
X172015800Y-132111560D01*
X172015800Y-132111560D02*
X171977704Y-132225846D01*
X171977704Y-132225846D02*
X171977704Y-132302037D01*
X171977704Y-132302037D02*
X172015800Y-132416322D01*
X172015800Y-132416322D02*
X172053895Y-132454418D01*
X172053895Y-132454418D02*
X172320561Y-132454418D01*
X172320561Y-132454418D02*
X172320561Y-132302037D01*
X171977704Y-132797275D02*
X172777704Y-132797275D01*
X172777704Y-132797275D02*
X171977704Y-133254418D01*
X171977704Y-133254418D02*
X172777704Y-133254418D01*
X171977704Y-133635370D02*
X172777704Y-133635370D01*
X172777704Y-133635370D02*
X172777704Y-133825846D01*
X172777704Y-133825846D02*
X172739609Y-133940132D01*
X172739609Y-133940132D02*
X172663419Y-134016322D01*
X172663419Y-134016322D02*
X172587228Y-134054417D01*
X172587228Y-134054417D02*
X172434847Y-134092513D01*
X172434847Y-134092513D02*
X172320561Y-134092513D01*
X172320561Y-134092513D02*
X172168180Y-134054417D01*
X172168180Y-134054417D02*
X172091990Y-134016322D01*
X172091990Y-134016322D02*
X172015800Y-133940132D01*
X172015800Y-133940132D02*
X171977704Y-133825846D01*
X171977704Y-133825846D02*
X171977704Y-133635370D01*
X159277704Y-134092512D02*
X159277704Y-133635369D01*
X159277704Y-133863941D02*
X160077704Y-133863941D01*
X160077704Y-133863941D02*
X159963419Y-133787750D01*
X159963419Y-133787750D02*
X159887228Y-133711560D01*
X159887228Y-133711560D02*
X159849133Y-133635369D01*
X164331204Y-119831560D02*
X164331204Y-119983941D01*
X164331204Y-119983941D02*
X164369300Y-120060131D01*
X164369300Y-120060131D02*
X164407395Y-120098227D01*
X164407395Y-120098227D02*
X164521680Y-120174417D01*
X164521680Y-120174417D02*
X164674061Y-120212512D01*
X164674061Y-120212512D02*
X164978823Y-120212512D01*
X164978823Y-120212512D02*
X165055014Y-120174417D01*
X165055014Y-120174417D02*
X165093109Y-120136322D01*
X165093109Y-120136322D02*
X165131204Y-120060131D01*
X165131204Y-120060131D02*
X165131204Y-119907750D01*
X165131204Y-119907750D02*
X165093109Y-119831560D01*
X165093109Y-119831560D02*
X165055014Y-119793465D01*
X165055014Y-119793465D02*
X164978823Y-119755369D01*
X164978823Y-119755369D02*
X164788347Y-119755369D01*
X164788347Y-119755369D02*
X164712157Y-119793465D01*
X164712157Y-119793465D02*
X164674061Y-119831560D01*
X164674061Y-119831560D02*
X164635966Y-119907750D01*
X164635966Y-119907750D02*
X164635966Y-120060131D01*
X164635966Y-120060131D02*
X164674061Y-120136322D01*
X164674061Y-120136322D02*
X164712157Y-120174417D01*
X164712157Y-120174417D02*
X164788347Y-120212512D01*
X170237704Y-132225845D02*
X170237704Y-132721083D01*
X170237704Y-132721083D02*
X169932942Y-132454417D01*
X169932942Y-132454417D02*
X169932942Y-132568702D01*
X169932942Y-132568702D02*
X169894847Y-132644893D01*
X169894847Y-132644893D02*
X169856752Y-132682988D01*
X169856752Y-132682988D02*
X169780561Y-132721083D01*
X169780561Y-132721083D02*
X169590085Y-132721083D01*
X169590085Y-132721083D02*
X169513895Y-132682988D01*
X169513895Y-132682988D02*
X169475800Y-132644893D01*
X169475800Y-132644893D02*
X169437704Y-132568702D01*
X169437704Y-132568702D02*
X169437704Y-132340131D01*
X169437704Y-132340131D02*
X169475800Y-132263940D01*
X169475800Y-132263940D02*
X169513895Y-132225845D01*
X170237704Y-132949655D02*
X169437704Y-133216322D01*
X169437704Y-133216322D02*
X170237704Y-133482988D01*
X170237704Y-133673464D02*
X170237704Y-134168702D01*
X170237704Y-134168702D02*
X169932942Y-133902036D01*
X169932942Y-133902036D02*
X169932942Y-134016321D01*
X169932942Y-134016321D02*
X169894847Y-134092512D01*
X169894847Y-134092512D02*
X169856752Y-134130607D01*
X169856752Y-134130607D02*
X169780561Y-134168702D01*
X169780561Y-134168702D02*
X169590085Y-134168702D01*
X169590085Y-134168702D02*
X169513895Y-134130607D01*
X169513895Y-134130607D02*
X169475800Y-134092512D01*
X169475800Y-134092512D02*
X169437704Y-134016321D01*
X169437704Y-134016321D02*
X169437704Y-133787750D01*
X169437704Y-133787750D02*
X169475800Y-133711559D01*
X169475800Y-133711559D02*
X169513895Y-133673464D01*
X167431038Y-134016322D02*
X166897704Y-134016322D01*
X167735800Y-133825846D02*
X167164371Y-133635369D01*
X167164371Y-133635369D02*
X167164371Y-134130608D01*
X150629909Y-125162685D02*
X150553719Y-125124590D01*
X150553719Y-125124590D02*
X150477528Y-125048400D01*
X150477528Y-125048400D02*
X150363242Y-124934114D01*
X150363242Y-124934114D02*
X150287052Y-124896019D01*
X150287052Y-124896019D02*
X150210861Y-124896019D01*
X150248957Y-125086495D02*
X150172766Y-125048400D01*
X150172766Y-125048400D02*
X150096576Y-124972209D01*
X150096576Y-124972209D02*
X150058480Y-124819828D01*
X150058480Y-124819828D02*
X150058480Y-124553161D01*
X150058480Y-124553161D02*
X150096576Y-124400780D01*
X150096576Y-124400780D02*
X150172766Y-124324590D01*
X150172766Y-124324590D02*
X150248957Y-124286495D01*
X150248957Y-124286495D02*
X150401338Y-124286495D01*
X150401338Y-124286495D02*
X150477528Y-124324590D01*
X150477528Y-124324590D02*
X150553719Y-124400780D01*
X150553719Y-124400780D02*
X150591814Y-124553161D01*
X150591814Y-124553161D02*
X150591814Y-124819828D01*
X150591814Y-124819828D02*
X150553719Y-124972209D01*
X150553719Y-124972209D02*
X150477528Y-125048400D01*
X150477528Y-125048400D02*
X150401338Y-125086495D01*
X150401338Y-125086495D02*
X150248957Y-125086495D01*
X150896575Y-124362685D02*
X150934671Y-124324590D01*
X150934671Y-124324590D02*
X151010861Y-124286495D01*
X151010861Y-124286495D02*
X151201337Y-124286495D01*
X151201337Y-124286495D02*
X151277528Y-124324590D01*
X151277528Y-124324590D02*
X151315623Y-124362685D01*
X151315623Y-124362685D02*
X151353718Y-124438876D01*
X151353718Y-124438876D02*
X151353718Y-124515066D01*
X151353718Y-124515066D02*
X151315623Y-124629352D01*
X151315623Y-124629352D02*
X150858480Y-125086495D01*
X150858480Y-125086495D02*
X151353718Y-125086495D01*
X124750676Y-120138695D02*
X124750676Y-120786314D01*
X124750676Y-120786314D02*
X124788771Y-120862504D01*
X124788771Y-120862504D02*
X124826866Y-120900600D01*
X124826866Y-120900600D02*
X124903057Y-120938695D01*
X124903057Y-120938695D02*
X125055438Y-120938695D01*
X125055438Y-120938695D02*
X125131628Y-120900600D01*
X125131628Y-120900600D02*
X125169723Y-120862504D01*
X125169723Y-120862504D02*
X125207819Y-120786314D01*
X125207819Y-120786314D02*
X125207819Y-120138695D01*
X125931628Y-120405361D02*
X125931628Y-120938695D01*
X125741152Y-120100600D02*
X125550675Y-120672028D01*
X125550675Y-120672028D02*
X126045914Y-120672028D01*
X136883504Y-150004332D02*
X136921600Y-150042428D01*
X136921600Y-150042428D02*
X136959695Y-150156713D01*
X136959695Y-150156713D02*
X136959695Y-150232904D01*
X136959695Y-150232904D02*
X136921600Y-150347190D01*
X136921600Y-150347190D02*
X136845409Y-150423380D01*
X136845409Y-150423380D02*
X136769219Y-150461475D01*
X136769219Y-150461475D02*
X136616838Y-150499571D01*
X136616838Y-150499571D02*
X136502552Y-150499571D01*
X136502552Y-150499571D02*
X136350171Y-150461475D01*
X136350171Y-150461475D02*
X136273980Y-150423380D01*
X136273980Y-150423380D02*
X136197790Y-150347190D01*
X136197790Y-150347190D02*
X136159695Y-150232904D01*
X136159695Y-150232904D02*
X136159695Y-150156713D01*
X136159695Y-150156713D02*
X136197790Y-150042428D01*
X136197790Y-150042428D02*
X136235885Y-150004332D01*
X136159695Y-149737666D02*
X136159695Y-149242428D01*
X136159695Y-149242428D02*
X136464457Y-149509094D01*
X136464457Y-149509094D02*
X136464457Y-149394809D01*
X136464457Y-149394809D02*
X136502552Y-149318618D01*
X136502552Y-149318618D02*
X136540647Y-149280523D01*
X136540647Y-149280523D02*
X136616838Y-149242428D01*
X136616838Y-149242428D02*
X136807314Y-149242428D01*
X136807314Y-149242428D02*
X136883504Y-149280523D01*
X136883504Y-149280523D02*
X136921600Y-149318618D01*
X136921600Y-149318618D02*
X136959695Y-149394809D01*
X136959695Y-149394809D02*
X136959695Y-149623380D01*
X136959695Y-149623380D02*
X136921600Y-149699571D01*
X136921600Y-149699571D02*
X136883504Y-149737666D01*
X147878876Y-148789895D02*
X147878876Y-149437514D01*
X147878876Y-149437514D02*
X147916971Y-149513704D01*
X147916971Y-149513704D02*
X147955066Y-149551800D01*
X147955066Y-149551800D02*
X148031257Y-149589895D01*
X148031257Y-149589895D02*
X148183638Y-149589895D01*
X148183638Y-149589895D02*
X148259828Y-149551800D01*
X148259828Y-149551800D02*
X148297923Y-149513704D01*
X148297923Y-149513704D02*
X148336019Y-149437514D01*
X148336019Y-149437514D02*
X148336019Y-148789895D01*
X149059828Y-148789895D02*
X148907447Y-148789895D01*
X148907447Y-148789895D02*
X148831256Y-148827990D01*
X148831256Y-148827990D02*
X148793161Y-148866085D01*
X148793161Y-148866085D02*
X148716971Y-148980371D01*
X148716971Y-148980371D02*
X148678875Y-149132752D01*
X148678875Y-149132752D02*
X148678875Y-149437514D01*
X148678875Y-149437514D02*
X148716971Y-149513704D01*
X148716971Y-149513704D02*
X148755066Y-149551800D01*
X148755066Y-149551800D02*
X148831256Y-149589895D01*
X148831256Y-149589895D02*
X148983637Y-149589895D01*
X148983637Y-149589895D02*
X149059828Y-149551800D01*
X149059828Y-149551800D02*
X149097923Y-149513704D01*
X149097923Y-149513704D02*
X149136018Y-149437514D01*
X149136018Y-149437514D02*
X149136018Y-149247038D01*
X149136018Y-149247038D02*
X149097923Y-149170847D01*
X149097923Y-149170847D02*
X149059828Y-149132752D01*
X149059828Y-149132752D02*
X148983637Y-149094657D01*
X148983637Y-149094657D02*
X148831256Y-149094657D01*
X148831256Y-149094657D02*
X148755066Y-149132752D01*
X148755066Y-149132752D02*
X148716971Y-149170847D01*
X148716971Y-149170847D02*
X148678875Y-149247038D01*
X163163266Y-146897495D02*
X162782314Y-146897495D01*
X162782314Y-146897495D02*
X162782314Y-146097495D01*
X163848980Y-146897495D02*
X163391837Y-146897495D01*
X163620409Y-146897495D02*
X163620409Y-146097495D01*
X163620409Y-146097495D02*
X163544218Y-146211780D01*
X163544218Y-146211780D02*
X163468028Y-146287971D01*
X163468028Y-146287971D02*
X163391837Y-146326066D01*
X122102667Y-124291504D02*
X122064571Y-124329600D01*
X122064571Y-124329600D02*
X121950286Y-124367695D01*
X121950286Y-124367695D02*
X121874095Y-124367695D01*
X121874095Y-124367695D02*
X121759809Y-124329600D01*
X121759809Y-124329600D02*
X121683619Y-124253409D01*
X121683619Y-124253409D02*
X121645524Y-124177219D01*
X121645524Y-124177219D02*
X121607428Y-124024838D01*
X121607428Y-124024838D02*
X121607428Y-123910552D01*
X121607428Y-123910552D02*
X121645524Y-123758171D01*
X121645524Y-123758171D02*
X121683619Y-123681980D01*
X121683619Y-123681980D02*
X121759809Y-123605790D01*
X121759809Y-123605790D02*
X121874095Y-123567695D01*
X121874095Y-123567695D02*
X121950286Y-123567695D01*
X121950286Y-123567695D02*
X122064571Y-123605790D01*
X122064571Y-123605790D02*
X122102667Y-123643885D01*
X122826476Y-123567695D02*
X122445524Y-123567695D01*
X122445524Y-123567695D02*
X122407428Y-123948647D01*
X122407428Y-123948647D02*
X122445524Y-123910552D01*
X122445524Y-123910552D02*
X122521714Y-123872457D01*
X122521714Y-123872457D02*
X122712190Y-123872457D01*
X122712190Y-123872457D02*
X122788381Y-123910552D01*
X122788381Y-123910552D02*
X122826476Y-123948647D01*
X122826476Y-123948647D02*
X122864571Y-124024838D01*
X122864571Y-124024838D02*
X122864571Y-124215314D01*
X122864571Y-124215314D02*
X122826476Y-124291504D01*
X122826476Y-124291504D02*
X122788381Y-124329600D01*
X122788381Y-124329600D02*
X122712190Y-124367695D01*
X122712190Y-124367695D02*
X122521714Y-124367695D01*
X122521714Y-124367695D02*
X122445524Y-124329600D01*
X122445524Y-124329600D02*
X122407428Y-124291504D01*
X136001676Y-144644295D02*
X136001676Y-145291914D01*
X136001676Y-145291914D02*
X136039771Y-145368104D01*
X136039771Y-145368104D02*
X136077866Y-145406200D01*
X136077866Y-145406200D02*
X136154057Y-145444295D01*
X136154057Y-145444295D02*
X136306438Y-145444295D01*
X136306438Y-145444295D02*
X136382628Y-145406200D01*
X136382628Y-145406200D02*
X136420723Y-145368104D01*
X136420723Y-145368104D02*
X136458819Y-145291914D01*
X136458819Y-145291914D02*
X136458819Y-144644295D01*
X136801675Y-144720485D02*
X136839771Y-144682390D01*
X136839771Y-144682390D02*
X136915961Y-144644295D01*
X136915961Y-144644295D02*
X137106437Y-144644295D01*
X137106437Y-144644295D02*
X137182628Y-144682390D01*
X137182628Y-144682390D02*
X137220723Y-144720485D01*
X137220723Y-144720485D02*
X137258818Y-144796676D01*
X137258818Y-144796676D02*
X137258818Y-144872866D01*
X137258818Y-144872866D02*
X137220723Y-144987152D01*
X137220723Y-144987152D02*
X136763580Y-145444295D01*
X136763580Y-145444295D02*
X137258818Y-145444295D01*
X150629909Y-128912685D02*
X150553719Y-128874590D01*
X150553719Y-128874590D02*
X150477528Y-128798400D01*
X150477528Y-128798400D02*
X150363242Y-128684114D01*
X150363242Y-128684114D02*
X150287052Y-128646019D01*
X150287052Y-128646019D02*
X150210861Y-128646019D01*
X150248957Y-128836495D02*
X150172766Y-128798400D01*
X150172766Y-128798400D02*
X150096576Y-128722209D01*
X150096576Y-128722209D02*
X150058480Y-128569828D01*
X150058480Y-128569828D02*
X150058480Y-128303161D01*
X150058480Y-128303161D02*
X150096576Y-128150780D01*
X150096576Y-128150780D02*
X150172766Y-128074590D01*
X150172766Y-128074590D02*
X150248957Y-128036495D01*
X150248957Y-128036495D02*
X150401338Y-128036495D01*
X150401338Y-128036495D02*
X150477528Y-128074590D01*
X150477528Y-128074590D02*
X150553719Y-128150780D01*
X150553719Y-128150780D02*
X150591814Y-128303161D01*
X150591814Y-128303161D02*
X150591814Y-128569828D01*
X150591814Y-128569828D02*
X150553719Y-128722209D01*
X150553719Y-128722209D02*
X150477528Y-128798400D01*
X150477528Y-128798400D02*
X150401338Y-128836495D01*
X150401338Y-128836495D02*
X150248957Y-128836495D01*
X150858480Y-128036495D02*
X151353718Y-128036495D01*
X151353718Y-128036495D02*
X151087052Y-128341257D01*
X151087052Y-128341257D02*
X151201337Y-128341257D01*
X151201337Y-128341257D02*
X151277528Y-128379352D01*
X151277528Y-128379352D02*
X151315623Y-128417447D01*
X151315623Y-128417447D02*
X151353718Y-128493638D01*
X151353718Y-128493638D02*
X151353718Y-128684114D01*
X151353718Y-128684114D02*
X151315623Y-128760304D01*
X151315623Y-128760304D02*
X151277528Y-128798400D01*
X151277528Y-128798400D02*
X151201337Y-128836495D01*
X151201337Y-128836495D02*
X150972766Y-128836495D01*
X150972766Y-128836495D02*
X150896575Y-128798400D01*
X150896575Y-128798400D02*
X150858480Y-128760304D01*
X138407642Y-118457751D02*
X138788595Y-118457751D01*
X137988595Y-118724418D02*
X138407642Y-118457751D01*
X138407642Y-118457751D02*
X137988595Y-118191085D01*
X138788595Y-117505371D02*
X138788595Y-117962514D01*
X138788595Y-117733942D02*
X137988595Y-117733942D01*
X137988595Y-117733942D02*
X138102880Y-117810133D01*
X138102880Y-117810133D02*
X138179071Y-117886323D01*
X138179071Y-117886323D02*
X138217166Y-117962514D01*
X150629909Y-121562685D02*
X150553719Y-121524590D01*
X150553719Y-121524590D02*
X150477528Y-121448400D01*
X150477528Y-121448400D02*
X150363242Y-121334114D01*
X150363242Y-121334114D02*
X150287052Y-121296019D01*
X150287052Y-121296019D02*
X150210861Y-121296019D01*
X150248957Y-121486495D02*
X150172766Y-121448400D01*
X150172766Y-121448400D02*
X150096576Y-121372209D01*
X150096576Y-121372209D02*
X150058480Y-121219828D01*
X150058480Y-121219828D02*
X150058480Y-120953161D01*
X150058480Y-120953161D02*
X150096576Y-120800780D01*
X150096576Y-120800780D02*
X150172766Y-120724590D01*
X150172766Y-120724590D02*
X150248957Y-120686495D01*
X150248957Y-120686495D02*
X150401338Y-120686495D01*
X150401338Y-120686495D02*
X150477528Y-120724590D01*
X150477528Y-120724590D02*
X150553719Y-120800780D01*
X150553719Y-120800780D02*
X150591814Y-120953161D01*
X150591814Y-120953161D02*
X150591814Y-121219828D01*
X150591814Y-121219828D02*
X150553719Y-121372209D01*
X150553719Y-121372209D02*
X150477528Y-121448400D01*
X150477528Y-121448400D02*
X150401338Y-121486495D01*
X150401338Y-121486495D02*
X150248957Y-121486495D01*
X151353718Y-121486495D02*
X150896575Y-121486495D01*
X151125147Y-121486495D02*
X151125147Y-120686495D01*
X151125147Y-120686495D02*
X151048956Y-120800780D01*
X151048956Y-120800780D02*
X150972766Y-120876971D01*
X150972766Y-120876971D02*
X150896575Y-120915066D01*
X137718476Y-128510895D02*
X137718476Y-129158514D01*
X137718476Y-129158514D02*
X137756571Y-129234704D01*
X137756571Y-129234704D02*
X137794666Y-129272800D01*
X137794666Y-129272800D02*
X137870857Y-129310895D01*
X137870857Y-129310895D02*
X138023238Y-129310895D01*
X138023238Y-129310895D02*
X138099428Y-129272800D01*
X138099428Y-129272800D02*
X138137523Y-129234704D01*
X138137523Y-129234704D02*
X138175619Y-129158514D01*
X138175619Y-129158514D02*
X138175619Y-128510895D01*
X138480380Y-128510895D02*
X138975618Y-128510895D01*
X138975618Y-128510895D02*
X138708952Y-128815657D01*
X138708952Y-128815657D02*
X138823237Y-128815657D01*
X138823237Y-128815657D02*
X138899428Y-128853752D01*
X138899428Y-128853752D02*
X138937523Y-128891847D01*
X138937523Y-128891847D02*
X138975618Y-128968038D01*
X138975618Y-128968038D02*
X138975618Y-129158514D01*
X138975618Y-129158514D02*
X138937523Y-129234704D01*
X138937523Y-129234704D02*
X138899428Y-129272800D01*
X138899428Y-129272800D02*
X138823237Y-129310895D01*
X138823237Y-129310895D02*
X138594666Y-129310895D01*
X138594666Y-129310895D02*
X138518475Y-129272800D01*
X138518475Y-129272800D02*
X138480380Y-129234704D01*
X124614066Y-140373519D02*
X124614066Y-141087804D01*
X124614066Y-141087804D02*
X124566447Y-141230661D01*
X124566447Y-141230661D02*
X124471209Y-141325900D01*
X124471209Y-141325900D02*
X124328352Y-141373519D01*
X124328352Y-141373519D02*
X124233114Y-141373519D01*
X125614066Y-141373519D02*
X125042638Y-141373519D01*
X125328352Y-141373519D02*
X125328352Y-140373519D01*
X125328352Y-140373519D02*
X125233114Y-140516376D01*
X125233114Y-140516376D02*
X125137876Y-140611614D01*
X125137876Y-140611614D02*
X125042638Y-140659233D01*
X121411852Y-150270966D02*
X122173757Y-150270966D01*
X121792804Y-150651919D02*
X121792804Y-149890014D01*
X128001852Y-150340966D02*
X128763757Y-150340966D01*
X146070995Y-121229932D02*
X145690042Y-121496599D01*
X146070995Y-121687075D02*
X145270995Y-121687075D01*
X145270995Y-121687075D02*
X145270995Y-121382313D01*
X145270995Y-121382313D02*
X145309090Y-121306123D01*
X145309090Y-121306123D02*
X145347185Y-121268028D01*
X145347185Y-121268028D02*
X145423376Y-121229932D01*
X145423376Y-121229932D02*
X145537661Y-121229932D01*
X145537661Y-121229932D02*
X145613852Y-121268028D01*
X145613852Y-121268028D02*
X145651947Y-121306123D01*
X145651947Y-121306123D02*
X145690042Y-121382313D01*
X145690042Y-121382313D02*
X145690042Y-121687075D01*
X145270995Y-120963266D02*
X145270995Y-120429932D01*
X145270995Y-120429932D02*
X146070995Y-120772790D01*
X173666667Y-149688704D02*
X173628571Y-149726800D01*
X173628571Y-149726800D02*
X173514286Y-149764895D01*
X173514286Y-149764895D02*
X173438095Y-149764895D01*
X173438095Y-149764895D02*
X173323809Y-149726800D01*
X173323809Y-149726800D02*
X173247619Y-149650609D01*
X173247619Y-149650609D02*
X173209524Y-149574419D01*
X173209524Y-149574419D02*
X173171428Y-149422038D01*
X173171428Y-149422038D02*
X173171428Y-149307752D01*
X173171428Y-149307752D02*
X173209524Y-149155371D01*
X173209524Y-149155371D02*
X173247619Y-149079180D01*
X173247619Y-149079180D02*
X173323809Y-149002990D01*
X173323809Y-149002990D02*
X173438095Y-148964895D01*
X173438095Y-148964895D02*
X173514286Y-148964895D01*
X173514286Y-148964895D02*
X173628571Y-149002990D01*
X173628571Y-149002990D02*
X173666667Y-149041085D01*
X174123809Y-149307752D02*
X174047619Y-149269657D01*
X174047619Y-149269657D02*
X174009524Y-149231561D01*
X174009524Y-149231561D02*
X173971428Y-149155371D01*
X173971428Y-149155371D02*
X173971428Y-149117276D01*
X173971428Y-149117276D02*
X174009524Y-149041085D01*
X174009524Y-149041085D02*
X174047619Y-149002990D01*
X174047619Y-149002990D02*
X174123809Y-148964895D01*
X174123809Y-148964895D02*
X174276190Y-148964895D01*
X174276190Y-148964895D02*
X174352381Y-149002990D01*
X174352381Y-149002990D02*
X174390476Y-149041085D01*
X174390476Y-149041085D02*
X174428571Y-149117276D01*
X174428571Y-149117276D02*
X174428571Y-149155371D01*
X174428571Y-149155371D02*
X174390476Y-149231561D01*
X174390476Y-149231561D02*
X174352381Y-149269657D01*
X174352381Y-149269657D02*
X174276190Y-149307752D01*
X174276190Y-149307752D02*
X174123809Y-149307752D01*
X174123809Y-149307752D02*
X174047619Y-149345847D01*
X174047619Y-149345847D02*
X174009524Y-149383942D01*
X174009524Y-149383942D02*
X173971428Y-149460133D01*
X173971428Y-149460133D02*
X173971428Y-149612514D01*
X173971428Y-149612514D02*
X174009524Y-149688704D01*
X174009524Y-149688704D02*
X174047619Y-149726800D01*
X174047619Y-149726800D02*
X174123809Y-149764895D01*
X174123809Y-149764895D02*
X174276190Y-149764895D01*
X174276190Y-149764895D02*
X174352381Y-149726800D01*
X174352381Y-149726800D02*
X174390476Y-149688704D01*
X174390476Y-149688704D02*
X174428571Y-149612514D01*
X174428571Y-149612514D02*
X174428571Y-149460133D01*
X174428571Y-149460133D02*
X174390476Y-149383942D01*
X174390476Y-149383942D02*
X174352381Y-149345847D01*
X174352381Y-149345847D02*
X174276190Y-149307752D01*
X117899695Y-122714866D02*
X118471123Y-122714866D01*
X118471123Y-122714866D02*
X118585409Y-122752961D01*
X118585409Y-122752961D02*
X118661600Y-122829152D01*
X118661600Y-122829152D02*
X118699695Y-122943437D01*
X118699695Y-122943437D02*
X118699695Y-123019628D01*
X118699695Y-122333913D02*
X117899695Y-122333913D01*
X117899695Y-122333913D02*
X117899695Y-122029151D01*
X117899695Y-122029151D02*
X117937790Y-121952961D01*
X117937790Y-121952961D02*
X117975885Y-121914866D01*
X117975885Y-121914866D02*
X118052076Y-121876770D01*
X118052076Y-121876770D02*
X118166361Y-121876770D01*
X118166361Y-121876770D02*
X118242552Y-121914866D01*
X118242552Y-121914866D02*
X118280647Y-121952961D01*
X118280647Y-121952961D02*
X118318742Y-122029151D01*
X118318742Y-122029151D02*
X118318742Y-122333913D01*
X118699695Y-121114866D02*
X118699695Y-121572009D01*
X118699695Y-121343437D02*
X117899695Y-121343437D01*
X117899695Y-121343437D02*
X118013980Y-121419628D01*
X118013980Y-121419628D02*
X118090171Y-121495818D01*
X118090171Y-121495818D02*
X118128266Y-121572009D01*
X143890295Y-141355332D02*
X143509342Y-141621999D01*
X143890295Y-141812475D02*
X143090295Y-141812475D01*
X143090295Y-141812475D02*
X143090295Y-141507713D01*
X143090295Y-141507713D02*
X143128390Y-141431523D01*
X143128390Y-141431523D02*
X143166485Y-141393428D01*
X143166485Y-141393428D02*
X143242676Y-141355332D01*
X143242676Y-141355332D02*
X143356961Y-141355332D01*
X143356961Y-141355332D02*
X143433152Y-141393428D01*
X143433152Y-141393428D02*
X143471247Y-141431523D01*
X143471247Y-141431523D02*
X143509342Y-141507713D01*
X143509342Y-141507713D02*
X143509342Y-141812475D01*
X143166485Y-141050571D02*
X143128390Y-141012475D01*
X143128390Y-141012475D02*
X143090295Y-140936285D01*
X143090295Y-140936285D02*
X143090295Y-140745809D01*
X143090295Y-140745809D02*
X143128390Y-140669618D01*
X143128390Y-140669618D02*
X143166485Y-140631523D01*
X143166485Y-140631523D02*
X143242676Y-140593428D01*
X143242676Y-140593428D02*
X143318866Y-140593428D01*
X143318866Y-140593428D02*
X143433152Y-140631523D01*
X143433152Y-140631523D02*
X143890295Y-141088666D01*
X143890295Y-141088666D02*
X143890295Y-140593428D01*
X119620467Y-118461095D02*
X119353800Y-118080142D01*
X119163324Y-118461095D02*
X119163324Y-117661095D01*
X119163324Y-117661095D02*
X119468086Y-117661095D01*
X119468086Y-117661095D02*
X119544276Y-117699190D01*
X119544276Y-117699190D02*
X119582371Y-117737285D01*
X119582371Y-117737285D02*
X119620467Y-117813476D01*
X119620467Y-117813476D02*
X119620467Y-117927761D01*
X119620467Y-117927761D02*
X119582371Y-118003952D01*
X119582371Y-118003952D02*
X119544276Y-118042047D01*
X119544276Y-118042047D02*
X119468086Y-118080142D01*
X119468086Y-118080142D02*
X119163324Y-118080142D01*
X120001419Y-118461095D02*
X120153800Y-118461095D01*
X120153800Y-118461095D02*
X120229990Y-118423000D01*
X120229990Y-118423000D02*
X120268086Y-118384904D01*
X120268086Y-118384904D02*
X120344276Y-118270619D01*
X120344276Y-118270619D02*
X120382371Y-118118238D01*
X120382371Y-118118238D02*
X120382371Y-117813476D01*
X120382371Y-117813476D02*
X120344276Y-117737285D01*
X120344276Y-117737285D02*
X120306181Y-117699190D01*
X120306181Y-117699190D02*
X120229990Y-117661095D01*
X120229990Y-117661095D02*
X120077609Y-117661095D01*
X120077609Y-117661095D02*
X120001419Y-117699190D01*
X120001419Y-117699190D02*
X119963324Y-117737285D01*
X119963324Y-117737285D02*
X119925228Y-117813476D01*
X119925228Y-117813476D02*
X119925228Y-118003952D01*
X119925228Y-118003952D02*
X119963324Y-118080142D01*
X119963324Y-118080142D02*
X120001419Y-118118238D01*
X120001419Y-118118238D02*
X120077609Y-118156333D01*
X120077609Y-118156333D02*
X120229990Y-118156333D01*
X120229990Y-118156333D02*
X120306181Y-118118238D01*
X120306181Y-118118238D02*
X120344276Y-118080142D01*
X120344276Y-118080142D02*
X120382371Y-118003952D01*
X117980095Y-129662866D02*
X118551523Y-129662866D01*
X118551523Y-129662866D02*
X118665809Y-129700961D01*
X118665809Y-129700961D02*
X118742000Y-129777152D01*
X118742000Y-129777152D02*
X118780095Y-129891437D01*
X118780095Y-129891437D02*
X118780095Y-129967628D01*
X118780095Y-129281913D02*
X117980095Y-129281913D01*
X117980095Y-129281913D02*
X117980095Y-128977151D01*
X117980095Y-128977151D02*
X118018190Y-128900961D01*
X118018190Y-128900961D02*
X118056285Y-128862866D01*
X118056285Y-128862866D02*
X118132476Y-128824770D01*
X118132476Y-128824770D02*
X118246761Y-128824770D01*
X118246761Y-128824770D02*
X118322952Y-128862866D01*
X118322952Y-128862866D02*
X118361047Y-128900961D01*
X118361047Y-128900961D02*
X118399142Y-128977151D01*
X118399142Y-128977151D02*
X118399142Y-129281913D01*
X118056285Y-128520009D02*
X118018190Y-128481913D01*
X118018190Y-128481913D02*
X117980095Y-128405723D01*
X117980095Y-128405723D02*
X117980095Y-128215247D01*
X117980095Y-128215247D02*
X118018190Y-128139056D01*
X118018190Y-128139056D02*
X118056285Y-128100961D01*
X118056285Y-128100961D02*
X118132476Y-128062866D01*
X118132476Y-128062866D02*
X118208666Y-128062866D01*
X118208666Y-128062866D02*
X118322952Y-128100961D01*
X118322952Y-128100961D02*
X118780095Y-128558104D01*
X118780095Y-128558104D02*
X118780095Y-128062866D01*
X137036504Y-152691132D02*
X137074600Y-152729228D01*
X137074600Y-152729228D02*
X137112695Y-152843513D01*
X137112695Y-152843513D02*
X137112695Y-152919704D01*
X137112695Y-152919704D02*
X137074600Y-153033990D01*
X137074600Y-153033990D02*
X136998409Y-153110180D01*
X136998409Y-153110180D02*
X136922219Y-153148275D01*
X136922219Y-153148275D02*
X136769838Y-153186371D01*
X136769838Y-153186371D02*
X136655552Y-153186371D01*
X136655552Y-153186371D02*
X136503171Y-153148275D01*
X136503171Y-153148275D02*
X136426980Y-153110180D01*
X136426980Y-153110180D02*
X136350790Y-153033990D01*
X136350790Y-153033990D02*
X136312695Y-152919704D01*
X136312695Y-152919704D02*
X136312695Y-152843513D01*
X136312695Y-152843513D02*
X136350790Y-152729228D01*
X136350790Y-152729228D02*
X136388885Y-152691132D01*
X136312695Y-152424466D02*
X136312695Y-151891132D01*
X136312695Y-151891132D02*
X137112695Y-152233990D01*
X163645924Y-154263495D02*
X163645924Y-153463495D01*
X163645924Y-153463495D02*
X163836400Y-153463495D01*
X163836400Y-153463495D02*
X163950686Y-153501590D01*
X163950686Y-153501590D02*
X164026876Y-153577780D01*
X164026876Y-153577780D02*
X164064971Y-153653971D01*
X164064971Y-153653971D02*
X164103067Y-153806352D01*
X164103067Y-153806352D02*
X164103067Y-153920638D01*
X164103067Y-153920638D02*
X164064971Y-154073019D01*
X164064971Y-154073019D02*
X164026876Y-154149209D01*
X164026876Y-154149209D02*
X163950686Y-154225400D01*
X163950686Y-154225400D02*
X163836400Y-154263495D01*
X163836400Y-154263495D02*
X163645924Y-154263495D01*
X164864971Y-154263495D02*
X164407828Y-154263495D01*
X164636400Y-154263495D02*
X164636400Y-153463495D01*
X164636400Y-153463495D02*
X164560209Y-153577780D01*
X164560209Y-153577780D02*
X164484019Y-153653971D01*
X164484019Y-153653971D02*
X164407828Y-153692066D01*
X150629909Y-132487685D02*
X150553719Y-132449590D01*
X150553719Y-132449590D02*
X150477528Y-132373400D01*
X150477528Y-132373400D02*
X150363242Y-132259114D01*
X150363242Y-132259114D02*
X150287052Y-132221019D01*
X150287052Y-132221019D02*
X150210861Y-132221019D01*
X150248957Y-132411495D02*
X150172766Y-132373400D01*
X150172766Y-132373400D02*
X150096576Y-132297209D01*
X150096576Y-132297209D02*
X150058480Y-132144828D01*
X150058480Y-132144828D02*
X150058480Y-131878161D01*
X150058480Y-131878161D02*
X150096576Y-131725780D01*
X150096576Y-131725780D02*
X150172766Y-131649590D01*
X150172766Y-131649590D02*
X150248957Y-131611495D01*
X150248957Y-131611495D02*
X150401338Y-131611495D01*
X150401338Y-131611495D02*
X150477528Y-131649590D01*
X150477528Y-131649590D02*
X150553719Y-131725780D01*
X150553719Y-131725780D02*
X150591814Y-131878161D01*
X150591814Y-131878161D02*
X150591814Y-132144828D01*
X150591814Y-132144828D02*
X150553719Y-132297209D01*
X150553719Y-132297209D02*
X150477528Y-132373400D01*
X150477528Y-132373400D02*
X150401338Y-132411495D01*
X150401338Y-132411495D02*
X150248957Y-132411495D01*
X151277528Y-131878161D02*
X151277528Y-132411495D01*
X151087052Y-131573400D02*
X150896575Y-132144828D01*
X150896575Y-132144828D02*
X151391814Y-132144828D01*
X133719695Y-150764332D02*
X133338742Y-151030999D01*
X133719695Y-151221475D02*
X132919695Y-151221475D01*
X132919695Y-151221475D02*
X132919695Y-150916713D01*
X132919695Y-150916713D02*
X132957790Y-150840523D01*
X132957790Y-150840523D02*
X132995885Y-150802428D01*
X132995885Y-150802428D02*
X133072076Y-150764332D01*
X133072076Y-150764332D02*
X133186361Y-150764332D01*
X133186361Y-150764332D02*
X133262552Y-150802428D01*
X133262552Y-150802428D02*
X133300647Y-150840523D01*
X133300647Y-150840523D02*
X133338742Y-150916713D01*
X133338742Y-150916713D02*
X133338742Y-151221475D01*
X133719695Y-150002428D02*
X133719695Y-150459571D01*
X133719695Y-150230999D02*
X132919695Y-150230999D01*
X132919695Y-150230999D02*
X133033980Y-150307190D01*
X133033980Y-150307190D02*
X133110171Y-150383380D01*
X133110171Y-150383380D02*
X133148266Y-150459571D01*
X124761876Y-127530095D02*
X124761876Y-128177714D01*
X124761876Y-128177714D02*
X124799971Y-128253904D01*
X124799971Y-128253904D02*
X124838066Y-128292000D01*
X124838066Y-128292000D02*
X124914257Y-128330095D01*
X124914257Y-128330095D02*
X125066638Y-128330095D01*
X125066638Y-128330095D02*
X125142828Y-128292000D01*
X125142828Y-128292000D02*
X125180923Y-128253904D01*
X125180923Y-128253904D02*
X125219019Y-128177714D01*
X125219019Y-128177714D02*
X125219019Y-127530095D01*
X125980923Y-127530095D02*
X125599971Y-127530095D01*
X125599971Y-127530095D02*
X125561875Y-127911047D01*
X125561875Y-127911047D02*
X125599971Y-127872952D01*
X125599971Y-127872952D02*
X125676161Y-127834857D01*
X125676161Y-127834857D02*
X125866637Y-127834857D01*
X125866637Y-127834857D02*
X125942828Y-127872952D01*
X125942828Y-127872952D02*
X125980923Y-127911047D01*
X125980923Y-127911047D02*
X126019018Y-127987238D01*
X126019018Y-127987238D02*
X126019018Y-128177714D01*
X126019018Y-128177714D02*
X125980923Y-128253904D01*
X125980923Y-128253904D02*
X125942828Y-128292000D01*
X125942828Y-128292000D02*
X125866637Y-128330095D01*
X125866637Y-128330095D02*
X125676161Y-128330095D01*
X125676161Y-128330095D02*
X125599971Y-128292000D01*
X125599971Y-128292000D02*
X125561875Y-128253904D01*
D12*
%TO.C,REF\u002A\u002A*%
X134274367Y-154025600D02*
G75*
G03*
X134274367Y-154025600I-700000J0D01*
G01*
X132085732Y-154025600D02*
G75*
G03*
X132085732Y-154025600I-700000J0D01*
G01*
X129897099Y-154025600D02*
G75*
G03*
X129897099Y-154025600I-700000J0D01*
G01*
X127708466Y-154025600D02*
G75*
G03*
X127708466Y-154025600I-700000J0D01*
G01*
X125519833Y-154025600D02*
G75*
G03*
X125519833Y-154025600I-700000J0D01*
G01*
X123331200Y-154025600D02*
G75*
G03*
X123331200Y-154025600I-700000J0D01*
G01*
X121142567Y-154025600D02*
G75*
G03*
X121142567Y-154025600I-700000J0D01*
G01*
%TO.C,C1*%
X139882133Y-121156000D02*
X140174667Y-121156000D01*
X139882133Y-122176000D02*
X140174667Y-122176000D01*
%TO.C,C2*%
X136618667Y-122176000D02*
X136326133Y-122176000D01*
X136618667Y-121156000D02*
X136326133Y-121156000D01*
%TO.C,C6*%
X124666333Y-131036600D02*
X124958867Y-131036600D01*
X124666333Y-132056600D02*
X124958867Y-132056600D01*
%TO.C,J2*%
X110747500Y-150184000D02*
X110747500Y-132464000D01*
X111967500Y-150184000D02*
X111967500Y-148964000D01*
X119167500Y-150184000D02*
X110747500Y-150184000D01*
X111967500Y-148964000D02*
X116967500Y-148964000D01*
X115967500Y-148964000D02*
X115967500Y-133684000D01*
X116967500Y-148964000D02*
X116967500Y-150184000D01*
X116967500Y-148964000D02*
X119167500Y-148964000D01*
X119167500Y-148964000D02*
X119167500Y-150184000D01*
X112547500Y-147894000D02*
X112467500Y-147574000D01*
X115967500Y-147894000D02*
X112547500Y-147894000D01*
X119657500Y-147874000D02*
X119657500Y-147274000D01*
X112467500Y-147574000D02*
X112547500Y-147254000D01*
X115967500Y-147574000D02*
X115967500Y-147894000D01*
X119057500Y-147574000D02*
X119657500Y-147874000D01*
X119657500Y-147274000D02*
X119057500Y-147574000D01*
X112547500Y-147254000D02*
X115967500Y-147254000D01*
X115967500Y-147254000D02*
X115967500Y-147574000D01*
X116967500Y-146404000D02*
X116967500Y-146244000D01*
X112547500Y-145394000D02*
X112467500Y-145074000D01*
X115967500Y-145394000D02*
X112547500Y-145394000D01*
X112467500Y-145074000D02*
X112547500Y-144754000D01*
X115967500Y-145074000D02*
X115967500Y-145394000D01*
X112547500Y-144754000D02*
X115967500Y-144754000D01*
X115967500Y-144754000D02*
X115967500Y-145074000D01*
X116967500Y-143904000D02*
X116967500Y-143744000D01*
X112547500Y-142894000D02*
X112467500Y-142574000D01*
X115967500Y-142894000D02*
X112547500Y-142894000D01*
X112467500Y-142574000D02*
X112547500Y-142254000D01*
X115967500Y-142574000D02*
X115967500Y-142894000D01*
X112547500Y-142254000D02*
X115967500Y-142254000D01*
X115967500Y-142254000D02*
X115967500Y-142574000D01*
X116967500Y-141404000D02*
X116967500Y-141244000D01*
X112547500Y-140394000D02*
X112467500Y-140074000D01*
X115967500Y-140394000D02*
X112547500Y-140394000D01*
X112467500Y-140074000D02*
X112547500Y-139754000D01*
X115967500Y-140074000D02*
X115967500Y-140394000D01*
X112547500Y-139754000D02*
X115967500Y-139754000D01*
X115967500Y-139754000D02*
X115967500Y-140074000D01*
X116967500Y-138904000D02*
X116967500Y-138744000D01*
X112547500Y-137894000D02*
X112467500Y-137574000D01*
X115967500Y-137894000D02*
X112547500Y-137894000D01*
X112467500Y-137574000D02*
X112547500Y-137254000D01*
X115967500Y-137574000D02*
X115967500Y-137894000D01*
X112547500Y-137254000D02*
X115967500Y-137254000D01*
X115967500Y-137254000D02*
X115967500Y-137574000D01*
X116967500Y-136404000D02*
X116967500Y-136244000D01*
X112547500Y-135394000D02*
X112467500Y-135074000D01*
X115967500Y-135394000D02*
X112547500Y-135394000D01*
X112467500Y-135074000D02*
X112547500Y-134754000D01*
X115967500Y-135074000D02*
X115967500Y-135394000D01*
X112547500Y-134754000D02*
X115967500Y-134754000D01*
X115967500Y-134754000D02*
X115967500Y-135074000D01*
X111967500Y-133684000D02*
X116967500Y-133684000D01*
X116967500Y-133684000D02*
X116967500Y-132464000D01*
X119167500Y-133684000D02*
X116967500Y-133684000D01*
X110747500Y-132464000D02*
X119167500Y-132464000D01*
X111967500Y-132464000D02*
X111967500Y-133684000D01*
X119167500Y-132464000D02*
X119167500Y-133684000D01*
%TO.C,R10*%
X120063524Y-126989100D02*
X119554076Y-126989100D01*
X120063524Y-125944100D02*
X119554076Y-125944100D01*
%TO.C,R5*%
X151958600Y-121313824D02*
X151958600Y-120804376D01*
X153003600Y-121313824D02*
X153003600Y-120804376D01*
%TO.C,R6*%
X151958600Y-124980024D02*
X151958600Y-124470576D01*
X153003600Y-124980024D02*
X153003600Y-124470576D01*
%TO.C,R8*%
X147553600Y-124470576D02*
X147553600Y-124980024D01*
X146508600Y-124470576D02*
X146508600Y-124980024D01*
%TO.C,R11*%
X151958600Y-128620624D02*
X151958600Y-128111176D01*
X153003600Y-128620624D02*
X153003600Y-128111176D01*
%TO.C,R12*%
X151958600Y-132261324D02*
X151958600Y-131751876D01*
X153003600Y-132261324D02*
X153003600Y-131751876D01*
%TO.C,R13*%
X147553600Y-128111176D02*
X147553600Y-128620624D01*
X146508600Y-128111176D02*
X146508600Y-128620624D01*
%TO.C,R14*%
X147553600Y-131751876D02*
X147553600Y-132261324D01*
X146508600Y-131751876D02*
X146508600Y-132261324D01*
%TO.C,C4*%
X134180267Y-136349200D02*
X133887733Y-136349200D01*
X134180267Y-135329200D02*
X133887733Y-135329200D01*
%TO.C,R3*%
X131889500Y-133095276D02*
X131889500Y-133604724D01*
X130844500Y-133095276D02*
X130844500Y-133604724D01*
%TO.C,R4*%
X130920700Y-125451324D02*
X130920700Y-124941876D01*
X131965700Y-125451324D02*
X131965700Y-124941876D01*
D11*
%TO.C,U1*%
X177012600Y-118093200D02*
X154406600Y-118093200D01*
X154406600Y-118093200D02*
X154406600Y-136093200D01*
X154406600Y-136093200D02*
X177012600Y-136093200D01*
X177012600Y-136093200D02*
X177012600Y-118093200D01*
D12*
%TO.C,Q2*%
X149756100Y-126281600D02*
X151431100Y-126281600D01*
X149756100Y-126281600D02*
X149106100Y-126281600D01*
X149756100Y-123161600D02*
X150406100Y-123161600D01*
X149756100Y-123161600D02*
X149106100Y-123161600D01*
%TO.C,U4*%
X125334800Y-117785200D02*
X123384800Y-117785200D01*
X125334800Y-117785200D02*
X127284800Y-117785200D01*
X125334800Y-122905200D02*
X123384800Y-122905200D01*
X125334800Y-122905200D02*
X128784800Y-122905200D01*
%TO.C,C3*%
X134454800Y-150027267D02*
X134454800Y-149734733D01*
X135474800Y-150027267D02*
X135474800Y-149734733D01*
%TO.C,U6*%
X145197000Y-149956000D02*
X146147000Y-149956000D01*
X146147000Y-149956000D02*
X146147000Y-155081000D01*
X154647000Y-149956000D02*
X154647000Y-151056000D01*
X155597000Y-149956000D02*
X154647000Y-149956000D01*
X145197000Y-148456000D02*
X145197000Y-149956000D01*
X155597000Y-148456000D02*
X155597000Y-149956000D01*
%TO.C,L1*%
X169596600Y-151562600D02*
X156996600Y-151562600D01*
X169596600Y-148562600D02*
X169596600Y-151562600D01*
X169596600Y-138962600D02*
X169596600Y-141962600D01*
X156996600Y-151562600D02*
X156996600Y-148562600D01*
X156996600Y-141962600D02*
X156996600Y-138962600D01*
X156996600Y-138962600D02*
X169596600Y-138962600D01*
%TO.C,C5*%
X124731333Y-123467400D02*
X125023867Y-123467400D01*
X124731333Y-124487400D02*
X125023867Y-124487400D01*
%TO.C,U2*%
X140461200Y-147779400D02*
X140461200Y-147524400D01*
X140461200Y-147524400D02*
X142276200Y-147524400D01*
X140461200Y-137259400D02*
X140461200Y-137514400D01*
X136601200Y-147779400D02*
X140461200Y-147779400D01*
X136601200Y-147779400D02*
X132741200Y-147779400D01*
X136601200Y-137259400D02*
X140461200Y-137259400D01*
X136601200Y-137259400D02*
X132741200Y-137259400D01*
X132741200Y-147779400D02*
X132741200Y-147524400D01*
X132741200Y-137259400D02*
X132741200Y-137514400D01*
%TO.C,Q3*%
X149756100Y-129931600D02*
X151431100Y-129931600D01*
X149756100Y-129931600D02*
X149106100Y-129931600D01*
X149756100Y-126811600D02*
X150406100Y-126811600D01*
X149756100Y-126811600D02*
X149106100Y-126811600D01*
%TO.C,Y1*%
X135393700Y-116296800D02*
X135393700Y-119896800D01*
X135393700Y-119896800D02*
X141143700Y-119896800D01*
X141143700Y-116296800D02*
X135393700Y-116296800D01*
%TO.C,Q1*%
X149756100Y-122681600D02*
X151431100Y-122681600D01*
X149756100Y-122681600D02*
X149106100Y-122681600D01*
X149756100Y-119561600D02*
X150406100Y-119561600D01*
X149756100Y-119561600D02*
X149106100Y-119561600D01*
%TO.C,U3*%
X134443000Y-122766000D02*
X134443000Y-123011000D01*
X134443000Y-134536000D02*
X134443000Y-134291000D01*
X138303000Y-122766000D02*
X134443000Y-122766000D01*
X138303000Y-122766000D02*
X142163000Y-122766000D01*
X138303000Y-134536000D02*
X134443000Y-134536000D01*
X138303000Y-134536000D02*
X142163000Y-134536000D01*
X142163000Y-122766000D02*
X142163000Y-123011000D01*
X142163000Y-134291000D02*
X143978000Y-134291000D01*
X142163000Y-134536000D02*
X142163000Y-134291000D01*
D13*
%TO.C,J1*%
X129976601Y-141517700D02*
G75*
G03*
X129976601Y-141517700I-5008633J0D01*
G01*
D12*
%TO.C,R7*%
X147553600Y-120816876D02*
X147553600Y-121326324D01*
X146508600Y-120816876D02*
X146508600Y-121326324D01*
%TO.C,C8*%
X177250241Y-147101600D02*
X176620241Y-147101600D01*
X176935241Y-147416600D02*
X176935241Y-146786600D01*
X173750000Y-148492600D02*
X173750000Y-142032600D01*
X173710000Y-148492600D02*
X173710000Y-142032600D01*
X173670000Y-148492600D02*
X173670000Y-142032600D01*
X173630000Y-148490600D02*
X173630000Y-142034600D01*
X173590000Y-148489600D02*
X173590000Y-142035600D01*
X173550000Y-148486600D02*
X173550000Y-142038600D01*
X173510000Y-148484600D02*
X173510000Y-146302600D01*
X173510000Y-144222600D02*
X173510000Y-142040600D01*
X173470000Y-148480600D02*
X173470000Y-146302600D01*
X173470000Y-144222600D02*
X173470000Y-142044600D01*
X173430000Y-148477600D02*
X173430000Y-146302600D01*
X173430000Y-144222600D02*
X173430000Y-142047600D01*
X173390000Y-148473600D02*
X173390000Y-146302600D01*
X173390000Y-144222600D02*
X173390000Y-142051600D01*
X173350000Y-148468600D02*
X173350000Y-146302600D01*
X173350000Y-144222600D02*
X173350000Y-142056600D01*
X173310000Y-148463600D02*
X173310000Y-146302600D01*
X173310000Y-144222600D02*
X173310000Y-142061600D01*
X173270000Y-148457600D02*
X173270000Y-146302600D01*
X173270000Y-144222600D02*
X173270000Y-142067600D01*
X173230000Y-148451600D02*
X173230000Y-146302600D01*
X173230000Y-144222600D02*
X173230000Y-142073600D01*
X173190000Y-148444600D02*
X173190000Y-146302600D01*
X173190000Y-144222600D02*
X173190000Y-142080600D01*
X173150000Y-148437600D02*
X173150000Y-146302600D01*
X173150000Y-144222600D02*
X173150000Y-142087600D01*
X173110000Y-148429600D02*
X173110000Y-146302600D01*
X173110000Y-144222600D02*
X173110000Y-142095600D01*
X173070000Y-148421600D02*
X173070000Y-146302600D01*
X173070000Y-144222600D02*
X173070000Y-142103600D01*
X173029000Y-148412600D02*
X173029000Y-146302600D01*
X173029000Y-144222600D02*
X173029000Y-142112600D01*
X172989000Y-148403600D02*
X172989000Y-146302600D01*
X172989000Y-144222600D02*
X172989000Y-142121600D01*
X172949000Y-148393600D02*
X172949000Y-146302600D01*
X172949000Y-144222600D02*
X172949000Y-142131600D01*
X172909000Y-148383600D02*
X172909000Y-146302600D01*
X172909000Y-144222600D02*
X172909000Y-142141600D01*
X172869000Y-148372600D02*
X172869000Y-146302600D01*
X172869000Y-144222600D02*
X172869000Y-142152600D01*
X172829000Y-148360600D02*
X172829000Y-146302600D01*
X172829000Y-144222600D02*
X172829000Y-142164600D01*
X172789000Y-148348600D02*
X172789000Y-146302600D01*
X172789000Y-144222600D02*
X172789000Y-142176600D01*
X172749000Y-148336600D02*
X172749000Y-146302600D01*
X172749000Y-144222600D02*
X172749000Y-142188600D01*
X172709000Y-148323600D02*
X172709000Y-146302600D01*
X172709000Y-144222600D02*
X172709000Y-142201600D01*
X172669000Y-148309600D02*
X172669000Y-146302600D01*
X172669000Y-144222600D02*
X172669000Y-142215600D01*
X172629000Y-148295600D02*
X172629000Y-146302600D01*
X172629000Y-144222600D02*
X172629000Y-142229600D01*
X172589000Y-148280600D02*
X172589000Y-146302600D01*
X172589000Y-144222600D02*
X172589000Y-142244600D01*
X172549000Y-148264600D02*
X172549000Y-146302600D01*
X172549000Y-144222600D02*
X172549000Y-142260600D01*
X172509000Y-148248600D02*
X172509000Y-146302600D01*
X172509000Y-144222600D02*
X172509000Y-142276600D01*
X172469000Y-148232600D02*
X172469000Y-146302600D01*
X172469000Y-144222600D02*
X172469000Y-142292600D01*
X172429000Y-148214600D02*
X172429000Y-146302600D01*
X172429000Y-144222600D02*
X172429000Y-142310600D01*
X172389000Y-148196600D02*
X172389000Y-146302600D01*
X172389000Y-144222600D02*
X172389000Y-142328600D01*
X172349000Y-148178600D02*
X172349000Y-146302600D01*
X172349000Y-144222600D02*
X172349000Y-142346600D01*
X172309000Y-148158600D02*
X172309000Y-146302600D01*
X172309000Y-144222600D02*
X172309000Y-142366600D01*
X172269000Y-148138600D02*
X172269000Y-146302600D01*
X172269000Y-144222600D02*
X172269000Y-142386600D01*
X172229000Y-148118600D02*
X172229000Y-146302600D01*
X172229000Y-144222600D02*
X172229000Y-142406600D01*
X172189000Y-148096600D02*
X172189000Y-146302600D01*
X172189000Y-144222600D02*
X172189000Y-142428600D01*
X172149000Y-148074600D02*
X172149000Y-146302600D01*
X172149000Y-144222600D02*
X172149000Y-142450600D01*
X172109000Y-148052600D02*
X172109000Y-146302600D01*
X172109000Y-144222600D02*
X172109000Y-142472600D01*
X172069000Y-148028600D02*
X172069000Y-146302600D01*
X172069000Y-144222600D02*
X172069000Y-142496600D01*
X172029000Y-148004600D02*
X172029000Y-146302600D01*
X172029000Y-144222600D02*
X172029000Y-142520600D01*
X171989000Y-147978600D02*
X171989000Y-146302600D01*
X171989000Y-144222600D02*
X171989000Y-142546600D01*
X171949000Y-147952600D02*
X171949000Y-146302600D01*
X171949000Y-144222600D02*
X171949000Y-142572600D01*
X171909000Y-147926600D02*
X171909000Y-146302600D01*
X171909000Y-144222600D02*
X171909000Y-142598600D01*
X171869000Y-147898600D02*
X171869000Y-146302600D01*
X171869000Y-144222600D02*
X171869000Y-142626600D01*
X171829000Y-147869600D02*
X171829000Y-146302600D01*
X171829000Y-144222600D02*
X171829000Y-142655600D01*
X171789000Y-147840600D02*
X171789000Y-146302600D01*
X171789000Y-144222600D02*
X171789000Y-142684600D01*
X171749000Y-147810600D02*
X171749000Y-146302600D01*
X171749000Y-144222600D02*
X171749000Y-142714600D01*
X171709000Y-147778600D02*
X171709000Y-146302600D01*
X171709000Y-144222600D02*
X171709000Y-142746600D01*
X171669000Y-147746600D02*
X171669000Y-146302600D01*
X171669000Y-144222600D02*
X171669000Y-142778600D01*
X171629000Y-147712600D02*
X171629000Y-146302600D01*
X171629000Y-144222600D02*
X171629000Y-142812600D01*
X171589000Y-147678600D02*
X171589000Y-146302600D01*
X171589000Y-144222600D02*
X171589000Y-142846600D01*
X171549000Y-147642600D02*
X171549000Y-146302600D01*
X171549000Y-144222600D02*
X171549000Y-142882600D01*
X171509000Y-147605600D02*
X171509000Y-146302600D01*
X171509000Y-144222600D02*
X171509000Y-142919600D01*
X171469000Y-147567600D02*
X171469000Y-146302600D01*
X171469000Y-144222600D02*
X171469000Y-142957600D01*
X171429000Y-147527600D02*
X171429000Y-142997600D01*
X171389000Y-147486600D02*
X171389000Y-143038600D01*
X171349000Y-147444600D02*
X171349000Y-143080600D01*
X171309000Y-147399600D02*
X171309000Y-143125600D01*
X171269000Y-147354600D02*
X171269000Y-143170600D01*
X171229000Y-147306600D02*
X171229000Y-143218600D01*
X171189000Y-147257600D02*
X171189000Y-143267600D01*
X171149000Y-147206600D02*
X171149000Y-143318600D01*
X171109000Y-147152600D02*
X171109000Y-143372600D01*
X171069000Y-147096600D02*
X171069000Y-143428600D01*
X171029000Y-147038600D02*
X171029000Y-143486600D01*
X170989000Y-146976600D02*
X170989000Y-143548600D01*
X170949000Y-146912600D02*
X170949000Y-143612600D01*
X170909000Y-146843600D02*
X170909000Y-143681600D01*
X170869000Y-146771600D02*
X170869000Y-143753600D01*
X170829000Y-146694600D02*
X170829000Y-143830600D01*
X170789000Y-146612600D02*
X170789000Y-143912600D01*
X170749000Y-146524600D02*
X170749000Y-144000600D01*
X170709000Y-146427600D02*
X170709000Y-144097600D01*
X170669000Y-146321600D02*
X170669000Y-144203600D01*
X170629000Y-146202600D02*
X170629000Y-144322600D01*
X170589000Y-146064600D02*
X170589000Y-144460600D01*
X170549000Y-145895600D02*
X170549000Y-144629600D01*
X170509000Y-145664600D02*
X170509000Y-144860600D01*
X177020000Y-145262600D02*
G75*
G03*
X177020000Y-145262600I-3270000J0D01*
G01*
%TO.C,JP1*%
X119134800Y-123448200D02*
X119134800Y-120648200D01*
X121134800Y-123448200D02*
X119134800Y-123448200D01*
X119134800Y-120648200D02*
X121134800Y-120648200D01*
X121134800Y-120648200D02*
X121134800Y-123448200D01*
%TO.C,R2*%
X144057900Y-144017276D02*
X144057900Y-144526724D01*
X143012900Y-144017276D02*
X143012900Y-144526724D01*
%TO.C,R9*%
X119983124Y-120142700D02*
X119473676Y-120142700D01*
X119983124Y-119097700D02*
X119473676Y-119097700D01*
%TO.C,JP2*%
X119215200Y-130396200D02*
X119215200Y-127596200D01*
X121215200Y-130396200D02*
X119215200Y-130396200D01*
X119215200Y-127596200D02*
X121215200Y-127596200D01*
X121215200Y-127596200D02*
X121215200Y-130396200D01*
%TO.C,C7*%
X139308800Y-156058041D02*
X139308800Y-155428041D01*
X138993800Y-155743041D02*
X139623800Y-155743041D01*
X137917800Y-152557800D02*
X144377800Y-152557800D01*
X137917800Y-152517800D02*
X144377800Y-152517800D01*
X137917800Y-152477800D02*
X144377800Y-152477800D01*
X137919800Y-152437800D02*
X144375800Y-152437800D01*
X137920800Y-152397800D02*
X144374800Y-152397800D01*
X137923800Y-152357800D02*
X144371800Y-152357800D01*
X137925800Y-152317800D02*
X140107800Y-152317800D01*
X142187800Y-152317800D02*
X144369800Y-152317800D01*
X137929800Y-152277800D02*
X140107800Y-152277800D01*
X142187800Y-152277800D02*
X144365800Y-152277800D01*
X137932800Y-152237800D02*
X140107800Y-152237800D01*
X142187800Y-152237800D02*
X144362800Y-152237800D01*
X137936800Y-152197800D02*
X140107800Y-152197800D01*
X142187800Y-152197800D02*
X144358800Y-152197800D01*
X137941800Y-152157800D02*
X140107800Y-152157800D01*
X142187800Y-152157800D02*
X144353800Y-152157800D01*
X137946800Y-152117800D02*
X140107800Y-152117800D01*
X142187800Y-152117800D02*
X144348800Y-152117800D01*
X137952800Y-152077800D02*
X140107800Y-152077800D01*
X142187800Y-152077800D02*
X144342800Y-152077800D01*
X137958800Y-152037800D02*
X140107800Y-152037800D01*
X142187800Y-152037800D02*
X144336800Y-152037800D01*
X137965800Y-151997800D02*
X140107800Y-151997800D01*
X142187800Y-151997800D02*
X144329800Y-151997800D01*
X137972800Y-151957800D02*
X140107800Y-151957800D01*
X142187800Y-151957800D02*
X144322800Y-151957800D01*
X137980800Y-151917800D02*
X140107800Y-151917800D01*
X142187800Y-151917800D02*
X144314800Y-151917800D01*
X137988800Y-151877800D02*
X140107800Y-151877800D01*
X142187800Y-151877800D02*
X144306800Y-151877800D01*
X137997800Y-151836800D02*
X140107800Y-151836800D01*
X142187800Y-151836800D02*
X144297800Y-151836800D01*
X138006800Y-151796800D02*
X140107800Y-151796800D01*
X142187800Y-151796800D02*
X144288800Y-151796800D01*
X138016800Y-151756800D02*
X140107800Y-151756800D01*
X142187800Y-151756800D02*
X144278800Y-151756800D01*
X138026800Y-151716800D02*
X140107800Y-151716800D01*
X142187800Y-151716800D02*
X144268800Y-151716800D01*
X138037800Y-151676800D02*
X140107800Y-151676800D01*
X142187800Y-151676800D02*
X144257800Y-151676800D01*
X138049800Y-151636800D02*
X140107800Y-151636800D01*
X142187800Y-151636800D02*
X144245800Y-151636800D01*
X138061800Y-151596800D02*
X140107800Y-151596800D01*
X142187800Y-151596800D02*
X144233800Y-151596800D01*
X138073800Y-151556800D02*
X140107800Y-151556800D01*
X142187800Y-151556800D02*
X144221800Y-151556800D01*
X138086800Y-151516800D02*
X140107800Y-151516800D01*
X142187800Y-151516800D02*
X144208800Y-151516800D01*
X138100800Y-151476800D02*
X140107800Y-151476800D01*
X142187800Y-151476800D02*
X144194800Y-151476800D01*
X138114800Y-151436800D02*
X140107800Y-151436800D01*
X142187800Y-151436800D02*
X144180800Y-151436800D01*
X138129800Y-151396800D02*
X140107800Y-151396800D01*
X142187800Y-151396800D02*
X144165800Y-151396800D01*
X138145800Y-151356800D02*
X140107800Y-151356800D01*
X142187800Y-151356800D02*
X144149800Y-151356800D01*
X138161800Y-151316800D02*
X140107800Y-151316800D01*
X142187800Y-151316800D02*
X144133800Y-151316800D01*
X138177800Y-151276800D02*
X140107800Y-151276800D01*
X142187800Y-151276800D02*
X144117800Y-151276800D01*
X138195800Y-151236800D02*
X140107800Y-151236800D01*
X142187800Y-151236800D02*
X144099800Y-151236800D01*
X138213800Y-151196800D02*
X140107800Y-151196800D01*
X142187800Y-151196800D02*
X144081800Y-151196800D01*
X138231800Y-151156800D02*
X140107800Y-151156800D01*
X142187800Y-151156800D02*
X144063800Y-151156800D01*
X138251800Y-151116800D02*
X140107800Y-151116800D01*
X142187800Y-151116800D02*
X144043800Y-151116800D01*
X138271800Y-151076800D02*
X140107800Y-151076800D01*
X142187800Y-151076800D02*
X144023800Y-151076800D01*
X138291800Y-151036800D02*
X140107800Y-151036800D01*
X142187800Y-151036800D02*
X144003800Y-151036800D01*
X138313800Y-150996800D02*
X140107800Y-150996800D01*
X142187800Y-150996800D02*
X143981800Y-150996800D01*
X138335800Y-150956800D02*
X140107800Y-150956800D01*
X142187800Y-150956800D02*
X143959800Y-150956800D01*
X138357800Y-150916800D02*
X140107800Y-150916800D01*
X142187800Y-150916800D02*
X143937800Y-150916800D01*
X138381800Y-150876800D02*
X140107800Y-150876800D01*
X142187800Y-150876800D02*
X143913800Y-150876800D01*
X138405800Y-150836800D02*
X140107800Y-150836800D01*
X142187800Y-150836800D02*
X143889800Y-150836800D01*
X138431800Y-150796800D02*
X140107800Y-150796800D01*
X142187800Y-150796800D02*
X143863800Y-150796800D01*
X138457800Y-150756800D02*
X140107800Y-150756800D01*
X142187800Y-150756800D02*
X143837800Y-150756800D01*
X138483800Y-150716800D02*
X140107800Y-150716800D01*
X142187800Y-150716800D02*
X143811800Y-150716800D01*
X138511800Y-150676800D02*
X140107800Y-150676800D01*
X142187800Y-150676800D02*
X143783800Y-150676800D01*
X138540800Y-150636800D02*
X140107800Y-150636800D01*
X142187800Y-150636800D02*
X143754800Y-150636800D01*
X138569800Y-150596800D02*
X140107800Y-150596800D01*
X142187800Y-150596800D02*
X143725800Y-150596800D01*
X138599800Y-150556800D02*
X140107800Y-150556800D01*
X142187800Y-150556800D02*
X143695800Y-150556800D01*
X138631800Y-150516800D02*
X140107800Y-150516800D01*
X142187800Y-150516800D02*
X143663800Y-150516800D01*
X138663800Y-150476800D02*
X140107800Y-150476800D01*
X142187800Y-150476800D02*
X143631800Y-150476800D01*
X138697800Y-150436800D02*
X140107800Y-150436800D01*
X142187800Y-150436800D02*
X143597800Y-150436800D01*
X138731800Y-150396800D02*
X140107800Y-150396800D01*
X142187800Y-150396800D02*
X143563800Y-150396800D01*
X138767800Y-150356800D02*
X140107800Y-150356800D01*
X142187800Y-150356800D02*
X143527800Y-150356800D01*
X138804800Y-150316800D02*
X140107800Y-150316800D01*
X142187800Y-150316800D02*
X143490800Y-150316800D01*
X138842800Y-150276800D02*
X140107800Y-150276800D01*
X142187800Y-150276800D02*
X143452800Y-150276800D01*
X138882800Y-150236800D02*
X143412800Y-150236800D01*
X138923800Y-150196800D02*
X143371800Y-150196800D01*
X138965800Y-150156800D02*
X143329800Y-150156800D01*
X139010800Y-150116800D02*
X143284800Y-150116800D01*
X139055800Y-150076800D02*
X143239800Y-150076800D01*
X139103800Y-150036800D02*
X143191800Y-150036800D01*
X139152800Y-149996800D02*
X143142800Y-149996800D01*
X139203800Y-149956800D02*
X143091800Y-149956800D01*
X139257800Y-149916800D02*
X143037800Y-149916800D01*
X139313800Y-149876800D02*
X142981800Y-149876800D01*
X139371800Y-149836800D02*
X142923800Y-149836800D01*
X139433800Y-149796800D02*
X142861800Y-149796800D01*
X139497800Y-149756800D02*
X142797800Y-149756800D01*
X139566800Y-149716800D02*
X142728800Y-149716800D01*
X139638800Y-149676800D02*
X142656800Y-149676800D01*
X139715800Y-149636800D02*
X142579800Y-149636800D01*
X139797800Y-149596800D02*
X142497800Y-149596800D01*
X139885800Y-149556800D02*
X142409800Y-149556800D01*
X139982800Y-149516800D02*
X142312800Y-149516800D01*
X140088800Y-149476800D02*
X142206800Y-149476800D01*
X140207800Y-149436800D02*
X142087800Y-149436800D01*
X140345800Y-149396800D02*
X141949800Y-149396800D01*
X140514800Y-149356800D02*
X141780800Y-149356800D01*
X140745800Y-149316800D02*
X141549800Y-149316800D01*
X144417800Y-152557800D02*
G75*
G03*
X144417800Y-152557800I-3270000J0D01*
G01*
%TO.C,D1*%
X156484600Y-152248600D02*
X156484600Y-155548600D01*
X156484600Y-152248600D02*
X161994600Y-152248600D01*
X156484600Y-155548600D02*
X161994600Y-155548600D01*
%TO.C,Q4*%
X149756100Y-133556600D02*
X151431100Y-133556600D01*
X149756100Y-133556600D02*
X149106100Y-133556600D01*
X149756100Y-130436600D02*
X150406100Y-130436600D01*
X149756100Y-130436600D02*
X149106100Y-130436600D01*
%TO.C,R1*%
X132639524Y-149493500D02*
X132130076Y-149493500D01*
X132639524Y-148448500D02*
X132130076Y-148448500D01*
%TO.C,U5*%
X125360200Y-125405200D02*
X123410200Y-125405200D01*
X125360200Y-125405200D02*
X127310200Y-125405200D01*
X125360200Y-130525200D02*
X123410200Y-130525200D01*
X125360200Y-130525200D02*
X128810200Y-130525200D01*
%TD*%
%LPC*%
D14*
%TO.C,REF\u002A\u002A*%
X133574367Y-154025600D03*
%TD*%
%TO.C,REF\u002A\u002A*%
X131385732Y-154025600D03*
%TD*%
%TO.C,REF\u002A\u002A*%
X129197099Y-154025600D03*
%TD*%
%TO.C,REF\u002A\u002A*%
X127008466Y-154025600D03*
%TD*%
%TO.C,REF\u002A\u002A*%
X124819833Y-154025600D03*
%TD*%
%TO.C,REF\u002A\u002A*%
X122631200Y-154025600D03*
%TD*%
%TO.C,REF\u002A\u002A*%
X120442567Y-154025600D03*
%TD*%
D15*
%TO.C,C1*%
X139165900Y-121666000D03*
X140890900Y-121666000D03*
%TD*%
D16*
%TO.C,C2*%
X137334900Y-121666000D03*
X135609900Y-121666000D03*
%TD*%
D15*
%TO.C,C6*%
X123950100Y-131546600D03*
X125675100Y-131546600D03*
%TD*%
D17*
%TO.C,J2*%
X117557500Y-147574000D03*
D18*
X117557500Y-145074000D03*
X117557500Y-142574000D03*
X117557500Y-140074000D03*
X117557500Y-137574000D03*
X117557500Y-135074000D03*
%TD*%
D19*
%TO.C,R10*%
X120721300Y-126466600D03*
X118896300Y-126466600D03*
%TD*%
D20*
%TO.C,R5*%
X152481100Y-121971600D03*
X152481100Y-120146600D03*
%TD*%
%TO.C,R6*%
X152481100Y-125637800D03*
X152481100Y-123812800D03*
%TD*%
D21*
%TO.C,R8*%
X147031100Y-123812800D03*
X147031100Y-125637800D03*
%TD*%
D20*
%TO.C,R11*%
X152481100Y-129278400D03*
X152481100Y-127453400D03*
%TD*%
%TO.C,R12*%
X152481100Y-132919100D03*
X152481100Y-131094100D03*
%TD*%
D21*
%TO.C,R13*%
X147031100Y-127453400D03*
X147031100Y-129278400D03*
%TD*%
%TO.C,R14*%
X147031100Y-131094100D03*
X147031100Y-132919100D03*
%TD*%
D16*
%TO.C,C4*%
X134896500Y-135839200D03*
X133171500Y-135839200D03*
%TD*%
D21*
%TO.C,R3*%
X131367000Y-132437500D03*
X131367000Y-134262500D03*
%TD*%
D20*
%TO.C,R4*%
X131443200Y-126109100D03*
X131443200Y-124284100D03*
%TD*%
D22*
%TO.C,U1*%
X174854600Y-117837200D03*
X172314600Y-117837200D03*
X169774600Y-117837200D03*
X167234600Y-117837200D03*
X164694600Y-117837200D03*
X162154600Y-117837200D03*
X159614600Y-117837200D03*
X157074600Y-117837200D03*
X174844600Y-136223200D03*
X172304600Y-136223200D03*
X169764600Y-136223200D03*
X167224600Y-136223200D03*
X164684600Y-136223200D03*
X162144600Y-136223200D03*
X159604600Y-136223200D03*
X157064600Y-136223200D03*
%TD*%
D23*
%TO.C,Q2*%
X150693600Y-125671600D03*
X150693600Y-123771600D03*
X148818600Y-124721600D03*
%TD*%
D24*
%TO.C,U4*%
X122859800Y-122250200D03*
X122859800Y-120980200D03*
X122859800Y-119710200D03*
X122859800Y-118440200D03*
X127809800Y-118440200D03*
X127809800Y-119710200D03*
X127809800Y-120980200D03*
X127809800Y-122250200D03*
%TD*%
D25*
%TO.C,C3*%
X134964800Y-150743500D03*
X134964800Y-149018500D03*
%TD*%
D26*
%TO.C,U6*%
X146997000Y-152781000D03*
X148697000Y-152781000D03*
X150397000Y-152781000D03*
D27*
X150397000Y-143631000D03*
D26*
X152097000Y-152781000D03*
X153797000Y-152781000D03*
%TD*%
D28*
%TO.C,L1*%
X168246600Y-145262600D03*
X158346600Y-145262600D03*
%TD*%
D15*
%TO.C,C5*%
X124015100Y-123977400D03*
X125740100Y-123977400D03*
%TD*%
D29*
%TO.C,U2*%
X141251200Y-146964400D03*
X141251200Y-145694400D03*
X141251200Y-144424400D03*
X141251200Y-143154400D03*
X141251200Y-141884400D03*
X141251200Y-140614400D03*
X141251200Y-139344400D03*
X141251200Y-138074400D03*
X131951200Y-138074400D03*
X131951200Y-139344400D03*
X131951200Y-140614400D03*
X131951200Y-141884400D03*
X131951200Y-143154400D03*
X131951200Y-144424400D03*
X131951200Y-145694400D03*
X131951200Y-146964400D03*
%TD*%
D23*
%TO.C,Q3*%
X150693600Y-129321600D03*
X150693600Y-127421600D03*
X148818600Y-128371600D03*
%TD*%
D30*
%TO.C,Y1*%
X136593700Y-118096800D03*
X140293700Y-118096800D03*
%TD*%
D23*
%TO.C,Q1*%
X150693600Y-122071600D03*
X150693600Y-120171600D03*
X148818600Y-121121600D03*
%TD*%
D29*
%TO.C,U3*%
X133653000Y-133731000D03*
X133653000Y-132461000D03*
X133653000Y-131191000D03*
X133653000Y-129921000D03*
X133653000Y-128651000D03*
X133653000Y-127381000D03*
X133653000Y-126111000D03*
X133653000Y-124841000D03*
X133653000Y-123571000D03*
X142953000Y-123571000D03*
X142953000Y-124841000D03*
X142953000Y-126111000D03*
X142953000Y-127381000D03*
X142953000Y-128651000D03*
X142953000Y-129921000D03*
X142953000Y-131191000D03*
X142953000Y-132461000D03*
X142953000Y-133731000D03*
%TD*%
D31*
%TO.C,J1*%
X123321800Y-149518700D03*
X126750800Y-149569500D03*
%TD*%
D21*
%TO.C,R7*%
X147031100Y-120159100D03*
X147031100Y-121984100D03*
%TD*%
D32*
%TO.C,C8*%
X175000000Y-145262600D03*
D33*
X172500000Y-145262600D03*
%TD*%
D34*
%TO.C,JP1*%
X120134800Y-122698200D03*
X120134800Y-121398200D03*
%TD*%
D21*
%TO.C,R2*%
X143535400Y-143359500D03*
X143535400Y-145184500D03*
%TD*%
D19*
%TO.C,R9*%
X120640900Y-119620200D03*
X118815900Y-119620200D03*
%TD*%
D34*
%TO.C,JP2*%
X120215200Y-129646200D03*
X120215200Y-128346200D03*
%TD*%
D35*
%TO.C,C7*%
X141147800Y-153807800D03*
D33*
X141147800Y-151307800D03*
%TD*%
D36*
%TO.C,D1*%
X157994600Y-153898600D03*
X161994600Y-153898600D03*
%TD*%
D23*
%TO.C,Q4*%
X150693600Y-132946600D03*
X150693600Y-131046600D03*
X148818600Y-131996600D03*
%TD*%
D19*
%TO.C,R1*%
X133297300Y-148971000D03*
X131472300Y-148971000D03*
%TD*%
D24*
%TO.C,U5*%
X122885200Y-129870200D03*
X122885200Y-128600200D03*
X122885200Y-127330200D03*
X122885200Y-126060200D03*
X127835200Y-126060200D03*
X127835200Y-127330200D03*
X127835200Y-128600200D03*
X127835200Y-129870200D03*
%TD*%
%LPD*%
M02*
