%TF.GenerationSoftware,KiCad,Pcbnew,7.0.6*%
%TF.CreationDate,2023-11-27T09:51:19+01:00*%
%TF.ProjectId,PSACANBridgeHW_v14,50534143-414e-4427-9269-64676548575f,rev?*%
%TF.SameCoordinates,Original*%
%TF.FileFunction,Copper,L1,Top*%
%TF.FilePolarity,Positive*%
%FSLAX46Y46*%
G04 Gerber Fmt 4.6, Leading zero omitted, Abs format (unit mm)*
G04 Created by KiCad (PCBNEW 7.0.6) date 2023-11-27 09:51:19*
%MOMM*%
%LPD*%
G01*
G04 APERTURE LIST*
G04 Aperture macros list*
%AMRoundRect*
0 Rectangle with rounded corners*
0 $1 Rounding radius*
0 $2 $3 $4 $5 $6 $7 $8 $9 X,Y pos of 4 corners*
0 Add a 4 corners polygon primitive as box body*
4,1,4,$2,$3,$4,$5,$6,$7,$8,$9,$2,$3,0*
0 Add four circle primitives for the rounded corners*
1,1,$1+$1,$2,$3*
1,1,$1+$1,$4,$5*
1,1,$1+$1,$6,$7*
1,1,$1+$1,$8,$9*
0 Add four rect primitives between the rounded corners*
20,1,$1+$1,$2,$3,$4,$5,0*
20,1,$1+$1,$4,$5,$6,$7,0*
20,1,$1+$1,$6,$7,$8,$9,0*
20,1,$1+$1,$8,$9,$2,$3,0*%
G04 Aperture macros list end*
%TA.AperFunction,SMDPad,CuDef*%
%ADD10C,1.000000*%
%TD*%
%TA.AperFunction,SMDPad,CuDef*%
%ADD11RoundRect,0.237500X-0.300000X-0.237500X0.300000X-0.237500X0.300000X0.237500X-0.300000X0.237500X0*%
%TD*%
%TA.AperFunction,SMDPad,CuDef*%
%ADD12RoundRect,0.237500X0.300000X0.237500X-0.300000X0.237500X-0.300000X-0.237500X0.300000X-0.237500X0*%
%TD*%
%TA.AperFunction,ComponentPad*%
%ADD13RoundRect,0.250000X0.725000X-0.600000X0.725000X0.600000X-0.725000X0.600000X-0.725000X-0.600000X0*%
%TD*%
%TA.AperFunction,ComponentPad*%
%ADD14O,1.950000X1.700000*%
%TD*%
%TA.AperFunction,SMDPad,CuDef*%
%ADD15RoundRect,0.237500X0.250000X0.237500X-0.250000X0.237500X-0.250000X-0.237500X0.250000X-0.237500X0*%
%TD*%
%TA.AperFunction,SMDPad,CuDef*%
%ADD16RoundRect,0.237500X0.237500X-0.250000X0.237500X0.250000X-0.237500X0.250000X-0.237500X-0.250000X0*%
%TD*%
%TA.AperFunction,SMDPad,CuDef*%
%ADD17RoundRect,0.237500X-0.237500X0.250000X-0.237500X-0.250000X0.237500X-0.250000X0.237500X0.250000X0*%
%TD*%
%TA.AperFunction,SMDPad,CuDef*%
%ADD18R,0.900000X2.000000*%
%TD*%
%TA.AperFunction,SMDPad,CuDef*%
%ADD19RoundRect,0.150000X0.587500X0.150000X-0.587500X0.150000X-0.587500X-0.150000X0.587500X-0.150000X0*%
%TD*%
%TA.AperFunction,SMDPad,CuDef*%
%ADD20RoundRect,0.150000X0.825000X0.150000X-0.825000X0.150000X-0.825000X-0.150000X0.825000X-0.150000X0*%
%TD*%
%TA.AperFunction,SMDPad,CuDef*%
%ADD21RoundRect,0.237500X0.237500X-0.300000X0.237500X0.300000X-0.237500X0.300000X-0.237500X-0.300000X0*%
%TD*%
%TA.AperFunction,SMDPad,CuDef*%
%ADD22RoundRect,0.250000X0.300000X-2.050000X0.300000X2.050000X-0.300000X2.050000X-0.300000X-2.050000X0*%
%TD*%
%TA.AperFunction,SMDPad,CuDef*%
%ADD23RoundRect,0.250000X2.375000X-2.025000X2.375000X2.025000X-2.375000X2.025000X-2.375000X-2.025000X0*%
%TD*%
%TA.AperFunction,SMDPad,CuDef*%
%ADD24RoundRect,0.250002X5.149998X-4.449998X5.149998X4.449998X-5.149998X4.449998X-5.149998X-4.449998X0*%
%TD*%
%TA.AperFunction,SMDPad,CuDef*%
%ADD25R,2.900000X5.400000*%
%TD*%
%TA.AperFunction,SMDPad,CuDef*%
%ADD26RoundRect,0.150000X0.875000X0.150000X-0.875000X0.150000X-0.875000X-0.150000X0.875000X-0.150000X0*%
%TD*%
%TA.AperFunction,SMDPad,CuDef*%
%ADD27R,2.000000X2.400000*%
%TD*%
%TA.AperFunction,SMDPad,CuDef*%
%ADD28RoundRect,0.381000X0.381000X-0.762000X0.381000X0.762000X-0.381000X0.762000X-0.381000X-0.762000X0*%
%TD*%
%TA.AperFunction,ComponentPad*%
%ADD29R,1.600000X1.600000*%
%TD*%
%TA.AperFunction,ComponentPad*%
%ADD30C,1.600000*%
%TD*%
%TA.AperFunction,SMDPad,CuDef*%
%ADD31R,1.500000X1.000000*%
%TD*%
%TA.AperFunction,SMDPad,CuDef*%
%ADD32RoundRect,0.250000X-1.000000X-0.650000X1.000000X-0.650000X1.000000X0.650000X-1.000000X0.650000X0*%
%TD*%
%TA.AperFunction,ViaPad*%
%ADD33C,0.800000*%
%TD*%
%TA.AperFunction,Conductor*%
%ADD34C,0.300000*%
%TD*%
%TA.AperFunction,Conductor*%
%ADD35C,0.500000*%
%TD*%
G04 APERTURE END LIST*
D10*
%TO.P,REF\u002A\u002A,1*%
%TO.N,N/C*%
X133574367Y-154025600D03*
%TD*%
%TO.P,REF\u002A\u002A,1*%
%TO.N,N/C*%
X131385732Y-154025600D03*
%TD*%
%TO.P,REF\u002A\u002A,1*%
%TO.N,N/C*%
X129197099Y-154025600D03*
%TD*%
%TO.P,REF\u002A\u002A,1*%
%TO.N,N/C*%
X127008466Y-154025600D03*
%TD*%
%TO.P,REF\u002A\u002A,1*%
%TO.N,N/C*%
X124819833Y-154025600D03*
%TD*%
%TO.P,REF\u002A\u002A,1*%
%TO.N,N/C*%
X122631200Y-154025600D03*
%TD*%
%TO.P,REF\u002A\u002A,1*%
%TO.N,N/C*%
X120442567Y-154025600D03*
%TD*%
D11*
%TO.P,C1,1*%
%TO.N,Net-(U3-OSC2)*%
X139165900Y-121666000D03*
%TO.P,C1,2*%
%TO.N,GNDD*%
X140890900Y-121666000D03*
%TD*%
D12*
%TO.P,C2,1*%
%TO.N,Net-(U3-OSC1)*%
X137334900Y-121666000D03*
%TO.P,C2,2*%
%TO.N,GNDD*%
X135609900Y-121666000D03*
%TD*%
D11*
%TO.P,C6,1*%
%TO.N,GNDD*%
X123950100Y-131546600D03*
%TO.P,C6,2*%
%TO.N,5V*%
X125675100Y-131546600D03*
%TD*%
D13*
%TO.P,J2,1,Pin_1*%
%TO.N,/+12V*%
X117557500Y-147574000D03*
D14*
%TO.P,J2,2,Pin_2*%
%TO.N,GNDD*%
X117557500Y-145074000D03*
%TO.P,J2,3,Pin_3*%
%TO.N,/CAN1_H*%
X117557500Y-142574000D03*
%TO.P,J2,4,Pin_4*%
%TO.N,/CAN1_L*%
X117557500Y-140074000D03*
%TO.P,J2,5,Pin_5*%
%TO.N,/CAN2_H*%
X117557500Y-137574000D03*
%TO.P,J2,6,Pin_6*%
%TO.N,/CAN2_L*%
X117557500Y-135074000D03*
%TD*%
D15*
%TO.P,R10,1*%
%TO.N,/CAN1_L*%
X120721300Y-126466600D03*
%TO.P,R10,2*%
%TO.N,Net-(JP2-A)*%
X118896300Y-126466600D03*
%TD*%
D16*
%TO.P,R5,1*%
%TO.N,/3V3*%
X152481100Y-121971600D03*
%TO.P,R5,2*%
%TO.N,/MISO_R*%
X152481100Y-120146600D03*
%TD*%
%TO.P,R6,1*%
%TO.N,/3V3*%
X152481100Y-125637800D03*
%TO.P,R6,2*%
%TO.N,/CAN_RX_R*%
X152481100Y-123812800D03*
%TD*%
D17*
%TO.P,R8,1*%
%TO.N,5V*%
X147031100Y-123812800D03*
%TO.P,R8,2*%
%TO.N,/CAN_RX*%
X147031100Y-125637800D03*
%TD*%
D16*
%TO.P,R11,1*%
%TO.N,/3V3*%
X152481100Y-129278400D03*
%TO.P,R11,2*%
%TO.N,/IRQ_R*%
X152481100Y-127453400D03*
%TD*%
%TO.P,R12,1*%
%TO.N,/3V3*%
X152481100Y-132919100D03*
%TO.P,R12,2*%
%TO.N,Net-(Q4-S)*%
X152481100Y-131094100D03*
%TD*%
D17*
%TO.P,R13,1*%
%TO.N,5V*%
X147031100Y-127453400D03*
%TO.P,R13,2*%
%TO.N,/IRQ*%
X147031100Y-129278400D03*
%TD*%
%TO.P,R14,1*%
%TO.N,5V*%
X147031100Y-131094100D03*
%TO.P,R14,2*%
%TO.N,Net-(Q4-D)*%
X147031100Y-132919100D03*
%TD*%
D12*
%TO.P,C4,1*%
%TO.N,GNDD*%
X134896500Y-135839200D03*
%TO.P,C4,2*%
%TO.N,5V*%
X133171500Y-135839200D03*
%TD*%
D17*
%TO.P,R3,1*%
%TO.N,Net-(U3-~{RESET})*%
X131367000Y-132437500D03*
%TO.P,R3,2*%
%TO.N,5V*%
X131367000Y-134262500D03*
%TD*%
D16*
%TO.P,R4,1*%
%TO.N,/IRQ*%
X131443200Y-126109100D03*
%TO.P,R4,2*%
%TO.N,5V*%
X131443200Y-124284100D03*
%TD*%
D18*
%TO.P,U1,1,5*%
%TO.N,/MISO_R*%
X174854600Y-117837200D03*
%TO.P,U1,2,6*%
%TO.N,/RX2*%
X172314600Y-117837200D03*
%TO.P,U1,3,7*%
%TO.N,/TX2*%
X169774600Y-117837200D03*
%TO.P,U1,4,8*%
%TO.N,unconnected-(U1-8-Pad4)*%
X167234600Y-117837200D03*
%TO.P,U1,5,9*%
%TO.N,unconnected-(U1-9-Pad5)*%
X164694600Y-117837200D03*
%TO.P,U1,6,10*%
%TO.N,unconnected-(U1-10-Pad6)*%
X162154600Y-117837200D03*
%TO.P,U1,7,20*%
%TO.N,unconnected-(U1-20-Pad7)*%
X159614600Y-117837200D03*
%TO.P,U1,8,21*%
%TO.N,unconnected-(U1-21-Pad8)*%
X157074600Y-117837200D03*
%TO.P,U1,9,5V*%
%TO.N,5V*%
X174844600Y-136223200D03*
%TO.P,U1,10,GND*%
%TO.N,GNDD*%
X172304600Y-136223200D03*
%TO.P,U1,11,3V3*%
%TO.N,/3V3*%
X169764600Y-136223200D03*
%TO.P,U1,12,4*%
%TO.N,/SCK*%
X167224600Y-136223200D03*
%TO.P,U1,13,3*%
%TO.N,/CAN_RX_R*%
X164684600Y-136223200D03*
%TO.P,U1,14,2*%
%TO.N,/CAN_TX*%
X162144600Y-136223200D03*
%TO.P,U1,15,1*%
%TO.N,/MOSI*%
X159604600Y-136223200D03*
%TO.P,U1,16,0*%
%TO.N,/CS_CAN*%
X157064600Y-136223200D03*
%TD*%
D19*
%TO.P,Q2,1,G*%
%TO.N,/3V3*%
X150693600Y-125671600D03*
%TO.P,Q2,2,S*%
%TO.N,/CAN_RX_R*%
X150693600Y-123771600D03*
%TO.P,Q2,3,D*%
%TO.N,/CAN_RX*%
X148818600Y-124721600D03*
%TD*%
D20*
%TO.P,U4,8,STB*%
%TO.N,GNDD*%
X122859800Y-122250200D03*
%TO.P,U4,7,CANH*%
%TO.N,/CAN2_H*%
X122859800Y-120980200D03*
%TO.P,U4,6,CANL*%
%TO.N,/CAN2_L*%
X122859800Y-119710200D03*
%TO.P,U4,5,SPLIT*%
%TO.N,unconnected-(U4-SPLIT-Pad5)*%
X122859800Y-118440200D03*
%TO.P,U4,4,RXD*%
%TO.N,Net-(U3-RXCAN)*%
X127809800Y-118440200D03*
%TO.P,U4,3,VCC*%
%TO.N,5V*%
X127809800Y-119710200D03*
%TO.P,U4,2,GND*%
%TO.N,GNDD*%
X127809800Y-120980200D03*
%TO.P,U4,1,TXD*%
%TO.N,Net-(U3-TXCAN)*%
X127809800Y-122250200D03*
%TD*%
D21*
%TO.P,C3,1*%
%TO.N,GNDD*%
X134964800Y-150743500D03*
%TO.P,C3,2*%
%TO.N,/3V3*%
X134964800Y-149018500D03*
%TD*%
D22*
%TO.P,U6,1,VIN*%
%TO.N,/+12V*%
X146997000Y-152781000D03*
%TO.P,U6,2,OUT*%
%TO.N,Net-(D1-K)*%
X148697000Y-152781000D03*
%TO.P,U6,3,GND*%
%TO.N,GNDD*%
X150397000Y-152781000D03*
D23*
X147622000Y-146056000D03*
X153172000Y-146056000D03*
D24*
X150397000Y-143631000D03*
D23*
X147622000Y-141206000D03*
X153172000Y-141206000D03*
D22*
%TO.P,U6,4,FB*%
%TO.N,5V*%
X152097000Y-152781000D03*
%TO.P,U6,5,~{ON}/OFF*%
%TO.N,GNDD*%
X153797000Y-152781000D03*
%TD*%
D25*
%TO.P,L1,1,1*%
%TO.N,5V*%
X168246600Y-145262600D03*
%TO.P,L1,2,2*%
%TO.N,Net-(D1-K)*%
X158346600Y-145262600D03*
%TD*%
D11*
%TO.P,C5,1*%
%TO.N,GNDD*%
X124015100Y-123977400D03*
%TO.P,C5,2*%
%TO.N,5V*%
X125740100Y-123977400D03*
%TD*%
D26*
%TO.P,U2,1,32KHZ*%
%TO.N,unconnected-(U2-32KHZ-Pad1)*%
X141251200Y-146964400D03*
%TO.P,U2,2,VCC*%
%TO.N,/3V3*%
X141251200Y-145694400D03*
%TO.P,U2,3,~{INT}/SQW*%
%TO.N,unconnected-(U2-~{INT}{slash}SQW-Pad3)*%
X141251200Y-144424400D03*
%TO.P,U2,4,~{RST}*%
%TO.N,/3V3*%
X141251200Y-143154400D03*
%TO.P,U2,5,GND*%
%TO.N,GNDD*%
X141251200Y-141884400D03*
%TO.P,U2,6,GND*%
X141251200Y-140614400D03*
%TO.P,U2,7,GND*%
X141251200Y-139344400D03*
%TO.P,U2,8,GND*%
X141251200Y-138074400D03*
%TO.P,U2,9,GND*%
X131951200Y-138074400D03*
%TO.P,U2,10,GND*%
X131951200Y-139344400D03*
%TO.P,U2,11,GND*%
X131951200Y-140614400D03*
%TO.P,U2,12,GND*%
X131951200Y-141884400D03*
%TO.P,U2,13,GND*%
X131951200Y-143154400D03*
%TO.P,U2,14,VBAT*%
%TO.N,/VBAT*%
X131951200Y-144424400D03*
%TO.P,U2,15,SDA*%
%TO.N,/RX2*%
X131951200Y-145694400D03*
%TO.P,U2,16,SCL*%
%TO.N,/TX2*%
X131951200Y-146964400D03*
%TD*%
D19*
%TO.P,Q3,1,G*%
%TO.N,/3V3*%
X150693600Y-129321600D03*
%TO.P,Q3,2,S*%
%TO.N,/IRQ_R*%
X150693600Y-127421600D03*
%TO.P,Q3,3,D*%
%TO.N,/IRQ*%
X148818600Y-128371600D03*
%TD*%
D27*
%TO.P,Y1,1,1*%
%TO.N,Net-(U3-OSC1)*%
X136593700Y-118096800D03*
%TO.P,Y1,2,2*%
%TO.N,Net-(U3-OSC2)*%
X140293700Y-118096800D03*
%TD*%
D19*
%TO.P,Q1,1,G*%
%TO.N,/3V3*%
X150693600Y-122071600D03*
%TO.P,Q1,2,S*%
%TO.N,/MISO_R*%
X150693600Y-120171600D03*
%TO.P,Q1,3,D*%
%TO.N,/MISO*%
X148818600Y-121121600D03*
%TD*%
D26*
%TO.P,U3,18,VDD*%
%TO.N,5V*%
X133653000Y-133731000D03*
%TO.P,U3,17,~{RESET}*%
%TO.N,Net-(U3-~{RESET})*%
X133653000Y-132461000D03*
%TO.P,U3,16,~{CS}*%
%TO.N,/CS_CAN*%
X133653000Y-131191000D03*
%TO.P,U3,15,SO*%
%TO.N,/MISO*%
X133653000Y-129921000D03*
%TO.P,U3,14,SI*%
%TO.N,/MOSI*%
X133653000Y-128651000D03*
%TO.P,U3,13,SCK*%
%TO.N,/SCK*%
X133653000Y-127381000D03*
%TO.P,U3,12,~{INT}*%
%TO.N,/IRQ*%
X133653000Y-126111000D03*
%TO.P,U3,11,~{RX0BF}*%
%TO.N,unconnected-(U3-~{RX0BF}-Pad11)*%
X133653000Y-124841000D03*
%TO.P,U3,10,~{RX1BF}*%
%TO.N,unconnected-(U3-~{RX1BF}-Pad10)*%
X133653000Y-123571000D03*
%TO.P,U3,9,VSS*%
%TO.N,GNDD*%
X142953000Y-123571000D03*
%TO.P,U3,8,OSC1*%
%TO.N,Net-(U3-OSC1)*%
X142953000Y-124841000D03*
%TO.P,U3,7,OSC2*%
%TO.N,Net-(U3-OSC2)*%
X142953000Y-126111000D03*
%TO.P,U3,6,~{TX2RTS}*%
%TO.N,unconnected-(U3-~{TX2RTS}-Pad6)*%
X142953000Y-127381000D03*
%TO.P,U3,5,~{TX1RTS}*%
%TO.N,unconnected-(U3-~{TX1RTS}-Pad5)*%
X142953000Y-128651000D03*
%TO.P,U3,4,~{TX0RTS}*%
%TO.N,unconnected-(U3-~{TX0RTS}-Pad4)*%
X142953000Y-129921000D03*
%TO.P,U3,3,CLKOUT/SOF*%
%TO.N,unconnected-(U3-CLKOUT{slash}SOF-Pad3)*%
X142953000Y-131191000D03*
%TO.P,U3,2,RXCAN*%
%TO.N,Net-(U3-RXCAN)*%
X142953000Y-132461000D03*
%TO.P,U3,1,TXCAN*%
%TO.N,Net-(U3-TXCAN)*%
X142953000Y-133731000D03*
%TD*%
D28*
%TO.P,J1,1,Pin_1*%
%TO.N,/VBAT*%
X123321800Y-149518700D03*
%TO.P,J1,2,Pin_2*%
%TO.N,GNDD*%
X126750800Y-149569500D03*
%TD*%
D17*
%TO.P,R7,1*%
%TO.N,5V*%
X147031100Y-120159100D03*
%TO.P,R7,2*%
%TO.N,/MISO*%
X147031100Y-121984100D03*
%TD*%
D29*
%TO.P,C8,1*%
%TO.N,5V*%
X175000000Y-145262600D03*
D30*
%TO.P,C8,2*%
%TO.N,GNDD*%
X172500000Y-145262600D03*
%TD*%
D31*
%TO.P,JP1,1,A*%
%TO.N,Net-(JP1-A)*%
X120134800Y-122698200D03*
%TO.P,JP1,2,B*%
%TO.N,/CAN2_H*%
X120134800Y-121398200D03*
%TD*%
D17*
%TO.P,R2,1*%
%TO.N,/3V3*%
X143535400Y-143359500D03*
%TO.P,R2,2*%
%TO.N,/TX2*%
X143535400Y-145184500D03*
%TD*%
D15*
%TO.P,R9,1*%
%TO.N,/CAN2_L*%
X120640900Y-119620200D03*
%TO.P,R9,2*%
%TO.N,Net-(JP1-A)*%
X118815900Y-119620200D03*
%TD*%
D31*
%TO.P,JP2,1,A*%
%TO.N,Net-(JP2-A)*%
X120215200Y-129646200D03*
%TO.P,JP2,2,B*%
%TO.N,/CAN1_H*%
X120215200Y-128346200D03*
%TD*%
D29*
%TO.P,C7,1*%
%TO.N,/+12V*%
X141147800Y-153807800D03*
D30*
%TO.P,C7,2*%
%TO.N,GNDD*%
X141147800Y-151307800D03*
%TD*%
D32*
%TO.P,D1,1,K*%
%TO.N,Net-(D1-K)*%
X157994600Y-153898600D03*
%TO.P,D1,2,A*%
%TO.N,GNDD*%
X161994600Y-153898600D03*
%TD*%
D19*
%TO.P,Q4,1,G*%
%TO.N,/3V3*%
X150693600Y-132946600D03*
%TO.P,Q4,2,S*%
%TO.N,Net-(Q4-S)*%
X150693600Y-131046600D03*
%TO.P,Q4,3,D*%
%TO.N,Net-(Q4-D)*%
X148818600Y-131996600D03*
%TD*%
D15*
%TO.P,R1,1*%
%TO.N,/3V3*%
X133297300Y-148971000D03*
%TO.P,R1,2*%
%TO.N,/RX2*%
X131472300Y-148971000D03*
%TD*%
D20*
%TO.P,U5,8,STB*%
%TO.N,GNDD*%
X122885200Y-129870200D03*
%TO.P,U5,7,CANH*%
%TO.N,/CAN1_H*%
X122885200Y-128600200D03*
%TO.P,U5,6,CANL*%
%TO.N,/CAN1_L*%
X122885200Y-127330200D03*
%TO.P,U5,5,SPLIT*%
%TO.N,unconnected-(U5-SPLIT-Pad5)*%
X122885200Y-126060200D03*
%TO.P,U5,4,RXD*%
%TO.N,/CAN_RX*%
X127835200Y-126060200D03*
%TO.P,U5,3,VCC*%
%TO.N,5V*%
X127835200Y-127330200D03*
%TO.P,U5,2,GND*%
%TO.N,GNDD*%
X127835200Y-128600200D03*
%TO.P,U5,1,TXD*%
%TO.N,/CAN_TX*%
X127835200Y-129870200D03*
%TD*%
D33*
%TO.N,GNDD*%
X137439400Y-123494800D03*
X140868400Y-123494800D03*
X126695200Y-149631400D03*
X134848600Y-135839200D03*
X141274800Y-139369800D03*
X135559800Y-121462800D03*
X127736600Y-121031000D03*
X138201400Y-149910800D03*
X127812800Y-128625600D03*
X153797000Y-152781000D03*
X150469600Y-152781000D03*
X124028200Y-123952000D03*
X122758200Y-122224800D03*
%TO.N,/CAN_RX_R*%
X155219800Y-124228900D03*
X164045100Y-132523900D03*
%TO.N,/IRQ*%
X136224300Y-126482300D03*
X148731300Y-129641300D03*
%TO.N,/CAN_RX*%
X129918500Y-124299200D03*
X148610300Y-123789900D03*
%TO.N,/MISO*%
X131939000Y-129653500D03*
X148731300Y-122290500D03*
%TO.N,/SCK*%
X135488300Y-128221700D03*
X156239300Y-132074700D03*
%TO.N,5V*%
X149152900Y-125953400D03*
X130053100Y-125830100D03*
%TD*%
D34*
%TO.N,GNDD*%
X135559800Y-121462800D02*
X135559800Y-121615200D01*
X135559800Y-121615200D02*
X137439400Y-123494800D01*
%TO.N,Net-(U3-RXCAN)*%
X130998900Y-118440200D02*
X127809800Y-118440200D01*
X138746800Y-126188100D02*
X130998900Y-118440200D01*
X138746800Y-128754300D02*
X138746800Y-126188100D01*
X142453500Y-132461000D02*
X138746800Y-128754300D01*
X142953000Y-132461000D02*
X142453500Y-132461000D01*
%TO.N,Net-(U3-TXCAN)*%
X134086500Y-122250200D02*
X127809800Y-122250200D01*
X137542100Y-125705800D02*
X134086500Y-122250200D01*
X137542100Y-128791700D02*
X137542100Y-125705800D01*
X142481400Y-133731000D02*
X137542100Y-128791700D01*
X142953000Y-133731000D02*
X142481400Y-133731000D01*
%TO.N,Net-(U3-~{RESET})*%
X133629500Y-132437500D02*
X131367000Y-132437500D01*
X133653000Y-132461000D02*
X133629500Y-132437500D01*
%TO.N,Net-(JP2-A)*%
X119113300Y-126683600D02*
X118896300Y-126466600D01*
X119113300Y-129646200D02*
X119113300Y-126683600D01*
X120215200Y-129646200D02*
X119113300Y-129646200D01*
%TO.N,Net-(D1-K)*%
X157530900Y-149130200D02*
X158346600Y-148314500D01*
X150833900Y-149130200D02*
X157530900Y-149130200D01*
X148697000Y-151267100D02*
X150833900Y-149130200D01*
X148697000Y-152781000D02*
X148697000Y-151267100D01*
X158346600Y-145262600D02*
X158346600Y-148314500D01*
X148697000Y-154289300D02*
X148697000Y-152781000D01*
X149969000Y-155561300D02*
X148697000Y-154289300D01*
X156331900Y-155561300D02*
X149969000Y-155561300D01*
X157994600Y-153898600D02*
X156331900Y-155561300D01*
%TO.N,Net-(U3-OSC1)*%
X136593700Y-118096800D02*
X136593700Y-119648700D01*
X137334900Y-120389900D02*
X136593700Y-119648700D01*
X137334900Y-121666000D02*
X137334900Y-120389900D01*
X140509900Y-124841000D02*
X137334900Y-121666000D01*
X142953000Y-124841000D02*
X140509900Y-124841000D01*
%TO.N,Net-(U3-OSC2)*%
X140293700Y-118096800D02*
X140293700Y-120838200D01*
X141958800Y-120838200D02*
X140293700Y-120838200D01*
X144360900Y-123240300D02*
X141958800Y-120838200D01*
X144360900Y-125210700D02*
X144360900Y-123240300D01*
X143460600Y-126111000D02*
X144360900Y-125210700D01*
X142953000Y-126111000D02*
X143460600Y-126111000D01*
X139993700Y-120838200D02*
X139165900Y-121666000D01*
X140293700Y-120838200D02*
X139993700Y-120838200D01*
%TO.N,Net-(JP1-A)*%
X119032900Y-119837200D02*
X118815900Y-119620200D01*
X119032900Y-122698200D02*
X119032900Y-119837200D01*
X120134800Y-122698200D02*
X119032900Y-122698200D01*
%TO.N,/VBAT*%
X128416100Y-144424400D02*
X131951200Y-144424400D01*
X123321800Y-149518700D02*
X128416100Y-144424400D01*
%TO.N,Net-(Q4-D)*%
X147953600Y-131996600D02*
X147031100Y-132919100D01*
X148818600Y-131996600D02*
X147953600Y-131996600D01*
%TO.N,Net-(Q4-S)*%
X152433600Y-131046600D02*
X152481100Y-131094100D01*
X150693600Y-131046600D02*
X152433600Y-131046600D01*
%TO.N,/RX2*%
X130569400Y-148068100D02*
X131472300Y-148971000D01*
X130569400Y-146585100D02*
X130569400Y-148068100D01*
X131460100Y-145694400D02*
X130569400Y-146585100D01*
X131951200Y-145694400D02*
X131460100Y-145694400D01*
X156478800Y-119189100D02*
X172314600Y-119189100D01*
X153834600Y-116544900D02*
X156478800Y-119189100D01*
X120541100Y-116544900D02*
X153834600Y-116544900D01*
X117865700Y-119220300D02*
X120541100Y-116544900D01*
X117865700Y-120465000D02*
X117865700Y-119220300D01*
X115677600Y-122653100D02*
X117865700Y-120465000D01*
X115677600Y-142551900D02*
X115677600Y-122653100D01*
X116949700Y-143824000D02*
X115677600Y-142551900D01*
X118204900Y-143824000D02*
X116949700Y-143824000D01*
X119295700Y-144914800D02*
X118204900Y-143824000D01*
X119295700Y-147711700D02*
X119295700Y-144914800D01*
X122685500Y-151101500D02*
X119295700Y-147711700D01*
X127536000Y-151101500D02*
X122685500Y-151101500D01*
X130569400Y-148068100D02*
X127536000Y-151101500D01*
X172314600Y-117837200D02*
X172314600Y-119189100D01*
%TO.N,/TX2*%
X169774600Y-117837200D02*
X169774600Y-116485300D01*
X175528600Y-116485300D02*
X169774600Y-116485300D01*
X176251900Y-117208600D02*
X175528600Y-116485300D01*
X176251900Y-146261300D02*
X176251900Y-117208600D01*
X166431700Y-156081500D02*
X176251900Y-146261300D01*
X141095200Y-156081500D02*
X166431700Y-156081500D01*
X138358300Y-153344600D02*
X141095200Y-156081500D01*
X138358300Y-151644600D02*
X138358300Y-153344600D01*
X134472400Y-151644600D02*
X138358300Y-151644600D01*
X132314000Y-149486200D02*
X134472400Y-151644600D01*
X132314000Y-147327200D02*
X132314000Y-149486200D01*
X131951200Y-146964400D02*
X132314000Y-147327200D01*
X143535400Y-146467500D02*
X143535400Y-145184500D01*
X138358300Y-151644600D02*
X143535400Y-146467500D01*
%TO.N,/CS_CAN*%
X157064600Y-136223200D02*
X157064600Y-134871300D01*
X156262700Y-134871300D02*
X157064600Y-134871300D01*
X156178100Y-134955900D02*
X156262700Y-134871300D01*
X140654200Y-134955900D02*
X156178100Y-134955900D01*
X136889300Y-131191000D02*
X140654200Y-134955900D01*
X133653000Y-131191000D02*
X136889300Y-131191000D01*
%TO.N,/CAN1_H*%
X117557500Y-142574000D02*
X117557500Y-141372100D01*
X121437400Y-128600200D02*
X122885200Y-128600200D01*
X121317100Y-128479900D02*
X121437400Y-128600200D01*
X121317100Y-128346200D02*
X121317100Y-128479900D01*
X118102700Y-141372100D02*
X117557500Y-141372100D01*
X121437400Y-138037400D02*
X118102700Y-141372100D01*
X121437400Y-128600200D02*
X121437400Y-138037400D01*
X120215200Y-128346200D02*
X121317100Y-128346200D01*
%TO.N,/CAN1_L*%
X121584900Y-127330200D02*
X120721300Y-126466600D01*
X122885200Y-127330200D02*
X121584900Y-127330200D01*
X117557500Y-140074000D02*
X117557500Y-138872100D01*
X119871300Y-125616600D02*
X120721300Y-126466600D01*
X118422500Y-125616600D02*
X119871300Y-125616600D01*
X118051500Y-125987600D02*
X118422500Y-125616600D01*
X118051500Y-133743200D02*
X118051500Y-125987600D01*
X118917100Y-134608800D02*
X118051500Y-133743200D01*
X118917100Y-138057700D02*
X118917100Y-134608800D01*
X118102700Y-138872100D02*
X118917100Y-138057700D01*
X117557500Y-138872100D02*
X118102700Y-138872100D01*
%TO.N,/CAN2_H*%
X117557500Y-137574000D02*
X117557500Y-136372100D01*
X120134800Y-121398200D02*
X121236700Y-121398200D01*
X122441800Y-121398200D02*
X122859800Y-120980200D01*
X121236700Y-121398200D02*
X122441800Y-121398200D01*
X121236700Y-123378100D02*
X121236700Y-121398200D01*
X120525700Y-124089100D02*
X121236700Y-123378100D01*
X118464100Y-124089100D02*
X120525700Y-124089100D01*
X116195000Y-126358200D02*
X118464100Y-124089100D01*
X116195000Y-135610600D02*
X116195000Y-126358200D01*
X116956500Y-136372100D02*
X116195000Y-135610600D01*
X117557500Y-136372100D02*
X116956500Y-136372100D01*
%TO.N,/CAN2_L*%
X120730900Y-119710200D02*
X122859800Y-119710200D01*
X120640900Y-119620200D02*
X120730900Y-119710200D01*
X123312300Y-119710200D02*
X122859800Y-119710200D01*
X124191500Y-120589400D02*
X123312300Y-119710200D01*
X124191500Y-122659900D02*
X124191500Y-120589400D01*
X123800300Y-123051100D02*
X124191500Y-122659900D01*
X123569000Y-123051100D02*
X123800300Y-123051100D01*
X121922000Y-124698100D02*
X123569000Y-123051100D01*
X118598100Y-124698100D02*
X121922000Y-124698100D01*
X117481100Y-125815100D02*
X118598100Y-124698100D01*
X117481100Y-134997600D02*
X117481100Y-125815100D01*
X117557500Y-135074000D02*
X117481100Y-134997600D01*
%TO.N,/IRQ_R*%
X152449300Y-127421600D02*
X152481100Y-127453400D01*
X150693600Y-127421600D02*
X152449300Y-127421600D01*
%TO.N,/CAN_RX_R*%
X150734800Y-123812800D02*
X152481100Y-123812800D01*
X150693600Y-123771600D02*
X150734800Y-123812800D01*
X154803700Y-123812800D02*
X155219800Y-124228900D01*
X152481100Y-123812800D02*
X154803700Y-123812800D01*
X164684600Y-133163400D02*
X164684600Y-136223200D01*
X164045100Y-132523900D02*
X164684600Y-133163400D01*
%TO.N,/MISO_R*%
X174854600Y-117837200D02*
X174854600Y-119189100D01*
X152456100Y-120171600D02*
X152481100Y-120146600D01*
X150693600Y-120171600D02*
X152456100Y-120171600D01*
X173897100Y-120146600D02*
X174854600Y-119189100D01*
X152481100Y-120146600D02*
X173897100Y-120146600D01*
%TO.N,/IRQ*%
X131445100Y-126111000D02*
X133653000Y-126111000D01*
X131443200Y-126109100D02*
X131445100Y-126111000D01*
X135853000Y-126111000D02*
X136224300Y-126482300D01*
X133653000Y-126111000D02*
X135853000Y-126111000D01*
X147394000Y-129641300D02*
X147031100Y-129278400D01*
X148731300Y-129641300D02*
X147394000Y-129641300D01*
X148731300Y-128458900D02*
X148818600Y-128371600D01*
X148731300Y-129641300D02*
X148731300Y-128458900D01*
%TO.N,/CAN_RX*%
X148610300Y-123789900D02*
X148610300Y-124721600D01*
X148818600Y-124721600D02*
X148610300Y-124721600D01*
X147947300Y-124721600D02*
X147031100Y-125637800D01*
X148610300Y-124721600D02*
X147947300Y-124721600D01*
X129596200Y-124299200D02*
X129918500Y-124299200D01*
X127835200Y-126060200D02*
X129596200Y-124299200D01*
%TO.N,/CAN_TX*%
X162144600Y-136223200D02*
X162144600Y-137575100D01*
X156468800Y-137575100D02*
X162144600Y-137575100D01*
X156313400Y-137419700D02*
X156468800Y-137575100D01*
X133046800Y-137419700D02*
X156313400Y-137419700D01*
X127835200Y-132208100D02*
X133046800Y-137419700D01*
X127835200Y-129870200D02*
X127835200Y-132208100D01*
D35*
%TO.N,/3V3*%
X134917300Y-148971000D02*
X134964800Y-149018500D01*
X133297300Y-148971000D02*
X134917300Y-148971000D01*
X135524900Y-149018500D02*
X134964800Y-149018500D01*
X139632300Y-144911100D02*
X135524900Y-149018500D01*
X140415600Y-145694400D02*
X141251200Y-145694400D01*
X139632300Y-144911100D02*
X140415600Y-145694400D01*
X152447300Y-125671600D02*
X152481100Y-125637800D01*
X150693600Y-125671600D02*
X152447300Y-125671600D01*
X152453600Y-132946600D02*
X152481100Y-132919100D01*
X150693600Y-132946600D02*
X152453600Y-132946600D01*
X153511500Y-130395200D02*
X152437900Y-129321600D01*
X153511500Y-131888700D02*
X153511500Y-130395200D01*
X152481100Y-132919100D02*
X153511500Y-131888700D01*
X150693600Y-129321600D02*
X152437900Y-129321600D01*
X152437900Y-129321600D02*
X152481100Y-129278400D01*
X152381100Y-122071600D02*
X152481100Y-121971600D01*
X150693600Y-122071600D02*
X152381100Y-122071600D01*
X153529200Y-128230300D02*
X153529200Y-126685900D01*
X152481100Y-129278400D02*
X153529200Y-128230300D01*
X153529200Y-126685900D02*
X152481100Y-125637800D01*
X154361800Y-121971600D02*
X152481100Y-121971600D01*
X156592600Y-124202400D02*
X154361800Y-121971600D01*
X154109100Y-126685900D02*
X156592600Y-124202400D01*
X153529200Y-126685900D02*
X154109100Y-126685900D01*
X159295700Y-124202400D02*
X169764600Y-134671300D01*
X156592600Y-124202400D02*
X159295700Y-124202400D01*
X140415700Y-143154400D02*
X141251200Y-143154400D01*
X139632300Y-143937800D02*
X140415700Y-143154400D01*
X139632300Y-144911100D02*
X139632300Y-143937800D01*
X169764600Y-135841300D02*
X169764600Y-134671300D01*
X169764600Y-135841300D02*
X169764600Y-136223200D01*
X169764600Y-136223200D02*
X169764600Y-137775100D01*
X169192500Y-138347200D02*
X169764600Y-137775100D01*
X144933000Y-138347200D02*
X169192500Y-138347200D01*
X143330300Y-139949900D02*
X144933000Y-138347200D01*
X143330300Y-143154400D02*
X143330300Y-139949900D01*
X141251200Y-143154400D02*
X143330300Y-143154400D01*
X143330300Y-143154400D02*
X143535400Y-143359500D01*
%TO.N,/+12V*%
X143526500Y-152781000D02*
X146997000Y-152781000D01*
X142499700Y-153807800D02*
X143526500Y-152781000D01*
X141147800Y-153807800D02*
X142499700Y-153807800D01*
D34*
%TO.N,/MISO*%
X132206500Y-129921000D02*
X131939000Y-129653500D01*
X133653000Y-129921000D02*
X132206500Y-129921000D01*
X147337500Y-122290500D02*
X147031100Y-121984100D01*
X148731300Y-122290500D02*
X147337500Y-122290500D01*
X148731300Y-121208900D02*
X148818600Y-121121600D01*
X148731300Y-122290500D02*
X148731300Y-121208900D01*
%TO.N,/SCK*%
X167224600Y-136223200D02*
X167224600Y-137575100D01*
X134647600Y-127381000D02*
X135488300Y-128221700D01*
X133653000Y-127381000D02*
X134647600Y-127381000D01*
X164043300Y-137575100D02*
X167224600Y-137575100D01*
X163619300Y-137151100D02*
X164043300Y-137575100D01*
X163619300Y-135730900D02*
X163619300Y-137151100D01*
X159963100Y-132074700D02*
X163619300Y-135730900D01*
X156239300Y-132074700D02*
X159963100Y-132074700D01*
%TO.N,/MOSI*%
X159065100Y-134331800D02*
X159604600Y-134871300D01*
X155043500Y-134331800D02*
X159065100Y-134331800D01*
X154956600Y-134418700D02*
X155043500Y-134331800D01*
X141578200Y-134418700D02*
X154956600Y-134418700D01*
X137080500Y-129921000D02*
X141578200Y-134418700D01*
X135407000Y-129921000D02*
X137080500Y-129921000D01*
X134137000Y-128651000D02*
X135407000Y-129921000D01*
X133653000Y-128651000D02*
X134137000Y-128651000D01*
X159604600Y-136223200D02*
X159604600Y-134871300D01*
D35*
%TO.N,5V*%
X168246600Y-145262600D02*
X166244700Y-145262600D01*
X168246600Y-145262600D02*
X170248500Y-145262600D01*
X174844600Y-145262600D02*
X175000000Y-145262600D01*
X173484900Y-146622300D02*
X174844600Y-145262600D01*
X171608200Y-146622300D02*
X173484900Y-146622300D01*
X170248500Y-145262600D02*
X171608200Y-146622300D01*
X174844600Y-145262600D02*
X174844600Y-136223200D01*
X127039700Y-119710200D02*
X127809800Y-119710200D01*
X125740100Y-121009800D02*
X127039700Y-119710200D01*
X125740100Y-123977400D02*
X125740100Y-121009800D01*
X125740100Y-125967200D02*
X125740100Y-123977400D01*
X127103100Y-127330200D02*
X125740100Y-125967200D01*
X125675100Y-128758200D02*
X127103100Y-127330200D01*
X125675100Y-131546600D02*
X125675100Y-128758200D01*
X133121500Y-135789200D02*
X133121500Y-134262500D01*
X133171500Y-135839200D02*
X133121500Y-135789200D01*
X133121500Y-134262500D02*
X133653000Y-133731000D01*
X127103100Y-127330200D02*
X127835200Y-127330200D01*
X148531100Y-125953400D02*
X147031100Y-127453400D01*
X149152900Y-125953400D02*
X148531100Y-125953400D01*
X133121500Y-134262500D02*
X131367000Y-134262500D01*
X131443200Y-124440000D02*
X130053100Y-125830100D01*
X131443200Y-124284100D02*
X131443200Y-124440000D01*
X130068300Y-128845500D02*
X128553000Y-127330200D01*
X130068300Y-132963800D02*
X130068300Y-128845500D01*
X131367000Y-134262500D02*
X130068300Y-132963800D01*
X130053100Y-125830100D02*
X128553000Y-127330200D01*
X128553000Y-127330200D02*
X127835200Y-127330200D01*
X161582700Y-149924600D02*
X166244700Y-145262600D01*
X153141700Y-149924600D02*
X161582700Y-149924600D01*
X152097000Y-150969300D02*
X153141700Y-149924600D01*
X152097000Y-152781000D02*
X152097000Y-150969300D01*
X145998300Y-130061300D02*
X147031100Y-131094100D01*
X145998300Y-128486200D02*
X145998300Y-130061300D01*
X147031100Y-127453400D02*
X145998300Y-128486200D01*
X146003300Y-124840600D02*
X147031100Y-123812800D01*
X146003300Y-126425600D02*
X146003300Y-124840600D01*
X147031100Y-127453400D02*
X146003300Y-126425600D01*
X145975100Y-121215100D02*
X147031100Y-120159100D01*
X145975100Y-122756800D02*
X145975100Y-121215100D01*
X147031100Y-123812800D02*
X145975100Y-122756800D01*
%TD*%
%TA.AperFunction,Conductor*%
%TO.N,GNDD*%
G36*
X119964279Y-115885459D02*
G01*
X120032393Y-115905478D01*
X120078872Y-115959145D01*
X120088959Y-116029421D01*
X120061332Y-116091773D01*
X120055402Y-116098942D01*
X120051404Y-116103335D01*
X117461311Y-118693427D01*
X117448565Y-118703640D01*
X117448725Y-118703833D01*
X117442621Y-118708882D01*
X117392754Y-118761985D01*
X117370773Y-118783966D01*
X117366227Y-118789826D01*
X117362377Y-118794332D01*
X117337069Y-118821283D01*
X117275856Y-118857249D01*
X117204916Y-118854412D01*
X117149407Y-118816861D01*
X117013265Y-118657459D01*
X117013263Y-118657457D01*
X117013262Y-118657456D01*
X116821184Y-118493407D01*
X116605809Y-118361425D01*
X116372439Y-118264760D01*
X116372437Y-118264759D01*
X116201387Y-118223694D01*
X116126820Y-118205792D01*
X115875000Y-118185973D01*
X115623180Y-118205792D01*
X115377562Y-118264759D01*
X115144192Y-118361424D01*
X114928817Y-118493406D01*
X114736738Y-118657456D01*
X114572688Y-118849535D01*
X114440706Y-119064910D01*
X114344041Y-119298280D01*
X114299161Y-119485220D01*
X114285074Y-119543898D01*
X114265255Y-119795718D01*
X114285074Y-120047538D01*
X114297503Y-120099307D01*
X114344041Y-120293155D01*
X114439413Y-120523402D01*
X114440707Y-120526527D01*
X114572689Y-120741902D01*
X114736738Y-120933980D01*
X114928816Y-121098029D01*
X115144191Y-121230011D01*
X115377561Y-121326676D01*
X115623180Y-121385644D01*
X115712826Y-121392699D01*
X115779165Y-121417983D01*
X115821305Y-121475121D01*
X115825864Y-121545971D01*
X115792033Y-121607405D01*
X115273211Y-122126227D01*
X115260465Y-122136440D01*
X115260625Y-122136633D01*
X115254521Y-122141682D01*
X115204654Y-122194785D01*
X115182671Y-122216768D01*
X115178127Y-122222625D01*
X115174278Y-122227131D01*
X115140629Y-122262965D01*
X115140627Y-122262967D01*
X115130291Y-122281767D01*
X115119443Y-122298280D01*
X115106299Y-122315226D01*
X115106294Y-122315235D01*
X115086772Y-122360347D01*
X115084160Y-122365677D01*
X115060477Y-122408760D01*
X115060473Y-122408770D01*
X115055141Y-122429536D01*
X115048739Y-122448236D01*
X115040220Y-122467920D01*
X115040219Y-122467924D01*
X115032528Y-122516484D01*
X115031324Y-122522297D01*
X115019099Y-122569910D01*
X115019100Y-122591358D01*
X115017549Y-122611067D01*
X115014194Y-122632250D01*
X115014194Y-122632252D01*
X115018820Y-122681194D01*
X115019100Y-122687127D01*
X115019100Y-142465289D01*
X115017308Y-142481521D01*
X115017558Y-142481545D01*
X115016811Y-142489437D01*
X115019099Y-142562242D01*
X115019099Y-142593330D01*
X115020027Y-142600677D01*
X115020493Y-142606591D01*
X115022037Y-142655729D01*
X115022038Y-142655732D01*
X115028021Y-142676329D01*
X115032028Y-142695680D01*
X115034717Y-142716960D01*
X115034717Y-142716962D01*
X115052816Y-142762678D01*
X115054739Y-142768294D01*
X115068453Y-142815497D01*
X115068453Y-142815498D01*
X115079371Y-142833958D01*
X115088068Y-142851711D01*
X115095964Y-142871655D01*
X115095967Y-142871660D01*
X115113952Y-142896413D01*
X115124865Y-142911432D01*
X115128121Y-142916390D01*
X115152503Y-142957619D01*
X115153147Y-142958707D01*
X115168314Y-142973874D01*
X115181152Y-142988905D01*
X115193758Y-143006256D01*
X115231639Y-143037594D01*
X115236020Y-143041580D01*
X115801698Y-143607258D01*
X116315047Y-144120607D01*
X116349073Y-144182919D01*
X116344008Y-144253734D01*
X116327257Y-144284624D01*
X116271940Y-144359418D01*
X116167869Y-144565834D01*
X116100179Y-144786864D01*
X116095937Y-144820000D01*
X117156102Y-144820000D01*
X117120981Y-144874649D01*
X117082500Y-145005705D01*
X117082500Y-145142295D01*
X117120981Y-145273351D01*
X117156102Y-145328000D01*
X116098061Y-145328000D01*
X116129331Y-145473093D01*
X116215522Y-145687587D01*
X116336727Y-145884435D01*
X116489451Y-146057961D01*
X116489450Y-146057961D01*
X116516974Y-146080184D01*
X116557410Y-146138541D01*
X116559877Y-146209494D01*
X116523591Y-146270518D01*
X116503967Y-146285458D01*
X116358853Y-146374966D01*
X116358841Y-146374975D01*
X116233475Y-146500341D01*
X116233470Y-146500347D01*
X116140385Y-146651262D01*
X116084613Y-146819572D01*
X116084612Y-146819579D01*
X116074000Y-146923446D01*
X116074000Y-148224544D01*
X116084612Y-148328425D01*
X116140385Y-148496738D01*
X116233470Y-148647652D01*
X116233475Y-148647658D01*
X116358841Y-148773024D01*
X116358847Y-148773029D01*
X116358848Y-148773030D01*
X116509762Y-148866115D01*
X116678074Y-148921887D01*
X116781955Y-148932500D01*
X118333044Y-148932499D01*
X118436926Y-148921887D01*
X118605238Y-148866115D01*
X118756152Y-148773030D01*
X118881530Y-148647652D01*
X118957669Y-148524210D01*
X119010454Y-148476734D01*
X119080529Y-148465331D01*
X119145644Y-148493623D01*
X119154004Y-148501264D01*
X122158625Y-151505885D01*
X122168838Y-151518631D01*
X122169031Y-151518472D01*
X122174083Y-151524579D01*
X122174084Y-151524580D01*
X122227185Y-151574445D01*
X122249167Y-151596427D01*
X122249175Y-151596433D01*
X122255017Y-151600965D01*
X122259533Y-151604822D01*
X122295367Y-151638472D01*
X122314169Y-151648808D01*
X122330675Y-151659651D01*
X122347632Y-151672804D01*
X122392769Y-151692337D01*
X122398069Y-151694933D01*
X122441163Y-151718624D01*
X122455450Y-151722292D01*
X122461929Y-151723956D01*
X122480632Y-151730359D01*
X122485386Y-151732416D01*
X122500323Y-151738880D01*
X122548899Y-151746573D01*
X122554691Y-151747773D01*
X122573422Y-151752582D01*
X122602311Y-151760000D01*
X122602312Y-151760000D01*
X122623758Y-151760000D01*
X122643467Y-151761551D01*
X122648007Y-151762269D01*
X122664652Y-151764906D01*
X122702380Y-151761339D01*
X122713594Y-151760280D01*
X122719527Y-151760000D01*
X127449389Y-151760000D01*
X127465620Y-151761791D01*
X127465644Y-151761542D01*
X127473536Y-151762288D01*
X127473536Y-151762287D01*
X127473537Y-151762288D01*
X127546342Y-151760000D01*
X127577432Y-151760000D01*
X127584779Y-151759071D01*
X127590682Y-151758606D01*
X127639831Y-151757062D01*
X127660421Y-151751079D01*
X127679776Y-151747071D01*
X127701064Y-151744382D01*
X127746796Y-151726275D01*
X127752380Y-151724363D01*
X127799600Y-151710645D01*
X127818050Y-151699732D01*
X127835813Y-151691030D01*
X127855756Y-151683135D01*
X127895537Y-151654230D01*
X127900487Y-151650980D01*
X127921637Y-151638472D01*
X127942807Y-151625953D01*
X127957977Y-151610781D01*
X127973005Y-151597947D01*
X127990357Y-151585341D01*
X128021703Y-151547449D01*
X128025671Y-151543087D01*
X130273847Y-149294910D01*
X130336157Y-149260887D01*
X130406972Y-149265951D01*
X130463808Y-149308498D01*
X130484448Y-149353891D01*
X130484574Y-149353850D01*
X130484960Y-149355017D01*
X130486147Y-149357626D01*
X130486734Y-149360370D01*
X130541591Y-149525920D01*
X130633142Y-149674346D01*
X130633147Y-149674352D01*
X130756447Y-149797652D01*
X130756453Y-149797657D01*
X130756454Y-149797658D01*
X130904880Y-149889209D01*
X131070419Y-149944062D01*
X131172587Y-149954500D01*
X131772012Y-149954499D01*
X131784144Y-149953259D01*
X131853944Y-149966230D01*
X131886051Y-149989511D01*
X133945525Y-152048985D01*
X133955738Y-152061731D01*
X133955931Y-152061572D01*
X133960983Y-152067679D01*
X133960984Y-152067680D01*
X134014085Y-152117545D01*
X134036067Y-152139527D01*
X134036075Y-152139533D01*
X134041917Y-152144065D01*
X134046433Y-152147922D01*
X134082267Y-152181572D01*
X134101069Y-152191908D01*
X134117575Y-152202751D01*
X134134532Y-152215904D01*
X134179654Y-152235429D01*
X134184980Y-152238039D01*
X134228059Y-152261723D01*
X134228063Y-152261724D01*
X134248832Y-152267056D01*
X134267534Y-152273459D01*
X134287224Y-152281980D01*
X134335795Y-152289672D01*
X134341589Y-152290871D01*
X134389212Y-152303100D01*
X134410659Y-152303100D01*
X134430367Y-152304650D01*
X134451552Y-152308006D01*
X134489280Y-152304439D01*
X134500494Y-152303380D01*
X134506427Y-152303100D01*
X137573800Y-152303100D01*
X137641921Y-152323102D01*
X137688414Y-152376758D01*
X137699800Y-152429100D01*
X137699800Y-153257989D01*
X137698008Y-153274220D01*
X137698258Y-153274244D01*
X137697511Y-153282136D01*
X137699800Y-153354941D01*
X137699800Y-153386030D01*
X137700727Y-153393376D01*
X137701193Y-153399290D01*
X137702737Y-153448429D01*
X137702738Y-153448432D01*
X137708721Y-153469029D01*
X137712728Y-153488380D01*
X137715417Y-153509660D01*
X137715417Y-153509662D01*
X137733516Y-153555378D01*
X137735439Y-153560994D01*
X137749153Y-153608197D01*
X137749153Y-153608198D01*
X137760071Y-153626658D01*
X137768768Y-153644411D01*
X137776664Y-153664355D01*
X137776667Y-153664360D01*
X137791936Y-153685374D01*
X137805565Y-153704132D01*
X137808821Y-153709090D01*
X137815026Y-153719583D01*
X137833847Y-153751407D01*
X137849014Y-153766574D01*
X137861852Y-153781605D01*
X137874458Y-153798956D01*
X137912339Y-153830294D01*
X137916720Y-153834280D01*
X139192228Y-155109788D01*
X140373759Y-156291319D01*
X140407785Y-156353631D01*
X140402720Y-156424446D01*
X140360173Y-156481282D01*
X140293653Y-156506093D01*
X140284633Y-156506414D01*
X112126469Y-156499548D01*
X112058353Y-156479529D01*
X112011874Y-156425862D01*
X112000500Y-156373548D01*
X112000500Y-152650000D01*
X114265255Y-152650000D01*
X114284820Y-152898599D01*
X114285074Y-152901819D01*
X114344041Y-153147437D01*
X114429993Y-153354942D01*
X114440707Y-153380809D01*
X114572689Y-153596184D01*
X114736738Y-153788262D01*
X114928816Y-153952311D01*
X115144191Y-154084293D01*
X115377561Y-154180958D01*
X115623180Y-154239926D01*
X115875000Y-154259745D01*
X116126820Y-154239926D01*
X116372439Y-154180958D01*
X116605809Y-154084293D01*
X116701582Y-154025603D01*
X119429187Y-154025603D01*
X119448657Y-154223294D01*
X119448658Y-154223300D01*
X119448659Y-154223301D01*
X119506326Y-154413404D01*
X119599972Y-154588604D01*
X119725999Y-154742168D01*
X119879563Y-154868195D01*
X120054763Y-154961841D01*
X120244866Y-155019508D01*
X120244870Y-155019508D01*
X120244872Y-155019509D01*
X120442564Y-155038980D01*
X120442567Y-155038980D01*
X120442570Y-155038980D01*
X120640261Y-155019509D01*
X120640262Y-155019508D01*
X120640268Y-155019508D01*
X120830371Y-154961841D01*
X121005571Y-154868195D01*
X121159135Y-154742168D01*
X121285162Y-154588604D01*
X121378808Y-154413404D01*
X121416310Y-154289775D01*
X121455223Y-154230398D01*
X121520064Y-154201482D01*
X121590245Y-154212212D01*
X121643484Y-154259181D01*
X121657458Y-154289778D01*
X121694959Y-154413405D01*
X121775369Y-154563841D01*
X121788605Y-154588604D01*
X121914632Y-154742168D01*
X122068196Y-154868195D01*
X122243396Y-154961841D01*
X122433499Y-155019508D01*
X122433503Y-155019508D01*
X122433505Y-155019509D01*
X122631197Y-155038980D01*
X122631200Y-155038980D01*
X122631203Y-155038980D01*
X122828894Y-155019509D01*
X122828895Y-155019508D01*
X122828901Y-155019508D01*
X123019004Y-154961841D01*
X123194204Y-154868195D01*
X123347768Y-154742168D01*
X123473795Y-154588604D01*
X123567441Y-154413404D01*
X123604943Y-154289775D01*
X123643856Y-154230398D01*
X123708697Y-154201482D01*
X123778878Y-154212212D01*
X123832117Y-154259181D01*
X123846091Y-154289778D01*
X123883592Y-154413405D01*
X123964002Y-154563841D01*
X123977238Y-154588604D01*
X124103265Y-154742168D01*
X124256829Y-154868195D01*
X124432029Y-154961841D01*
X124622132Y-155019508D01*
X124622136Y-155019508D01*
X124622138Y-155019509D01*
X124819830Y-155038980D01*
X124819833Y-155038980D01*
X124819836Y-155038980D01*
X125017527Y-155019509D01*
X125017528Y-155019508D01*
X125017534Y-155019508D01*
X125207637Y-154961841D01*
X125382837Y-154868195D01*
X125536401Y-154742168D01*
X125662428Y-154588604D01*
X125756074Y-154413404D01*
X125793576Y-154289775D01*
X125832489Y-154230398D01*
X125897330Y-154201482D01*
X125967511Y-154212212D01*
X126020750Y-154259181D01*
X126034724Y-154289778D01*
X126072225Y-154413405D01*
X126152635Y-154563841D01*
X126165871Y-154588604D01*
X126291898Y-154742168D01*
X126445462Y-154868195D01*
X126620662Y-154961841D01*
X126810765Y-155019508D01*
X126810769Y-155019508D01*
X126810771Y-155019509D01*
X127008463Y-155038980D01*
X127008466Y-155038980D01*
X127008469Y-155038980D01*
X127206160Y-155019509D01*
X127206161Y-155019508D01*
X127206167Y-155019508D01*
X127396270Y-154961841D01*
X127571470Y-154868195D01*
X127725034Y-154742168D01*
X127851061Y-154588604D01*
X127944707Y-154413404D01*
X127982209Y-154289775D01*
X128021122Y-154230398D01*
X128085963Y-154201482D01*
X128156144Y-154212212D01*
X128209383Y-154259181D01*
X128223357Y-154289778D01*
X128260858Y-154413405D01*
X128341268Y-154563841D01*
X128354504Y-154588604D01*
X128480531Y-154742168D01*
X128634095Y-154868195D01*
X128809295Y-154961841D01*
X128999398Y-155019508D01*
X128999402Y-155019508D01*
X128999404Y-155019509D01*
X129197096Y-155038980D01*
X129197099Y-155038980D01*
X129197102Y-155038980D01*
X129394793Y-155019509D01*
X129394794Y-155019508D01*
X129394800Y-155019508D01*
X129584903Y-154961841D01*
X129760103Y-154868195D01*
X129913667Y-154742168D01*
X130039694Y-154588604D01*
X130133340Y-154413404D01*
X130170842Y-154289775D01*
X130209755Y-154230398D01*
X130274596Y-154201482D01*
X130344777Y-154212212D01*
X130398016Y-154259181D01*
X130411990Y-154289778D01*
X130449491Y-154413405D01*
X130529901Y-154563841D01*
X130543137Y-154588604D01*
X130669164Y-154742168D01*
X130822728Y-154868195D01*
X130997928Y-154961841D01*
X131188031Y-155019508D01*
X131188035Y-155019508D01*
X131188037Y-155019509D01*
X131385729Y-155038980D01*
X131385732Y-155038980D01*
X131385735Y-155038980D01*
X131583426Y-155019509D01*
X131583427Y-155019508D01*
X131583433Y-155019508D01*
X131773536Y-154961841D01*
X131948736Y-154868195D01*
X132102300Y-154742168D01*
X132228327Y-154588604D01*
X132321973Y-154413404D01*
X132359475Y-154289772D01*
X132398389Y-154230395D01*
X132463230Y-154201479D01*
X132533411Y-154212209D01*
X132586650Y-154259178D01*
X132600624Y-154289775D01*
X132638126Y-154413405D01*
X132718536Y-154563841D01*
X132731772Y-154588604D01*
X132857799Y-154742168D01*
X133011363Y-154868195D01*
X133186563Y-154961841D01*
X133376666Y-155019508D01*
X133376670Y-155019508D01*
X133376672Y-155019509D01*
X133574364Y-155038980D01*
X133574367Y-155038980D01*
X133574370Y-155038980D01*
X133772061Y-155019509D01*
X133772062Y-155019508D01*
X133772068Y-155019508D01*
X133962171Y-154961841D01*
X134137371Y-154868195D01*
X134290935Y-154742168D01*
X134416962Y-154588604D01*
X134510608Y-154413404D01*
X134568275Y-154223301D01*
X134569368Y-154212209D01*
X134587747Y-154025603D01*
X134587747Y-154025596D01*
X134568276Y-153827905D01*
X134568275Y-153827903D01*
X134568275Y-153827899D01*
X134510608Y-153637796D01*
X134416962Y-153462596D01*
X134290935Y-153309032D01*
X134137371Y-153183005D01*
X133962171Y-153089359D01*
X133772068Y-153031692D01*
X133772067Y-153031691D01*
X133772061Y-153031690D01*
X133574370Y-153012220D01*
X133574364Y-153012220D01*
X133376672Y-153031690D01*
X133186562Y-153089359D01*
X133011362Y-153183005D01*
X132857799Y-153309032D01*
X132731772Y-153462595D01*
X132638125Y-153637796D01*
X132638123Y-153637801D01*
X132600623Y-153761424D01*
X132561708Y-153820805D01*
X132496867Y-153849721D01*
X132426686Y-153838990D01*
X132373447Y-153792020D01*
X132359476Y-153761427D01*
X132321973Y-153637796D01*
X132228327Y-153462596D01*
X132102300Y-153309032D01*
X131948736Y-153183005D01*
X131773536Y-153089359D01*
X131583433Y-153031692D01*
X131583432Y-153031691D01*
X131583426Y-153031690D01*
X131385735Y-153012220D01*
X131385729Y-153012220D01*
X131188037Y-153031690D01*
X130997927Y-153089359D01*
X130822727Y-153183005D01*
X130669164Y-153309032D01*
X130543137Y-153462595D01*
X130449490Y-153637796D01*
X130449488Y-153637800D01*
X130411989Y-153761421D01*
X130373074Y-153820802D01*
X130308233Y-153849718D01*
X130238052Y-153838987D01*
X130184813Y-153792017D01*
X130170842Y-153761424D01*
X130133340Y-153637796D01*
X130039694Y-153462596D01*
X129913667Y-153309032D01*
X129760103Y-153183005D01*
X129584903Y-153089359D01*
X129394800Y-153031692D01*
X129394799Y-153031691D01*
X129394793Y-153031690D01*
X129197102Y-153012220D01*
X129197096Y-153012220D01*
X128999404Y-153031690D01*
X128809294Y-153089359D01*
X128634094Y-153183005D01*
X128480531Y-153309032D01*
X128354504Y-153462595D01*
X128260857Y-153637796D01*
X128260855Y-153637800D01*
X128223356Y-153761421D01*
X128184441Y-153820802D01*
X128119600Y-153849718D01*
X128049419Y-153838987D01*
X127996180Y-153792017D01*
X127982209Y-153761424D01*
X127944707Y-153637796D01*
X127851061Y-153462596D01*
X127725034Y-153309032D01*
X127571470Y-153183005D01*
X127396270Y-153089359D01*
X127206167Y-153031692D01*
X127206166Y-153031691D01*
X127206160Y-153031690D01*
X127008469Y-153012220D01*
X127008463Y-153012220D01*
X126810771Y-153031690D01*
X126620661Y-153089359D01*
X126445461Y-153183005D01*
X126291898Y-153309032D01*
X126165871Y-153462595D01*
X126072224Y-153637796D01*
X126072222Y-153637800D01*
X126034723Y-153761421D01*
X125995808Y-153820802D01*
X125930967Y-153849718D01*
X125860786Y-153838987D01*
X125807547Y-153792017D01*
X125793576Y-153761424D01*
X125756074Y-153637796D01*
X125662428Y-153462596D01*
X125536401Y-153309032D01*
X125382837Y-153183005D01*
X125207637Y-153089359D01*
X125017534Y-153031692D01*
X125017533Y-153031691D01*
X125017527Y-153031690D01*
X124819836Y-153012220D01*
X124819830Y-153012220D01*
X124622138Y-153031690D01*
X124432028Y-153089359D01*
X124256828Y-153183005D01*
X124103265Y-153309032D01*
X123977238Y-153462595D01*
X123883591Y-153637796D01*
X123883589Y-153637800D01*
X123846090Y-153761421D01*
X123807175Y-153820802D01*
X123742334Y-153849718D01*
X123672153Y-153838987D01*
X123618914Y-153792017D01*
X123604943Y-153761424D01*
X123567441Y-153637796D01*
X123473795Y-153462596D01*
X123347768Y-153309032D01*
X123194204Y-153183005D01*
X123019004Y-153089359D01*
X122828901Y-153031692D01*
X122828900Y-153031691D01*
X122828894Y-153031690D01*
X122631203Y-153012220D01*
X122631197Y-153012220D01*
X122433505Y-153031690D01*
X122243395Y-153089359D01*
X122068195Y-153183005D01*
X121914632Y-153309032D01*
X121788605Y-153462595D01*
X121694958Y-153637796D01*
X121694956Y-153637800D01*
X121657457Y-153761421D01*
X121618542Y-153820802D01*
X121553701Y-153849718D01*
X121483520Y-153838987D01*
X121430281Y-153792017D01*
X121416310Y-153761424D01*
X121378808Y-153637796D01*
X121285162Y-153462596D01*
X121159135Y-153309032D01*
X121005571Y-153183005D01*
X120830371Y-153089359D01*
X120640268Y-153031692D01*
X120640267Y-153031691D01*
X120640261Y-153031690D01*
X120442570Y-153012220D01*
X120442564Y-153012220D01*
X120244872Y-153031690D01*
X120054762Y-153089359D01*
X119879562Y-153183005D01*
X119725999Y-153309032D01*
X119599972Y-153462595D01*
X119506326Y-153637795D01*
X119448657Y-153827905D01*
X119429187Y-154025596D01*
X119429187Y-154025603D01*
X116701582Y-154025603D01*
X116821184Y-153952311D01*
X117013262Y-153788262D01*
X117177311Y-153596184D01*
X117309293Y-153380809D01*
X117405958Y-153147439D01*
X117464926Y-152901820D01*
X117484745Y-152650000D01*
X117464926Y-152398180D01*
X117405958Y-152152561D01*
X117309293Y-151919191D01*
X117177311Y-151703816D01*
X117013262Y-151511738D01*
X116821184Y-151347689D01*
X116605809Y-151215707D01*
X116526008Y-151182652D01*
X116372437Y-151119041D01*
X116167144Y-151069755D01*
X116126820Y-151060074D01*
X115875000Y-151040255D01*
X115623180Y-151060074D01*
X115377562Y-151119041D01*
X115144192Y-151215706D01*
X114928817Y-151347688D01*
X114736738Y-151511738D01*
X114572688Y-151703817D01*
X114440706Y-151919192D01*
X114344041Y-152152562D01*
X114290217Y-152376758D01*
X114285074Y-152398180D01*
X114265255Y-152650000D01*
X112000500Y-152650000D01*
X112000500Y-116009548D01*
X112020502Y-115941427D01*
X112074158Y-115894934D01*
X112126527Y-115883548D01*
X119964279Y-115885459D01*
G37*
%TD.AperFunction*%
%TA.AperFunction,Conductor*%
G36*
X170413612Y-146500847D02*
G01*
X170420192Y-146506972D01*
X170732791Y-146819572D01*
X171026296Y-147113077D01*
X171038268Y-147126931D01*
X171052730Y-147146357D01*
X171093175Y-147180294D01*
X171097221Y-147184002D01*
X171103099Y-147189880D01*
X171129096Y-147210436D01*
X171188560Y-147260332D01*
X171188566Y-147260335D01*
X171194695Y-147264367D01*
X171194657Y-147264423D01*
X171201011Y-147268471D01*
X171201047Y-147268414D01*
X171207289Y-147272264D01*
X171207291Y-147272265D01*
X171207294Y-147272267D01*
X171277647Y-147305073D01*
X171347012Y-147339909D01*
X171347014Y-147339909D01*
X171353913Y-147342421D01*
X171353889Y-147342484D01*
X171361006Y-147344958D01*
X171361028Y-147344894D01*
X171367992Y-147347202D01*
X171444018Y-147362899D01*
X171519543Y-147380800D01*
X171526832Y-147381652D01*
X171526824Y-147381718D01*
X171534322Y-147382484D01*
X171534328Y-147382418D01*
X171541635Y-147383056D01*
X171541642Y-147383058D01*
X171619245Y-147380800D01*
X173420459Y-147380800D01*
X173438719Y-147382130D01*
X173443615Y-147382847D01*
X173462689Y-147385641D01*
X173496046Y-147382722D01*
X173515285Y-147381040D01*
X173520778Y-147380800D01*
X173529076Y-147380800D01*
X173529080Y-147380800D01*
X173555412Y-147377721D01*
X173561996Y-147376952D01*
X173568761Y-147376360D01*
X173639326Y-147370187D01*
X173639332Y-147370184D01*
X173646518Y-147368702D01*
X173646531Y-147368768D01*
X173653887Y-147367136D01*
X173653872Y-147367071D01*
X173661004Y-147365379D01*
X173661013Y-147365379D01*
X173733965Y-147338826D01*
X173807638Y-147314414D01*
X173807640Y-147314412D01*
X173814289Y-147311312D01*
X173814318Y-147311374D01*
X173821103Y-147308089D01*
X173821073Y-147308029D01*
X173827628Y-147304736D01*
X173827632Y-147304735D01*
X173892505Y-147262066D01*
X173958551Y-147221330D01*
X173958560Y-147221320D01*
X173964308Y-147216777D01*
X173964350Y-147216831D01*
X173970189Y-147212075D01*
X173970146Y-147212023D01*
X173975765Y-147207306D01*
X173975774Y-147207301D01*
X174001253Y-147180294D01*
X174029064Y-147150817D01*
X174571877Y-146608004D01*
X174634189Y-146573979D01*
X174660972Y-146571100D01*
X174706650Y-146571100D01*
X174774771Y-146591102D01*
X174821264Y-146644758D01*
X174831368Y-146715032D01*
X174801874Y-146779612D01*
X174795745Y-146786195D01*
X166195845Y-155386095D01*
X166133533Y-155420121D01*
X166106750Y-155423000D01*
X163465143Y-155423000D01*
X163397022Y-155402998D01*
X163350529Y-155349342D01*
X163340425Y-155279068D01*
X163369919Y-155214488D01*
X163398996Y-155189759D01*
X163467939Y-155147234D01*
X163467945Y-155147229D01*
X163593229Y-155021945D01*
X163593234Y-155021939D01*
X163686257Y-154871125D01*
X163741993Y-154702921D01*
X163741994Y-154702918D01*
X163752599Y-154599116D01*
X163752600Y-154599116D01*
X163752600Y-154152600D01*
X160236600Y-154152600D01*
X160236600Y-154599116D01*
X160247205Y-154702918D01*
X160247206Y-154702921D01*
X160302942Y-154871125D01*
X160395965Y-155021939D01*
X160395970Y-155021945D01*
X160521254Y-155147229D01*
X160521260Y-155147234D01*
X160590204Y-155189759D01*
X160637682Y-155242545D01*
X160649085Y-155312620D01*
X160620793Y-155377735D01*
X160561787Y-155417218D01*
X160524057Y-155423000D01*
X159466097Y-155423000D01*
X159397976Y-155402998D01*
X159351483Y-155349342D01*
X159341379Y-155279068D01*
X159370873Y-155214488D01*
X159399950Y-155189759D01*
X159468252Y-155147630D01*
X159593630Y-155022252D01*
X159686715Y-154871338D01*
X159742487Y-154703026D01*
X159753100Y-154599145D01*
X159753099Y-153644600D01*
X160236600Y-153644600D01*
X161740600Y-153644600D01*
X161740600Y-152490600D01*
X162248600Y-152490600D01*
X162248600Y-153644600D01*
X163752600Y-153644600D01*
X163752600Y-153198083D01*
X163741994Y-153094281D01*
X163741993Y-153094278D01*
X163686257Y-152926074D01*
X163593234Y-152775260D01*
X163593229Y-152775254D01*
X163467945Y-152649970D01*
X163467939Y-152649965D01*
X163317125Y-152556942D01*
X163148921Y-152501206D01*
X163148918Y-152501205D01*
X163045116Y-152490600D01*
X162248600Y-152490600D01*
X161740600Y-152490600D01*
X160944083Y-152490600D01*
X160840281Y-152501205D01*
X160840278Y-152501206D01*
X160672074Y-152556942D01*
X160521260Y-152649965D01*
X160521254Y-152649970D01*
X160395970Y-152775254D01*
X160395965Y-152775260D01*
X160302942Y-152926074D01*
X160247206Y-153094278D01*
X160247205Y-153094281D01*
X160236600Y-153198083D01*
X160236600Y-153644600D01*
X159753099Y-153644600D01*
X159753099Y-153198056D01*
X159751561Y-153183005D01*
X159742487Y-153094174D01*
X159735086Y-153071840D01*
X159686715Y-152925862D01*
X159593630Y-152774948D01*
X159593629Y-152774947D01*
X159593624Y-152774941D01*
X159468258Y-152649575D01*
X159468252Y-152649570D01*
X159460094Y-152644538D01*
X159317338Y-152556485D01*
X159233182Y-152528598D01*
X159149027Y-152500713D01*
X159149020Y-152500712D01*
X159045153Y-152490100D01*
X156944055Y-152490100D01*
X156840174Y-152500712D01*
X156671861Y-152556485D01*
X156520947Y-152649570D01*
X156520941Y-152649575D01*
X156395575Y-152774941D01*
X156395570Y-152774947D01*
X156302485Y-152925862D01*
X156246713Y-153094172D01*
X156246712Y-153094179D01*
X156236100Y-153198046D01*
X156236100Y-154599144D01*
X156241759Y-154654532D01*
X156228783Y-154724333D01*
X156205507Y-154756432D01*
X156096045Y-154865895D01*
X156033733Y-154899920D01*
X156006949Y-154902800D01*
X154981000Y-154902800D01*
X154912879Y-154882798D01*
X154866386Y-154829142D01*
X154855000Y-154776800D01*
X154855000Y-153035000D01*
X153669000Y-153035000D01*
X153600879Y-153014998D01*
X153554386Y-152961342D01*
X153543000Y-152909000D01*
X153543000Y-152653000D01*
X153563002Y-152584879D01*
X153616658Y-152538386D01*
X153669000Y-152527000D01*
X154855000Y-152527000D01*
X154855000Y-150809100D01*
X154875002Y-150740979D01*
X154928658Y-150694486D01*
X154981000Y-150683100D01*
X161518259Y-150683100D01*
X161536519Y-150684430D01*
X161541415Y-150685147D01*
X161560489Y-150687941D01*
X161593846Y-150685022D01*
X161613085Y-150683340D01*
X161618578Y-150683100D01*
X161626876Y-150683100D01*
X161626880Y-150683100D01*
X161653212Y-150680021D01*
X161659796Y-150679252D01*
X161666560Y-150678660D01*
X161737126Y-150672487D01*
X161737132Y-150672484D01*
X161744318Y-150671002D01*
X161744331Y-150671068D01*
X161751687Y-150669436D01*
X161751672Y-150669371D01*
X161758804Y-150667679D01*
X161758813Y-150667679D01*
X161831765Y-150641126D01*
X161905438Y-150616714D01*
X161905440Y-150616712D01*
X161912089Y-150613612D01*
X161912118Y-150613674D01*
X161918903Y-150610389D01*
X161918873Y-150610329D01*
X161925428Y-150607036D01*
X161925432Y-150607035D01*
X161990305Y-150564366D01*
X162056351Y-150523630D01*
X162056360Y-150523620D01*
X162062108Y-150519077D01*
X162062150Y-150519131D01*
X162067989Y-150514375D01*
X162067946Y-150514323D01*
X162073565Y-150509606D01*
X162073574Y-150509601D01*
X162126863Y-150453117D01*
X164096594Y-148483386D01*
X166073005Y-146506976D01*
X166135317Y-146472950D01*
X166206132Y-146478015D01*
X166262968Y-146520562D01*
X166287779Y-146587082D01*
X166288100Y-146596071D01*
X166288100Y-148011249D01*
X166294609Y-148071796D01*
X166294611Y-148071804D01*
X166345710Y-148208802D01*
X166345712Y-148208807D01*
X166433338Y-148325861D01*
X166550392Y-148413487D01*
X166550394Y-148413488D01*
X166550396Y-148413489D01*
X166609475Y-148435524D01*
X166687395Y-148464588D01*
X166687403Y-148464590D01*
X166747950Y-148471099D01*
X166747955Y-148471099D01*
X166747962Y-148471100D01*
X166747968Y-148471100D01*
X169745232Y-148471100D01*
X169745238Y-148471100D01*
X169745245Y-148471099D01*
X169745249Y-148471099D01*
X169805796Y-148464590D01*
X169805799Y-148464589D01*
X169805801Y-148464589D01*
X169942804Y-148413489D01*
X169956115Y-148403525D01*
X170059861Y-148325861D01*
X170147487Y-148208807D01*
X170147487Y-148208806D01*
X170147489Y-148208804D01*
X170198589Y-148071801D01*
X170202246Y-148037791D01*
X170205099Y-148011249D01*
X170205100Y-148011232D01*
X170205100Y-146596071D01*
X170225102Y-146527950D01*
X170278758Y-146481457D01*
X170349032Y-146471353D01*
X170413612Y-146500847D01*
G37*
%TD.AperFunction*%
%TA.AperFunction,Conductor*%
G36*
X139760096Y-151278230D02*
G01*
X139816932Y-151320777D01*
X139841585Y-151385304D01*
X139854751Y-151535802D01*
X139913986Y-151756868D01*
X139913988Y-151756873D01*
X140010713Y-151964301D01*
X140060698Y-152035688D01*
X140060700Y-152035688D01*
X140749072Y-151347316D01*
X140762635Y-151432948D01*
X140820159Y-151545845D01*
X140909755Y-151635441D01*
X141022652Y-151692965D01*
X141108282Y-151706527D01*
X140408229Y-152406579D01*
X140403090Y-152432150D01*
X140353691Y-152483142D01*
X140302431Y-152498142D01*
X140302517Y-152498939D01*
X140238603Y-152505809D01*
X140238595Y-152505811D01*
X140101597Y-152556910D01*
X140101592Y-152556912D01*
X139984538Y-152644538D01*
X139896912Y-152761592D01*
X139896910Y-152761597D01*
X139845811Y-152898595D01*
X139845809Y-152898603D01*
X139839300Y-152959150D01*
X139839300Y-153590150D01*
X139819298Y-153658271D01*
X139765642Y-153704764D01*
X139695368Y-153714868D01*
X139630788Y-153685374D01*
X139624205Y-153679245D01*
X139053705Y-153108745D01*
X139019679Y-153046433D01*
X139016800Y-153019650D01*
X139016800Y-151969550D01*
X139036802Y-151901429D01*
X139053705Y-151880455D01*
X139626969Y-151307191D01*
X139689281Y-151273165D01*
X139760096Y-151278230D01*
G37*
%TD.AperFunction*%
%TA.AperFunction,Conductor*%
G36*
X175507707Y-119563168D02*
G01*
X175565850Y-119603911D01*
X175592735Y-119669620D01*
X175593400Y-119682547D01*
X175593400Y-134610453D01*
X175573398Y-134678574D01*
X175519742Y-134725067D01*
X175449468Y-134735171D01*
X175423368Y-134728509D01*
X175403800Y-134721210D01*
X175403796Y-134721209D01*
X175343249Y-134714700D01*
X175343238Y-134714700D01*
X174345962Y-134714700D01*
X174345950Y-134714700D01*
X174285403Y-134721209D01*
X174285395Y-134721211D01*
X174148397Y-134772310D01*
X174148392Y-134772312D01*
X174031338Y-134859938D01*
X173943712Y-134976992D01*
X173943710Y-134976997D01*
X173892611Y-135113995D01*
X173892609Y-135114003D01*
X173886100Y-135174550D01*
X173886100Y-137271849D01*
X173892609Y-137332396D01*
X173892611Y-137332404D01*
X173943710Y-137469402D01*
X173943710Y-137469403D01*
X173943711Y-137469404D01*
X174031339Y-137586461D01*
X174035605Y-137589654D01*
X174078154Y-137646487D01*
X174086100Y-137690525D01*
X174086100Y-143874880D01*
X174066098Y-143943001D01*
X174012442Y-143989494D01*
X174004134Y-143992935D01*
X173953797Y-144011710D01*
X173836738Y-144099338D01*
X173749112Y-144216392D01*
X173749110Y-144216397D01*
X173698011Y-144353395D01*
X173698009Y-144353403D01*
X173691139Y-144417317D01*
X173690103Y-144417205D01*
X173667912Y-144480074D01*
X173611837Y-144523618D01*
X173595880Y-144525927D01*
X172898726Y-145223080D01*
X172885165Y-145137452D01*
X172827641Y-145024555D01*
X172738045Y-144934959D01*
X172625148Y-144877435D01*
X172539517Y-144863872D01*
X173227888Y-144175499D01*
X173227888Y-144175498D01*
X173156501Y-144125513D01*
X172949073Y-144028788D01*
X172949068Y-144028786D01*
X172728000Y-143969551D01*
X172728004Y-143969551D01*
X172500000Y-143949604D01*
X172271997Y-143969551D01*
X172050931Y-144028786D01*
X172050926Y-144028788D01*
X171843500Y-144125513D01*
X171772109Y-144175500D01*
X172460481Y-144863872D01*
X172374852Y-144877435D01*
X172261955Y-144934959D01*
X172172359Y-145024555D01*
X172114835Y-145137452D01*
X172101272Y-145223082D01*
X171412900Y-144534709D01*
X171362913Y-144606100D01*
X171266188Y-144813526D01*
X171266186Y-144813531D01*
X171239393Y-144913526D01*
X171202441Y-144974149D01*
X171138581Y-145005170D01*
X171068086Y-144996742D01*
X171028591Y-144970010D01*
X170830408Y-144771827D01*
X170818436Y-144757975D01*
X170803969Y-144738542D01*
X170798654Y-144734082D01*
X170763524Y-144704603D01*
X170759470Y-144700889D01*
X170753607Y-144695025D01*
X170727604Y-144674464D01*
X170722636Y-144670295D01*
X170668140Y-144624568D01*
X170668138Y-144624567D01*
X170668136Y-144624565D01*
X170662006Y-144620533D01*
X170662041Y-144620478D01*
X170655687Y-144616429D01*
X170655653Y-144616486D01*
X170649406Y-144612633D01*
X170579040Y-144579820D01*
X170573054Y-144576814D01*
X170509688Y-144544991D01*
X170509686Y-144544990D01*
X170509683Y-144544989D01*
X170502789Y-144542480D01*
X170502811Y-144542417D01*
X170495689Y-144539941D01*
X170495669Y-144540004D01*
X170488709Y-144537697D01*
X170412650Y-144521992D01*
X170337152Y-144504099D01*
X170329867Y-144503248D01*
X170329874Y-144503180D01*
X170322371Y-144502414D01*
X170322366Y-144502480D01*
X170320115Y-144502283D01*
X170319771Y-144502148D01*
X170313392Y-144501497D01*
X170307871Y-144500357D01*
X170308418Y-144497707D01*
X170253997Y-144476418D01*
X170212359Y-144418914D01*
X170205100Y-144376763D01*
X170205100Y-142513967D01*
X170205099Y-142513950D01*
X170198590Y-142453403D01*
X170198588Y-142453395D01*
X170159589Y-142348838D01*
X170147489Y-142316396D01*
X170147488Y-142316394D01*
X170147487Y-142316392D01*
X170059861Y-142199338D01*
X169942807Y-142111712D01*
X169942802Y-142111710D01*
X169805804Y-142060611D01*
X169805796Y-142060609D01*
X169745249Y-142054100D01*
X169745238Y-142054100D01*
X166747962Y-142054100D01*
X166747950Y-142054100D01*
X166687403Y-142060609D01*
X166687395Y-142060611D01*
X166550397Y-142111710D01*
X166550392Y-142111712D01*
X166433338Y-142199338D01*
X166345712Y-142316392D01*
X166345710Y-142316397D01*
X166294611Y-142453395D01*
X166294609Y-142453403D01*
X166288100Y-142513950D01*
X166288100Y-144381732D01*
X166268098Y-144449853D01*
X166214442Y-144496346D01*
X166176734Y-144506879D01*
X166167608Y-144507946D01*
X166090275Y-144514712D01*
X166083089Y-144516196D01*
X166083076Y-144516133D01*
X166075703Y-144517768D01*
X166075718Y-144517831D01*
X166068581Y-144519522D01*
X166018647Y-144537697D01*
X165995634Y-144546073D01*
X165975135Y-144552866D01*
X165921961Y-144570486D01*
X165915312Y-144573587D01*
X165915283Y-144573526D01*
X165908492Y-144576814D01*
X165908522Y-144576873D01*
X165901969Y-144580163D01*
X165837094Y-144622832D01*
X165771051Y-144663568D01*
X165765288Y-144668125D01*
X165765247Y-144668073D01*
X165759404Y-144672833D01*
X165759446Y-144672883D01*
X165753828Y-144677596D01*
X165700536Y-144734082D01*
X161305424Y-149129195D01*
X161243112Y-149163220D01*
X161216329Y-149166100D01*
X158730450Y-149166100D01*
X158662329Y-149146098D01*
X158615836Y-149092442D01*
X158605732Y-149022168D01*
X158635226Y-148957588D01*
X158641354Y-148951005D01*
X158679701Y-148912658D01*
X158750988Y-148841370D01*
X158763729Y-148831165D01*
X158763569Y-148830971D01*
X158769674Y-148825919D01*
X158769680Y-148825916D01*
X158819545Y-148772814D01*
X158841527Y-148750833D01*
X158846070Y-148744975D01*
X158849908Y-148740480D01*
X158883572Y-148704633D01*
X158893910Y-148685827D01*
X158904752Y-148669323D01*
X158917904Y-148652368D01*
X158937432Y-148607237D01*
X158940041Y-148601914D01*
X158963724Y-148558837D01*
X158963725Y-148558832D01*
X158966643Y-148551465D01*
X158969731Y-148552687D01*
X158998254Y-148504765D01*
X159061784Y-148473072D01*
X159083987Y-148471100D01*
X159845232Y-148471100D01*
X159845238Y-148471100D01*
X159845245Y-148471099D01*
X159845249Y-148471099D01*
X159905796Y-148464590D01*
X159905799Y-148464589D01*
X159905801Y-148464589D01*
X160042804Y-148413489D01*
X160056115Y-148403525D01*
X160159861Y-148325861D01*
X160247487Y-148208807D01*
X160247487Y-148208806D01*
X160247489Y-148208804D01*
X160298589Y-148071801D01*
X160302246Y-148037791D01*
X160305099Y-148011249D01*
X160305099Y-148011247D01*
X160305100Y-148011238D01*
X160305100Y-142513962D01*
X160304443Y-142507848D01*
X160298590Y-142453403D01*
X160298588Y-142453395D01*
X160259589Y-142348838D01*
X160247489Y-142316396D01*
X160247488Y-142316394D01*
X160247487Y-142316392D01*
X160159861Y-142199338D01*
X160042807Y-142111712D01*
X160042802Y-142111710D01*
X159905804Y-142060611D01*
X159905796Y-142060609D01*
X159845249Y-142054100D01*
X159845238Y-142054100D01*
X156847962Y-142054100D01*
X156847950Y-142054100D01*
X156787403Y-142060609D01*
X156787395Y-142060611D01*
X156650397Y-142111710D01*
X156650392Y-142111712D01*
X156533338Y-142199338D01*
X156531866Y-142201306D01*
X156529897Y-142202779D01*
X156526966Y-142205711D01*
X156526544Y-142205289D01*
X156475029Y-142243851D01*
X156404213Y-142248914D01*
X156341902Y-142214887D01*
X156307879Y-142152573D01*
X156305000Y-142125794D01*
X156305000Y-141460000D01*
X153426000Y-141460000D01*
X153426000Y-146184000D01*
X153405998Y-146252121D01*
X153352342Y-146298614D01*
X153300000Y-146310000D01*
X147876000Y-146310000D01*
X147876000Y-148839000D01*
X149889649Y-148839000D01*
X149957770Y-148859002D01*
X150004263Y-148912658D01*
X150014367Y-148982932D01*
X149984873Y-149047512D01*
X149978757Y-149054081D01*
X149533534Y-149499305D01*
X149097243Y-149935596D01*
X149034931Y-149969621D01*
X149008148Y-149972500D01*
X148346455Y-149972500D01*
X148242574Y-149983112D01*
X148074261Y-150038885D01*
X148017351Y-150073988D01*
X147923348Y-150131970D01*
X147923347Y-150131970D01*
X147917102Y-150135823D01*
X147916099Y-150134197D01*
X147859305Y-150157107D01*
X147789556Y-150143853D01*
X147776944Y-150135747D01*
X147776898Y-150135823D01*
X147770653Y-150131971D01*
X147770652Y-150131970D01*
X147619738Y-150038885D01*
X147535582Y-150010998D01*
X147451427Y-149983113D01*
X147451420Y-149983112D01*
X147347553Y-149972500D01*
X146646455Y-149972500D01*
X146542574Y-149983112D01*
X146374261Y-150038885D01*
X146223347Y-150131970D01*
X146223341Y-150131975D01*
X146097975Y-150257341D01*
X146097970Y-150257347D01*
X146004885Y-150408262D01*
X145949113Y-150576572D01*
X145949112Y-150576579D01*
X145938500Y-150680446D01*
X145938500Y-151896500D01*
X145918498Y-151964621D01*
X145864842Y-152011114D01*
X145812500Y-152022500D01*
X143590941Y-152022500D01*
X143572681Y-152021170D01*
X143548711Y-152017659D01*
X143496115Y-152022260D01*
X143490622Y-152022500D01*
X143482318Y-152022500D01*
X143460376Y-152025064D01*
X143449405Y-152026347D01*
X143440232Y-152027149D01*
X143372077Y-152033112D01*
X143364886Y-152034597D01*
X143364872Y-152034532D01*
X143357514Y-152036163D01*
X143357530Y-152036228D01*
X143350389Y-152037920D01*
X143277444Y-152064469D01*
X143203760Y-152088885D01*
X143197113Y-152091986D01*
X143197085Y-152091926D01*
X143190298Y-152095212D01*
X143190327Y-152095270D01*
X143183771Y-152098562D01*
X143118895Y-152141232D01*
X143052849Y-152181969D01*
X143047096Y-152186519D01*
X143047055Y-152186467D01*
X143041204Y-152191233D01*
X143041246Y-152191283D01*
X143035628Y-152195996D01*
X142982336Y-152252482D01*
X142533418Y-152701399D01*
X142471106Y-152735424D01*
X142400290Y-152730359D01*
X142343455Y-152687812D01*
X142311061Y-152644538D01*
X142194007Y-152556912D01*
X142194002Y-152556910D01*
X142057004Y-152505811D01*
X142056996Y-152505809D01*
X141993083Y-152498939D01*
X141993194Y-152497903D01*
X141930328Y-152475716D01*
X141886782Y-152419642D01*
X141884472Y-152403681D01*
X141187318Y-151706527D01*
X141272948Y-151692965D01*
X141385845Y-151635441D01*
X141475441Y-151545845D01*
X141532965Y-151432948D01*
X141546527Y-151347318D01*
X142234897Y-152035688D01*
X142234899Y-152035688D01*
X142284888Y-151964297D01*
X142381611Y-151756873D01*
X142381613Y-151756868D01*
X142440848Y-151535802D01*
X142460795Y-151307799D01*
X142440848Y-151079797D01*
X142381613Y-150858731D01*
X142381611Y-150858726D01*
X142284886Y-150651298D01*
X142234900Y-150579910D01*
X142234898Y-150579910D01*
X141546527Y-151268281D01*
X141532965Y-151182652D01*
X141475441Y-151069755D01*
X141385845Y-150980159D01*
X141272948Y-150922635D01*
X141187317Y-150909072D01*
X141875688Y-150220699D01*
X141875688Y-150220698D01*
X141804301Y-150170713D01*
X141596873Y-150073988D01*
X141596868Y-150073986D01*
X141375800Y-150014751D01*
X141375793Y-150014750D01*
X141225302Y-150001583D01*
X141159184Y-149975720D01*
X141117544Y-149918216D01*
X141113604Y-149847329D01*
X141147185Y-149786973D01*
X143939786Y-146994372D01*
X143952529Y-146984165D01*
X143952369Y-146983971D01*
X143958474Y-146978919D01*
X143958480Y-146978916D01*
X144008345Y-146925814D01*
X144030327Y-146903833D01*
X144034870Y-146897975D01*
X144038708Y-146893480D01*
X144072372Y-146857633D01*
X144082710Y-146838827D01*
X144093552Y-146822323D01*
X144106704Y-146805368D01*
X144126232Y-146760237D01*
X144128841Y-146754914D01*
X144148875Y-146718474D01*
X144152523Y-146711839D01*
X144152849Y-146710570D01*
X144157857Y-146691062D01*
X144164256Y-146672369D01*
X144172780Y-146652676D01*
X144180474Y-146604091D01*
X144181671Y-146598310D01*
X144193738Y-146551318D01*
X144193899Y-146550692D01*
X144193900Y-146550686D01*
X144193900Y-146529241D01*
X144195451Y-146509530D01*
X144198806Y-146488348D01*
X144194180Y-146439403D01*
X144193900Y-146433471D01*
X144193900Y-146310000D01*
X144489000Y-146310000D01*
X144489000Y-148131516D01*
X144499605Y-148235318D01*
X144499606Y-148235321D01*
X144555342Y-148403525D01*
X144648365Y-148554339D01*
X144648370Y-148554345D01*
X144773654Y-148679629D01*
X144773660Y-148679634D01*
X144924474Y-148772657D01*
X145092678Y-148828393D01*
X145092681Y-148828394D01*
X145196483Y-148838999D01*
X145196483Y-148839000D01*
X147368000Y-148839000D01*
X147368000Y-146310000D01*
X144489000Y-146310000D01*
X144193900Y-146310000D01*
X144193900Y-146120118D01*
X144213902Y-146051997D01*
X144234258Y-146029549D01*
X144233557Y-146028848D01*
X144362052Y-145900352D01*
X144362058Y-145900346D01*
X144385801Y-145861852D01*
X144438588Y-145814374D01*
X144493042Y-145802000D01*
X147368000Y-145802000D01*
X147368000Y-141460000D01*
X147876000Y-141460000D01*
X147876000Y-145802000D01*
X152918000Y-145802000D01*
X152918000Y-141460000D01*
X147876000Y-141460000D01*
X147368000Y-141460000D01*
X144489000Y-141460000D01*
X144489000Y-142466405D01*
X144468998Y-142534526D01*
X144415342Y-142581019D01*
X144345068Y-142591123D01*
X144280488Y-142561629D01*
X144273905Y-142555500D01*
X144238752Y-142520347D01*
X144238743Y-142520340D01*
X144148652Y-142464770D01*
X144101174Y-142411984D01*
X144088800Y-142357530D01*
X144088800Y-140316271D01*
X144108802Y-140248150D01*
X144125705Y-140227176D01*
X144273905Y-140078976D01*
X144336217Y-140044950D01*
X144407032Y-140050015D01*
X144463868Y-140092562D01*
X144488679Y-140159082D01*
X144489000Y-140168071D01*
X144489000Y-140952000D01*
X156305000Y-140952000D01*
X156305000Y-139231700D01*
X156325002Y-139163579D01*
X156378658Y-139117086D01*
X156431000Y-139105700D01*
X169128059Y-139105700D01*
X169146319Y-139107030D01*
X169151215Y-139107747D01*
X169170289Y-139110541D01*
X169203646Y-139107622D01*
X169222885Y-139105940D01*
X169228378Y-139105700D01*
X169236676Y-139105700D01*
X169236680Y-139105700D01*
X169263012Y-139102621D01*
X169269596Y-139101852D01*
X169276361Y-139101260D01*
X169346926Y-139095087D01*
X169346932Y-139095084D01*
X169354118Y-139093602D01*
X169354131Y-139093668D01*
X169361487Y-139092036D01*
X169361472Y-139091971D01*
X169368604Y-139090279D01*
X169368613Y-139090279D01*
X169441565Y-139063726D01*
X169515238Y-139039314D01*
X169515240Y-139039312D01*
X169521889Y-139036212D01*
X169521918Y-139036274D01*
X169528703Y-139032989D01*
X169528673Y-139032929D01*
X169535228Y-139029636D01*
X169535232Y-139029635D01*
X169600105Y-138986966D01*
X169666151Y-138946230D01*
X169666160Y-138946220D01*
X169671908Y-138941677D01*
X169671950Y-138941731D01*
X169677789Y-138936975D01*
X169677746Y-138936923D01*
X169683365Y-138932206D01*
X169683374Y-138932201D01*
X169736663Y-138875717D01*
X170255384Y-138356995D01*
X170269217Y-138345041D01*
X170288658Y-138330569D01*
X170322601Y-138290115D01*
X170326300Y-138286079D01*
X170332181Y-138280200D01*
X170347379Y-138260978D01*
X170352735Y-138254205D01*
X170375081Y-138227572D01*
X170402632Y-138194740D01*
X170402633Y-138194736D01*
X170402636Y-138194734D01*
X170406670Y-138188602D01*
X170406727Y-138188639D01*
X170410771Y-138182291D01*
X170410712Y-138182255D01*
X170414561Y-138176012D01*
X170414567Y-138176005D01*
X170447375Y-138105647D01*
X170482209Y-138036288D01*
X170482210Y-138036282D01*
X170484719Y-138029391D01*
X170484784Y-138029414D01*
X170487258Y-138022297D01*
X170487194Y-138022276D01*
X170489503Y-138015308D01*
X170505207Y-137939250D01*
X170516249Y-137892660D01*
X170523100Y-137863756D01*
X170523100Y-137863749D01*
X170523952Y-137856468D01*
X170524019Y-137856475D01*
X170524785Y-137848977D01*
X170524719Y-137848972D01*
X170525357Y-137841665D01*
X170525359Y-137841658D01*
X170523100Y-137764020D01*
X170523100Y-137690525D01*
X170543102Y-137622404D01*
X170573593Y-137589655D01*
X170577861Y-137586461D01*
X170665489Y-137469404D01*
X170716589Y-137332401D01*
X170723100Y-137271838D01*
X170723100Y-136477200D01*
X171346600Y-136477200D01*
X171346600Y-137271797D01*
X171353105Y-137332293D01*
X171404155Y-137469164D01*
X171404155Y-137469165D01*
X171491695Y-137586104D01*
X171608634Y-137673644D01*
X171745506Y-137724694D01*
X171806002Y-137731199D01*
X171806015Y-137731200D01*
X172050600Y-137731200D01*
X172050600Y-136477200D01*
X172558600Y-136477200D01*
X172558600Y-137731200D01*
X172803185Y-137731200D01*
X172803197Y-137731199D01*
X172863693Y-137724694D01*
X173000564Y-137673644D01*
X173000565Y-137673644D01*
X173117504Y-137586104D01*
X173205044Y-137469165D01*
X173205044Y-137469164D01*
X173256094Y-137332293D01*
X173262599Y-137271797D01*
X173262600Y-137271785D01*
X173262600Y-136477200D01*
X172558600Y-136477200D01*
X172050600Y-136477200D01*
X171346600Y-136477200D01*
X170723100Y-136477200D01*
X170723100Y-135969200D01*
X171346600Y-135969200D01*
X172050600Y-135969200D01*
X172050600Y-134715200D01*
X172558600Y-134715200D01*
X172558600Y-135969200D01*
X173262600Y-135969200D01*
X173262600Y-135174614D01*
X173262599Y-135174602D01*
X173256094Y-135114106D01*
X173205044Y-134977235D01*
X173205044Y-134977234D01*
X173117504Y-134860295D01*
X173000565Y-134772755D01*
X172863693Y-134721705D01*
X172803197Y-134715200D01*
X172558600Y-134715200D01*
X172050600Y-134715200D01*
X171806002Y-134715200D01*
X171745506Y-134721705D01*
X171608635Y-134772755D01*
X171608634Y-134772755D01*
X171491695Y-134860295D01*
X171404155Y-134977234D01*
X171404155Y-134977235D01*
X171353105Y-135114106D01*
X171346600Y-135174602D01*
X171346600Y-135969200D01*
X170723100Y-135969200D01*
X170723100Y-135174562D01*
X170723099Y-135174550D01*
X170716590Y-135114003D01*
X170716588Y-135113995D01*
X170678745Y-135012536D01*
X170665489Y-134976996D01*
X170665488Y-134976994D01*
X170665487Y-134976992D01*
X170577860Y-134859937D01*
X170573589Y-134856740D01*
X170531043Y-134799904D01*
X170523100Y-134755874D01*
X170523100Y-134735735D01*
X170524431Y-134717472D01*
X170526077Y-134706236D01*
X170527941Y-134693511D01*
X170524813Y-134657757D01*
X170523340Y-134640913D01*
X170523100Y-134635420D01*
X170523100Y-134627124D01*
X170521151Y-134610453D01*
X170519252Y-134594205D01*
X170512487Y-134516873D01*
X170512486Y-134516870D01*
X170512486Y-134516868D01*
X170511003Y-134509687D01*
X170511069Y-134509673D01*
X170509439Y-134502319D01*
X170509373Y-134502335D01*
X170507679Y-134495193D01*
X170507679Y-134495187D01*
X170481130Y-134422244D01*
X170456714Y-134348561D01*
X170456710Y-134348555D01*
X170453614Y-134341915D01*
X170453676Y-134341886D01*
X170450387Y-134335093D01*
X170450327Y-134335124D01*
X170447033Y-134328564D01*
X170404362Y-134263686D01*
X170363631Y-134197652D01*
X170359083Y-134191901D01*
X170359136Y-134191858D01*
X170354365Y-134186001D01*
X170354315Y-134186044D01*
X170349598Y-134180422D01*
X170293100Y-134127120D01*
X159877608Y-123711627D01*
X159865636Y-123697775D01*
X159859987Y-123690187D01*
X159851169Y-123678342D01*
X159838985Y-123668118D01*
X159810724Y-123644403D01*
X159806670Y-123640689D01*
X159800807Y-123634825D01*
X159778007Y-123616797D01*
X159774803Y-123614263D01*
X159715340Y-123564368D01*
X159715338Y-123564367D01*
X159715336Y-123564365D01*
X159709206Y-123560333D01*
X159709241Y-123560278D01*
X159702887Y-123556229D01*
X159702853Y-123556286D01*
X159696606Y-123552433D01*
X159626240Y-123519620D01*
X159626240Y-123519619D01*
X159556888Y-123484791D01*
X159556886Y-123484790D01*
X159556883Y-123484789D01*
X159549989Y-123482280D01*
X159550011Y-123482217D01*
X159542889Y-123479741D01*
X159542869Y-123479804D01*
X159535909Y-123477497D01*
X159459850Y-123461792D01*
X159384352Y-123443899D01*
X159377067Y-123443048D01*
X159377074Y-123442980D01*
X159369577Y-123442214D01*
X159369572Y-123442281D01*
X159362259Y-123441641D01*
X159362258Y-123441641D01*
X159284620Y-123443900D01*
X156958971Y-123443900D01*
X156890850Y-123423898D01*
X156869876Y-123406995D01*
X154943708Y-121480827D01*
X154931736Y-121466975D01*
X154917437Y-121447768D01*
X154917269Y-121447542D01*
X154917267Y-121447540D01*
X154876824Y-121413603D01*
X154872770Y-121409889D01*
X154866907Y-121404025D01*
X154855871Y-121395299D01*
X154840903Y-121383463D01*
X154781440Y-121333568D01*
X154781438Y-121333567D01*
X154781436Y-121333565D01*
X154775306Y-121329533D01*
X154775341Y-121329478D01*
X154768987Y-121325429D01*
X154768953Y-121325486D01*
X154762706Y-121321633D01*
X154692340Y-121288820D01*
X154668045Y-121276619D01*
X154622988Y-121253991D01*
X154622986Y-121253990D01*
X154622983Y-121253989D01*
X154616089Y-121251480D01*
X154616111Y-121251417D01*
X154608989Y-121248941D01*
X154608969Y-121249004D01*
X154602009Y-121246697D01*
X154525950Y-121230992D01*
X154450452Y-121213099D01*
X154443167Y-121212248D01*
X154443174Y-121212180D01*
X154435677Y-121211414D01*
X154435672Y-121211481D01*
X154428359Y-121210841D01*
X154428358Y-121210841D01*
X154350720Y-121213100D01*
X153317294Y-121213100D01*
X153249173Y-121193098D01*
X153228199Y-121176195D01*
X153200199Y-121148195D01*
X153166173Y-121085883D01*
X153171238Y-121015068D01*
X153200197Y-120970006D01*
X153307758Y-120862446D01*
X153307759Y-120862443D01*
X153307762Y-120862441D01*
X153312312Y-120856688D01*
X153313955Y-120857987D01*
X153359001Y-120817473D01*
X153413453Y-120805100D01*
X173810489Y-120805100D01*
X173826720Y-120806891D01*
X173826744Y-120806642D01*
X173834636Y-120807388D01*
X173834636Y-120807387D01*
X173834637Y-120807388D01*
X173907442Y-120805100D01*
X173938532Y-120805100D01*
X173945879Y-120804171D01*
X173951782Y-120803706D01*
X174000931Y-120802162D01*
X174021521Y-120796179D01*
X174040876Y-120792171D01*
X174062164Y-120789482D01*
X174107896Y-120771375D01*
X174113480Y-120769463D01*
X174160700Y-120755745D01*
X174179150Y-120744832D01*
X174196913Y-120736130D01*
X174216856Y-120728235D01*
X174256637Y-120699330D01*
X174261587Y-120696080D01*
X174271275Y-120690350D01*
X174303907Y-120671053D01*
X174319077Y-120655881D01*
X174334105Y-120643047D01*
X174351457Y-120630441D01*
X174382798Y-120592554D01*
X174386776Y-120588182D01*
X175258984Y-119715973D01*
X175271726Y-119705767D01*
X175271566Y-119705574D01*
X175277678Y-119700517D01*
X175277677Y-119700517D01*
X175277680Y-119700516D01*
X175315669Y-119660061D01*
X175327561Y-119647398D01*
X175338542Y-119636416D01*
X175349526Y-119625433D01*
X175354062Y-119619583D01*
X175357897Y-119615092D01*
X175375555Y-119596288D01*
X175436768Y-119560327D01*
X175507707Y-119563168D01*
G37*
%TD.AperFunction*%
%TA.AperFunction,Conductor*%
G36*
X139676332Y-146043915D02*
G01*
X139721395Y-146072876D01*
X139771047Y-146122528D01*
X139790402Y-146147479D01*
X139849393Y-146247226D01*
X139851747Y-146251207D01*
X139852492Y-146252167D01*
X139852841Y-146253057D01*
X139855783Y-146258031D01*
X139854981Y-146258505D01*
X139878443Y-146318251D01*
X139864546Y-146387875D01*
X139852503Y-146406617D01*
X139851746Y-146407591D01*
X139767056Y-146550794D01*
X139720637Y-146710570D01*
X139717700Y-146747894D01*
X139717700Y-147180906D01*
X139720637Y-147218229D01*
X139767056Y-147378005D01*
X139851744Y-147521203D01*
X139851749Y-147521210D01*
X139969389Y-147638850D01*
X139969396Y-147638855D01*
X140112594Y-147723543D01*
X140112597Y-147723543D01*
X140112599Y-147723545D01*
X140272369Y-147769962D01*
X140279834Y-147770549D01*
X140309694Y-147772900D01*
X140309698Y-147772900D01*
X140994550Y-147772900D01*
X141062671Y-147792902D01*
X141109164Y-147846558D01*
X141119268Y-147916832D01*
X141089774Y-147981412D01*
X141083645Y-147987995D01*
X138122445Y-150949195D01*
X138060133Y-150983221D01*
X138033350Y-150986100D01*
X134836800Y-150986100D01*
X134768679Y-150966098D01*
X134722186Y-150912442D01*
X134710800Y-150860100D01*
X134710800Y-150615500D01*
X134730802Y-150547379D01*
X134784458Y-150500886D01*
X134836800Y-150489500D01*
X135947800Y-150489500D01*
X135947800Y-150393815D01*
X135937369Y-150291726D01*
X135937368Y-150291723D01*
X135882551Y-150126292D01*
X135791062Y-149977966D01*
X135791057Y-149977960D01*
X135783545Y-149970448D01*
X135749519Y-149908136D01*
X135754584Y-149837321D01*
X135783547Y-149792256D01*
X135791458Y-149784346D01*
X135813049Y-149749339D01*
X135863751Y-149702883D01*
X135867621Y-149700938D01*
X135867632Y-149700935D01*
X135932505Y-149658266D01*
X135998551Y-149617530D01*
X135998560Y-149617520D01*
X136004308Y-149612977D01*
X136004350Y-149613031D01*
X136010189Y-149608275D01*
X136010146Y-149608223D01*
X136015765Y-149603506D01*
X136015774Y-149603501D01*
X136069063Y-149547017D01*
X137804810Y-147811270D01*
X139543205Y-146072876D01*
X139605517Y-146038850D01*
X139676332Y-146043915D01*
G37*
%TD.AperFunction*%
%TA.AperFunction,Conductor*%
G36*
X130431311Y-145102902D02*
G01*
X130477804Y-145156558D01*
X130487908Y-145226832D01*
X130471645Y-145273037D01*
X130467056Y-145280796D01*
X130420637Y-145440570D01*
X130417700Y-145477894D01*
X130417700Y-145753348D01*
X130397698Y-145821469D01*
X130380795Y-145842444D01*
X130165008Y-146058230D01*
X130152265Y-146068440D01*
X130152425Y-146068633D01*
X130146321Y-146073682D01*
X130096454Y-146126785D01*
X130074471Y-146148768D01*
X130069927Y-146154625D01*
X130066078Y-146159131D01*
X130032429Y-146194965D01*
X130032427Y-146194967D01*
X130022091Y-146213767D01*
X130011243Y-146230280D01*
X129998099Y-146247226D01*
X129998094Y-146247235D01*
X129978572Y-146292347D01*
X129975960Y-146297677D01*
X129952277Y-146340760D01*
X129952273Y-146340770D01*
X129946941Y-146361536D01*
X129940539Y-146380236D01*
X129932020Y-146399920D01*
X129932019Y-146399924D01*
X129924328Y-146448484D01*
X129923124Y-146454297D01*
X129910900Y-146501910D01*
X129910900Y-146523358D01*
X129909349Y-146543067D01*
X129905994Y-146564250D01*
X129905993Y-146564255D01*
X129910619Y-146613196D01*
X129910899Y-146619127D01*
X129910899Y-147743149D01*
X129890897Y-147811270D01*
X129873994Y-147832244D01*
X128235895Y-149470344D01*
X128173583Y-149504369D01*
X128102768Y-149499305D01*
X128045932Y-149456758D01*
X128021121Y-149390238D01*
X128020800Y-149381249D01*
X128020800Y-148745272D01*
X128014691Y-148667665D01*
X128014690Y-148667655D01*
X128014090Y-148665419D01*
X128014088Y-148665419D01*
X126839894Y-149839614D01*
X126777582Y-149873640D01*
X126706767Y-149868575D01*
X126661704Y-149839615D01*
X126480684Y-149658596D01*
X126446659Y-149596284D01*
X126451723Y-149525468D01*
X126480684Y-149480405D01*
X127773630Y-148187459D01*
X127763879Y-148175418D01*
X127618648Y-148057813D01*
X127452142Y-147972974D01*
X127271638Y-147924608D01*
X127194027Y-147918500D01*
X126307573Y-147918500D01*
X126229959Y-147924609D01*
X126161246Y-147943020D01*
X126090269Y-147941330D01*
X126031474Y-147901535D01*
X126003527Y-147836270D01*
X126015301Y-147766257D01*
X126039538Y-147732221D01*
X128651955Y-145119804D01*
X128714267Y-145085779D01*
X128741050Y-145082900D01*
X130363190Y-145082900D01*
X130431311Y-145102902D01*
G37*
%TD.AperFunction*%
%TA.AperFunction,Conductor*%
G36*
X124211221Y-123743402D02*
G01*
X124257714Y-123797058D01*
X124269100Y-123849400D01*
X124269100Y-124960400D01*
X124364785Y-124960400D01*
X124364784Y-124960399D01*
X124466873Y-124949969D01*
X124466876Y-124949968D01*
X124632307Y-124895151D01*
X124786879Y-124799810D01*
X124788148Y-124801868D01*
X124843269Y-124779620D01*
X124913020Y-124792859D01*
X124964541Y-124841707D01*
X124981600Y-124905015D01*
X124981600Y-125902759D01*
X124980270Y-125921019D01*
X124976759Y-125944989D01*
X124979774Y-125979454D01*
X124981360Y-125997572D01*
X124981600Y-126003066D01*
X124981600Y-126011382D01*
X124985447Y-126044294D01*
X124992212Y-126121619D01*
X124993696Y-126128806D01*
X124993631Y-126128819D01*
X124995265Y-126136189D01*
X124995329Y-126136175D01*
X124997021Y-126143316D01*
X125023573Y-126216264D01*
X125047985Y-126289936D01*
X125051087Y-126296588D01*
X125051026Y-126296616D01*
X125054311Y-126303402D01*
X125054370Y-126303373D01*
X125057660Y-126309924D01*
X125100333Y-126374805D01*
X125141067Y-126440848D01*
X125145622Y-126446608D01*
X125145568Y-126446650D01*
X125150328Y-126452492D01*
X125150379Y-126452450D01*
X125155093Y-126458068D01*
X125155098Y-126458073D01*
X125155099Y-126458074D01*
X125211582Y-126511363D01*
X125941323Y-127241105D01*
X125975348Y-127303417D01*
X125970283Y-127374233D01*
X125941322Y-127419295D01*
X125184325Y-128176292D01*
X125170476Y-128188262D01*
X125151043Y-128202730D01*
X125117107Y-128243171D01*
X125113400Y-128247217D01*
X125107521Y-128253097D01*
X125107512Y-128253107D01*
X125086963Y-128279096D01*
X125053518Y-128318956D01*
X125037065Y-128338564D01*
X125033035Y-128344691D01*
X125032980Y-128344655D01*
X125028925Y-128351020D01*
X125028982Y-128351055D01*
X125025128Y-128357301D01*
X124992320Y-128427658D01*
X124957491Y-128497012D01*
X124954982Y-128503907D01*
X124954920Y-128503884D01*
X124952443Y-128511010D01*
X124952504Y-128511031D01*
X124950197Y-128517990D01*
X124934656Y-128593254D01*
X124934492Y-128594050D01*
X124916637Y-128669390D01*
X124916600Y-128669545D01*
X124915748Y-128676834D01*
X124915681Y-128676826D01*
X124914914Y-128684326D01*
X124914981Y-128684332D01*
X124914341Y-128691642D01*
X124916600Y-128769279D01*
X124916599Y-130618983D01*
X124896597Y-130687104D01*
X124842941Y-130733597D01*
X124772667Y-130743700D01*
X124723007Y-130722360D01*
X124721879Y-130724190D01*
X124567307Y-130628848D01*
X124401876Y-130574031D01*
X124401874Y-130574030D01*
X124357509Y-130569497D01*
X124291775Y-130542674D01*
X124250977Y-130484570D01*
X124248069Y-130413633D01*
X124261865Y-130380010D01*
X124318880Y-130283602D01*
X124365193Y-130124200D01*
X123139200Y-130124200D01*
X123139200Y-130713513D01*
X123119198Y-130781634D01*
X123102295Y-130802608D01*
X123061342Y-130843560D01*
X123061337Y-130843566D01*
X122969848Y-130991892D01*
X122915031Y-131157323D01*
X122915030Y-131157326D01*
X122904600Y-131259415D01*
X122904600Y-131292600D01*
X124078100Y-131292600D01*
X124146221Y-131312602D01*
X124192714Y-131366258D01*
X124204100Y-131418600D01*
X124204100Y-132529600D01*
X124299785Y-132529600D01*
X124299784Y-132529599D01*
X124401873Y-132519169D01*
X124401876Y-132519168D01*
X124567307Y-132464351D01*
X124715633Y-132372862D01*
X124723147Y-132365348D01*
X124785458Y-132331321D01*
X124856274Y-132336383D01*
X124901342Y-132365346D01*
X124909254Y-132373258D01*
X125057680Y-132464809D01*
X125223219Y-132519662D01*
X125325387Y-132530100D01*
X126024812Y-132530099D01*
X126126981Y-132519662D01*
X126292520Y-132464809D01*
X126440946Y-132373258D01*
X126564258Y-132249946D01*
X126655809Y-132101520D01*
X126710662Y-131935981D01*
X126721100Y-131833813D01*
X126721099Y-131259388D01*
X126712653Y-131176714D01*
X126710662Y-131157219D01*
X126655879Y-130991892D01*
X126655809Y-130991680D01*
X126564258Y-130843254D01*
X126564257Y-130843253D01*
X126564252Y-130843247D01*
X126482091Y-130761086D01*
X126448065Y-130698774D01*
X126453130Y-130627959D01*
X126495677Y-130571123D01*
X126562197Y-130546312D01*
X126631571Y-130561403D01*
X126635318Y-130563533D01*
X126746599Y-130629345D01*
X126906369Y-130675762D01*
X126913834Y-130676349D01*
X126943694Y-130678700D01*
X126943698Y-130678700D01*
X127050700Y-130678700D01*
X127118821Y-130698702D01*
X127165314Y-130752358D01*
X127176699Y-130804699D01*
X127176699Y-131471022D01*
X127176699Y-132121496D01*
X127174908Y-132137726D01*
X127175157Y-132137750D01*
X127174411Y-132145635D01*
X127176700Y-132218441D01*
X127176700Y-132249530D01*
X127177627Y-132256876D01*
X127178093Y-132262790D01*
X127179637Y-132311929D01*
X127179638Y-132311932D01*
X127185621Y-132332529D01*
X127189628Y-132351880D01*
X127192317Y-132373160D01*
X127192317Y-132373162D01*
X127210416Y-132418878D01*
X127212339Y-132424494D01*
X127226053Y-132471697D01*
X127226053Y-132471698D01*
X127236971Y-132490158D01*
X127245668Y-132507911D01*
X127253564Y-132527855D01*
X127253567Y-132527860D01*
X127271552Y-132552613D01*
X127282465Y-132567632D01*
X127285721Y-132572590D01*
X127308815Y-132611641D01*
X127310747Y-132614907D01*
X127325914Y-132630074D01*
X127338752Y-132645105D01*
X127351358Y-132662456D01*
X127389240Y-132693795D01*
X127393621Y-132697781D01*
X129980121Y-135284280D01*
X131747146Y-137051305D01*
X131781172Y-137113617D01*
X131776107Y-137184432D01*
X131733560Y-137241268D01*
X131667040Y-137266079D01*
X131658051Y-137266400D01*
X131009743Y-137266401D01*
X131009742Y-137266401D01*
X130972449Y-137269334D01*
X130812799Y-137315718D01*
X130669698Y-137400348D01*
X130669696Y-137400349D01*
X130552149Y-137517896D01*
X130552148Y-137517898D01*
X130467518Y-137660998D01*
X130421207Y-137820400D01*
X132079200Y-137820400D01*
X132147321Y-137840402D01*
X132193814Y-137894058D01*
X132205200Y-137946400D01*
X132205200Y-139090400D01*
X133481192Y-139090400D01*
X133434881Y-138930998D01*
X133350252Y-138787899D01*
X133349267Y-138786629D01*
X133348804Y-138785450D01*
X133346219Y-138781079D01*
X133346923Y-138780662D01*
X133323318Y-138720545D01*
X133337216Y-138650922D01*
X133349267Y-138632171D01*
X133350252Y-138630900D01*
X133434881Y-138487801D01*
X133481265Y-138328149D01*
X133484200Y-138290861D01*
X133484200Y-138204200D01*
X133504202Y-138136079D01*
X133557858Y-138089586D01*
X133610200Y-138078200D01*
X139592201Y-138078200D01*
X139660322Y-138098202D01*
X139706815Y-138151858D01*
X139718201Y-138204200D01*
X139718201Y-138290858D01*
X139721134Y-138328150D01*
X139767518Y-138487800D01*
X139852147Y-138630900D01*
X139853139Y-138632179D01*
X139853603Y-138633363D01*
X139856181Y-138637721D01*
X139855477Y-138638136D01*
X139879082Y-138698266D01*
X139865178Y-138767887D01*
X139853139Y-138786621D01*
X139852147Y-138787899D01*
X139767518Y-138930998D01*
X139721207Y-139090400D01*
X140997200Y-139090400D01*
X140997200Y-138204200D01*
X141017202Y-138136079D01*
X141070858Y-138089586D01*
X141123200Y-138078200D01*
X141379200Y-138078200D01*
X141447321Y-138098202D01*
X141493814Y-138151858D01*
X141505200Y-138204200D01*
X141505200Y-142012400D01*
X141485198Y-142080521D01*
X141431542Y-142127014D01*
X141379200Y-142138400D01*
X139721207Y-142138400D01*
X139767518Y-142297801D01*
X139852146Y-142440898D01*
X139852816Y-142441762D01*
X139853130Y-142442562D01*
X139856181Y-142447721D01*
X139855348Y-142448213D01*
X139878763Y-142507848D01*
X139864862Y-142577470D01*
X139852820Y-142596208D01*
X139851749Y-142597587D01*
X139790259Y-142701561D01*
X139770901Y-142726516D01*
X139141525Y-143355892D01*
X139127676Y-143367862D01*
X139108243Y-143382330D01*
X139074307Y-143422771D01*
X139070600Y-143426817D01*
X139064721Y-143432697D01*
X139064712Y-143432707D01*
X139044163Y-143458696D01*
X138994265Y-143518164D01*
X138990235Y-143524291D01*
X138990180Y-143524255D01*
X138986125Y-143530620D01*
X138986182Y-143530655D01*
X138982328Y-143536901D01*
X138949520Y-143607258D01*
X138914691Y-143676612D01*
X138912182Y-143683507D01*
X138912120Y-143683484D01*
X138909643Y-143690610D01*
X138909704Y-143690631D01*
X138907397Y-143697590D01*
X138891692Y-143773649D01*
X138891692Y-143773650D01*
X138878049Y-143831218D01*
X138873800Y-143849145D01*
X138872948Y-143856434D01*
X138872881Y-143856426D01*
X138872114Y-143863926D01*
X138872181Y-143863932D01*
X138871541Y-143871242D01*
X138873800Y-143948879D01*
X138873800Y-144544728D01*
X138853798Y-144612849D01*
X138836895Y-144633823D01*
X135509483Y-147961234D01*
X135447171Y-147995260D01*
X135380758Y-147991744D01*
X135354182Y-147982938D01*
X135354179Y-147982937D01*
X135252021Y-147972500D01*
X134677587Y-147972500D01*
X134575419Y-147982937D01*
X134409879Y-148037791D01*
X134261453Y-148129342D01*
X134261447Y-148129347D01*
X134218895Y-148171900D01*
X134156583Y-148205926D01*
X134085768Y-148200861D01*
X134040705Y-148171900D01*
X134013152Y-148144347D01*
X134013146Y-148144342D01*
X133992352Y-148131516D01*
X133864720Y-148052791D01*
X133699181Y-147997938D01*
X133699179Y-147997937D01*
X133699177Y-147997937D01*
X133597021Y-147987500D01*
X133098500Y-147987500D01*
X133030379Y-147967498D01*
X132983886Y-147913842D01*
X132972500Y-147861500D01*
X132972500Y-147852227D01*
X132992502Y-147784106D01*
X133046158Y-147737613D01*
X133063348Y-147731229D01*
X133089801Y-147723545D01*
X133233007Y-147638853D01*
X133350653Y-147521207D01*
X133399306Y-147438940D01*
X133435343Y-147378005D01*
X133435343Y-147378003D01*
X133435345Y-147378001D01*
X133481762Y-147218231D01*
X133482741Y-147205788D01*
X133484700Y-147180906D01*
X133484700Y-146747894D01*
X133481762Y-146710570D01*
X133478004Y-146697634D01*
X133435345Y-146550799D01*
X133435343Y-146550797D01*
X133435343Y-146550794D01*
X133350656Y-146407598D01*
X133350655Y-146407597D01*
X133350653Y-146407593D01*
X133350649Y-146407589D01*
X133349908Y-146406633D01*
X133349556Y-146405737D01*
X133346618Y-146400769D01*
X133347419Y-146400295D01*
X133323956Y-146340550D01*
X133337852Y-146270926D01*
X133349908Y-146252167D01*
X133350645Y-146251214D01*
X133350653Y-146251207D01*
X133407772Y-146154625D01*
X133435343Y-146108005D01*
X133435343Y-146108003D01*
X133435345Y-146108001D01*
X133481762Y-145948231D01*
X133484700Y-145910902D01*
X133484700Y-145477898D01*
X133481762Y-145440569D01*
X133435345Y-145280799D01*
X133435343Y-145280797D01*
X133435343Y-145280794D01*
X133350656Y-145137598D01*
X133350655Y-145137597D01*
X133350653Y-145137593D01*
X133350649Y-145137589D01*
X133349908Y-145136633D01*
X133349556Y-145135737D01*
X133346618Y-145130769D01*
X133347419Y-145130295D01*
X133323956Y-145070550D01*
X133337852Y-145000926D01*
X133349908Y-144982167D01*
X133350645Y-144981214D01*
X133350653Y-144981207D01*
X133412024Y-144877435D01*
X133435343Y-144838005D01*
X133435343Y-144838003D01*
X133435345Y-144838001D01*
X133481762Y-144678231D01*
X133482916Y-144663568D01*
X133484700Y-144640906D01*
X133484700Y-144207894D01*
X133481762Y-144170570D01*
X133468672Y-144125513D01*
X133435345Y-144010799D01*
X133435343Y-144010797D01*
X133435343Y-144010794D01*
X133350655Y-143867596D01*
X133349585Y-143866216D01*
X133349082Y-143864936D01*
X133346618Y-143860769D01*
X133347290Y-143860371D01*
X133323637Y-143800132D01*
X133337536Y-143730509D01*
X133349590Y-143711753D01*
X133350256Y-143710893D01*
X133434881Y-143567801D01*
X133481193Y-143408400D01*
X130421207Y-143408400D01*
X130467519Y-143567803D01*
X130472226Y-143575762D01*
X130489685Y-143644579D01*
X130467167Y-143711910D01*
X130411822Y-143756378D01*
X130363772Y-143765900D01*
X128502711Y-143765900D01*
X128486479Y-143764108D01*
X128486456Y-143764358D01*
X128478563Y-143763611D01*
X128407977Y-143765830D01*
X128405758Y-143765900D01*
X128374668Y-143765900D01*
X128367322Y-143766827D01*
X128361409Y-143767293D01*
X128312272Y-143768837D01*
X128312270Y-143768837D01*
X128312269Y-143768838D01*
X128291671Y-143774821D01*
X128272321Y-143778828D01*
X128251040Y-143781516D01*
X128251035Y-143781518D01*
X128205314Y-143799619D01*
X128199699Y-143801541D01*
X128152506Y-143815252D01*
X128152499Y-143815255D01*
X128134037Y-143826173D01*
X128116291Y-143834866D01*
X128096348Y-143842762D01*
X128096345Y-143842764D01*
X128056570Y-143871662D01*
X128051608Y-143874921D01*
X128009294Y-143899946D01*
X127994122Y-143915117D01*
X127979096Y-143927950D01*
X127961744Y-143940557D01*
X127961743Y-143940558D01*
X127930399Y-143978445D01*
X127926403Y-143982836D01*
X124046536Y-147862702D01*
X123984224Y-147896728D01*
X123924831Y-147895314D01*
X123842718Y-147873312D01*
X123842711Y-147873311D01*
X123765061Y-147867200D01*
X123765058Y-147867200D01*
X122878542Y-147867200D01*
X122878539Y-147867200D01*
X122800888Y-147873311D01*
X122800885Y-147873312D01*
X122620276Y-147921706D01*
X122453673Y-148006594D01*
X122453672Y-148006594D01*
X122308363Y-148124263D01*
X122190694Y-148269572D01*
X122190694Y-148269573D01*
X122105806Y-148436176D01*
X122057412Y-148616785D01*
X122057411Y-148616788D01*
X122051300Y-148694439D01*
X122051300Y-149231850D01*
X122031298Y-149299971D01*
X121977642Y-149346464D01*
X121907368Y-149356568D01*
X121842788Y-149327074D01*
X121836205Y-149320945D01*
X119991104Y-147475845D01*
X119957079Y-147413533D01*
X119954199Y-147386750D01*
X119954199Y-146213767D01*
X119954199Y-145001402D01*
X119955993Y-144985182D01*
X119955742Y-144985159D01*
X119956488Y-144977265D01*
X119955505Y-144946000D01*
X119954200Y-144904457D01*
X119954200Y-144873368D01*
X119953271Y-144866020D01*
X119952806Y-144860116D01*
X119951262Y-144810969D01*
X119945279Y-144790376D01*
X119941271Y-144771018D01*
X119938582Y-144749739D01*
X119938582Y-144749736D01*
X119920477Y-144704008D01*
X119918563Y-144698419D01*
X119904845Y-144651200D01*
X119893924Y-144632735D01*
X119885231Y-144614989D01*
X119877335Y-144595044D01*
X119848436Y-144555270D01*
X119845182Y-144550317D01*
X119824127Y-144514713D01*
X119820152Y-144507991D01*
X119804988Y-144492827D01*
X119792147Y-144477793D01*
X119779541Y-144460443D01*
X119779536Y-144460438D01*
X119756188Y-144441124D01*
X119741650Y-144429097D01*
X119737277Y-144425117D01*
X118817144Y-143504985D01*
X118783119Y-143442673D01*
X118788184Y-143371858D01*
X118804934Y-143340969D01*
X118843485Y-143288847D01*
X118947595Y-143082357D01*
X119015311Y-142861243D01*
X119044684Y-142631865D01*
X119043610Y-142606591D01*
X119034869Y-142400821D01*
X119001039Y-142243851D01*
X118986149Y-142174762D01*
X118971538Y-142138400D01*
X130421207Y-142138400D01*
X130467518Y-142297801D01*
X130552147Y-142440900D01*
X130553139Y-142442179D01*
X130553603Y-142443363D01*
X130556181Y-142447721D01*
X130555477Y-142448136D01*
X130579082Y-142508266D01*
X130565178Y-142577887D01*
X130553139Y-142596621D01*
X130552147Y-142597899D01*
X130467518Y-142740998D01*
X130421207Y-142900400D01*
X131697200Y-142900400D01*
X131697200Y-142138400D01*
X132205200Y-142138400D01*
X132205200Y-142900400D01*
X133481192Y-142900400D01*
X133434881Y-142740998D01*
X133350252Y-142597899D01*
X133349267Y-142596629D01*
X133348804Y-142595450D01*
X133346219Y-142591079D01*
X133346923Y-142590662D01*
X133323318Y-142530545D01*
X133337216Y-142460922D01*
X133349267Y-142442171D01*
X133350252Y-142440900D01*
X133434881Y-142297801D01*
X133481193Y-142138400D01*
X132205200Y-142138400D01*
X131697200Y-142138400D01*
X130421207Y-142138400D01*
X118971538Y-142138400D01*
X118899926Y-141960187D01*
X118779085Y-141763930D01*
X118760402Y-141695438D01*
X118781715Y-141627716D01*
X118797279Y-141608779D01*
X119537658Y-140868400D01*
X130421207Y-140868400D01*
X130467518Y-141027801D01*
X130552147Y-141170900D01*
X130553139Y-141172179D01*
X130553603Y-141173363D01*
X130556181Y-141177721D01*
X130555477Y-141178136D01*
X130579082Y-141238266D01*
X130565178Y-141307887D01*
X130553139Y-141326621D01*
X130552147Y-141327899D01*
X130467518Y-141470998D01*
X130421207Y-141630400D01*
X131697200Y-141630400D01*
X131697200Y-140868400D01*
X132205200Y-140868400D01*
X132205200Y-141630400D01*
X133481192Y-141630400D01*
X133434881Y-141470998D01*
X133350252Y-141327899D01*
X133349267Y-141326629D01*
X133348804Y-141325450D01*
X133346219Y-141321079D01*
X133346923Y-141320662D01*
X133323318Y-141260545D01*
X133337216Y-141190922D01*
X133349267Y-141172171D01*
X133350252Y-141170900D01*
X133434881Y-141027801D01*
X133481193Y-140868400D01*
X139721207Y-140868400D01*
X139767518Y-141027801D01*
X139852147Y-141170900D01*
X139853139Y-141172179D01*
X139853603Y-141173363D01*
X139856181Y-141177721D01*
X139855477Y-141178136D01*
X139879082Y-141238266D01*
X139865178Y-141307887D01*
X139853139Y-141326621D01*
X139852147Y-141327899D01*
X139767518Y-141470998D01*
X139721207Y-141630400D01*
X140997200Y-141630400D01*
X140997200Y-140868400D01*
X139721207Y-140868400D01*
X133481193Y-140868400D01*
X132205200Y-140868400D01*
X131697200Y-140868400D01*
X130421207Y-140868400D01*
X119537658Y-140868400D01*
X120807658Y-139598400D01*
X130421207Y-139598400D01*
X130467518Y-139757801D01*
X130552147Y-139900900D01*
X130553139Y-139902179D01*
X130553603Y-139903363D01*
X130556181Y-139907721D01*
X130555477Y-139908136D01*
X130579082Y-139968266D01*
X130565178Y-140037887D01*
X130553139Y-140056621D01*
X130552147Y-140057899D01*
X130467518Y-140200998D01*
X130421207Y-140360400D01*
X131697200Y-140360400D01*
X131697200Y-139598400D01*
X132205200Y-139598400D01*
X132205200Y-140360400D01*
X133481192Y-140360400D01*
X133434881Y-140200998D01*
X133350252Y-140057899D01*
X133349267Y-140056629D01*
X133348804Y-140055450D01*
X133346219Y-140051079D01*
X133346923Y-140050662D01*
X133323318Y-139990545D01*
X133337216Y-139920922D01*
X133349267Y-139902171D01*
X133350252Y-139900900D01*
X133434881Y-139757801D01*
X133481193Y-139598400D01*
X139721207Y-139598400D01*
X139767518Y-139757801D01*
X139852147Y-139900900D01*
X139853139Y-139902179D01*
X139853603Y-139903363D01*
X139856181Y-139907721D01*
X139855477Y-139908136D01*
X139879082Y-139968266D01*
X139865178Y-140037887D01*
X139853139Y-140056621D01*
X139852147Y-140057899D01*
X139767518Y-140200998D01*
X139721207Y-140360400D01*
X140997200Y-140360400D01*
X140997200Y-139598400D01*
X139721207Y-139598400D01*
X133481193Y-139598400D01*
X132205200Y-139598400D01*
X131697200Y-139598400D01*
X130421207Y-139598400D01*
X120807658Y-139598400D01*
X121841786Y-138564272D01*
X121854529Y-138554065D01*
X121854369Y-138553871D01*
X121860474Y-138548819D01*
X121860480Y-138548816D01*
X121910345Y-138495714D01*
X121932327Y-138473733D01*
X121936870Y-138467875D01*
X121940708Y-138463380D01*
X121974372Y-138427533D01*
X121984710Y-138408727D01*
X121995552Y-138392223D01*
X122008704Y-138375268D01*
X122028232Y-138330137D01*
X122029083Y-138328400D01*
X130421207Y-138328400D01*
X130467518Y-138487801D01*
X130552147Y-138630900D01*
X130553139Y-138632179D01*
X130553603Y-138633363D01*
X130556181Y-138637721D01*
X130555477Y-138638136D01*
X130579082Y-138698266D01*
X130565178Y-138767887D01*
X130553139Y-138786621D01*
X130552147Y-138787899D01*
X130467518Y-138930998D01*
X130421207Y-139090400D01*
X131697200Y-139090400D01*
X131697200Y-138328400D01*
X130421207Y-138328400D01*
X122029083Y-138328400D01*
X122030841Y-138324814D01*
X122054524Y-138281737D01*
X122059857Y-138260962D01*
X122066256Y-138242269D01*
X122074780Y-138222576D01*
X122082474Y-138173991D01*
X122083671Y-138168210D01*
X122095900Y-138120588D01*
X122095900Y-138099141D01*
X122097451Y-138079430D01*
X122097646Y-138078200D01*
X122100806Y-138058248D01*
X122096747Y-138015306D01*
X122096180Y-138009303D01*
X122095900Y-138003371D01*
X122095900Y-131800600D01*
X122904600Y-131800600D01*
X122904600Y-131833784D01*
X122915030Y-131935873D01*
X122915031Y-131935876D01*
X122969848Y-132101307D01*
X123061337Y-132249633D01*
X123061342Y-132249639D01*
X123184560Y-132372857D01*
X123184566Y-132372862D01*
X123332892Y-132464351D01*
X123498323Y-132519168D01*
X123498326Y-132519169D01*
X123600415Y-132529599D01*
X123600415Y-132529600D01*
X123696100Y-132529600D01*
X123696100Y-131800600D01*
X122904600Y-131800600D01*
X122095900Y-131800600D01*
X122095900Y-130804199D01*
X122115902Y-130736078D01*
X122169558Y-130689585D01*
X122221900Y-130678199D01*
X122631200Y-130678199D01*
X122631200Y-129742200D01*
X122651202Y-129674079D01*
X122704858Y-129627586D01*
X122757200Y-129616200D01*
X124365192Y-129616200D01*
X124318881Y-129456798D01*
X124234253Y-129313700D01*
X124233585Y-129312839D01*
X124233271Y-129312040D01*
X124230219Y-129306879D01*
X124231051Y-129306386D01*
X124207637Y-129246754D01*
X124221536Y-129177131D01*
X124233590Y-129158376D01*
X124234644Y-129157015D01*
X124234653Y-129157007D01*
X124294800Y-129055304D01*
X124319343Y-129013805D01*
X124319343Y-129013803D01*
X124319345Y-129013801D01*
X124365762Y-128854031D01*
X124368700Y-128816702D01*
X124368700Y-128383698D01*
X124367767Y-128371849D01*
X124366128Y-128351020D01*
X124365762Y-128346369D01*
X124319345Y-128186599D01*
X124319343Y-128186597D01*
X124319343Y-128186594D01*
X124234656Y-128043398D01*
X124234655Y-128043397D01*
X124234653Y-128043393D01*
X124234649Y-128043389D01*
X124233908Y-128042433D01*
X124233556Y-128041537D01*
X124230618Y-128036569D01*
X124231419Y-128036095D01*
X124207956Y-127976350D01*
X124221852Y-127906726D01*
X124233908Y-127887967D01*
X124234645Y-127887014D01*
X124234653Y-127887007D01*
X124319345Y-127743801D01*
X124365762Y-127584031D01*
X124368700Y-127546702D01*
X124368700Y-127113698D01*
X124368023Y-127105100D01*
X124365762Y-127076370D01*
X124359400Y-127054472D01*
X124319345Y-126916599D01*
X124234653Y-126773393D01*
X124234649Y-126773389D01*
X124233903Y-126772427D01*
X124233550Y-126771530D01*
X124230618Y-126766571D01*
X124231417Y-126766097D01*
X124207956Y-126706342D01*
X124221856Y-126636719D01*
X124233908Y-126617967D01*
X124234645Y-126617014D01*
X124234653Y-126617007D01*
X124302258Y-126502694D01*
X124319343Y-126473805D01*
X124319343Y-126473803D01*
X124319345Y-126473801D01*
X124365762Y-126314031D01*
X124367658Y-126289938D01*
X124368700Y-126276706D01*
X124368700Y-125843694D01*
X124365762Y-125806370D01*
X124365762Y-125806369D01*
X124319345Y-125646599D01*
X124319343Y-125646597D01*
X124319343Y-125646594D01*
X124234655Y-125503396D01*
X124234650Y-125503389D01*
X124117010Y-125385749D01*
X124117003Y-125385744D01*
X123973805Y-125301056D01*
X123814029Y-125254637D01*
X123776706Y-125251700D01*
X123776702Y-125251700D01*
X122603850Y-125251700D01*
X122535729Y-125231698D01*
X122489236Y-125178042D01*
X122479132Y-125107768D01*
X122508626Y-125043188D01*
X122514754Y-125036605D01*
X122601391Y-124949968D01*
X122916221Y-124635137D01*
X122978529Y-124601115D01*
X123049345Y-124606179D01*
X123106181Y-124648726D01*
X123112552Y-124658086D01*
X123126333Y-124680428D01*
X123126342Y-124680439D01*
X123249560Y-124803657D01*
X123249566Y-124803662D01*
X123397892Y-124895151D01*
X123563323Y-124949968D01*
X123563326Y-124949969D01*
X123665415Y-124960399D01*
X123665415Y-124960400D01*
X123761100Y-124960400D01*
X123761100Y-123849400D01*
X123781102Y-123781279D01*
X123834758Y-123734786D01*
X123887100Y-123723400D01*
X124143100Y-123723400D01*
X124211221Y-123743402D01*
G37*
%TD.AperFunction*%
%TA.AperFunction,Conductor*%
G36*
X136632471Y-131869502D02*
G01*
X136653445Y-131886405D01*
X140127325Y-135360285D01*
X140137538Y-135373031D01*
X140137731Y-135372872D01*
X140142783Y-135378979D01*
X140142784Y-135378980D01*
X140195885Y-135428845D01*
X140217867Y-135450827D01*
X140217875Y-135450833D01*
X140223717Y-135455365D01*
X140228233Y-135459222D01*
X140264067Y-135492872D01*
X140282869Y-135503208D01*
X140299375Y-135514051D01*
X140316332Y-135527204D01*
X140361454Y-135546729D01*
X140366780Y-135549339D01*
X140409859Y-135573023D01*
X140409863Y-135573024D01*
X140430632Y-135578356D01*
X140449334Y-135584759D01*
X140469024Y-135593280D01*
X140517595Y-135600972D01*
X140523389Y-135602171D01*
X140571012Y-135614400D01*
X140592459Y-135614400D01*
X140612167Y-135615950D01*
X140633352Y-135619306D01*
X140671080Y-135615739D01*
X140682294Y-135614680D01*
X140688227Y-135614400D01*
X155980100Y-135614400D01*
X156048221Y-135634402D01*
X156094714Y-135688058D01*
X156106100Y-135740400D01*
X156106100Y-136635200D01*
X156086098Y-136703321D01*
X156032442Y-136749814D01*
X155980100Y-136761200D01*
X135870487Y-136761200D01*
X135802366Y-136741198D01*
X135755873Y-136687542D01*
X135745769Y-136617268D01*
X135775263Y-136552688D01*
X135781392Y-136546105D01*
X135785257Y-136542239D01*
X135785262Y-136542233D01*
X135876751Y-136393907D01*
X135931568Y-136228476D01*
X135931569Y-136228473D01*
X135941999Y-136126384D01*
X135942000Y-136126384D01*
X135942000Y-136093200D01*
X134768500Y-136093200D01*
X134700379Y-136073198D01*
X134653886Y-136019542D01*
X134642500Y-135967200D01*
X134642500Y-134856200D01*
X135150500Y-134856200D01*
X135150500Y-135585200D01*
X135942000Y-135585200D01*
X135942000Y-135552015D01*
X135931569Y-135449926D01*
X135931568Y-135449923D01*
X135876751Y-135284492D01*
X135785262Y-135136166D01*
X135785257Y-135136160D01*
X135662039Y-135012942D01*
X135662033Y-135012937D01*
X135513707Y-134921448D01*
X135348276Y-134866631D01*
X135348273Y-134866630D01*
X135246184Y-134856200D01*
X135150500Y-134856200D01*
X134642500Y-134856200D01*
X134546815Y-134856200D01*
X134444726Y-134866630D01*
X134444723Y-134866631D01*
X134279292Y-134921448D01*
X134130966Y-135012937D01*
X134123445Y-135020458D01*
X134061131Y-135054481D01*
X133990316Y-135049413D01*
X133945256Y-135020452D01*
X133937346Y-135012542D01*
X133937343Y-135012540D01*
X133937339Y-135012536D01*
X133931588Y-135007988D01*
X133932887Y-135006344D01*
X133892373Y-134961299D01*
X133880000Y-134906847D01*
X133880000Y-134665500D01*
X133900002Y-134597379D01*
X133953658Y-134550886D01*
X134006000Y-134539500D01*
X134594506Y-134539500D01*
X134619387Y-134537541D01*
X134631831Y-134536562D01*
X134791601Y-134490145D01*
X134791603Y-134490143D01*
X134791605Y-134490143D01*
X134906415Y-134422244D01*
X134934807Y-134405453D01*
X135052453Y-134287807D01*
X135105771Y-134197652D01*
X135137143Y-134144605D01*
X135137143Y-134144603D01*
X135137145Y-134144601D01*
X135183562Y-133984831D01*
X135186500Y-133947502D01*
X135186500Y-133514498D01*
X135185627Y-133503410D01*
X135183562Y-133477170D01*
X135181607Y-133470440D01*
X135137145Y-133317399D01*
X135137143Y-133317397D01*
X135137143Y-133317394D01*
X135052456Y-133174198D01*
X135052455Y-133174197D01*
X135052453Y-133174193D01*
X135052449Y-133174189D01*
X135051708Y-133173233D01*
X135051356Y-133172337D01*
X135048418Y-133167369D01*
X135049219Y-133166895D01*
X135025756Y-133107150D01*
X135039652Y-133037526D01*
X135051708Y-133018767D01*
X135052445Y-133017814D01*
X135052453Y-133017807D01*
X135104619Y-132929600D01*
X135137143Y-132874605D01*
X135137143Y-132874603D01*
X135137145Y-132874601D01*
X135183562Y-132714831D01*
X135186500Y-132677502D01*
X135186500Y-132244498D01*
X135183562Y-132207169D01*
X135137145Y-132047399D01*
X135132555Y-132039637D01*
X135115097Y-131970821D01*
X135137615Y-131903490D01*
X135192960Y-131859022D01*
X135241010Y-131849500D01*
X136564350Y-131849500D01*
X136632471Y-131869502D01*
G37*
%TD.AperFunction*%
%TA.AperFunction,Conductor*%
G36*
X136516074Y-122455783D02*
G01*
X136561142Y-122484746D01*
X136569054Y-122492658D01*
X136717480Y-122584209D01*
X136883019Y-122639062D01*
X136985187Y-122649500D01*
X137334949Y-122649499D01*
X137403069Y-122669501D01*
X137424044Y-122686404D01*
X139983025Y-125245385D01*
X139993238Y-125258131D01*
X139993431Y-125257972D01*
X139998483Y-125264079D01*
X139998484Y-125264080D01*
X140051585Y-125313945D01*
X140073567Y-125335927D01*
X140073575Y-125335933D01*
X140079417Y-125340465D01*
X140083933Y-125344322D01*
X140119767Y-125377972D01*
X140138569Y-125388308D01*
X140155075Y-125399151D01*
X140172032Y-125412304D01*
X140217154Y-125431829D01*
X140222480Y-125434439D01*
X140265559Y-125458123D01*
X140265563Y-125458124D01*
X140286332Y-125463456D01*
X140305034Y-125469859D01*
X140324724Y-125478380D01*
X140373295Y-125486072D01*
X140379089Y-125487271D01*
X140426712Y-125499500D01*
X140448159Y-125499500D01*
X140467867Y-125501050D01*
X140489052Y-125504406D01*
X140526780Y-125500839D01*
X140537994Y-125499780D01*
X140543927Y-125499500D01*
X141364990Y-125499500D01*
X141433111Y-125519502D01*
X141479604Y-125573158D01*
X141489708Y-125643432D01*
X141473445Y-125689637D01*
X141468856Y-125697396D01*
X141468855Y-125697398D01*
X141468855Y-125697399D01*
X141467402Y-125702399D01*
X141422437Y-125857170D01*
X141419500Y-125894494D01*
X141419500Y-126327506D01*
X141422437Y-126364829D01*
X141468856Y-126524605D01*
X141550835Y-126663222D01*
X141553547Y-126667807D01*
X141553549Y-126667809D01*
X141554292Y-126668767D01*
X141554643Y-126669662D01*
X141557582Y-126674631D01*
X141556780Y-126675104D01*
X141580243Y-126734851D01*
X141566346Y-126804475D01*
X141554303Y-126823217D01*
X141553546Y-126824191D01*
X141468856Y-126967394D01*
X141422437Y-127127170D01*
X141419500Y-127164494D01*
X141419500Y-127597506D01*
X141422437Y-127634829D01*
X141422438Y-127634831D01*
X141468855Y-127794601D01*
X141553543Y-127937801D01*
X141553549Y-127937810D01*
X141554303Y-127938782D01*
X141554656Y-127939681D01*
X141557582Y-127944629D01*
X141556783Y-127945101D01*
X141580244Y-128004869D01*
X141566338Y-128074491D01*
X141554303Y-128093218D01*
X141553549Y-128094189D01*
X141468856Y-128237396D01*
X141422437Y-128397170D01*
X141419500Y-128434494D01*
X141419500Y-128867506D01*
X141422437Y-128904829D01*
X141468856Y-129064605D01*
X141553543Y-129207802D01*
X141554298Y-129208775D01*
X141554652Y-129209676D01*
X141557582Y-129214631D01*
X141556782Y-129215103D01*
X141580244Y-129274861D01*
X141566342Y-129344483D01*
X141554303Y-129363218D01*
X141553549Y-129364189D01*
X141468856Y-129507396D01*
X141422437Y-129667170D01*
X141419500Y-129704494D01*
X141419500Y-130137506D01*
X141422943Y-130181247D01*
X141421422Y-130181366D01*
X141414793Y-130244299D01*
X141370364Y-130299675D01*
X141303049Y-130322241D01*
X141234220Y-130304831D01*
X141209186Y-130285426D01*
X139442205Y-128518445D01*
X139408179Y-128456133D01*
X139405300Y-128429350D01*
X139405300Y-126274711D01*
X139407092Y-126258482D01*
X139406842Y-126258459D01*
X139407588Y-126250565D01*
X139405300Y-126177757D01*
X139405300Y-126146676D01*
X139405300Y-126146668D01*
X139404371Y-126139320D01*
X139403906Y-126133416D01*
X139402362Y-126084269D01*
X139396379Y-126063676D01*
X139392371Y-126044318D01*
X139389682Y-126023039D01*
X139389682Y-126023036D01*
X139371577Y-125977308D01*
X139369663Y-125971719D01*
X139355945Y-125924500D01*
X139345026Y-125906039D01*
X139336328Y-125888282D01*
X139328435Y-125868344D01*
X139313725Y-125848098D01*
X139299531Y-125828561D01*
X139296271Y-125823598D01*
X139290637Y-125814072D01*
X139271252Y-125781293D01*
X139271251Y-125781292D01*
X139271250Y-125781290D01*
X139256091Y-125766131D01*
X139243250Y-125751098D01*
X139233427Y-125737578D01*
X139230641Y-125733743D01*
X139192753Y-125702399D01*
X139188371Y-125698412D01*
X136980832Y-123490873D01*
X136244911Y-122754951D01*
X136210885Y-122692639D01*
X136215950Y-122621823D01*
X136258497Y-122564988D01*
X136267859Y-122558615D01*
X136375433Y-122492262D01*
X136382947Y-122484748D01*
X136445258Y-122450721D01*
X136516074Y-122455783D01*
G37*
%TD.AperFunction*%
%TA.AperFunction,Conductor*%
G36*
X141087021Y-121516702D02*
G01*
X141133514Y-121570358D01*
X141144900Y-121622700D01*
X141144900Y-122649000D01*
X141240585Y-122649000D01*
X141240584Y-122648999D01*
X141342673Y-122638569D01*
X141342676Y-122638568D01*
X141508107Y-122583751D01*
X141656433Y-122492262D01*
X141656439Y-122492257D01*
X141779657Y-122369039D01*
X141779662Y-122369033D01*
X141871151Y-122220707D01*
X141925968Y-122055279D01*
X141928556Y-122029947D01*
X141955378Y-121964212D01*
X142013481Y-121923413D01*
X142084418Y-121920504D01*
X142142997Y-121953656D01*
X142705825Y-122516484D01*
X142737246Y-122547905D01*
X142771272Y-122610217D01*
X142766207Y-122681032D01*
X142723660Y-122737868D01*
X142657140Y-122762679D01*
X142648151Y-122763000D01*
X142011543Y-122763001D01*
X142011542Y-122763001D01*
X141974249Y-122765934D01*
X141814599Y-122812318D01*
X141671498Y-122896948D01*
X141671496Y-122896949D01*
X141553949Y-123014496D01*
X141553948Y-123014498D01*
X141469318Y-123157598D01*
X141423007Y-123317000D01*
X143081000Y-123317000D01*
X143149121Y-123337002D01*
X143195614Y-123390658D01*
X143207000Y-123443000D01*
X143207000Y-123699000D01*
X143186998Y-123767121D01*
X143133342Y-123813614D01*
X143081000Y-123825000D01*
X141423007Y-123825000D01*
X141469319Y-123984403D01*
X141474026Y-123992362D01*
X141491485Y-124061179D01*
X141468967Y-124128510D01*
X141413622Y-124172978D01*
X141365572Y-124182500D01*
X140834850Y-124182500D01*
X140766729Y-124162498D01*
X140745755Y-124145595D01*
X139461805Y-122861645D01*
X139427779Y-122799333D01*
X139432844Y-122728518D01*
X139475391Y-122671682D01*
X139538095Y-122647202D01*
X139617781Y-122639062D01*
X139783320Y-122584209D01*
X139931746Y-122492658D01*
X139939655Y-122484748D01*
X140001960Y-122450722D01*
X140072776Y-122455781D01*
X140117848Y-122484745D01*
X140125360Y-122492257D01*
X140125366Y-122492262D01*
X140273692Y-122583751D01*
X140439123Y-122638568D01*
X140439126Y-122638569D01*
X140541215Y-122648999D01*
X140541215Y-122649000D01*
X140636900Y-122649000D01*
X140636900Y-121622700D01*
X140656902Y-121554579D01*
X140710558Y-121508086D01*
X140762900Y-121496700D01*
X141018900Y-121496700D01*
X141087021Y-121516702D01*
G37*
%TD.AperFunction*%
%TA.AperFunction,Conductor*%
G36*
X135027321Y-117223402D02*
G01*
X135073814Y-117277058D01*
X135085200Y-117329400D01*
X135085200Y-119345449D01*
X135091709Y-119405996D01*
X135091711Y-119406004D01*
X135142810Y-119543002D01*
X135142812Y-119543007D01*
X135230438Y-119660061D01*
X135347492Y-119747687D01*
X135347494Y-119747688D01*
X135347496Y-119747689D01*
X135375138Y-119757999D01*
X135484495Y-119798788D01*
X135484503Y-119798790D01*
X135545050Y-119805299D01*
X135545055Y-119805299D01*
X135545062Y-119805300D01*
X135858865Y-119805300D01*
X135926986Y-119825302D01*
X135973479Y-119878958D01*
X135979862Y-119896147D01*
X135984554Y-119912299D01*
X135995471Y-119930758D01*
X136004168Y-119948511D01*
X136012064Y-119968455D01*
X136012067Y-119968460D01*
X136030052Y-119993213D01*
X136040965Y-120008232D01*
X136044221Y-120013190D01*
X136064533Y-120047537D01*
X136069247Y-120055507D01*
X136084414Y-120070674D01*
X136097251Y-120085704D01*
X136109859Y-120103057D01*
X136113467Y-120106042D01*
X136147739Y-120134394D01*
X136152120Y-120138380D01*
X136392361Y-120378621D01*
X136632046Y-120618306D01*
X136666072Y-120680618D01*
X136661007Y-120751433D01*
X136618460Y-120808269D01*
X136609099Y-120814641D01*
X136569053Y-120839341D01*
X136561141Y-120847254D01*
X136498829Y-120881280D01*
X136428014Y-120876215D01*
X136382951Y-120847254D01*
X136375439Y-120839742D01*
X136375433Y-120839737D01*
X136227107Y-120748248D01*
X136061676Y-120693431D01*
X136061673Y-120693430D01*
X135959584Y-120683000D01*
X135863900Y-120683000D01*
X135863900Y-121794000D01*
X135843898Y-121862121D01*
X135790242Y-121908614D01*
X135737900Y-121920000D01*
X135481900Y-121920000D01*
X135413779Y-121899998D01*
X135367286Y-121846342D01*
X135355900Y-121794000D01*
X135355900Y-120683000D01*
X135260215Y-120683000D01*
X135158126Y-120693430D01*
X135158123Y-120693431D01*
X134992692Y-120748248D01*
X134844366Y-120839737D01*
X134844360Y-120839742D01*
X134721142Y-120962960D01*
X134721133Y-120962971D01*
X134702469Y-120993230D01*
X134649682Y-121040707D01*
X134579607Y-121052109D01*
X134514492Y-121023815D01*
X134506142Y-121016182D01*
X131525775Y-118035815D01*
X131515564Y-118023069D01*
X131515371Y-118023230D01*
X131510317Y-118017121D01*
X131457214Y-117967254D01*
X131435243Y-117945282D01*
X131435225Y-117945266D01*
X131429382Y-117940734D01*
X131424867Y-117936878D01*
X131422239Y-117934410D01*
X131389033Y-117903228D01*
X131389030Y-117903226D01*
X131389025Y-117903223D01*
X131370238Y-117892894D01*
X131353718Y-117882043D01*
X131336767Y-117868895D01*
X131291639Y-117849366D01*
X131286321Y-117846761D01*
X131259135Y-117831816D01*
X131243238Y-117823076D01*
X131243235Y-117823075D01*
X131222468Y-117817743D01*
X131203765Y-117811340D01*
X131193603Y-117806943D01*
X131184076Y-117802820D01*
X131184074Y-117802819D01*
X131184075Y-117802819D01*
X131135519Y-117795129D01*
X131129704Y-117793925D01*
X131082088Y-117781700D01*
X131060641Y-117781700D01*
X131040932Y-117780149D01*
X131019748Y-117776794D01*
X131019747Y-117776794D01*
X130970806Y-117781420D01*
X130964873Y-117781700D01*
X129103052Y-117781700D01*
X129038913Y-117764153D01*
X128898405Y-117681056D01*
X128738629Y-117634637D01*
X128701306Y-117631700D01*
X128701302Y-117631700D01*
X126918298Y-117631700D01*
X126918294Y-117631700D01*
X126880970Y-117634637D01*
X126721194Y-117681056D01*
X126577996Y-117765744D01*
X126577989Y-117765749D01*
X126460349Y-117883389D01*
X126460344Y-117883396D01*
X126375656Y-118026594D01*
X126329237Y-118186370D01*
X126326300Y-118223694D01*
X126326300Y-118656706D01*
X126329237Y-118694029D01*
X126375656Y-118853805D01*
X126460343Y-118997002D01*
X126461098Y-118997975D01*
X126461452Y-118998876D01*
X126464382Y-119003831D01*
X126463582Y-119004303D01*
X126487044Y-119064061D01*
X126473142Y-119133683D01*
X126461098Y-119152425D01*
X126460345Y-119153394D01*
X126376571Y-119295049D01*
X126357213Y-119320004D01*
X125249325Y-120427892D01*
X125235476Y-120439862D01*
X125216043Y-120454330D01*
X125182107Y-120494771D01*
X125178400Y-120498817D01*
X125172521Y-120504697D01*
X125172512Y-120504707D01*
X125151963Y-120530696D01*
X125137471Y-120547968D01*
X125102065Y-120590164D01*
X125098035Y-120596291D01*
X125097980Y-120596255D01*
X125093925Y-120602620D01*
X125093982Y-120602655D01*
X125090135Y-120608890D01*
X125090133Y-120608894D01*
X125090131Y-120608897D01*
X125086279Y-120615143D01*
X125085176Y-120614462D01*
X125043270Y-120662050D01*
X124974992Y-120681506D01*
X124907033Y-120660960D01*
X124860971Y-120606934D01*
X124850000Y-120555510D01*
X124850000Y-120547971D01*
X124850000Y-120547968D01*
X124849070Y-120540617D01*
X124848607Y-120534731D01*
X124847063Y-120485569D01*
X124841079Y-120464973D01*
X124837069Y-120445612D01*
X124835579Y-120433815D01*
X124834382Y-120424336D01*
X124816280Y-120378618D01*
X124814362Y-120373014D01*
X124800645Y-120325800D01*
X124789724Y-120307335D01*
X124781031Y-120289589D01*
X124773135Y-120269644D01*
X124744236Y-120229870D01*
X124740982Y-120224917D01*
X124715953Y-120182593D01*
X124715952Y-120182591D01*
X124700788Y-120167427D01*
X124687947Y-120152393D01*
X124675341Y-120135043D01*
X124675336Y-120135038D01*
X124654218Y-120117569D01*
X124637450Y-120103697D01*
X124633077Y-120099717D01*
X124380205Y-119846845D01*
X124346179Y-119784533D01*
X124343300Y-119757750D01*
X124343300Y-119493694D01*
X124340362Y-119456370D01*
X124338859Y-119451195D01*
X124293945Y-119296599D01*
X124293943Y-119296597D01*
X124293943Y-119296594D01*
X124209256Y-119153398D01*
X124209255Y-119153397D01*
X124209253Y-119153393D01*
X124209249Y-119153389D01*
X124208508Y-119152433D01*
X124208156Y-119151537D01*
X124205218Y-119146569D01*
X124206019Y-119146095D01*
X124182556Y-119086350D01*
X124196452Y-119016726D01*
X124208508Y-118997967D01*
X124209245Y-118997014D01*
X124209253Y-118997007D01*
X124293945Y-118853801D01*
X124340362Y-118694031D01*
X124341341Y-118681587D01*
X124343300Y-118656706D01*
X124343300Y-118223694D01*
X124340362Y-118186370D01*
X124296622Y-118035815D01*
X124293945Y-118026599D01*
X124293943Y-118026597D01*
X124293943Y-118026594D01*
X124209255Y-117883396D01*
X124209250Y-117883389D01*
X124091610Y-117765749D01*
X124091603Y-117765744D01*
X123948405Y-117681056D01*
X123788629Y-117634637D01*
X123751306Y-117631700D01*
X123751302Y-117631700D01*
X121968298Y-117631700D01*
X121968294Y-117631700D01*
X121930970Y-117634637D01*
X121771194Y-117681056D01*
X121627996Y-117765744D01*
X121627989Y-117765749D01*
X121510349Y-117883389D01*
X121510344Y-117883396D01*
X121425656Y-118026594D01*
X121379237Y-118186370D01*
X121376300Y-118223694D01*
X121376300Y-118583164D01*
X121356298Y-118651285D01*
X121302642Y-118697778D01*
X121232368Y-118707882D01*
X121210668Y-118702769D01*
X121073919Y-118657456D01*
X121042781Y-118647138D01*
X121042779Y-118647137D01*
X121042777Y-118647137D01*
X120940621Y-118636700D01*
X120341187Y-118636700D01*
X120239019Y-118647137D01*
X120073479Y-118701991D01*
X119925053Y-118793542D01*
X119817494Y-118901101D01*
X119755182Y-118935126D01*
X119684366Y-118930060D01*
X119639305Y-118901101D01*
X119531746Y-118793542D01*
X119531744Y-118793540D01*
X119476856Y-118759685D01*
X119429379Y-118706899D01*
X119417976Y-118636824D01*
X119446269Y-118571709D01*
X119453909Y-118563350D01*
X120076526Y-117940734D01*
X120776954Y-117240305D01*
X120839267Y-117206279D01*
X120866050Y-117203400D01*
X134959200Y-117203400D01*
X135027321Y-117223402D01*
G37*
%TD.AperFunction*%
%TA.AperFunction,Conductor*%
G36*
X130742071Y-119118702D02*
G01*
X130763045Y-119135605D01*
X133004045Y-121376605D01*
X133038071Y-121438917D01*
X133033006Y-121509732D01*
X132990459Y-121566568D01*
X132923939Y-121591379D01*
X132914950Y-121591700D01*
X129347228Y-121591700D01*
X129279107Y-121571698D01*
X129232614Y-121518042D01*
X129222510Y-121447768D01*
X129238774Y-121401562D01*
X129243480Y-121393603D01*
X129289793Y-121234200D01*
X127681800Y-121234200D01*
X127613679Y-121214198D01*
X127567186Y-121160542D01*
X127555800Y-121108200D01*
X127555800Y-120852200D01*
X127575802Y-120784079D01*
X127629458Y-120737586D01*
X127681800Y-120726200D01*
X129289792Y-120726200D01*
X129243481Y-120566798D01*
X129158853Y-120423700D01*
X129158185Y-120422839D01*
X129157871Y-120422040D01*
X129154819Y-120416879D01*
X129155651Y-120416386D01*
X129132237Y-120356754D01*
X129146136Y-120287131D01*
X129158190Y-120268376D01*
X129159244Y-120267015D01*
X129159253Y-120267007D01*
X129203470Y-120192240D01*
X129243943Y-120123805D01*
X129243943Y-120123803D01*
X129243945Y-120123801D01*
X129290362Y-119964031D01*
X129293300Y-119926702D01*
X129293300Y-119493698D01*
X129292859Y-119488100D01*
X129290362Y-119456370D01*
X129288859Y-119451195D01*
X129243945Y-119296599D01*
X129239355Y-119288837D01*
X129221897Y-119220021D01*
X129244415Y-119152690D01*
X129299760Y-119108222D01*
X129347810Y-119098700D01*
X130673950Y-119098700D01*
X130742071Y-119118702D01*
G37*
%TD.AperFunction*%
%TD*%
M02*
