%TF.GenerationSoftware,KiCad,Pcbnew,7.0.6*%
%TF.CreationDate,2023-11-27T09:51:19+01:00*%
%TF.ProjectId,PSACANBridgeHW_v14,50534143-414e-4427-9269-64676548575f,rev?*%
%TF.SameCoordinates,Original*%
%TF.FileFunction,Copper,L2,Bot*%
%TF.FilePolarity,Positive*%
%FSLAX46Y46*%
G04 Gerber Fmt 4.6, Leading zero omitted, Abs format (unit mm)*
G04 Created by KiCad (PCBNEW 7.0.6) date 2023-11-27 09:51:19*
%MOMM*%
%LPD*%
G01*
G04 APERTURE LIST*
G04 Aperture macros list*
%AMRoundRect*
0 Rectangle with rounded corners*
0 $1 Rounding radius*
0 $2 $3 $4 $5 $6 $7 $8 $9 X,Y pos of 4 corners*
0 Add a 4 corners polygon primitive as box body*
4,1,4,$2,$3,$4,$5,$6,$7,$8,$9,$2,$3,0*
0 Add four circle primitives for the rounded corners*
1,1,$1+$1,$2,$3*
1,1,$1+$1,$4,$5*
1,1,$1+$1,$6,$7*
1,1,$1+$1,$8,$9*
0 Add four rect primitives between the rounded corners*
20,1,$1+$1,$2,$3,$4,$5,0*
20,1,$1+$1,$4,$5,$6,$7,0*
20,1,$1+$1,$6,$7,$8,$9,0*
20,1,$1+$1,$8,$9,$2,$3,0*%
G04 Aperture macros list end*
%TA.AperFunction,ComponentPad*%
%ADD10RoundRect,0.250000X0.725000X-0.600000X0.725000X0.600000X-0.725000X0.600000X-0.725000X-0.600000X0*%
%TD*%
%TA.AperFunction,ComponentPad*%
%ADD11O,1.950000X1.700000*%
%TD*%
%TA.AperFunction,ComponentPad*%
%ADD12R,1.600000X1.600000*%
%TD*%
%TA.AperFunction,ComponentPad*%
%ADD13C,1.600000*%
%TD*%
%TA.AperFunction,ViaPad*%
%ADD14C,0.800000*%
%TD*%
%TA.AperFunction,Conductor*%
%ADD15C,0.300000*%
%TD*%
%TA.AperFunction,Conductor*%
%ADD16C,0.500000*%
%TD*%
G04 APERTURE END LIST*
D10*
%TO.P,J2,1,Pin_1*%
%TO.N,/+12V*%
X117557500Y-147574000D03*
D11*
%TO.P,J2,2,Pin_2*%
%TO.N,GNDD*%
X117557500Y-145074000D03*
%TO.P,J2,3,Pin_3*%
%TO.N,/CAN1_H*%
X117557500Y-142574000D03*
%TO.P,J2,4,Pin_4*%
%TO.N,/CAN1_L*%
X117557500Y-140074000D03*
%TO.P,J2,5,Pin_5*%
%TO.N,/CAN2_H*%
X117557500Y-137574000D03*
%TO.P,J2,6,Pin_6*%
%TO.N,/CAN2_L*%
X117557500Y-135074000D03*
%TD*%
D12*
%TO.P,C8,1*%
%TO.N,5V*%
X175000000Y-145262600D03*
D13*
%TO.P,C8,2*%
%TO.N,GNDD*%
X172500000Y-145262600D03*
%TD*%
D12*
%TO.P,C7,1*%
%TO.N,/+12V*%
X141147800Y-153807800D03*
D13*
%TO.P,C7,2*%
%TO.N,GNDD*%
X141147800Y-151307800D03*
%TD*%
D14*
%TO.N,GNDD*%
X137439400Y-123494800D03*
X140868400Y-123494800D03*
X126695200Y-149631400D03*
X134848600Y-135839200D03*
X141274800Y-139369800D03*
X135559800Y-121462800D03*
X127736600Y-121031000D03*
X138201400Y-149910800D03*
X127812800Y-128625600D03*
X153797000Y-152781000D03*
X150469600Y-152781000D03*
X124028200Y-123952000D03*
X122758200Y-122224800D03*
%TO.N,/CAN_RX_R*%
X155219800Y-124228900D03*
X164045100Y-132523900D03*
%TO.N,/IRQ*%
X136224300Y-126482300D03*
X148731300Y-129641300D03*
%TO.N,/CAN_RX*%
X129918500Y-124299200D03*
X148610300Y-123789900D03*
%TO.N,/MISO*%
X131939000Y-129653500D03*
X148731300Y-122290500D03*
%TO.N,/SCK*%
X135488300Y-128221700D03*
X156239300Y-132074700D03*
%TO.N,5V*%
X149152900Y-125953400D03*
X130053100Y-125830100D03*
%TD*%
D15*
%TO.N,GNDD*%
X137439400Y-123494800D02*
X140868400Y-123494800D01*
%TO.N,/CAN_RX_R*%
X163514800Y-132523900D02*
X164045100Y-132523900D01*
X155219800Y-124228900D02*
X163514800Y-132523900D01*
%TO.N,/IRQ*%
X139383300Y-129641300D02*
X148731300Y-129641300D01*
X136224300Y-126482300D02*
X139383300Y-129641300D01*
%TO.N,/CAN_RX*%
X148101000Y-124299200D02*
X129918500Y-124299200D01*
X148610300Y-123789900D02*
X148101000Y-124299200D01*
D16*
%TO.N,/+12V*%
X123791300Y-153807800D02*
X117557500Y-147574000D01*
X141147800Y-153807800D02*
X123791300Y-153807800D01*
D15*
%TO.N,/MISO*%
X130849100Y-122290500D02*
X148731300Y-122290500D01*
X129117600Y-124022000D02*
X130849100Y-122290500D01*
X129117600Y-126832100D02*
X129117600Y-124022000D01*
X131939000Y-129653500D02*
X129117600Y-126832100D01*
%TO.N,/SCK*%
X139341300Y-132074700D02*
X135488300Y-128221700D01*
X156239300Y-132074700D02*
X139341300Y-132074700D01*
D16*
%TO.N,5V*%
X153429500Y-130230000D02*
X149152900Y-125953400D01*
X155742400Y-130230000D02*
X153429500Y-130230000D01*
X157196600Y-131684200D02*
X155742400Y-130230000D01*
X157196600Y-131876200D02*
X157196600Y-131684200D01*
X172000800Y-146680400D02*
X157196600Y-131876200D01*
X173582200Y-146680400D02*
X172000800Y-146680400D01*
X175000000Y-145262600D02*
X173582200Y-146680400D01*
X130352800Y-125530400D02*
X130053100Y-125830100D01*
X148729900Y-125530400D02*
X130352800Y-125530400D01*
X149152900Y-125953400D02*
X148729900Y-125530400D01*
%TD*%
%TA.AperFunction,Conductor*%
%TO.N,GNDD*%
G36*
X147930063Y-122969002D02*
G01*
X147976556Y-123022658D01*
X147986660Y-123092932D01*
X147957166Y-123157512D01*
X147955578Y-123159310D01*
X147871265Y-123252948D01*
X147871258Y-123252958D01*
X147775776Y-123418338D01*
X147775773Y-123418345D01*
X147731813Y-123553637D01*
X147691739Y-123612242D01*
X147626342Y-123639879D01*
X147611980Y-123640700D01*
X130734350Y-123640700D01*
X130666229Y-123620698D01*
X130619736Y-123567042D01*
X130609632Y-123496768D01*
X130639126Y-123432188D01*
X130645255Y-123425604D01*
X130817902Y-123252958D01*
X131084955Y-122985904D01*
X131147268Y-122951879D01*
X131174051Y-122949000D01*
X147861942Y-122949000D01*
X147930063Y-122969002D01*
G37*
%TD.AperFunction*%
%TA.AperFunction,Conductor*%
G36*
X177344531Y-115899450D02*
G01*
X177412647Y-115919469D01*
X177459126Y-115973136D01*
X177470500Y-116025450D01*
X177470500Y-156389450D01*
X177450498Y-156457571D01*
X177396842Y-156504064D01*
X177344469Y-156515450D01*
X112126469Y-156499548D01*
X112058353Y-156479529D01*
X112011874Y-156425862D01*
X112000500Y-156373548D01*
X112000500Y-152650000D01*
X114265255Y-152650000D01*
X114284820Y-152898599D01*
X114285074Y-152901819D01*
X114344041Y-153147437D01*
X114344042Y-153147439D01*
X114440707Y-153380809D01*
X114572689Y-153596184D01*
X114736738Y-153788262D01*
X114928816Y-153952311D01*
X115144191Y-154084293D01*
X115377561Y-154180958D01*
X115623180Y-154239926D01*
X115875000Y-154259745D01*
X116126820Y-154239926D01*
X116372439Y-154180958D01*
X116605809Y-154084293D01*
X116821184Y-153952311D01*
X117013262Y-153788262D01*
X117177311Y-153596184D01*
X117309293Y-153380809D01*
X117405958Y-153147439D01*
X117464926Y-152901820D01*
X117484745Y-152650000D01*
X117464926Y-152398180D01*
X117405958Y-152152561D01*
X117309293Y-151919191D01*
X117177311Y-151703816D01*
X117013262Y-151511738D01*
X116821184Y-151347689D01*
X116605809Y-151215707D01*
X116526008Y-151182652D01*
X116372437Y-151119041D01*
X116167144Y-151069755D01*
X116126820Y-151060074D01*
X115875000Y-151040255D01*
X115623180Y-151060074D01*
X115377562Y-151119041D01*
X115144192Y-151215706D01*
X114928817Y-151347688D01*
X114736738Y-151511738D01*
X114572688Y-151703817D01*
X114440706Y-151919192D01*
X114344041Y-152152562D01*
X114285074Y-152398180D01*
X114265255Y-152650000D01*
X112000500Y-152650000D01*
X112000500Y-142516144D01*
X116070315Y-142516144D01*
X116080130Y-142747178D01*
X116128851Y-142973240D01*
X116215075Y-143187815D01*
X116215077Y-143187819D01*
X116277282Y-143288845D01*
X116336321Y-143384730D01*
X116489102Y-143558324D01*
X116669024Y-143703600D01*
X116690722Y-143715721D01*
X116740435Y-143766401D01*
X116754858Y-143835918D01*
X116729407Y-143902196D01*
X116699828Y-143930111D01*
X116576294Y-144013606D01*
X116576286Y-144013612D01*
X116409403Y-144173556D01*
X116409397Y-144173564D01*
X116271943Y-144359413D01*
X116167869Y-144565834D01*
X116100179Y-144786864D01*
X116095937Y-144820000D01*
X117156102Y-144820000D01*
X117120981Y-144874649D01*
X117082500Y-145005705D01*
X117082500Y-145142295D01*
X117120981Y-145273351D01*
X117156102Y-145328000D01*
X116098061Y-145328000D01*
X116129331Y-145473093D01*
X116215522Y-145687587D01*
X116336727Y-145884435D01*
X116489451Y-146057961D01*
X116489450Y-146057961D01*
X116516974Y-146080184D01*
X116557410Y-146138541D01*
X116559877Y-146209494D01*
X116523591Y-146270518D01*
X116503967Y-146285458D01*
X116358853Y-146374966D01*
X116358841Y-146374975D01*
X116233475Y-146500341D01*
X116233470Y-146500347D01*
X116140385Y-146651262D01*
X116084613Y-146819572D01*
X116084612Y-146819579D01*
X116074000Y-146923446D01*
X116074000Y-148224544D01*
X116084612Y-148328425D01*
X116140385Y-148496738D01*
X116233470Y-148647652D01*
X116233475Y-148647658D01*
X116358841Y-148773024D01*
X116358847Y-148773029D01*
X116358848Y-148773030D01*
X116509762Y-148866115D01*
X116678074Y-148921887D01*
X116781955Y-148932500D01*
X117791128Y-148932499D01*
X117859249Y-148952501D01*
X117880223Y-148969404D01*
X123209392Y-154298573D01*
X123221365Y-154312427D01*
X123235830Y-154331857D01*
X123276275Y-154365794D01*
X123280321Y-154369502D01*
X123286200Y-154375381D01*
X123312195Y-154395935D01*
X123371660Y-154445832D01*
X123371666Y-154445835D01*
X123377795Y-154449867D01*
X123377758Y-154449922D01*
X123384111Y-154453969D01*
X123384147Y-154453913D01*
X123390392Y-154457765D01*
X123390395Y-154457767D01*
X123460752Y-154490575D01*
X123530112Y-154525409D01*
X123530113Y-154525409D01*
X123530117Y-154525411D01*
X123537013Y-154527921D01*
X123536989Y-154527985D01*
X123544105Y-154530459D01*
X123544127Y-154530395D01*
X123551091Y-154532703D01*
X123627148Y-154548407D01*
X123702639Y-154566299D01*
X123702640Y-154566299D01*
X123702644Y-154566300D01*
X123702648Y-154566300D01*
X123709933Y-154567152D01*
X123709925Y-154567219D01*
X123717423Y-154567985D01*
X123717429Y-154567919D01*
X123724736Y-154568557D01*
X123724743Y-154568559D01*
X123802381Y-154566300D01*
X139716429Y-154566300D01*
X139784550Y-154586302D01*
X139831043Y-154639958D01*
X139841707Y-154678832D01*
X139845809Y-154716996D01*
X139845811Y-154717004D01*
X139896910Y-154854002D01*
X139896912Y-154854007D01*
X139984538Y-154971061D01*
X140101592Y-155058687D01*
X140101594Y-155058688D01*
X140101596Y-155058689D01*
X140160675Y-155080724D01*
X140238595Y-155109788D01*
X140238603Y-155109790D01*
X140299150Y-155116299D01*
X140299155Y-155116299D01*
X140299162Y-155116300D01*
X140299168Y-155116300D01*
X141996432Y-155116300D01*
X141996438Y-155116300D01*
X141996445Y-155116299D01*
X141996449Y-155116299D01*
X142056996Y-155109790D01*
X142056999Y-155109789D01*
X142057001Y-155109789D01*
X142194004Y-155058689D01*
X142311061Y-154971061D01*
X142398689Y-154854004D01*
X142449789Y-154717001D01*
X142453893Y-154678832D01*
X142456299Y-154656449D01*
X142456300Y-154656432D01*
X142456300Y-152959167D01*
X142456299Y-152959150D01*
X142449790Y-152898603D01*
X142449788Y-152898595D01*
X142398689Y-152761597D01*
X142398687Y-152761592D01*
X142315150Y-152650000D01*
X171915255Y-152650000D01*
X171934821Y-152898599D01*
X171935074Y-152901819D01*
X171994041Y-153147437D01*
X171994042Y-153147439D01*
X172090707Y-153380809D01*
X172222689Y-153596184D01*
X172386738Y-153788262D01*
X172578816Y-153952311D01*
X172794191Y-154084293D01*
X173027561Y-154180958D01*
X173273180Y-154239926D01*
X173525000Y-154259745D01*
X173776820Y-154239926D01*
X174022439Y-154180958D01*
X174255809Y-154084293D01*
X174471184Y-153952311D01*
X174663262Y-153788262D01*
X174827311Y-153596184D01*
X174959293Y-153380809D01*
X175055958Y-153147439D01*
X175114926Y-152901820D01*
X175134745Y-152650000D01*
X175114926Y-152398180D01*
X175055958Y-152152561D01*
X174959293Y-151919191D01*
X174827311Y-151703816D01*
X174663262Y-151511738D01*
X174471184Y-151347689D01*
X174255809Y-151215707D01*
X174176008Y-151182652D01*
X174022437Y-151119041D01*
X173817144Y-151069755D01*
X173776820Y-151060074D01*
X173525000Y-151040255D01*
X173524999Y-151040255D01*
X173273180Y-151060074D01*
X173027562Y-151119041D01*
X172794192Y-151215706D01*
X172578817Y-151347688D01*
X172386738Y-151511738D01*
X172222688Y-151703817D01*
X172090706Y-151919192D01*
X171994041Y-152152562D01*
X171935074Y-152398180D01*
X171915255Y-152650000D01*
X142315150Y-152650000D01*
X142311061Y-152644538D01*
X142194007Y-152556912D01*
X142194002Y-152556910D01*
X142057004Y-152505811D01*
X142056996Y-152505809D01*
X141993083Y-152498939D01*
X141993194Y-152497903D01*
X141930328Y-152475716D01*
X141886782Y-152419642D01*
X141884472Y-152403681D01*
X141187318Y-151706527D01*
X141272948Y-151692965D01*
X141385845Y-151635441D01*
X141475441Y-151545845D01*
X141532965Y-151432948D01*
X141546527Y-151347318D01*
X142234897Y-152035688D01*
X142234899Y-152035688D01*
X142284888Y-151964297D01*
X142381611Y-151756873D01*
X142381613Y-151756868D01*
X142440848Y-151535802D01*
X142460795Y-151307799D01*
X142440848Y-151079797D01*
X142381613Y-150858731D01*
X142381611Y-150858726D01*
X142284886Y-150651298D01*
X142234900Y-150579910D01*
X142234898Y-150579910D01*
X141546527Y-151268281D01*
X141532965Y-151182652D01*
X141475441Y-151069755D01*
X141385845Y-150980159D01*
X141272948Y-150922635D01*
X141187317Y-150909072D01*
X141875688Y-150220699D01*
X141875688Y-150220698D01*
X141804301Y-150170713D01*
X141596873Y-150073988D01*
X141596868Y-150073986D01*
X141375800Y-150014751D01*
X141375804Y-150014751D01*
X141147800Y-149994804D01*
X140919797Y-150014751D01*
X140698731Y-150073986D01*
X140698726Y-150073988D01*
X140491300Y-150170713D01*
X140419909Y-150220700D01*
X141108281Y-150909072D01*
X141022652Y-150922635D01*
X140909755Y-150980159D01*
X140820159Y-151069755D01*
X140762635Y-151182652D01*
X140749073Y-151268281D01*
X140060700Y-150579909D01*
X140010713Y-150651300D01*
X139913988Y-150858726D01*
X139913986Y-150858731D01*
X139854751Y-151079797D01*
X139834804Y-151307799D01*
X139854751Y-151535802D01*
X139913986Y-151756868D01*
X139913988Y-151756873D01*
X140010713Y-151964301D01*
X140060699Y-152035688D01*
X140749072Y-151347316D01*
X140762635Y-151432948D01*
X140820159Y-151545845D01*
X140909755Y-151635441D01*
X141022652Y-151692965D01*
X141108282Y-151706527D01*
X140408229Y-152406579D01*
X140403090Y-152432150D01*
X140353691Y-152483142D01*
X140302431Y-152498142D01*
X140302517Y-152498939D01*
X140238603Y-152505809D01*
X140238595Y-152505811D01*
X140101597Y-152556910D01*
X140101592Y-152556912D01*
X139984538Y-152644538D01*
X139896912Y-152761592D01*
X139896910Y-152761597D01*
X139845811Y-152898595D01*
X139845809Y-152898603D01*
X139841707Y-152936768D01*
X139814538Y-153002361D01*
X139756220Y-153042852D01*
X139716429Y-153049300D01*
X124157671Y-153049300D01*
X124089550Y-153029298D01*
X124068576Y-153012395D01*
X119077904Y-148021723D01*
X119043878Y-147959411D01*
X119040999Y-147932628D01*
X119040999Y-146923455D01*
X119030387Y-146819574D01*
X119030386Y-146819572D01*
X118974615Y-146651262D01*
X118881530Y-146500348D01*
X118881529Y-146500347D01*
X118881524Y-146500341D01*
X118756158Y-146374975D01*
X118756152Y-146374970D01*
X118609753Y-146284670D01*
X118562275Y-146231884D01*
X118550872Y-146161809D01*
X118579165Y-146096693D01*
X118588716Y-146086462D01*
X118705601Y-145974436D01*
X118705602Y-145974435D01*
X118843056Y-145788586D01*
X118947130Y-145582165D01*
X119014820Y-145361135D01*
X119019063Y-145328000D01*
X117958898Y-145328000D01*
X117994019Y-145273351D01*
X118032500Y-145142295D01*
X118032500Y-145005705D01*
X117994019Y-144874649D01*
X117958898Y-144820000D01*
X119016939Y-144820000D01*
X118985668Y-144674906D01*
X118899477Y-144460412D01*
X118778272Y-144263564D01*
X118625548Y-144090038D01*
X118625545Y-144090035D01*
X118445697Y-143944817D01*
X118445692Y-143944814D01*
X118424301Y-143932864D01*
X118374587Y-143882179D01*
X118360167Y-143812662D01*
X118385620Y-143746385D01*
X118415190Y-143718479D01*
X118539023Y-143634783D01*
X118705976Y-143474772D01*
X118843485Y-143288847D01*
X118947595Y-143082357D01*
X119015311Y-142861243D01*
X119044684Y-142631865D01*
X119034869Y-142400822D01*
X118986149Y-142174762D01*
X118899926Y-141960187D01*
X118778679Y-141763270D01*
X118625898Y-141589676D01*
X118445976Y-141444400D01*
X118424764Y-141432550D01*
X118375052Y-141381869D01*
X118360631Y-141312352D01*
X118386082Y-141246074D01*
X118415661Y-141218161D01*
X118539023Y-141134783D01*
X118705976Y-140974772D01*
X118843485Y-140788847D01*
X118947595Y-140582357D01*
X119015311Y-140361243D01*
X119044684Y-140131865D01*
X119034869Y-139900822D01*
X118986149Y-139674762D01*
X118899926Y-139460187D01*
X118778679Y-139263270D01*
X118625898Y-139089676D01*
X118445976Y-138944400D01*
X118424764Y-138932550D01*
X118375052Y-138881869D01*
X118360631Y-138812352D01*
X118386082Y-138746074D01*
X118415661Y-138718161D01*
X118539023Y-138634783D01*
X118705976Y-138474772D01*
X118843485Y-138288847D01*
X118947595Y-138082357D01*
X119015311Y-137861243D01*
X119044684Y-137631865D01*
X119034869Y-137400822D01*
X118986149Y-137174762D01*
X118899926Y-136960187D01*
X118778679Y-136763270D01*
X118625898Y-136589676D01*
X118445976Y-136444400D01*
X118424764Y-136432550D01*
X118375052Y-136381869D01*
X118360631Y-136312352D01*
X118386082Y-136246074D01*
X118415661Y-136218161D01*
X118539023Y-136134783D01*
X118705976Y-135974772D01*
X118843485Y-135788847D01*
X118947595Y-135582357D01*
X119015311Y-135361243D01*
X119044684Y-135131865D01*
X119034869Y-134900822D01*
X118986149Y-134674762D01*
X118899926Y-134460187D01*
X118778679Y-134263270D01*
X118625898Y-134089676D01*
X118445976Y-133944400D01*
X118244091Y-133831620D01*
X118244090Y-133831619D01*
X118244089Y-133831619D01*
X118026057Y-133754582D01*
X117974546Y-133745749D01*
X117798125Y-133715500D01*
X117374787Y-133715500D01*
X117202082Y-133730198D01*
X117202078Y-133730199D01*
X116978298Y-133788468D01*
X116978294Y-133788469D01*
X116978293Y-133788470D01*
X116923482Y-133813246D01*
X116767576Y-133883719D01*
X116767570Y-133883722D01*
X116575978Y-134013216D01*
X116575977Y-134013217D01*
X116409021Y-134173230D01*
X116271513Y-134359154D01*
X116167403Y-134565647D01*
X116133988Y-134674759D01*
X116099689Y-134786757D01*
X116085083Y-134900822D01*
X116070315Y-135016144D01*
X116080130Y-135247178D01*
X116128851Y-135473240D01*
X116215075Y-135687815D01*
X116215077Y-135687819D01*
X116277282Y-135788845D01*
X116336321Y-135884730D01*
X116489102Y-136058324D01*
X116669024Y-136203600D01*
X116690233Y-136215448D01*
X116739946Y-136266129D01*
X116754369Y-136335645D01*
X116728918Y-136401923D01*
X116699339Y-136429838D01*
X116575978Y-136513216D01*
X116575977Y-136513217D01*
X116409021Y-136673230D01*
X116271513Y-136859154D01*
X116167403Y-137065647D01*
X116133988Y-137174759D01*
X116099689Y-137286757D01*
X116085083Y-137400822D01*
X116070315Y-137516144D01*
X116080130Y-137747178D01*
X116128851Y-137973240D01*
X116215075Y-138187815D01*
X116215077Y-138187819D01*
X116277282Y-138288845D01*
X116336321Y-138384730D01*
X116489102Y-138558324D01*
X116669024Y-138703600D01*
X116690233Y-138715448D01*
X116739946Y-138766129D01*
X116754369Y-138835645D01*
X116728918Y-138901923D01*
X116699339Y-138929838D01*
X116575978Y-139013216D01*
X116575977Y-139013217D01*
X116409021Y-139173230D01*
X116271513Y-139359154D01*
X116167403Y-139565647D01*
X116133988Y-139674759D01*
X116099689Y-139786757D01*
X116085083Y-139900822D01*
X116070315Y-140016144D01*
X116080130Y-140247178D01*
X116128851Y-140473240D01*
X116215075Y-140687815D01*
X116215077Y-140687819D01*
X116277282Y-140788845D01*
X116336321Y-140884730D01*
X116489102Y-141058324D01*
X116669024Y-141203600D01*
X116690233Y-141215448D01*
X116739946Y-141266129D01*
X116754369Y-141335645D01*
X116728918Y-141401923D01*
X116699339Y-141429838D01*
X116575978Y-141513216D01*
X116575977Y-141513217D01*
X116409021Y-141673230D01*
X116271513Y-141859154D01*
X116167403Y-142065647D01*
X116133988Y-142174759D01*
X116099689Y-142286757D01*
X116085083Y-142400822D01*
X116070315Y-142516144D01*
X112000500Y-142516144D01*
X112000500Y-124001152D01*
X128454194Y-124001152D01*
X128458820Y-124050094D01*
X128459100Y-124056027D01*
X128459100Y-126745489D01*
X128457308Y-126761720D01*
X128457558Y-126761744D01*
X128456811Y-126769636D01*
X128459100Y-126842441D01*
X128459100Y-126873530D01*
X128460027Y-126880876D01*
X128460493Y-126886790D01*
X128462037Y-126935929D01*
X128462038Y-126935932D01*
X128468021Y-126956529D01*
X128472028Y-126975880D01*
X128474717Y-126997160D01*
X128474717Y-126997162D01*
X128492816Y-127042878D01*
X128494739Y-127048494D01*
X128508453Y-127095697D01*
X128508453Y-127095698D01*
X128519371Y-127114158D01*
X128528068Y-127131911D01*
X128535964Y-127151855D01*
X128535967Y-127151860D01*
X128542729Y-127161166D01*
X128564865Y-127191632D01*
X128568121Y-127196590D01*
X128593147Y-127238907D01*
X128608314Y-127254074D01*
X128621152Y-127269105D01*
X128633758Y-127286456D01*
X128671639Y-127317794D01*
X128676020Y-127321780D01*
X129947494Y-128593254D01*
X130996030Y-129641790D01*
X131030056Y-129704102D01*
X131032244Y-129717710D01*
X131045458Y-129843428D01*
X131104473Y-130025056D01*
X131104476Y-130025061D01*
X131199958Y-130190441D01*
X131199965Y-130190451D01*
X131327744Y-130332364D01*
X131327747Y-130332366D01*
X131482248Y-130444618D01*
X131656712Y-130522294D01*
X131843513Y-130562000D01*
X132034487Y-130562000D01*
X132221288Y-130522294D01*
X132395752Y-130444618D01*
X132550253Y-130332366D01*
X132578179Y-130301351D01*
X132678034Y-130190451D01*
X132678035Y-130190449D01*
X132678040Y-130190444D01*
X132773527Y-130025056D01*
X132832542Y-129843428D01*
X132852504Y-129653500D01*
X132832542Y-129463572D01*
X132773527Y-129281944D01*
X132678040Y-129116556D01*
X132678038Y-129116554D01*
X132678034Y-129116548D01*
X132550255Y-128974635D01*
X132395752Y-128862382D01*
X132221288Y-128784706D01*
X132034487Y-128745000D01*
X132013950Y-128745000D01*
X131945829Y-128724998D01*
X131924855Y-128708095D01*
X130153325Y-126936565D01*
X130119299Y-126874253D01*
X130124364Y-126803438D01*
X130166911Y-126746602D01*
X130216221Y-126724223D01*
X130335388Y-126698894D01*
X130509852Y-126621218D01*
X130664353Y-126508966D01*
X130681114Y-126490351D01*
X130792134Y-126367051D01*
X130792134Y-126367050D01*
X130792140Y-126367044D01*
X130800885Y-126351896D01*
X130852269Y-126302905D01*
X130910003Y-126288900D01*
X135191186Y-126288900D01*
X135259307Y-126308902D01*
X135305800Y-126362558D01*
X135316495Y-126428069D01*
X135310795Y-126482300D01*
X135310796Y-126482300D01*
X135330757Y-126672227D01*
X135354562Y-126745489D01*
X135389773Y-126853856D01*
X135418141Y-126902991D01*
X135485258Y-127019241D01*
X135485261Y-127019245D01*
X135560575Y-127102890D01*
X135591292Y-127166897D01*
X135582527Y-127237351D01*
X135537064Y-127291882D01*
X135469337Y-127313177D01*
X135466938Y-127313200D01*
X135392813Y-127313200D01*
X135206011Y-127352906D01*
X135031547Y-127430582D01*
X134877044Y-127542835D01*
X134749265Y-127684748D01*
X134749258Y-127684758D01*
X134653776Y-127850138D01*
X134653773Y-127850145D01*
X134594757Y-128031772D01*
X134574796Y-128221699D01*
X134594757Y-128411627D01*
X134624826Y-128504170D01*
X134653773Y-128593256D01*
X134653776Y-128593261D01*
X134749258Y-128758641D01*
X134749265Y-128758651D01*
X134877044Y-128900564D01*
X134877047Y-128900566D01*
X135031548Y-129012818D01*
X135206012Y-129090494D01*
X135392813Y-129130200D01*
X135413350Y-129130200D01*
X135481471Y-129150202D01*
X135502445Y-129167105D01*
X138814425Y-132479085D01*
X138824638Y-132491831D01*
X138824831Y-132491672D01*
X138829883Y-132497779D01*
X138829884Y-132497780D01*
X138882985Y-132547645D01*
X138904967Y-132569627D01*
X138904975Y-132569633D01*
X138910817Y-132574165D01*
X138915333Y-132578022D01*
X138951167Y-132611672D01*
X138969969Y-132622008D01*
X138986475Y-132632851D01*
X139003432Y-132646004D01*
X139048554Y-132665529D01*
X139053880Y-132668139D01*
X139096959Y-132691823D01*
X139096963Y-132691824D01*
X139117732Y-132697156D01*
X139136434Y-132703559D01*
X139156124Y-132712080D01*
X139204695Y-132719772D01*
X139210489Y-132720971D01*
X139258112Y-132733200D01*
X139279559Y-132733200D01*
X139299267Y-132734750D01*
X139320452Y-132738106D01*
X139358180Y-132734539D01*
X139369394Y-132733480D01*
X139375327Y-132733200D01*
X155559076Y-132733200D01*
X155627197Y-132753202D01*
X155633134Y-132757262D01*
X155782548Y-132865818D01*
X155957012Y-132943494D01*
X156143813Y-132983200D01*
X156334787Y-132983200D01*
X156521588Y-132943494D01*
X156696052Y-132865818D01*
X156850553Y-132753566D01*
X156850555Y-132753563D01*
X156850794Y-132753390D01*
X156917661Y-132729532D01*
X156986813Y-132745612D01*
X157013950Y-132766231D01*
X171418892Y-147171173D01*
X171430865Y-147185027D01*
X171445330Y-147204457D01*
X171485775Y-147238394D01*
X171489821Y-147242102D01*
X171495699Y-147247980D01*
X171521696Y-147268536D01*
X171581160Y-147318432D01*
X171581166Y-147318435D01*
X171587295Y-147322467D01*
X171587257Y-147322523D01*
X171593613Y-147326572D01*
X171593649Y-147326515D01*
X171599889Y-147330363D01*
X171599894Y-147330367D01*
X171670253Y-147363175D01*
X171739612Y-147398009D01*
X171739619Y-147398010D01*
X171746507Y-147400518D01*
X171746484Y-147400580D01*
X171753610Y-147403057D01*
X171753631Y-147402995D01*
X171760588Y-147405299D01*
X171760593Y-147405302D01*
X171836622Y-147421000D01*
X171867367Y-147428287D01*
X171912143Y-147438900D01*
X171919432Y-147439752D01*
X171919424Y-147439818D01*
X171926922Y-147440584D01*
X171926928Y-147440518D01*
X171934235Y-147441156D01*
X171934242Y-147441158D01*
X172011845Y-147438900D01*
X173517759Y-147438900D01*
X173536019Y-147440230D01*
X173540915Y-147440947D01*
X173559989Y-147443741D01*
X173593346Y-147440822D01*
X173612585Y-147439140D01*
X173618078Y-147438900D01*
X173626376Y-147438900D01*
X173626380Y-147438900D01*
X173652712Y-147435821D01*
X173659296Y-147435052D01*
X173666061Y-147434460D01*
X173736626Y-147428287D01*
X173736632Y-147428284D01*
X173743818Y-147426802D01*
X173743831Y-147426868D01*
X173751187Y-147425236D01*
X173751172Y-147425171D01*
X173758304Y-147423479D01*
X173758313Y-147423479D01*
X173831265Y-147396926D01*
X173904938Y-147372514D01*
X173904940Y-147372512D01*
X173911589Y-147369412D01*
X173911618Y-147369474D01*
X173918403Y-147366189D01*
X173918373Y-147366129D01*
X173924928Y-147362836D01*
X173924932Y-147362835D01*
X173989805Y-147320166D01*
X174055851Y-147279430D01*
X174055860Y-147279420D01*
X174061608Y-147274877D01*
X174061650Y-147274931D01*
X174067489Y-147270175D01*
X174067446Y-147270123D01*
X174073065Y-147265406D01*
X174073074Y-147265401D01*
X174098553Y-147238394D01*
X174126364Y-147208917D01*
X174727277Y-146608004D01*
X174789589Y-146573979D01*
X174816372Y-146571100D01*
X175848632Y-146571100D01*
X175848638Y-146571100D01*
X175848645Y-146571099D01*
X175848649Y-146571099D01*
X175909196Y-146564590D01*
X175909199Y-146564589D01*
X175909201Y-146564589D01*
X176046204Y-146513489D01*
X176063759Y-146500348D01*
X176163261Y-146425861D01*
X176250887Y-146308807D01*
X176250887Y-146308806D01*
X176250889Y-146308804D01*
X176301989Y-146171801D01*
X176303064Y-146161809D01*
X176308499Y-146111249D01*
X176308500Y-146111232D01*
X176308500Y-144413967D01*
X176308499Y-144413950D01*
X176301990Y-144353403D01*
X176301988Y-144353395D01*
X176250889Y-144216397D01*
X176250887Y-144216392D01*
X176163261Y-144099338D01*
X176046207Y-144011712D01*
X176046202Y-144011710D01*
X175909204Y-143960611D01*
X175909196Y-143960609D01*
X175848649Y-143954100D01*
X175848638Y-143954100D01*
X174151362Y-143954100D01*
X174151350Y-143954100D01*
X174090803Y-143960609D01*
X174090795Y-143960611D01*
X173953797Y-144011710D01*
X173953792Y-144011712D01*
X173836738Y-144099338D01*
X173749112Y-144216392D01*
X173749110Y-144216397D01*
X173698011Y-144353395D01*
X173698009Y-144353403D01*
X173691139Y-144417317D01*
X173690103Y-144417205D01*
X173667912Y-144480074D01*
X173611837Y-144523618D01*
X173595880Y-144525927D01*
X172898726Y-145223080D01*
X172885165Y-145137452D01*
X172827641Y-145024555D01*
X172738045Y-144934959D01*
X172625148Y-144877435D01*
X172539517Y-144863872D01*
X173227888Y-144175499D01*
X173227888Y-144175498D01*
X173156501Y-144125513D01*
X172949073Y-144028788D01*
X172949068Y-144028786D01*
X172728000Y-143969551D01*
X172728004Y-143969551D01*
X172500000Y-143949604D01*
X172271997Y-143969551D01*
X172050931Y-144028786D01*
X172050926Y-144028788D01*
X171843500Y-144125513D01*
X171772109Y-144175500D01*
X172460481Y-144863872D01*
X172374852Y-144877435D01*
X172261955Y-144934959D01*
X172172359Y-145024555D01*
X172114835Y-145137452D01*
X172101272Y-145223082D01*
X171412900Y-144534709D01*
X171362912Y-144606101D01*
X171362911Y-144606103D01*
X171323288Y-144691074D01*
X171276371Y-144744359D01*
X171208093Y-144763819D01*
X171140134Y-144743277D01*
X171119999Y-144726918D01*
X157976325Y-131583244D01*
X157945816Y-131533783D01*
X157945025Y-131531396D01*
X157941439Y-131515219D01*
X157941373Y-131515235D01*
X157939679Y-131508093D01*
X157939679Y-131508087D01*
X157913130Y-131435144D01*
X157888714Y-131361461D01*
X157888710Y-131361455D01*
X157885614Y-131354815D01*
X157885676Y-131354786D01*
X157882387Y-131347993D01*
X157882327Y-131348024D01*
X157879033Y-131341464D01*
X157836362Y-131276586D01*
X157795631Y-131210552D01*
X157791083Y-131204801D01*
X157791136Y-131204758D01*
X157786365Y-131198901D01*
X157786315Y-131198944D01*
X157781598Y-131193322D01*
X157725101Y-131140021D01*
X156324308Y-129739227D01*
X156312336Y-129725375D01*
X156306633Y-129717714D01*
X156297869Y-129705942D01*
X156297867Y-129705940D01*
X156257424Y-129672003D01*
X156253370Y-129668289D01*
X156247507Y-129662425D01*
X156221504Y-129641864D01*
X156162036Y-129591965D01*
X156155906Y-129587933D01*
X156155941Y-129587878D01*
X156149587Y-129583829D01*
X156149553Y-129583886D01*
X156143306Y-129580033D01*
X156072940Y-129547220D01*
X156072939Y-129547219D01*
X156003588Y-129512391D01*
X156003586Y-129512390D01*
X156003583Y-129512389D01*
X155996689Y-129509880D01*
X155996711Y-129509817D01*
X155989589Y-129507341D01*
X155989569Y-129507404D01*
X155982609Y-129505097D01*
X155906550Y-129489392D01*
X155831052Y-129471499D01*
X155823767Y-129470648D01*
X155823774Y-129470580D01*
X155816277Y-129469814D01*
X155816272Y-129469881D01*
X155808959Y-129469241D01*
X155808958Y-129469241D01*
X155731320Y-129471500D01*
X153795871Y-129471500D01*
X153727750Y-129451498D01*
X153706776Y-129434595D01*
X150073025Y-125800844D01*
X150042287Y-125750685D01*
X149987428Y-125581847D01*
X149987427Y-125581846D01*
X149987427Y-125581844D01*
X149891940Y-125416456D01*
X149891938Y-125416454D01*
X149891934Y-125416448D01*
X149764155Y-125274535D01*
X149609652Y-125162282D01*
X149553766Y-125137400D01*
X149435188Y-125084606D01*
X149394262Y-125075906D01*
X149372911Y-125071368D01*
X149310438Y-125037640D01*
X149298043Y-125023366D01*
X149285368Y-125006341D01*
X149244924Y-124972403D01*
X149240870Y-124968689D01*
X149235007Y-124962825D01*
X149209004Y-124942264D01*
X149209003Y-124942263D01*
X149149540Y-124892368D01*
X149149538Y-124892367D01*
X149149536Y-124892365D01*
X149143406Y-124888333D01*
X149143441Y-124888278D01*
X149137087Y-124884229D01*
X149137053Y-124884286D01*
X149130806Y-124880433D01*
X149060440Y-124847620D01*
X149020001Y-124827311D01*
X148968102Y-124778864D01*
X148950635Y-124710050D01*
X148973145Y-124642716D01*
X149025302Y-124599606D01*
X149067052Y-124581018D01*
X149221553Y-124468766D01*
X149221555Y-124468764D01*
X149349334Y-124326851D01*
X149349335Y-124326849D01*
X149349340Y-124326844D01*
X149405888Y-124228900D01*
X154306296Y-124228900D01*
X154326257Y-124418827D01*
X154342483Y-124468764D01*
X154385273Y-124600456D01*
X154385276Y-124600461D01*
X154480758Y-124765841D01*
X154480765Y-124765851D01*
X154608544Y-124907764D01*
X154608547Y-124907766D01*
X154763048Y-125020018D01*
X154937512Y-125097694D01*
X155124313Y-125137400D01*
X155144850Y-125137400D01*
X155212971Y-125157402D01*
X155233945Y-125174305D01*
X162987924Y-132928283D01*
X162998140Y-132941033D01*
X162998333Y-132940874D01*
X163003384Y-132946980D01*
X163056501Y-132996860D01*
X163078458Y-133018818D01*
X163078462Y-133018821D01*
X163078467Y-133018826D01*
X163084323Y-133023368D01*
X163088820Y-133027210D01*
X163124667Y-133060872D01*
X163143460Y-133071203D01*
X163159984Y-133082058D01*
X163176932Y-133095205D01*
X163222055Y-133114731D01*
X163227389Y-133117344D01*
X163270457Y-133141021D01*
X163270459Y-133141022D01*
X163270463Y-133141024D01*
X163291240Y-133146358D01*
X163309932Y-133152757D01*
X163329623Y-133161279D01*
X163363257Y-133166605D01*
X163363542Y-133166651D01*
X163427696Y-133197062D01*
X163429451Y-133198809D01*
X163433843Y-133202763D01*
X163433846Y-133202765D01*
X163433847Y-133202766D01*
X163588348Y-133315018D01*
X163762812Y-133392694D01*
X163949613Y-133432400D01*
X164140587Y-133432400D01*
X164327388Y-133392694D01*
X164501852Y-133315018D01*
X164656353Y-133202766D01*
X164701378Y-133152761D01*
X164784134Y-133060851D01*
X164784135Y-133060849D01*
X164784140Y-133060844D01*
X164879627Y-132895456D01*
X164938642Y-132713828D01*
X164958604Y-132523900D01*
X164938642Y-132333972D01*
X164879627Y-132152344D01*
X164784140Y-131986956D01*
X164784138Y-131986954D01*
X164784134Y-131986948D01*
X164656355Y-131845035D01*
X164501852Y-131732782D01*
X164327388Y-131655106D01*
X164140587Y-131615400D01*
X163949613Y-131615400D01*
X163762809Y-131655106D01*
X163713531Y-131677045D01*
X163643164Y-131686478D01*
X163578868Y-131656369D01*
X163573191Y-131651032D01*
X156162769Y-124240609D01*
X156128743Y-124178297D01*
X156126554Y-124164684D01*
X156126215Y-124161461D01*
X156113342Y-124038972D01*
X156054327Y-123857344D01*
X155958840Y-123691956D01*
X155958838Y-123691954D01*
X155958834Y-123691948D01*
X155831055Y-123550035D01*
X155676552Y-123437782D01*
X155502088Y-123360106D01*
X155315287Y-123320400D01*
X155124313Y-123320400D01*
X154937511Y-123360106D01*
X154763047Y-123437782D01*
X154608544Y-123550035D01*
X154480765Y-123691948D01*
X154480758Y-123691958D01*
X154385276Y-123857338D01*
X154385273Y-123857345D01*
X154326257Y-124038972D01*
X154306296Y-124228900D01*
X149405888Y-124228900D01*
X149444827Y-124161456D01*
X149503842Y-123979828D01*
X149523804Y-123789900D01*
X149503842Y-123599972D01*
X149444827Y-123418344D01*
X149349340Y-123252956D01*
X149285926Y-123182528D01*
X149255211Y-123118524D01*
X149263974Y-123048070D01*
X149305502Y-122996284D01*
X149342553Y-122969366D01*
X149342881Y-122969002D01*
X149470334Y-122827451D01*
X149470335Y-122827449D01*
X149470340Y-122827444D01*
X149565827Y-122662056D01*
X149624842Y-122480428D01*
X149644804Y-122290500D01*
X149624842Y-122100572D01*
X149565827Y-121918944D01*
X149470340Y-121753556D01*
X149470338Y-121753554D01*
X149470334Y-121753548D01*
X149342555Y-121611635D01*
X149188052Y-121499382D01*
X149013588Y-121421706D01*
X148826787Y-121382000D01*
X148635813Y-121382000D01*
X148449011Y-121421706D01*
X148274547Y-121499382D01*
X148125137Y-121607936D01*
X148058269Y-121631794D01*
X148051076Y-121632000D01*
X130935714Y-121632000D01*
X130919479Y-121630207D01*
X130919456Y-121630457D01*
X130911563Y-121629711D01*
X130838740Y-121632000D01*
X130807668Y-121632000D01*
X130807663Y-121632000D01*
X130807654Y-121632001D01*
X130800319Y-121632927D01*
X130794405Y-121633393D01*
X130745272Y-121634937D01*
X130745270Y-121634937D01*
X130745269Y-121634938D01*
X130724671Y-121640921D01*
X130705321Y-121644928D01*
X130684040Y-121647616D01*
X130684035Y-121647618D01*
X130638314Y-121665719D01*
X130632699Y-121667641D01*
X130585506Y-121681352D01*
X130585499Y-121681355D01*
X130567037Y-121692273D01*
X130549291Y-121700966D01*
X130529348Y-121708862D01*
X130529345Y-121708864D01*
X130489570Y-121737762D01*
X130484608Y-121741021D01*
X130442294Y-121766046D01*
X130427122Y-121781217D01*
X130412096Y-121794050D01*
X130394744Y-121806657D01*
X130394743Y-121806658D01*
X130363399Y-121844545D01*
X130359403Y-121848936D01*
X128713211Y-123495127D01*
X128700465Y-123505340D01*
X128700625Y-123505533D01*
X128694521Y-123510582D01*
X128644654Y-123563685D01*
X128622671Y-123585668D01*
X128618127Y-123591525D01*
X128614278Y-123596031D01*
X128580629Y-123631865D01*
X128580627Y-123631867D01*
X128570291Y-123650667D01*
X128559443Y-123667180D01*
X128546299Y-123684126D01*
X128546294Y-123684135D01*
X128526772Y-123729247D01*
X128524160Y-123734577D01*
X128500477Y-123777660D01*
X128500473Y-123777670D01*
X128495141Y-123798436D01*
X128488739Y-123817136D01*
X128480220Y-123836820D01*
X128480219Y-123836824D01*
X128472528Y-123885384D01*
X128471324Y-123891197D01*
X128459099Y-123938810D01*
X128459100Y-123960258D01*
X128457549Y-123979967D01*
X128454194Y-124001150D01*
X128454194Y-124001152D01*
X112000500Y-124001152D01*
X112000500Y-119795718D01*
X114265255Y-119795718D01*
X114284087Y-120035003D01*
X114285074Y-120047537D01*
X114344041Y-120293155D01*
X114344042Y-120293157D01*
X114440707Y-120526527D01*
X114572689Y-120741902D01*
X114736738Y-120933980D01*
X114928816Y-121098029D01*
X115144191Y-121230011D01*
X115377561Y-121326676D01*
X115623180Y-121385644D01*
X115875000Y-121405463D01*
X116126820Y-121385644D01*
X116372439Y-121326676D01*
X116605809Y-121230011D01*
X116821184Y-121098029D01*
X117013262Y-120933980D01*
X117177311Y-120741902D01*
X117309293Y-120526527D01*
X117405958Y-120293157D01*
X117464926Y-120047538D01*
X117484745Y-119795718D01*
X117464926Y-119543898D01*
X117405958Y-119298279D01*
X117309293Y-119064909D01*
X117177311Y-118849534D01*
X117013262Y-118657456D01*
X116821184Y-118493407D01*
X116605809Y-118361425D01*
X116372439Y-118264760D01*
X116372437Y-118264759D01*
X116204416Y-118224421D01*
X116126820Y-118205792D01*
X115875000Y-118185973D01*
X115623180Y-118205792D01*
X115377562Y-118264759D01*
X115144192Y-118361424D01*
X114928817Y-118493406D01*
X114736738Y-118657456D01*
X114572688Y-118849535D01*
X114440706Y-119064910D01*
X114344041Y-119298280D01*
X114285074Y-119543898D01*
X114265255Y-119795718D01*
X112000500Y-119795718D01*
X112000500Y-116009548D01*
X112020502Y-115941427D01*
X112074158Y-115894934D01*
X112126527Y-115883548D01*
X177344531Y-115899450D01*
G37*
%TD.AperFunction*%
%TD*%
M02*
