M48
INCH
T1C0.0157
T2C0.0197
T3C0.0315
T4C0.0374
%
G90
G05
T1
X4.833Y-4.812
X4.883Y-4.88
X4.988Y-5.891
X5.029Y-4.765
X5.032Y-5.064
X5.1149Y-4.8937
X5.1944Y-5.1045
X5.309Y-5.348
X5.3342Y-5.0481
X5.337Y-4.782
X5.3632Y-4.9796
X5.411Y-4.862
X5.441Y-5.902
X5.546Y-4.862
X5.562Y-5.487
X5.8508Y-4.8736
X5.8556Y-4.8146
X5.8556Y-5.104
X5.924Y-6.015
X6.055Y-6.015
X6.111Y-4.8909
X6.1512Y-5.1998
X6.4585Y-5.2175
T2
X5.1202Y-4.9539
X5.8722Y-4.9588
T3
X5.557Y-5.957
X5.557Y-6.0554
X6.7913Y-5.719
X6.8898Y-5.719
T4
X4.6282Y-5.3179
X4.6282Y-5.4163
X4.6282Y-5.5147
X4.6282Y-5.6131
X4.6282Y-5.7116
X4.6282Y-5.81
T0
M30
