%TF.GenerationSoftware,KiCad,Pcbnew,7.0.6*%
%TF.CreationDate,2023-11-27T09:51:19+01:00*%
%TF.ProjectId,PSACANBridgeHW_v14,50534143-414e-4427-9269-64676548575f,rev?*%
%TF.SameCoordinates,Original*%
%TF.FileFunction,Legend,Bot*%
%TF.FilePolarity,Positive*%
%FSLAX46Y46*%
G04 Gerber Fmt 4.6, Leading zero omitted, Abs format (unit mm)*
G04 Created by KiCad (PCBNEW 7.0.6) date 2023-11-27 09:51:19*
%MOMM*%
%LPD*%
G01*
G04 APERTURE LIST*
G04 Aperture macros list*
%AMRoundRect*
0 Rectangle with rounded corners*
0 $1 Rounding radius*
0 $2 $3 $4 $5 $6 $7 $8 $9 X,Y pos of 4 corners*
0 Add a 4 corners polygon primitive as box body*
4,1,4,$2,$3,$4,$5,$6,$7,$8,$9,$2,$3,0*
0 Add four circle primitives for the rounded corners*
1,1,$1+$1,$2,$3*
1,1,$1+$1,$4,$5*
1,1,$1+$1,$6,$7*
1,1,$1+$1,$8,$9*
0 Add four rect primitives between the rounded corners*
20,1,$1+$1,$2,$3,$4,$5,0*
20,1,$1+$1,$4,$5,$6,$7,0*
20,1,$1+$1,$6,$7,$8,$9,0*
20,1,$1+$1,$8,$9,$2,$3,0*%
G04 Aperture macros list end*
%ADD10C,0.100000*%
%ADD11RoundRect,0.450000X0.725000X-0.600000X0.725000X0.600000X-0.725000X0.600000X-0.725000X-0.600000X0*%
%ADD12O,2.350000X2.100000*%
%ADD13RoundRect,0.200000X0.800000X0.800000X-0.800000X0.800000X-0.800000X-0.800000X0.800000X-0.800000X0*%
%ADD14C,2.000000*%
%ADD15RoundRect,0.200000X0.800000X-0.800000X0.800000X0.800000X-0.800000X0.800000X-0.800000X-0.800000X0*%
G04 APERTURE END LIST*
D10*
X113620657Y-137176095D02*
X113582561Y-137138000D01*
X113582561Y-137138000D02*
X113468276Y-137099904D01*
X113468276Y-137099904D02*
X113392085Y-137099904D01*
X113392085Y-137099904D02*
X113277799Y-137138000D01*
X113277799Y-137138000D02*
X113201609Y-137214190D01*
X113201609Y-137214190D02*
X113163514Y-137290380D01*
X113163514Y-137290380D02*
X113125418Y-137442761D01*
X113125418Y-137442761D02*
X113125418Y-137557047D01*
X113125418Y-137557047D02*
X113163514Y-137709428D01*
X113163514Y-137709428D02*
X113201609Y-137785619D01*
X113201609Y-137785619D02*
X113277799Y-137861809D01*
X113277799Y-137861809D02*
X113392085Y-137899904D01*
X113392085Y-137899904D02*
X113468276Y-137899904D01*
X113468276Y-137899904D02*
X113582561Y-137861809D01*
X113582561Y-137861809D02*
X113620657Y-137823714D01*
X113925418Y-137823714D02*
X113963514Y-137861809D01*
X113963514Y-137861809D02*
X114039704Y-137899904D01*
X114039704Y-137899904D02*
X114230180Y-137899904D01*
X114230180Y-137899904D02*
X114306371Y-137861809D01*
X114306371Y-137861809D02*
X114344466Y-137823714D01*
X114344466Y-137823714D02*
X114382561Y-137747523D01*
X114382561Y-137747523D02*
X114382561Y-137671333D01*
X114382561Y-137671333D02*
X114344466Y-137557047D01*
X114344466Y-137557047D02*
X113887323Y-137099904D01*
X113887323Y-137099904D02*
X114382561Y-137099904D01*
X114534943Y-137023714D02*
X115144466Y-137023714D01*
X115334943Y-137099904D02*
X115334943Y-137899904D01*
X115334943Y-137518952D02*
X115792086Y-137518952D01*
X115792086Y-137099904D02*
X115792086Y-137899904D01*
X113811133Y-139677995D02*
X113773037Y-139639900D01*
X113773037Y-139639900D02*
X113658752Y-139601804D01*
X113658752Y-139601804D02*
X113582561Y-139601804D01*
X113582561Y-139601804D02*
X113468275Y-139639900D01*
X113468275Y-139639900D02*
X113392085Y-139716090D01*
X113392085Y-139716090D02*
X113353990Y-139792280D01*
X113353990Y-139792280D02*
X113315894Y-139944661D01*
X113315894Y-139944661D02*
X113315894Y-140058947D01*
X113315894Y-140058947D02*
X113353990Y-140211328D01*
X113353990Y-140211328D02*
X113392085Y-140287519D01*
X113392085Y-140287519D02*
X113468275Y-140363709D01*
X113468275Y-140363709D02*
X113582561Y-140401804D01*
X113582561Y-140401804D02*
X113658752Y-140401804D01*
X113658752Y-140401804D02*
X113773037Y-140363709D01*
X113773037Y-140363709D02*
X113811133Y-140325614D01*
X114573037Y-139601804D02*
X114115894Y-139601804D01*
X114344466Y-139601804D02*
X114344466Y-140401804D01*
X114344466Y-140401804D02*
X114268275Y-140287519D01*
X114268275Y-140287519D02*
X114192085Y-140211328D01*
X114192085Y-140211328D02*
X114115894Y-140173233D01*
X114725419Y-139525614D02*
X115334942Y-139525614D01*
X115906371Y-139601804D02*
X115525419Y-139601804D01*
X115525419Y-139601804D02*
X115525419Y-140401804D01*
X113620657Y-142179895D02*
X113582561Y-142141800D01*
X113582561Y-142141800D02*
X113468276Y-142103704D01*
X113468276Y-142103704D02*
X113392085Y-142103704D01*
X113392085Y-142103704D02*
X113277799Y-142141800D01*
X113277799Y-142141800D02*
X113201609Y-142217990D01*
X113201609Y-142217990D02*
X113163514Y-142294180D01*
X113163514Y-142294180D02*
X113125418Y-142446561D01*
X113125418Y-142446561D02*
X113125418Y-142560847D01*
X113125418Y-142560847D02*
X113163514Y-142713228D01*
X113163514Y-142713228D02*
X113201609Y-142789419D01*
X113201609Y-142789419D02*
X113277799Y-142865609D01*
X113277799Y-142865609D02*
X113392085Y-142903704D01*
X113392085Y-142903704D02*
X113468276Y-142903704D01*
X113468276Y-142903704D02*
X113582561Y-142865609D01*
X113582561Y-142865609D02*
X113620657Y-142827514D01*
X114382561Y-142103704D02*
X113925418Y-142103704D01*
X114153990Y-142103704D02*
X114153990Y-142903704D01*
X114153990Y-142903704D02*
X114077799Y-142789419D01*
X114077799Y-142789419D02*
X114001609Y-142713228D01*
X114001609Y-142713228D02*
X113925418Y-142675133D01*
X114534943Y-142027514D02*
X115144466Y-142027514D01*
X115334943Y-142103704D02*
X115334943Y-142903704D01*
X115334943Y-142522752D02*
X115792086Y-142522752D01*
X115792086Y-142103704D02*
X115792086Y-142903704D01*
X114153991Y-145367509D02*
X114077801Y-145405604D01*
X114077801Y-145405604D02*
X113963515Y-145405604D01*
X113963515Y-145405604D02*
X113849229Y-145367509D01*
X113849229Y-145367509D02*
X113773039Y-145291319D01*
X113773039Y-145291319D02*
X113734944Y-145215128D01*
X113734944Y-145215128D02*
X113696848Y-145062747D01*
X113696848Y-145062747D02*
X113696848Y-144948461D01*
X113696848Y-144948461D02*
X113734944Y-144796080D01*
X113734944Y-144796080D02*
X113773039Y-144719890D01*
X113773039Y-144719890D02*
X113849229Y-144643700D01*
X113849229Y-144643700D02*
X113963515Y-144605604D01*
X113963515Y-144605604D02*
X114039706Y-144605604D01*
X114039706Y-144605604D02*
X114153991Y-144643700D01*
X114153991Y-144643700D02*
X114192087Y-144681795D01*
X114192087Y-144681795D02*
X114192087Y-144948461D01*
X114192087Y-144948461D02*
X114039706Y-144948461D01*
X114534944Y-144605604D02*
X114534944Y-145405604D01*
X114534944Y-145405604D02*
X114992087Y-144605604D01*
X114992087Y-144605604D02*
X114992087Y-145405604D01*
X115373039Y-144605604D02*
X115373039Y-145405604D01*
X115373039Y-145405604D02*
X115563515Y-145405604D01*
X115563515Y-145405604D02*
X115677801Y-145367509D01*
X115677801Y-145367509D02*
X115753991Y-145291319D01*
X115753991Y-145291319D02*
X115792086Y-145215128D01*
X115792086Y-145215128D02*
X115830182Y-145062747D01*
X115830182Y-145062747D02*
X115830182Y-144948461D01*
X115830182Y-144948461D02*
X115792086Y-144796080D01*
X115792086Y-144796080D02*
X115753991Y-144719890D01*
X115753991Y-144719890D02*
X115677801Y-144643700D01*
X115677801Y-144643700D02*
X115563515Y-144605604D01*
X115563515Y-144605604D02*
X115373039Y-144605604D01*
X112973038Y-147412266D02*
X113582562Y-147412266D01*
X113277800Y-147107504D02*
X113277800Y-147717028D01*
X114382561Y-147107504D02*
X113925418Y-147107504D01*
X114153990Y-147107504D02*
X114153990Y-147907504D01*
X114153990Y-147907504D02*
X114077799Y-147793219D01*
X114077799Y-147793219D02*
X114001609Y-147717028D01*
X114001609Y-147717028D02*
X113925418Y-147678933D01*
X114687323Y-147831314D02*
X114725419Y-147869409D01*
X114725419Y-147869409D02*
X114801609Y-147907504D01*
X114801609Y-147907504D02*
X114992085Y-147907504D01*
X114992085Y-147907504D02*
X115068276Y-147869409D01*
X115068276Y-147869409D02*
X115106371Y-147831314D01*
X115106371Y-147831314D02*
X115144466Y-147755123D01*
X115144466Y-147755123D02*
X115144466Y-147678933D01*
X115144466Y-147678933D02*
X115106371Y-147564647D01*
X115106371Y-147564647D02*
X114649228Y-147107504D01*
X114649228Y-147107504D02*
X115144466Y-147107504D01*
X115373038Y-147907504D02*
X115639705Y-147107504D01*
X115639705Y-147107504D02*
X115906371Y-147907504D01*
X113811133Y-134674195D02*
X113773037Y-134636100D01*
X113773037Y-134636100D02*
X113658752Y-134598004D01*
X113658752Y-134598004D02*
X113582561Y-134598004D01*
X113582561Y-134598004D02*
X113468275Y-134636100D01*
X113468275Y-134636100D02*
X113392085Y-134712290D01*
X113392085Y-134712290D02*
X113353990Y-134788480D01*
X113353990Y-134788480D02*
X113315894Y-134940861D01*
X113315894Y-134940861D02*
X113315894Y-135055147D01*
X113315894Y-135055147D02*
X113353990Y-135207528D01*
X113353990Y-135207528D02*
X113392085Y-135283719D01*
X113392085Y-135283719D02*
X113468275Y-135359909D01*
X113468275Y-135359909D02*
X113582561Y-135398004D01*
X113582561Y-135398004D02*
X113658752Y-135398004D01*
X113658752Y-135398004D02*
X113773037Y-135359909D01*
X113773037Y-135359909D02*
X113811133Y-135321814D01*
X114115894Y-135321814D02*
X114153990Y-135359909D01*
X114153990Y-135359909D02*
X114230180Y-135398004D01*
X114230180Y-135398004D02*
X114420656Y-135398004D01*
X114420656Y-135398004D02*
X114496847Y-135359909D01*
X114496847Y-135359909D02*
X114534942Y-135321814D01*
X114534942Y-135321814D02*
X114573037Y-135245623D01*
X114573037Y-135245623D02*
X114573037Y-135169433D01*
X114573037Y-135169433D02*
X114534942Y-135055147D01*
X114534942Y-135055147D02*
X114077799Y-134598004D01*
X114077799Y-134598004D02*
X114573037Y-134598004D01*
X114725419Y-134521814D02*
X115334942Y-134521814D01*
X115906371Y-134598004D02*
X115525419Y-134598004D01*
X115525419Y-134598004D02*
X115525419Y-135398004D01*
%LPC*%
D11*
%TO.C,J2*%
X117557500Y-147574000D03*
D12*
X117557500Y-145074000D03*
X117557500Y-142574000D03*
X117557500Y-140074000D03*
X117557500Y-137574000D03*
X117557500Y-135074000D03*
%TD*%
D13*
%TO.C,C8*%
X175000000Y-145262600D03*
D14*
X172500000Y-145262600D03*
%TD*%
D15*
%TO.C,C7*%
X141147800Y-153807800D03*
D14*
X141147800Y-151307800D03*
%TD*%
%LPD*%
M02*
