%TF.GenerationSoftware,KiCad,Pcbnew,(5.1.5)-3*%
%TF.CreationDate,2021-02-13T19:55:16+01:00*%
%TF.ProjectId,PSACANBridge_v11,50534156-616e-4436-916e-427269646765,rev?*%
%TF.SameCoordinates,Original*%
%TF.FileFunction,Copper,L2,Bot*%
%TF.FilePolarity,Positive*%
%FSLAX46Y46*%
G04 Gerber Fmt 4.6, Leading zero omitted, Abs format (unit mm)*
G04 Created by KiCad (PCBNEW (5.1.5)-3) date 2021-02-13 19:55:16*
%MOMM*%
%LPD*%
G04 APERTURE LIST*
%ADD10O,1.700000X1.700000*%
%ADD11R,1.700000X1.700000*%
%ADD12C,1.700000*%
%ADD13C,1.500000*%
%ADD14R,1.500000X1.050000*%
%ADD15O,1.500000X1.050000*%
%ADD16O,1.950000X1.700000*%
%ADD17C,0.100000*%
%ADD18C,1.600000*%
%ADD19R,1.600000X1.600000*%
%ADD20C,0.800000*%
%ADD21C,0.900000*%
%ADD22C,0.300000*%
%ADD23C,0.500000*%
%ADD24C,0.254000*%
G04 APERTURE END LIST*
D10*
X142430500Y-121031000D03*
X139890500Y-121031000D03*
X137350500Y-121031000D03*
D11*
X134810500Y-121031000D03*
D12*
X163576000Y-142494000D03*
X161036000Y-142494000D03*
X158496000Y-142494000D03*
X155956000Y-142494000D03*
X153416000Y-142494000D03*
X150876000Y-142494000D03*
X148336000Y-142494000D03*
X145796000Y-142494000D03*
X143256000Y-142494000D03*
X140716000Y-142494000D03*
X138176000Y-142494000D03*
X135636000Y-142494000D03*
X133096000Y-142494000D03*
X130556000Y-142494000D03*
X128016000Y-142494000D03*
X163576000Y-117094000D03*
X161036000Y-117094000D03*
X158496000Y-117094000D03*
X155956000Y-117094000D03*
X153416000Y-117094000D03*
D10*
X150876000Y-117094000D03*
D12*
X148336000Y-117094000D03*
X145796000Y-117094000D03*
X143256000Y-117094000D03*
X140716000Y-117094000D03*
X138176000Y-117094000D03*
X135636000Y-117094000D03*
X133096000Y-117094000D03*
X130556000Y-117094000D03*
D11*
X128016000Y-117094000D03*
D13*
X137795000Y-132642000D03*
X137795000Y-127762000D03*
D14*
X120142000Y-130683000D03*
D15*
X120142000Y-128143000D03*
X120142000Y-129413000D03*
D10*
X133223000Y-138176000D03*
X130683000Y-138176000D03*
D11*
X128143000Y-138176000D03*
D16*
X172212000Y-123390000D03*
X172212000Y-125890000D03*
X172212000Y-128390000D03*
X172212000Y-130890000D03*
X172212000Y-133390000D03*
%TA.AperFunction,ComponentPad*%
D17*
G36*
X172961504Y-135041204D02*
G01*
X172985773Y-135044804D01*
X173009571Y-135050765D01*
X173032671Y-135059030D01*
X173054849Y-135069520D01*
X173075893Y-135082133D01*
X173095598Y-135096747D01*
X173113777Y-135113223D01*
X173130253Y-135131402D01*
X173144867Y-135151107D01*
X173157480Y-135172151D01*
X173167970Y-135194329D01*
X173176235Y-135217429D01*
X173182196Y-135241227D01*
X173185796Y-135265496D01*
X173187000Y-135290000D01*
X173187000Y-136490000D01*
X173185796Y-136514504D01*
X173182196Y-136538773D01*
X173176235Y-136562571D01*
X173167970Y-136585671D01*
X173157480Y-136607849D01*
X173144867Y-136628893D01*
X173130253Y-136648598D01*
X173113777Y-136666777D01*
X173095598Y-136683253D01*
X173075893Y-136697867D01*
X173054849Y-136710480D01*
X173032671Y-136720970D01*
X173009571Y-136729235D01*
X172985773Y-136735196D01*
X172961504Y-136738796D01*
X172937000Y-136740000D01*
X171487000Y-136740000D01*
X171462496Y-136738796D01*
X171438227Y-136735196D01*
X171414429Y-136729235D01*
X171391329Y-136720970D01*
X171369151Y-136710480D01*
X171348107Y-136697867D01*
X171328402Y-136683253D01*
X171310223Y-136666777D01*
X171293747Y-136648598D01*
X171279133Y-136628893D01*
X171266520Y-136607849D01*
X171256030Y-136585671D01*
X171247765Y-136562571D01*
X171241804Y-136538773D01*
X171238204Y-136514504D01*
X171237000Y-136490000D01*
X171237000Y-135290000D01*
X171238204Y-135265496D01*
X171241804Y-135241227D01*
X171247765Y-135217429D01*
X171256030Y-135194329D01*
X171266520Y-135172151D01*
X171279133Y-135151107D01*
X171293747Y-135131402D01*
X171310223Y-135113223D01*
X171328402Y-135096747D01*
X171348107Y-135082133D01*
X171369151Y-135069520D01*
X171391329Y-135059030D01*
X171414429Y-135050765D01*
X171438227Y-135044804D01*
X171462496Y-135041204D01*
X171487000Y-135040000D01*
X172937000Y-135040000D01*
X172961504Y-135041204D01*
G37*
%TD.AperFunction*%
D18*
X119101000Y-122936000D03*
D19*
X122301000Y-122936000D03*
D20*
X154178000Y-127000000D03*
X152654000Y-134112000D03*
X156464000Y-133096000D03*
D21*
X126746000Y-125476000D03*
D20*
X158242000Y-127254000D03*
X125857000Y-117221000D03*
X120777000Y-117221000D03*
X126111000Y-140970000D03*
D21*
X127952500Y-125476000D03*
X129159000Y-125476000D03*
X130365500Y-125476000D03*
X131572000Y-125476000D03*
X130365500Y-126542800D03*
X126746000Y-126542800D03*
X127952500Y-126542800D03*
X129159000Y-126542800D03*
X131572000Y-126542800D03*
X129159000Y-127609600D03*
X127952500Y-127609600D03*
X131572000Y-127609600D03*
X130365500Y-127609600D03*
X126746000Y-127609600D03*
X130365500Y-128676400D03*
X126746000Y-128676400D03*
X127952500Y-128676400D03*
X129159000Y-128676400D03*
X131572000Y-128676400D03*
X131572000Y-129743200D03*
X127952500Y-129743200D03*
X126746000Y-129743200D03*
X130365500Y-129743200D03*
X129159000Y-129743200D03*
X131572000Y-130810000D03*
X126746000Y-130810000D03*
X129159000Y-130810000D03*
X127952500Y-130810000D03*
X130365500Y-130810000D03*
D20*
X156464000Y-134874000D03*
X160020000Y-129540000D03*
X164973000Y-131191000D03*
X130238500Y-120840500D03*
X164592000Y-119380000D03*
X152654000Y-132842000D03*
X158242000Y-133096000D03*
X158242000Y-137160000D03*
X143510000Y-124333000D03*
X147574000Y-124333000D03*
X151130000Y-124333000D03*
X154686000Y-124333000D03*
X163322000Y-124333000D03*
X144018000Y-127254000D03*
X117602000Y-134239000D03*
X146812000Y-118872000D03*
X149860000Y-118872000D03*
X153924000Y-118872000D03*
X156464000Y-118872000D03*
X120650000Y-121285000D03*
X156464000Y-136652000D03*
X147066000Y-130302000D03*
X147066000Y-129032000D03*
D22*
X125857000Y-117221000D02*
X120777000Y-117221000D01*
D23*
X143510000Y-124333000D02*
X147574000Y-124333000D01*
X147574000Y-124333000D02*
X151130000Y-124333000D01*
X151130000Y-124333000D02*
X154686000Y-124333000D01*
X154686000Y-124333000D02*
X163322000Y-124333000D01*
D22*
X152254001Y-134511999D02*
X149460001Y-134511999D01*
X152654000Y-134112000D02*
X152254001Y-134511999D01*
X148336000Y-135636000D02*
X148336000Y-142494000D01*
X149460001Y-134511999D02*
X148336000Y-135636000D01*
X144018000Y-127819685D02*
X144018000Y-127254000D01*
X144018000Y-128364002D02*
X144018000Y-127819685D01*
X148495998Y-132842000D02*
X144018000Y-128364002D01*
X152654000Y-132842000D02*
X148495998Y-132842000D01*
X172212000Y-130890000D02*
X172337000Y-130890000D01*
D23*
X117602000Y-128937707D02*
X117602000Y-134239000D01*
X119471717Y-127067990D02*
X117602000Y-128937707D01*
X120759012Y-127067990D02*
X119471717Y-127067990D01*
X174237020Y-123310107D02*
X172916903Y-121989990D01*
X174237020Y-134839980D02*
X174237020Y-123310107D01*
X173187000Y-135890000D02*
X174237020Y-134839980D01*
X172212000Y-135890000D02*
X173187000Y-135890000D01*
X141631481Y-124475999D02*
X123351003Y-124475999D01*
X144117490Y-121989990D02*
X141631481Y-124475999D01*
X123351003Y-124475999D02*
X120759012Y-127067990D01*
X172916903Y-121989990D02*
X144117490Y-121989990D01*
X129794000Y-118872000D02*
X145542000Y-118872000D01*
X128016000Y-117094000D02*
X129794000Y-118872000D01*
X145542000Y-118872000D02*
X149225000Y-118872000D01*
X149225000Y-118872000D02*
X152781000Y-118872000D01*
X152781000Y-118872000D02*
X156464000Y-118872000D01*
D22*
X122212999Y-119722001D02*
X120650000Y-121285000D01*
X163576000Y-117094000D02*
X160947999Y-119722001D01*
X160947999Y-119722001D02*
X122212999Y-119722001D01*
X158992001Y-137520001D02*
X158992001Y-132518316D01*
X158602001Y-137910001D02*
X158992001Y-137520001D01*
X157722001Y-137910001D02*
X158602001Y-137910001D01*
X156464000Y-136652000D02*
X157722001Y-137910001D01*
X154178000Y-127704315D02*
X158992001Y-132518316D01*
X154178000Y-127000000D02*
X154178000Y-127704315D01*
X156464000Y-133096000D02*
X154178000Y-135382000D01*
X154178000Y-135382000D02*
X151892000Y-135382000D01*
X150876000Y-136398000D02*
X150876000Y-142494000D01*
X151892000Y-135382000D02*
X150876000Y-136398000D01*
X147631685Y-130302000D02*
X147066000Y-130302000D01*
X157491999Y-133053119D02*
X154740880Y-130302000D01*
X157491999Y-136409999D02*
X157491999Y-133053119D01*
X154740880Y-130302000D02*
X147631685Y-130302000D01*
X158242000Y-137160000D02*
X157491999Y-136409999D01*
X153778001Y-128632001D02*
X157842001Y-132696001D01*
X157842001Y-132696001D02*
X158242000Y-133096000D01*
X147465999Y-128632001D02*
X153778001Y-128632001D01*
X147066000Y-129032000D02*
X147465999Y-128632001D01*
D24*
G36*
X165901490Y-116790981D02*
G01*
X165732001Y-117200165D01*
X165645596Y-117634552D01*
X165645596Y-118077448D01*
X165732001Y-118511835D01*
X165901490Y-118921019D01*
X166147551Y-119289274D01*
X166460726Y-119602449D01*
X166828981Y-119848510D01*
X167238165Y-120017999D01*
X167672552Y-120104404D01*
X168115448Y-120104404D01*
X168549835Y-120017999D01*
X168959019Y-119848510D01*
X169327274Y-119602449D01*
X169640449Y-119289274D01*
X169886510Y-118921019D01*
X170055999Y-118511835D01*
X170142404Y-118077448D01*
X170142404Y-117634552D01*
X170055999Y-117200165D01*
X169886510Y-116790981D01*
X169698096Y-116509000D01*
X176861000Y-116509000D01*
X176861001Y-143079000D01*
X169701625Y-143079000D01*
X169886510Y-142802301D01*
X170055999Y-142393117D01*
X170142404Y-141958730D01*
X170142404Y-141515834D01*
X170055999Y-141081447D01*
X169886510Y-140672263D01*
X169640449Y-140304008D01*
X169327274Y-139990833D01*
X168959019Y-139744772D01*
X168549835Y-139575283D01*
X168115448Y-139488878D01*
X167672552Y-139488878D01*
X167238165Y-139575283D01*
X166828981Y-139744772D01*
X166460726Y-139990833D01*
X166147551Y-140304008D01*
X165901490Y-140672263D01*
X165732001Y-141081447D01*
X165645596Y-141515834D01*
X165645596Y-141958730D01*
X165732001Y-142393117D01*
X165901490Y-142802301D01*
X166086375Y-143079000D01*
X164941037Y-143079000D01*
X165003932Y-142927158D01*
X165061000Y-142640260D01*
X165061000Y-142347740D01*
X165003932Y-142060842D01*
X164891990Y-141790589D01*
X164729475Y-141547368D01*
X164522632Y-141340525D01*
X164279411Y-141178010D01*
X164009158Y-141066068D01*
X163722260Y-141009000D01*
X163429740Y-141009000D01*
X163142842Y-141066068D01*
X162872589Y-141178010D01*
X162629368Y-141340525D01*
X162422525Y-141547368D01*
X162306000Y-141721760D01*
X162189475Y-141547368D01*
X161982632Y-141340525D01*
X161739411Y-141178010D01*
X161469158Y-141066068D01*
X161182260Y-141009000D01*
X160889740Y-141009000D01*
X160602842Y-141066068D01*
X160332589Y-141178010D01*
X160089368Y-141340525D01*
X159882525Y-141547368D01*
X159766000Y-141721760D01*
X159649475Y-141547368D01*
X159442632Y-141340525D01*
X159199411Y-141178010D01*
X158929158Y-141066068D01*
X158642260Y-141009000D01*
X158349740Y-141009000D01*
X158062842Y-141066068D01*
X157792589Y-141178010D01*
X157549368Y-141340525D01*
X157342525Y-141547368D01*
X157226000Y-141721760D01*
X157109475Y-141547368D01*
X156902632Y-141340525D01*
X156659411Y-141178010D01*
X156389158Y-141066068D01*
X156102260Y-141009000D01*
X155809740Y-141009000D01*
X155522842Y-141066068D01*
X155252589Y-141178010D01*
X155009368Y-141340525D01*
X154802525Y-141547368D01*
X154686000Y-141721760D01*
X154569475Y-141547368D01*
X154362632Y-141340525D01*
X154119411Y-141178010D01*
X153849158Y-141066068D01*
X153562260Y-141009000D01*
X153269740Y-141009000D01*
X152982842Y-141066068D01*
X152712589Y-141178010D01*
X152469368Y-141340525D01*
X152262525Y-141547368D01*
X152146000Y-141721760D01*
X152029475Y-141547368D01*
X151822632Y-141340525D01*
X151661000Y-141232526D01*
X151661000Y-136723157D01*
X152217158Y-136167000D01*
X154139447Y-136167000D01*
X154178000Y-136170797D01*
X154216553Y-136167000D01*
X154216561Y-136167000D01*
X154331887Y-136155641D01*
X154479860Y-136110754D01*
X154616233Y-136037862D01*
X154735764Y-135939764D01*
X154760347Y-135909810D01*
X156539158Y-134131000D01*
X156565939Y-134131000D01*
X156707000Y-134102942D01*
X156706999Y-135645058D01*
X156565939Y-135617000D01*
X156362061Y-135617000D01*
X156162102Y-135656774D01*
X155973744Y-135734795D01*
X155804226Y-135848063D01*
X155660063Y-135992226D01*
X155546795Y-136161744D01*
X155468774Y-136350102D01*
X155429000Y-136550061D01*
X155429000Y-136753939D01*
X155468774Y-136953898D01*
X155546795Y-137142256D01*
X155660063Y-137311774D01*
X155804226Y-137455937D01*
X155973744Y-137569205D01*
X156162102Y-137647226D01*
X156362061Y-137687000D01*
X156388843Y-137687000D01*
X157139659Y-138437816D01*
X157164237Y-138467765D01*
X157194185Y-138492343D01*
X157194188Y-138492346D01*
X157223560Y-138516451D01*
X157283768Y-138565863D01*
X157420141Y-138638755D01*
X157568114Y-138683642D01*
X157683440Y-138695001D01*
X157683447Y-138695001D01*
X157722000Y-138698798D01*
X157760553Y-138695001D01*
X158563448Y-138695001D01*
X158602001Y-138698798D01*
X158640554Y-138695001D01*
X158640562Y-138695001D01*
X158755888Y-138683642D01*
X158903861Y-138638755D01*
X159040234Y-138565863D01*
X159159765Y-138467765D01*
X159184348Y-138437811D01*
X159519812Y-138102347D01*
X159549765Y-138077765D01*
X159647863Y-137958234D01*
X159720755Y-137821861D01*
X159765642Y-137673888D01*
X159777001Y-137558562D01*
X159777001Y-137558555D01*
X159780798Y-137520002D01*
X159777001Y-137481449D01*
X159777001Y-132556872D01*
X159780798Y-132518316D01*
X159777001Y-132479760D01*
X159777001Y-132479755D01*
X159769517Y-132403767D01*
X159765643Y-132364429D01*
X159720755Y-132216456D01*
X159700625Y-132178795D01*
X159647863Y-132080083D01*
X159549765Y-131960552D01*
X159519811Y-131935969D01*
X155086751Y-127502909D01*
X155095205Y-127490256D01*
X155173226Y-127301898D01*
X155203030Y-127152061D01*
X157207000Y-127152061D01*
X157207000Y-127355939D01*
X157246774Y-127555898D01*
X157324795Y-127744256D01*
X157438063Y-127913774D01*
X157582226Y-128057937D01*
X157751744Y-128171205D01*
X157940102Y-128249226D01*
X158140061Y-128289000D01*
X158343939Y-128289000D01*
X158543898Y-128249226D01*
X158732256Y-128171205D01*
X158901774Y-128057937D01*
X159045937Y-127913774D01*
X159159205Y-127744256D01*
X159237226Y-127555898D01*
X159277000Y-127355939D01*
X159277000Y-127152061D01*
X159237226Y-126952102D01*
X159159205Y-126763744D01*
X159045937Y-126594226D01*
X158901774Y-126450063D01*
X158732256Y-126336795D01*
X158543898Y-126258774D01*
X158343939Y-126219000D01*
X158140061Y-126219000D01*
X157940102Y-126258774D01*
X157751744Y-126336795D01*
X157582226Y-126450063D01*
X157438063Y-126594226D01*
X157324795Y-126763744D01*
X157246774Y-126952102D01*
X157207000Y-127152061D01*
X155203030Y-127152061D01*
X155213000Y-127101939D01*
X155213000Y-126898061D01*
X155173226Y-126698102D01*
X155095205Y-126509744D01*
X154981937Y-126340226D01*
X154837774Y-126196063D01*
X154668256Y-126082795D01*
X154479898Y-126004774D01*
X154279939Y-125965000D01*
X154076061Y-125965000D01*
X153876102Y-126004774D01*
X153687744Y-126082795D01*
X153518226Y-126196063D01*
X153374063Y-126340226D01*
X153260795Y-126509744D01*
X153182774Y-126698102D01*
X153143000Y-126898061D01*
X153143000Y-127101939D01*
X153182774Y-127301898D01*
X153260795Y-127490256D01*
X153374063Y-127659774D01*
X153391839Y-127677550D01*
X153389203Y-127704315D01*
X153393000Y-127742868D01*
X153393000Y-127742876D01*
X153403256Y-127847001D01*
X147504551Y-127847001D01*
X147465998Y-127843204D01*
X147427445Y-127847001D01*
X147427438Y-127847001D01*
X147312112Y-127858360D01*
X147164139Y-127903247D01*
X147027766Y-127976139D01*
X147002347Y-127997000D01*
X146964061Y-127997000D01*
X146764102Y-128036774D01*
X146575744Y-128114795D01*
X146406226Y-128228063D01*
X146262063Y-128372226D01*
X146148795Y-128541744D01*
X146070774Y-128730102D01*
X146031000Y-128930061D01*
X146031000Y-129133939D01*
X146064001Y-129299846D01*
X144803000Y-128038845D01*
X144803000Y-127932711D01*
X144821937Y-127913774D01*
X144935205Y-127744256D01*
X145013226Y-127555898D01*
X145053000Y-127355939D01*
X145053000Y-127152061D01*
X145013226Y-126952102D01*
X144935205Y-126763744D01*
X144821937Y-126594226D01*
X144677774Y-126450063D01*
X144508256Y-126336795D01*
X144319898Y-126258774D01*
X144119939Y-126219000D01*
X143916061Y-126219000D01*
X143716102Y-126258774D01*
X143527744Y-126336795D01*
X143358226Y-126450063D01*
X143214063Y-126594226D01*
X143100795Y-126763744D01*
X143022774Y-126952102D01*
X142983000Y-127152061D01*
X142983000Y-127355939D01*
X143022774Y-127555898D01*
X143100795Y-127744256D01*
X143214063Y-127913774D01*
X143233000Y-127932711D01*
X143233000Y-128325449D01*
X143229203Y-128364002D01*
X143233000Y-128402555D01*
X143233000Y-128402562D01*
X143244359Y-128517888D01*
X143289246Y-128665861D01*
X143362138Y-128802234D01*
X143460236Y-128921766D01*
X143490190Y-128946349D01*
X147913651Y-133369810D01*
X147938234Y-133399764D01*
X148057765Y-133497862D01*
X148163235Y-133554236D01*
X148194138Y-133570754D01*
X148342111Y-133615642D01*
X148417024Y-133623020D01*
X148457437Y-133627000D01*
X148457442Y-133627000D01*
X148495998Y-133630797D01*
X148534554Y-133627000D01*
X151734618Y-133627000D01*
X151693197Y-133726999D01*
X149498553Y-133726999D01*
X149460000Y-133723202D01*
X149421447Y-133726999D01*
X149421440Y-133726999D01*
X149320491Y-133736942D01*
X149306113Y-133738358D01*
X149277988Y-133746890D01*
X149158141Y-133783245D01*
X149021768Y-133856137D01*
X148968398Y-133899937D01*
X148932188Y-133929654D01*
X148932185Y-133929657D01*
X148902237Y-133954235D01*
X148877659Y-133984184D01*
X147808190Y-135053653D01*
X147778236Y-135078236D01*
X147680138Y-135197768D01*
X147607246Y-135334141D01*
X147562359Y-135482114D01*
X147551000Y-135597440D01*
X147551000Y-135597447D01*
X147547203Y-135636000D01*
X147551000Y-135674553D01*
X147551001Y-141232525D01*
X147389368Y-141340525D01*
X147182525Y-141547368D01*
X147066000Y-141721760D01*
X146949475Y-141547368D01*
X146742632Y-141340525D01*
X146499411Y-141178010D01*
X146229158Y-141066068D01*
X145942260Y-141009000D01*
X145649740Y-141009000D01*
X145362842Y-141066068D01*
X145092589Y-141178010D01*
X144849368Y-141340525D01*
X144642525Y-141547368D01*
X144526000Y-141721760D01*
X144409475Y-141547368D01*
X144202632Y-141340525D01*
X143959411Y-141178010D01*
X143689158Y-141066068D01*
X143402260Y-141009000D01*
X143109740Y-141009000D01*
X142822842Y-141066068D01*
X142552589Y-141178010D01*
X142309368Y-141340525D01*
X142102525Y-141547368D01*
X141986000Y-141721760D01*
X141869475Y-141547368D01*
X141662632Y-141340525D01*
X141419411Y-141178010D01*
X141149158Y-141066068D01*
X140862260Y-141009000D01*
X140569740Y-141009000D01*
X140282842Y-141066068D01*
X140012589Y-141178010D01*
X139769368Y-141340525D01*
X139562525Y-141547368D01*
X139446000Y-141721760D01*
X139329475Y-141547368D01*
X139122632Y-141340525D01*
X138879411Y-141178010D01*
X138609158Y-141066068D01*
X138322260Y-141009000D01*
X138029740Y-141009000D01*
X137742842Y-141066068D01*
X137472589Y-141178010D01*
X137229368Y-141340525D01*
X137022525Y-141547368D01*
X136906000Y-141721760D01*
X136789475Y-141547368D01*
X136582632Y-141340525D01*
X136339411Y-141178010D01*
X136069158Y-141066068D01*
X135782260Y-141009000D01*
X135489740Y-141009000D01*
X135202842Y-141066068D01*
X134932589Y-141178010D01*
X134689368Y-141340525D01*
X134482525Y-141547368D01*
X134366000Y-141721760D01*
X134249475Y-141547368D01*
X134042632Y-141340525D01*
X133799411Y-141178010D01*
X133529158Y-141066068D01*
X133242260Y-141009000D01*
X132949740Y-141009000D01*
X132662842Y-141066068D01*
X132392589Y-141178010D01*
X132149368Y-141340525D01*
X131942525Y-141547368D01*
X131826689Y-141720729D01*
X131584397Y-141645208D01*
X130735605Y-142494000D01*
X130749748Y-142508143D01*
X130570143Y-142687748D01*
X130556000Y-142673605D01*
X130541858Y-142687748D01*
X130362253Y-142508143D01*
X130376395Y-142494000D01*
X129527603Y-141645208D01*
X129285311Y-141720729D01*
X129169475Y-141547368D01*
X129087710Y-141465603D01*
X129707208Y-141465603D01*
X130556000Y-142314395D01*
X131404792Y-141465603D01*
X131327157Y-141216528D01*
X131063117Y-141090629D01*
X130779589Y-141018661D01*
X130487469Y-141003389D01*
X130197981Y-141045401D01*
X129922253Y-141143081D01*
X129784843Y-141216528D01*
X129707208Y-141465603D01*
X129087710Y-141465603D01*
X128962632Y-141340525D01*
X128719411Y-141178010D01*
X128449158Y-141066068D01*
X128162260Y-141009000D01*
X127869740Y-141009000D01*
X127582842Y-141066068D01*
X127312589Y-141178010D01*
X127069368Y-141340525D01*
X126862525Y-141547368D01*
X126700010Y-141790589D01*
X126588068Y-142060842D01*
X126531000Y-142347740D01*
X126531000Y-142640260D01*
X126588068Y-142927158D01*
X126650963Y-143079000D01*
X120425625Y-143079000D01*
X120610510Y-142802301D01*
X120779999Y-142393117D01*
X120866404Y-141958730D01*
X120866404Y-141515834D01*
X120779999Y-141081447D01*
X120610510Y-140672263D01*
X120364449Y-140304008D01*
X120051274Y-139990833D01*
X119683019Y-139744772D01*
X119273835Y-139575283D01*
X118839448Y-139488878D01*
X118396552Y-139488878D01*
X117962165Y-139575283D01*
X117552981Y-139744772D01*
X117271000Y-139933186D01*
X117271000Y-137326000D01*
X126654928Y-137326000D01*
X126654928Y-139026000D01*
X126667188Y-139150482D01*
X126703498Y-139270180D01*
X126762463Y-139380494D01*
X126841815Y-139477185D01*
X126938506Y-139556537D01*
X127048820Y-139615502D01*
X127168518Y-139651812D01*
X127293000Y-139664072D01*
X128993000Y-139664072D01*
X129117482Y-139651812D01*
X129237180Y-139615502D01*
X129347494Y-139556537D01*
X129444185Y-139477185D01*
X129523537Y-139380494D01*
X129582502Y-139270180D01*
X129606966Y-139189534D01*
X129682731Y-139273588D01*
X129916080Y-139447641D01*
X130178901Y-139572825D01*
X130326110Y-139617476D01*
X130556000Y-139496155D01*
X130556000Y-138303000D01*
X130536000Y-138303000D01*
X130536000Y-138049000D01*
X130556000Y-138049000D01*
X130556000Y-136855845D01*
X130810000Y-136855845D01*
X130810000Y-138049000D01*
X130830000Y-138049000D01*
X130830000Y-138303000D01*
X130810000Y-138303000D01*
X130810000Y-139496155D01*
X131039890Y-139617476D01*
X131187099Y-139572825D01*
X131449920Y-139447641D01*
X131683269Y-139273588D01*
X131878178Y-139057355D01*
X131947805Y-138940466D01*
X132069525Y-139122632D01*
X132276368Y-139329475D01*
X132519589Y-139491990D01*
X132789842Y-139603932D01*
X133076740Y-139661000D01*
X133369260Y-139661000D01*
X133656158Y-139603932D01*
X133926411Y-139491990D01*
X134169632Y-139329475D01*
X134376475Y-139122632D01*
X134538990Y-138879411D01*
X134650932Y-138609158D01*
X134708000Y-138322260D01*
X134708000Y-138029740D01*
X134650932Y-137742842D01*
X134538990Y-137472589D01*
X134376475Y-137229368D01*
X134169632Y-137022525D01*
X133926411Y-136860010D01*
X133656158Y-136748068D01*
X133369260Y-136691000D01*
X133076740Y-136691000D01*
X132789842Y-136748068D01*
X132519589Y-136860010D01*
X132276368Y-137022525D01*
X132069525Y-137229368D01*
X131947805Y-137411534D01*
X131878178Y-137294645D01*
X131683269Y-137078412D01*
X131449920Y-136904359D01*
X131187099Y-136779175D01*
X131039890Y-136734524D01*
X130810000Y-136855845D01*
X130556000Y-136855845D01*
X130326110Y-136734524D01*
X130178901Y-136779175D01*
X129916080Y-136904359D01*
X129682731Y-137078412D01*
X129606966Y-137162466D01*
X129582502Y-137081820D01*
X129523537Y-136971506D01*
X129444185Y-136874815D01*
X129347494Y-136795463D01*
X129237180Y-136736498D01*
X129117482Y-136700188D01*
X128993000Y-136687928D01*
X127293000Y-136687928D01*
X127168518Y-136700188D01*
X127048820Y-136736498D01*
X126938506Y-136795463D01*
X126841815Y-136874815D01*
X126762463Y-136971506D01*
X126703498Y-137081820D01*
X126667188Y-137201518D01*
X126654928Y-137326000D01*
X117271000Y-137326000D01*
X117271000Y-135222171D01*
X117300102Y-135234226D01*
X117500061Y-135274000D01*
X117703939Y-135274000D01*
X117903898Y-135234226D01*
X118092256Y-135156205D01*
X118261774Y-135042937D01*
X118405937Y-134898774D01*
X118519205Y-134729256D01*
X118597226Y-134540898D01*
X118637000Y-134340939D01*
X118637000Y-134137061D01*
X118597226Y-133937102D01*
X118519205Y-133748744D01*
X118487000Y-133700546D01*
X118487000Y-132505589D01*
X136410000Y-132505589D01*
X136410000Y-132778411D01*
X136463225Y-133045989D01*
X136567629Y-133298043D01*
X136719201Y-133524886D01*
X136912114Y-133717799D01*
X137138957Y-133869371D01*
X137391011Y-133973775D01*
X137658589Y-134027000D01*
X137931411Y-134027000D01*
X138198989Y-133973775D01*
X138451043Y-133869371D01*
X138677886Y-133717799D01*
X138870799Y-133524886D01*
X139022371Y-133298043D01*
X139126775Y-133045989D01*
X139180000Y-132778411D01*
X139180000Y-132505589D01*
X139126775Y-132238011D01*
X139022371Y-131985957D01*
X138870799Y-131759114D01*
X138677886Y-131566201D01*
X138451043Y-131414629D01*
X138198989Y-131310225D01*
X137931411Y-131257000D01*
X137658589Y-131257000D01*
X137391011Y-131310225D01*
X137138957Y-131414629D01*
X136912114Y-131566201D01*
X136719201Y-131759114D01*
X136567629Y-131985957D01*
X136463225Y-132238011D01*
X136410000Y-132505589D01*
X118487000Y-132505589D01*
X118487000Y-131208000D01*
X118753928Y-131208000D01*
X118766188Y-131332482D01*
X118802498Y-131452180D01*
X118861463Y-131562494D01*
X118940815Y-131659185D01*
X119037506Y-131738537D01*
X119147820Y-131797502D01*
X119267518Y-131833812D01*
X119392000Y-131846072D01*
X119856250Y-131843000D01*
X120015000Y-131684250D01*
X120015000Y-130810000D01*
X120269000Y-130810000D01*
X120269000Y-131684250D01*
X120427750Y-131843000D01*
X120892000Y-131846072D01*
X121016482Y-131833812D01*
X121136180Y-131797502D01*
X121246494Y-131738537D01*
X121343185Y-131659185D01*
X121422537Y-131562494D01*
X121481502Y-131452180D01*
X121517812Y-131332482D01*
X121530072Y-131208000D01*
X121527000Y-130968750D01*
X121368250Y-130810000D01*
X120269000Y-130810000D01*
X120015000Y-130810000D01*
X118915750Y-130810000D01*
X118757000Y-130968750D01*
X118753928Y-131208000D01*
X118487000Y-131208000D01*
X118487000Y-129304285D01*
X118858223Y-128933062D01*
X118840115Y-128966940D01*
X118773785Y-129185600D01*
X118751388Y-129413000D01*
X118773785Y-129640400D01*
X118837093Y-129849098D01*
X118802498Y-129913820D01*
X118766188Y-130033518D01*
X118753928Y-130158000D01*
X118757000Y-130397250D01*
X118915750Y-130556000D01*
X119688891Y-130556000D01*
X119689600Y-130556215D01*
X119860021Y-130573000D01*
X120423979Y-130573000D01*
X120594400Y-130556215D01*
X120595109Y-130556000D01*
X121368250Y-130556000D01*
X121527000Y-130397250D01*
X121530072Y-130158000D01*
X121517812Y-130033518D01*
X121481502Y-129913820D01*
X121446907Y-129849098D01*
X121510215Y-129640400D01*
X121532612Y-129413000D01*
X121510215Y-129185600D01*
X121443885Y-128966940D01*
X121342895Y-128778000D01*
X121443885Y-128589060D01*
X121510215Y-128370400D01*
X121532612Y-128143000D01*
X121510215Y-127915600D01*
X121443885Y-127696940D01*
X121422203Y-127656377D01*
X121452991Y-127625589D01*
X136410000Y-127625589D01*
X136410000Y-127898411D01*
X136463225Y-128165989D01*
X136567629Y-128418043D01*
X136719201Y-128644886D01*
X136912114Y-128837799D01*
X137138957Y-128989371D01*
X137391011Y-129093775D01*
X137658589Y-129147000D01*
X137931411Y-129147000D01*
X138198989Y-129093775D01*
X138451043Y-128989371D01*
X138677886Y-128837799D01*
X138870799Y-128644886D01*
X139022371Y-128418043D01*
X139126775Y-128165989D01*
X139180000Y-127898411D01*
X139180000Y-127625589D01*
X139126775Y-127358011D01*
X139022371Y-127105957D01*
X138870799Y-126879114D01*
X138677886Y-126686201D01*
X138451043Y-126534629D01*
X138198989Y-126430225D01*
X137931411Y-126377000D01*
X137658589Y-126377000D01*
X137391011Y-126430225D01*
X137138957Y-126534629D01*
X136912114Y-126686201D01*
X136719201Y-126879114D01*
X136567629Y-127105957D01*
X136463225Y-127358011D01*
X136410000Y-127625589D01*
X121452991Y-127625589D01*
X123717582Y-125360999D01*
X141588012Y-125360999D01*
X141631481Y-125365280D01*
X141674950Y-125360999D01*
X141674958Y-125360999D01*
X141804971Y-125348194D01*
X141971794Y-125297588D01*
X142125540Y-125215410D01*
X142260298Y-125104816D01*
X142288015Y-125071043D01*
X142576102Y-124782956D01*
X142592795Y-124823256D01*
X142706063Y-124992774D01*
X142850226Y-125136937D01*
X143019744Y-125250205D01*
X143208102Y-125328226D01*
X143408061Y-125368000D01*
X143611939Y-125368000D01*
X143811898Y-125328226D01*
X144000256Y-125250205D01*
X144048454Y-125218000D01*
X147035546Y-125218000D01*
X147083744Y-125250205D01*
X147272102Y-125328226D01*
X147472061Y-125368000D01*
X147675939Y-125368000D01*
X147875898Y-125328226D01*
X148064256Y-125250205D01*
X148112454Y-125218000D01*
X150591546Y-125218000D01*
X150639744Y-125250205D01*
X150828102Y-125328226D01*
X151028061Y-125368000D01*
X151231939Y-125368000D01*
X151431898Y-125328226D01*
X151620256Y-125250205D01*
X151668454Y-125218000D01*
X154147546Y-125218000D01*
X154195744Y-125250205D01*
X154384102Y-125328226D01*
X154584061Y-125368000D01*
X154787939Y-125368000D01*
X154987898Y-125328226D01*
X155176256Y-125250205D01*
X155224454Y-125218000D01*
X162783546Y-125218000D01*
X162831744Y-125250205D01*
X163020102Y-125328226D01*
X163220061Y-125368000D01*
X163423939Y-125368000D01*
X163623898Y-125328226D01*
X163812256Y-125250205D01*
X163981774Y-125136937D01*
X164125937Y-124992774D01*
X164239205Y-124823256D01*
X164317226Y-124634898D01*
X164357000Y-124434939D01*
X164357000Y-124231061D01*
X164317226Y-124031102D01*
X164239205Y-123842744D01*
X164125937Y-123673226D01*
X163981774Y-123529063D01*
X163812256Y-123415795D01*
X163623898Y-123337774D01*
X163423939Y-123298000D01*
X163220061Y-123298000D01*
X163020102Y-123337774D01*
X162831744Y-123415795D01*
X162783546Y-123448000D01*
X155224454Y-123448000D01*
X155176256Y-123415795D01*
X154987898Y-123337774D01*
X154787939Y-123298000D01*
X154584061Y-123298000D01*
X154384102Y-123337774D01*
X154195744Y-123415795D01*
X154147546Y-123448000D01*
X151668454Y-123448000D01*
X151620256Y-123415795D01*
X151431898Y-123337774D01*
X151231939Y-123298000D01*
X151028061Y-123298000D01*
X150828102Y-123337774D01*
X150639744Y-123415795D01*
X150591546Y-123448000D01*
X148112454Y-123448000D01*
X148064256Y-123415795D01*
X147875898Y-123337774D01*
X147675939Y-123298000D01*
X147472061Y-123298000D01*
X147272102Y-123337774D01*
X147083744Y-123415795D01*
X147035546Y-123448000D01*
X144048454Y-123448000D01*
X144000256Y-123415795D01*
X143959956Y-123399102D01*
X144484069Y-122874990D01*
X170691406Y-122874990D01*
X170623487Y-123098889D01*
X170594815Y-123390000D01*
X170623487Y-123681111D01*
X170708401Y-123961034D01*
X170846294Y-124219014D01*
X171031866Y-124445134D01*
X171257986Y-124630706D01*
X171275374Y-124640000D01*
X171257986Y-124649294D01*
X171031866Y-124834866D01*
X170846294Y-125060986D01*
X170708401Y-125318966D01*
X170623487Y-125598889D01*
X170594815Y-125890000D01*
X170623487Y-126181111D01*
X170708401Y-126461034D01*
X170846294Y-126719014D01*
X171031866Y-126945134D01*
X171257986Y-127130706D01*
X171275374Y-127140000D01*
X171257986Y-127149294D01*
X171031866Y-127334866D01*
X170846294Y-127560986D01*
X170708401Y-127818966D01*
X170623487Y-128098889D01*
X170594815Y-128390000D01*
X170623487Y-128681111D01*
X170708401Y-128961034D01*
X170846294Y-129219014D01*
X171031866Y-129445134D01*
X171257986Y-129630706D01*
X171275374Y-129640000D01*
X171257986Y-129649294D01*
X171031866Y-129834866D01*
X170846294Y-130060986D01*
X170708401Y-130318966D01*
X170623487Y-130598889D01*
X170594815Y-130890000D01*
X170623487Y-131181111D01*
X170708401Y-131461034D01*
X170846294Y-131719014D01*
X171031866Y-131945134D01*
X171257986Y-132130706D01*
X171283722Y-132144462D01*
X171077571Y-132300951D01*
X170884504Y-132518807D01*
X170737648Y-132770142D01*
X170645524Y-133033110D01*
X170766845Y-133263000D01*
X172085000Y-133263000D01*
X172085000Y-133243000D01*
X172339000Y-133243000D01*
X172339000Y-133263000D01*
X172359000Y-133263000D01*
X172359000Y-133517000D01*
X172339000Y-133517000D01*
X172339000Y-133537000D01*
X172085000Y-133537000D01*
X172085000Y-133517000D01*
X170766845Y-133517000D01*
X170645524Y-133746890D01*
X170737648Y-134009858D01*
X170884504Y-134261193D01*
X171077571Y-134479049D01*
X171098961Y-134495286D01*
X170993614Y-134551595D01*
X170859038Y-134662038D01*
X170748595Y-134796614D01*
X170666528Y-134950150D01*
X170615992Y-135116746D01*
X170598928Y-135290000D01*
X170598928Y-136490000D01*
X170615992Y-136663254D01*
X170666528Y-136829850D01*
X170748595Y-136983386D01*
X170859038Y-137117962D01*
X170993614Y-137228405D01*
X171147150Y-137310472D01*
X171313746Y-137361008D01*
X171487000Y-137378072D01*
X172937000Y-137378072D01*
X173110254Y-137361008D01*
X173276850Y-137310472D01*
X173430386Y-137228405D01*
X173564962Y-137117962D01*
X173675405Y-136983386D01*
X173757472Y-136829850D01*
X173808008Y-136663254D01*
X173823109Y-136509932D01*
X173843534Y-136485044D01*
X174832070Y-135496509D01*
X174865837Y-135468797D01*
X174976431Y-135334039D01*
X175029782Y-135234226D01*
X175058609Y-135180294D01*
X175109215Y-135013470D01*
X175116080Y-134943767D01*
X175122020Y-134883457D01*
X175122020Y-134883449D01*
X175126301Y-134839980D01*
X175122020Y-134796511D01*
X175122020Y-123353572D01*
X175126301Y-123310106D01*
X175122020Y-123266640D01*
X175122020Y-123266630D01*
X175109215Y-123136617D01*
X175058609Y-122969794D01*
X174976431Y-122816048D01*
X174865837Y-122681290D01*
X174832069Y-122653577D01*
X173573437Y-121394946D01*
X173545720Y-121361173D01*
X173410962Y-121250579D01*
X173257216Y-121168401D01*
X173090393Y-121117795D01*
X172960380Y-121104990D01*
X172960372Y-121104990D01*
X172916903Y-121100709D01*
X172873434Y-121104990D01*
X144160959Y-121104990D01*
X144117490Y-121100709D01*
X144074021Y-121104990D01*
X144074013Y-121104990D01*
X143944000Y-121117795D01*
X143915500Y-121126440D01*
X143915500Y-120884740D01*
X143858432Y-120597842D01*
X143820805Y-120507001D01*
X160909446Y-120507001D01*
X160947999Y-120510798D01*
X160986552Y-120507001D01*
X160986560Y-120507001D01*
X161101886Y-120495642D01*
X161249859Y-120450755D01*
X161386232Y-120377863D01*
X161505763Y-120279765D01*
X161530346Y-120249811D01*
X163239082Y-118541075D01*
X163429740Y-118579000D01*
X163722260Y-118579000D01*
X164009158Y-118521932D01*
X164279411Y-118409990D01*
X164522632Y-118247475D01*
X164729475Y-118040632D01*
X164891990Y-117797411D01*
X165003932Y-117527158D01*
X165061000Y-117240260D01*
X165061000Y-116947740D01*
X165003932Y-116660842D01*
X164941037Y-116509000D01*
X166089904Y-116509000D01*
X165901490Y-116790981D01*
G37*
X165901490Y-116790981D02*
X165732001Y-117200165D01*
X165645596Y-117634552D01*
X165645596Y-118077448D01*
X165732001Y-118511835D01*
X165901490Y-118921019D01*
X166147551Y-119289274D01*
X166460726Y-119602449D01*
X166828981Y-119848510D01*
X167238165Y-120017999D01*
X167672552Y-120104404D01*
X168115448Y-120104404D01*
X168549835Y-120017999D01*
X168959019Y-119848510D01*
X169327274Y-119602449D01*
X169640449Y-119289274D01*
X169886510Y-118921019D01*
X170055999Y-118511835D01*
X170142404Y-118077448D01*
X170142404Y-117634552D01*
X170055999Y-117200165D01*
X169886510Y-116790981D01*
X169698096Y-116509000D01*
X176861000Y-116509000D01*
X176861001Y-143079000D01*
X169701625Y-143079000D01*
X169886510Y-142802301D01*
X170055999Y-142393117D01*
X170142404Y-141958730D01*
X170142404Y-141515834D01*
X170055999Y-141081447D01*
X169886510Y-140672263D01*
X169640449Y-140304008D01*
X169327274Y-139990833D01*
X168959019Y-139744772D01*
X168549835Y-139575283D01*
X168115448Y-139488878D01*
X167672552Y-139488878D01*
X167238165Y-139575283D01*
X166828981Y-139744772D01*
X166460726Y-139990833D01*
X166147551Y-140304008D01*
X165901490Y-140672263D01*
X165732001Y-141081447D01*
X165645596Y-141515834D01*
X165645596Y-141958730D01*
X165732001Y-142393117D01*
X165901490Y-142802301D01*
X166086375Y-143079000D01*
X164941037Y-143079000D01*
X165003932Y-142927158D01*
X165061000Y-142640260D01*
X165061000Y-142347740D01*
X165003932Y-142060842D01*
X164891990Y-141790589D01*
X164729475Y-141547368D01*
X164522632Y-141340525D01*
X164279411Y-141178010D01*
X164009158Y-141066068D01*
X163722260Y-141009000D01*
X163429740Y-141009000D01*
X163142842Y-141066068D01*
X162872589Y-141178010D01*
X162629368Y-141340525D01*
X162422525Y-141547368D01*
X162306000Y-141721760D01*
X162189475Y-141547368D01*
X161982632Y-141340525D01*
X161739411Y-141178010D01*
X161469158Y-141066068D01*
X161182260Y-141009000D01*
X160889740Y-141009000D01*
X160602842Y-141066068D01*
X160332589Y-141178010D01*
X160089368Y-141340525D01*
X159882525Y-141547368D01*
X159766000Y-141721760D01*
X159649475Y-141547368D01*
X159442632Y-141340525D01*
X159199411Y-141178010D01*
X158929158Y-141066068D01*
X158642260Y-141009000D01*
X158349740Y-141009000D01*
X158062842Y-141066068D01*
X157792589Y-141178010D01*
X157549368Y-141340525D01*
X157342525Y-141547368D01*
X157226000Y-141721760D01*
X157109475Y-141547368D01*
X156902632Y-141340525D01*
X156659411Y-141178010D01*
X156389158Y-141066068D01*
X156102260Y-141009000D01*
X155809740Y-141009000D01*
X155522842Y-141066068D01*
X155252589Y-141178010D01*
X155009368Y-141340525D01*
X154802525Y-141547368D01*
X154686000Y-141721760D01*
X154569475Y-141547368D01*
X154362632Y-141340525D01*
X154119411Y-141178010D01*
X153849158Y-141066068D01*
X153562260Y-141009000D01*
X153269740Y-141009000D01*
X152982842Y-141066068D01*
X152712589Y-141178010D01*
X152469368Y-141340525D01*
X152262525Y-141547368D01*
X152146000Y-141721760D01*
X152029475Y-141547368D01*
X151822632Y-141340525D01*
X151661000Y-141232526D01*
X151661000Y-136723157D01*
X152217158Y-136167000D01*
X154139447Y-136167000D01*
X154178000Y-136170797D01*
X154216553Y-136167000D01*
X154216561Y-136167000D01*
X154331887Y-136155641D01*
X154479860Y-136110754D01*
X154616233Y-136037862D01*
X154735764Y-135939764D01*
X154760347Y-135909810D01*
X156539158Y-134131000D01*
X156565939Y-134131000D01*
X156707000Y-134102942D01*
X156706999Y-135645058D01*
X156565939Y-135617000D01*
X156362061Y-135617000D01*
X156162102Y-135656774D01*
X155973744Y-135734795D01*
X155804226Y-135848063D01*
X155660063Y-135992226D01*
X155546795Y-136161744D01*
X155468774Y-136350102D01*
X155429000Y-136550061D01*
X155429000Y-136753939D01*
X155468774Y-136953898D01*
X155546795Y-137142256D01*
X155660063Y-137311774D01*
X155804226Y-137455937D01*
X155973744Y-137569205D01*
X156162102Y-137647226D01*
X156362061Y-137687000D01*
X156388843Y-137687000D01*
X157139659Y-138437816D01*
X157164237Y-138467765D01*
X157194185Y-138492343D01*
X157194188Y-138492346D01*
X157223560Y-138516451D01*
X157283768Y-138565863D01*
X157420141Y-138638755D01*
X157568114Y-138683642D01*
X157683440Y-138695001D01*
X157683447Y-138695001D01*
X157722000Y-138698798D01*
X157760553Y-138695001D01*
X158563448Y-138695001D01*
X158602001Y-138698798D01*
X158640554Y-138695001D01*
X158640562Y-138695001D01*
X158755888Y-138683642D01*
X158903861Y-138638755D01*
X159040234Y-138565863D01*
X159159765Y-138467765D01*
X159184348Y-138437811D01*
X159519812Y-138102347D01*
X159549765Y-138077765D01*
X159647863Y-137958234D01*
X159720755Y-137821861D01*
X159765642Y-137673888D01*
X159777001Y-137558562D01*
X159777001Y-137558555D01*
X159780798Y-137520002D01*
X159777001Y-137481449D01*
X159777001Y-132556872D01*
X159780798Y-132518316D01*
X159777001Y-132479760D01*
X159777001Y-132479755D01*
X159769517Y-132403767D01*
X159765643Y-132364429D01*
X159720755Y-132216456D01*
X159700625Y-132178795D01*
X159647863Y-132080083D01*
X159549765Y-131960552D01*
X159519811Y-131935969D01*
X155086751Y-127502909D01*
X155095205Y-127490256D01*
X155173226Y-127301898D01*
X155203030Y-127152061D01*
X157207000Y-127152061D01*
X157207000Y-127355939D01*
X157246774Y-127555898D01*
X157324795Y-127744256D01*
X157438063Y-127913774D01*
X157582226Y-128057937D01*
X157751744Y-128171205D01*
X157940102Y-128249226D01*
X158140061Y-128289000D01*
X158343939Y-128289000D01*
X158543898Y-128249226D01*
X158732256Y-128171205D01*
X158901774Y-128057937D01*
X159045937Y-127913774D01*
X159159205Y-127744256D01*
X159237226Y-127555898D01*
X159277000Y-127355939D01*
X159277000Y-127152061D01*
X159237226Y-126952102D01*
X159159205Y-126763744D01*
X159045937Y-126594226D01*
X158901774Y-126450063D01*
X158732256Y-126336795D01*
X158543898Y-126258774D01*
X158343939Y-126219000D01*
X158140061Y-126219000D01*
X157940102Y-126258774D01*
X157751744Y-126336795D01*
X157582226Y-126450063D01*
X157438063Y-126594226D01*
X157324795Y-126763744D01*
X157246774Y-126952102D01*
X157207000Y-127152061D01*
X155203030Y-127152061D01*
X155213000Y-127101939D01*
X155213000Y-126898061D01*
X155173226Y-126698102D01*
X155095205Y-126509744D01*
X154981937Y-126340226D01*
X154837774Y-126196063D01*
X154668256Y-126082795D01*
X154479898Y-126004774D01*
X154279939Y-125965000D01*
X154076061Y-125965000D01*
X153876102Y-126004774D01*
X153687744Y-126082795D01*
X153518226Y-126196063D01*
X153374063Y-126340226D01*
X153260795Y-126509744D01*
X153182774Y-126698102D01*
X153143000Y-126898061D01*
X153143000Y-127101939D01*
X153182774Y-127301898D01*
X153260795Y-127490256D01*
X153374063Y-127659774D01*
X153391839Y-127677550D01*
X153389203Y-127704315D01*
X153393000Y-127742868D01*
X153393000Y-127742876D01*
X153403256Y-127847001D01*
X147504551Y-127847001D01*
X147465998Y-127843204D01*
X147427445Y-127847001D01*
X147427438Y-127847001D01*
X147312112Y-127858360D01*
X147164139Y-127903247D01*
X147027766Y-127976139D01*
X147002347Y-127997000D01*
X146964061Y-127997000D01*
X146764102Y-128036774D01*
X146575744Y-128114795D01*
X146406226Y-128228063D01*
X146262063Y-128372226D01*
X146148795Y-128541744D01*
X146070774Y-128730102D01*
X146031000Y-128930061D01*
X146031000Y-129133939D01*
X146064001Y-129299846D01*
X144803000Y-128038845D01*
X144803000Y-127932711D01*
X144821937Y-127913774D01*
X144935205Y-127744256D01*
X145013226Y-127555898D01*
X145053000Y-127355939D01*
X145053000Y-127152061D01*
X145013226Y-126952102D01*
X144935205Y-126763744D01*
X144821937Y-126594226D01*
X144677774Y-126450063D01*
X144508256Y-126336795D01*
X144319898Y-126258774D01*
X144119939Y-126219000D01*
X143916061Y-126219000D01*
X143716102Y-126258774D01*
X143527744Y-126336795D01*
X143358226Y-126450063D01*
X143214063Y-126594226D01*
X143100795Y-126763744D01*
X143022774Y-126952102D01*
X142983000Y-127152061D01*
X142983000Y-127355939D01*
X143022774Y-127555898D01*
X143100795Y-127744256D01*
X143214063Y-127913774D01*
X143233000Y-127932711D01*
X143233000Y-128325449D01*
X143229203Y-128364002D01*
X143233000Y-128402555D01*
X143233000Y-128402562D01*
X143244359Y-128517888D01*
X143289246Y-128665861D01*
X143362138Y-128802234D01*
X143460236Y-128921766D01*
X143490190Y-128946349D01*
X147913651Y-133369810D01*
X147938234Y-133399764D01*
X148057765Y-133497862D01*
X148163235Y-133554236D01*
X148194138Y-133570754D01*
X148342111Y-133615642D01*
X148417024Y-133623020D01*
X148457437Y-133627000D01*
X148457442Y-133627000D01*
X148495998Y-133630797D01*
X148534554Y-133627000D01*
X151734618Y-133627000D01*
X151693197Y-133726999D01*
X149498553Y-133726999D01*
X149460000Y-133723202D01*
X149421447Y-133726999D01*
X149421440Y-133726999D01*
X149320491Y-133736942D01*
X149306113Y-133738358D01*
X149277988Y-133746890D01*
X149158141Y-133783245D01*
X149021768Y-133856137D01*
X148968398Y-133899937D01*
X148932188Y-133929654D01*
X148932185Y-133929657D01*
X148902237Y-133954235D01*
X148877659Y-133984184D01*
X147808190Y-135053653D01*
X147778236Y-135078236D01*
X147680138Y-135197768D01*
X147607246Y-135334141D01*
X147562359Y-135482114D01*
X147551000Y-135597440D01*
X147551000Y-135597447D01*
X147547203Y-135636000D01*
X147551000Y-135674553D01*
X147551001Y-141232525D01*
X147389368Y-141340525D01*
X147182525Y-141547368D01*
X147066000Y-141721760D01*
X146949475Y-141547368D01*
X146742632Y-141340525D01*
X146499411Y-141178010D01*
X146229158Y-141066068D01*
X145942260Y-141009000D01*
X145649740Y-141009000D01*
X145362842Y-141066068D01*
X145092589Y-141178010D01*
X144849368Y-141340525D01*
X144642525Y-141547368D01*
X144526000Y-141721760D01*
X144409475Y-141547368D01*
X144202632Y-141340525D01*
X143959411Y-141178010D01*
X143689158Y-141066068D01*
X143402260Y-141009000D01*
X143109740Y-141009000D01*
X142822842Y-141066068D01*
X142552589Y-141178010D01*
X142309368Y-141340525D01*
X142102525Y-141547368D01*
X141986000Y-141721760D01*
X141869475Y-141547368D01*
X141662632Y-141340525D01*
X141419411Y-141178010D01*
X141149158Y-141066068D01*
X140862260Y-141009000D01*
X140569740Y-141009000D01*
X140282842Y-141066068D01*
X140012589Y-141178010D01*
X139769368Y-141340525D01*
X139562525Y-141547368D01*
X139446000Y-141721760D01*
X139329475Y-141547368D01*
X139122632Y-141340525D01*
X138879411Y-141178010D01*
X138609158Y-141066068D01*
X138322260Y-141009000D01*
X138029740Y-141009000D01*
X137742842Y-141066068D01*
X137472589Y-141178010D01*
X137229368Y-141340525D01*
X137022525Y-141547368D01*
X136906000Y-141721760D01*
X136789475Y-141547368D01*
X136582632Y-141340525D01*
X136339411Y-141178010D01*
X136069158Y-141066068D01*
X135782260Y-141009000D01*
X135489740Y-141009000D01*
X135202842Y-141066068D01*
X134932589Y-141178010D01*
X134689368Y-141340525D01*
X134482525Y-141547368D01*
X134366000Y-141721760D01*
X134249475Y-141547368D01*
X134042632Y-141340525D01*
X133799411Y-141178010D01*
X133529158Y-141066068D01*
X133242260Y-141009000D01*
X132949740Y-141009000D01*
X132662842Y-141066068D01*
X132392589Y-141178010D01*
X132149368Y-141340525D01*
X131942525Y-141547368D01*
X131826689Y-141720729D01*
X131584397Y-141645208D01*
X130735605Y-142494000D01*
X130749748Y-142508143D01*
X130570143Y-142687748D01*
X130556000Y-142673605D01*
X130541858Y-142687748D01*
X130362253Y-142508143D01*
X130376395Y-142494000D01*
X129527603Y-141645208D01*
X129285311Y-141720729D01*
X129169475Y-141547368D01*
X129087710Y-141465603D01*
X129707208Y-141465603D01*
X130556000Y-142314395D01*
X131404792Y-141465603D01*
X131327157Y-141216528D01*
X131063117Y-141090629D01*
X130779589Y-141018661D01*
X130487469Y-141003389D01*
X130197981Y-141045401D01*
X129922253Y-141143081D01*
X129784843Y-141216528D01*
X129707208Y-141465603D01*
X129087710Y-141465603D01*
X128962632Y-141340525D01*
X128719411Y-141178010D01*
X128449158Y-141066068D01*
X128162260Y-141009000D01*
X127869740Y-141009000D01*
X127582842Y-141066068D01*
X127312589Y-141178010D01*
X127069368Y-141340525D01*
X126862525Y-141547368D01*
X126700010Y-141790589D01*
X126588068Y-142060842D01*
X126531000Y-142347740D01*
X126531000Y-142640260D01*
X126588068Y-142927158D01*
X126650963Y-143079000D01*
X120425625Y-143079000D01*
X120610510Y-142802301D01*
X120779999Y-142393117D01*
X120866404Y-141958730D01*
X120866404Y-141515834D01*
X120779999Y-141081447D01*
X120610510Y-140672263D01*
X120364449Y-140304008D01*
X120051274Y-139990833D01*
X119683019Y-139744772D01*
X119273835Y-139575283D01*
X118839448Y-139488878D01*
X118396552Y-139488878D01*
X117962165Y-139575283D01*
X117552981Y-139744772D01*
X117271000Y-139933186D01*
X117271000Y-137326000D01*
X126654928Y-137326000D01*
X126654928Y-139026000D01*
X126667188Y-139150482D01*
X126703498Y-139270180D01*
X126762463Y-139380494D01*
X126841815Y-139477185D01*
X126938506Y-139556537D01*
X127048820Y-139615502D01*
X127168518Y-139651812D01*
X127293000Y-139664072D01*
X128993000Y-139664072D01*
X129117482Y-139651812D01*
X129237180Y-139615502D01*
X129347494Y-139556537D01*
X129444185Y-139477185D01*
X129523537Y-139380494D01*
X129582502Y-139270180D01*
X129606966Y-139189534D01*
X129682731Y-139273588D01*
X129916080Y-139447641D01*
X130178901Y-139572825D01*
X130326110Y-139617476D01*
X130556000Y-139496155D01*
X130556000Y-138303000D01*
X130536000Y-138303000D01*
X130536000Y-138049000D01*
X130556000Y-138049000D01*
X130556000Y-136855845D01*
X130810000Y-136855845D01*
X130810000Y-138049000D01*
X130830000Y-138049000D01*
X130830000Y-138303000D01*
X130810000Y-138303000D01*
X130810000Y-139496155D01*
X131039890Y-139617476D01*
X131187099Y-139572825D01*
X131449920Y-139447641D01*
X131683269Y-139273588D01*
X131878178Y-139057355D01*
X131947805Y-138940466D01*
X132069525Y-139122632D01*
X132276368Y-139329475D01*
X132519589Y-139491990D01*
X132789842Y-139603932D01*
X133076740Y-139661000D01*
X133369260Y-139661000D01*
X133656158Y-139603932D01*
X133926411Y-139491990D01*
X134169632Y-139329475D01*
X134376475Y-139122632D01*
X134538990Y-138879411D01*
X134650932Y-138609158D01*
X134708000Y-138322260D01*
X134708000Y-138029740D01*
X134650932Y-137742842D01*
X134538990Y-137472589D01*
X134376475Y-137229368D01*
X134169632Y-137022525D01*
X133926411Y-136860010D01*
X133656158Y-136748068D01*
X133369260Y-136691000D01*
X133076740Y-136691000D01*
X132789842Y-136748068D01*
X132519589Y-136860010D01*
X132276368Y-137022525D01*
X132069525Y-137229368D01*
X131947805Y-137411534D01*
X131878178Y-137294645D01*
X131683269Y-137078412D01*
X131449920Y-136904359D01*
X131187099Y-136779175D01*
X131039890Y-136734524D01*
X130810000Y-136855845D01*
X130556000Y-136855845D01*
X130326110Y-136734524D01*
X130178901Y-136779175D01*
X129916080Y-136904359D01*
X129682731Y-137078412D01*
X129606966Y-137162466D01*
X129582502Y-137081820D01*
X129523537Y-136971506D01*
X129444185Y-136874815D01*
X129347494Y-136795463D01*
X129237180Y-136736498D01*
X129117482Y-136700188D01*
X128993000Y-136687928D01*
X127293000Y-136687928D01*
X127168518Y-136700188D01*
X127048820Y-136736498D01*
X126938506Y-136795463D01*
X126841815Y-136874815D01*
X126762463Y-136971506D01*
X126703498Y-137081820D01*
X126667188Y-137201518D01*
X126654928Y-137326000D01*
X117271000Y-137326000D01*
X117271000Y-135222171D01*
X117300102Y-135234226D01*
X117500061Y-135274000D01*
X117703939Y-135274000D01*
X117903898Y-135234226D01*
X118092256Y-135156205D01*
X118261774Y-135042937D01*
X118405937Y-134898774D01*
X118519205Y-134729256D01*
X118597226Y-134540898D01*
X118637000Y-134340939D01*
X118637000Y-134137061D01*
X118597226Y-133937102D01*
X118519205Y-133748744D01*
X118487000Y-133700546D01*
X118487000Y-132505589D01*
X136410000Y-132505589D01*
X136410000Y-132778411D01*
X136463225Y-133045989D01*
X136567629Y-133298043D01*
X136719201Y-133524886D01*
X136912114Y-133717799D01*
X137138957Y-133869371D01*
X137391011Y-133973775D01*
X137658589Y-134027000D01*
X137931411Y-134027000D01*
X138198989Y-133973775D01*
X138451043Y-133869371D01*
X138677886Y-133717799D01*
X138870799Y-133524886D01*
X139022371Y-133298043D01*
X139126775Y-133045989D01*
X139180000Y-132778411D01*
X139180000Y-132505589D01*
X139126775Y-132238011D01*
X139022371Y-131985957D01*
X138870799Y-131759114D01*
X138677886Y-131566201D01*
X138451043Y-131414629D01*
X138198989Y-131310225D01*
X137931411Y-131257000D01*
X137658589Y-131257000D01*
X137391011Y-131310225D01*
X137138957Y-131414629D01*
X136912114Y-131566201D01*
X136719201Y-131759114D01*
X136567629Y-131985957D01*
X136463225Y-132238011D01*
X136410000Y-132505589D01*
X118487000Y-132505589D01*
X118487000Y-131208000D01*
X118753928Y-131208000D01*
X118766188Y-131332482D01*
X118802498Y-131452180D01*
X118861463Y-131562494D01*
X118940815Y-131659185D01*
X119037506Y-131738537D01*
X119147820Y-131797502D01*
X119267518Y-131833812D01*
X119392000Y-131846072D01*
X119856250Y-131843000D01*
X120015000Y-131684250D01*
X120015000Y-130810000D01*
X120269000Y-130810000D01*
X120269000Y-131684250D01*
X120427750Y-131843000D01*
X120892000Y-131846072D01*
X121016482Y-131833812D01*
X121136180Y-131797502D01*
X121246494Y-131738537D01*
X121343185Y-131659185D01*
X121422537Y-131562494D01*
X121481502Y-131452180D01*
X121517812Y-131332482D01*
X121530072Y-131208000D01*
X121527000Y-130968750D01*
X121368250Y-130810000D01*
X120269000Y-130810000D01*
X120015000Y-130810000D01*
X118915750Y-130810000D01*
X118757000Y-130968750D01*
X118753928Y-131208000D01*
X118487000Y-131208000D01*
X118487000Y-129304285D01*
X118858223Y-128933062D01*
X118840115Y-128966940D01*
X118773785Y-129185600D01*
X118751388Y-129413000D01*
X118773785Y-129640400D01*
X118837093Y-129849098D01*
X118802498Y-129913820D01*
X118766188Y-130033518D01*
X118753928Y-130158000D01*
X118757000Y-130397250D01*
X118915750Y-130556000D01*
X119688891Y-130556000D01*
X119689600Y-130556215D01*
X119860021Y-130573000D01*
X120423979Y-130573000D01*
X120594400Y-130556215D01*
X120595109Y-130556000D01*
X121368250Y-130556000D01*
X121527000Y-130397250D01*
X121530072Y-130158000D01*
X121517812Y-130033518D01*
X121481502Y-129913820D01*
X121446907Y-129849098D01*
X121510215Y-129640400D01*
X121532612Y-129413000D01*
X121510215Y-129185600D01*
X121443885Y-128966940D01*
X121342895Y-128778000D01*
X121443885Y-128589060D01*
X121510215Y-128370400D01*
X121532612Y-128143000D01*
X121510215Y-127915600D01*
X121443885Y-127696940D01*
X121422203Y-127656377D01*
X121452991Y-127625589D01*
X136410000Y-127625589D01*
X136410000Y-127898411D01*
X136463225Y-128165989D01*
X136567629Y-128418043D01*
X136719201Y-128644886D01*
X136912114Y-128837799D01*
X137138957Y-128989371D01*
X137391011Y-129093775D01*
X137658589Y-129147000D01*
X137931411Y-129147000D01*
X138198989Y-129093775D01*
X138451043Y-128989371D01*
X138677886Y-128837799D01*
X138870799Y-128644886D01*
X139022371Y-128418043D01*
X139126775Y-128165989D01*
X139180000Y-127898411D01*
X139180000Y-127625589D01*
X139126775Y-127358011D01*
X139022371Y-127105957D01*
X138870799Y-126879114D01*
X138677886Y-126686201D01*
X138451043Y-126534629D01*
X138198989Y-126430225D01*
X137931411Y-126377000D01*
X137658589Y-126377000D01*
X137391011Y-126430225D01*
X137138957Y-126534629D01*
X136912114Y-126686201D01*
X136719201Y-126879114D01*
X136567629Y-127105957D01*
X136463225Y-127358011D01*
X136410000Y-127625589D01*
X121452991Y-127625589D01*
X123717582Y-125360999D01*
X141588012Y-125360999D01*
X141631481Y-125365280D01*
X141674950Y-125360999D01*
X141674958Y-125360999D01*
X141804971Y-125348194D01*
X141971794Y-125297588D01*
X142125540Y-125215410D01*
X142260298Y-125104816D01*
X142288015Y-125071043D01*
X142576102Y-124782956D01*
X142592795Y-124823256D01*
X142706063Y-124992774D01*
X142850226Y-125136937D01*
X143019744Y-125250205D01*
X143208102Y-125328226D01*
X143408061Y-125368000D01*
X143611939Y-125368000D01*
X143811898Y-125328226D01*
X144000256Y-125250205D01*
X144048454Y-125218000D01*
X147035546Y-125218000D01*
X147083744Y-125250205D01*
X147272102Y-125328226D01*
X147472061Y-125368000D01*
X147675939Y-125368000D01*
X147875898Y-125328226D01*
X148064256Y-125250205D01*
X148112454Y-125218000D01*
X150591546Y-125218000D01*
X150639744Y-125250205D01*
X150828102Y-125328226D01*
X151028061Y-125368000D01*
X151231939Y-125368000D01*
X151431898Y-125328226D01*
X151620256Y-125250205D01*
X151668454Y-125218000D01*
X154147546Y-125218000D01*
X154195744Y-125250205D01*
X154384102Y-125328226D01*
X154584061Y-125368000D01*
X154787939Y-125368000D01*
X154987898Y-125328226D01*
X155176256Y-125250205D01*
X155224454Y-125218000D01*
X162783546Y-125218000D01*
X162831744Y-125250205D01*
X163020102Y-125328226D01*
X163220061Y-125368000D01*
X163423939Y-125368000D01*
X163623898Y-125328226D01*
X163812256Y-125250205D01*
X163981774Y-125136937D01*
X164125937Y-124992774D01*
X164239205Y-124823256D01*
X164317226Y-124634898D01*
X164357000Y-124434939D01*
X164357000Y-124231061D01*
X164317226Y-124031102D01*
X164239205Y-123842744D01*
X164125937Y-123673226D01*
X163981774Y-123529063D01*
X163812256Y-123415795D01*
X163623898Y-123337774D01*
X163423939Y-123298000D01*
X163220061Y-123298000D01*
X163020102Y-123337774D01*
X162831744Y-123415795D01*
X162783546Y-123448000D01*
X155224454Y-123448000D01*
X155176256Y-123415795D01*
X154987898Y-123337774D01*
X154787939Y-123298000D01*
X154584061Y-123298000D01*
X154384102Y-123337774D01*
X154195744Y-123415795D01*
X154147546Y-123448000D01*
X151668454Y-123448000D01*
X151620256Y-123415795D01*
X151431898Y-123337774D01*
X151231939Y-123298000D01*
X151028061Y-123298000D01*
X150828102Y-123337774D01*
X150639744Y-123415795D01*
X150591546Y-123448000D01*
X148112454Y-123448000D01*
X148064256Y-123415795D01*
X147875898Y-123337774D01*
X147675939Y-123298000D01*
X147472061Y-123298000D01*
X147272102Y-123337774D01*
X147083744Y-123415795D01*
X147035546Y-123448000D01*
X144048454Y-123448000D01*
X144000256Y-123415795D01*
X143959956Y-123399102D01*
X144484069Y-122874990D01*
X170691406Y-122874990D01*
X170623487Y-123098889D01*
X170594815Y-123390000D01*
X170623487Y-123681111D01*
X170708401Y-123961034D01*
X170846294Y-124219014D01*
X171031866Y-124445134D01*
X171257986Y-124630706D01*
X171275374Y-124640000D01*
X171257986Y-124649294D01*
X171031866Y-124834866D01*
X170846294Y-125060986D01*
X170708401Y-125318966D01*
X170623487Y-125598889D01*
X170594815Y-125890000D01*
X170623487Y-126181111D01*
X170708401Y-126461034D01*
X170846294Y-126719014D01*
X171031866Y-126945134D01*
X171257986Y-127130706D01*
X171275374Y-127140000D01*
X171257986Y-127149294D01*
X171031866Y-127334866D01*
X170846294Y-127560986D01*
X170708401Y-127818966D01*
X170623487Y-128098889D01*
X170594815Y-128390000D01*
X170623487Y-128681111D01*
X170708401Y-128961034D01*
X170846294Y-129219014D01*
X171031866Y-129445134D01*
X171257986Y-129630706D01*
X171275374Y-129640000D01*
X171257986Y-129649294D01*
X171031866Y-129834866D01*
X170846294Y-130060986D01*
X170708401Y-130318966D01*
X170623487Y-130598889D01*
X170594815Y-130890000D01*
X170623487Y-131181111D01*
X170708401Y-131461034D01*
X170846294Y-131719014D01*
X171031866Y-131945134D01*
X171257986Y-132130706D01*
X171283722Y-132144462D01*
X171077571Y-132300951D01*
X170884504Y-132518807D01*
X170737648Y-132770142D01*
X170645524Y-133033110D01*
X170766845Y-133263000D01*
X172085000Y-133263000D01*
X172085000Y-133243000D01*
X172339000Y-133243000D01*
X172339000Y-133263000D01*
X172359000Y-133263000D01*
X172359000Y-133517000D01*
X172339000Y-133517000D01*
X172339000Y-133537000D01*
X172085000Y-133537000D01*
X172085000Y-133517000D01*
X170766845Y-133517000D01*
X170645524Y-133746890D01*
X170737648Y-134009858D01*
X170884504Y-134261193D01*
X171077571Y-134479049D01*
X171098961Y-134495286D01*
X170993614Y-134551595D01*
X170859038Y-134662038D01*
X170748595Y-134796614D01*
X170666528Y-134950150D01*
X170615992Y-135116746D01*
X170598928Y-135290000D01*
X170598928Y-136490000D01*
X170615992Y-136663254D01*
X170666528Y-136829850D01*
X170748595Y-136983386D01*
X170859038Y-137117962D01*
X170993614Y-137228405D01*
X171147150Y-137310472D01*
X171313746Y-137361008D01*
X171487000Y-137378072D01*
X172937000Y-137378072D01*
X173110254Y-137361008D01*
X173276850Y-137310472D01*
X173430386Y-137228405D01*
X173564962Y-137117962D01*
X173675405Y-136983386D01*
X173757472Y-136829850D01*
X173808008Y-136663254D01*
X173823109Y-136509932D01*
X173843534Y-136485044D01*
X174832070Y-135496509D01*
X174865837Y-135468797D01*
X174976431Y-135334039D01*
X175029782Y-135234226D01*
X175058609Y-135180294D01*
X175109215Y-135013470D01*
X175116080Y-134943767D01*
X175122020Y-134883457D01*
X175122020Y-134883449D01*
X175126301Y-134839980D01*
X175122020Y-134796511D01*
X175122020Y-123353572D01*
X175126301Y-123310106D01*
X175122020Y-123266640D01*
X175122020Y-123266630D01*
X175109215Y-123136617D01*
X175058609Y-122969794D01*
X174976431Y-122816048D01*
X174865837Y-122681290D01*
X174832069Y-122653577D01*
X173573437Y-121394946D01*
X173545720Y-121361173D01*
X173410962Y-121250579D01*
X173257216Y-121168401D01*
X173090393Y-121117795D01*
X172960380Y-121104990D01*
X172960372Y-121104990D01*
X172916903Y-121100709D01*
X172873434Y-121104990D01*
X144160959Y-121104990D01*
X144117490Y-121100709D01*
X144074021Y-121104990D01*
X144074013Y-121104990D01*
X143944000Y-121117795D01*
X143915500Y-121126440D01*
X143915500Y-120884740D01*
X143858432Y-120597842D01*
X143820805Y-120507001D01*
X160909446Y-120507001D01*
X160947999Y-120510798D01*
X160986552Y-120507001D01*
X160986560Y-120507001D01*
X161101886Y-120495642D01*
X161249859Y-120450755D01*
X161386232Y-120377863D01*
X161505763Y-120279765D01*
X161530346Y-120249811D01*
X163239082Y-118541075D01*
X163429740Y-118579000D01*
X163722260Y-118579000D01*
X164009158Y-118521932D01*
X164279411Y-118409990D01*
X164522632Y-118247475D01*
X164729475Y-118040632D01*
X164891990Y-117797411D01*
X165003932Y-117527158D01*
X165061000Y-117240260D01*
X165061000Y-116947740D01*
X165003932Y-116660842D01*
X164941037Y-116509000D01*
X166089904Y-116509000D01*
X165901490Y-116790981D01*
G36*
X126527928Y-117944000D02*
G01*
X126540188Y-118068482D01*
X126576498Y-118188180D01*
X126635463Y-118298494D01*
X126714815Y-118395185D01*
X126811506Y-118474537D01*
X126921820Y-118533502D01*
X127041518Y-118569812D01*
X127166000Y-118582072D01*
X128252494Y-118582072D01*
X128607422Y-118937001D01*
X122251551Y-118937001D01*
X122212998Y-118933204D01*
X122174445Y-118937001D01*
X122174438Y-118937001D01*
X122073489Y-118946944D01*
X122059111Y-118948360D01*
X122024671Y-118958807D01*
X121911139Y-118993247D01*
X121774766Y-119066139D01*
X121714558Y-119115551D01*
X121685186Y-119139656D01*
X121685183Y-119139659D01*
X121655235Y-119164237D01*
X121630657Y-119194185D01*
X120574843Y-120250000D01*
X120548061Y-120250000D01*
X120348102Y-120289774D01*
X120159744Y-120367795D01*
X119990226Y-120481063D01*
X119846063Y-120625226D01*
X119732795Y-120794744D01*
X119654774Y-120983102D01*
X119615000Y-121183061D01*
X119615000Y-121386939D01*
X119654774Y-121586898D01*
X119667399Y-121617378D01*
X119519574Y-121556147D01*
X119242335Y-121501000D01*
X118959665Y-121501000D01*
X118682426Y-121556147D01*
X118421273Y-121664320D01*
X118186241Y-121821363D01*
X117986363Y-122021241D01*
X117829320Y-122256273D01*
X117721147Y-122517426D01*
X117666000Y-122794665D01*
X117666000Y-123077335D01*
X117721147Y-123354574D01*
X117829320Y-123615727D01*
X117986363Y-123850759D01*
X118186241Y-124050637D01*
X118421273Y-124207680D01*
X118682426Y-124315853D01*
X118959665Y-124371000D01*
X119242335Y-124371000D01*
X119519574Y-124315853D01*
X119780727Y-124207680D01*
X120015759Y-124050637D01*
X120215637Y-123850759D01*
X120372680Y-123615727D01*
X120480853Y-123354574D01*
X120536000Y-123077335D01*
X120536000Y-122794665D01*
X120480853Y-122517426D01*
X120385699Y-122287705D01*
X120548061Y-122320000D01*
X120751939Y-122320000D01*
X120862928Y-122297923D01*
X120862928Y-123736000D01*
X120875188Y-123860482D01*
X120911498Y-123980180D01*
X120970463Y-124090494D01*
X121049815Y-124187185D01*
X121146506Y-124266537D01*
X121256820Y-124325502D01*
X121376518Y-124361812D01*
X121501000Y-124374072D01*
X122201351Y-124374072D01*
X120392434Y-126182990D01*
X119515182Y-126182990D01*
X119471716Y-126178709D01*
X119428250Y-126182990D01*
X119428240Y-126182990D01*
X119298227Y-126195795D01*
X119131404Y-126246401D01*
X118977658Y-126328579D01*
X118948169Y-126352780D01*
X118876670Y-126411458D01*
X118876668Y-126411460D01*
X118842900Y-126439173D01*
X118815187Y-126472941D01*
X117271000Y-128017129D01*
X117271000Y-119665378D01*
X117552981Y-119853792D01*
X117962165Y-120023281D01*
X118396552Y-120109686D01*
X118839448Y-120109686D01*
X119273835Y-120023281D01*
X119683019Y-119853792D01*
X120051274Y-119607731D01*
X120364449Y-119294556D01*
X120610510Y-118926301D01*
X120779999Y-118517117D01*
X120866404Y-118082730D01*
X120866404Y-117639834D01*
X120779999Y-117205447D01*
X120610510Y-116796263D01*
X120418566Y-116509000D01*
X126527928Y-116509000D01*
X126527928Y-117944000D01*
G37*
X126527928Y-117944000D02*
X126540188Y-118068482D01*
X126576498Y-118188180D01*
X126635463Y-118298494D01*
X126714815Y-118395185D01*
X126811506Y-118474537D01*
X126921820Y-118533502D01*
X127041518Y-118569812D01*
X127166000Y-118582072D01*
X128252494Y-118582072D01*
X128607422Y-118937001D01*
X122251551Y-118937001D01*
X122212998Y-118933204D01*
X122174445Y-118937001D01*
X122174438Y-118937001D01*
X122073489Y-118946944D01*
X122059111Y-118948360D01*
X122024671Y-118958807D01*
X121911139Y-118993247D01*
X121774766Y-119066139D01*
X121714558Y-119115551D01*
X121685186Y-119139656D01*
X121685183Y-119139659D01*
X121655235Y-119164237D01*
X121630657Y-119194185D01*
X120574843Y-120250000D01*
X120548061Y-120250000D01*
X120348102Y-120289774D01*
X120159744Y-120367795D01*
X119990226Y-120481063D01*
X119846063Y-120625226D01*
X119732795Y-120794744D01*
X119654774Y-120983102D01*
X119615000Y-121183061D01*
X119615000Y-121386939D01*
X119654774Y-121586898D01*
X119667399Y-121617378D01*
X119519574Y-121556147D01*
X119242335Y-121501000D01*
X118959665Y-121501000D01*
X118682426Y-121556147D01*
X118421273Y-121664320D01*
X118186241Y-121821363D01*
X117986363Y-122021241D01*
X117829320Y-122256273D01*
X117721147Y-122517426D01*
X117666000Y-122794665D01*
X117666000Y-123077335D01*
X117721147Y-123354574D01*
X117829320Y-123615727D01*
X117986363Y-123850759D01*
X118186241Y-124050637D01*
X118421273Y-124207680D01*
X118682426Y-124315853D01*
X118959665Y-124371000D01*
X119242335Y-124371000D01*
X119519574Y-124315853D01*
X119780727Y-124207680D01*
X120015759Y-124050637D01*
X120215637Y-123850759D01*
X120372680Y-123615727D01*
X120480853Y-123354574D01*
X120536000Y-123077335D01*
X120536000Y-122794665D01*
X120480853Y-122517426D01*
X120385699Y-122287705D01*
X120548061Y-122320000D01*
X120751939Y-122320000D01*
X120862928Y-122297923D01*
X120862928Y-123736000D01*
X120875188Y-123860482D01*
X120911498Y-123980180D01*
X120970463Y-124090494D01*
X121049815Y-124187185D01*
X121146506Y-124266537D01*
X121256820Y-124325502D01*
X121376518Y-124361812D01*
X121501000Y-124374072D01*
X122201351Y-124374072D01*
X120392434Y-126182990D01*
X119515182Y-126182990D01*
X119471716Y-126178709D01*
X119428250Y-126182990D01*
X119428240Y-126182990D01*
X119298227Y-126195795D01*
X119131404Y-126246401D01*
X118977658Y-126328579D01*
X118948169Y-126352780D01*
X118876670Y-126411458D01*
X118876668Y-126411460D01*
X118842900Y-126439173D01*
X118815187Y-126472941D01*
X117271000Y-128017129D01*
X117271000Y-119665378D01*
X117552981Y-119853792D01*
X117962165Y-120023281D01*
X118396552Y-120109686D01*
X118839448Y-120109686D01*
X119273835Y-120023281D01*
X119683019Y-119853792D01*
X120051274Y-119607731D01*
X120364449Y-119294556D01*
X120610510Y-118926301D01*
X120779999Y-118517117D01*
X120866404Y-118082730D01*
X120866404Y-117639834D01*
X120779999Y-117205447D01*
X120610510Y-116796263D01*
X120418566Y-116509000D01*
X126527928Y-116509000D01*
X126527928Y-117944000D01*
G36*
X133325500Y-120745250D02*
G01*
X133484250Y-120904000D01*
X134683500Y-120904000D01*
X134683500Y-120884000D01*
X134937500Y-120884000D01*
X134937500Y-120904000D01*
X134957500Y-120904000D01*
X134957500Y-121158000D01*
X134937500Y-121158000D01*
X134937500Y-122357250D01*
X135096250Y-122516000D01*
X135660500Y-122519072D01*
X135784982Y-122506812D01*
X135904680Y-122470502D01*
X136014994Y-122411537D01*
X136111685Y-122332185D01*
X136191037Y-122235494D01*
X136250002Y-122125180D01*
X136272013Y-122052620D01*
X136403868Y-122184475D01*
X136647089Y-122346990D01*
X136917342Y-122458932D01*
X137204240Y-122516000D01*
X137496760Y-122516000D01*
X137783658Y-122458932D01*
X138053911Y-122346990D01*
X138297132Y-122184475D01*
X138503975Y-121977632D01*
X138620500Y-121803240D01*
X138737025Y-121977632D01*
X138943868Y-122184475D01*
X139187089Y-122346990D01*
X139457342Y-122458932D01*
X139744240Y-122516000D01*
X140036760Y-122516000D01*
X140323658Y-122458932D01*
X140593911Y-122346990D01*
X140837132Y-122184475D01*
X141043975Y-121977632D01*
X141160500Y-121803240D01*
X141277025Y-121977632D01*
X141483868Y-122184475D01*
X141727089Y-122346990D01*
X141997342Y-122458932D01*
X142284240Y-122516000D01*
X142339901Y-122516000D01*
X141264903Y-123590999D01*
X123739072Y-123590999D01*
X123739072Y-122136000D01*
X123726812Y-122011518D01*
X123690502Y-121891820D01*
X123684719Y-121881000D01*
X133322428Y-121881000D01*
X133334688Y-122005482D01*
X133370998Y-122125180D01*
X133429963Y-122235494D01*
X133509315Y-122332185D01*
X133606006Y-122411537D01*
X133716320Y-122470502D01*
X133836018Y-122506812D01*
X133960500Y-122519072D01*
X134524750Y-122516000D01*
X134683500Y-122357250D01*
X134683500Y-121158000D01*
X133484250Y-121158000D01*
X133325500Y-121316750D01*
X133322428Y-121881000D01*
X123684719Y-121881000D01*
X123631537Y-121781506D01*
X123552185Y-121684815D01*
X123455494Y-121605463D01*
X123345180Y-121546498D01*
X123225482Y-121510188D01*
X123101000Y-121497928D01*
X121662923Y-121497928D01*
X121685000Y-121386939D01*
X121685000Y-121360157D01*
X122538157Y-120507001D01*
X133324203Y-120507001D01*
X133325500Y-120745250D01*
G37*
X133325500Y-120745250D02*
X133484250Y-120904000D01*
X134683500Y-120904000D01*
X134683500Y-120884000D01*
X134937500Y-120884000D01*
X134937500Y-120904000D01*
X134957500Y-120904000D01*
X134957500Y-121158000D01*
X134937500Y-121158000D01*
X134937500Y-122357250D01*
X135096250Y-122516000D01*
X135660500Y-122519072D01*
X135784982Y-122506812D01*
X135904680Y-122470502D01*
X136014994Y-122411537D01*
X136111685Y-122332185D01*
X136191037Y-122235494D01*
X136250002Y-122125180D01*
X136272013Y-122052620D01*
X136403868Y-122184475D01*
X136647089Y-122346990D01*
X136917342Y-122458932D01*
X137204240Y-122516000D01*
X137496760Y-122516000D01*
X137783658Y-122458932D01*
X138053911Y-122346990D01*
X138297132Y-122184475D01*
X138503975Y-121977632D01*
X138620500Y-121803240D01*
X138737025Y-121977632D01*
X138943868Y-122184475D01*
X139187089Y-122346990D01*
X139457342Y-122458932D01*
X139744240Y-122516000D01*
X140036760Y-122516000D01*
X140323658Y-122458932D01*
X140593911Y-122346990D01*
X140837132Y-122184475D01*
X141043975Y-121977632D01*
X141160500Y-121803240D01*
X141277025Y-121977632D01*
X141483868Y-122184475D01*
X141727089Y-122346990D01*
X141997342Y-122458932D01*
X142284240Y-122516000D01*
X142339901Y-122516000D01*
X141264903Y-123590999D01*
X123739072Y-123590999D01*
X123739072Y-122136000D01*
X123726812Y-122011518D01*
X123690502Y-121891820D01*
X123684719Y-121881000D01*
X133322428Y-121881000D01*
X133334688Y-122005482D01*
X133370998Y-122125180D01*
X133429963Y-122235494D01*
X133509315Y-122332185D01*
X133606006Y-122411537D01*
X133716320Y-122470502D01*
X133836018Y-122506812D01*
X133960500Y-122519072D01*
X134524750Y-122516000D01*
X134683500Y-122357250D01*
X134683500Y-121158000D01*
X133484250Y-121158000D01*
X133325500Y-121316750D01*
X133322428Y-121881000D01*
X123684719Y-121881000D01*
X123631537Y-121781506D01*
X123552185Y-121684815D01*
X123455494Y-121605463D01*
X123345180Y-121546498D01*
X123225482Y-121510188D01*
X123101000Y-121497928D01*
X121662923Y-121497928D01*
X121685000Y-121386939D01*
X121685000Y-121360157D01*
X122538157Y-120507001D01*
X133324203Y-120507001D01*
X133325500Y-120745250D01*
G36*
X130749748Y-117079858D02*
G01*
X130735605Y-117094000D01*
X130749748Y-117108143D01*
X130570143Y-117287748D01*
X130556000Y-117273605D01*
X130541858Y-117287748D01*
X130362253Y-117108143D01*
X130376395Y-117094000D01*
X130362253Y-117079858D01*
X130541858Y-116900253D01*
X130556000Y-116914395D01*
X130570143Y-116900253D01*
X130749748Y-117079858D01*
G37*
X130749748Y-117079858D02*
X130735605Y-117094000D01*
X130749748Y-117108143D01*
X130570143Y-117287748D01*
X130556000Y-117273605D01*
X130541858Y-117287748D01*
X130362253Y-117108143D01*
X130376395Y-117094000D01*
X130362253Y-117079858D01*
X130541858Y-116900253D01*
X130556000Y-116914395D01*
X130570143Y-116900253D01*
X130749748Y-117079858D01*
M02*
