%TF.GenerationSoftware,KiCad,Pcbnew,(5.1.5)-3*%
%TF.CreationDate,2021-02-13T19:55:16+01:00*%
%TF.ProjectId,PSACANBridgeHW_v11,50534156-616e-4436-916e-427269646765,rev?*%
%TF.SameCoordinates,Original*%
%TF.FileFunction,Legend,Top*%
%TF.FilePolarity,Positive*%
%FSLAX46Y46*%
G04 Gerber Fmt 4.6, Leading zero omitted, Abs format (unit mm)*
G04 Created by KiCad (PCBNEW (5.1.5)-3) date 2021-02-13 19:55:16*
%MOMM*%
%LPD*%
G04 APERTURE LIST*
%ADD10C,0.100000*%
%ADD11C,0.120000*%
%ADD12C,0.150000*%
G04 APERTURE END LIST*
D10*
X134073976Y-122663000D02*
X133997785Y-122624904D01*
X133883500Y-122624904D01*
X133769214Y-122663000D01*
X133693023Y-122739190D01*
X133654928Y-122815380D01*
X133616833Y-122967761D01*
X133616833Y-123082047D01*
X133654928Y-123234428D01*
X133693023Y-123310619D01*
X133769214Y-123386809D01*
X133883500Y-123424904D01*
X133959690Y-123424904D01*
X134073976Y-123386809D01*
X134112071Y-123348714D01*
X134112071Y-123082047D01*
X133959690Y-123082047D01*
X134454928Y-123424904D02*
X134454928Y-122624904D01*
X134912071Y-123424904D01*
X134912071Y-122624904D01*
X135293023Y-123424904D02*
X135293023Y-122624904D01*
X135483500Y-122624904D01*
X135597785Y-122663000D01*
X135673976Y-122739190D01*
X135712071Y-122815380D01*
X135750166Y-122967761D01*
X135750166Y-123082047D01*
X135712071Y-123234428D01*
X135673976Y-123310619D01*
X135597785Y-123386809D01*
X135483500Y-123424904D01*
X135293023Y-123424904D01*
X137071126Y-122624904D02*
X136690173Y-122624904D01*
X136652078Y-123005857D01*
X136690173Y-122967761D01*
X136766364Y-122929666D01*
X136956840Y-122929666D01*
X137033030Y-122967761D01*
X137071126Y-123005857D01*
X137109221Y-123082047D01*
X137109221Y-123272523D01*
X137071126Y-123348714D01*
X137033030Y-123386809D01*
X136956840Y-123424904D01*
X136766364Y-123424904D01*
X136690173Y-123386809D01*
X136652078Y-123348714D01*
X137337792Y-122624904D02*
X137604459Y-123424904D01*
X137871126Y-122624904D01*
X132067428Y-140265142D02*
X132676952Y-140265142D01*
X132372190Y-140569904D02*
X132372190Y-139960380D01*
X133438857Y-139769904D02*
X133057904Y-139769904D01*
X133019809Y-140150857D01*
X133057904Y-140112761D01*
X133134095Y-140074666D01*
X133324571Y-140074666D01*
X133400761Y-140112761D01*
X133438857Y-140150857D01*
X133476952Y-140227047D01*
X133476952Y-140417523D01*
X133438857Y-140493714D01*
X133400761Y-140531809D01*
X133324571Y-140569904D01*
X133134095Y-140569904D01*
X133057904Y-140531809D01*
X133019809Y-140493714D01*
X133705523Y-139769904D02*
X133972190Y-140569904D01*
X134238857Y-139769904D01*
X129946476Y-139808000D02*
X129870285Y-139769904D01*
X129756000Y-139769904D01*
X129641714Y-139808000D01*
X129565523Y-139884190D01*
X129527428Y-139960380D01*
X129489333Y-140112761D01*
X129489333Y-140227047D01*
X129527428Y-140379428D01*
X129565523Y-140455619D01*
X129641714Y-140531809D01*
X129756000Y-140569904D01*
X129832190Y-140569904D01*
X129946476Y-140531809D01*
X129984571Y-140493714D01*
X129984571Y-140227047D01*
X129832190Y-140227047D01*
X130327428Y-140569904D02*
X130327428Y-139769904D01*
X130784571Y-140569904D01*
X130784571Y-139769904D01*
X131165523Y-140569904D02*
X131165523Y-139769904D01*
X131356000Y-139769904D01*
X131470285Y-139808000D01*
X131546476Y-139884190D01*
X131584571Y-139960380D01*
X131622666Y-140112761D01*
X131622666Y-140227047D01*
X131584571Y-140379428D01*
X131546476Y-140455619D01*
X131470285Y-140531809D01*
X131356000Y-140569904D01*
X131165523Y-140569904D01*
X126098476Y-140265142D02*
X126708000Y-140265142D01*
X126403238Y-140569904D02*
X126403238Y-139960380D01*
X127508000Y-140569904D02*
X127050857Y-140569904D01*
X127279428Y-140569904D02*
X127279428Y-139769904D01*
X127203238Y-139884190D01*
X127127047Y-139960380D01*
X127050857Y-139998476D01*
X127812761Y-139846095D02*
X127850857Y-139808000D01*
X127927047Y-139769904D01*
X128117523Y-139769904D01*
X128193714Y-139808000D01*
X128231809Y-139846095D01*
X128269904Y-139922285D01*
X128269904Y-139998476D01*
X128231809Y-140112761D01*
X127774666Y-140569904D01*
X128269904Y-140569904D01*
X128498476Y-139769904D02*
X128765142Y-140569904D01*
X129031809Y-139769904D01*
X168072000Y-135947142D02*
X168681524Y-135947142D01*
X168376762Y-136251904D02*
X168376762Y-135642380D01*
X169481524Y-136251904D02*
X169024381Y-136251904D01*
X169252952Y-136251904D02*
X169252952Y-135451904D01*
X169176762Y-135566190D01*
X169100571Y-135642380D01*
X169024381Y-135680476D01*
X169786285Y-135528095D02*
X169824381Y-135490000D01*
X169900571Y-135451904D01*
X170091047Y-135451904D01*
X170167238Y-135490000D01*
X170205333Y-135528095D01*
X170243428Y-135604285D01*
X170243428Y-135680476D01*
X170205333Y-135794761D01*
X169748190Y-136251904D01*
X170243428Y-136251904D01*
X170472000Y-135451904D02*
X170738666Y-136251904D01*
X171005333Y-135451904D01*
X169252952Y-132988100D02*
X169176761Y-132950004D01*
X169062476Y-132950004D01*
X168948190Y-132988100D01*
X168871999Y-133064290D01*
X168833904Y-133140480D01*
X168795809Y-133292861D01*
X168795809Y-133407147D01*
X168833904Y-133559528D01*
X168871999Y-133635719D01*
X168948190Y-133711909D01*
X169062476Y-133750004D01*
X169138666Y-133750004D01*
X169252952Y-133711909D01*
X169291047Y-133673814D01*
X169291047Y-133407147D01*
X169138666Y-133407147D01*
X169633904Y-133750004D02*
X169633904Y-132950004D01*
X170091047Y-133750004D01*
X170091047Y-132950004D01*
X170471999Y-133750004D02*
X170471999Y-132950004D01*
X170662476Y-132950004D01*
X170776761Y-132988100D01*
X170852952Y-133064290D01*
X170891047Y-133140480D01*
X170929142Y-133292861D01*
X170929142Y-133407147D01*
X170891047Y-133559528D01*
X170852952Y-133635719D01*
X170776761Y-133711909D01*
X170662476Y-133750004D01*
X170471999Y-133750004D01*
X168719619Y-131171914D02*
X168681523Y-131210009D01*
X168567238Y-131248104D01*
X168491047Y-131248104D01*
X168376762Y-131210009D01*
X168300571Y-131133819D01*
X168262476Y-131057628D01*
X168224381Y-130905247D01*
X168224381Y-130790961D01*
X168262476Y-130638580D01*
X168300571Y-130562390D01*
X168376762Y-130486200D01*
X168491047Y-130448104D01*
X168567238Y-130448104D01*
X168681523Y-130486200D01*
X168719619Y-130524295D01*
X169481523Y-131248104D02*
X169024381Y-131248104D01*
X169252952Y-131248104D02*
X169252952Y-130448104D01*
X169176762Y-130562390D01*
X169100571Y-130638580D01*
X169024381Y-130676676D01*
X169633904Y-131324295D02*
X170243428Y-131324295D01*
X170433904Y-131248104D02*
X170433904Y-130448104D01*
X170433904Y-130829057D02*
X170891047Y-130829057D01*
X170891047Y-131248104D02*
X170891047Y-130448104D01*
X168910095Y-128670014D02*
X168872000Y-128708109D01*
X168757714Y-128746204D01*
X168681523Y-128746204D01*
X168567238Y-128708109D01*
X168491047Y-128631919D01*
X168452952Y-128555728D01*
X168414857Y-128403347D01*
X168414857Y-128289061D01*
X168452952Y-128136680D01*
X168491047Y-128060490D01*
X168567238Y-127984300D01*
X168681523Y-127946204D01*
X168757714Y-127946204D01*
X168872000Y-127984300D01*
X168910095Y-128022395D01*
X169672000Y-128746204D02*
X169214857Y-128746204D01*
X169443428Y-128746204D02*
X169443428Y-127946204D01*
X169367238Y-128060490D01*
X169291047Y-128136680D01*
X169214857Y-128174776D01*
X169824380Y-128822395D02*
X170433904Y-128822395D01*
X171005333Y-128746204D02*
X170624380Y-128746204D01*
X170624380Y-127946204D01*
X168719619Y-126168114D02*
X168681523Y-126206209D01*
X168567238Y-126244304D01*
X168491047Y-126244304D01*
X168376762Y-126206209D01*
X168300571Y-126130019D01*
X168262476Y-126053828D01*
X168224381Y-125901447D01*
X168224381Y-125787161D01*
X168262476Y-125634780D01*
X168300571Y-125558590D01*
X168376762Y-125482400D01*
X168491047Y-125444304D01*
X168567238Y-125444304D01*
X168681523Y-125482400D01*
X168719619Y-125520495D01*
X169024381Y-125520495D02*
X169062476Y-125482400D01*
X169138666Y-125444304D01*
X169329142Y-125444304D01*
X169405333Y-125482400D01*
X169443428Y-125520495D01*
X169481523Y-125596685D01*
X169481523Y-125672876D01*
X169443428Y-125787161D01*
X168986285Y-126244304D01*
X169481523Y-126244304D01*
X169633904Y-126320495D02*
X170243428Y-126320495D01*
X170433904Y-126244304D02*
X170433904Y-125444304D01*
X170433904Y-125825257D02*
X170891047Y-125825257D01*
X170891047Y-126244304D02*
X170891047Y-125444304D01*
X168910095Y-123666214D02*
X168872000Y-123704309D01*
X168757714Y-123742404D01*
X168681523Y-123742404D01*
X168567238Y-123704309D01*
X168491047Y-123628119D01*
X168452952Y-123551928D01*
X168414857Y-123399547D01*
X168414857Y-123285261D01*
X168452952Y-123132880D01*
X168491047Y-123056690D01*
X168567238Y-122980500D01*
X168681523Y-122942404D01*
X168757714Y-122942404D01*
X168872000Y-122980500D01*
X168910095Y-123018595D01*
X169214857Y-123018595D02*
X169252952Y-122980500D01*
X169329142Y-122942404D01*
X169519619Y-122942404D01*
X169595809Y-122980500D01*
X169633904Y-123018595D01*
X169672000Y-123094785D01*
X169672000Y-123170976D01*
X169633904Y-123285261D01*
X169176761Y-123742404D01*
X169672000Y-123742404D01*
X169824380Y-123818595D02*
X170433904Y-123818595D01*
X171005333Y-123742404D02*
X170624380Y-123742404D01*
X170624380Y-122942404D01*
X141541619Y-123386809D02*
X141655904Y-123424904D01*
X141846380Y-123424904D01*
X141922571Y-123386809D01*
X141960666Y-123348714D01*
X141998761Y-123272523D01*
X141998761Y-123196333D01*
X141960666Y-123120142D01*
X141922571Y-123082047D01*
X141846380Y-123043952D01*
X141694000Y-123005857D01*
X141617809Y-122967761D01*
X141579714Y-122929666D01*
X141541619Y-122853476D01*
X141541619Y-122777285D01*
X141579714Y-122701095D01*
X141617809Y-122663000D01*
X141694000Y-122624904D01*
X141884476Y-122624904D01*
X141998761Y-122663000D01*
X142798761Y-123348714D02*
X142760666Y-123386809D01*
X142646380Y-123424904D01*
X142570190Y-123424904D01*
X142455904Y-123386809D01*
X142379714Y-123310619D01*
X142341619Y-123234428D01*
X142303523Y-123082047D01*
X142303523Y-122967761D01*
X142341619Y-122815380D01*
X142379714Y-122739190D01*
X142455904Y-122663000D01*
X142570190Y-122624904D01*
X142646380Y-122624904D01*
X142760666Y-122663000D01*
X142798761Y-122701095D01*
X143522571Y-123424904D02*
X143141619Y-123424904D01*
X143141619Y-122624904D01*
X138696847Y-123386809D02*
X138811133Y-123424904D01*
X139001609Y-123424904D01*
X139077799Y-123386809D01*
X139115895Y-123348714D01*
X139153990Y-123272523D01*
X139153990Y-123196333D01*
X139115895Y-123120142D01*
X139077799Y-123082047D01*
X139001609Y-123043952D01*
X138849228Y-123005857D01*
X138773037Y-122967761D01*
X138734942Y-122929666D01*
X138696847Y-122853476D01*
X138696847Y-122777285D01*
X138734942Y-122701095D01*
X138773037Y-122663000D01*
X138849228Y-122624904D01*
X139039704Y-122624904D01*
X139153990Y-122663000D01*
X139496847Y-123424904D02*
X139496847Y-122624904D01*
X139687323Y-122624904D01*
X139801609Y-122663000D01*
X139877799Y-122739190D01*
X139915895Y-122815380D01*
X139953990Y-122967761D01*
X139953990Y-123082047D01*
X139915895Y-123234428D01*
X139877799Y-123310619D01*
X139801609Y-123386809D01*
X139687323Y-123424904D01*
X139496847Y-123424904D01*
X140258752Y-123196333D02*
X140639704Y-123196333D01*
X140182561Y-123424904D02*
X140449228Y-122624904D01*
X140715895Y-123424904D01*
X175774357Y-139857500D02*
X175774357Y-139590833D01*
X176193404Y-139476547D02*
X176193404Y-139857500D01*
X175393404Y-139857500D01*
X175393404Y-139476547D01*
X176155309Y-139171785D02*
X176193404Y-139057500D01*
X176193404Y-138867023D01*
X176155309Y-138790833D01*
X176117214Y-138752738D01*
X176041023Y-138714642D01*
X175964833Y-138714642D01*
X175888642Y-138752738D01*
X175850547Y-138790833D01*
X175812452Y-138867023D01*
X175774357Y-139019404D01*
X175736261Y-139095595D01*
X175698166Y-139133690D01*
X175621976Y-139171785D01*
X175545785Y-139171785D01*
X175469595Y-139133690D01*
X175431500Y-139095595D01*
X175393404Y-139019404D01*
X175393404Y-138828928D01*
X175431500Y-138714642D01*
X176193404Y-138371785D02*
X175393404Y-138371785D01*
X175393404Y-138067023D01*
X175431500Y-137990833D01*
X175469595Y-137952738D01*
X175545785Y-137914642D01*
X175660071Y-137914642D01*
X175736261Y-137952738D01*
X175774357Y-137990833D01*
X175812452Y-138067023D01*
X175812452Y-138371785D01*
X175393404Y-137647976D02*
X175393404Y-137152738D01*
X175698166Y-137419404D01*
X175698166Y-137305119D01*
X175736261Y-137228928D01*
X175774357Y-137190833D01*
X175850547Y-137152738D01*
X176041023Y-137152738D01*
X176117214Y-137190833D01*
X176155309Y-137228928D01*
X176193404Y-137305119D01*
X176193404Y-137533690D01*
X176155309Y-137609880D01*
X176117214Y-137647976D01*
X175469595Y-136847976D02*
X175431500Y-136809880D01*
X175393404Y-136733690D01*
X175393404Y-136543214D01*
X175431500Y-136467023D01*
X175469595Y-136428928D01*
X175545785Y-136390833D01*
X175621976Y-136390833D01*
X175736261Y-136428928D01*
X176193404Y-136886071D01*
X176193404Y-136390833D01*
X176193404Y-135438452D02*
X175393404Y-135438452D01*
X175393404Y-135247976D01*
X175431500Y-135133690D01*
X175507690Y-135057500D01*
X175583880Y-135019404D01*
X175736261Y-134981309D01*
X175850547Y-134981309D01*
X176002928Y-135019404D01*
X176079119Y-135057500D01*
X176155309Y-135133690D01*
X176193404Y-135247976D01*
X176193404Y-135438452D01*
X175660071Y-134295595D02*
X176193404Y-134295595D01*
X175660071Y-134638452D02*
X176079119Y-134638452D01*
X176155309Y-134600357D01*
X176193404Y-134524166D01*
X176193404Y-134409880D01*
X176155309Y-134333690D01*
X176117214Y-134295595D01*
X176193404Y-133571785D02*
X175774357Y-133571785D01*
X175698166Y-133609880D01*
X175660071Y-133686071D01*
X175660071Y-133838452D01*
X175698166Y-133914642D01*
X176155309Y-133571785D02*
X176193404Y-133647976D01*
X176193404Y-133838452D01*
X176155309Y-133914642D01*
X176079119Y-133952738D01*
X176002928Y-133952738D01*
X175926738Y-133914642D01*
X175888642Y-133838452D01*
X175888642Y-133647976D01*
X175850547Y-133571785D01*
X176193404Y-133076547D02*
X176155309Y-133152738D01*
X176079119Y-133190833D01*
X175393404Y-133190833D01*
X176117214Y-132314642D02*
X176155309Y-132352738D01*
X176193404Y-132467023D01*
X176193404Y-132543214D01*
X176155309Y-132657500D01*
X176079119Y-132733690D01*
X176002928Y-132771785D01*
X175850547Y-132809880D01*
X175736261Y-132809880D01*
X175583880Y-132771785D01*
X175507690Y-132733690D01*
X175431500Y-132657500D01*
X175393404Y-132543214D01*
X175393404Y-132467023D01*
X175431500Y-132352738D01*
X175469595Y-132314642D01*
X175964833Y-132009880D02*
X175964833Y-131628928D01*
X176193404Y-132086071D02*
X175393404Y-131819404D01*
X176193404Y-131552738D01*
X176193404Y-131286071D02*
X175393404Y-131286071D01*
X176193404Y-130828928D01*
X175393404Y-130828928D01*
X175660071Y-129914642D02*
X176193404Y-129724166D01*
X175660071Y-129533690D01*
X176193404Y-128809880D02*
X176193404Y-129267023D01*
X176193404Y-129038452D02*
X175393404Y-129038452D01*
X175507690Y-129114642D01*
X175583880Y-129190833D01*
X175621976Y-129267023D01*
X176117214Y-128467023D02*
X176155309Y-128428928D01*
X176193404Y-128467023D01*
X176155309Y-128505119D01*
X176117214Y-128467023D01*
X176193404Y-128467023D01*
X176193404Y-127667023D02*
X176193404Y-128124166D01*
X176193404Y-127895595D02*
X175393404Y-127895595D01*
X175507690Y-127971785D01*
X175583880Y-128047976D01*
X175621976Y-128124166D01*
X175469595Y-126752738D02*
X175431500Y-126714642D01*
X175393404Y-126638452D01*
X175393404Y-126447976D01*
X175431500Y-126371785D01*
X175469595Y-126333690D01*
X175545785Y-126295595D01*
X175621976Y-126295595D01*
X175736261Y-126333690D01*
X176193404Y-126790833D01*
X176193404Y-126295595D01*
X175393404Y-125800357D02*
X175393404Y-125724166D01*
X175431500Y-125647976D01*
X175469595Y-125609880D01*
X175545785Y-125571785D01*
X175698166Y-125533690D01*
X175888642Y-125533690D01*
X176041023Y-125571785D01*
X176117214Y-125609880D01*
X176155309Y-125647976D01*
X176193404Y-125724166D01*
X176193404Y-125800357D01*
X176155309Y-125876547D01*
X176117214Y-125914642D01*
X176041023Y-125952738D01*
X175888642Y-125990833D01*
X175698166Y-125990833D01*
X175545785Y-125952738D01*
X175469595Y-125914642D01*
X175431500Y-125876547D01*
X175393404Y-125800357D01*
X175469595Y-125228928D02*
X175431500Y-125190833D01*
X175393404Y-125114642D01*
X175393404Y-124924166D01*
X175431500Y-124847976D01*
X175469595Y-124809880D01*
X175545785Y-124771785D01*
X175621976Y-124771785D01*
X175736261Y-124809880D01*
X176193404Y-125267023D01*
X176193404Y-124771785D01*
X176193404Y-124009880D02*
X176193404Y-124467023D01*
X176193404Y-124238452D02*
X175393404Y-124238452D01*
X175507690Y-124314642D01*
X175583880Y-124390833D01*
X175621976Y-124467023D01*
X176117214Y-123667023D02*
X176155309Y-123628928D01*
X176193404Y-123667023D01*
X176155309Y-123705119D01*
X176117214Y-123667023D01*
X176193404Y-123667023D01*
X175393404Y-123133690D02*
X175393404Y-123057500D01*
X175431500Y-122981309D01*
X175469595Y-122943214D01*
X175545785Y-122905119D01*
X175698166Y-122867023D01*
X175888642Y-122867023D01*
X176041023Y-122905119D01*
X176117214Y-122943214D01*
X176155309Y-122981309D01*
X176193404Y-123057500D01*
X176193404Y-123133690D01*
X176155309Y-123209880D01*
X176117214Y-123247976D01*
X176041023Y-123286071D01*
X175888642Y-123324166D01*
X175698166Y-123324166D01*
X175545785Y-123286071D01*
X175469595Y-123247976D01*
X175431500Y-123209880D01*
X175393404Y-123133690D01*
X175469595Y-122562261D02*
X175431500Y-122524166D01*
X175393404Y-122447976D01*
X175393404Y-122257500D01*
X175431500Y-122181309D01*
X175469595Y-122143214D01*
X175545785Y-122105119D01*
X175621976Y-122105119D01*
X175736261Y-122143214D01*
X176193404Y-122600357D01*
X176193404Y-122105119D01*
X176117214Y-121762261D02*
X176155309Y-121724166D01*
X176193404Y-121762261D01*
X176155309Y-121800357D01*
X176117214Y-121762261D01*
X176193404Y-121762261D01*
X176193404Y-120962261D02*
X176193404Y-121419404D01*
X176193404Y-121190833D02*
X175393404Y-121190833D01*
X175507690Y-121267023D01*
X175583880Y-121343214D01*
X175621976Y-121419404D01*
X175393404Y-120695595D02*
X175393404Y-120200357D01*
X175698166Y-120467023D01*
X175698166Y-120352738D01*
X175736261Y-120276547D01*
X175774357Y-120238452D01*
X175850547Y-120200357D01*
X176041023Y-120200357D01*
X176117214Y-120238452D01*
X176155309Y-120276547D01*
X176193404Y-120352738D01*
X176193404Y-120581309D01*
X176155309Y-120657500D01*
X176117214Y-120695595D01*
X176117214Y-119857500D02*
X176155309Y-119819404D01*
X176193404Y-119857500D01*
X176155309Y-119895595D01*
X176117214Y-119857500D01*
X176193404Y-119857500D01*
D11*
X160338733Y-139321000D02*
X160681267Y-139321000D01*
X160338733Y-138301000D02*
X160681267Y-138301000D01*
X133480500Y-122361000D02*
X133480500Y-121031000D01*
X134810500Y-122361000D02*
X133480500Y-122361000D01*
X136080500Y-122361000D02*
X136080500Y-119701000D01*
X136080500Y-119701000D02*
X143760500Y-119701000D01*
X136080500Y-122361000D02*
X143760500Y-122361000D01*
X143760500Y-122361000D02*
X143760500Y-119701000D01*
X162261733Y-131701000D02*
X162604267Y-131701000D01*
X162261733Y-130681000D02*
X162604267Y-130681000D01*
X146000000Y-128472000D02*
X144185000Y-128472000D01*
X146000000Y-128227000D02*
X146000000Y-128472000D01*
X149860000Y-128227000D02*
X146000000Y-128227000D01*
X153720000Y-128227000D02*
X153720000Y-128472000D01*
X149860000Y-128227000D02*
X153720000Y-128227000D01*
X146000000Y-139997000D02*
X146000000Y-139752000D01*
X149860000Y-139997000D02*
X146000000Y-139997000D01*
X153720000Y-139997000D02*
X153720000Y-139752000D01*
X149860000Y-139997000D02*
X153720000Y-139997000D01*
X147402733Y-127764000D02*
X147745267Y-127764000D01*
X147402733Y-126744000D02*
X147745267Y-126744000D01*
X158244000Y-130219267D02*
X158244000Y-129876733D01*
X157224000Y-130219267D02*
X157224000Y-129876733D01*
X162560000Y-132568000D02*
X159110000Y-132568000D01*
X162560000Y-132568000D02*
X164510000Y-132568000D01*
X162560000Y-137688000D02*
X160610000Y-137688000D01*
X162560000Y-137688000D02*
X164510000Y-137688000D01*
X162560000Y-123424000D02*
X159110000Y-123424000D01*
X162560000Y-123424000D02*
X164510000Y-123424000D01*
X162560000Y-128544000D02*
X160610000Y-128544000D01*
X162560000Y-128544000D02*
X164510000Y-128544000D01*
X135270000Y-127002000D02*
X135270000Y-133402000D01*
X140320000Y-127002000D02*
X140320000Y-133402000D01*
X135270000Y-133402000D02*
G75*
G03X140320000Y-133402000I2525000J0D01*
G01*
X135270000Y-127002000D02*
G75*
G02X140320000Y-127002000I2525000J0D01*
G01*
X132339000Y-132772000D02*
X132339000Y-133872000D01*
X132609000Y-132772000D02*
X132339000Y-132772000D01*
X132609000Y-131272000D02*
X132609000Y-132772000D01*
X125979000Y-132772000D02*
X125979000Y-135602000D01*
X125709000Y-132772000D02*
X125979000Y-132772000D01*
X125709000Y-131272000D02*
X125709000Y-132772000D01*
X156673733Y-126240000D02*
X157016267Y-126240000D01*
X156673733Y-125220000D02*
X157016267Y-125220000D01*
X153033065Y-126240000D02*
X153375599Y-126240000D01*
X153033065Y-125220000D02*
X153375599Y-125220000D01*
X157016267Y-119886000D02*
X156673733Y-119886000D01*
X157016267Y-120906000D02*
X156673733Y-120906000D01*
X153375599Y-119886000D02*
X153033065Y-119886000D01*
X153375599Y-120906000D02*
X153033065Y-120906000D01*
X149392399Y-126240000D02*
X149734933Y-126240000D01*
X149392399Y-125220000D02*
X149734933Y-125220000D01*
X145751733Y-126240000D02*
X146094267Y-126240000D01*
X145751733Y-125220000D02*
X146094267Y-125220000D01*
X149734933Y-119886000D02*
X149392399Y-119886000D01*
X149734933Y-120906000D02*
X149392399Y-120906000D01*
X146094267Y-119886000D02*
X145751733Y-119886000D01*
X146094267Y-120906000D02*
X145751733Y-120906000D01*
X166622000Y-125812733D02*
X166622000Y-126155267D01*
X167642000Y-125812733D02*
X167642000Y-126155267D01*
X166622000Y-134956733D02*
X166622000Y-135299267D01*
X167642000Y-134956733D02*
X167642000Y-135299267D01*
X123018733Y-117985000D02*
X123361267Y-117985000D01*
X123018733Y-116965000D02*
X123361267Y-116965000D01*
X123700000Y-128554267D02*
X123700000Y-128211733D01*
X122680000Y-128554267D02*
X122680000Y-128211733D01*
X155138000Y-123823000D02*
X155138000Y-122363000D01*
X158298000Y-123823000D02*
X158298000Y-121663000D01*
X158298000Y-123823000D02*
X157368000Y-123823000D01*
X155138000Y-123823000D02*
X156068000Y-123823000D01*
X151582000Y-123823000D02*
X151582000Y-122363000D01*
X154742000Y-123823000D02*
X154742000Y-121663000D01*
X154742000Y-123823000D02*
X153812000Y-123823000D01*
X151582000Y-123823000D02*
X152512000Y-123823000D01*
X148026000Y-123823000D02*
X148026000Y-122363000D01*
X151186000Y-123823000D02*
X151186000Y-121663000D01*
X151186000Y-123823000D02*
X150256000Y-123823000D01*
X148026000Y-123823000D02*
X148956000Y-123823000D01*
X144470000Y-123823000D02*
X144470000Y-122363000D01*
X147630000Y-123823000D02*
X147630000Y-121663000D01*
X147630000Y-123823000D02*
X146700000Y-123823000D01*
X144470000Y-123823000D02*
X145400000Y-123823000D01*
X121992000Y-131213000D02*
X121992000Y-127613000D01*
X121980478Y-127574522D02*
G75*
G03X117542000Y-129413000I-1838478J-1838478D01*
G01*
X121980478Y-131251478D02*
G75*
G02X117542000Y-129413000I-1838478J1838478D01*
G01*
X126813000Y-138176000D02*
X126813000Y-136846000D01*
X126813000Y-136846000D02*
X128143000Y-136846000D01*
X129413000Y-136846000D02*
X134553000Y-136846000D01*
X134553000Y-139506000D02*
X134553000Y-136846000D01*
X129413000Y-139506000D02*
X134553000Y-139506000D01*
X129413000Y-139506000D02*
X129413000Y-136846000D01*
X118365000Y-139671000D02*
X118365000Y-134271000D01*
X121665000Y-139671000D02*
X121665000Y-134271000D01*
X118365000Y-139671000D02*
X121665000Y-139671000D01*
X132873500Y-120981500D02*
X128488500Y-120981500D01*
X132873500Y-124001500D02*
X132873500Y-120981500D01*
X128488500Y-124001500D02*
X132873500Y-124001500D01*
X125855000Y-122637733D02*
X125855000Y-122980267D01*
X126875000Y-122637733D02*
X126875000Y-122980267D01*
X162261733Y-122684000D02*
X162604267Y-122684000D01*
X162261733Y-121664000D02*
X162604267Y-121664000D01*
X123742267Y-140460000D02*
X123399733Y-140460000D01*
X123742267Y-141480000D02*
X123399733Y-141480000D01*
X125081000Y-139795000D02*
X125081000Y-135410000D01*
X122061000Y-139795000D02*
X125081000Y-139795000D01*
X122061000Y-135410000D02*
X122061000Y-139795000D01*
X141730000Y-136734733D02*
X141730000Y-137077267D01*
X142750000Y-136734733D02*
X142750000Y-137077267D01*
X142750000Y-133521267D02*
X142750000Y-133178733D01*
X141730000Y-133521267D02*
X141730000Y-133178733D01*
X124101000Y-122936000D02*
G75*
G03X124101000Y-122936000I-3400000J0D01*
G01*
D10*
X160376666Y-140506404D02*
X160110000Y-140125452D01*
X159919523Y-140506404D02*
X159919523Y-139706404D01*
X160224285Y-139706404D01*
X160300476Y-139744500D01*
X160338571Y-139782595D01*
X160376666Y-139858785D01*
X160376666Y-139973071D01*
X160338571Y-140049261D01*
X160300476Y-140087357D01*
X160224285Y-140125452D01*
X159919523Y-140125452D01*
X161062380Y-139706404D02*
X160910000Y-139706404D01*
X160833809Y-139744500D01*
X160795714Y-139782595D01*
X160719523Y-139896880D01*
X160681428Y-140049261D01*
X160681428Y-140354023D01*
X160719523Y-140430214D01*
X160757619Y-140468309D01*
X160833809Y-140506404D01*
X160986190Y-140506404D01*
X161062380Y-140468309D01*
X161100476Y-140430214D01*
X161138571Y-140354023D01*
X161138571Y-140163547D01*
X161100476Y-140087357D01*
X161062380Y-140049261D01*
X160986190Y-140011166D01*
X160833809Y-140011166D01*
X160757619Y-140049261D01*
X160719523Y-140087357D01*
X160681428Y-140163547D01*
X162299666Y-130046714D02*
X162261571Y-130084809D01*
X162147285Y-130122904D01*
X162071095Y-130122904D01*
X161956809Y-130084809D01*
X161880619Y-130008619D01*
X161842523Y-129932428D01*
X161804428Y-129780047D01*
X161804428Y-129665761D01*
X161842523Y-129513380D01*
X161880619Y-129437190D01*
X161956809Y-129361000D01*
X162071095Y-129322904D01*
X162147285Y-129322904D01*
X162261571Y-129361000D01*
X162299666Y-129399095D01*
X163023476Y-129322904D02*
X162642523Y-129322904D01*
X162604428Y-129703857D01*
X162642523Y-129665761D01*
X162718714Y-129627666D01*
X162909190Y-129627666D01*
X162985380Y-129665761D01*
X163023476Y-129703857D01*
X163061571Y-129780047D01*
X163061571Y-129970523D01*
X163023476Y-130046714D01*
X162985380Y-130084809D01*
X162909190Y-130122904D01*
X162718714Y-130122904D01*
X162642523Y-130084809D01*
X162604428Y-130046714D01*
X149250476Y-134181904D02*
X149250476Y-134829523D01*
X149288571Y-134905714D01*
X149326666Y-134943809D01*
X149402857Y-134981904D01*
X149555238Y-134981904D01*
X149631428Y-134943809D01*
X149669523Y-134905714D01*
X149707619Y-134829523D01*
X149707619Y-134181904D01*
X150507619Y-134981904D02*
X150050476Y-134981904D01*
X150279047Y-134981904D02*
X150279047Y-134181904D01*
X150202857Y-134296190D01*
X150126666Y-134372380D01*
X150050476Y-134410476D01*
X156665904Y-130181333D02*
X156284952Y-130448000D01*
X156665904Y-130638476D02*
X155865904Y-130638476D01*
X155865904Y-130333714D01*
X155904000Y-130257523D01*
X155942095Y-130219428D01*
X156018285Y-130181333D01*
X156132571Y-130181333D01*
X156208761Y-130219428D01*
X156246857Y-130257523D01*
X156284952Y-130333714D01*
X156284952Y-130638476D01*
X155865904Y-129457523D02*
X155865904Y-129838476D01*
X156246857Y-129876571D01*
X156208761Y-129838476D01*
X156170666Y-129762285D01*
X156170666Y-129571809D01*
X156208761Y-129495619D01*
X156246857Y-129457523D01*
X156323047Y-129419428D01*
X156513523Y-129419428D01*
X156589714Y-129457523D01*
X156627809Y-129495619D01*
X156665904Y-129571809D01*
X156665904Y-129762285D01*
X156627809Y-129838476D01*
X156589714Y-129876571D01*
X161950476Y-134435904D02*
X161950476Y-135083523D01*
X161988571Y-135159714D01*
X162026666Y-135197809D01*
X162102857Y-135235904D01*
X162255238Y-135235904D01*
X162331428Y-135197809D01*
X162369523Y-135159714D01*
X162407619Y-135083523D01*
X162407619Y-134435904D01*
X162750476Y-134512095D02*
X162788571Y-134474000D01*
X162864761Y-134435904D01*
X163055238Y-134435904D01*
X163131428Y-134474000D01*
X163169523Y-134512095D01*
X163207619Y-134588285D01*
X163207619Y-134664476D01*
X163169523Y-134778761D01*
X162712380Y-135235904D01*
X163207619Y-135235904D01*
X161950476Y-125545904D02*
X161950476Y-126193523D01*
X161988571Y-126269714D01*
X162026666Y-126307809D01*
X162102857Y-126345904D01*
X162255238Y-126345904D01*
X162331428Y-126307809D01*
X162369523Y-126269714D01*
X162407619Y-126193523D01*
X162407619Y-125545904D01*
X162712380Y-125545904D02*
X163207619Y-125545904D01*
X162940952Y-125850666D01*
X163055238Y-125850666D01*
X163131428Y-125888761D01*
X163169523Y-125926857D01*
X163207619Y-126003047D01*
X163207619Y-126193523D01*
X163169523Y-126269714D01*
X163131428Y-126307809D01*
X163055238Y-126345904D01*
X162826666Y-126345904D01*
X162750476Y-126307809D01*
X162712380Y-126269714D01*
X138156952Y-130555952D02*
X138537904Y-130555952D01*
X137737904Y-130822619D02*
X138156952Y-130555952D01*
X137737904Y-130289285D01*
X138537904Y-129603571D02*
X138537904Y-130060714D01*
X138537904Y-129832142D02*
X137737904Y-129832142D01*
X137852190Y-129908333D01*
X137928380Y-129984523D01*
X137966476Y-130060714D01*
X156330714Y-127455904D02*
X156064047Y-127074952D01*
X155873571Y-127455904D02*
X155873571Y-126655904D01*
X156178333Y-126655904D01*
X156254523Y-126694000D01*
X156292619Y-126732095D01*
X156330714Y-126808285D01*
X156330714Y-126922571D01*
X156292619Y-126998761D01*
X156254523Y-127036857D01*
X156178333Y-127074952D01*
X155873571Y-127074952D01*
X157092619Y-127455904D02*
X156635476Y-127455904D01*
X156864047Y-127455904D02*
X156864047Y-126655904D01*
X156787857Y-126770190D01*
X156711666Y-126846380D01*
X156635476Y-126884476D01*
X157778333Y-126655904D02*
X157625952Y-126655904D01*
X157549761Y-126694000D01*
X157511666Y-126732095D01*
X157435476Y-126846380D01*
X157397380Y-126998761D01*
X157397380Y-127303523D01*
X157435476Y-127379714D01*
X157473571Y-127417809D01*
X157549761Y-127455904D01*
X157702142Y-127455904D01*
X157778333Y-127417809D01*
X157816428Y-127379714D01*
X157854523Y-127303523D01*
X157854523Y-127113047D01*
X157816428Y-127036857D01*
X157778333Y-126998761D01*
X157702142Y-126960666D01*
X157549761Y-126960666D01*
X157473571Y-126998761D01*
X157435476Y-127036857D01*
X157397380Y-127113047D01*
X152690046Y-127455904D02*
X152423379Y-127074952D01*
X152232903Y-127455904D02*
X152232903Y-126655904D01*
X152537665Y-126655904D01*
X152613855Y-126694000D01*
X152651951Y-126732095D01*
X152690046Y-126808285D01*
X152690046Y-126922571D01*
X152651951Y-126998761D01*
X152613855Y-127036857D01*
X152537665Y-127074952D01*
X152232903Y-127074952D01*
X153451951Y-127455904D02*
X152994808Y-127455904D01*
X153223379Y-127455904D02*
X153223379Y-126655904D01*
X153147189Y-126770190D01*
X153070998Y-126846380D01*
X152994808Y-126884476D01*
X154175760Y-126655904D02*
X153794808Y-126655904D01*
X153756712Y-127036857D01*
X153794808Y-126998761D01*
X153870998Y-126960666D01*
X154061474Y-126960666D01*
X154137665Y-126998761D01*
X154175760Y-127036857D01*
X154213855Y-127113047D01*
X154213855Y-127303523D01*
X154175760Y-127379714D01*
X154137665Y-127417809D01*
X154061474Y-127455904D01*
X153870998Y-127455904D01*
X153794808Y-127417809D01*
X153756712Y-127379714D01*
X156330714Y-119520904D02*
X156064047Y-119139952D01*
X155873571Y-119520904D02*
X155873571Y-118720904D01*
X156178333Y-118720904D01*
X156254523Y-118759000D01*
X156292619Y-118797095D01*
X156330714Y-118873285D01*
X156330714Y-118987571D01*
X156292619Y-119063761D01*
X156254523Y-119101857D01*
X156178333Y-119139952D01*
X155873571Y-119139952D01*
X157092619Y-119520904D02*
X156635476Y-119520904D01*
X156864047Y-119520904D02*
X156864047Y-118720904D01*
X156787857Y-118835190D01*
X156711666Y-118911380D01*
X156635476Y-118949476D01*
X157778333Y-118987571D02*
X157778333Y-119520904D01*
X157587857Y-118682809D02*
X157397380Y-119254238D01*
X157892619Y-119254238D01*
X152690046Y-119520904D02*
X152423379Y-119139952D01*
X152232903Y-119520904D02*
X152232903Y-118720904D01*
X152537665Y-118720904D01*
X152613855Y-118759000D01*
X152651951Y-118797095D01*
X152690046Y-118873285D01*
X152690046Y-118987571D01*
X152651951Y-119063761D01*
X152613855Y-119101857D01*
X152537665Y-119139952D01*
X152232903Y-119139952D01*
X153451951Y-119520904D02*
X152994808Y-119520904D01*
X153223379Y-119520904D02*
X153223379Y-118720904D01*
X153147189Y-118835190D01*
X153070998Y-118911380D01*
X152994808Y-118949476D01*
X153718617Y-118720904D02*
X154213855Y-118720904D01*
X153947189Y-119025666D01*
X154061474Y-119025666D01*
X154137665Y-119063761D01*
X154175760Y-119101857D01*
X154213855Y-119178047D01*
X154213855Y-119368523D01*
X154175760Y-119444714D01*
X154137665Y-119482809D01*
X154061474Y-119520904D01*
X153832903Y-119520904D01*
X153756712Y-119482809D01*
X153718617Y-119444714D01*
X150107714Y-127455904D02*
X149841047Y-127074952D01*
X149650571Y-127455904D02*
X149650571Y-126655904D01*
X149955333Y-126655904D01*
X150031523Y-126694000D01*
X150069619Y-126732095D01*
X150107714Y-126808285D01*
X150107714Y-126922571D01*
X150069619Y-126998761D01*
X150031523Y-127036857D01*
X149955333Y-127074952D01*
X149650571Y-127074952D01*
X150869619Y-127455904D02*
X150412476Y-127455904D01*
X150641047Y-127455904D02*
X150641047Y-126655904D01*
X150564857Y-126770190D01*
X150488666Y-126846380D01*
X150412476Y-126884476D01*
X151174380Y-126732095D02*
X151212476Y-126694000D01*
X151288666Y-126655904D01*
X151479142Y-126655904D01*
X151555333Y-126694000D01*
X151593428Y-126732095D01*
X151631523Y-126808285D01*
X151631523Y-126884476D01*
X151593428Y-126998761D01*
X151136285Y-127455904D01*
X151631523Y-127455904D01*
X144265714Y-127455904D02*
X143999047Y-127074952D01*
X143808571Y-127455904D02*
X143808571Y-126655904D01*
X144113333Y-126655904D01*
X144189523Y-126694000D01*
X144227619Y-126732095D01*
X144265714Y-126808285D01*
X144265714Y-126922571D01*
X144227619Y-126998761D01*
X144189523Y-127036857D01*
X144113333Y-127074952D01*
X143808571Y-127074952D01*
X145027619Y-127455904D02*
X144570476Y-127455904D01*
X144799047Y-127455904D02*
X144799047Y-126655904D01*
X144722857Y-126770190D01*
X144646666Y-126846380D01*
X144570476Y-126884476D01*
X145789523Y-127455904D02*
X145332380Y-127455904D01*
X145560952Y-127455904D02*
X145560952Y-126655904D01*
X145484761Y-126770190D01*
X145408571Y-126846380D01*
X145332380Y-126884476D01*
X149430332Y-119520904D02*
X149163666Y-119139952D01*
X148973189Y-119520904D02*
X148973189Y-118720904D01*
X149277951Y-118720904D01*
X149354142Y-118759000D01*
X149392237Y-118797095D01*
X149430332Y-118873285D01*
X149430332Y-118987571D01*
X149392237Y-119063761D01*
X149354142Y-119101857D01*
X149277951Y-119139952D01*
X148973189Y-119139952D01*
X149887475Y-119063761D02*
X149811285Y-119025666D01*
X149773189Y-118987571D01*
X149735094Y-118911380D01*
X149735094Y-118873285D01*
X149773189Y-118797095D01*
X149811285Y-118759000D01*
X149887475Y-118720904D01*
X150039856Y-118720904D01*
X150116046Y-118759000D01*
X150154142Y-118797095D01*
X150192237Y-118873285D01*
X150192237Y-118911380D01*
X150154142Y-118987571D01*
X150116046Y-119025666D01*
X150039856Y-119063761D01*
X149887475Y-119063761D01*
X149811285Y-119101857D01*
X149773189Y-119139952D01*
X149735094Y-119216142D01*
X149735094Y-119368523D01*
X149773189Y-119444714D01*
X149811285Y-119482809D01*
X149887475Y-119520904D01*
X150039856Y-119520904D01*
X150116046Y-119482809D01*
X150154142Y-119444714D01*
X150192237Y-119368523D01*
X150192237Y-119216142D01*
X150154142Y-119139952D01*
X150116046Y-119101857D01*
X150039856Y-119063761D01*
X145789666Y-119520904D02*
X145523000Y-119139952D01*
X145332523Y-119520904D02*
X145332523Y-118720904D01*
X145637285Y-118720904D01*
X145713476Y-118759000D01*
X145751571Y-118797095D01*
X145789666Y-118873285D01*
X145789666Y-118987571D01*
X145751571Y-119063761D01*
X145713476Y-119101857D01*
X145637285Y-119139952D01*
X145332523Y-119139952D01*
X146056333Y-118720904D02*
X146589666Y-118720904D01*
X146246809Y-119520904D01*
X167557404Y-123704333D02*
X167176452Y-123971000D01*
X167557404Y-124161476D02*
X166757404Y-124161476D01*
X166757404Y-123856714D01*
X166795500Y-123780523D01*
X166833595Y-123742428D01*
X166909785Y-123704333D01*
X167024071Y-123704333D01*
X167100261Y-123742428D01*
X167138357Y-123780523D01*
X167176452Y-123856714D01*
X167176452Y-124161476D01*
X167024071Y-123018619D02*
X167557404Y-123018619D01*
X166719309Y-123209095D02*
X167290738Y-123399571D01*
X167290738Y-122904333D01*
X167557404Y-132848333D02*
X167176452Y-133115000D01*
X167557404Y-133305476D02*
X166757404Y-133305476D01*
X166757404Y-133000714D01*
X166795500Y-132924523D01*
X166833595Y-132886428D01*
X166909785Y-132848333D01*
X167024071Y-132848333D01*
X167100261Y-132886428D01*
X167138357Y-132924523D01*
X167176452Y-133000714D01*
X167176452Y-133305476D01*
X166757404Y-132581666D02*
X166757404Y-132086428D01*
X167062166Y-132353095D01*
X167062166Y-132238809D01*
X167100261Y-132162619D01*
X167138357Y-132124523D01*
X167214547Y-132086428D01*
X167405023Y-132086428D01*
X167481214Y-132124523D01*
X167519309Y-132162619D01*
X167557404Y-132238809D01*
X167557404Y-132467380D01*
X167519309Y-132543571D01*
X167481214Y-132581666D01*
X123056666Y-119360904D02*
X122790000Y-118979952D01*
X122599523Y-119360904D02*
X122599523Y-118560904D01*
X122904285Y-118560904D01*
X122980476Y-118599000D01*
X123018571Y-118637095D01*
X123056666Y-118713285D01*
X123056666Y-118827571D01*
X123018571Y-118903761D01*
X122980476Y-118941857D01*
X122904285Y-118979952D01*
X122599523Y-118979952D01*
X123361428Y-118637095D02*
X123399523Y-118599000D01*
X123475714Y-118560904D01*
X123666190Y-118560904D01*
X123742380Y-118599000D01*
X123780476Y-118637095D01*
X123818571Y-118713285D01*
X123818571Y-118789476D01*
X123780476Y-118903761D01*
X123323333Y-119360904D01*
X123818571Y-119360904D01*
X125075904Y-128516333D02*
X124694952Y-128783000D01*
X125075904Y-128973476D02*
X124275904Y-128973476D01*
X124275904Y-128668714D01*
X124314000Y-128592523D01*
X124352095Y-128554428D01*
X124428285Y-128516333D01*
X124542571Y-128516333D01*
X124618761Y-128554428D01*
X124656857Y-128592523D01*
X124694952Y-128668714D01*
X124694952Y-128973476D01*
X125075904Y-127754428D02*
X125075904Y-128211571D01*
X125075904Y-127983000D02*
X124275904Y-127983000D01*
X124390190Y-128059190D01*
X124466380Y-128135380D01*
X124504476Y-128211571D01*
X118929095Y-129489190D02*
X118891000Y-129565380D01*
X118814809Y-129641571D01*
X118700523Y-129755857D01*
X118662428Y-129832047D01*
X118662428Y-129908238D01*
X118852904Y-129870142D02*
X118814809Y-129946333D01*
X118738619Y-130022523D01*
X118586238Y-130060619D01*
X118319571Y-130060619D01*
X118167190Y-130022523D01*
X118091000Y-129946333D01*
X118052904Y-129870142D01*
X118052904Y-129717761D01*
X118091000Y-129641571D01*
X118167190Y-129565380D01*
X118319571Y-129527285D01*
X118586238Y-129527285D01*
X118738619Y-129565380D01*
X118814809Y-129641571D01*
X118852904Y-129717761D01*
X118852904Y-129870142D01*
X118852904Y-128765380D02*
X118852904Y-129222523D01*
X118852904Y-128993952D02*
X118052904Y-128993952D01*
X118167190Y-129070142D01*
X118243380Y-129146333D01*
X118281476Y-129222523D01*
X117876904Y-136861476D02*
X117076904Y-136861476D01*
X117076904Y-136671000D01*
X117115000Y-136556714D01*
X117191190Y-136480523D01*
X117267380Y-136442428D01*
X117419761Y-136404333D01*
X117534047Y-136404333D01*
X117686428Y-136442428D01*
X117762619Y-136480523D01*
X117838809Y-136556714D01*
X117876904Y-136671000D01*
X117876904Y-136861476D01*
X117876904Y-135642428D02*
X117876904Y-136099571D01*
X117876904Y-135871000D02*
X117076904Y-135871000D01*
X117191190Y-135947190D01*
X117267380Y-136023380D01*
X117305476Y-136099571D01*
X130524214Y-122751833D02*
X130562309Y-122789928D01*
X130600404Y-122904214D01*
X130600404Y-122980404D01*
X130562309Y-123094690D01*
X130486119Y-123170880D01*
X130409928Y-123208976D01*
X130257547Y-123247071D01*
X130143261Y-123247071D01*
X129990880Y-123208976D01*
X129914690Y-123170880D01*
X129838500Y-123094690D01*
X129800404Y-122980404D01*
X129800404Y-122904214D01*
X129838500Y-122789928D01*
X129876595Y-122751833D01*
X130143261Y-122294690D02*
X130105166Y-122370880D01*
X130067071Y-122408976D01*
X129990880Y-122447071D01*
X129952785Y-122447071D01*
X129876595Y-122408976D01*
X129838500Y-122370880D01*
X129800404Y-122294690D01*
X129800404Y-122142309D01*
X129838500Y-122066119D01*
X129876595Y-122028023D01*
X129952785Y-121989928D01*
X129990880Y-121989928D01*
X130067071Y-122028023D01*
X130105166Y-122066119D01*
X130143261Y-122142309D01*
X130143261Y-122294690D01*
X130181357Y-122370880D01*
X130219452Y-122408976D01*
X130295642Y-122447071D01*
X130448023Y-122447071D01*
X130524214Y-122408976D01*
X130562309Y-122370880D01*
X130600404Y-122294690D01*
X130600404Y-122142309D01*
X130562309Y-122066119D01*
X130524214Y-122028023D01*
X130448023Y-121989928D01*
X130295642Y-121989928D01*
X130219452Y-122028023D01*
X130181357Y-122066119D01*
X130143261Y-122142309D01*
X125253714Y-123069333D02*
X125291809Y-123107428D01*
X125329904Y-123221714D01*
X125329904Y-123297904D01*
X125291809Y-123412190D01*
X125215619Y-123488380D01*
X125139428Y-123526476D01*
X124987047Y-123564571D01*
X124872761Y-123564571D01*
X124720380Y-123526476D01*
X124644190Y-123488380D01*
X124568000Y-123412190D01*
X124529904Y-123297904D01*
X124529904Y-123221714D01*
X124568000Y-123107428D01*
X124606095Y-123069333D01*
X124529904Y-122802666D02*
X124529904Y-122269333D01*
X125329904Y-122612190D01*
X162299666Y-121029714D02*
X162261571Y-121067809D01*
X162147285Y-121105904D01*
X162071095Y-121105904D01*
X161956809Y-121067809D01*
X161880619Y-120991619D01*
X161842523Y-120915428D01*
X161804428Y-120763047D01*
X161804428Y-120648761D01*
X161842523Y-120496380D01*
X161880619Y-120420190D01*
X161956809Y-120344000D01*
X162071095Y-120305904D01*
X162147285Y-120305904D01*
X162261571Y-120344000D01*
X162299666Y-120382095D01*
X162985380Y-120305904D02*
X162833000Y-120305904D01*
X162756809Y-120344000D01*
X162718714Y-120382095D01*
X162642523Y-120496380D01*
X162604428Y-120648761D01*
X162604428Y-120953523D01*
X162642523Y-121029714D01*
X162680619Y-121067809D01*
X162756809Y-121105904D01*
X162909190Y-121105904D01*
X162985380Y-121067809D01*
X163023476Y-121029714D01*
X163061571Y-120953523D01*
X163061571Y-120763047D01*
X163023476Y-120686857D01*
X162985380Y-120648761D01*
X162909190Y-120610666D01*
X162756809Y-120610666D01*
X162680619Y-120648761D01*
X162642523Y-120686857D01*
X162604428Y-120763047D01*
X123564666Y-142652714D02*
X123526571Y-142690809D01*
X123412285Y-142728904D01*
X123336095Y-142728904D01*
X123221809Y-142690809D01*
X123145619Y-142614619D01*
X123107523Y-142538428D01*
X123069428Y-142386047D01*
X123069428Y-142271761D01*
X123107523Y-142119380D01*
X123145619Y-142043190D01*
X123221809Y-141967000D01*
X123336095Y-141928904D01*
X123412285Y-141928904D01*
X123526571Y-141967000D01*
X123564666Y-142005095D01*
X124250380Y-142195571D02*
X124250380Y-142728904D01*
X124059904Y-141890809D02*
X123869428Y-142462238D01*
X124364666Y-142462238D01*
X123691666Y-137445714D02*
X123653571Y-137483809D01*
X123539285Y-137521904D01*
X123463095Y-137521904D01*
X123348809Y-137483809D01*
X123272619Y-137407619D01*
X123234523Y-137331428D01*
X123196428Y-137179047D01*
X123196428Y-137064761D01*
X123234523Y-136912380D01*
X123272619Y-136836190D01*
X123348809Y-136760000D01*
X123463095Y-136721904D01*
X123539285Y-136721904D01*
X123653571Y-136760000D01*
X123691666Y-136798095D01*
X123958333Y-136721904D02*
X124453571Y-136721904D01*
X124186904Y-137026666D01*
X124301190Y-137026666D01*
X124377380Y-137064761D01*
X124415476Y-137102857D01*
X124453571Y-137179047D01*
X124453571Y-137369523D01*
X124415476Y-137445714D01*
X124377380Y-137483809D01*
X124301190Y-137521904D01*
X124072619Y-137521904D01*
X123996428Y-137483809D01*
X123958333Y-137445714D01*
X141255714Y-137039333D02*
X141293809Y-137077428D01*
X141331904Y-137191714D01*
X141331904Y-137267904D01*
X141293809Y-137382190D01*
X141217619Y-137458380D01*
X141141428Y-137496476D01*
X140989047Y-137534571D01*
X140874761Y-137534571D01*
X140722380Y-137496476D01*
X140646190Y-137458380D01*
X140570000Y-137382190D01*
X140531904Y-137267904D01*
X140531904Y-137191714D01*
X140570000Y-137077428D01*
X140608095Y-137039333D01*
X140608095Y-136734571D02*
X140570000Y-136696476D01*
X140531904Y-136620285D01*
X140531904Y-136429809D01*
X140570000Y-136353619D01*
X140608095Y-136315523D01*
X140684285Y-136277428D01*
X140760476Y-136277428D01*
X140874761Y-136315523D01*
X141331904Y-136772666D01*
X141331904Y-136277428D01*
X141255714Y-133483333D02*
X141293809Y-133521428D01*
X141331904Y-133635714D01*
X141331904Y-133711904D01*
X141293809Y-133826190D01*
X141217619Y-133902380D01*
X141141428Y-133940476D01*
X140989047Y-133978571D01*
X140874761Y-133978571D01*
X140722380Y-133940476D01*
X140646190Y-133902380D01*
X140570000Y-133826190D01*
X140531904Y-133711904D01*
X140531904Y-133635714D01*
X140570000Y-133521428D01*
X140608095Y-133483333D01*
X141331904Y-132721428D02*
X141331904Y-133178571D01*
X141331904Y-132950000D02*
X140531904Y-132950000D01*
X140646190Y-133026190D01*
X140722380Y-133102380D01*
X140760476Y-133178571D01*
X120643857Y-123640761D02*
X120681952Y-123526476D01*
X120720047Y-123488380D01*
X120796238Y-123450285D01*
X120910523Y-123450285D01*
X120986714Y-123488380D01*
X121024809Y-123526476D01*
X121062904Y-123602666D01*
X121062904Y-123907428D01*
X120262904Y-123907428D01*
X120262904Y-123640761D01*
X120301000Y-123564571D01*
X120339095Y-123526476D01*
X120415285Y-123488380D01*
X120491476Y-123488380D01*
X120567666Y-123526476D01*
X120605761Y-123564571D01*
X120643857Y-123640761D01*
X120643857Y-123907428D01*
X120262904Y-123183619D02*
X120262904Y-122650285D01*
X121062904Y-123183619D01*
X121062904Y-122650285D01*
X121062904Y-121926476D02*
X121062904Y-122383619D01*
X121062904Y-122155047D02*
X120262904Y-122155047D01*
X120377190Y-122231238D01*
X120453380Y-122307428D01*
X120491476Y-122383619D01*
D12*
X121920047Y-124607428D02*
X122681952Y-124607428D01*
X122301000Y-124988380D02*
X122301000Y-124226476D01*
M02*
