M48
; DRILL file {KiCad (5.1.5)-3} date 2021. 02. 13. 19:55:19
; FORMAT={-:-/ absolute / inch / decimal}
; #@! TF.CreationDate,2021-02-13T19:55:19+01:00
; #@! TF.GenerationSoftware,Kicad,Pcbnew,(5.1.5)-3
FMAT,2
INCH
T1C0.0157
T2C0.0197
T3C0.0276
T4C0.0295
T5C0.0300
T6C0.0315
T7C0.0374
T8C0.0394
%
G90
G05
T1
X4.75Y-4.775
X4.755Y-4.615
X4.955Y-4.615
X4.965Y-5.55
X5.65Y-4.895
X5.67Y-5.01
X5.78Y-4.68
X5.79Y-5.08
X5.79Y-5.13
X5.81Y-4.895
X5.9Y-4.68
X5.95Y-4.895
X6.01Y-5.23
X6.01Y-5.28
X6.06Y-4.68
X6.07Y-5.0
X6.09Y-4.895
X6.16Y-4.68
X6.16Y-5.24
X6.16Y-5.31
X6.16Y-5.38
X6.23Y-5.01
X6.23Y-5.24
X6.23Y-5.4
X6.3Y-5.1
X6.43Y-4.895
X6.48Y-4.7
X6.495Y-5.165
T2
X4.63Y-5.285
X5.1275Y-4.7575
T3
X4.99Y-4.94
X4.99Y-4.982
X4.99Y-5.024
X4.99Y-5.066
X4.99Y-5.108
X4.99Y-5.15
X5.0375Y-4.94
X5.0375Y-4.982
X5.0375Y-5.024
X5.0375Y-5.066
X5.0375Y-5.108
X5.0375Y-5.15
X5.085Y-4.94
X5.085Y-4.982
X5.085Y-5.024
X5.085Y-5.066
X5.085Y-5.108
X5.085Y-5.15
X5.1325Y-4.94
X5.1325Y-4.982
X5.1325Y-5.024
X5.1325Y-5.066
X5.1325Y-5.108
X5.1325Y-5.15
X5.18Y-4.94
X5.18Y-4.982
X5.18Y-5.024
X5.18Y-5.066
X5.18Y-5.108
X5.18Y-5.15
T4
X4.73Y-5.045
X4.73Y-5.095
X4.73Y-5.145
T5
X5.74Y-5.61
T6
X5.425Y-5.03
X5.425Y-5.2221
T7
X6.78Y-4.8579
X6.78Y-4.9563
X6.78Y-5.0547
X6.78Y-5.1531
X6.78Y-5.2516
X6.78Y-5.35
T8
X5.3075Y-4.765
X5.4075Y-4.765
X5.5075Y-4.765
X5.6075Y-4.765
X5.045Y-5.44
X5.145Y-5.44
X5.245Y-5.44
X4.689Y-4.84
X4.815Y-4.84
X5.04Y-4.61
X5.04Y-5.61
X5.14Y-4.61
X5.14Y-5.61
X5.24Y-4.61
X5.24Y-5.61
X5.34Y-4.61
X5.34Y-5.61
X5.44Y-4.61
X5.44Y-5.61
X5.54Y-4.61
X5.54Y-5.61
X5.64Y-4.61
X5.64Y-5.61
X5.74Y-4.61
X5.84Y-4.61
X5.84Y-5.61
X5.94Y-4.61
X5.94Y-5.61
X6.04Y-4.61
X6.04Y-5.61
X6.14Y-4.61
X6.14Y-5.61
X6.24Y-4.61
X6.24Y-5.61
X6.34Y-4.61
X6.34Y-5.61
X6.44Y-4.61
X6.44Y-5.61
T0
M30
