%TF.GenerationSoftware,KiCad,Pcbnew,(5.1.5)-3*%
%TF.CreationDate,2021-02-13T19:55:16+01:00*%
%TF.ProjectId,PSACANBridgeHW_v11,50534156-616e-4436-916e-427269646765,rev?*%
%TF.SameCoordinates,Original*%
%TF.FileFunction,Paste,Top*%
%TF.FilePolarity,Positive*%
%FSLAX46Y46*%
G04 Gerber Fmt 4.6, Leading zero omitted, Abs format (unit mm)*
G04 Created by KiCad (PCBNEW (5.1.5)-3) date 2021-02-13 19:55:16*
%MOMM*%
%LPD*%
G04 APERTURE LIST*
%ADD10C,0.100000*%
%ADD11R,2.750000X3.050000*%
%ADD12R,1.200000X2.200000*%
%ADD13R,0.800000X0.900000*%
%ADD14R,1.800000X2.500000*%
G04 APERTURE END LIST*
D10*
G36*
X161695779Y-138337144D02*
G01*
X161718834Y-138340563D01*
X161741443Y-138346227D01*
X161763387Y-138354079D01*
X161784457Y-138364044D01*
X161804448Y-138376026D01*
X161823168Y-138389910D01*
X161840438Y-138405562D01*
X161856090Y-138422832D01*
X161869974Y-138441552D01*
X161881956Y-138461543D01*
X161891921Y-138482613D01*
X161899773Y-138504557D01*
X161905437Y-138527166D01*
X161908856Y-138550221D01*
X161910000Y-138573500D01*
X161910000Y-139048500D01*
X161908856Y-139071779D01*
X161905437Y-139094834D01*
X161899773Y-139117443D01*
X161891921Y-139139387D01*
X161881956Y-139160457D01*
X161869974Y-139180448D01*
X161856090Y-139199168D01*
X161840438Y-139216438D01*
X161823168Y-139232090D01*
X161804448Y-139245974D01*
X161784457Y-139257956D01*
X161763387Y-139267921D01*
X161741443Y-139275773D01*
X161718834Y-139281437D01*
X161695779Y-139284856D01*
X161672500Y-139286000D01*
X161097500Y-139286000D01*
X161074221Y-139284856D01*
X161051166Y-139281437D01*
X161028557Y-139275773D01*
X161006613Y-139267921D01*
X160985543Y-139257956D01*
X160965552Y-139245974D01*
X160946832Y-139232090D01*
X160929562Y-139216438D01*
X160913910Y-139199168D01*
X160900026Y-139180448D01*
X160888044Y-139160457D01*
X160878079Y-139139387D01*
X160870227Y-139117443D01*
X160864563Y-139094834D01*
X160861144Y-139071779D01*
X160860000Y-139048500D01*
X160860000Y-138573500D01*
X160861144Y-138550221D01*
X160864563Y-138527166D01*
X160870227Y-138504557D01*
X160878079Y-138482613D01*
X160888044Y-138461543D01*
X160900026Y-138441552D01*
X160913910Y-138422832D01*
X160929562Y-138405562D01*
X160946832Y-138389910D01*
X160965552Y-138376026D01*
X160985543Y-138364044D01*
X161006613Y-138354079D01*
X161028557Y-138346227D01*
X161051166Y-138340563D01*
X161074221Y-138337144D01*
X161097500Y-138336000D01*
X161672500Y-138336000D01*
X161695779Y-138337144D01*
G37*
G36*
X159945779Y-138337144D02*
G01*
X159968834Y-138340563D01*
X159991443Y-138346227D01*
X160013387Y-138354079D01*
X160034457Y-138364044D01*
X160054448Y-138376026D01*
X160073168Y-138389910D01*
X160090438Y-138405562D01*
X160106090Y-138422832D01*
X160119974Y-138441552D01*
X160131956Y-138461543D01*
X160141921Y-138482613D01*
X160149773Y-138504557D01*
X160155437Y-138527166D01*
X160158856Y-138550221D01*
X160160000Y-138573500D01*
X160160000Y-139048500D01*
X160158856Y-139071779D01*
X160155437Y-139094834D01*
X160149773Y-139117443D01*
X160141921Y-139139387D01*
X160131956Y-139160457D01*
X160119974Y-139180448D01*
X160106090Y-139199168D01*
X160090438Y-139216438D01*
X160073168Y-139232090D01*
X160054448Y-139245974D01*
X160034457Y-139257956D01*
X160013387Y-139267921D01*
X159991443Y-139275773D01*
X159968834Y-139281437D01*
X159945779Y-139284856D01*
X159922500Y-139286000D01*
X159347500Y-139286000D01*
X159324221Y-139284856D01*
X159301166Y-139281437D01*
X159278557Y-139275773D01*
X159256613Y-139267921D01*
X159235543Y-139257956D01*
X159215552Y-139245974D01*
X159196832Y-139232090D01*
X159179562Y-139216438D01*
X159163910Y-139199168D01*
X159150026Y-139180448D01*
X159138044Y-139160457D01*
X159128079Y-139139387D01*
X159120227Y-139117443D01*
X159114563Y-139094834D01*
X159111144Y-139071779D01*
X159110000Y-139048500D01*
X159110000Y-138573500D01*
X159111144Y-138550221D01*
X159114563Y-138527166D01*
X159120227Y-138504557D01*
X159128079Y-138482613D01*
X159138044Y-138461543D01*
X159150026Y-138441552D01*
X159163910Y-138422832D01*
X159179562Y-138405562D01*
X159196832Y-138389910D01*
X159215552Y-138376026D01*
X159235543Y-138364044D01*
X159256613Y-138354079D01*
X159278557Y-138346227D01*
X159301166Y-138340563D01*
X159324221Y-138337144D01*
X159347500Y-138336000D01*
X159922500Y-138336000D01*
X159945779Y-138337144D01*
G37*
G36*
X163618779Y-130717144D02*
G01*
X163641834Y-130720563D01*
X163664443Y-130726227D01*
X163686387Y-130734079D01*
X163707457Y-130744044D01*
X163727448Y-130756026D01*
X163746168Y-130769910D01*
X163763438Y-130785562D01*
X163779090Y-130802832D01*
X163792974Y-130821552D01*
X163804956Y-130841543D01*
X163814921Y-130862613D01*
X163822773Y-130884557D01*
X163828437Y-130907166D01*
X163831856Y-130930221D01*
X163833000Y-130953500D01*
X163833000Y-131428500D01*
X163831856Y-131451779D01*
X163828437Y-131474834D01*
X163822773Y-131497443D01*
X163814921Y-131519387D01*
X163804956Y-131540457D01*
X163792974Y-131560448D01*
X163779090Y-131579168D01*
X163763438Y-131596438D01*
X163746168Y-131612090D01*
X163727448Y-131625974D01*
X163707457Y-131637956D01*
X163686387Y-131647921D01*
X163664443Y-131655773D01*
X163641834Y-131661437D01*
X163618779Y-131664856D01*
X163595500Y-131666000D01*
X163020500Y-131666000D01*
X162997221Y-131664856D01*
X162974166Y-131661437D01*
X162951557Y-131655773D01*
X162929613Y-131647921D01*
X162908543Y-131637956D01*
X162888552Y-131625974D01*
X162869832Y-131612090D01*
X162852562Y-131596438D01*
X162836910Y-131579168D01*
X162823026Y-131560448D01*
X162811044Y-131540457D01*
X162801079Y-131519387D01*
X162793227Y-131497443D01*
X162787563Y-131474834D01*
X162784144Y-131451779D01*
X162783000Y-131428500D01*
X162783000Y-130953500D01*
X162784144Y-130930221D01*
X162787563Y-130907166D01*
X162793227Y-130884557D01*
X162801079Y-130862613D01*
X162811044Y-130841543D01*
X162823026Y-130821552D01*
X162836910Y-130802832D01*
X162852562Y-130785562D01*
X162869832Y-130769910D01*
X162888552Y-130756026D01*
X162908543Y-130744044D01*
X162929613Y-130734079D01*
X162951557Y-130726227D01*
X162974166Y-130720563D01*
X162997221Y-130717144D01*
X163020500Y-130716000D01*
X163595500Y-130716000D01*
X163618779Y-130717144D01*
G37*
G36*
X161868779Y-130717144D02*
G01*
X161891834Y-130720563D01*
X161914443Y-130726227D01*
X161936387Y-130734079D01*
X161957457Y-130744044D01*
X161977448Y-130756026D01*
X161996168Y-130769910D01*
X162013438Y-130785562D01*
X162029090Y-130802832D01*
X162042974Y-130821552D01*
X162054956Y-130841543D01*
X162064921Y-130862613D01*
X162072773Y-130884557D01*
X162078437Y-130907166D01*
X162081856Y-130930221D01*
X162083000Y-130953500D01*
X162083000Y-131428500D01*
X162081856Y-131451779D01*
X162078437Y-131474834D01*
X162072773Y-131497443D01*
X162064921Y-131519387D01*
X162054956Y-131540457D01*
X162042974Y-131560448D01*
X162029090Y-131579168D01*
X162013438Y-131596438D01*
X161996168Y-131612090D01*
X161977448Y-131625974D01*
X161957457Y-131637956D01*
X161936387Y-131647921D01*
X161914443Y-131655773D01*
X161891834Y-131661437D01*
X161868779Y-131664856D01*
X161845500Y-131666000D01*
X161270500Y-131666000D01*
X161247221Y-131664856D01*
X161224166Y-131661437D01*
X161201557Y-131655773D01*
X161179613Y-131647921D01*
X161158543Y-131637956D01*
X161138552Y-131625974D01*
X161119832Y-131612090D01*
X161102562Y-131596438D01*
X161086910Y-131579168D01*
X161073026Y-131560448D01*
X161061044Y-131540457D01*
X161051079Y-131519387D01*
X161043227Y-131497443D01*
X161037563Y-131474834D01*
X161034144Y-131451779D01*
X161033000Y-131428500D01*
X161033000Y-130953500D01*
X161034144Y-130930221D01*
X161037563Y-130907166D01*
X161043227Y-130884557D01*
X161051079Y-130862613D01*
X161061044Y-130841543D01*
X161073026Y-130821552D01*
X161086910Y-130802832D01*
X161102562Y-130785562D01*
X161119832Y-130769910D01*
X161138552Y-130756026D01*
X161158543Y-130744044D01*
X161179613Y-130734079D01*
X161201557Y-130726227D01*
X161224166Y-130720563D01*
X161247221Y-130717144D01*
X161270500Y-130716000D01*
X161845500Y-130716000D01*
X161868779Y-130717144D01*
G37*
G36*
X155399703Y-128732722D02*
G01*
X155414264Y-128734882D01*
X155428543Y-128738459D01*
X155442403Y-128743418D01*
X155455710Y-128749712D01*
X155468336Y-128757280D01*
X155480159Y-128766048D01*
X155491066Y-128775934D01*
X155500952Y-128786841D01*
X155509720Y-128798664D01*
X155517288Y-128811290D01*
X155523582Y-128824597D01*
X155528541Y-128838457D01*
X155532118Y-128852736D01*
X155534278Y-128867297D01*
X155535000Y-128882000D01*
X155535000Y-129182000D01*
X155534278Y-129196703D01*
X155532118Y-129211264D01*
X155528541Y-129225543D01*
X155523582Y-129239403D01*
X155517288Y-129252710D01*
X155509720Y-129265336D01*
X155500952Y-129277159D01*
X155491066Y-129288066D01*
X155480159Y-129297952D01*
X155468336Y-129306720D01*
X155455710Y-129314288D01*
X155442403Y-129320582D01*
X155428543Y-129325541D01*
X155414264Y-129329118D01*
X155399703Y-129331278D01*
X155385000Y-129332000D01*
X153635000Y-129332000D01*
X153620297Y-129331278D01*
X153605736Y-129329118D01*
X153591457Y-129325541D01*
X153577597Y-129320582D01*
X153564290Y-129314288D01*
X153551664Y-129306720D01*
X153539841Y-129297952D01*
X153528934Y-129288066D01*
X153519048Y-129277159D01*
X153510280Y-129265336D01*
X153502712Y-129252710D01*
X153496418Y-129239403D01*
X153491459Y-129225543D01*
X153487882Y-129211264D01*
X153485722Y-129196703D01*
X153485000Y-129182000D01*
X153485000Y-128882000D01*
X153485722Y-128867297D01*
X153487882Y-128852736D01*
X153491459Y-128838457D01*
X153496418Y-128824597D01*
X153502712Y-128811290D01*
X153510280Y-128798664D01*
X153519048Y-128786841D01*
X153528934Y-128775934D01*
X153539841Y-128766048D01*
X153551664Y-128757280D01*
X153564290Y-128749712D01*
X153577597Y-128743418D01*
X153591457Y-128738459D01*
X153605736Y-128734882D01*
X153620297Y-128732722D01*
X153635000Y-128732000D01*
X155385000Y-128732000D01*
X155399703Y-128732722D01*
G37*
G36*
X155399703Y-130002722D02*
G01*
X155414264Y-130004882D01*
X155428543Y-130008459D01*
X155442403Y-130013418D01*
X155455710Y-130019712D01*
X155468336Y-130027280D01*
X155480159Y-130036048D01*
X155491066Y-130045934D01*
X155500952Y-130056841D01*
X155509720Y-130068664D01*
X155517288Y-130081290D01*
X155523582Y-130094597D01*
X155528541Y-130108457D01*
X155532118Y-130122736D01*
X155534278Y-130137297D01*
X155535000Y-130152000D01*
X155535000Y-130452000D01*
X155534278Y-130466703D01*
X155532118Y-130481264D01*
X155528541Y-130495543D01*
X155523582Y-130509403D01*
X155517288Y-130522710D01*
X155509720Y-130535336D01*
X155500952Y-130547159D01*
X155491066Y-130558066D01*
X155480159Y-130567952D01*
X155468336Y-130576720D01*
X155455710Y-130584288D01*
X155442403Y-130590582D01*
X155428543Y-130595541D01*
X155414264Y-130599118D01*
X155399703Y-130601278D01*
X155385000Y-130602000D01*
X153635000Y-130602000D01*
X153620297Y-130601278D01*
X153605736Y-130599118D01*
X153591457Y-130595541D01*
X153577597Y-130590582D01*
X153564290Y-130584288D01*
X153551664Y-130576720D01*
X153539841Y-130567952D01*
X153528934Y-130558066D01*
X153519048Y-130547159D01*
X153510280Y-130535336D01*
X153502712Y-130522710D01*
X153496418Y-130509403D01*
X153491459Y-130495543D01*
X153487882Y-130481264D01*
X153485722Y-130466703D01*
X153485000Y-130452000D01*
X153485000Y-130152000D01*
X153485722Y-130137297D01*
X153487882Y-130122736D01*
X153491459Y-130108457D01*
X153496418Y-130094597D01*
X153502712Y-130081290D01*
X153510280Y-130068664D01*
X153519048Y-130056841D01*
X153528934Y-130045934D01*
X153539841Y-130036048D01*
X153551664Y-130027280D01*
X153564290Y-130019712D01*
X153577597Y-130013418D01*
X153591457Y-130008459D01*
X153605736Y-130004882D01*
X153620297Y-130002722D01*
X153635000Y-130002000D01*
X155385000Y-130002000D01*
X155399703Y-130002722D01*
G37*
G36*
X155399703Y-131272722D02*
G01*
X155414264Y-131274882D01*
X155428543Y-131278459D01*
X155442403Y-131283418D01*
X155455710Y-131289712D01*
X155468336Y-131297280D01*
X155480159Y-131306048D01*
X155491066Y-131315934D01*
X155500952Y-131326841D01*
X155509720Y-131338664D01*
X155517288Y-131351290D01*
X155523582Y-131364597D01*
X155528541Y-131378457D01*
X155532118Y-131392736D01*
X155534278Y-131407297D01*
X155535000Y-131422000D01*
X155535000Y-131722000D01*
X155534278Y-131736703D01*
X155532118Y-131751264D01*
X155528541Y-131765543D01*
X155523582Y-131779403D01*
X155517288Y-131792710D01*
X155509720Y-131805336D01*
X155500952Y-131817159D01*
X155491066Y-131828066D01*
X155480159Y-131837952D01*
X155468336Y-131846720D01*
X155455710Y-131854288D01*
X155442403Y-131860582D01*
X155428543Y-131865541D01*
X155414264Y-131869118D01*
X155399703Y-131871278D01*
X155385000Y-131872000D01*
X153635000Y-131872000D01*
X153620297Y-131871278D01*
X153605736Y-131869118D01*
X153591457Y-131865541D01*
X153577597Y-131860582D01*
X153564290Y-131854288D01*
X153551664Y-131846720D01*
X153539841Y-131837952D01*
X153528934Y-131828066D01*
X153519048Y-131817159D01*
X153510280Y-131805336D01*
X153502712Y-131792710D01*
X153496418Y-131779403D01*
X153491459Y-131765543D01*
X153487882Y-131751264D01*
X153485722Y-131736703D01*
X153485000Y-131722000D01*
X153485000Y-131422000D01*
X153485722Y-131407297D01*
X153487882Y-131392736D01*
X153491459Y-131378457D01*
X153496418Y-131364597D01*
X153502712Y-131351290D01*
X153510280Y-131338664D01*
X153519048Y-131326841D01*
X153528934Y-131315934D01*
X153539841Y-131306048D01*
X153551664Y-131297280D01*
X153564290Y-131289712D01*
X153577597Y-131283418D01*
X153591457Y-131278459D01*
X153605736Y-131274882D01*
X153620297Y-131272722D01*
X153635000Y-131272000D01*
X155385000Y-131272000D01*
X155399703Y-131272722D01*
G37*
G36*
X155399703Y-132542722D02*
G01*
X155414264Y-132544882D01*
X155428543Y-132548459D01*
X155442403Y-132553418D01*
X155455710Y-132559712D01*
X155468336Y-132567280D01*
X155480159Y-132576048D01*
X155491066Y-132585934D01*
X155500952Y-132596841D01*
X155509720Y-132608664D01*
X155517288Y-132621290D01*
X155523582Y-132634597D01*
X155528541Y-132648457D01*
X155532118Y-132662736D01*
X155534278Y-132677297D01*
X155535000Y-132692000D01*
X155535000Y-132992000D01*
X155534278Y-133006703D01*
X155532118Y-133021264D01*
X155528541Y-133035543D01*
X155523582Y-133049403D01*
X155517288Y-133062710D01*
X155509720Y-133075336D01*
X155500952Y-133087159D01*
X155491066Y-133098066D01*
X155480159Y-133107952D01*
X155468336Y-133116720D01*
X155455710Y-133124288D01*
X155442403Y-133130582D01*
X155428543Y-133135541D01*
X155414264Y-133139118D01*
X155399703Y-133141278D01*
X155385000Y-133142000D01*
X153635000Y-133142000D01*
X153620297Y-133141278D01*
X153605736Y-133139118D01*
X153591457Y-133135541D01*
X153577597Y-133130582D01*
X153564290Y-133124288D01*
X153551664Y-133116720D01*
X153539841Y-133107952D01*
X153528934Y-133098066D01*
X153519048Y-133087159D01*
X153510280Y-133075336D01*
X153502712Y-133062710D01*
X153496418Y-133049403D01*
X153491459Y-133035543D01*
X153487882Y-133021264D01*
X153485722Y-133006703D01*
X153485000Y-132992000D01*
X153485000Y-132692000D01*
X153485722Y-132677297D01*
X153487882Y-132662736D01*
X153491459Y-132648457D01*
X153496418Y-132634597D01*
X153502712Y-132621290D01*
X153510280Y-132608664D01*
X153519048Y-132596841D01*
X153528934Y-132585934D01*
X153539841Y-132576048D01*
X153551664Y-132567280D01*
X153564290Y-132559712D01*
X153577597Y-132553418D01*
X153591457Y-132548459D01*
X153605736Y-132544882D01*
X153620297Y-132542722D01*
X153635000Y-132542000D01*
X155385000Y-132542000D01*
X155399703Y-132542722D01*
G37*
G36*
X155399703Y-133812722D02*
G01*
X155414264Y-133814882D01*
X155428543Y-133818459D01*
X155442403Y-133823418D01*
X155455710Y-133829712D01*
X155468336Y-133837280D01*
X155480159Y-133846048D01*
X155491066Y-133855934D01*
X155500952Y-133866841D01*
X155509720Y-133878664D01*
X155517288Y-133891290D01*
X155523582Y-133904597D01*
X155528541Y-133918457D01*
X155532118Y-133932736D01*
X155534278Y-133947297D01*
X155535000Y-133962000D01*
X155535000Y-134262000D01*
X155534278Y-134276703D01*
X155532118Y-134291264D01*
X155528541Y-134305543D01*
X155523582Y-134319403D01*
X155517288Y-134332710D01*
X155509720Y-134345336D01*
X155500952Y-134357159D01*
X155491066Y-134368066D01*
X155480159Y-134377952D01*
X155468336Y-134386720D01*
X155455710Y-134394288D01*
X155442403Y-134400582D01*
X155428543Y-134405541D01*
X155414264Y-134409118D01*
X155399703Y-134411278D01*
X155385000Y-134412000D01*
X153635000Y-134412000D01*
X153620297Y-134411278D01*
X153605736Y-134409118D01*
X153591457Y-134405541D01*
X153577597Y-134400582D01*
X153564290Y-134394288D01*
X153551664Y-134386720D01*
X153539841Y-134377952D01*
X153528934Y-134368066D01*
X153519048Y-134357159D01*
X153510280Y-134345336D01*
X153502712Y-134332710D01*
X153496418Y-134319403D01*
X153491459Y-134305543D01*
X153487882Y-134291264D01*
X153485722Y-134276703D01*
X153485000Y-134262000D01*
X153485000Y-133962000D01*
X153485722Y-133947297D01*
X153487882Y-133932736D01*
X153491459Y-133918457D01*
X153496418Y-133904597D01*
X153502712Y-133891290D01*
X153510280Y-133878664D01*
X153519048Y-133866841D01*
X153528934Y-133855934D01*
X153539841Y-133846048D01*
X153551664Y-133837280D01*
X153564290Y-133829712D01*
X153577597Y-133823418D01*
X153591457Y-133818459D01*
X153605736Y-133814882D01*
X153620297Y-133812722D01*
X153635000Y-133812000D01*
X155385000Y-133812000D01*
X155399703Y-133812722D01*
G37*
G36*
X155399703Y-135082722D02*
G01*
X155414264Y-135084882D01*
X155428543Y-135088459D01*
X155442403Y-135093418D01*
X155455710Y-135099712D01*
X155468336Y-135107280D01*
X155480159Y-135116048D01*
X155491066Y-135125934D01*
X155500952Y-135136841D01*
X155509720Y-135148664D01*
X155517288Y-135161290D01*
X155523582Y-135174597D01*
X155528541Y-135188457D01*
X155532118Y-135202736D01*
X155534278Y-135217297D01*
X155535000Y-135232000D01*
X155535000Y-135532000D01*
X155534278Y-135546703D01*
X155532118Y-135561264D01*
X155528541Y-135575543D01*
X155523582Y-135589403D01*
X155517288Y-135602710D01*
X155509720Y-135615336D01*
X155500952Y-135627159D01*
X155491066Y-135638066D01*
X155480159Y-135647952D01*
X155468336Y-135656720D01*
X155455710Y-135664288D01*
X155442403Y-135670582D01*
X155428543Y-135675541D01*
X155414264Y-135679118D01*
X155399703Y-135681278D01*
X155385000Y-135682000D01*
X153635000Y-135682000D01*
X153620297Y-135681278D01*
X153605736Y-135679118D01*
X153591457Y-135675541D01*
X153577597Y-135670582D01*
X153564290Y-135664288D01*
X153551664Y-135656720D01*
X153539841Y-135647952D01*
X153528934Y-135638066D01*
X153519048Y-135627159D01*
X153510280Y-135615336D01*
X153502712Y-135602710D01*
X153496418Y-135589403D01*
X153491459Y-135575543D01*
X153487882Y-135561264D01*
X153485722Y-135546703D01*
X153485000Y-135532000D01*
X153485000Y-135232000D01*
X153485722Y-135217297D01*
X153487882Y-135202736D01*
X153491459Y-135188457D01*
X153496418Y-135174597D01*
X153502712Y-135161290D01*
X153510280Y-135148664D01*
X153519048Y-135136841D01*
X153528934Y-135125934D01*
X153539841Y-135116048D01*
X153551664Y-135107280D01*
X153564290Y-135099712D01*
X153577597Y-135093418D01*
X153591457Y-135088459D01*
X153605736Y-135084882D01*
X153620297Y-135082722D01*
X153635000Y-135082000D01*
X155385000Y-135082000D01*
X155399703Y-135082722D01*
G37*
G36*
X155399703Y-136352722D02*
G01*
X155414264Y-136354882D01*
X155428543Y-136358459D01*
X155442403Y-136363418D01*
X155455710Y-136369712D01*
X155468336Y-136377280D01*
X155480159Y-136386048D01*
X155491066Y-136395934D01*
X155500952Y-136406841D01*
X155509720Y-136418664D01*
X155517288Y-136431290D01*
X155523582Y-136444597D01*
X155528541Y-136458457D01*
X155532118Y-136472736D01*
X155534278Y-136487297D01*
X155535000Y-136502000D01*
X155535000Y-136802000D01*
X155534278Y-136816703D01*
X155532118Y-136831264D01*
X155528541Y-136845543D01*
X155523582Y-136859403D01*
X155517288Y-136872710D01*
X155509720Y-136885336D01*
X155500952Y-136897159D01*
X155491066Y-136908066D01*
X155480159Y-136917952D01*
X155468336Y-136926720D01*
X155455710Y-136934288D01*
X155442403Y-136940582D01*
X155428543Y-136945541D01*
X155414264Y-136949118D01*
X155399703Y-136951278D01*
X155385000Y-136952000D01*
X153635000Y-136952000D01*
X153620297Y-136951278D01*
X153605736Y-136949118D01*
X153591457Y-136945541D01*
X153577597Y-136940582D01*
X153564290Y-136934288D01*
X153551664Y-136926720D01*
X153539841Y-136917952D01*
X153528934Y-136908066D01*
X153519048Y-136897159D01*
X153510280Y-136885336D01*
X153502712Y-136872710D01*
X153496418Y-136859403D01*
X153491459Y-136845543D01*
X153487882Y-136831264D01*
X153485722Y-136816703D01*
X153485000Y-136802000D01*
X153485000Y-136502000D01*
X153485722Y-136487297D01*
X153487882Y-136472736D01*
X153491459Y-136458457D01*
X153496418Y-136444597D01*
X153502712Y-136431290D01*
X153510280Y-136418664D01*
X153519048Y-136406841D01*
X153528934Y-136395934D01*
X153539841Y-136386048D01*
X153551664Y-136377280D01*
X153564290Y-136369712D01*
X153577597Y-136363418D01*
X153591457Y-136358459D01*
X153605736Y-136354882D01*
X153620297Y-136352722D01*
X153635000Y-136352000D01*
X155385000Y-136352000D01*
X155399703Y-136352722D01*
G37*
G36*
X155399703Y-137622722D02*
G01*
X155414264Y-137624882D01*
X155428543Y-137628459D01*
X155442403Y-137633418D01*
X155455710Y-137639712D01*
X155468336Y-137647280D01*
X155480159Y-137656048D01*
X155491066Y-137665934D01*
X155500952Y-137676841D01*
X155509720Y-137688664D01*
X155517288Y-137701290D01*
X155523582Y-137714597D01*
X155528541Y-137728457D01*
X155532118Y-137742736D01*
X155534278Y-137757297D01*
X155535000Y-137772000D01*
X155535000Y-138072000D01*
X155534278Y-138086703D01*
X155532118Y-138101264D01*
X155528541Y-138115543D01*
X155523582Y-138129403D01*
X155517288Y-138142710D01*
X155509720Y-138155336D01*
X155500952Y-138167159D01*
X155491066Y-138178066D01*
X155480159Y-138187952D01*
X155468336Y-138196720D01*
X155455710Y-138204288D01*
X155442403Y-138210582D01*
X155428543Y-138215541D01*
X155414264Y-138219118D01*
X155399703Y-138221278D01*
X155385000Y-138222000D01*
X153635000Y-138222000D01*
X153620297Y-138221278D01*
X153605736Y-138219118D01*
X153591457Y-138215541D01*
X153577597Y-138210582D01*
X153564290Y-138204288D01*
X153551664Y-138196720D01*
X153539841Y-138187952D01*
X153528934Y-138178066D01*
X153519048Y-138167159D01*
X153510280Y-138155336D01*
X153502712Y-138142710D01*
X153496418Y-138129403D01*
X153491459Y-138115543D01*
X153487882Y-138101264D01*
X153485722Y-138086703D01*
X153485000Y-138072000D01*
X153485000Y-137772000D01*
X153485722Y-137757297D01*
X153487882Y-137742736D01*
X153491459Y-137728457D01*
X153496418Y-137714597D01*
X153502712Y-137701290D01*
X153510280Y-137688664D01*
X153519048Y-137676841D01*
X153528934Y-137665934D01*
X153539841Y-137656048D01*
X153551664Y-137647280D01*
X153564290Y-137639712D01*
X153577597Y-137633418D01*
X153591457Y-137628459D01*
X153605736Y-137624882D01*
X153620297Y-137622722D01*
X153635000Y-137622000D01*
X155385000Y-137622000D01*
X155399703Y-137622722D01*
G37*
G36*
X155399703Y-138892722D02*
G01*
X155414264Y-138894882D01*
X155428543Y-138898459D01*
X155442403Y-138903418D01*
X155455710Y-138909712D01*
X155468336Y-138917280D01*
X155480159Y-138926048D01*
X155491066Y-138935934D01*
X155500952Y-138946841D01*
X155509720Y-138958664D01*
X155517288Y-138971290D01*
X155523582Y-138984597D01*
X155528541Y-138998457D01*
X155532118Y-139012736D01*
X155534278Y-139027297D01*
X155535000Y-139042000D01*
X155535000Y-139342000D01*
X155534278Y-139356703D01*
X155532118Y-139371264D01*
X155528541Y-139385543D01*
X155523582Y-139399403D01*
X155517288Y-139412710D01*
X155509720Y-139425336D01*
X155500952Y-139437159D01*
X155491066Y-139448066D01*
X155480159Y-139457952D01*
X155468336Y-139466720D01*
X155455710Y-139474288D01*
X155442403Y-139480582D01*
X155428543Y-139485541D01*
X155414264Y-139489118D01*
X155399703Y-139491278D01*
X155385000Y-139492000D01*
X153635000Y-139492000D01*
X153620297Y-139491278D01*
X153605736Y-139489118D01*
X153591457Y-139485541D01*
X153577597Y-139480582D01*
X153564290Y-139474288D01*
X153551664Y-139466720D01*
X153539841Y-139457952D01*
X153528934Y-139448066D01*
X153519048Y-139437159D01*
X153510280Y-139425336D01*
X153502712Y-139412710D01*
X153496418Y-139399403D01*
X153491459Y-139385543D01*
X153487882Y-139371264D01*
X153485722Y-139356703D01*
X153485000Y-139342000D01*
X153485000Y-139042000D01*
X153485722Y-139027297D01*
X153487882Y-139012736D01*
X153491459Y-138998457D01*
X153496418Y-138984597D01*
X153502712Y-138971290D01*
X153510280Y-138958664D01*
X153519048Y-138946841D01*
X153528934Y-138935934D01*
X153539841Y-138926048D01*
X153551664Y-138917280D01*
X153564290Y-138909712D01*
X153577597Y-138903418D01*
X153591457Y-138898459D01*
X153605736Y-138894882D01*
X153620297Y-138892722D01*
X153635000Y-138892000D01*
X155385000Y-138892000D01*
X155399703Y-138892722D01*
G37*
G36*
X146099703Y-138892722D02*
G01*
X146114264Y-138894882D01*
X146128543Y-138898459D01*
X146142403Y-138903418D01*
X146155710Y-138909712D01*
X146168336Y-138917280D01*
X146180159Y-138926048D01*
X146191066Y-138935934D01*
X146200952Y-138946841D01*
X146209720Y-138958664D01*
X146217288Y-138971290D01*
X146223582Y-138984597D01*
X146228541Y-138998457D01*
X146232118Y-139012736D01*
X146234278Y-139027297D01*
X146235000Y-139042000D01*
X146235000Y-139342000D01*
X146234278Y-139356703D01*
X146232118Y-139371264D01*
X146228541Y-139385543D01*
X146223582Y-139399403D01*
X146217288Y-139412710D01*
X146209720Y-139425336D01*
X146200952Y-139437159D01*
X146191066Y-139448066D01*
X146180159Y-139457952D01*
X146168336Y-139466720D01*
X146155710Y-139474288D01*
X146142403Y-139480582D01*
X146128543Y-139485541D01*
X146114264Y-139489118D01*
X146099703Y-139491278D01*
X146085000Y-139492000D01*
X144335000Y-139492000D01*
X144320297Y-139491278D01*
X144305736Y-139489118D01*
X144291457Y-139485541D01*
X144277597Y-139480582D01*
X144264290Y-139474288D01*
X144251664Y-139466720D01*
X144239841Y-139457952D01*
X144228934Y-139448066D01*
X144219048Y-139437159D01*
X144210280Y-139425336D01*
X144202712Y-139412710D01*
X144196418Y-139399403D01*
X144191459Y-139385543D01*
X144187882Y-139371264D01*
X144185722Y-139356703D01*
X144185000Y-139342000D01*
X144185000Y-139042000D01*
X144185722Y-139027297D01*
X144187882Y-139012736D01*
X144191459Y-138998457D01*
X144196418Y-138984597D01*
X144202712Y-138971290D01*
X144210280Y-138958664D01*
X144219048Y-138946841D01*
X144228934Y-138935934D01*
X144239841Y-138926048D01*
X144251664Y-138917280D01*
X144264290Y-138909712D01*
X144277597Y-138903418D01*
X144291457Y-138898459D01*
X144305736Y-138894882D01*
X144320297Y-138892722D01*
X144335000Y-138892000D01*
X146085000Y-138892000D01*
X146099703Y-138892722D01*
G37*
G36*
X146099703Y-137622722D02*
G01*
X146114264Y-137624882D01*
X146128543Y-137628459D01*
X146142403Y-137633418D01*
X146155710Y-137639712D01*
X146168336Y-137647280D01*
X146180159Y-137656048D01*
X146191066Y-137665934D01*
X146200952Y-137676841D01*
X146209720Y-137688664D01*
X146217288Y-137701290D01*
X146223582Y-137714597D01*
X146228541Y-137728457D01*
X146232118Y-137742736D01*
X146234278Y-137757297D01*
X146235000Y-137772000D01*
X146235000Y-138072000D01*
X146234278Y-138086703D01*
X146232118Y-138101264D01*
X146228541Y-138115543D01*
X146223582Y-138129403D01*
X146217288Y-138142710D01*
X146209720Y-138155336D01*
X146200952Y-138167159D01*
X146191066Y-138178066D01*
X146180159Y-138187952D01*
X146168336Y-138196720D01*
X146155710Y-138204288D01*
X146142403Y-138210582D01*
X146128543Y-138215541D01*
X146114264Y-138219118D01*
X146099703Y-138221278D01*
X146085000Y-138222000D01*
X144335000Y-138222000D01*
X144320297Y-138221278D01*
X144305736Y-138219118D01*
X144291457Y-138215541D01*
X144277597Y-138210582D01*
X144264290Y-138204288D01*
X144251664Y-138196720D01*
X144239841Y-138187952D01*
X144228934Y-138178066D01*
X144219048Y-138167159D01*
X144210280Y-138155336D01*
X144202712Y-138142710D01*
X144196418Y-138129403D01*
X144191459Y-138115543D01*
X144187882Y-138101264D01*
X144185722Y-138086703D01*
X144185000Y-138072000D01*
X144185000Y-137772000D01*
X144185722Y-137757297D01*
X144187882Y-137742736D01*
X144191459Y-137728457D01*
X144196418Y-137714597D01*
X144202712Y-137701290D01*
X144210280Y-137688664D01*
X144219048Y-137676841D01*
X144228934Y-137665934D01*
X144239841Y-137656048D01*
X144251664Y-137647280D01*
X144264290Y-137639712D01*
X144277597Y-137633418D01*
X144291457Y-137628459D01*
X144305736Y-137624882D01*
X144320297Y-137622722D01*
X144335000Y-137622000D01*
X146085000Y-137622000D01*
X146099703Y-137622722D01*
G37*
G36*
X146099703Y-136352722D02*
G01*
X146114264Y-136354882D01*
X146128543Y-136358459D01*
X146142403Y-136363418D01*
X146155710Y-136369712D01*
X146168336Y-136377280D01*
X146180159Y-136386048D01*
X146191066Y-136395934D01*
X146200952Y-136406841D01*
X146209720Y-136418664D01*
X146217288Y-136431290D01*
X146223582Y-136444597D01*
X146228541Y-136458457D01*
X146232118Y-136472736D01*
X146234278Y-136487297D01*
X146235000Y-136502000D01*
X146235000Y-136802000D01*
X146234278Y-136816703D01*
X146232118Y-136831264D01*
X146228541Y-136845543D01*
X146223582Y-136859403D01*
X146217288Y-136872710D01*
X146209720Y-136885336D01*
X146200952Y-136897159D01*
X146191066Y-136908066D01*
X146180159Y-136917952D01*
X146168336Y-136926720D01*
X146155710Y-136934288D01*
X146142403Y-136940582D01*
X146128543Y-136945541D01*
X146114264Y-136949118D01*
X146099703Y-136951278D01*
X146085000Y-136952000D01*
X144335000Y-136952000D01*
X144320297Y-136951278D01*
X144305736Y-136949118D01*
X144291457Y-136945541D01*
X144277597Y-136940582D01*
X144264290Y-136934288D01*
X144251664Y-136926720D01*
X144239841Y-136917952D01*
X144228934Y-136908066D01*
X144219048Y-136897159D01*
X144210280Y-136885336D01*
X144202712Y-136872710D01*
X144196418Y-136859403D01*
X144191459Y-136845543D01*
X144187882Y-136831264D01*
X144185722Y-136816703D01*
X144185000Y-136802000D01*
X144185000Y-136502000D01*
X144185722Y-136487297D01*
X144187882Y-136472736D01*
X144191459Y-136458457D01*
X144196418Y-136444597D01*
X144202712Y-136431290D01*
X144210280Y-136418664D01*
X144219048Y-136406841D01*
X144228934Y-136395934D01*
X144239841Y-136386048D01*
X144251664Y-136377280D01*
X144264290Y-136369712D01*
X144277597Y-136363418D01*
X144291457Y-136358459D01*
X144305736Y-136354882D01*
X144320297Y-136352722D01*
X144335000Y-136352000D01*
X146085000Y-136352000D01*
X146099703Y-136352722D01*
G37*
G36*
X146099703Y-135082722D02*
G01*
X146114264Y-135084882D01*
X146128543Y-135088459D01*
X146142403Y-135093418D01*
X146155710Y-135099712D01*
X146168336Y-135107280D01*
X146180159Y-135116048D01*
X146191066Y-135125934D01*
X146200952Y-135136841D01*
X146209720Y-135148664D01*
X146217288Y-135161290D01*
X146223582Y-135174597D01*
X146228541Y-135188457D01*
X146232118Y-135202736D01*
X146234278Y-135217297D01*
X146235000Y-135232000D01*
X146235000Y-135532000D01*
X146234278Y-135546703D01*
X146232118Y-135561264D01*
X146228541Y-135575543D01*
X146223582Y-135589403D01*
X146217288Y-135602710D01*
X146209720Y-135615336D01*
X146200952Y-135627159D01*
X146191066Y-135638066D01*
X146180159Y-135647952D01*
X146168336Y-135656720D01*
X146155710Y-135664288D01*
X146142403Y-135670582D01*
X146128543Y-135675541D01*
X146114264Y-135679118D01*
X146099703Y-135681278D01*
X146085000Y-135682000D01*
X144335000Y-135682000D01*
X144320297Y-135681278D01*
X144305736Y-135679118D01*
X144291457Y-135675541D01*
X144277597Y-135670582D01*
X144264290Y-135664288D01*
X144251664Y-135656720D01*
X144239841Y-135647952D01*
X144228934Y-135638066D01*
X144219048Y-135627159D01*
X144210280Y-135615336D01*
X144202712Y-135602710D01*
X144196418Y-135589403D01*
X144191459Y-135575543D01*
X144187882Y-135561264D01*
X144185722Y-135546703D01*
X144185000Y-135532000D01*
X144185000Y-135232000D01*
X144185722Y-135217297D01*
X144187882Y-135202736D01*
X144191459Y-135188457D01*
X144196418Y-135174597D01*
X144202712Y-135161290D01*
X144210280Y-135148664D01*
X144219048Y-135136841D01*
X144228934Y-135125934D01*
X144239841Y-135116048D01*
X144251664Y-135107280D01*
X144264290Y-135099712D01*
X144277597Y-135093418D01*
X144291457Y-135088459D01*
X144305736Y-135084882D01*
X144320297Y-135082722D01*
X144335000Y-135082000D01*
X146085000Y-135082000D01*
X146099703Y-135082722D01*
G37*
G36*
X146099703Y-133812722D02*
G01*
X146114264Y-133814882D01*
X146128543Y-133818459D01*
X146142403Y-133823418D01*
X146155710Y-133829712D01*
X146168336Y-133837280D01*
X146180159Y-133846048D01*
X146191066Y-133855934D01*
X146200952Y-133866841D01*
X146209720Y-133878664D01*
X146217288Y-133891290D01*
X146223582Y-133904597D01*
X146228541Y-133918457D01*
X146232118Y-133932736D01*
X146234278Y-133947297D01*
X146235000Y-133962000D01*
X146235000Y-134262000D01*
X146234278Y-134276703D01*
X146232118Y-134291264D01*
X146228541Y-134305543D01*
X146223582Y-134319403D01*
X146217288Y-134332710D01*
X146209720Y-134345336D01*
X146200952Y-134357159D01*
X146191066Y-134368066D01*
X146180159Y-134377952D01*
X146168336Y-134386720D01*
X146155710Y-134394288D01*
X146142403Y-134400582D01*
X146128543Y-134405541D01*
X146114264Y-134409118D01*
X146099703Y-134411278D01*
X146085000Y-134412000D01*
X144335000Y-134412000D01*
X144320297Y-134411278D01*
X144305736Y-134409118D01*
X144291457Y-134405541D01*
X144277597Y-134400582D01*
X144264290Y-134394288D01*
X144251664Y-134386720D01*
X144239841Y-134377952D01*
X144228934Y-134368066D01*
X144219048Y-134357159D01*
X144210280Y-134345336D01*
X144202712Y-134332710D01*
X144196418Y-134319403D01*
X144191459Y-134305543D01*
X144187882Y-134291264D01*
X144185722Y-134276703D01*
X144185000Y-134262000D01*
X144185000Y-133962000D01*
X144185722Y-133947297D01*
X144187882Y-133932736D01*
X144191459Y-133918457D01*
X144196418Y-133904597D01*
X144202712Y-133891290D01*
X144210280Y-133878664D01*
X144219048Y-133866841D01*
X144228934Y-133855934D01*
X144239841Y-133846048D01*
X144251664Y-133837280D01*
X144264290Y-133829712D01*
X144277597Y-133823418D01*
X144291457Y-133818459D01*
X144305736Y-133814882D01*
X144320297Y-133812722D01*
X144335000Y-133812000D01*
X146085000Y-133812000D01*
X146099703Y-133812722D01*
G37*
G36*
X146099703Y-132542722D02*
G01*
X146114264Y-132544882D01*
X146128543Y-132548459D01*
X146142403Y-132553418D01*
X146155710Y-132559712D01*
X146168336Y-132567280D01*
X146180159Y-132576048D01*
X146191066Y-132585934D01*
X146200952Y-132596841D01*
X146209720Y-132608664D01*
X146217288Y-132621290D01*
X146223582Y-132634597D01*
X146228541Y-132648457D01*
X146232118Y-132662736D01*
X146234278Y-132677297D01*
X146235000Y-132692000D01*
X146235000Y-132992000D01*
X146234278Y-133006703D01*
X146232118Y-133021264D01*
X146228541Y-133035543D01*
X146223582Y-133049403D01*
X146217288Y-133062710D01*
X146209720Y-133075336D01*
X146200952Y-133087159D01*
X146191066Y-133098066D01*
X146180159Y-133107952D01*
X146168336Y-133116720D01*
X146155710Y-133124288D01*
X146142403Y-133130582D01*
X146128543Y-133135541D01*
X146114264Y-133139118D01*
X146099703Y-133141278D01*
X146085000Y-133142000D01*
X144335000Y-133142000D01*
X144320297Y-133141278D01*
X144305736Y-133139118D01*
X144291457Y-133135541D01*
X144277597Y-133130582D01*
X144264290Y-133124288D01*
X144251664Y-133116720D01*
X144239841Y-133107952D01*
X144228934Y-133098066D01*
X144219048Y-133087159D01*
X144210280Y-133075336D01*
X144202712Y-133062710D01*
X144196418Y-133049403D01*
X144191459Y-133035543D01*
X144187882Y-133021264D01*
X144185722Y-133006703D01*
X144185000Y-132992000D01*
X144185000Y-132692000D01*
X144185722Y-132677297D01*
X144187882Y-132662736D01*
X144191459Y-132648457D01*
X144196418Y-132634597D01*
X144202712Y-132621290D01*
X144210280Y-132608664D01*
X144219048Y-132596841D01*
X144228934Y-132585934D01*
X144239841Y-132576048D01*
X144251664Y-132567280D01*
X144264290Y-132559712D01*
X144277597Y-132553418D01*
X144291457Y-132548459D01*
X144305736Y-132544882D01*
X144320297Y-132542722D01*
X144335000Y-132542000D01*
X146085000Y-132542000D01*
X146099703Y-132542722D01*
G37*
G36*
X146099703Y-131272722D02*
G01*
X146114264Y-131274882D01*
X146128543Y-131278459D01*
X146142403Y-131283418D01*
X146155710Y-131289712D01*
X146168336Y-131297280D01*
X146180159Y-131306048D01*
X146191066Y-131315934D01*
X146200952Y-131326841D01*
X146209720Y-131338664D01*
X146217288Y-131351290D01*
X146223582Y-131364597D01*
X146228541Y-131378457D01*
X146232118Y-131392736D01*
X146234278Y-131407297D01*
X146235000Y-131422000D01*
X146235000Y-131722000D01*
X146234278Y-131736703D01*
X146232118Y-131751264D01*
X146228541Y-131765543D01*
X146223582Y-131779403D01*
X146217288Y-131792710D01*
X146209720Y-131805336D01*
X146200952Y-131817159D01*
X146191066Y-131828066D01*
X146180159Y-131837952D01*
X146168336Y-131846720D01*
X146155710Y-131854288D01*
X146142403Y-131860582D01*
X146128543Y-131865541D01*
X146114264Y-131869118D01*
X146099703Y-131871278D01*
X146085000Y-131872000D01*
X144335000Y-131872000D01*
X144320297Y-131871278D01*
X144305736Y-131869118D01*
X144291457Y-131865541D01*
X144277597Y-131860582D01*
X144264290Y-131854288D01*
X144251664Y-131846720D01*
X144239841Y-131837952D01*
X144228934Y-131828066D01*
X144219048Y-131817159D01*
X144210280Y-131805336D01*
X144202712Y-131792710D01*
X144196418Y-131779403D01*
X144191459Y-131765543D01*
X144187882Y-131751264D01*
X144185722Y-131736703D01*
X144185000Y-131722000D01*
X144185000Y-131422000D01*
X144185722Y-131407297D01*
X144187882Y-131392736D01*
X144191459Y-131378457D01*
X144196418Y-131364597D01*
X144202712Y-131351290D01*
X144210280Y-131338664D01*
X144219048Y-131326841D01*
X144228934Y-131315934D01*
X144239841Y-131306048D01*
X144251664Y-131297280D01*
X144264290Y-131289712D01*
X144277597Y-131283418D01*
X144291457Y-131278459D01*
X144305736Y-131274882D01*
X144320297Y-131272722D01*
X144335000Y-131272000D01*
X146085000Y-131272000D01*
X146099703Y-131272722D01*
G37*
G36*
X146099703Y-130002722D02*
G01*
X146114264Y-130004882D01*
X146128543Y-130008459D01*
X146142403Y-130013418D01*
X146155710Y-130019712D01*
X146168336Y-130027280D01*
X146180159Y-130036048D01*
X146191066Y-130045934D01*
X146200952Y-130056841D01*
X146209720Y-130068664D01*
X146217288Y-130081290D01*
X146223582Y-130094597D01*
X146228541Y-130108457D01*
X146232118Y-130122736D01*
X146234278Y-130137297D01*
X146235000Y-130152000D01*
X146235000Y-130452000D01*
X146234278Y-130466703D01*
X146232118Y-130481264D01*
X146228541Y-130495543D01*
X146223582Y-130509403D01*
X146217288Y-130522710D01*
X146209720Y-130535336D01*
X146200952Y-130547159D01*
X146191066Y-130558066D01*
X146180159Y-130567952D01*
X146168336Y-130576720D01*
X146155710Y-130584288D01*
X146142403Y-130590582D01*
X146128543Y-130595541D01*
X146114264Y-130599118D01*
X146099703Y-130601278D01*
X146085000Y-130602000D01*
X144335000Y-130602000D01*
X144320297Y-130601278D01*
X144305736Y-130599118D01*
X144291457Y-130595541D01*
X144277597Y-130590582D01*
X144264290Y-130584288D01*
X144251664Y-130576720D01*
X144239841Y-130567952D01*
X144228934Y-130558066D01*
X144219048Y-130547159D01*
X144210280Y-130535336D01*
X144202712Y-130522710D01*
X144196418Y-130509403D01*
X144191459Y-130495543D01*
X144187882Y-130481264D01*
X144185722Y-130466703D01*
X144185000Y-130452000D01*
X144185000Y-130152000D01*
X144185722Y-130137297D01*
X144187882Y-130122736D01*
X144191459Y-130108457D01*
X144196418Y-130094597D01*
X144202712Y-130081290D01*
X144210280Y-130068664D01*
X144219048Y-130056841D01*
X144228934Y-130045934D01*
X144239841Y-130036048D01*
X144251664Y-130027280D01*
X144264290Y-130019712D01*
X144277597Y-130013418D01*
X144291457Y-130008459D01*
X144305736Y-130004882D01*
X144320297Y-130002722D01*
X144335000Y-130002000D01*
X146085000Y-130002000D01*
X146099703Y-130002722D01*
G37*
G36*
X146099703Y-128732722D02*
G01*
X146114264Y-128734882D01*
X146128543Y-128738459D01*
X146142403Y-128743418D01*
X146155710Y-128749712D01*
X146168336Y-128757280D01*
X146180159Y-128766048D01*
X146191066Y-128775934D01*
X146200952Y-128786841D01*
X146209720Y-128798664D01*
X146217288Y-128811290D01*
X146223582Y-128824597D01*
X146228541Y-128838457D01*
X146232118Y-128852736D01*
X146234278Y-128867297D01*
X146235000Y-128882000D01*
X146235000Y-129182000D01*
X146234278Y-129196703D01*
X146232118Y-129211264D01*
X146228541Y-129225543D01*
X146223582Y-129239403D01*
X146217288Y-129252710D01*
X146209720Y-129265336D01*
X146200952Y-129277159D01*
X146191066Y-129288066D01*
X146180159Y-129297952D01*
X146168336Y-129306720D01*
X146155710Y-129314288D01*
X146142403Y-129320582D01*
X146128543Y-129325541D01*
X146114264Y-129329118D01*
X146099703Y-129331278D01*
X146085000Y-129332000D01*
X144335000Y-129332000D01*
X144320297Y-129331278D01*
X144305736Y-129329118D01*
X144291457Y-129325541D01*
X144277597Y-129320582D01*
X144264290Y-129314288D01*
X144251664Y-129306720D01*
X144239841Y-129297952D01*
X144228934Y-129288066D01*
X144219048Y-129277159D01*
X144210280Y-129265336D01*
X144202712Y-129252710D01*
X144196418Y-129239403D01*
X144191459Y-129225543D01*
X144187882Y-129211264D01*
X144185722Y-129196703D01*
X144185000Y-129182000D01*
X144185000Y-128882000D01*
X144185722Y-128867297D01*
X144187882Y-128852736D01*
X144191459Y-128838457D01*
X144196418Y-128824597D01*
X144202712Y-128811290D01*
X144210280Y-128798664D01*
X144219048Y-128786841D01*
X144228934Y-128775934D01*
X144239841Y-128766048D01*
X144251664Y-128757280D01*
X144264290Y-128749712D01*
X144277597Y-128743418D01*
X144291457Y-128738459D01*
X144305736Y-128734882D01*
X144320297Y-128732722D01*
X144335000Y-128732000D01*
X146085000Y-128732000D01*
X146099703Y-128732722D01*
G37*
G36*
X148759779Y-126780144D02*
G01*
X148782834Y-126783563D01*
X148805443Y-126789227D01*
X148827387Y-126797079D01*
X148848457Y-126807044D01*
X148868448Y-126819026D01*
X148887168Y-126832910D01*
X148904438Y-126848562D01*
X148920090Y-126865832D01*
X148933974Y-126884552D01*
X148945956Y-126904543D01*
X148955921Y-126925613D01*
X148963773Y-126947557D01*
X148969437Y-126970166D01*
X148972856Y-126993221D01*
X148974000Y-127016500D01*
X148974000Y-127491500D01*
X148972856Y-127514779D01*
X148969437Y-127537834D01*
X148963773Y-127560443D01*
X148955921Y-127582387D01*
X148945956Y-127603457D01*
X148933974Y-127623448D01*
X148920090Y-127642168D01*
X148904438Y-127659438D01*
X148887168Y-127675090D01*
X148868448Y-127688974D01*
X148848457Y-127700956D01*
X148827387Y-127710921D01*
X148805443Y-127718773D01*
X148782834Y-127724437D01*
X148759779Y-127727856D01*
X148736500Y-127729000D01*
X148161500Y-127729000D01*
X148138221Y-127727856D01*
X148115166Y-127724437D01*
X148092557Y-127718773D01*
X148070613Y-127710921D01*
X148049543Y-127700956D01*
X148029552Y-127688974D01*
X148010832Y-127675090D01*
X147993562Y-127659438D01*
X147977910Y-127642168D01*
X147964026Y-127623448D01*
X147952044Y-127603457D01*
X147942079Y-127582387D01*
X147934227Y-127560443D01*
X147928563Y-127537834D01*
X147925144Y-127514779D01*
X147924000Y-127491500D01*
X147924000Y-127016500D01*
X147925144Y-126993221D01*
X147928563Y-126970166D01*
X147934227Y-126947557D01*
X147942079Y-126925613D01*
X147952044Y-126904543D01*
X147964026Y-126884552D01*
X147977910Y-126865832D01*
X147993562Y-126848562D01*
X148010832Y-126832910D01*
X148029552Y-126819026D01*
X148049543Y-126807044D01*
X148070613Y-126797079D01*
X148092557Y-126789227D01*
X148115166Y-126783563D01*
X148138221Y-126780144D01*
X148161500Y-126779000D01*
X148736500Y-126779000D01*
X148759779Y-126780144D01*
G37*
G36*
X147009779Y-126780144D02*
G01*
X147032834Y-126783563D01*
X147055443Y-126789227D01*
X147077387Y-126797079D01*
X147098457Y-126807044D01*
X147118448Y-126819026D01*
X147137168Y-126832910D01*
X147154438Y-126848562D01*
X147170090Y-126865832D01*
X147183974Y-126884552D01*
X147195956Y-126904543D01*
X147205921Y-126925613D01*
X147213773Y-126947557D01*
X147219437Y-126970166D01*
X147222856Y-126993221D01*
X147224000Y-127016500D01*
X147224000Y-127491500D01*
X147222856Y-127514779D01*
X147219437Y-127537834D01*
X147213773Y-127560443D01*
X147205921Y-127582387D01*
X147195956Y-127603457D01*
X147183974Y-127623448D01*
X147170090Y-127642168D01*
X147154438Y-127659438D01*
X147137168Y-127675090D01*
X147118448Y-127688974D01*
X147098457Y-127700956D01*
X147077387Y-127710921D01*
X147055443Y-127718773D01*
X147032834Y-127724437D01*
X147009779Y-127727856D01*
X146986500Y-127729000D01*
X146411500Y-127729000D01*
X146388221Y-127727856D01*
X146365166Y-127724437D01*
X146342557Y-127718773D01*
X146320613Y-127710921D01*
X146299543Y-127700956D01*
X146279552Y-127688974D01*
X146260832Y-127675090D01*
X146243562Y-127659438D01*
X146227910Y-127642168D01*
X146214026Y-127623448D01*
X146202044Y-127603457D01*
X146192079Y-127582387D01*
X146184227Y-127560443D01*
X146178563Y-127537834D01*
X146175144Y-127514779D01*
X146174000Y-127491500D01*
X146174000Y-127016500D01*
X146175144Y-126993221D01*
X146178563Y-126970166D01*
X146184227Y-126947557D01*
X146192079Y-126925613D01*
X146202044Y-126904543D01*
X146214026Y-126884552D01*
X146227910Y-126865832D01*
X146243562Y-126848562D01*
X146260832Y-126832910D01*
X146279552Y-126819026D01*
X146299543Y-126807044D01*
X146320613Y-126797079D01*
X146342557Y-126789227D01*
X146365166Y-126783563D01*
X146388221Y-126780144D01*
X146411500Y-126779000D01*
X146986500Y-126779000D01*
X147009779Y-126780144D01*
G37*
G36*
X157994779Y-128649144D02*
G01*
X158017834Y-128652563D01*
X158040443Y-128658227D01*
X158062387Y-128666079D01*
X158083457Y-128676044D01*
X158103448Y-128688026D01*
X158122168Y-128701910D01*
X158139438Y-128717562D01*
X158155090Y-128734832D01*
X158168974Y-128753552D01*
X158180956Y-128773543D01*
X158190921Y-128794613D01*
X158198773Y-128816557D01*
X158204437Y-128839166D01*
X158207856Y-128862221D01*
X158209000Y-128885500D01*
X158209000Y-129460500D01*
X158207856Y-129483779D01*
X158204437Y-129506834D01*
X158198773Y-129529443D01*
X158190921Y-129551387D01*
X158180956Y-129572457D01*
X158168974Y-129592448D01*
X158155090Y-129611168D01*
X158139438Y-129628438D01*
X158122168Y-129644090D01*
X158103448Y-129657974D01*
X158083457Y-129669956D01*
X158062387Y-129679921D01*
X158040443Y-129687773D01*
X158017834Y-129693437D01*
X157994779Y-129696856D01*
X157971500Y-129698000D01*
X157496500Y-129698000D01*
X157473221Y-129696856D01*
X157450166Y-129693437D01*
X157427557Y-129687773D01*
X157405613Y-129679921D01*
X157384543Y-129669956D01*
X157364552Y-129657974D01*
X157345832Y-129644090D01*
X157328562Y-129628438D01*
X157312910Y-129611168D01*
X157299026Y-129592448D01*
X157287044Y-129572457D01*
X157277079Y-129551387D01*
X157269227Y-129529443D01*
X157263563Y-129506834D01*
X157260144Y-129483779D01*
X157259000Y-129460500D01*
X157259000Y-128885500D01*
X157260144Y-128862221D01*
X157263563Y-128839166D01*
X157269227Y-128816557D01*
X157277079Y-128794613D01*
X157287044Y-128773543D01*
X157299026Y-128753552D01*
X157312910Y-128734832D01*
X157328562Y-128717562D01*
X157345832Y-128701910D01*
X157364552Y-128688026D01*
X157384543Y-128676044D01*
X157405613Y-128666079D01*
X157427557Y-128658227D01*
X157450166Y-128652563D01*
X157473221Y-128649144D01*
X157496500Y-128648000D01*
X157971500Y-128648000D01*
X157994779Y-128649144D01*
G37*
G36*
X157994779Y-130399144D02*
G01*
X158017834Y-130402563D01*
X158040443Y-130408227D01*
X158062387Y-130416079D01*
X158083457Y-130426044D01*
X158103448Y-130438026D01*
X158122168Y-130451910D01*
X158139438Y-130467562D01*
X158155090Y-130484832D01*
X158168974Y-130503552D01*
X158180956Y-130523543D01*
X158190921Y-130544613D01*
X158198773Y-130566557D01*
X158204437Y-130589166D01*
X158207856Y-130612221D01*
X158209000Y-130635500D01*
X158209000Y-131210500D01*
X158207856Y-131233779D01*
X158204437Y-131256834D01*
X158198773Y-131279443D01*
X158190921Y-131301387D01*
X158180956Y-131322457D01*
X158168974Y-131342448D01*
X158155090Y-131361168D01*
X158139438Y-131378438D01*
X158122168Y-131394090D01*
X158103448Y-131407974D01*
X158083457Y-131419956D01*
X158062387Y-131429921D01*
X158040443Y-131437773D01*
X158017834Y-131443437D01*
X157994779Y-131446856D01*
X157971500Y-131448000D01*
X157496500Y-131448000D01*
X157473221Y-131446856D01*
X157450166Y-131443437D01*
X157427557Y-131437773D01*
X157405613Y-131429921D01*
X157384543Y-131419956D01*
X157364552Y-131407974D01*
X157345832Y-131394090D01*
X157328562Y-131378438D01*
X157312910Y-131361168D01*
X157299026Y-131342448D01*
X157287044Y-131322457D01*
X157277079Y-131301387D01*
X157269227Y-131279443D01*
X157263563Y-131256834D01*
X157260144Y-131233779D01*
X157259000Y-131210500D01*
X157259000Y-130635500D01*
X157260144Y-130612221D01*
X157263563Y-130589166D01*
X157269227Y-130566557D01*
X157277079Y-130544613D01*
X157287044Y-130523543D01*
X157299026Y-130503552D01*
X157312910Y-130484832D01*
X157328562Y-130467562D01*
X157345832Y-130451910D01*
X157364552Y-130438026D01*
X157384543Y-130426044D01*
X157405613Y-130416079D01*
X157427557Y-130408227D01*
X157450166Y-130402563D01*
X157473221Y-130399144D01*
X157496500Y-130398000D01*
X157971500Y-130398000D01*
X157994779Y-130399144D01*
G37*
G36*
X165874703Y-132923722D02*
G01*
X165889264Y-132925882D01*
X165903543Y-132929459D01*
X165917403Y-132934418D01*
X165930710Y-132940712D01*
X165943336Y-132948280D01*
X165955159Y-132957048D01*
X165966066Y-132966934D01*
X165975952Y-132977841D01*
X165984720Y-132989664D01*
X165992288Y-133002290D01*
X165998582Y-133015597D01*
X166003541Y-133029457D01*
X166007118Y-133043736D01*
X166009278Y-133058297D01*
X166010000Y-133073000D01*
X166010000Y-133373000D01*
X166009278Y-133387703D01*
X166007118Y-133402264D01*
X166003541Y-133416543D01*
X165998582Y-133430403D01*
X165992288Y-133443710D01*
X165984720Y-133456336D01*
X165975952Y-133468159D01*
X165966066Y-133479066D01*
X165955159Y-133488952D01*
X165943336Y-133497720D01*
X165930710Y-133505288D01*
X165917403Y-133511582D01*
X165903543Y-133516541D01*
X165889264Y-133520118D01*
X165874703Y-133522278D01*
X165860000Y-133523000D01*
X164210000Y-133523000D01*
X164195297Y-133522278D01*
X164180736Y-133520118D01*
X164166457Y-133516541D01*
X164152597Y-133511582D01*
X164139290Y-133505288D01*
X164126664Y-133497720D01*
X164114841Y-133488952D01*
X164103934Y-133479066D01*
X164094048Y-133468159D01*
X164085280Y-133456336D01*
X164077712Y-133443710D01*
X164071418Y-133430403D01*
X164066459Y-133416543D01*
X164062882Y-133402264D01*
X164060722Y-133387703D01*
X164060000Y-133373000D01*
X164060000Y-133073000D01*
X164060722Y-133058297D01*
X164062882Y-133043736D01*
X164066459Y-133029457D01*
X164071418Y-133015597D01*
X164077712Y-133002290D01*
X164085280Y-132989664D01*
X164094048Y-132977841D01*
X164103934Y-132966934D01*
X164114841Y-132957048D01*
X164126664Y-132948280D01*
X164139290Y-132940712D01*
X164152597Y-132934418D01*
X164166457Y-132929459D01*
X164180736Y-132925882D01*
X164195297Y-132923722D01*
X164210000Y-132923000D01*
X165860000Y-132923000D01*
X165874703Y-132923722D01*
G37*
G36*
X165874703Y-134193722D02*
G01*
X165889264Y-134195882D01*
X165903543Y-134199459D01*
X165917403Y-134204418D01*
X165930710Y-134210712D01*
X165943336Y-134218280D01*
X165955159Y-134227048D01*
X165966066Y-134236934D01*
X165975952Y-134247841D01*
X165984720Y-134259664D01*
X165992288Y-134272290D01*
X165998582Y-134285597D01*
X166003541Y-134299457D01*
X166007118Y-134313736D01*
X166009278Y-134328297D01*
X166010000Y-134343000D01*
X166010000Y-134643000D01*
X166009278Y-134657703D01*
X166007118Y-134672264D01*
X166003541Y-134686543D01*
X165998582Y-134700403D01*
X165992288Y-134713710D01*
X165984720Y-134726336D01*
X165975952Y-134738159D01*
X165966066Y-134749066D01*
X165955159Y-134758952D01*
X165943336Y-134767720D01*
X165930710Y-134775288D01*
X165917403Y-134781582D01*
X165903543Y-134786541D01*
X165889264Y-134790118D01*
X165874703Y-134792278D01*
X165860000Y-134793000D01*
X164210000Y-134793000D01*
X164195297Y-134792278D01*
X164180736Y-134790118D01*
X164166457Y-134786541D01*
X164152597Y-134781582D01*
X164139290Y-134775288D01*
X164126664Y-134767720D01*
X164114841Y-134758952D01*
X164103934Y-134749066D01*
X164094048Y-134738159D01*
X164085280Y-134726336D01*
X164077712Y-134713710D01*
X164071418Y-134700403D01*
X164066459Y-134686543D01*
X164062882Y-134672264D01*
X164060722Y-134657703D01*
X164060000Y-134643000D01*
X164060000Y-134343000D01*
X164060722Y-134328297D01*
X164062882Y-134313736D01*
X164066459Y-134299457D01*
X164071418Y-134285597D01*
X164077712Y-134272290D01*
X164085280Y-134259664D01*
X164094048Y-134247841D01*
X164103934Y-134236934D01*
X164114841Y-134227048D01*
X164126664Y-134218280D01*
X164139290Y-134210712D01*
X164152597Y-134204418D01*
X164166457Y-134199459D01*
X164180736Y-134195882D01*
X164195297Y-134193722D01*
X164210000Y-134193000D01*
X165860000Y-134193000D01*
X165874703Y-134193722D01*
G37*
G36*
X165874703Y-135463722D02*
G01*
X165889264Y-135465882D01*
X165903543Y-135469459D01*
X165917403Y-135474418D01*
X165930710Y-135480712D01*
X165943336Y-135488280D01*
X165955159Y-135497048D01*
X165966066Y-135506934D01*
X165975952Y-135517841D01*
X165984720Y-135529664D01*
X165992288Y-135542290D01*
X165998582Y-135555597D01*
X166003541Y-135569457D01*
X166007118Y-135583736D01*
X166009278Y-135598297D01*
X166010000Y-135613000D01*
X166010000Y-135913000D01*
X166009278Y-135927703D01*
X166007118Y-135942264D01*
X166003541Y-135956543D01*
X165998582Y-135970403D01*
X165992288Y-135983710D01*
X165984720Y-135996336D01*
X165975952Y-136008159D01*
X165966066Y-136019066D01*
X165955159Y-136028952D01*
X165943336Y-136037720D01*
X165930710Y-136045288D01*
X165917403Y-136051582D01*
X165903543Y-136056541D01*
X165889264Y-136060118D01*
X165874703Y-136062278D01*
X165860000Y-136063000D01*
X164210000Y-136063000D01*
X164195297Y-136062278D01*
X164180736Y-136060118D01*
X164166457Y-136056541D01*
X164152597Y-136051582D01*
X164139290Y-136045288D01*
X164126664Y-136037720D01*
X164114841Y-136028952D01*
X164103934Y-136019066D01*
X164094048Y-136008159D01*
X164085280Y-135996336D01*
X164077712Y-135983710D01*
X164071418Y-135970403D01*
X164066459Y-135956543D01*
X164062882Y-135942264D01*
X164060722Y-135927703D01*
X164060000Y-135913000D01*
X164060000Y-135613000D01*
X164060722Y-135598297D01*
X164062882Y-135583736D01*
X164066459Y-135569457D01*
X164071418Y-135555597D01*
X164077712Y-135542290D01*
X164085280Y-135529664D01*
X164094048Y-135517841D01*
X164103934Y-135506934D01*
X164114841Y-135497048D01*
X164126664Y-135488280D01*
X164139290Y-135480712D01*
X164152597Y-135474418D01*
X164166457Y-135469459D01*
X164180736Y-135465882D01*
X164195297Y-135463722D01*
X164210000Y-135463000D01*
X165860000Y-135463000D01*
X165874703Y-135463722D01*
G37*
G36*
X165874703Y-136733722D02*
G01*
X165889264Y-136735882D01*
X165903543Y-136739459D01*
X165917403Y-136744418D01*
X165930710Y-136750712D01*
X165943336Y-136758280D01*
X165955159Y-136767048D01*
X165966066Y-136776934D01*
X165975952Y-136787841D01*
X165984720Y-136799664D01*
X165992288Y-136812290D01*
X165998582Y-136825597D01*
X166003541Y-136839457D01*
X166007118Y-136853736D01*
X166009278Y-136868297D01*
X166010000Y-136883000D01*
X166010000Y-137183000D01*
X166009278Y-137197703D01*
X166007118Y-137212264D01*
X166003541Y-137226543D01*
X165998582Y-137240403D01*
X165992288Y-137253710D01*
X165984720Y-137266336D01*
X165975952Y-137278159D01*
X165966066Y-137289066D01*
X165955159Y-137298952D01*
X165943336Y-137307720D01*
X165930710Y-137315288D01*
X165917403Y-137321582D01*
X165903543Y-137326541D01*
X165889264Y-137330118D01*
X165874703Y-137332278D01*
X165860000Y-137333000D01*
X164210000Y-137333000D01*
X164195297Y-137332278D01*
X164180736Y-137330118D01*
X164166457Y-137326541D01*
X164152597Y-137321582D01*
X164139290Y-137315288D01*
X164126664Y-137307720D01*
X164114841Y-137298952D01*
X164103934Y-137289066D01*
X164094048Y-137278159D01*
X164085280Y-137266336D01*
X164077712Y-137253710D01*
X164071418Y-137240403D01*
X164066459Y-137226543D01*
X164062882Y-137212264D01*
X164060722Y-137197703D01*
X164060000Y-137183000D01*
X164060000Y-136883000D01*
X164060722Y-136868297D01*
X164062882Y-136853736D01*
X164066459Y-136839457D01*
X164071418Y-136825597D01*
X164077712Y-136812290D01*
X164085280Y-136799664D01*
X164094048Y-136787841D01*
X164103934Y-136776934D01*
X164114841Y-136767048D01*
X164126664Y-136758280D01*
X164139290Y-136750712D01*
X164152597Y-136744418D01*
X164166457Y-136739459D01*
X164180736Y-136735882D01*
X164195297Y-136733722D01*
X164210000Y-136733000D01*
X165860000Y-136733000D01*
X165874703Y-136733722D01*
G37*
G36*
X160924703Y-136733722D02*
G01*
X160939264Y-136735882D01*
X160953543Y-136739459D01*
X160967403Y-136744418D01*
X160980710Y-136750712D01*
X160993336Y-136758280D01*
X161005159Y-136767048D01*
X161016066Y-136776934D01*
X161025952Y-136787841D01*
X161034720Y-136799664D01*
X161042288Y-136812290D01*
X161048582Y-136825597D01*
X161053541Y-136839457D01*
X161057118Y-136853736D01*
X161059278Y-136868297D01*
X161060000Y-136883000D01*
X161060000Y-137183000D01*
X161059278Y-137197703D01*
X161057118Y-137212264D01*
X161053541Y-137226543D01*
X161048582Y-137240403D01*
X161042288Y-137253710D01*
X161034720Y-137266336D01*
X161025952Y-137278159D01*
X161016066Y-137289066D01*
X161005159Y-137298952D01*
X160993336Y-137307720D01*
X160980710Y-137315288D01*
X160967403Y-137321582D01*
X160953543Y-137326541D01*
X160939264Y-137330118D01*
X160924703Y-137332278D01*
X160910000Y-137333000D01*
X159260000Y-137333000D01*
X159245297Y-137332278D01*
X159230736Y-137330118D01*
X159216457Y-137326541D01*
X159202597Y-137321582D01*
X159189290Y-137315288D01*
X159176664Y-137307720D01*
X159164841Y-137298952D01*
X159153934Y-137289066D01*
X159144048Y-137278159D01*
X159135280Y-137266336D01*
X159127712Y-137253710D01*
X159121418Y-137240403D01*
X159116459Y-137226543D01*
X159112882Y-137212264D01*
X159110722Y-137197703D01*
X159110000Y-137183000D01*
X159110000Y-136883000D01*
X159110722Y-136868297D01*
X159112882Y-136853736D01*
X159116459Y-136839457D01*
X159121418Y-136825597D01*
X159127712Y-136812290D01*
X159135280Y-136799664D01*
X159144048Y-136787841D01*
X159153934Y-136776934D01*
X159164841Y-136767048D01*
X159176664Y-136758280D01*
X159189290Y-136750712D01*
X159202597Y-136744418D01*
X159216457Y-136739459D01*
X159230736Y-136735882D01*
X159245297Y-136733722D01*
X159260000Y-136733000D01*
X160910000Y-136733000D01*
X160924703Y-136733722D01*
G37*
G36*
X160924703Y-135463722D02*
G01*
X160939264Y-135465882D01*
X160953543Y-135469459D01*
X160967403Y-135474418D01*
X160980710Y-135480712D01*
X160993336Y-135488280D01*
X161005159Y-135497048D01*
X161016066Y-135506934D01*
X161025952Y-135517841D01*
X161034720Y-135529664D01*
X161042288Y-135542290D01*
X161048582Y-135555597D01*
X161053541Y-135569457D01*
X161057118Y-135583736D01*
X161059278Y-135598297D01*
X161060000Y-135613000D01*
X161060000Y-135913000D01*
X161059278Y-135927703D01*
X161057118Y-135942264D01*
X161053541Y-135956543D01*
X161048582Y-135970403D01*
X161042288Y-135983710D01*
X161034720Y-135996336D01*
X161025952Y-136008159D01*
X161016066Y-136019066D01*
X161005159Y-136028952D01*
X160993336Y-136037720D01*
X160980710Y-136045288D01*
X160967403Y-136051582D01*
X160953543Y-136056541D01*
X160939264Y-136060118D01*
X160924703Y-136062278D01*
X160910000Y-136063000D01*
X159260000Y-136063000D01*
X159245297Y-136062278D01*
X159230736Y-136060118D01*
X159216457Y-136056541D01*
X159202597Y-136051582D01*
X159189290Y-136045288D01*
X159176664Y-136037720D01*
X159164841Y-136028952D01*
X159153934Y-136019066D01*
X159144048Y-136008159D01*
X159135280Y-135996336D01*
X159127712Y-135983710D01*
X159121418Y-135970403D01*
X159116459Y-135956543D01*
X159112882Y-135942264D01*
X159110722Y-135927703D01*
X159110000Y-135913000D01*
X159110000Y-135613000D01*
X159110722Y-135598297D01*
X159112882Y-135583736D01*
X159116459Y-135569457D01*
X159121418Y-135555597D01*
X159127712Y-135542290D01*
X159135280Y-135529664D01*
X159144048Y-135517841D01*
X159153934Y-135506934D01*
X159164841Y-135497048D01*
X159176664Y-135488280D01*
X159189290Y-135480712D01*
X159202597Y-135474418D01*
X159216457Y-135469459D01*
X159230736Y-135465882D01*
X159245297Y-135463722D01*
X159260000Y-135463000D01*
X160910000Y-135463000D01*
X160924703Y-135463722D01*
G37*
G36*
X160924703Y-134193722D02*
G01*
X160939264Y-134195882D01*
X160953543Y-134199459D01*
X160967403Y-134204418D01*
X160980710Y-134210712D01*
X160993336Y-134218280D01*
X161005159Y-134227048D01*
X161016066Y-134236934D01*
X161025952Y-134247841D01*
X161034720Y-134259664D01*
X161042288Y-134272290D01*
X161048582Y-134285597D01*
X161053541Y-134299457D01*
X161057118Y-134313736D01*
X161059278Y-134328297D01*
X161060000Y-134343000D01*
X161060000Y-134643000D01*
X161059278Y-134657703D01*
X161057118Y-134672264D01*
X161053541Y-134686543D01*
X161048582Y-134700403D01*
X161042288Y-134713710D01*
X161034720Y-134726336D01*
X161025952Y-134738159D01*
X161016066Y-134749066D01*
X161005159Y-134758952D01*
X160993336Y-134767720D01*
X160980710Y-134775288D01*
X160967403Y-134781582D01*
X160953543Y-134786541D01*
X160939264Y-134790118D01*
X160924703Y-134792278D01*
X160910000Y-134793000D01*
X159260000Y-134793000D01*
X159245297Y-134792278D01*
X159230736Y-134790118D01*
X159216457Y-134786541D01*
X159202597Y-134781582D01*
X159189290Y-134775288D01*
X159176664Y-134767720D01*
X159164841Y-134758952D01*
X159153934Y-134749066D01*
X159144048Y-134738159D01*
X159135280Y-134726336D01*
X159127712Y-134713710D01*
X159121418Y-134700403D01*
X159116459Y-134686543D01*
X159112882Y-134672264D01*
X159110722Y-134657703D01*
X159110000Y-134643000D01*
X159110000Y-134343000D01*
X159110722Y-134328297D01*
X159112882Y-134313736D01*
X159116459Y-134299457D01*
X159121418Y-134285597D01*
X159127712Y-134272290D01*
X159135280Y-134259664D01*
X159144048Y-134247841D01*
X159153934Y-134236934D01*
X159164841Y-134227048D01*
X159176664Y-134218280D01*
X159189290Y-134210712D01*
X159202597Y-134204418D01*
X159216457Y-134199459D01*
X159230736Y-134195882D01*
X159245297Y-134193722D01*
X159260000Y-134193000D01*
X160910000Y-134193000D01*
X160924703Y-134193722D01*
G37*
G36*
X160924703Y-132923722D02*
G01*
X160939264Y-132925882D01*
X160953543Y-132929459D01*
X160967403Y-132934418D01*
X160980710Y-132940712D01*
X160993336Y-132948280D01*
X161005159Y-132957048D01*
X161016066Y-132966934D01*
X161025952Y-132977841D01*
X161034720Y-132989664D01*
X161042288Y-133002290D01*
X161048582Y-133015597D01*
X161053541Y-133029457D01*
X161057118Y-133043736D01*
X161059278Y-133058297D01*
X161060000Y-133073000D01*
X161060000Y-133373000D01*
X161059278Y-133387703D01*
X161057118Y-133402264D01*
X161053541Y-133416543D01*
X161048582Y-133430403D01*
X161042288Y-133443710D01*
X161034720Y-133456336D01*
X161025952Y-133468159D01*
X161016066Y-133479066D01*
X161005159Y-133488952D01*
X160993336Y-133497720D01*
X160980710Y-133505288D01*
X160967403Y-133511582D01*
X160953543Y-133516541D01*
X160939264Y-133520118D01*
X160924703Y-133522278D01*
X160910000Y-133523000D01*
X159260000Y-133523000D01*
X159245297Y-133522278D01*
X159230736Y-133520118D01*
X159216457Y-133516541D01*
X159202597Y-133511582D01*
X159189290Y-133505288D01*
X159176664Y-133497720D01*
X159164841Y-133488952D01*
X159153934Y-133479066D01*
X159144048Y-133468159D01*
X159135280Y-133456336D01*
X159127712Y-133443710D01*
X159121418Y-133430403D01*
X159116459Y-133416543D01*
X159112882Y-133402264D01*
X159110722Y-133387703D01*
X159110000Y-133373000D01*
X159110000Y-133073000D01*
X159110722Y-133058297D01*
X159112882Y-133043736D01*
X159116459Y-133029457D01*
X159121418Y-133015597D01*
X159127712Y-133002290D01*
X159135280Y-132989664D01*
X159144048Y-132977841D01*
X159153934Y-132966934D01*
X159164841Y-132957048D01*
X159176664Y-132948280D01*
X159189290Y-132940712D01*
X159202597Y-132934418D01*
X159216457Y-132929459D01*
X159230736Y-132925882D01*
X159245297Y-132923722D01*
X159260000Y-132923000D01*
X160910000Y-132923000D01*
X160924703Y-132923722D01*
G37*
G36*
X165874703Y-123779722D02*
G01*
X165889264Y-123781882D01*
X165903543Y-123785459D01*
X165917403Y-123790418D01*
X165930710Y-123796712D01*
X165943336Y-123804280D01*
X165955159Y-123813048D01*
X165966066Y-123822934D01*
X165975952Y-123833841D01*
X165984720Y-123845664D01*
X165992288Y-123858290D01*
X165998582Y-123871597D01*
X166003541Y-123885457D01*
X166007118Y-123899736D01*
X166009278Y-123914297D01*
X166010000Y-123929000D01*
X166010000Y-124229000D01*
X166009278Y-124243703D01*
X166007118Y-124258264D01*
X166003541Y-124272543D01*
X165998582Y-124286403D01*
X165992288Y-124299710D01*
X165984720Y-124312336D01*
X165975952Y-124324159D01*
X165966066Y-124335066D01*
X165955159Y-124344952D01*
X165943336Y-124353720D01*
X165930710Y-124361288D01*
X165917403Y-124367582D01*
X165903543Y-124372541D01*
X165889264Y-124376118D01*
X165874703Y-124378278D01*
X165860000Y-124379000D01*
X164210000Y-124379000D01*
X164195297Y-124378278D01*
X164180736Y-124376118D01*
X164166457Y-124372541D01*
X164152597Y-124367582D01*
X164139290Y-124361288D01*
X164126664Y-124353720D01*
X164114841Y-124344952D01*
X164103934Y-124335066D01*
X164094048Y-124324159D01*
X164085280Y-124312336D01*
X164077712Y-124299710D01*
X164071418Y-124286403D01*
X164066459Y-124272543D01*
X164062882Y-124258264D01*
X164060722Y-124243703D01*
X164060000Y-124229000D01*
X164060000Y-123929000D01*
X164060722Y-123914297D01*
X164062882Y-123899736D01*
X164066459Y-123885457D01*
X164071418Y-123871597D01*
X164077712Y-123858290D01*
X164085280Y-123845664D01*
X164094048Y-123833841D01*
X164103934Y-123822934D01*
X164114841Y-123813048D01*
X164126664Y-123804280D01*
X164139290Y-123796712D01*
X164152597Y-123790418D01*
X164166457Y-123785459D01*
X164180736Y-123781882D01*
X164195297Y-123779722D01*
X164210000Y-123779000D01*
X165860000Y-123779000D01*
X165874703Y-123779722D01*
G37*
G36*
X165874703Y-125049722D02*
G01*
X165889264Y-125051882D01*
X165903543Y-125055459D01*
X165917403Y-125060418D01*
X165930710Y-125066712D01*
X165943336Y-125074280D01*
X165955159Y-125083048D01*
X165966066Y-125092934D01*
X165975952Y-125103841D01*
X165984720Y-125115664D01*
X165992288Y-125128290D01*
X165998582Y-125141597D01*
X166003541Y-125155457D01*
X166007118Y-125169736D01*
X166009278Y-125184297D01*
X166010000Y-125199000D01*
X166010000Y-125499000D01*
X166009278Y-125513703D01*
X166007118Y-125528264D01*
X166003541Y-125542543D01*
X165998582Y-125556403D01*
X165992288Y-125569710D01*
X165984720Y-125582336D01*
X165975952Y-125594159D01*
X165966066Y-125605066D01*
X165955159Y-125614952D01*
X165943336Y-125623720D01*
X165930710Y-125631288D01*
X165917403Y-125637582D01*
X165903543Y-125642541D01*
X165889264Y-125646118D01*
X165874703Y-125648278D01*
X165860000Y-125649000D01*
X164210000Y-125649000D01*
X164195297Y-125648278D01*
X164180736Y-125646118D01*
X164166457Y-125642541D01*
X164152597Y-125637582D01*
X164139290Y-125631288D01*
X164126664Y-125623720D01*
X164114841Y-125614952D01*
X164103934Y-125605066D01*
X164094048Y-125594159D01*
X164085280Y-125582336D01*
X164077712Y-125569710D01*
X164071418Y-125556403D01*
X164066459Y-125542543D01*
X164062882Y-125528264D01*
X164060722Y-125513703D01*
X164060000Y-125499000D01*
X164060000Y-125199000D01*
X164060722Y-125184297D01*
X164062882Y-125169736D01*
X164066459Y-125155457D01*
X164071418Y-125141597D01*
X164077712Y-125128290D01*
X164085280Y-125115664D01*
X164094048Y-125103841D01*
X164103934Y-125092934D01*
X164114841Y-125083048D01*
X164126664Y-125074280D01*
X164139290Y-125066712D01*
X164152597Y-125060418D01*
X164166457Y-125055459D01*
X164180736Y-125051882D01*
X164195297Y-125049722D01*
X164210000Y-125049000D01*
X165860000Y-125049000D01*
X165874703Y-125049722D01*
G37*
G36*
X165874703Y-126319722D02*
G01*
X165889264Y-126321882D01*
X165903543Y-126325459D01*
X165917403Y-126330418D01*
X165930710Y-126336712D01*
X165943336Y-126344280D01*
X165955159Y-126353048D01*
X165966066Y-126362934D01*
X165975952Y-126373841D01*
X165984720Y-126385664D01*
X165992288Y-126398290D01*
X165998582Y-126411597D01*
X166003541Y-126425457D01*
X166007118Y-126439736D01*
X166009278Y-126454297D01*
X166010000Y-126469000D01*
X166010000Y-126769000D01*
X166009278Y-126783703D01*
X166007118Y-126798264D01*
X166003541Y-126812543D01*
X165998582Y-126826403D01*
X165992288Y-126839710D01*
X165984720Y-126852336D01*
X165975952Y-126864159D01*
X165966066Y-126875066D01*
X165955159Y-126884952D01*
X165943336Y-126893720D01*
X165930710Y-126901288D01*
X165917403Y-126907582D01*
X165903543Y-126912541D01*
X165889264Y-126916118D01*
X165874703Y-126918278D01*
X165860000Y-126919000D01*
X164210000Y-126919000D01*
X164195297Y-126918278D01*
X164180736Y-126916118D01*
X164166457Y-126912541D01*
X164152597Y-126907582D01*
X164139290Y-126901288D01*
X164126664Y-126893720D01*
X164114841Y-126884952D01*
X164103934Y-126875066D01*
X164094048Y-126864159D01*
X164085280Y-126852336D01*
X164077712Y-126839710D01*
X164071418Y-126826403D01*
X164066459Y-126812543D01*
X164062882Y-126798264D01*
X164060722Y-126783703D01*
X164060000Y-126769000D01*
X164060000Y-126469000D01*
X164060722Y-126454297D01*
X164062882Y-126439736D01*
X164066459Y-126425457D01*
X164071418Y-126411597D01*
X164077712Y-126398290D01*
X164085280Y-126385664D01*
X164094048Y-126373841D01*
X164103934Y-126362934D01*
X164114841Y-126353048D01*
X164126664Y-126344280D01*
X164139290Y-126336712D01*
X164152597Y-126330418D01*
X164166457Y-126325459D01*
X164180736Y-126321882D01*
X164195297Y-126319722D01*
X164210000Y-126319000D01*
X165860000Y-126319000D01*
X165874703Y-126319722D01*
G37*
G36*
X165874703Y-127589722D02*
G01*
X165889264Y-127591882D01*
X165903543Y-127595459D01*
X165917403Y-127600418D01*
X165930710Y-127606712D01*
X165943336Y-127614280D01*
X165955159Y-127623048D01*
X165966066Y-127632934D01*
X165975952Y-127643841D01*
X165984720Y-127655664D01*
X165992288Y-127668290D01*
X165998582Y-127681597D01*
X166003541Y-127695457D01*
X166007118Y-127709736D01*
X166009278Y-127724297D01*
X166010000Y-127739000D01*
X166010000Y-128039000D01*
X166009278Y-128053703D01*
X166007118Y-128068264D01*
X166003541Y-128082543D01*
X165998582Y-128096403D01*
X165992288Y-128109710D01*
X165984720Y-128122336D01*
X165975952Y-128134159D01*
X165966066Y-128145066D01*
X165955159Y-128154952D01*
X165943336Y-128163720D01*
X165930710Y-128171288D01*
X165917403Y-128177582D01*
X165903543Y-128182541D01*
X165889264Y-128186118D01*
X165874703Y-128188278D01*
X165860000Y-128189000D01*
X164210000Y-128189000D01*
X164195297Y-128188278D01*
X164180736Y-128186118D01*
X164166457Y-128182541D01*
X164152597Y-128177582D01*
X164139290Y-128171288D01*
X164126664Y-128163720D01*
X164114841Y-128154952D01*
X164103934Y-128145066D01*
X164094048Y-128134159D01*
X164085280Y-128122336D01*
X164077712Y-128109710D01*
X164071418Y-128096403D01*
X164066459Y-128082543D01*
X164062882Y-128068264D01*
X164060722Y-128053703D01*
X164060000Y-128039000D01*
X164060000Y-127739000D01*
X164060722Y-127724297D01*
X164062882Y-127709736D01*
X164066459Y-127695457D01*
X164071418Y-127681597D01*
X164077712Y-127668290D01*
X164085280Y-127655664D01*
X164094048Y-127643841D01*
X164103934Y-127632934D01*
X164114841Y-127623048D01*
X164126664Y-127614280D01*
X164139290Y-127606712D01*
X164152597Y-127600418D01*
X164166457Y-127595459D01*
X164180736Y-127591882D01*
X164195297Y-127589722D01*
X164210000Y-127589000D01*
X165860000Y-127589000D01*
X165874703Y-127589722D01*
G37*
G36*
X160924703Y-127589722D02*
G01*
X160939264Y-127591882D01*
X160953543Y-127595459D01*
X160967403Y-127600418D01*
X160980710Y-127606712D01*
X160993336Y-127614280D01*
X161005159Y-127623048D01*
X161016066Y-127632934D01*
X161025952Y-127643841D01*
X161034720Y-127655664D01*
X161042288Y-127668290D01*
X161048582Y-127681597D01*
X161053541Y-127695457D01*
X161057118Y-127709736D01*
X161059278Y-127724297D01*
X161060000Y-127739000D01*
X161060000Y-128039000D01*
X161059278Y-128053703D01*
X161057118Y-128068264D01*
X161053541Y-128082543D01*
X161048582Y-128096403D01*
X161042288Y-128109710D01*
X161034720Y-128122336D01*
X161025952Y-128134159D01*
X161016066Y-128145066D01*
X161005159Y-128154952D01*
X160993336Y-128163720D01*
X160980710Y-128171288D01*
X160967403Y-128177582D01*
X160953543Y-128182541D01*
X160939264Y-128186118D01*
X160924703Y-128188278D01*
X160910000Y-128189000D01*
X159260000Y-128189000D01*
X159245297Y-128188278D01*
X159230736Y-128186118D01*
X159216457Y-128182541D01*
X159202597Y-128177582D01*
X159189290Y-128171288D01*
X159176664Y-128163720D01*
X159164841Y-128154952D01*
X159153934Y-128145066D01*
X159144048Y-128134159D01*
X159135280Y-128122336D01*
X159127712Y-128109710D01*
X159121418Y-128096403D01*
X159116459Y-128082543D01*
X159112882Y-128068264D01*
X159110722Y-128053703D01*
X159110000Y-128039000D01*
X159110000Y-127739000D01*
X159110722Y-127724297D01*
X159112882Y-127709736D01*
X159116459Y-127695457D01*
X159121418Y-127681597D01*
X159127712Y-127668290D01*
X159135280Y-127655664D01*
X159144048Y-127643841D01*
X159153934Y-127632934D01*
X159164841Y-127623048D01*
X159176664Y-127614280D01*
X159189290Y-127606712D01*
X159202597Y-127600418D01*
X159216457Y-127595459D01*
X159230736Y-127591882D01*
X159245297Y-127589722D01*
X159260000Y-127589000D01*
X160910000Y-127589000D01*
X160924703Y-127589722D01*
G37*
G36*
X160924703Y-126319722D02*
G01*
X160939264Y-126321882D01*
X160953543Y-126325459D01*
X160967403Y-126330418D01*
X160980710Y-126336712D01*
X160993336Y-126344280D01*
X161005159Y-126353048D01*
X161016066Y-126362934D01*
X161025952Y-126373841D01*
X161034720Y-126385664D01*
X161042288Y-126398290D01*
X161048582Y-126411597D01*
X161053541Y-126425457D01*
X161057118Y-126439736D01*
X161059278Y-126454297D01*
X161060000Y-126469000D01*
X161060000Y-126769000D01*
X161059278Y-126783703D01*
X161057118Y-126798264D01*
X161053541Y-126812543D01*
X161048582Y-126826403D01*
X161042288Y-126839710D01*
X161034720Y-126852336D01*
X161025952Y-126864159D01*
X161016066Y-126875066D01*
X161005159Y-126884952D01*
X160993336Y-126893720D01*
X160980710Y-126901288D01*
X160967403Y-126907582D01*
X160953543Y-126912541D01*
X160939264Y-126916118D01*
X160924703Y-126918278D01*
X160910000Y-126919000D01*
X159260000Y-126919000D01*
X159245297Y-126918278D01*
X159230736Y-126916118D01*
X159216457Y-126912541D01*
X159202597Y-126907582D01*
X159189290Y-126901288D01*
X159176664Y-126893720D01*
X159164841Y-126884952D01*
X159153934Y-126875066D01*
X159144048Y-126864159D01*
X159135280Y-126852336D01*
X159127712Y-126839710D01*
X159121418Y-126826403D01*
X159116459Y-126812543D01*
X159112882Y-126798264D01*
X159110722Y-126783703D01*
X159110000Y-126769000D01*
X159110000Y-126469000D01*
X159110722Y-126454297D01*
X159112882Y-126439736D01*
X159116459Y-126425457D01*
X159121418Y-126411597D01*
X159127712Y-126398290D01*
X159135280Y-126385664D01*
X159144048Y-126373841D01*
X159153934Y-126362934D01*
X159164841Y-126353048D01*
X159176664Y-126344280D01*
X159189290Y-126336712D01*
X159202597Y-126330418D01*
X159216457Y-126325459D01*
X159230736Y-126321882D01*
X159245297Y-126319722D01*
X159260000Y-126319000D01*
X160910000Y-126319000D01*
X160924703Y-126319722D01*
G37*
G36*
X160924703Y-125049722D02*
G01*
X160939264Y-125051882D01*
X160953543Y-125055459D01*
X160967403Y-125060418D01*
X160980710Y-125066712D01*
X160993336Y-125074280D01*
X161005159Y-125083048D01*
X161016066Y-125092934D01*
X161025952Y-125103841D01*
X161034720Y-125115664D01*
X161042288Y-125128290D01*
X161048582Y-125141597D01*
X161053541Y-125155457D01*
X161057118Y-125169736D01*
X161059278Y-125184297D01*
X161060000Y-125199000D01*
X161060000Y-125499000D01*
X161059278Y-125513703D01*
X161057118Y-125528264D01*
X161053541Y-125542543D01*
X161048582Y-125556403D01*
X161042288Y-125569710D01*
X161034720Y-125582336D01*
X161025952Y-125594159D01*
X161016066Y-125605066D01*
X161005159Y-125614952D01*
X160993336Y-125623720D01*
X160980710Y-125631288D01*
X160967403Y-125637582D01*
X160953543Y-125642541D01*
X160939264Y-125646118D01*
X160924703Y-125648278D01*
X160910000Y-125649000D01*
X159260000Y-125649000D01*
X159245297Y-125648278D01*
X159230736Y-125646118D01*
X159216457Y-125642541D01*
X159202597Y-125637582D01*
X159189290Y-125631288D01*
X159176664Y-125623720D01*
X159164841Y-125614952D01*
X159153934Y-125605066D01*
X159144048Y-125594159D01*
X159135280Y-125582336D01*
X159127712Y-125569710D01*
X159121418Y-125556403D01*
X159116459Y-125542543D01*
X159112882Y-125528264D01*
X159110722Y-125513703D01*
X159110000Y-125499000D01*
X159110000Y-125199000D01*
X159110722Y-125184297D01*
X159112882Y-125169736D01*
X159116459Y-125155457D01*
X159121418Y-125141597D01*
X159127712Y-125128290D01*
X159135280Y-125115664D01*
X159144048Y-125103841D01*
X159153934Y-125092934D01*
X159164841Y-125083048D01*
X159176664Y-125074280D01*
X159189290Y-125066712D01*
X159202597Y-125060418D01*
X159216457Y-125055459D01*
X159230736Y-125051882D01*
X159245297Y-125049722D01*
X159260000Y-125049000D01*
X160910000Y-125049000D01*
X160924703Y-125049722D01*
G37*
G36*
X160924703Y-123779722D02*
G01*
X160939264Y-123781882D01*
X160953543Y-123785459D01*
X160967403Y-123790418D01*
X160980710Y-123796712D01*
X160993336Y-123804280D01*
X161005159Y-123813048D01*
X161016066Y-123822934D01*
X161025952Y-123833841D01*
X161034720Y-123845664D01*
X161042288Y-123858290D01*
X161048582Y-123871597D01*
X161053541Y-123885457D01*
X161057118Y-123899736D01*
X161059278Y-123914297D01*
X161060000Y-123929000D01*
X161060000Y-124229000D01*
X161059278Y-124243703D01*
X161057118Y-124258264D01*
X161053541Y-124272543D01*
X161048582Y-124286403D01*
X161042288Y-124299710D01*
X161034720Y-124312336D01*
X161025952Y-124324159D01*
X161016066Y-124335066D01*
X161005159Y-124344952D01*
X160993336Y-124353720D01*
X160980710Y-124361288D01*
X160967403Y-124367582D01*
X160953543Y-124372541D01*
X160939264Y-124376118D01*
X160924703Y-124378278D01*
X160910000Y-124379000D01*
X159260000Y-124379000D01*
X159245297Y-124378278D01*
X159230736Y-124376118D01*
X159216457Y-124372541D01*
X159202597Y-124367582D01*
X159189290Y-124361288D01*
X159176664Y-124353720D01*
X159164841Y-124344952D01*
X159153934Y-124335066D01*
X159144048Y-124324159D01*
X159135280Y-124312336D01*
X159127712Y-124299710D01*
X159121418Y-124286403D01*
X159116459Y-124272543D01*
X159112882Y-124258264D01*
X159110722Y-124243703D01*
X159110000Y-124229000D01*
X159110000Y-123929000D01*
X159110722Y-123914297D01*
X159112882Y-123899736D01*
X159116459Y-123885457D01*
X159121418Y-123871597D01*
X159127712Y-123858290D01*
X159135280Y-123845664D01*
X159144048Y-123833841D01*
X159153934Y-123822934D01*
X159164841Y-123813048D01*
X159176664Y-123804280D01*
X159189290Y-123796712D01*
X159202597Y-123790418D01*
X159216457Y-123785459D01*
X159230736Y-123781882D01*
X159245297Y-123779722D01*
X159260000Y-123779000D01*
X160910000Y-123779000D01*
X160924703Y-123779722D01*
G37*
D11*
X130684000Y-129877000D03*
X127634000Y-126527000D03*
X127634000Y-129877000D03*
X130684000Y-126527000D03*
D12*
X131439000Y-134502000D03*
X126879000Y-134502000D03*
D10*
G36*
X158030779Y-125256144D02*
G01*
X158053834Y-125259563D01*
X158076443Y-125265227D01*
X158098387Y-125273079D01*
X158119457Y-125283044D01*
X158139448Y-125295026D01*
X158158168Y-125308910D01*
X158175438Y-125324562D01*
X158191090Y-125341832D01*
X158204974Y-125360552D01*
X158216956Y-125380543D01*
X158226921Y-125401613D01*
X158234773Y-125423557D01*
X158240437Y-125446166D01*
X158243856Y-125469221D01*
X158245000Y-125492500D01*
X158245000Y-125967500D01*
X158243856Y-125990779D01*
X158240437Y-126013834D01*
X158234773Y-126036443D01*
X158226921Y-126058387D01*
X158216956Y-126079457D01*
X158204974Y-126099448D01*
X158191090Y-126118168D01*
X158175438Y-126135438D01*
X158158168Y-126151090D01*
X158139448Y-126164974D01*
X158119457Y-126176956D01*
X158098387Y-126186921D01*
X158076443Y-126194773D01*
X158053834Y-126200437D01*
X158030779Y-126203856D01*
X158007500Y-126205000D01*
X157432500Y-126205000D01*
X157409221Y-126203856D01*
X157386166Y-126200437D01*
X157363557Y-126194773D01*
X157341613Y-126186921D01*
X157320543Y-126176956D01*
X157300552Y-126164974D01*
X157281832Y-126151090D01*
X157264562Y-126135438D01*
X157248910Y-126118168D01*
X157235026Y-126099448D01*
X157223044Y-126079457D01*
X157213079Y-126058387D01*
X157205227Y-126036443D01*
X157199563Y-126013834D01*
X157196144Y-125990779D01*
X157195000Y-125967500D01*
X157195000Y-125492500D01*
X157196144Y-125469221D01*
X157199563Y-125446166D01*
X157205227Y-125423557D01*
X157213079Y-125401613D01*
X157223044Y-125380543D01*
X157235026Y-125360552D01*
X157248910Y-125341832D01*
X157264562Y-125324562D01*
X157281832Y-125308910D01*
X157300552Y-125295026D01*
X157320543Y-125283044D01*
X157341613Y-125273079D01*
X157363557Y-125265227D01*
X157386166Y-125259563D01*
X157409221Y-125256144D01*
X157432500Y-125255000D01*
X158007500Y-125255000D01*
X158030779Y-125256144D01*
G37*
G36*
X156280779Y-125256144D02*
G01*
X156303834Y-125259563D01*
X156326443Y-125265227D01*
X156348387Y-125273079D01*
X156369457Y-125283044D01*
X156389448Y-125295026D01*
X156408168Y-125308910D01*
X156425438Y-125324562D01*
X156441090Y-125341832D01*
X156454974Y-125360552D01*
X156466956Y-125380543D01*
X156476921Y-125401613D01*
X156484773Y-125423557D01*
X156490437Y-125446166D01*
X156493856Y-125469221D01*
X156495000Y-125492500D01*
X156495000Y-125967500D01*
X156493856Y-125990779D01*
X156490437Y-126013834D01*
X156484773Y-126036443D01*
X156476921Y-126058387D01*
X156466956Y-126079457D01*
X156454974Y-126099448D01*
X156441090Y-126118168D01*
X156425438Y-126135438D01*
X156408168Y-126151090D01*
X156389448Y-126164974D01*
X156369457Y-126176956D01*
X156348387Y-126186921D01*
X156326443Y-126194773D01*
X156303834Y-126200437D01*
X156280779Y-126203856D01*
X156257500Y-126205000D01*
X155682500Y-126205000D01*
X155659221Y-126203856D01*
X155636166Y-126200437D01*
X155613557Y-126194773D01*
X155591613Y-126186921D01*
X155570543Y-126176956D01*
X155550552Y-126164974D01*
X155531832Y-126151090D01*
X155514562Y-126135438D01*
X155498910Y-126118168D01*
X155485026Y-126099448D01*
X155473044Y-126079457D01*
X155463079Y-126058387D01*
X155455227Y-126036443D01*
X155449563Y-126013834D01*
X155446144Y-125990779D01*
X155445000Y-125967500D01*
X155445000Y-125492500D01*
X155446144Y-125469221D01*
X155449563Y-125446166D01*
X155455227Y-125423557D01*
X155463079Y-125401613D01*
X155473044Y-125380543D01*
X155485026Y-125360552D01*
X155498910Y-125341832D01*
X155514562Y-125324562D01*
X155531832Y-125308910D01*
X155550552Y-125295026D01*
X155570543Y-125283044D01*
X155591613Y-125273079D01*
X155613557Y-125265227D01*
X155636166Y-125259563D01*
X155659221Y-125256144D01*
X155682500Y-125255000D01*
X156257500Y-125255000D01*
X156280779Y-125256144D01*
G37*
G36*
X154390111Y-125256144D02*
G01*
X154413166Y-125259563D01*
X154435775Y-125265227D01*
X154457719Y-125273079D01*
X154478789Y-125283044D01*
X154498780Y-125295026D01*
X154517500Y-125308910D01*
X154534770Y-125324562D01*
X154550422Y-125341832D01*
X154564306Y-125360552D01*
X154576288Y-125380543D01*
X154586253Y-125401613D01*
X154594105Y-125423557D01*
X154599769Y-125446166D01*
X154603188Y-125469221D01*
X154604332Y-125492500D01*
X154604332Y-125967500D01*
X154603188Y-125990779D01*
X154599769Y-126013834D01*
X154594105Y-126036443D01*
X154586253Y-126058387D01*
X154576288Y-126079457D01*
X154564306Y-126099448D01*
X154550422Y-126118168D01*
X154534770Y-126135438D01*
X154517500Y-126151090D01*
X154498780Y-126164974D01*
X154478789Y-126176956D01*
X154457719Y-126186921D01*
X154435775Y-126194773D01*
X154413166Y-126200437D01*
X154390111Y-126203856D01*
X154366832Y-126205000D01*
X153791832Y-126205000D01*
X153768553Y-126203856D01*
X153745498Y-126200437D01*
X153722889Y-126194773D01*
X153700945Y-126186921D01*
X153679875Y-126176956D01*
X153659884Y-126164974D01*
X153641164Y-126151090D01*
X153623894Y-126135438D01*
X153608242Y-126118168D01*
X153594358Y-126099448D01*
X153582376Y-126079457D01*
X153572411Y-126058387D01*
X153564559Y-126036443D01*
X153558895Y-126013834D01*
X153555476Y-125990779D01*
X153554332Y-125967500D01*
X153554332Y-125492500D01*
X153555476Y-125469221D01*
X153558895Y-125446166D01*
X153564559Y-125423557D01*
X153572411Y-125401613D01*
X153582376Y-125380543D01*
X153594358Y-125360552D01*
X153608242Y-125341832D01*
X153623894Y-125324562D01*
X153641164Y-125308910D01*
X153659884Y-125295026D01*
X153679875Y-125283044D01*
X153700945Y-125273079D01*
X153722889Y-125265227D01*
X153745498Y-125259563D01*
X153768553Y-125256144D01*
X153791832Y-125255000D01*
X154366832Y-125255000D01*
X154390111Y-125256144D01*
G37*
G36*
X152640111Y-125256144D02*
G01*
X152663166Y-125259563D01*
X152685775Y-125265227D01*
X152707719Y-125273079D01*
X152728789Y-125283044D01*
X152748780Y-125295026D01*
X152767500Y-125308910D01*
X152784770Y-125324562D01*
X152800422Y-125341832D01*
X152814306Y-125360552D01*
X152826288Y-125380543D01*
X152836253Y-125401613D01*
X152844105Y-125423557D01*
X152849769Y-125446166D01*
X152853188Y-125469221D01*
X152854332Y-125492500D01*
X152854332Y-125967500D01*
X152853188Y-125990779D01*
X152849769Y-126013834D01*
X152844105Y-126036443D01*
X152836253Y-126058387D01*
X152826288Y-126079457D01*
X152814306Y-126099448D01*
X152800422Y-126118168D01*
X152784770Y-126135438D01*
X152767500Y-126151090D01*
X152748780Y-126164974D01*
X152728789Y-126176956D01*
X152707719Y-126186921D01*
X152685775Y-126194773D01*
X152663166Y-126200437D01*
X152640111Y-126203856D01*
X152616832Y-126205000D01*
X152041832Y-126205000D01*
X152018553Y-126203856D01*
X151995498Y-126200437D01*
X151972889Y-126194773D01*
X151950945Y-126186921D01*
X151929875Y-126176956D01*
X151909884Y-126164974D01*
X151891164Y-126151090D01*
X151873894Y-126135438D01*
X151858242Y-126118168D01*
X151844358Y-126099448D01*
X151832376Y-126079457D01*
X151822411Y-126058387D01*
X151814559Y-126036443D01*
X151808895Y-126013834D01*
X151805476Y-125990779D01*
X151804332Y-125967500D01*
X151804332Y-125492500D01*
X151805476Y-125469221D01*
X151808895Y-125446166D01*
X151814559Y-125423557D01*
X151822411Y-125401613D01*
X151832376Y-125380543D01*
X151844358Y-125360552D01*
X151858242Y-125341832D01*
X151873894Y-125324562D01*
X151891164Y-125308910D01*
X151909884Y-125295026D01*
X151929875Y-125283044D01*
X151950945Y-125273079D01*
X151972889Y-125265227D01*
X151995498Y-125259563D01*
X152018553Y-125256144D01*
X152041832Y-125255000D01*
X152616832Y-125255000D01*
X152640111Y-125256144D01*
G37*
G36*
X156280779Y-119922144D02*
G01*
X156303834Y-119925563D01*
X156326443Y-119931227D01*
X156348387Y-119939079D01*
X156369457Y-119949044D01*
X156389448Y-119961026D01*
X156408168Y-119974910D01*
X156425438Y-119990562D01*
X156441090Y-120007832D01*
X156454974Y-120026552D01*
X156466956Y-120046543D01*
X156476921Y-120067613D01*
X156484773Y-120089557D01*
X156490437Y-120112166D01*
X156493856Y-120135221D01*
X156495000Y-120158500D01*
X156495000Y-120633500D01*
X156493856Y-120656779D01*
X156490437Y-120679834D01*
X156484773Y-120702443D01*
X156476921Y-120724387D01*
X156466956Y-120745457D01*
X156454974Y-120765448D01*
X156441090Y-120784168D01*
X156425438Y-120801438D01*
X156408168Y-120817090D01*
X156389448Y-120830974D01*
X156369457Y-120842956D01*
X156348387Y-120852921D01*
X156326443Y-120860773D01*
X156303834Y-120866437D01*
X156280779Y-120869856D01*
X156257500Y-120871000D01*
X155682500Y-120871000D01*
X155659221Y-120869856D01*
X155636166Y-120866437D01*
X155613557Y-120860773D01*
X155591613Y-120852921D01*
X155570543Y-120842956D01*
X155550552Y-120830974D01*
X155531832Y-120817090D01*
X155514562Y-120801438D01*
X155498910Y-120784168D01*
X155485026Y-120765448D01*
X155473044Y-120745457D01*
X155463079Y-120724387D01*
X155455227Y-120702443D01*
X155449563Y-120679834D01*
X155446144Y-120656779D01*
X155445000Y-120633500D01*
X155445000Y-120158500D01*
X155446144Y-120135221D01*
X155449563Y-120112166D01*
X155455227Y-120089557D01*
X155463079Y-120067613D01*
X155473044Y-120046543D01*
X155485026Y-120026552D01*
X155498910Y-120007832D01*
X155514562Y-119990562D01*
X155531832Y-119974910D01*
X155550552Y-119961026D01*
X155570543Y-119949044D01*
X155591613Y-119939079D01*
X155613557Y-119931227D01*
X155636166Y-119925563D01*
X155659221Y-119922144D01*
X155682500Y-119921000D01*
X156257500Y-119921000D01*
X156280779Y-119922144D01*
G37*
G36*
X158030779Y-119922144D02*
G01*
X158053834Y-119925563D01*
X158076443Y-119931227D01*
X158098387Y-119939079D01*
X158119457Y-119949044D01*
X158139448Y-119961026D01*
X158158168Y-119974910D01*
X158175438Y-119990562D01*
X158191090Y-120007832D01*
X158204974Y-120026552D01*
X158216956Y-120046543D01*
X158226921Y-120067613D01*
X158234773Y-120089557D01*
X158240437Y-120112166D01*
X158243856Y-120135221D01*
X158245000Y-120158500D01*
X158245000Y-120633500D01*
X158243856Y-120656779D01*
X158240437Y-120679834D01*
X158234773Y-120702443D01*
X158226921Y-120724387D01*
X158216956Y-120745457D01*
X158204974Y-120765448D01*
X158191090Y-120784168D01*
X158175438Y-120801438D01*
X158158168Y-120817090D01*
X158139448Y-120830974D01*
X158119457Y-120842956D01*
X158098387Y-120852921D01*
X158076443Y-120860773D01*
X158053834Y-120866437D01*
X158030779Y-120869856D01*
X158007500Y-120871000D01*
X157432500Y-120871000D01*
X157409221Y-120869856D01*
X157386166Y-120866437D01*
X157363557Y-120860773D01*
X157341613Y-120852921D01*
X157320543Y-120842956D01*
X157300552Y-120830974D01*
X157281832Y-120817090D01*
X157264562Y-120801438D01*
X157248910Y-120784168D01*
X157235026Y-120765448D01*
X157223044Y-120745457D01*
X157213079Y-120724387D01*
X157205227Y-120702443D01*
X157199563Y-120679834D01*
X157196144Y-120656779D01*
X157195000Y-120633500D01*
X157195000Y-120158500D01*
X157196144Y-120135221D01*
X157199563Y-120112166D01*
X157205227Y-120089557D01*
X157213079Y-120067613D01*
X157223044Y-120046543D01*
X157235026Y-120026552D01*
X157248910Y-120007832D01*
X157264562Y-119990562D01*
X157281832Y-119974910D01*
X157300552Y-119961026D01*
X157320543Y-119949044D01*
X157341613Y-119939079D01*
X157363557Y-119931227D01*
X157386166Y-119925563D01*
X157409221Y-119922144D01*
X157432500Y-119921000D01*
X158007500Y-119921000D01*
X158030779Y-119922144D01*
G37*
G36*
X152640111Y-119922144D02*
G01*
X152663166Y-119925563D01*
X152685775Y-119931227D01*
X152707719Y-119939079D01*
X152728789Y-119949044D01*
X152748780Y-119961026D01*
X152767500Y-119974910D01*
X152784770Y-119990562D01*
X152800422Y-120007832D01*
X152814306Y-120026552D01*
X152826288Y-120046543D01*
X152836253Y-120067613D01*
X152844105Y-120089557D01*
X152849769Y-120112166D01*
X152853188Y-120135221D01*
X152854332Y-120158500D01*
X152854332Y-120633500D01*
X152853188Y-120656779D01*
X152849769Y-120679834D01*
X152844105Y-120702443D01*
X152836253Y-120724387D01*
X152826288Y-120745457D01*
X152814306Y-120765448D01*
X152800422Y-120784168D01*
X152784770Y-120801438D01*
X152767500Y-120817090D01*
X152748780Y-120830974D01*
X152728789Y-120842956D01*
X152707719Y-120852921D01*
X152685775Y-120860773D01*
X152663166Y-120866437D01*
X152640111Y-120869856D01*
X152616832Y-120871000D01*
X152041832Y-120871000D01*
X152018553Y-120869856D01*
X151995498Y-120866437D01*
X151972889Y-120860773D01*
X151950945Y-120852921D01*
X151929875Y-120842956D01*
X151909884Y-120830974D01*
X151891164Y-120817090D01*
X151873894Y-120801438D01*
X151858242Y-120784168D01*
X151844358Y-120765448D01*
X151832376Y-120745457D01*
X151822411Y-120724387D01*
X151814559Y-120702443D01*
X151808895Y-120679834D01*
X151805476Y-120656779D01*
X151804332Y-120633500D01*
X151804332Y-120158500D01*
X151805476Y-120135221D01*
X151808895Y-120112166D01*
X151814559Y-120089557D01*
X151822411Y-120067613D01*
X151832376Y-120046543D01*
X151844358Y-120026552D01*
X151858242Y-120007832D01*
X151873894Y-119990562D01*
X151891164Y-119974910D01*
X151909884Y-119961026D01*
X151929875Y-119949044D01*
X151950945Y-119939079D01*
X151972889Y-119931227D01*
X151995498Y-119925563D01*
X152018553Y-119922144D01*
X152041832Y-119921000D01*
X152616832Y-119921000D01*
X152640111Y-119922144D01*
G37*
G36*
X154390111Y-119922144D02*
G01*
X154413166Y-119925563D01*
X154435775Y-119931227D01*
X154457719Y-119939079D01*
X154478789Y-119949044D01*
X154498780Y-119961026D01*
X154517500Y-119974910D01*
X154534770Y-119990562D01*
X154550422Y-120007832D01*
X154564306Y-120026552D01*
X154576288Y-120046543D01*
X154586253Y-120067613D01*
X154594105Y-120089557D01*
X154599769Y-120112166D01*
X154603188Y-120135221D01*
X154604332Y-120158500D01*
X154604332Y-120633500D01*
X154603188Y-120656779D01*
X154599769Y-120679834D01*
X154594105Y-120702443D01*
X154586253Y-120724387D01*
X154576288Y-120745457D01*
X154564306Y-120765448D01*
X154550422Y-120784168D01*
X154534770Y-120801438D01*
X154517500Y-120817090D01*
X154498780Y-120830974D01*
X154478789Y-120842956D01*
X154457719Y-120852921D01*
X154435775Y-120860773D01*
X154413166Y-120866437D01*
X154390111Y-120869856D01*
X154366832Y-120871000D01*
X153791832Y-120871000D01*
X153768553Y-120869856D01*
X153745498Y-120866437D01*
X153722889Y-120860773D01*
X153700945Y-120852921D01*
X153679875Y-120842956D01*
X153659884Y-120830974D01*
X153641164Y-120817090D01*
X153623894Y-120801438D01*
X153608242Y-120784168D01*
X153594358Y-120765448D01*
X153582376Y-120745457D01*
X153572411Y-120724387D01*
X153564559Y-120702443D01*
X153558895Y-120679834D01*
X153555476Y-120656779D01*
X153554332Y-120633500D01*
X153554332Y-120158500D01*
X153555476Y-120135221D01*
X153558895Y-120112166D01*
X153564559Y-120089557D01*
X153572411Y-120067613D01*
X153582376Y-120046543D01*
X153594358Y-120026552D01*
X153608242Y-120007832D01*
X153623894Y-119990562D01*
X153641164Y-119974910D01*
X153659884Y-119961026D01*
X153679875Y-119949044D01*
X153700945Y-119939079D01*
X153722889Y-119931227D01*
X153745498Y-119925563D01*
X153768553Y-119922144D01*
X153791832Y-119921000D01*
X154366832Y-119921000D01*
X154390111Y-119922144D01*
G37*
G36*
X150749445Y-125256144D02*
G01*
X150772500Y-125259563D01*
X150795109Y-125265227D01*
X150817053Y-125273079D01*
X150838123Y-125283044D01*
X150858114Y-125295026D01*
X150876834Y-125308910D01*
X150894104Y-125324562D01*
X150909756Y-125341832D01*
X150923640Y-125360552D01*
X150935622Y-125380543D01*
X150945587Y-125401613D01*
X150953439Y-125423557D01*
X150959103Y-125446166D01*
X150962522Y-125469221D01*
X150963666Y-125492500D01*
X150963666Y-125967500D01*
X150962522Y-125990779D01*
X150959103Y-126013834D01*
X150953439Y-126036443D01*
X150945587Y-126058387D01*
X150935622Y-126079457D01*
X150923640Y-126099448D01*
X150909756Y-126118168D01*
X150894104Y-126135438D01*
X150876834Y-126151090D01*
X150858114Y-126164974D01*
X150838123Y-126176956D01*
X150817053Y-126186921D01*
X150795109Y-126194773D01*
X150772500Y-126200437D01*
X150749445Y-126203856D01*
X150726166Y-126205000D01*
X150151166Y-126205000D01*
X150127887Y-126203856D01*
X150104832Y-126200437D01*
X150082223Y-126194773D01*
X150060279Y-126186921D01*
X150039209Y-126176956D01*
X150019218Y-126164974D01*
X150000498Y-126151090D01*
X149983228Y-126135438D01*
X149967576Y-126118168D01*
X149953692Y-126099448D01*
X149941710Y-126079457D01*
X149931745Y-126058387D01*
X149923893Y-126036443D01*
X149918229Y-126013834D01*
X149914810Y-125990779D01*
X149913666Y-125967500D01*
X149913666Y-125492500D01*
X149914810Y-125469221D01*
X149918229Y-125446166D01*
X149923893Y-125423557D01*
X149931745Y-125401613D01*
X149941710Y-125380543D01*
X149953692Y-125360552D01*
X149967576Y-125341832D01*
X149983228Y-125324562D01*
X150000498Y-125308910D01*
X150019218Y-125295026D01*
X150039209Y-125283044D01*
X150060279Y-125273079D01*
X150082223Y-125265227D01*
X150104832Y-125259563D01*
X150127887Y-125256144D01*
X150151166Y-125255000D01*
X150726166Y-125255000D01*
X150749445Y-125256144D01*
G37*
G36*
X148999445Y-125256144D02*
G01*
X149022500Y-125259563D01*
X149045109Y-125265227D01*
X149067053Y-125273079D01*
X149088123Y-125283044D01*
X149108114Y-125295026D01*
X149126834Y-125308910D01*
X149144104Y-125324562D01*
X149159756Y-125341832D01*
X149173640Y-125360552D01*
X149185622Y-125380543D01*
X149195587Y-125401613D01*
X149203439Y-125423557D01*
X149209103Y-125446166D01*
X149212522Y-125469221D01*
X149213666Y-125492500D01*
X149213666Y-125967500D01*
X149212522Y-125990779D01*
X149209103Y-126013834D01*
X149203439Y-126036443D01*
X149195587Y-126058387D01*
X149185622Y-126079457D01*
X149173640Y-126099448D01*
X149159756Y-126118168D01*
X149144104Y-126135438D01*
X149126834Y-126151090D01*
X149108114Y-126164974D01*
X149088123Y-126176956D01*
X149067053Y-126186921D01*
X149045109Y-126194773D01*
X149022500Y-126200437D01*
X148999445Y-126203856D01*
X148976166Y-126205000D01*
X148401166Y-126205000D01*
X148377887Y-126203856D01*
X148354832Y-126200437D01*
X148332223Y-126194773D01*
X148310279Y-126186921D01*
X148289209Y-126176956D01*
X148269218Y-126164974D01*
X148250498Y-126151090D01*
X148233228Y-126135438D01*
X148217576Y-126118168D01*
X148203692Y-126099448D01*
X148191710Y-126079457D01*
X148181745Y-126058387D01*
X148173893Y-126036443D01*
X148168229Y-126013834D01*
X148164810Y-125990779D01*
X148163666Y-125967500D01*
X148163666Y-125492500D01*
X148164810Y-125469221D01*
X148168229Y-125446166D01*
X148173893Y-125423557D01*
X148181745Y-125401613D01*
X148191710Y-125380543D01*
X148203692Y-125360552D01*
X148217576Y-125341832D01*
X148233228Y-125324562D01*
X148250498Y-125308910D01*
X148269218Y-125295026D01*
X148289209Y-125283044D01*
X148310279Y-125273079D01*
X148332223Y-125265227D01*
X148354832Y-125259563D01*
X148377887Y-125256144D01*
X148401166Y-125255000D01*
X148976166Y-125255000D01*
X148999445Y-125256144D01*
G37*
G36*
X147108779Y-125256144D02*
G01*
X147131834Y-125259563D01*
X147154443Y-125265227D01*
X147176387Y-125273079D01*
X147197457Y-125283044D01*
X147217448Y-125295026D01*
X147236168Y-125308910D01*
X147253438Y-125324562D01*
X147269090Y-125341832D01*
X147282974Y-125360552D01*
X147294956Y-125380543D01*
X147304921Y-125401613D01*
X147312773Y-125423557D01*
X147318437Y-125446166D01*
X147321856Y-125469221D01*
X147323000Y-125492500D01*
X147323000Y-125967500D01*
X147321856Y-125990779D01*
X147318437Y-126013834D01*
X147312773Y-126036443D01*
X147304921Y-126058387D01*
X147294956Y-126079457D01*
X147282974Y-126099448D01*
X147269090Y-126118168D01*
X147253438Y-126135438D01*
X147236168Y-126151090D01*
X147217448Y-126164974D01*
X147197457Y-126176956D01*
X147176387Y-126186921D01*
X147154443Y-126194773D01*
X147131834Y-126200437D01*
X147108779Y-126203856D01*
X147085500Y-126205000D01*
X146510500Y-126205000D01*
X146487221Y-126203856D01*
X146464166Y-126200437D01*
X146441557Y-126194773D01*
X146419613Y-126186921D01*
X146398543Y-126176956D01*
X146378552Y-126164974D01*
X146359832Y-126151090D01*
X146342562Y-126135438D01*
X146326910Y-126118168D01*
X146313026Y-126099448D01*
X146301044Y-126079457D01*
X146291079Y-126058387D01*
X146283227Y-126036443D01*
X146277563Y-126013834D01*
X146274144Y-125990779D01*
X146273000Y-125967500D01*
X146273000Y-125492500D01*
X146274144Y-125469221D01*
X146277563Y-125446166D01*
X146283227Y-125423557D01*
X146291079Y-125401613D01*
X146301044Y-125380543D01*
X146313026Y-125360552D01*
X146326910Y-125341832D01*
X146342562Y-125324562D01*
X146359832Y-125308910D01*
X146378552Y-125295026D01*
X146398543Y-125283044D01*
X146419613Y-125273079D01*
X146441557Y-125265227D01*
X146464166Y-125259563D01*
X146487221Y-125256144D01*
X146510500Y-125255000D01*
X147085500Y-125255000D01*
X147108779Y-125256144D01*
G37*
G36*
X145358779Y-125256144D02*
G01*
X145381834Y-125259563D01*
X145404443Y-125265227D01*
X145426387Y-125273079D01*
X145447457Y-125283044D01*
X145467448Y-125295026D01*
X145486168Y-125308910D01*
X145503438Y-125324562D01*
X145519090Y-125341832D01*
X145532974Y-125360552D01*
X145544956Y-125380543D01*
X145554921Y-125401613D01*
X145562773Y-125423557D01*
X145568437Y-125446166D01*
X145571856Y-125469221D01*
X145573000Y-125492500D01*
X145573000Y-125967500D01*
X145571856Y-125990779D01*
X145568437Y-126013834D01*
X145562773Y-126036443D01*
X145554921Y-126058387D01*
X145544956Y-126079457D01*
X145532974Y-126099448D01*
X145519090Y-126118168D01*
X145503438Y-126135438D01*
X145486168Y-126151090D01*
X145467448Y-126164974D01*
X145447457Y-126176956D01*
X145426387Y-126186921D01*
X145404443Y-126194773D01*
X145381834Y-126200437D01*
X145358779Y-126203856D01*
X145335500Y-126205000D01*
X144760500Y-126205000D01*
X144737221Y-126203856D01*
X144714166Y-126200437D01*
X144691557Y-126194773D01*
X144669613Y-126186921D01*
X144648543Y-126176956D01*
X144628552Y-126164974D01*
X144609832Y-126151090D01*
X144592562Y-126135438D01*
X144576910Y-126118168D01*
X144563026Y-126099448D01*
X144551044Y-126079457D01*
X144541079Y-126058387D01*
X144533227Y-126036443D01*
X144527563Y-126013834D01*
X144524144Y-125990779D01*
X144523000Y-125967500D01*
X144523000Y-125492500D01*
X144524144Y-125469221D01*
X144527563Y-125446166D01*
X144533227Y-125423557D01*
X144541079Y-125401613D01*
X144551044Y-125380543D01*
X144563026Y-125360552D01*
X144576910Y-125341832D01*
X144592562Y-125324562D01*
X144609832Y-125308910D01*
X144628552Y-125295026D01*
X144648543Y-125283044D01*
X144669613Y-125273079D01*
X144691557Y-125265227D01*
X144714166Y-125259563D01*
X144737221Y-125256144D01*
X144760500Y-125255000D01*
X145335500Y-125255000D01*
X145358779Y-125256144D01*
G37*
G36*
X148999445Y-119922144D02*
G01*
X149022500Y-119925563D01*
X149045109Y-119931227D01*
X149067053Y-119939079D01*
X149088123Y-119949044D01*
X149108114Y-119961026D01*
X149126834Y-119974910D01*
X149144104Y-119990562D01*
X149159756Y-120007832D01*
X149173640Y-120026552D01*
X149185622Y-120046543D01*
X149195587Y-120067613D01*
X149203439Y-120089557D01*
X149209103Y-120112166D01*
X149212522Y-120135221D01*
X149213666Y-120158500D01*
X149213666Y-120633500D01*
X149212522Y-120656779D01*
X149209103Y-120679834D01*
X149203439Y-120702443D01*
X149195587Y-120724387D01*
X149185622Y-120745457D01*
X149173640Y-120765448D01*
X149159756Y-120784168D01*
X149144104Y-120801438D01*
X149126834Y-120817090D01*
X149108114Y-120830974D01*
X149088123Y-120842956D01*
X149067053Y-120852921D01*
X149045109Y-120860773D01*
X149022500Y-120866437D01*
X148999445Y-120869856D01*
X148976166Y-120871000D01*
X148401166Y-120871000D01*
X148377887Y-120869856D01*
X148354832Y-120866437D01*
X148332223Y-120860773D01*
X148310279Y-120852921D01*
X148289209Y-120842956D01*
X148269218Y-120830974D01*
X148250498Y-120817090D01*
X148233228Y-120801438D01*
X148217576Y-120784168D01*
X148203692Y-120765448D01*
X148191710Y-120745457D01*
X148181745Y-120724387D01*
X148173893Y-120702443D01*
X148168229Y-120679834D01*
X148164810Y-120656779D01*
X148163666Y-120633500D01*
X148163666Y-120158500D01*
X148164810Y-120135221D01*
X148168229Y-120112166D01*
X148173893Y-120089557D01*
X148181745Y-120067613D01*
X148191710Y-120046543D01*
X148203692Y-120026552D01*
X148217576Y-120007832D01*
X148233228Y-119990562D01*
X148250498Y-119974910D01*
X148269218Y-119961026D01*
X148289209Y-119949044D01*
X148310279Y-119939079D01*
X148332223Y-119931227D01*
X148354832Y-119925563D01*
X148377887Y-119922144D01*
X148401166Y-119921000D01*
X148976166Y-119921000D01*
X148999445Y-119922144D01*
G37*
G36*
X150749445Y-119922144D02*
G01*
X150772500Y-119925563D01*
X150795109Y-119931227D01*
X150817053Y-119939079D01*
X150838123Y-119949044D01*
X150858114Y-119961026D01*
X150876834Y-119974910D01*
X150894104Y-119990562D01*
X150909756Y-120007832D01*
X150923640Y-120026552D01*
X150935622Y-120046543D01*
X150945587Y-120067613D01*
X150953439Y-120089557D01*
X150959103Y-120112166D01*
X150962522Y-120135221D01*
X150963666Y-120158500D01*
X150963666Y-120633500D01*
X150962522Y-120656779D01*
X150959103Y-120679834D01*
X150953439Y-120702443D01*
X150945587Y-120724387D01*
X150935622Y-120745457D01*
X150923640Y-120765448D01*
X150909756Y-120784168D01*
X150894104Y-120801438D01*
X150876834Y-120817090D01*
X150858114Y-120830974D01*
X150838123Y-120842956D01*
X150817053Y-120852921D01*
X150795109Y-120860773D01*
X150772500Y-120866437D01*
X150749445Y-120869856D01*
X150726166Y-120871000D01*
X150151166Y-120871000D01*
X150127887Y-120869856D01*
X150104832Y-120866437D01*
X150082223Y-120860773D01*
X150060279Y-120852921D01*
X150039209Y-120842956D01*
X150019218Y-120830974D01*
X150000498Y-120817090D01*
X149983228Y-120801438D01*
X149967576Y-120784168D01*
X149953692Y-120765448D01*
X149941710Y-120745457D01*
X149931745Y-120724387D01*
X149923893Y-120702443D01*
X149918229Y-120679834D01*
X149914810Y-120656779D01*
X149913666Y-120633500D01*
X149913666Y-120158500D01*
X149914810Y-120135221D01*
X149918229Y-120112166D01*
X149923893Y-120089557D01*
X149931745Y-120067613D01*
X149941710Y-120046543D01*
X149953692Y-120026552D01*
X149967576Y-120007832D01*
X149983228Y-119990562D01*
X150000498Y-119974910D01*
X150019218Y-119961026D01*
X150039209Y-119949044D01*
X150060279Y-119939079D01*
X150082223Y-119931227D01*
X150104832Y-119925563D01*
X150127887Y-119922144D01*
X150151166Y-119921000D01*
X150726166Y-119921000D01*
X150749445Y-119922144D01*
G37*
G36*
X145358779Y-119922144D02*
G01*
X145381834Y-119925563D01*
X145404443Y-119931227D01*
X145426387Y-119939079D01*
X145447457Y-119949044D01*
X145467448Y-119961026D01*
X145486168Y-119974910D01*
X145503438Y-119990562D01*
X145519090Y-120007832D01*
X145532974Y-120026552D01*
X145544956Y-120046543D01*
X145554921Y-120067613D01*
X145562773Y-120089557D01*
X145568437Y-120112166D01*
X145571856Y-120135221D01*
X145573000Y-120158500D01*
X145573000Y-120633500D01*
X145571856Y-120656779D01*
X145568437Y-120679834D01*
X145562773Y-120702443D01*
X145554921Y-120724387D01*
X145544956Y-120745457D01*
X145532974Y-120765448D01*
X145519090Y-120784168D01*
X145503438Y-120801438D01*
X145486168Y-120817090D01*
X145467448Y-120830974D01*
X145447457Y-120842956D01*
X145426387Y-120852921D01*
X145404443Y-120860773D01*
X145381834Y-120866437D01*
X145358779Y-120869856D01*
X145335500Y-120871000D01*
X144760500Y-120871000D01*
X144737221Y-120869856D01*
X144714166Y-120866437D01*
X144691557Y-120860773D01*
X144669613Y-120852921D01*
X144648543Y-120842956D01*
X144628552Y-120830974D01*
X144609832Y-120817090D01*
X144592562Y-120801438D01*
X144576910Y-120784168D01*
X144563026Y-120765448D01*
X144551044Y-120745457D01*
X144541079Y-120724387D01*
X144533227Y-120702443D01*
X144527563Y-120679834D01*
X144524144Y-120656779D01*
X144523000Y-120633500D01*
X144523000Y-120158500D01*
X144524144Y-120135221D01*
X144527563Y-120112166D01*
X144533227Y-120089557D01*
X144541079Y-120067613D01*
X144551044Y-120046543D01*
X144563026Y-120026552D01*
X144576910Y-120007832D01*
X144592562Y-119990562D01*
X144609832Y-119974910D01*
X144628552Y-119961026D01*
X144648543Y-119949044D01*
X144669613Y-119939079D01*
X144691557Y-119931227D01*
X144714166Y-119925563D01*
X144737221Y-119922144D01*
X144760500Y-119921000D01*
X145335500Y-119921000D01*
X145358779Y-119922144D01*
G37*
G36*
X147108779Y-119922144D02*
G01*
X147131834Y-119925563D01*
X147154443Y-119931227D01*
X147176387Y-119939079D01*
X147197457Y-119949044D01*
X147217448Y-119961026D01*
X147236168Y-119974910D01*
X147253438Y-119990562D01*
X147269090Y-120007832D01*
X147282974Y-120026552D01*
X147294956Y-120046543D01*
X147304921Y-120067613D01*
X147312773Y-120089557D01*
X147318437Y-120112166D01*
X147321856Y-120135221D01*
X147323000Y-120158500D01*
X147323000Y-120633500D01*
X147321856Y-120656779D01*
X147318437Y-120679834D01*
X147312773Y-120702443D01*
X147304921Y-120724387D01*
X147294956Y-120745457D01*
X147282974Y-120765448D01*
X147269090Y-120784168D01*
X147253438Y-120801438D01*
X147236168Y-120817090D01*
X147217448Y-120830974D01*
X147197457Y-120842956D01*
X147176387Y-120852921D01*
X147154443Y-120860773D01*
X147131834Y-120866437D01*
X147108779Y-120869856D01*
X147085500Y-120871000D01*
X146510500Y-120871000D01*
X146487221Y-120869856D01*
X146464166Y-120866437D01*
X146441557Y-120860773D01*
X146419613Y-120852921D01*
X146398543Y-120842956D01*
X146378552Y-120830974D01*
X146359832Y-120817090D01*
X146342562Y-120801438D01*
X146326910Y-120784168D01*
X146313026Y-120765448D01*
X146301044Y-120745457D01*
X146291079Y-120724387D01*
X146283227Y-120702443D01*
X146277563Y-120679834D01*
X146274144Y-120656779D01*
X146273000Y-120633500D01*
X146273000Y-120158500D01*
X146274144Y-120135221D01*
X146277563Y-120112166D01*
X146283227Y-120089557D01*
X146291079Y-120067613D01*
X146301044Y-120046543D01*
X146313026Y-120026552D01*
X146326910Y-120007832D01*
X146342562Y-119990562D01*
X146359832Y-119974910D01*
X146378552Y-119961026D01*
X146398543Y-119949044D01*
X146419613Y-119939079D01*
X146441557Y-119931227D01*
X146464166Y-119925563D01*
X146487221Y-119922144D01*
X146510500Y-119921000D01*
X147085500Y-119921000D01*
X147108779Y-119922144D01*
G37*
G36*
X167392779Y-126335144D02*
G01*
X167415834Y-126338563D01*
X167438443Y-126344227D01*
X167460387Y-126352079D01*
X167481457Y-126362044D01*
X167501448Y-126374026D01*
X167520168Y-126387910D01*
X167537438Y-126403562D01*
X167553090Y-126420832D01*
X167566974Y-126439552D01*
X167578956Y-126459543D01*
X167588921Y-126480613D01*
X167596773Y-126502557D01*
X167602437Y-126525166D01*
X167605856Y-126548221D01*
X167607000Y-126571500D01*
X167607000Y-127146500D01*
X167605856Y-127169779D01*
X167602437Y-127192834D01*
X167596773Y-127215443D01*
X167588921Y-127237387D01*
X167578956Y-127258457D01*
X167566974Y-127278448D01*
X167553090Y-127297168D01*
X167537438Y-127314438D01*
X167520168Y-127330090D01*
X167501448Y-127343974D01*
X167481457Y-127355956D01*
X167460387Y-127365921D01*
X167438443Y-127373773D01*
X167415834Y-127379437D01*
X167392779Y-127382856D01*
X167369500Y-127384000D01*
X166894500Y-127384000D01*
X166871221Y-127382856D01*
X166848166Y-127379437D01*
X166825557Y-127373773D01*
X166803613Y-127365921D01*
X166782543Y-127355956D01*
X166762552Y-127343974D01*
X166743832Y-127330090D01*
X166726562Y-127314438D01*
X166710910Y-127297168D01*
X166697026Y-127278448D01*
X166685044Y-127258457D01*
X166675079Y-127237387D01*
X166667227Y-127215443D01*
X166661563Y-127192834D01*
X166658144Y-127169779D01*
X166657000Y-127146500D01*
X166657000Y-126571500D01*
X166658144Y-126548221D01*
X166661563Y-126525166D01*
X166667227Y-126502557D01*
X166675079Y-126480613D01*
X166685044Y-126459543D01*
X166697026Y-126439552D01*
X166710910Y-126420832D01*
X166726562Y-126403562D01*
X166743832Y-126387910D01*
X166762552Y-126374026D01*
X166782543Y-126362044D01*
X166803613Y-126352079D01*
X166825557Y-126344227D01*
X166848166Y-126338563D01*
X166871221Y-126335144D01*
X166894500Y-126334000D01*
X167369500Y-126334000D01*
X167392779Y-126335144D01*
G37*
G36*
X167392779Y-124585144D02*
G01*
X167415834Y-124588563D01*
X167438443Y-124594227D01*
X167460387Y-124602079D01*
X167481457Y-124612044D01*
X167501448Y-124624026D01*
X167520168Y-124637910D01*
X167537438Y-124653562D01*
X167553090Y-124670832D01*
X167566974Y-124689552D01*
X167578956Y-124709543D01*
X167588921Y-124730613D01*
X167596773Y-124752557D01*
X167602437Y-124775166D01*
X167605856Y-124798221D01*
X167607000Y-124821500D01*
X167607000Y-125396500D01*
X167605856Y-125419779D01*
X167602437Y-125442834D01*
X167596773Y-125465443D01*
X167588921Y-125487387D01*
X167578956Y-125508457D01*
X167566974Y-125528448D01*
X167553090Y-125547168D01*
X167537438Y-125564438D01*
X167520168Y-125580090D01*
X167501448Y-125593974D01*
X167481457Y-125605956D01*
X167460387Y-125615921D01*
X167438443Y-125623773D01*
X167415834Y-125629437D01*
X167392779Y-125632856D01*
X167369500Y-125634000D01*
X166894500Y-125634000D01*
X166871221Y-125632856D01*
X166848166Y-125629437D01*
X166825557Y-125623773D01*
X166803613Y-125615921D01*
X166782543Y-125605956D01*
X166762552Y-125593974D01*
X166743832Y-125580090D01*
X166726562Y-125564438D01*
X166710910Y-125547168D01*
X166697026Y-125528448D01*
X166685044Y-125508457D01*
X166675079Y-125487387D01*
X166667227Y-125465443D01*
X166661563Y-125442834D01*
X166658144Y-125419779D01*
X166657000Y-125396500D01*
X166657000Y-124821500D01*
X166658144Y-124798221D01*
X166661563Y-124775166D01*
X166667227Y-124752557D01*
X166675079Y-124730613D01*
X166685044Y-124709543D01*
X166697026Y-124689552D01*
X166710910Y-124670832D01*
X166726562Y-124653562D01*
X166743832Y-124637910D01*
X166762552Y-124624026D01*
X166782543Y-124612044D01*
X166803613Y-124602079D01*
X166825557Y-124594227D01*
X166848166Y-124588563D01*
X166871221Y-124585144D01*
X166894500Y-124584000D01*
X167369500Y-124584000D01*
X167392779Y-124585144D01*
G37*
G36*
X167392779Y-135479144D02*
G01*
X167415834Y-135482563D01*
X167438443Y-135488227D01*
X167460387Y-135496079D01*
X167481457Y-135506044D01*
X167501448Y-135518026D01*
X167520168Y-135531910D01*
X167537438Y-135547562D01*
X167553090Y-135564832D01*
X167566974Y-135583552D01*
X167578956Y-135603543D01*
X167588921Y-135624613D01*
X167596773Y-135646557D01*
X167602437Y-135669166D01*
X167605856Y-135692221D01*
X167607000Y-135715500D01*
X167607000Y-136290500D01*
X167605856Y-136313779D01*
X167602437Y-136336834D01*
X167596773Y-136359443D01*
X167588921Y-136381387D01*
X167578956Y-136402457D01*
X167566974Y-136422448D01*
X167553090Y-136441168D01*
X167537438Y-136458438D01*
X167520168Y-136474090D01*
X167501448Y-136487974D01*
X167481457Y-136499956D01*
X167460387Y-136509921D01*
X167438443Y-136517773D01*
X167415834Y-136523437D01*
X167392779Y-136526856D01*
X167369500Y-136528000D01*
X166894500Y-136528000D01*
X166871221Y-136526856D01*
X166848166Y-136523437D01*
X166825557Y-136517773D01*
X166803613Y-136509921D01*
X166782543Y-136499956D01*
X166762552Y-136487974D01*
X166743832Y-136474090D01*
X166726562Y-136458438D01*
X166710910Y-136441168D01*
X166697026Y-136422448D01*
X166685044Y-136402457D01*
X166675079Y-136381387D01*
X166667227Y-136359443D01*
X166661563Y-136336834D01*
X166658144Y-136313779D01*
X166657000Y-136290500D01*
X166657000Y-135715500D01*
X166658144Y-135692221D01*
X166661563Y-135669166D01*
X166667227Y-135646557D01*
X166675079Y-135624613D01*
X166685044Y-135603543D01*
X166697026Y-135583552D01*
X166710910Y-135564832D01*
X166726562Y-135547562D01*
X166743832Y-135531910D01*
X166762552Y-135518026D01*
X166782543Y-135506044D01*
X166803613Y-135496079D01*
X166825557Y-135488227D01*
X166848166Y-135482563D01*
X166871221Y-135479144D01*
X166894500Y-135478000D01*
X167369500Y-135478000D01*
X167392779Y-135479144D01*
G37*
G36*
X167392779Y-133729144D02*
G01*
X167415834Y-133732563D01*
X167438443Y-133738227D01*
X167460387Y-133746079D01*
X167481457Y-133756044D01*
X167501448Y-133768026D01*
X167520168Y-133781910D01*
X167537438Y-133797562D01*
X167553090Y-133814832D01*
X167566974Y-133833552D01*
X167578956Y-133853543D01*
X167588921Y-133874613D01*
X167596773Y-133896557D01*
X167602437Y-133919166D01*
X167605856Y-133942221D01*
X167607000Y-133965500D01*
X167607000Y-134540500D01*
X167605856Y-134563779D01*
X167602437Y-134586834D01*
X167596773Y-134609443D01*
X167588921Y-134631387D01*
X167578956Y-134652457D01*
X167566974Y-134672448D01*
X167553090Y-134691168D01*
X167537438Y-134708438D01*
X167520168Y-134724090D01*
X167501448Y-134737974D01*
X167481457Y-134749956D01*
X167460387Y-134759921D01*
X167438443Y-134767773D01*
X167415834Y-134773437D01*
X167392779Y-134776856D01*
X167369500Y-134778000D01*
X166894500Y-134778000D01*
X166871221Y-134776856D01*
X166848166Y-134773437D01*
X166825557Y-134767773D01*
X166803613Y-134759921D01*
X166782543Y-134749956D01*
X166762552Y-134737974D01*
X166743832Y-134724090D01*
X166726562Y-134708438D01*
X166710910Y-134691168D01*
X166697026Y-134672448D01*
X166685044Y-134652457D01*
X166675079Y-134631387D01*
X166667227Y-134609443D01*
X166661563Y-134586834D01*
X166658144Y-134563779D01*
X166657000Y-134540500D01*
X166657000Y-133965500D01*
X166658144Y-133942221D01*
X166661563Y-133919166D01*
X166667227Y-133896557D01*
X166675079Y-133874613D01*
X166685044Y-133853543D01*
X166697026Y-133833552D01*
X166710910Y-133814832D01*
X166726562Y-133797562D01*
X166743832Y-133781910D01*
X166762552Y-133768026D01*
X166782543Y-133756044D01*
X166803613Y-133746079D01*
X166825557Y-133738227D01*
X166848166Y-133732563D01*
X166871221Y-133729144D01*
X166894500Y-133728000D01*
X167369500Y-133728000D01*
X167392779Y-133729144D01*
G37*
G36*
X124375779Y-117001144D02*
G01*
X124398834Y-117004563D01*
X124421443Y-117010227D01*
X124443387Y-117018079D01*
X124464457Y-117028044D01*
X124484448Y-117040026D01*
X124503168Y-117053910D01*
X124520438Y-117069562D01*
X124536090Y-117086832D01*
X124549974Y-117105552D01*
X124561956Y-117125543D01*
X124571921Y-117146613D01*
X124579773Y-117168557D01*
X124585437Y-117191166D01*
X124588856Y-117214221D01*
X124590000Y-117237500D01*
X124590000Y-117712500D01*
X124588856Y-117735779D01*
X124585437Y-117758834D01*
X124579773Y-117781443D01*
X124571921Y-117803387D01*
X124561956Y-117824457D01*
X124549974Y-117844448D01*
X124536090Y-117863168D01*
X124520438Y-117880438D01*
X124503168Y-117896090D01*
X124484448Y-117909974D01*
X124464457Y-117921956D01*
X124443387Y-117931921D01*
X124421443Y-117939773D01*
X124398834Y-117945437D01*
X124375779Y-117948856D01*
X124352500Y-117950000D01*
X123777500Y-117950000D01*
X123754221Y-117948856D01*
X123731166Y-117945437D01*
X123708557Y-117939773D01*
X123686613Y-117931921D01*
X123665543Y-117921956D01*
X123645552Y-117909974D01*
X123626832Y-117896090D01*
X123609562Y-117880438D01*
X123593910Y-117863168D01*
X123580026Y-117844448D01*
X123568044Y-117824457D01*
X123558079Y-117803387D01*
X123550227Y-117781443D01*
X123544563Y-117758834D01*
X123541144Y-117735779D01*
X123540000Y-117712500D01*
X123540000Y-117237500D01*
X123541144Y-117214221D01*
X123544563Y-117191166D01*
X123550227Y-117168557D01*
X123558079Y-117146613D01*
X123568044Y-117125543D01*
X123580026Y-117105552D01*
X123593910Y-117086832D01*
X123609562Y-117069562D01*
X123626832Y-117053910D01*
X123645552Y-117040026D01*
X123665543Y-117028044D01*
X123686613Y-117018079D01*
X123708557Y-117010227D01*
X123731166Y-117004563D01*
X123754221Y-117001144D01*
X123777500Y-117000000D01*
X124352500Y-117000000D01*
X124375779Y-117001144D01*
G37*
G36*
X122625779Y-117001144D02*
G01*
X122648834Y-117004563D01*
X122671443Y-117010227D01*
X122693387Y-117018079D01*
X122714457Y-117028044D01*
X122734448Y-117040026D01*
X122753168Y-117053910D01*
X122770438Y-117069562D01*
X122786090Y-117086832D01*
X122799974Y-117105552D01*
X122811956Y-117125543D01*
X122821921Y-117146613D01*
X122829773Y-117168557D01*
X122835437Y-117191166D01*
X122838856Y-117214221D01*
X122840000Y-117237500D01*
X122840000Y-117712500D01*
X122838856Y-117735779D01*
X122835437Y-117758834D01*
X122829773Y-117781443D01*
X122821921Y-117803387D01*
X122811956Y-117824457D01*
X122799974Y-117844448D01*
X122786090Y-117863168D01*
X122770438Y-117880438D01*
X122753168Y-117896090D01*
X122734448Y-117909974D01*
X122714457Y-117921956D01*
X122693387Y-117931921D01*
X122671443Y-117939773D01*
X122648834Y-117945437D01*
X122625779Y-117948856D01*
X122602500Y-117950000D01*
X122027500Y-117950000D01*
X122004221Y-117948856D01*
X121981166Y-117945437D01*
X121958557Y-117939773D01*
X121936613Y-117931921D01*
X121915543Y-117921956D01*
X121895552Y-117909974D01*
X121876832Y-117896090D01*
X121859562Y-117880438D01*
X121843910Y-117863168D01*
X121830026Y-117844448D01*
X121818044Y-117824457D01*
X121808079Y-117803387D01*
X121800227Y-117781443D01*
X121794563Y-117758834D01*
X121791144Y-117735779D01*
X121790000Y-117712500D01*
X121790000Y-117237500D01*
X121791144Y-117214221D01*
X121794563Y-117191166D01*
X121800227Y-117168557D01*
X121808079Y-117146613D01*
X121818044Y-117125543D01*
X121830026Y-117105552D01*
X121843910Y-117086832D01*
X121859562Y-117069562D01*
X121876832Y-117053910D01*
X121895552Y-117040026D01*
X121915543Y-117028044D01*
X121936613Y-117018079D01*
X121958557Y-117010227D01*
X121981166Y-117004563D01*
X122004221Y-117001144D01*
X122027500Y-117000000D01*
X122602500Y-117000000D01*
X122625779Y-117001144D01*
G37*
G36*
X123450779Y-126984144D02*
G01*
X123473834Y-126987563D01*
X123496443Y-126993227D01*
X123518387Y-127001079D01*
X123539457Y-127011044D01*
X123559448Y-127023026D01*
X123578168Y-127036910D01*
X123595438Y-127052562D01*
X123611090Y-127069832D01*
X123624974Y-127088552D01*
X123636956Y-127108543D01*
X123646921Y-127129613D01*
X123654773Y-127151557D01*
X123660437Y-127174166D01*
X123663856Y-127197221D01*
X123665000Y-127220500D01*
X123665000Y-127795500D01*
X123663856Y-127818779D01*
X123660437Y-127841834D01*
X123654773Y-127864443D01*
X123646921Y-127886387D01*
X123636956Y-127907457D01*
X123624974Y-127927448D01*
X123611090Y-127946168D01*
X123595438Y-127963438D01*
X123578168Y-127979090D01*
X123559448Y-127992974D01*
X123539457Y-128004956D01*
X123518387Y-128014921D01*
X123496443Y-128022773D01*
X123473834Y-128028437D01*
X123450779Y-128031856D01*
X123427500Y-128033000D01*
X122952500Y-128033000D01*
X122929221Y-128031856D01*
X122906166Y-128028437D01*
X122883557Y-128022773D01*
X122861613Y-128014921D01*
X122840543Y-128004956D01*
X122820552Y-127992974D01*
X122801832Y-127979090D01*
X122784562Y-127963438D01*
X122768910Y-127946168D01*
X122755026Y-127927448D01*
X122743044Y-127907457D01*
X122733079Y-127886387D01*
X122725227Y-127864443D01*
X122719563Y-127841834D01*
X122716144Y-127818779D01*
X122715000Y-127795500D01*
X122715000Y-127220500D01*
X122716144Y-127197221D01*
X122719563Y-127174166D01*
X122725227Y-127151557D01*
X122733079Y-127129613D01*
X122743044Y-127108543D01*
X122755026Y-127088552D01*
X122768910Y-127069832D01*
X122784562Y-127052562D01*
X122801832Y-127036910D01*
X122820552Y-127023026D01*
X122840543Y-127011044D01*
X122861613Y-127001079D01*
X122883557Y-126993227D01*
X122906166Y-126987563D01*
X122929221Y-126984144D01*
X122952500Y-126983000D01*
X123427500Y-126983000D01*
X123450779Y-126984144D01*
G37*
G36*
X123450779Y-128734144D02*
G01*
X123473834Y-128737563D01*
X123496443Y-128743227D01*
X123518387Y-128751079D01*
X123539457Y-128761044D01*
X123559448Y-128773026D01*
X123578168Y-128786910D01*
X123595438Y-128802562D01*
X123611090Y-128819832D01*
X123624974Y-128838552D01*
X123636956Y-128858543D01*
X123646921Y-128879613D01*
X123654773Y-128901557D01*
X123660437Y-128924166D01*
X123663856Y-128947221D01*
X123665000Y-128970500D01*
X123665000Y-129545500D01*
X123663856Y-129568779D01*
X123660437Y-129591834D01*
X123654773Y-129614443D01*
X123646921Y-129636387D01*
X123636956Y-129657457D01*
X123624974Y-129677448D01*
X123611090Y-129696168D01*
X123595438Y-129713438D01*
X123578168Y-129729090D01*
X123559448Y-129742974D01*
X123539457Y-129754956D01*
X123518387Y-129764921D01*
X123496443Y-129772773D01*
X123473834Y-129778437D01*
X123450779Y-129781856D01*
X123427500Y-129783000D01*
X122952500Y-129783000D01*
X122929221Y-129781856D01*
X122906166Y-129778437D01*
X122883557Y-129772773D01*
X122861613Y-129764921D01*
X122840543Y-129754956D01*
X122820552Y-129742974D01*
X122801832Y-129729090D01*
X122784562Y-129713438D01*
X122768910Y-129696168D01*
X122755026Y-129677448D01*
X122743044Y-129657457D01*
X122733079Y-129636387D01*
X122725227Y-129614443D01*
X122719563Y-129591834D01*
X122716144Y-129568779D01*
X122715000Y-129545500D01*
X122715000Y-128970500D01*
X122716144Y-128947221D01*
X122719563Y-128924166D01*
X122725227Y-128901557D01*
X122733079Y-128879613D01*
X122743044Y-128858543D01*
X122755026Y-128838552D01*
X122768910Y-128819832D01*
X122784562Y-128802562D01*
X122801832Y-128786910D01*
X122820552Y-128773026D01*
X122840543Y-128761044D01*
X122861613Y-128751079D01*
X122883557Y-128743227D01*
X122906166Y-128737563D01*
X122929221Y-128734144D01*
X122952500Y-128733000D01*
X123427500Y-128733000D01*
X123450779Y-128734144D01*
G37*
D13*
X156718000Y-124063000D03*
X155768000Y-122063000D03*
X157668000Y-122063000D03*
X153162000Y-124063000D03*
X152212000Y-122063000D03*
X154112000Y-122063000D03*
X149606000Y-124063000D03*
X148656000Y-122063000D03*
X150556000Y-122063000D03*
X146050000Y-124063000D03*
X145100000Y-122063000D03*
X147000000Y-122063000D03*
D14*
X120015000Y-134271000D03*
X120015000Y-138271000D03*
D10*
G36*
X129138004Y-121317704D02*
G01*
X129162273Y-121321304D01*
X129186071Y-121327265D01*
X129209171Y-121335530D01*
X129231349Y-121346020D01*
X129252393Y-121358633D01*
X129272098Y-121373247D01*
X129290277Y-121389723D01*
X129306753Y-121407902D01*
X129321367Y-121427607D01*
X129333980Y-121448651D01*
X129344470Y-121470829D01*
X129352735Y-121493929D01*
X129358696Y-121517727D01*
X129362296Y-121541996D01*
X129363500Y-121566500D01*
X129363500Y-123416500D01*
X129362296Y-123441004D01*
X129358696Y-123465273D01*
X129352735Y-123489071D01*
X129344470Y-123512171D01*
X129333980Y-123534349D01*
X129321367Y-123555393D01*
X129306753Y-123575098D01*
X129290277Y-123593277D01*
X129272098Y-123609753D01*
X129252393Y-123624367D01*
X129231349Y-123636980D01*
X129209171Y-123647470D01*
X129186071Y-123655735D01*
X129162273Y-123661696D01*
X129138004Y-123665296D01*
X129113500Y-123666500D01*
X128113500Y-123666500D01*
X128088996Y-123665296D01*
X128064727Y-123661696D01*
X128040929Y-123655735D01*
X128017829Y-123647470D01*
X127995651Y-123636980D01*
X127974607Y-123624367D01*
X127954902Y-123609753D01*
X127936723Y-123593277D01*
X127920247Y-123575098D01*
X127905633Y-123555393D01*
X127893020Y-123534349D01*
X127882530Y-123512171D01*
X127874265Y-123489071D01*
X127868304Y-123465273D01*
X127864704Y-123441004D01*
X127863500Y-123416500D01*
X127863500Y-121566500D01*
X127864704Y-121541996D01*
X127868304Y-121517727D01*
X127874265Y-121493929D01*
X127882530Y-121470829D01*
X127893020Y-121448651D01*
X127905633Y-121427607D01*
X127920247Y-121407902D01*
X127936723Y-121389723D01*
X127954902Y-121373247D01*
X127974607Y-121358633D01*
X127995651Y-121346020D01*
X128017829Y-121335530D01*
X128040929Y-121327265D01*
X128064727Y-121321304D01*
X128088996Y-121317704D01*
X128113500Y-121316500D01*
X129113500Y-121316500D01*
X129138004Y-121317704D01*
G37*
G36*
X132388004Y-121317704D02*
G01*
X132412273Y-121321304D01*
X132436071Y-121327265D01*
X132459171Y-121335530D01*
X132481349Y-121346020D01*
X132502393Y-121358633D01*
X132522098Y-121373247D01*
X132540277Y-121389723D01*
X132556753Y-121407902D01*
X132571367Y-121427607D01*
X132583980Y-121448651D01*
X132594470Y-121470829D01*
X132602735Y-121493929D01*
X132608696Y-121517727D01*
X132612296Y-121541996D01*
X132613500Y-121566500D01*
X132613500Y-123416500D01*
X132612296Y-123441004D01*
X132608696Y-123465273D01*
X132602735Y-123489071D01*
X132594470Y-123512171D01*
X132583980Y-123534349D01*
X132571367Y-123555393D01*
X132556753Y-123575098D01*
X132540277Y-123593277D01*
X132522098Y-123609753D01*
X132502393Y-123624367D01*
X132481349Y-123636980D01*
X132459171Y-123647470D01*
X132436071Y-123655735D01*
X132412273Y-123661696D01*
X132388004Y-123665296D01*
X132363500Y-123666500D01*
X131363500Y-123666500D01*
X131338996Y-123665296D01*
X131314727Y-123661696D01*
X131290929Y-123655735D01*
X131267829Y-123647470D01*
X131245651Y-123636980D01*
X131224607Y-123624367D01*
X131204902Y-123609753D01*
X131186723Y-123593277D01*
X131170247Y-123575098D01*
X131155633Y-123555393D01*
X131143020Y-123534349D01*
X131132530Y-123512171D01*
X131124265Y-123489071D01*
X131118304Y-123465273D01*
X131114704Y-123441004D01*
X131113500Y-123416500D01*
X131113500Y-121566500D01*
X131114704Y-121541996D01*
X131118304Y-121517727D01*
X131124265Y-121493929D01*
X131132530Y-121470829D01*
X131143020Y-121448651D01*
X131155633Y-121427607D01*
X131170247Y-121407902D01*
X131186723Y-121389723D01*
X131204902Y-121373247D01*
X131224607Y-121358633D01*
X131245651Y-121346020D01*
X131267829Y-121335530D01*
X131290929Y-121327265D01*
X131314727Y-121321304D01*
X131338996Y-121317704D01*
X131363500Y-121316500D01*
X132363500Y-121316500D01*
X132388004Y-121317704D01*
G37*
G36*
X126625779Y-123160144D02*
G01*
X126648834Y-123163563D01*
X126671443Y-123169227D01*
X126693387Y-123177079D01*
X126714457Y-123187044D01*
X126734448Y-123199026D01*
X126753168Y-123212910D01*
X126770438Y-123228562D01*
X126786090Y-123245832D01*
X126799974Y-123264552D01*
X126811956Y-123284543D01*
X126821921Y-123305613D01*
X126829773Y-123327557D01*
X126835437Y-123350166D01*
X126838856Y-123373221D01*
X126840000Y-123396500D01*
X126840000Y-123971500D01*
X126838856Y-123994779D01*
X126835437Y-124017834D01*
X126829773Y-124040443D01*
X126821921Y-124062387D01*
X126811956Y-124083457D01*
X126799974Y-124103448D01*
X126786090Y-124122168D01*
X126770438Y-124139438D01*
X126753168Y-124155090D01*
X126734448Y-124168974D01*
X126714457Y-124180956D01*
X126693387Y-124190921D01*
X126671443Y-124198773D01*
X126648834Y-124204437D01*
X126625779Y-124207856D01*
X126602500Y-124209000D01*
X126127500Y-124209000D01*
X126104221Y-124207856D01*
X126081166Y-124204437D01*
X126058557Y-124198773D01*
X126036613Y-124190921D01*
X126015543Y-124180956D01*
X125995552Y-124168974D01*
X125976832Y-124155090D01*
X125959562Y-124139438D01*
X125943910Y-124122168D01*
X125930026Y-124103448D01*
X125918044Y-124083457D01*
X125908079Y-124062387D01*
X125900227Y-124040443D01*
X125894563Y-124017834D01*
X125891144Y-123994779D01*
X125890000Y-123971500D01*
X125890000Y-123396500D01*
X125891144Y-123373221D01*
X125894563Y-123350166D01*
X125900227Y-123327557D01*
X125908079Y-123305613D01*
X125918044Y-123284543D01*
X125930026Y-123264552D01*
X125943910Y-123245832D01*
X125959562Y-123228562D01*
X125976832Y-123212910D01*
X125995552Y-123199026D01*
X126015543Y-123187044D01*
X126036613Y-123177079D01*
X126058557Y-123169227D01*
X126081166Y-123163563D01*
X126104221Y-123160144D01*
X126127500Y-123159000D01*
X126602500Y-123159000D01*
X126625779Y-123160144D01*
G37*
G36*
X126625779Y-121410144D02*
G01*
X126648834Y-121413563D01*
X126671443Y-121419227D01*
X126693387Y-121427079D01*
X126714457Y-121437044D01*
X126734448Y-121449026D01*
X126753168Y-121462910D01*
X126770438Y-121478562D01*
X126786090Y-121495832D01*
X126799974Y-121514552D01*
X126811956Y-121534543D01*
X126821921Y-121555613D01*
X126829773Y-121577557D01*
X126835437Y-121600166D01*
X126838856Y-121623221D01*
X126840000Y-121646500D01*
X126840000Y-122221500D01*
X126838856Y-122244779D01*
X126835437Y-122267834D01*
X126829773Y-122290443D01*
X126821921Y-122312387D01*
X126811956Y-122333457D01*
X126799974Y-122353448D01*
X126786090Y-122372168D01*
X126770438Y-122389438D01*
X126753168Y-122405090D01*
X126734448Y-122418974D01*
X126714457Y-122430956D01*
X126693387Y-122440921D01*
X126671443Y-122448773D01*
X126648834Y-122454437D01*
X126625779Y-122457856D01*
X126602500Y-122459000D01*
X126127500Y-122459000D01*
X126104221Y-122457856D01*
X126081166Y-122454437D01*
X126058557Y-122448773D01*
X126036613Y-122440921D01*
X126015543Y-122430956D01*
X125995552Y-122418974D01*
X125976832Y-122405090D01*
X125959562Y-122389438D01*
X125943910Y-122372168D01*
X125930026Y-122353448D01*
X125918044Y-122333457D01*
X125908079Y-122312387D01*
X125900227Y-122290443D01*
X125894563Y-122267834D01*
X125891144Y-122244779D01*
X125890000Y-122221500D01*
X125890000Y-121646500D01*
X125891144Y-121623221D01*
X125894563Y-121600166D01*
X125900227Y-121577557D01*
X125908079Y-121555613D01*
X125918044Y-121534543D01*
X125930026Y-121514552D01*
X125943910Y-121495832D01*
X125959562Y-121478562D01*
X125976832Y-121462910D01*
X125995552Y-121449026D01*
X126015543Y-121437044D01*
X126036613Y-121427079D01*
X126058557Y-121419227D01*
X126081166Y-121413563D01*
X126104221Y-121410144D01*
X126127500Y-121409000D01*
X126602500Y-121409000D01*
X126625779Y-121410144D01*
G37*
G36*
X163618779Y-121700144D02*
G01*
X163641834Y-121703563D01*
X163664443Y-121709227D01*
X163686387Y-121717079D01*
X163707457Y-121727044D01*
X163727448Y-121739026D01*
X163746168Y-121752910D01*
X163763438Y-121768562D01*
X163779090Y-121785832D01*
X163792974Y-121804552D01*
X163804956Y-121824543D01*
X163814921Y-121845613D01*
X163822773Y-121867557D01*
X163828437Y-121890166D01*
X163831856Y-121913221D01*
X163833000Y-121936500D01*
X163833000Y-122411500D01*
X163831856Y-122434779D01*
X163828437Y-122457834D01*
X163822773Y-122480443D01*
X163814921Y-122502387D01*
X163804956Y-122523457D01*
X163792974Y-122543448D01*
X163779090Y-122562168D01*
X163763438Y-122579438D01*
X163746168Y-122595090D01*
X163727448Y-122608974D01*
X163707457Y-122620956D01*
X163686387Y-122630921D01*
X163664443Y-122638773D01*
X163641834Y-122644437D01*
X163618779Y-122647856D01*
X163595500Y-122649000D01*
X163020500Y-122649000D01*
X162997221Y-122647856D01*
X162974166Y-122644437D01*
X162951557Y-122638773D01*
X162929613Y-122630921D01*
X162908543Y-122620956D01*
X162888552Y-122608974D01*
X162869832Y-122595090D01*
X162852562Y-122579438D01*
X162836910Y-122562168D01*
X162823026Y-122543448D01*
X162811044Y-122523457D01*
X162801079Y-122502387D01*
X162793227Y-122480443D01*
X162787563Y-122457834D01*
X162784144Y-122434779D01*
X162783000Y-122411500D01*
X162783000Y-121936500D01*
X162784144Y-121913221D01*
X162787563Y-121890166D01*
X162793227Y-121867557D01*
X162801079Y-121845613D01*
X162811044Y-121824543D01*
X162823026Y-121804552D01*
X162836910Y-121785832D01*
X162852562Y-121768562D01*
X162869832Y-121752910D01*
X162888552Y-121739026D01*
X162908543Y-121727044D01*
X162929613Y-121717079D01*
X162951557Y-121709227D01*
X162974166Y-121703563D01*
X162997221Y-121700144D01*
X163020500Y-121699000D01*
X163595500Y-121699000D01*
X163618779Y-121700144D01*
G37*
G36*
X161868779Y-121700144D02*
G01*
X161891834Y-121703563D01*
X161914443Y-121709227D01*
X161936387Y-121717079D01*
X161957457Y-121727044D01*
X161977448Y-121739026D01*
X161996168Y-121752910D01*
X162013438Y-121768562D01*
X162029090Y-121785832D01*
X162042974Y-121804552D01*
X162054956Y-121824543D01*
X162064921Y-121845613D01*
X162072773Y-121867557D01*
X162078437Y-121890166D01*
X162081856Y-121913221D01*
X162083000Y-121936500D01*
X162083000Y-122411500D01*
X162081856Y-122434779D01*
X162078437Y-122457834D01*
X162072773Y-122480443D01*
X162064921Y-122502387D01*
X162054956Y-122523457D01*
X162042974Y-122543448D01*
X162029090Y-122562168D01*
X162013438Y-122579438D01*
X161996168Y-122595090D01*
X161977448Y-122608974D01*
X161957457Y-122620956D01*
X161936387Y-122630921D01*
X161914443Y-122638773D01*
X161891834Y-122644437D01*
X161868779Y-122647856D01*
X161845500Y-122649000D01*
X161270500Y-122649000D01*
X161247221Y-122647856D01*
X161224166Y-122644437D01*
X161201557Y-122638773D01*
X161179613Y-122630921D01*
X161158543Y-122620956D01*
X161138552Y-122608974D01*
X161119832Y-122595090D01*
X161102562Y-122579438D01*
X161086910Y-122562168D01*
X161073026Y-122543448D01*
X161061044Y-122523457D01*
X161051079Y-122502387D01*
X161043227Y-122480443D01*
X161037563Y-122457834D01*
X161034144Y-122434779D01*
X161033000Y-122411500D01*
X161033000Y-121936500D01*
X161034144Y-121913221D01*
X161037563Y-121890166D01*
X161043227Y-121867557D01*
X161051079Y-121845613D01*
X161061044Y-121824543D01*
X161073026Y-121804552D01*
X161086910Y-121785832D01*
X161102562Y-121768562D01*
X161119832Y-121752910D01*
X161138552Y-121739026D01*
X161158543Y-121727044D01*
X161179613Y-121717079D01*
X161201557Y-121709227D01*
X161224166Y-121703563D01*
X161247221Y-121700144D01*
X161270500Y-121699000D01*
X161845500Y-121699000D01*
X161868779Y-121700144D01*
G37*
G36*
X123006779Y-140496144D02*
G01*
X123029834Y-140499563D01*
X123052443Y-140505227D01*
X123074387Y-140513079D01*
X123095457Y-140523044D01*
X123115448Y-140535026D01*
X123134168Y-140548910D01*
X123151438Y-140564562D01*
X123167090Y-140581832D01*
X123180974Y-140600552D01*
X123192956Y-140620543D01*
X123202921Y-140641613D01*
X123210773Y-140663557D01*
X123216437Y-140686166D01*
X123219856Y-140709221D01*
X123221000Y-140732500D01*
X123221000Y-141207500D01*
X123219856Y-141230779D01*
X123216437Y-141253834D01*
X123210773Y-141276443D01*
X123202921Y-141298387D01*
X123192956Y-141319457D01*
X123180974Y-141339448D01*
X123167090Y-141358168D01*
X123151438Y-141375438D01*
X123134168Y-141391090D01*
X123115448Y-141404974D01*
X123095457Y-141416956D01*
X123074387Y-141426921D01*
X123052443Y-141434773D01*
X123029834Y-141440437D01*
X123006779Y-141443856D01*
X122983500Y-141445000D01*
X122408500Y-141445000D01*
X122385221Y-141443856D01*
X122362166Y-141440437D01*
X122339557Y-141434773D01*
X122317613Y-141426921D01*
X122296543Y-141416956D01*
X122276552Y-141404974D01*
X122257832Y-141391090D01*
X122240562Y-141375438D01*
X122224910Y-141358168D01*
X122211026Y-141339448D01*
X122199044Y-141319457D01*
X122189079Y-141298387D01*
X122181227Y-141276443D01*
X122175563Y-141253834D01*
X122172144Y-141230779D01*
X122171000Y-141207500D01*
X122171000Y-140732500D01*
X122172144Y-140709221D01*
X122175563Y-140686166D01*
X122181227Y-140663557D01*
X122189079Y-140641613D01*
X122199044Y-140620543D01*
X122211026Y-140600552D01*
X122224910Y-140581832D01*
X122240562Y-140564562D01*
X122257832Y-140548910D01*
X122276552Y-140535026D01*
X122296543Y-140523044D01*
X122317613Y-140513079D01*
X122339557Y-140505227D01*
X122362166Y-140499563D01*
X122385221Y-140496144D01*
X122408500Y-140495000D01*
X122983500Y-140495000D01*
X123006779Y-140496144D01*
G37*
G36*
X124756779Y-140496144D02*
G01*
X124779834Y-140499563D01*
X124802443Y-140505227D01*
X124824387Y-140513079D01*
X124845457Y-140523044D01*
X124865448Y-140535026D01*
X124884168Y-140548910D01*
X124901438Y-140564562D01*
X124917090Y-140581832D01*
X124930974Y-140600552D01*
X124942956Y-140620543D01*
X124952921Y-140641613D01*
X124960773Y-140663557D01*
X124966437Y-140686166D01*
X124969856Y-140709221D01*
X124971000Y-140732500D01*
X124971000Y-141207500D01*
X124969856Y-141230779D01*
X124966437Y-141253834D01*
X124960773Y-141276443D01*
X124952921Y-141298387D01*
X124942956Y-141319457D01*
X124930974Y-141339448D01*
X124917090Y-141358168D01*
X124901438Y-141375438D01*
X124884168Y-141391090D01*
X124865448Y-141404974D01*
X124845457Y-141416956D01*
X124824387Y-141426921D01*
X124802443Y-141434773D01*
X124779834Y-141440437D01*
X124756779Y-141443856D01*
X124733500Y-141445000D01*
X124158500Y-141445000D01*
X124135221Y-141443856D01*
X124112166Y-141440437D01*
X124089557Y-141434773D01*
X124067613Y-141426921D01*
X124046543Y-141416956D01*
X124026552Y-141404974D01*
X124007832Y-141391090D01*
X123990562Y-141375438D01*
X123974910Y-141358168D01*
X123961026Y-141339448D01*
X123949044Y-141319457D01*
X123939079Y-141298387D01*
X123931227Y-141276443D01*
X123925563Y-141253834D01*
X123922144Y-141230779D01*
X123921000Y-141207500D01*
X123921000Y-140732500D01*
X123922144Y-140709221D01*
X123925563Y-140686166D01*
X123931227Y-140663557D01*
X123939079Y-140641613D01*
X123949044Y-140620543D01*
X123961026Y-140600552D01*
X123974910Y-140581832D01*
X123990562Y-140564562D01*
X124007832Y-140548910D01*
X124026552Y-140535026D01*
X124046543Y-140523044D01*
X124067613Y-140513079D01*
X124089557Y-140505227D01*
X124112166Y-140499563D01*
X124135221Y-140496144D01*
X124158500Y-140495000D01*
X124733500Y-140495000D01*
X124756779Y-140496144D01*
G37*
G36*
X124520504Y-134786204D02*
G01*
X124544773Y-134789804D01*
X124568571Y-134795765D01*
X124591671Y-134804030D01*
X124613849Y-134814520D01*
X124634893Y-134827133D01*
X124654598Y-134841747D01*
X124672777Y-134858223D01*
X124689253Y-134876402D01*
X124703867Y-134896107D01*
X124716480Y-134917151D01*
X124726970Y-134939329D01*
X124735235Y-134962429D01*
X124741196Y-134986227D01*
X124744796Y-135010496D01*
X124746000Y-135035000D01*
X124746000Y-136035000D01*
X124744796Y-136059504D01*
X124741196Y-136083773D01*
X124735235Y-136107571D01*
X124726970Y-136130671D01*
X124716480Y-136152849D01*
X124703867Y-136173893D01*
X124689253Y-136193598D01*
X124672777Y-136211777D01*
X124654598Y-136228253D01*
X124634893Y-136242867D01*
X124613849Y-136255480D01*
X124591671Y-136265970D01*
X124568571Y-136274235D01*
X124544773Y-136280196D01*
X124520504Y-136283796D01*
X124496000Y-136285000D01*
X122646000Y-136285000D01*
X122621496Y-136283796D01*
X122597227Y-136280196D01*
X122573429Y-136274235D01*
X122550329Y-136265970D01*
X122528151Y-136255480D01*
X122507107Y-136242867D01*
X122487402Y-136228253D01*
X122469223Y-136211777D01*
X122452747Y-136193598D01*
X122438133Y-136173893D01*
X122425520Y-136152849D01*
X122415030Y-136130671D01*
X122406765Y-136107571D01*
X122400804Y-136083773D01*
X122397204Y-136059504D01*
X122396000Y-136035000D01*
X122396000Y-135035000D01*
X122397204Y-135010496D01*
X122400804Y-134986227D01*
X122406765Y-134962429D01*
X122415030Y-134939329D01*
X122425520Y-134917151D01*
X122438133Y-134896107D01*
X122452747Y-134876402D01*
X122469223Y-134858223D01*
X122487402Y-134841747D01*
X122507107Y-134827133D01*
X122528151Y-134814520D01*
X122550329Y-134804030D01*
X122573429Y-134795765D01*
X122597227Y-134789804D01*
X122621496Y-134786204D01*
X122646000Y-134785000D01*
X124496000Y-134785000D01*
X124520504Y-134786204D01*
G37*
G36*
X124520504Y-138036204D02*
G01*
X124544773Y-138039804D01*
X124568571Y-138045765D01*
X124591671Y-138054030D01*
X124613849Y-138064520D01*
X124634893Y-138077133D01*
X124654598Y-138091747D01*
X124672777Y-138108223D01*
X124689253Y-138126402D01*
X124703867Y-138146107D01*
X124716480Y-138167151D01*
X124726970Y-138189329D01*
X124735235Y-138212429D01*
X124741196Y-138236227D01*
X124744796Y-138260496D01*
X124746000Y-138285000D01*
X124746000Y-139285000D01*
X124744796Y-139309504D01*
X124741196Y-139333773D01*
X124735235Y-139357571D01*
X124726970Y-139380671D01*
X124716480Y-139402849D01*
X124703867Y-139423893D01*
X124689253Y-139443598D01*
X124672777Y-139461777D01*
X124654598Y-139478253D01*
X124634893Y-139492867D01*
X124613849Y-139505480D01*
X124591671Y-139515970D01*
X124568571Y-139524235D01*
X124544773Y-139530196D01*
X124520504Y-139533796D01*
X124496000Y-139535000D01*
X122646000Y-139535000D01*
X122621496Y-139533796D01*
X122597227Y-139530196D01*
X122573429Y-139524235D01*
X122550329Y-139515970D01*
X122528151Y-139505480D01*
X122507107Y-139492867D01*
X122487402Y-139478253D01*
X122469223Y-139461777D01*
X122452747Y-139443598D01*
X122438133Y-139423893D01*
X122425520Y-139402849D01*
X122415030Y-139380671D01*
X122406765Y-139357571D01*
X122400804Y-139333773D01*
X122397204Y-139309504D01*
X122396000Y-139285000D01*
X122396000Y-138285000D01*
X122397204Y-138260496D01*
X122400804Y-138236227D01*
X122406765Y-138212429D01*
X122415030Y-138189329D01*
X122425520Y-138167151D01*
X122438133Y-138146107D01*
X122452747Y-138126402D01*
X122469223Y-138108223D01*
X122487402Y-138091747D01*
X122507107Y-138077133D01*
X122528151Y-138064520D01*
X122550329Y-138054030D01*
X122573429Y-138045765D01*
X122597227Y-138039804D01*
X122621496Y-138036204D01*
X122646000Y-138035000D01*
X124496000Y-138035000D01*
X124520504Y-138036204D01*
G37*
G36*
X142500779Y-137257144D02*
G01*
X142523834Y-137260563D01*
X142546443Y-137266227D01*
X142568387Y-137274079D01*
X142589457Y-137284044D01*
X142609448Y-137296026D01*
X142628168Y-137309910D01*
X142645438Y-137325562D01*
X142661090Y-137342832D01*
X142674974Y-137361552D01*
X142686956Y-137381543D01*
X142696921Y-137402613D01*
X142704773Y-137424557D01*
X142710437Y-137447166D01*
X142713856Y-137470221D01*
X142715000Y-137493500D01*
X142715000Y-138068500D01*
X142713856Y-138091779D01*
X142710437Y-138114834D01*
X142704773Y-138137443D01*
X142696921Y-138159387D01*
X142686956Y-138180457D01*
X142674974Y-138200448D01*
X142661090Y-138219168D01*
X142645438Y-138236438D01*
X142628168Y-138252090D01*
X142609448Y-138265974D01*
X142589457Y-138277956D01*
X142568387Y-138287921D01*
X142546443Y-138295773D01*
X142523834Y-138301437D01*
X142500779Y-138304856D01*
X142477500Y-138306000D01*
X142002500Y-138306000D01*
X141979221Y-138304856D01*
X141956166Y-138301437D01*
X141933557Y-138295773D01*
X141911613Y-138287921D01*
X141890543Y-138277956D01*
X141870552Y-138265974D01*
X141851832Y-138252090D01*
X141834562Y-138236438D01*
X141818910Y-138219168D01*
X141805026Y-138200448D01*
X141793044Y-138180457D01*
X141783079Y-138159387D01*
X141775227Y-138137443D01*
X141769563Y-138114834D01*
X141766144Y-138091779D01*
X141765000Y-138068500D01*
X141765000Y-137493500D01*
X141766144Y-137470221D01*
X141769563Y-137447166D01*
X141775227Y-137424557D01*
X141783079Y-137402613D01*
X141793044Y-137381543D01*
X141805026Y-137361552D01*
X141818910Y-137342832D01*
X141834562Y-137325562D01*
X141851832Y-137309910D01*
X141870552Y-137296026D01*
X141890543Y-137284044D01*
X141911613Y-137274079D01*
X141933557Y-137266227D01*
X141956166Y-137260563D01*
X141979221Y-137257144D01*
X142002500Y-137256000D01*
X142477500Y-137256000D01*
X142500779Y-137257144D01*
G37*
G36*
X142500779Y-135507144D02*
G01*
X142523834Y-135510563D01*
X142546443Y-135516227D01*
X142568387Y-135524079D01*
X142589457Y-135534044D01*
X142609448Y-135546026D01*
X142628168Y-135559910D01*
X142645438Y-135575562D01*
X142661090Y-135592832D01*
X142674974Y-135611552D01*
X142686956Y-135631543D01*
X142696921Y-135652613D01*
X142704773Y-135674557D01*
X142710437Y-135697166D01*
X142713856Y-135720221D01*
X142715000Y-135743500D01*
X142715000Y-136318500D01*
X142713856Y-136341779D01*
X142710437Y-136364834D01*
X142704773Y-136387443D01*
X142696921Y-136409387D01*
X142686956Y-136430457D01*
X142674974Y-136450448D01*
X142661090Y-136469168D01*
X142645438Y-136486438D01*
X142628168Y-136502090D01*
X142609448Y-136515974D01*
X142589457Y-136527956D01*
X142568387Y-136537921D01*
X142546443Y-136545773D01*
X142523834Y-136551437D01*
X142500779Y-136554856D01*
X142477500Y-136556000D01*
X142002500Y-136556000D01*
X141979221Y-136554856D01*
X141956166Y-136551437D01*
X141933557Y-136545773D01*
X141911613Y-136537921D01*
X141890543Y-136527956D01*
X141870552Y-136515974D01*
X141851832Y-136502090D01*
X141834562Y-136486438D01*
X141818910Y-136469168D01*
X141805026Y-136450448D01*
X141793044Y-136430457D01*
X141783079Y-136409387D01*
X141775227Y-136387443D01*
X141769563Y-136364834D01*
X141766144Y-136341779D01*
X141765000Y-136318500D01*
X141765000Y-135743500D01*
X141766144Y-135720221D01*
X141769563Y-135697166D01*
X141775227Y-135674557D01*
X141783079Y-135652613D01*
X141793044Y-135631543D01*
X141805026Y-135611552D01*
X141818910Y-135592832D01*
X141834562Y-135575562D01*
X141851832Y-135559910D01*
X141870552Y-135546026D01*
X141890543Y-135534044D01*
X141911613Y-135524079D01*
X141933557Y-135516227D01*
X141956166Y-135510563D01*
X141979221Y-135507144D01*
X142002500Y-135506000D01*
X142477500Y-135506000D01*
X142500779Y-135507144D01*
G37*
G36*
X142500779Y-131951144D02*
G01*
X142523834Y-131954563D01*
X142546443Y-131960227D01*
X142568387Y-131968079D01*
X142589457Y-131978044D01*
X142609448Y-131990026D01*
X142628168Y-132003910D01*
X142645438Y-132019562D01*
X142661090Y-132036832D01*
X142674974Y-132055552D01*
X142686956Y-132075543D01*
X142696921Y-132096613D01*
X142704773Y-132118557D01*
X142710437Y-132141166D01*
X142713856Y-132164221D01*
X142715000Y-132187500D01*
X142715000Y-132762500D01*
X142713856Y-132785779D01*
X142710437Y-132808834D01*
X142704773Y-132831443D01*
X142696921Y-132853387D01*
X142686956Y-132874457D01*
X142674974Y-132894448D01*
X142661090Y-132913168D01*
X142645438Y-132930438D01*
X142628168Y-132946090D01*
X142609448Y-132959974D01*
X142589457Y-132971956D01*
X142568387Y-132981921D01*
X142546443Y-132989773D01*
X142523834Y-132995437D01*
X142500779Y-132998856D01*
X142477500Y-133000000D01*
X142002500Y-133000000D01*
X141979221Y-132998856D01*
X141956166Y-132995437D01*
X141933557Y-132989773D01*
X141911613Y-132981921D01*
X141890543Y-132971956D01*
X141870552Y-132959974D01*
X141851832Y-132946090D01*
X141834562Y-132930438D01*
X141818910Y-132913168D01*
X141805026Y-132894448D01*
X141793044Y-132874457D01*
X141783079Y-132853387D01*
X141775227Y-132831443D01*
X141769563Y-132808834D01*
X141766144Y-132785779D01*
X141765000Y-132762500D01*
X141765000Y-132187500D01*
X141766144Y-132164221D01*
X141769563Y-132141166D01*
X141775227Y-132118557D01*
X141783079Y-132096613D01*
X141793044Y-132075543D01*
X141805026Y-132055552D01*
X141818910Y-132036832D01*
X141834562Y-132019562D01*
X141851832Y-132003910D01*
X141870552Y-131990026D01*
X141890543Y-131978044D01*
X141911613Y-131968079D01*
X141933557Y-131960227D01*
X141956166Y-131954563D01*
X141979221Y-131951144D01*
X142002500Y-131950000D01*
X142477500Y-131950000D01*
X142500779Y-131951144D01*
G37*
G36*
X142500779Y-133701144D02*
G01*
X142523834Y-133704563D01*
X142546443Y-133710227D01*
X142568387Y-133718079D01*
X142589457Y-133728044D01*
X142609448Y-133740026D01*
X142628168Y-133753910D01*
X142645438Y-133769562D01*
X142661090Y-133786832D01*
X142674974Y-133805552D01*
X142686956Y-133825543D01*
X142696921Y-133846613D01*
X142704773Y-133868557D01*
X142710437Y-133891166D01*
X142713856Y-133914221D01*
X142715000Y-133937500D01*
X142715000Y-134512500D01*
X142713856Y-134535779D01*
X142710437Y-134558834D01*
X142704773Y-134581443D01*
X142696921Y-134603387D01*
X142686956Y-134624457D01*
X142674974Y-134644448D01*
X142661090Y-134663168D01*
X142645438Y-134680438D01*
X142628168Y-134696090D01*
X142609448Y-134709974D01*
X142589457Y-134721956D01*
X142568387Y-134731921D01*
X142546443Y-134739773D01*
X142523834Y-134745437D01*
X142500779Y-134748856D01*
X142477500Y-134750000D01*
X142002500Y-134750000D01*
X141979221Y-134748856D01*
X141956166Y-134745437D01*
X141933557Y-134739773D01*
X141911613Y-134731921D01*
X141890543Y-134721956D01*
X141870552Y-134709974D01*
X141851832Y-134696090D01*
X141834562Y-134680438D01*
X141818910Y-134663168D01*
X141805026Y-134644448D01*
X141793044Y-134624457D01*
X141783079Y-134603387D01*
X141775227Y-134581443D01*
X141769563Y-134558834D01*
X141766144Y-134535779D01*
X141765000Y-134512500D01*
X141765000Y-133937500D01*
X141766144Y-133914221D01*
X141769563Y-133891166D01*
X141775227Y-133868557D01*
X141783079Y-133846613D01*
X141793044Y-133825543D01*
X141805026Y-133805552D01*
X141818910Y-133786832D01*
X141834562Y-133769562D01*
X141851832Y-133753910D01*
X141870552Y-133740026D01*
X141890543Y-133728044D01*
X141911613Y-133718079D01*
X141933557Y-133710227D01*
X141956166Y-133704563D01*
X141979221Y-133701144D01*
X142002500Y-133700000D01*
X142477500Y-133700000D01*
X142500779Y-133701144D01*
G37*
M02*
