%TF.GenerationSoftware,KiCad,Pcbnew,(5.1.5)-3*%
%TF.CreationDate,2021-02-13T19:55:16+01:00*%
%TF.ProjectId,PSACANBridgeHW_v11,50534156-616e-4436-916e-427269646765,rev?*%
%TF.SameCoordinates,Original*%
%TF.FileFunction,Soldermask,Bot*%
%TF.FilePolarity,Negative*%
%FSLAX46Y46*%
G04 Gerber Fmt 4.6, Leading zero omitted, Abs format (unit mm)*
G04 Created by KiCad (PCBNEW (5.1.5)-3) date 2021-02-13 19:55:16*
%MOMM*%
%LPD*%
G04 APERTURE LIST*
%ADD10C,0.100000*%
G04 APERTURE END LIST*
D10*
G36*
X156084687Y-141449027D02*
G01*
X156262274Y-141484350D01*
X156453362Y-141563502D01*
X156625336Y-141678411D01*
X156771589Y-141824664D01*
X156886498Y-141996638D01*
X156965650Y-142187726D01*
X157006000Y-142390584D01*
X157006000Y-142597416D01*
X156965650Y-142800274D01*
X156886498Y-142991362D01*
X156771589Y-143163336D01*
X156625336Y-143309589D01*
X156453362Y-143424498D01*
X156262274Y-143503650D01*
X156084687Y-143538973D01*
X156059417Y-143544000D01*
X155852583Y-143544000D01*
X155827313Y-143538973D01*
X155649726Y-143503650D01*
X155458638Y-143424498D01*
X155286664Y-143309589D01*
X155140411Y-143163336D01*
X155025502Y-142991362D01*
X154946350Y-142800274D01*
X154906000Y-142597416D01*
X154906000Y-142390584D01*
X154946350Y-142187726D01*
X155025502Y-141996638D01*
X155140411Y-141824664D01*
X155286664Y-141678411D01*
X155458638Y-141563502D01*
X155649726Y-141484350D01*
X155827313Y-141449027D01*
X155852583Y-141444000D01*
X156059417Y-141444000D01*
X156084687Y-141449027D01*
G37*
G36*
X145924687Y-141449027D02*
G01*
X146102274Y-141484350D01*
X146293362Y-141563502D01*
X146465336Y-141678411D01*
X146611589Y-141824664D01*
X146726498Y-141996638D01*
X146805650Y-142187726D01*
X146846000Y-142390584D01*
X146846000Y-142597416D01*
X146805650Y-142800274D01*
X146726498Y-142991362D01*
X146611589Y-143163336D01*
X146465336Y-143309589D01*
X146293362Y-143424498D01*
X146102274Y-143503650D01*
X145924687Y-143538973D01*
X145899417Y-143544000D01*
X145692583Y-143544000D01*
X145667313Y-143538973D01*
X145489726Y-143503650D01*
X145298638Y-143424498D01*
X145126664Y-143309589D01*
X144980411Y-143163336D01*
X144865502Y-142991362D01*
X144786350Y-142800274D01*
X144746000Y-142597416D01*
X144746000Y-142390584D01*
X144786350Y-142187726D01*
X144865502Y-141996638D01*
X144980411Y-141824664D01*
X145126664Y-141678411D01*
X145298638Y-141563502D01*
X145489726Y-141484350D01*
X145667313Y-141449027D01*
X145692583Y-141444000D01*
X145899417Y-141444000D01*
X145924687Y-141449027D01*
G37*
G36*
X151004687Y-141449027D02*
G01*
X151182274Y-141484350D01*
X151373362Y-141563502D01*
X151545336Y-141678411D01*
X151691589Y-141824664D01*
X151806498Y-141996638D01*
X151885650Y-142187726D01*
X151926000Y-142390584D01*
X151926000Y-142597416D01*
X151885650Y-142800274D01*
X151806498Y-142991362D01*
X151691589Y-143163336D01*
X151545336Y-143309589D01*
X151373362Y-143424498D01*
X151182274Y-143503650D01*
X151004687Y-143538973D01*
X150979417Y-143544000D01*
X150772583Y-143544000D01*
X150747313Y-143538973D01*
X150569726Y-143503650D01*
X150378638Y-143424498D01*
X150206664Y-143309589D01*
X150060411Y-143163336D01*
X149945502Y-142991362D01*
X149866350Y-142800274D01*
X149826000Y-142597416D01*
X149826000Y-142390584D01*
X149866350Y-142187726D01*
X149945502Y-141996638D01*
X150060411Y-141824664D01*
X150206664Y-141678411D01*
X150378638Y-141563502D01*
X150569726Y-141484350D01*
X150747313Y-141449027D01*
X150772583Y-141444000D01*
X150979417Y-141444000D01*
X151004687Y-141449027D01*
G37*
G36*
X153544687Y-141449027D02*
G01*
X153722274Y-141484350D01*
X153913362Y-141563502D01*
X154085336Y-141678411D01*
X154231589Y-141824664D01*
X154346498Y-141996638D01*
X154425650Y-142187726D01*
X154466000Y-142390584D01*
X154466000Y-142597416D01*
X154425650Y-142800274D01*
X154346498Y-142991362D01*
X154231589Y-143163336D01*
X154085336Y-143309589D01*
X153913362Y-143424498D01*
X153722274Y-143503650D01*
X153544687Y-143538973D01*
X153519417Y-143544000D01*
X153312583Y-143544000D01*
X153287313Y-143538973D01*
X153109726Y-143503650D01*
X152918638Y-143424498D01*
X152746664Y-143309589D01*
X152600411Y-143163336D01*
X152485502Y-142991362D01*
X152406350Y-142800274D01*
X152366000Y-142597416D01*
X152366000Y-142390584D01*
X152406350Y-142187726D01*
X152485502Y-141996638D01*
X152600411Y-141824664D01*
X152746664Y-141678411D01*
X152918638Y-141563502D01*
X153109726Y-141484350D01*
X153287313Y-141449027D01*
X153312583Y-141444000D01*
X153519417Y-141444000D01*
X153544687Y-141449027D01*
G37*
G36*
X158624687Y-141449027D02*
G01*
X158802274Y-141484350D01*
X158993362Y-141563502D01*
X159165336Y-141678411D01*
X159311589Y-141824664D01*
X159426498Y-141996638D01*
X159505650Y-142187726D01*
X159546000Y-142390584D01*
X159546000Y-142597416D01*
X159505650Y-142800274D01*
X159426498Y-142991362D01*
X159311589Y-143163336D01*
X159165336Y-143309589D01*
X158993362Y-143424498D01*
X158802274Y-143503650D01*
X158624687Y-143538973D01*
X158599417Y-143544000D01*
X158392583Y-143544000D01*
X158367313Y-143538973D01*
X158189726Y-143503650D01*
X157998638Y-143424498D01*
X157826664Y-143309589D01*
X157680411Y-143163336D01*
X157565502Y-142991362D01*
X157486350Y-142800274D01*
X157446000Y-142597416D01*
X157446000Y-142390584D01*
X157486350Y-142187726D01*
X157565502Y-141996638D01*
X157680411Y-141824664D01*
X157826664Y-141678411D01*
X157998638Y-141563502D01*
X158189726Y-141484350D01*
X158367313Y-141449027D01*
X158392583Y-141444000D01*
X158599417Y-141444000D01*
X158624687Y-141449027D01*
G37*
G36*
X148464687Y-141449027D02*
G01*
X148642274Y-141484350D01*
X148833362Y-141563502D01*
X149005336Y-141678411D01*
X149151589Y-141824664D01*
X149266498Y-141996638D01*
X149345650Y-142187726D01*
X149386000Y-142390584D01*
X149386000Y-142597416D01*
X149345650Y-142800274D01*
X149266498Y-142991362D01*
X149151589Y-143163336D01*
X149005336Y-143309589D01*
X148833362Y-143424498D01*
X148642274Y-143503650D01*
X148464687Y-143538973D01*
X148439417Y-143544000D01*
X148232583Y-143544000D01*
X148207313Y-143538973D01*
X148029726Y-143503650D01*
X147838638Y-143424498D01*
X147666664Y-143309589D01*
X147520411Y-143163336D01*
X147405502Y-142991362D01*
X147326350Y-142800274D01*
X147286000Y-142597416D01*
X147286000Y-142390584D01*
X147326350Y-142187726D01*
X147405502Y-141996638D01*
X147520411Y-141824664D01*
X147666664Y-141678411D01*
X147838638Y-141563502D01*
X148029726Y-141484350D01*
X148207313Y-141449027D01*
X148232583Y-141444000D01*
X148439417Y-141444000D01*
X148464687Y-141449027D01*
G37*
G36*
X161164687Y-141449027D02*
G01*
X161342274Y-141484350D01*
X161533362Y-141563502D01*
X161705336Y-141678411D01*
X161851589Y-141824664D01*
X161966498Y-141996638D01*
X162045650Y-142187726D01*
X162086000Y-142390584D01*
X162086000Y-142597416D01*
X162045650Y-142800274D01*
X161966498Y-142991362D01*
X161851589Y-143163336D01*
X161705336Y-143309589D01*
X161533362Y-143424498D01*
X161342274Y-143503650D01*
X161164687Y-143538973D01*
X161139417Y-143544000D01*
X160932583Y-143544000D01*
X160907313Y-143538973D01*
X160729726Y-143503650D01*
X160538638Y-143424498D01*
X160366664Y-143309589D01*
X160220411Y-143163336D01*
X160105502Y-142991362D01*
X160026350Y-142800274D01*
X159986000Y-142597416D01*
X159986000Y-142390584D01*
X160026350Y-142187726D01*
X160105502Y-141996638D01*
X160220411Y-141824664D01*
X160366664Y-141678411D01*
X160538638Y-141563502D01*
X160729726Y-141484350D01*
X160907313Y-141449027D01*
X160932583Y-141444000D01*
X161139417Y-141444000D01*
X161164687Y-141449027D01*
G37*
G36*
X143384687Y-141449027D02*
G01*
X143562274Y-141484350D01*
X143753362Y-141563502D01*
X143925336Y-141678411D01*
X144071589Y-141824664D01*
X144186498Y-141996638D01*
X144265650Y-142187726D01*
X144306000Y-142390584D01*
X144306000Y-142597416D01*
X144265650Y-142800274D01*
X144186498Y-142991362D01*
X144071589Y-143163336D01*
X143925336Y-143309589D01*
X143753362Y-143424498D01*
X143562274Y-143503650D01*
X143384687Y-143538973D01*
X143359417Y-143544000D01*
X143152583Y-143544000D01*
X143127313Y-143538973D01*
X142949726Y-143503650D01*
X142758638Y-143424498D01*
X142586664Y-143309589D01*
X142440411Y-143163336D01*
X142325502Y-142991362D01*
X142246350Y-142800274D01*
X142206000Y-142597416D01*
X142206000Y-142390584D01*
X142246350Y-142187726D01*
X142325502Y-141996638D01*
X142440411Y-141824664D01*
X142586664Y-141678411D01*
X142758638Y-141563502D01*
X142949726Y-141484350D01*
X143127313Y-141449027D01*
X143152583Y-141444000D01*
X143359417Y-141444000D01*
X143384687Y-141449027D01*
G37*
G36*
X138304687Y-141449027D02*
G01*
X138482274Y-141484350D01*
X138673362Y-141563502D01*
X138845336Y-141678411D01*
X138991589Y-141824664D01*
X139106498Y-141996638D01*
X139185650Y-142187726D01*
X139226000Y-142390584D01*
X139226000Y-142597416D01*
X139185650Y-142800274D01*
X139106498Y-142991362D01*
X138991589Y-143163336D01*
X138845336Y-143309589D01*
X138673362Y-143424498D01*
X138482274Y-143503650D01*
X138304687Y-143538973D01*
X138279417Y-143544000D01*
X138072583Y-143544000D01*
X138047313Y-143538973D01*
X137869726Y-143503650D01*
X137678638Y-143424498D01*
X137506664Y-143309589D01*
X137360411Y-143163336D01*
X137245502Y-142991362D01*
X137166350Y-142800274D01*
X137126000Y-142597416D01*
X137126000Y-142390584D01*
X137166350Y-142187726D01*
X137245502Y-141996638D01*
X137360411Y-141824664D01*
X137506664Y-141678411D01*
X137678638Y-141563502D01*
X137869726Y-141484350D01*
X138047313Y-141449027D01*
X138072583Y-141444000D01*
X138279417Y-141444000D01*
X138304687Y-141449027D01*
G37*
G36*
X163704687Y-141449027D02*
G01*
X163882274Y-141484350D01*
X164073362Y-141563502D01*
X164245336Y-141678411D01*
X164391589Y-141824664D01*
X164506498Y-141996638D01*
X164585650Y-142187726D01*
X164626000Y-142390584D01*
X164626000Y-142597416D01*
X164585650Y-142800274D01*
X164506498Y-142991362D01*
X164391589Y-143163336D01*
X164245336Y-143309589D01*
X164073362Y-143424498D01*
X163882274Y-143503650D01*
X163704687Y-143538973D01*
X163679417Y-143544000D01*
X163472583Y-143544000D01*
X163447313Y-143538973D01*
X163269726Y-143503650D01*
X163078638Y-143424498D01*
X162906664Y-143309589D01*
X162760411Y-143163336D01*
X162645502Y-142991362D01*
X162566350Y-142800274D01*
X162526000Y-142597416D01*
X162526000Y-142390584D01*
X162566350Y-142187726D01*
X162645502Y-141996638D01*
X162760411Y-141824664D01*
X162906664Y-141678411D01*
X163078638Y-141563502D01*
X163269726Y-141484350D01*
X163447313Y-141449027D01*
X163472583Y-141444000D01*
X163679417Y-141444000D01*
X163704687Y-141449027D01*
G37*
G36*
X128144687Y-141449027D02*
G01*
X128322274Y-141484350D01*
X128513362Y-141563502D01*
X128685336Y-141678411D01*
X128831589Y-141824664D01*
X128946498Y-141996638D01*
X129025650Y-142187726D01*
X129066000Y-142390584D01*
X129066000Y-142597416D01*
X129025650Y-142800274D01*
X128946498Y-142991362D01*
X128831589Y-143163336D01*
X128685336Y-143309589D01*
X128513362Y-143424498D01*
X128322274Y-143503650D01*
X128144687Y-143538973D01*
X128119417Y-143544000D01*
X127912583Y-143544000D01*
X127887313Y-143538973D01*
X127709726Y-143503650D01*
X127518638Y-143424498D01*
X127346664Y-143309589D01*
X127200411Y-143163336D01*
X127085502Y-142991362D01*
X127006350Y-142800274D01*
X126966000Y-142597416D01*
X126966000Y-142390584D01*
X127006350Y-142187726D01*
X127085502Y-141996638D01*
X127200411Y-141824664D01*
X127346664Y-141678411D01*
X127518638Y-141563502D01*
X127709726Y-141484350D01*
X127887313Y-141449027D01*
X127912583Y-141444000D01*
X128119417Y-141444000D01*
X128144687Y-141449027D01*
G37*
G36*
X130684687Y-141449027D02*
G01*
X130862274Y-141484350D01*
X131053362Y-141563502D01*
X131225336Y-141678411D01*
X131371589Y-141824664D01*
X131486498Y-141996638D01*
X131565650Y-142187726D01*
X131606000Y-142390584D01*
X131606000Y-142597416D01*
X131565650Y-142800274D01*
X131486498Y-142991362D01*
X131371589Y-143163336D01*
X131225336Y-143309589D01*
X131053362Y-143424498D01*
X130862274Y-143503650D01*
X130684687Y-143538973D01*
X130659417Y-143544000D01*
X130452583Y-143544000D01*
X130427313Y-143538973D01*
X130249726Y-143503650D01*
X130058638Y-143424498D01*
X129886664Y-143309589D01*
X129740411Y-143163336D01*
X129625502Y-142991362D01*
X129546350Y-142800274D01*
X129506000Y-142597416D01*
X129506000Y-142390584D01*
X129546350Y-142187726D01*
X129625502Y-141996638D01*
X129740411Y-141824664D01*
X129886664Y-141678411D01*
X130058638Y-141563502D01*
X130249726Y-141484350D01*
X130427313Y-141449027D01*
X130452583Y-141444000D01*
X130659417Y-141444000D01*
X130684687Y-141449027D01*
G37*
G36*
X133224687Y-141449027D02*
G01*
X133402274Y-141484350D01*
X133593362Y-141563502D01*
X133765336Y-141678411D01*
X133911589Y-141824664D01*
X134026498Y-141996638D01*
X134105650Y-142187726D01*
X134146000Y-142390584D01*
X134146000Y-142597416D01*
X134105650Y-142800274D01*
X134026498Y-142991362D01*
X133911589Y-143163336D01*
X133765336Y-143309589D01*
X133593362Y-143424498D01*
X133402274Y-143503650D01*
X133224687Y-143538973D01*
X133199417Y-143544000D01*
X132992583Y-143544000D01*
X132967313Y-143538973D01*
X132789726Y-143503650D01*
X132598638Y-143424498D01*
X132426664Y-143309589D01*
X132280411Y-143163336D01*
X132165502Y-142991362D01*
X132086350Y-142800274D01*
X132046000Y-142597416D01*
X132046000Y-142390584D01*
X132086350Y-142187726D01*
X132165502Y-141996638D01*
X132280411Y-141824664D01*
X132426664Y-141678411D01*
X132598638Y-141563502D01*
X132789726Y-141484350D01*
X132967313Y-141449027D01*
X132992583Y-141444000D01*
X133199417Y-141444000D01*
X133224687Y-141449027D01*
G37*
G36*
X135764687Y-141449027D02*
G01*
X135942274Y-141484350D01*
X136133362Y-141563502D01*
X136305336Y-141678411D01*
X136451589Y-141824664D01*
X136566498Y-141996638D01*
X136645650Y-142187726D01*
X136686000Y-142390584D01*
X136686000Y-142597416D01*
X136645650Y-142800274D01*
X136566498Y-142991362D01*
X136451589Y-143163336D01*
X136305336Y-143309589D01*
X136133362Y-143424498D01*
X135942274Y-143503650D01*
X135764687Y-143538973D01*
X135739417Y-143544000D01*
X135532583Y-143544000D01*
X135507313Y-143538973D01*
X135329726Y-143503650D01*
X135138638Y-143424498D01*
X134966664Y-143309589D01*
X134820411Y-143163336D01*
X134705502Y-142991362D01*
X134626350Y-142800274D01*
X134586000Y-142597416D01*
X134586000Y-142390584D01*
X134626350Y-142187726D01*
X134705502Y-141996638D01*
X134820411Y-141824664D01*
X134966664Y-141678411D01*
X135138638Y-141563502D01*
X135329726Y-141484350D01*
X135507313Y-141449027D01*
X135532583Y-141444000D01*
X135739417Y-141444000D01*
X135764687Y-141449027D01*
G37*
G36*
X140844687Y-141449027D02*
G01*
X141022274Y-141484350D01*
X141213362Y-141563502D01*
X141385336Y-141678411D01*
X141531589Y-141824664D01*
X141646498Y-141996638D01*
X141725650Y-142187726D01*
X141766000Y-142390584D01*
X141766000Y-142597416D01*
X141725650Y-142800274D01*
X141646498Y-142991362D01*
X141531589Y-143163336D01*
X141385336Y-143309589D01*
X141213362Y-143424498D01*
X141022274Y-143503650D01*
X140844687Y-143538973D01*
X140819417Y-143544000D01*
X140612583Y-143544000D01*
X140587313Y-143538973D01*
X140409726Y-143503650D01*
X140218638Y-143424498D01*
X140046664Y-143309589D01*
X139900411Y-143163336D01*
X139785502Y-142991362D01*
X139706350Y-142800274D01*
X139666000Y-142597416D01*
X139666000Y-142390584D01*
X139706350Y-142187726D01*
X139785502Y-141996638D01*
X139900411Y-141824664D01*
X140046664Y-141678411D01*
X140218638Y-141563502D01*
X140409726Y-141484350D01*
X140587313Y-141449027D01*
X140612583Y-141444000D01*
X140819417Y-141444000D01*
X140844687Y-141449027D01*
G37*
G36*
X133351687Y-137131027D02*
G01*
X133529274Y-137166350D01*
X133720362Y-137245502D01*
X133892336Y-137360411D01*
X134038589Y-137506664D01*
X134153498Y-137678638D01*
X134232650Y-137869726D01*
X134273000Y-138072584D01*
X134273000Y-138279416D01*
X134232650Y-138482274D01*
X134153498Y-138673362D01*
X134038589Y-138845336D01*
X133892336Y-138991589D01*
X133720362Y-139106498D01*
X133529274Y-139185650D01*
X133351687Y-139220973D01*
X133326417Y-139226000D01*
X133119583Y-139226000D01*
X133094313Y-139220973D01*
X132916726Y-139185650D01*
X132725638Y-139106498D01*
X132553664Y-138991589D01*
X132407411Y-138845336D01*
X132292502Y-138673362D01*
X132213350Y-138482274D01*
X132173000Y-138279416D01*
X132173000Y-138072584D01*
X132213350Y-137869726D01*
X132292502Y-137678638D01*
X132407411Y-137506664D01*
X132553664Y-137360411D01*
X132725638Y-137245502D01*
X132916726Y-137166350D01*
X133094313Y-137131027D01*
X133119583Y-137126000D01*
X133326417Y-137126000D01*
X133351687Y-137131027D01*
G37*
G36*
X130811687Y-137131027D02*
G01*
X130989274Y-137166350D01*
X131180362Y-137245502D01*
X131352336Y-137360411D01*
X131498589Y-137506664D01*
X131613498Y-137678638D01*
X131692650Y-137869726D01*
X131733000Y-138072584D01*
X131733000Y-138279416D01*
X131692650Y-138482274D01*
X131613498Y-138673362D01*
X131498589Y-138845336D01*
X131352336Y-138991589D01*
X131180362Y-139106498D01*
X130989274Y-139185650D01*
X130811687Y-139220973D01*
X130786417Y-139226000D01*
X130579583Y-139226000D01*
X130554313Y-139220973D01*
X130376726Y-139185650D01*
X130185638Y-139106498D01*
X130013664Y-138991589D01*
X129867411Y-138845336D01*
X129752502Y-138673362D01*
X129673350Y-138482274D01*
X129633000Y-138279416D01*
X129633000Y-138072584D01*
X129673350Y-137869726D01*
X129752502Y-137678638D01*
X129867411Y-137506664D01*
X130013664Y-137360411D01*
X130185638Y-137245502D01*
X130376726Y-137166350D01*
X130554313Y-137131027D01*
X130579583Y-137126000D01*
X130786417Y-137126000D01*
X130811687Y-137131027D01*
G37*
G36*
X129193000Y-139226000D02*
G01*
X127093000Y-139226000D01*
X127093000Y-137126000D01*
X129193000Y-137126000D01*
X129193000Y-139226000D01*
G37*
G36*
X173209326Y-134844831D02*
G01*
X173250596Y-134857350D01*
X173288631Y-134877681D01*
X173321964Y-134905036D01*
X173349319Y-134938369D01*
X173369650Y-134976404D01*
X173382169Y-135017674D01*
X173387000Y-135066727D01*
X173387000Y-136713273D01*
X173382169Y-136762326D01*
X173369650Y-136803596D01*
X173349319Y-136841631D01*
X173321964Y-136874964D01*
X173288631Y-136902319D01*
X173250596Y-136922650D01*
X173209326Y-136935169D01*
X173160273Y-136940000D01*
X171263727Y-136940000D01*
X171214674Y-136935169D01*
X171173404Y-136922650D01*
X171135369Y-136902319D01*
X171102036Y-136874964D01*
X171074681Y-136841631D01*
X171054350Y-136803596D01*
X171041831Y-136762326D01*
X171037000Y-136713273D01*
X171037000Y-135066727D01*
X171041831Y-135017674D01*
X171054350Y-134976404D01*
X171074681Y-134938369D01*
X171102036Y-134905036D01*
X171135369Y-134877681D01*
X171173404Y-134857350D01*
X171214674Y-134844831D01*
X171263727Y-134840000D01*
X173160273Y-134840000D01*
X173209326Y-134844831D01*
G37*
G36*
X172465707Y-132347596D02*
G01*
X172542836Y-132355193D01*
X172740762Y-132415233D01*
X172740765Y-132415234D01*
X172923170Y-132512732D01*
X173083055Y-132643945D01*
X173214268Y-132803830D01*
X173311766Y-132986235D01*
X173311767Y-132986238D01*
X173371807Y-133184164D01*
X173392080Y-133390000D01*
X173371807Y-133595836D01*
X173311767Y-133793762D01*
X173311766Y-133793765D01*
X173214268Y-133976170D01*
X173083055Y-134136055D01*
X172923170Y-134267268D01*
X172740765Y-134364766D01*
X172740762Y-134364767D01*
X172542836Y-134424807D01*
X172465707Y-134432404D01*
X172388580Y-134440000D01*
X172035420Y-134440000D01*
X171958293Y-134432404D01*
X171881164Y-134424807D01*
X171683238Y-134364767D01*
X171683235Y-134364766D01*
X171500830Y-134267268D01*
X171340945Y-134136055D01*
X171209732Y-133976170D01*
X171112234Y-133793765D01*
X171112233Y-133793762D01*
X171052193Y-133595836D01*
X171031920Y-133390000D01*
X171052193Y-133184164D01*
X171112233Y-132986238D01*
X171112234Y-132986235D01*
X171209732Y-132803830D01*
X171340945Y-132643945D01*
X171500830Y-132512732D01*
X171683235Y-132415234D01*
X171683238Y-132415233D01*
X171881164Y-132355193D01*
X171958293Y-132347596D01*
X172035420Y-132340000D01*
X172388580Y-132340000D01*
X172465707Y-132347596D01*
G37*
G36*
X137980336Y-131710254D02*
G01*
X138072105Y-131728508D01*
X138244994Y-131800121D01*
X138400590Y-131904087D01*
X138532913Y-132036410D01*
X138636879Y-132192006D01*
X138708492Y-132364895D01*
X138745000Y-132548433D01*
X138745000Y-132735567D01*
X138708492Y-132919105D01*
X138636879Y-133091994D01*
X138532913Y-133247590D01*
X138400590Y-133379913D01*
X138244994Y-133483879D01*
X138072105Y-133555492D01*
X137980336Y-133573746D01*
X137888568Y-133592000D01*
X137701432Y-133592000D01*
X137609664Y-133573746D01*
X137517895Y-133555492D01*
X137345006Y-133483879D01*
X137189410Y-133379913D01*
X137057087Y-133247590D01*
X136953121Y-133091994D01*
X136881508Y-132919105D01*
X136845000Y-132735567D01*
X136845000Y-132548433D01*
X136881508Y-132364895D01*
X136953121Y-132192006D01*
X137057087Y-132036410D01*
X137189410Y-131904087D01*
X137345006Y-131800121D01*
X137517895Y-131728508D01*
X137609664Y-131710254D01*
X137701432Y-131692000D01*
X137888568Y-131692000D01*
X137980336Y-131710254D01*
G37*
G36*
X172465707Y-129847596D02*
G01*
X172542836Y-129855193D01*
X172731093Y-129912300D01*
X172740765Y-129915234D01*
X172923170Y-130012732D01*
X173083055Y-130143945D01*
X173214268Y-130303830D01*
X173311766Y-130486235D01*
X173311767Y-130486238D01*
X173371807Y-130684164D01*
X173392080Y-130890000D01*
X173371807Y-131095836D01*
X173311767Y-131293762D01*
X173311766Y-131293765D01*
X173214268Y-131476170D01*
X173083055Y-131636055D01*
X172923170Y-131767268D01*
X172740765Y-131864766D01*
X172740762Y-131864767D01*
X172542836Y-131924807D01*
X172465707Y-131932403D01*
X172388580Y-131940000D01*
X172035420Y-131940000D01*
X171958293Y-131932403D01*
X171881164Y-131924807D01*
X171683238Y-131864767D01*
X171683235Y-131864766D01*
X171500830Y-131767268D01*
X171340945Y-131636055D01*
X171209732Y-131476170D01*
X171112234Y-131293765D01*
X171112233Y-131293762D01*
X171052193Y-131095836D01*
X171031920Y-130890000D01*
X171052193Y-130684164D01*
X171112233Y-130486238D01*
X171112234Y-130486235D01*
X171209732Y-130303830D01*
X171340945Y-130143945D01*
X171500830Y-130012732D01*
X171683235Y-129915234D01*
X171692907Y-129912300D01*
X171881164Y-129855193D01*
X171958293Y-129847596D01*
X172035420Y-129840000D01*
X172388580Y-129840000D01*
X172465707Y-129847596D01*
G37*
G36*
X120455866Y-127423246D02*
G01*
X120509125Y-127428491D01*
X120645788Y-127469947D01*
X120645790Y-127469948D01*
X120771736Y-127537268D01*
X120882133Y-127627867D01*
X120972731Y-127738263D01*
X121040053Y-127864212D01*
X121081509Y-128000875D01*
X121095507Y-128143000D01*
X121081509Y-128285125D01*
X121040053Y-128421788D01*
X121040052Y-128421790D01*
X120972732Y-128547736D01*
X120882133Y-128658133D01*
X120853813Y-128681374D01*
X120836485Y-128698701D01*
X120822872Y-128719076D01*
X120813494Y-128741715D01*
X120808714Y-128765748D01*
X120808714Y-128790252D01*
X120813494Y-128814285D01*
X120822872Y-128836924D01*
X120836485Y-128857298D01*
X120853813Y-128874626D01*
X120882133Y-128897867D01*
X120946394Y-128976171D01*
X120972731Y-129008263D01*
X121040053Y-129134212D01*
X121081509Y-129270875D01*
X121095507Y-129413000D01*
X121081509Y-129555125D01*
X121040053Y-129691788D01*
X121040052Y-129691791D01*
X120996069Y-129774077D01*
X120986691Y-129796716D01*
X120981911Y-129820749D01*
X120981911Y-129845253D01*
X120986691Y-129869286D01*
X120996069Y-129891925D01*
X121009683Y-129912300D01*
X121027010Y-129929627D01*
X121047384Y-129943240D01*
X121070023Y-129952618D01*
X121092000Y-129955878D01*
X121092000Y-131408000D01*
X119192000Y-131408000D01*
X119192000Y-129956591D01*
X119202078Y-129955598D01*
X119225527Y-129948485D01*
X119247138Y-129936934D01*
X119266080Y-129921389D01*
X119281625Y-129902447D01*
X119293176Y-129880836D01*
X119300289Y-129857387D01*
X119302691Y-129833001D01*
X119300289Y-129808615D01*
X119287931Y-129774077D01*
X119243948Y-129691791D01*
X119243947Y-129691788D01*
X119202491Y-129555125D01*
X119188493Y-129413000D01*
X119202491Y-129270875D01*
X119243947Y-129134212D01*
X119311269Y-129008263D01*
X119337606Y-128976171D01*
X119401867Y-128897867D01*
X119430187Y-128874626D01*
X119447515Y-128857299D01*
X119461128Y-128836924D01*
X119470506Y-128814285D01*
X119475286Y-128790252D01*
X119475286Y-128765748D01*
X119470506Y-128741715D01*
X119461128Y-128719076D01*
X119447515Y-128698702D01*
X119430187Y-128681374D01*
X119401867Y-128658133D01*
X119311268Y-128547736D01*
X119243948Y-128421790D01*
X119243947Y-128421788D01*
X119202491Y-128285125D01*
X119188493Y-128143000D01*
X119202491Y-128000875D01*
X119243947Y-127864212D01*
X119311269Y-127738263D01*
X119401867Y-127627867D01*
X119512264Y-127537268D01*
X119638210Y-127469948D01*
X119638212Y-127469947D01*
X119774875Y-127428491D01*
X119828134Y-127423246D01*
X119881391Y-127418000D01*
X120402609Y-127418000D01*
X120455866Y-127423246D01*
G37*
G36*
X172465707Y-127347596D02*
G01*
X172542836Y-127355193D01*
X172740762Y-127415233D01*
X172740765Y-127415234D01*
X172923170Y-127512732D01*
X173083055Y-127643945D01*
X173214268Y-127803830D01*
X173311766Y-127986235D01*
X173311767Y-127986238D01*
X173371807Y-128184164D01*
X173392080Y-128390000D01*
X173371807Y-128595836D01*
X173327555Y-128741715D01*
X173311766Y-128793765D01*
X173214268Y-128976170D01*
X173083055Y-129136055D01*
X172923170Y-129267268D01*
X172740765Y-129364766D01*
X172740762Y-129364767D01*
X172542836Y-129424807D01*
X172465707Y-129432403D01*
X172388580Y-129440000D01*
X172035420Y-129440000D01*
X171958293Y-129432403D01*
X171881164Y-129424807D01*
X171683238Y-129364767D01*
X171683235Y-129364766D01*
X171500830Y-129267268D01*
X171340945Y-129136055D01*
X171209732Y-128976170D01*
X171112234Y-128793765D01*
X171096445Y-128741715D01*
X171052193Y-128595836D01*
X171031920Y-128390000D01*
X171052193Y-128184164D01*
X171112233Y-127986238D01*
X171112234Y-127986235D01*
X171209732Y-127803830D01*
X171340945Y-127643945D01*
X171500830Y-127512732D01*
X171683235Y-127415234D01*
X171683238Y-127415233D01*
X171881164Y-127355193D01*
X171958293Y-127347596D01*
X172035420Y-127340000D01*
X172388580Y-127340000D01*
X172465707Y-127347596D01*
G37*
G36*
X137980336Y-126830254D02*
G01*
X138072105Y-126848508D01*
X138244994Y-126920121D01*
X138400590Y-127024087D01*
X138532913Y-127156410D01*
X138636879Y-127312006D01*
X138708492Y-127484895D01*
X138708492Y-127484896D01*
X138745000Y-127668432D01*
X138745000Y-127855568D01*
X138726746Y-127947336D01*
X138708492Y-128039105D01*
X138636879Y-128211994D01*
X138532913Y-128367590D01*
X138400590Y-128499913D01*
X138244994Y-128603879D01*
X138072105Y-128675492D01*
X138042534Y-128681374D01*
X137888568Y-128712000D01*
X137701432Y-128712000D01*
X137547466Y-128681374D01*
X137517895Y-128675492D01*
X137345006Y-128603879D01*
X137189410Y-128499913D01*
X137057087Y-128367590D01*
X136953121Y-128211994D01*
X136881508Y-128039105D01*
X136863254Y-127947336D01*
X136845000Y-127855568D01*
X136845000Y-127668432D01*
X136881508Y-127484896D01*
X136881508Y-127484895D01*
X136953121Y-127312006D01*
X137057087Y-127156410D01*
X137189410Y-127024087D01*
X137345006Y-126920121D01*
X137517895Y-126848508D01*
X137609664Y-126830254D01*
X137701432Y-126812000D01*
X137888568Y-126812000D01*
X137980336Y-126830254D01*
G37*
G36*
X172465707Y-124847596D02*
G01*
X172542836Y-124855193D01*
X172740762Y-124915233D01*
X172740765Y-124915234D01*
X172923170Y-125012732D01*
X173083055Y-125143945D01*
X173214268Y-125303830D01*
X173311766Y-125486235D01*
X173311767Y-125486238D01*
X173371807Y-125684164D01*
X173392080Y-125890000D01*
X173371807Y-126095836D01*
X173311767Y-126293762D01*
X173311766Y-126293765D01*
X173214268Y-126476170D01*
X173083055Y-126636055D01*
X172923170Y-126767268D01*
X172740765Y-126864766D01*
X172740762Y-126864767D01*
X172542836Y-126924807D01*
X172465707Y-126932404D01*
X172388580Y-126940000D01*
X172035420Y-126940000D01*
X171958293Y-126932404D01*
X171881164Y-126924807D01*
X171683238Y-126864767D01*
X171683235Y-126864766D01*
X171500830Y-126767268D01*
X171340945Y-126636055D01*
X171209732Y-126476170D01*
X171112234Y-126293765D01*
X171112233Y-126293762D01*
X171052193Y-126095836D01*
X171031920Y-125890000D01*
X171052193Y-125684164D01*
X171112233Y-125486238D01*
X171112234Y-125486235D01*
X171209732Y-125303830D01*
X171340945Y-125143945D01*
X171500830Y-125012732D01*
X171683235Y-124915234D01*
X171683238Y-124915233D01*
X171881164Y-124855193D01*
X171958293Y-124847596D01*
X172035420Y-124840000D01*
X172388580Y-124840000D01*
X172465707Y-124847596D01*
G37*
G36*
X172465707Y-122347596D02*
G01*
X172542836Y-122355193D01*
X172740762Y-122415233D01*
X172740765Y-122415234D01*
X172923170Y-122512732D01*
X173083055Y-122643945D01*
X173214268Y-122803830D01*
X173311766Y-122986235D01*
X173311767Y-122986238D01*
X173371807Y-123184164D01*
X173392080Y-123390000D01*
X173371807Y-123595836D01*
X173336341Y-123712751D01*
X173311766Y-123793765D01*
X173214268Y-123976170D01*
X173083055Y-124136055D01*
X172923170Y-124267268D01*
X172740765Y-124364766D01*
X172740762Y-124364767D01*
X172542836Y-124424807D01*
X172465707Y-124432403D01*
X172388580Y-124440000D01*
X172035420Y-124440000D01*
X171958293Y-124432403D01*
X171881164Y-124424807D01*
X171683238Y-124364767D01*
X171683235Y-124364766D01*
X171500830Y-124267268D01*
X171340945Y-124136055D01*
X171209732Y-123976170D01*
X171112234Y-123793765D01*
X171087659Y-123712751D01*
X171052193Y-123595836D01*
X171031920Y-123390000D01*
X171052193Y-123184164D01*
X171112233Y-122986238D01*
X171112234Y-122986235D01*
X171209732Y-122803830D01*
X171340945Y-122643945D01*
X171500830Y-122512732D01*
X171683235Y-122415234D01*
X171683238Y-122415233D01*
X171881164Y-122355193D01*
X171958293Y-122347596D01*
X172035420Y-122340000D01*
X172388580Y-122340000D01*
X172465707Y-122347596D01*
G37*
G36*
X119327680Y-121961498D02*
G01*
X119392689Y-121974429D01*
X119574678Y-122049811D01*
X119738463Y-122159249D01*
X119877751Y-122298537D01*
X119987189Y-122462322D01*
X120062571Y-122644311D01*
X120101000Y-122837509D01*
X120101000Y-123034491D01*
X120062571Y-123227689D01*
X119987189Y-123409678D01*
X119877751Y-123573463D01*
X119738463Y-123712751D01*
X119574678Y-123822189D01*
X119392689Y-123897571D01*
X119328290Y-123910381D01*
X119199493Y-123936000D01*
X119002507Y-123936000D01*
X118873710Y-123910381D01*
X118809311Y-123897571D01*
X118627322Y-123822189D01*
X118463537Y-123712751D01*
X118324249Y-123573463D01*
X118214811Y-123409678D01*
X118139429Y-123227689D01*
X118101000Y-123034491D01*
X118101000Y-122837509D01*
X118139429Y-122644311D01*
X118214811Y-122462322D01*
X118324249Y-122298537D01*
X118463537Y-122159249D01*
X118627322Y-122049811D01*
X118809311Y-121974429D01*
X118874320Y-121961498D01*
X119002507Y-121936000D01*
X119199493Y-121936000D01*
X119327680Y-121961498D01*
G37*
G36*
X123301000Y-123936000D02*
G01*
X121301000Y-123936000D01*
X121301000Y-121936000D01*
X123301000Y-121936000D01*
X123301000Y-123936000D01*
G37*
G36*
X137479187Y-119986027D02*
G01*
X137656774Y-120021350D01*
X137847862Y-120100502D01*
X138019836Y-120215411D01*
X138166089Y-120361664D01*
X138280998Y-120533638D01*
X138360150Y-120724726D01*
X138400500Y-120927584D01*
X138400500Y-121134416D01*
X138360150Y-121337274D01*
X138280998Y-121528362D01*
X138166089Y-121700336D01*
X138019836Y-121846589D01*
X137847862Y-121961498D01*
X137656774Y-122040650D01*
X137479187Y-122075973D01*
X137453917Y-122081000D01*
X137247083Y-122081000D01*
X137221813Y-122075973D01*
X137044226Y-122040650D01*
X136853138Y-121961498D01*
X136681164Y-121846589D01*
X136534911Y-121700336D01*
X136420002Y-121528362D01*
X136340850Y-121337274D01*
X136300500Y-121134416D01*
X136300500Y-120927584D01*
X136340850Y-120724726D01*
X136420002Y-120533638D01*
X136534911Y-120361664D01*
X136681164Y-120215411D01*
X136853138Y-120100502D01*
X137044226Y-120021350D01*
X137221813Y-119986027D01*
X137247083Y-119981000D01*
X137453917Y-119981000D01*
X137479187Y-119986027D01*
G37*
G36*
X142559187Y-119986027D02*
G01*
X142736774Y-120021350D01*
X142927862Y-120100502D01*
X143099836Y-120215411D01*
X143246089Y-120361664D01*
X143360998Y-120533638D01*
X143440150Y-120724726D01*
X143480500Y-120927584D01*
X143480500Y-121134416D01*
X143440150Y-121337274D01*
X143360998Y-121528362D01*
X143246089Y-121700336D01*
X143099836Y-121846589D01*
X142927862Y-121961498D01*
X142736774Y-122040650D01*
X142559187Y-122075973D01*
X142533917Y-122081000D01*
X142327083Y-122081000D01*
X142301813Y-122075973D01*
X142124226Y-122040650D01*
X141933138Y-121961498D01*
X141761164Y-121846589D01*
X141614911Y-121700336D01*
X141500002Y-121528362D01*
X141420850Y-121337274D01*
X141380500Y-121134416D01*
X141380500Y-120927584D01*
X141420850Y-120724726D01*
X141500002Y-120533638D01*
X141614911Y-120361664D01*
X141761164Y-120215411D01*
X141933138Y-120100502D01*
X142124226Y-120021350D01*
X142301813Y-119986027D01*
X142327083Y-119981000D01*
X142533917Y-119981000D01*
X142559187Y-119986027D01*
G37*
G36*
X140019187Y-119986027D02*
G01*
X140196774Y-120021350D01*
X140387862Y-120100502D01*
X140559836Y-120215411D01*
X140706089Y-120361664D01*
X140820998Y-120533638D01*
X140900150Y-120724726D01*
X140940500Y-120927584D01*
X140940500Y-121134416D01*
X140900150Y-121337274D01*
X140820998Y-121528362D01*
X140706089Y-121700336D01*
X140559836Y-121846589D01*
X140387862Y-121961498D01*
X140196774Y-122040650D01*
X140019187Y-122075973D01*
X139993917Y-122081000D01*
X139787083Y-122081000D01*
X139761813Y-122075973D01*
X139584226Y-122040650D01*
X139393138Y-121961498D01*
X139221164Y-121846589D01*
X139074911Y-121700336D01*
X138960002Y-121528362D01*
X138880850Y-121337274D01*
X138840500Y-121134416D01*
X138840500Y-120927584D01*
X138880850Y-120724726D01*
X138960002Y-120533638D01*
X139074911Y-120361664D01*
X139221164Y-120215411D01*
X139393138Y-120100502D01*
X139584226Y-120021350D01*
X139761813Y-119986027D01*
X139787083Y-119981000D01*
X139993917Y-119981000D01*
X140019187Y-119986027D01*
G37*
G36*
X135860500Y-122081000D02*
G01*
X133760500Y-122081000D01*
X133760500Y-119981000D01*
X135860500Y-119981000D01*
X135860500Y-122081000D01*
G37*
G36*
X138304687Y-116049027D02*
G01*
X138482274Y-116084350D01*
X138673362Y-116163502D01*
X138845336Y-116278411D01*
X138991589Y-116424664D01*
X139106498Y-116596638D01*
X139185650Y-116787726D01*
X139226000Y-116990584D01*
X139226000Y-117197416D01*
X139185650Y-117400274D01*
X139106498Y-117591362D01*
X138991589Y-117763336D01*
X138845336Y-117909589D01*
X138673362Y-118024498D01*
X138482274Y-118103650D01*
X138304687Y-118138973D01*
X138279417Y-118144000D01*
X138072583Y-118144000D01*
X138047313Y-118138973D01*
X137869726Y-118103650D01*
X137678638Y-118024498D01*
X137506664Y-117909589D01*
X137360411Y-117763336D01*
X137245502Y-117591362D01*
X137166350Y-117400274D01*
X137126000Y-117197416D01*
X137126000Y-116990584D01*
X137166350Y-116787726D01*
X137245502Y-116596638D01*
X137360411Y-116424664D01*
X137506664Y-116278411D01*
X137678638Y-116163502D01*
X137869726Y-116084350D01*
X138047313Y-116049027D01*
X138072583Y-116044000D01*
X138279417Y-116044000D01*
X138304687Y-116049027D01*
G37*
G36*
X135764687Y-116049027D02*
G01*
X135942274Y-116084350D01*
X136133362Y-116163502D01*
X136305336Y-116278411D01*
X136451589Y-116424664D01*
X136566498Y-116596638D01*
X136645650Y-116787726D01*
X136686000Y-116990584D01*
X136686000Y-117197416D01*
X136645650Y-117400274D01*
X136566498Y-117591362D01*
X136451589Y-117763336D01*
X136305336Y-117909589D01*
X136133362Y-118024498D01*
X135942274Y-118103650D01*
X135764687Y-118138973D01*
X135739417Y-118144000D01*
X135532583Y-118144000D01*
X135507313Y-118138973D01*
X135329726Y-118103650D01*
X135138638Y-118024498D01*
X134966664Y-117909589D01*
X134820411Y-117763336D01*
X134705502Y-117591362D01*
X134626350Y-117400274D01*
X134586000Y-117197416D01*
X134586000Y-116990584D01*
X134626350Y-116787726D01*
X134705502Y-116596638D01*
X134820411Y-116424664D01*
X134966664Y-116278411D01*
X135138638Y-116163502D01*
X135329726Y-116084350D01*
X135507313Y-116049027D01*
X135532583Y-116044000D01*
X135739417Y-116044000D01*
X135764687Y-116049027D01*
G37*
G36*
X130684687Y-116049027D02*
G01*
X130862274Y-116084350D01*
X131053362Y-116163502D01*
X131225336Y-116278411D01*
X131371589Y-116424664D01*
X131486498Y-116596638D01*
X131565650Y-116787726D01*
X131606000Y-116990584D01*
X131606000Y-117197416D01*
X131565650Y-117400274D01*
X131486498Y-117591362D01*
X131371589Y-117763336D01*
X131225336Y-117909589D01*
X131053362Y-118024498D01*
X130862274Y-118103650D01*
X130684687Y-118138973D01*
X130659417Y-118144000D01*
X130452583Y-118144000D01*
X130427313Y-118138973D01*
X130249726Y-118103650D01*
X130058638Y-118024498D01*
X129886664Y-117909589D01*
X129740411Y-117763336D01*
X129625502Y-117591362D01*
X129546350Y-117400274D01*
X129506000Y-117197416D01*
X129506000Y-116990584D01*
X129546350Y-116787726D01*
X129625502Y-116596638D01*
X129740411Y-116424664D01*
X129886664Y-116278411D01*
X130058638Y-116163502D01*
X130249726Y-116084350D01*
X130427313Y-116049027D01*
X130452583Y-116044000D01*
X130659417Y-116044000D01*
X130684687Y-116049027D01*
G37*
G36*
X133224687Y-116049027D02*
G01*
X133402274Y-116084350D01*
X133593362Y-116163502D01*
X133765336Y-116278411D01*
X133911589Y-116424664D01*
X134026498Y-116596638D01*
X134105650Y-116787726D01*
X134146000Y-116990584D01*
X134146000Y-117197416D01*
X134105650Y-117400274D01*
X134026498Y-117591362D01*
X133911589Y-117763336D01*
X133765336Y-117909589D01*
X133593362Y-118024498D01*
X133402274Y-118103650D01*
X133224687Y-118138973D01*
X133199417Y-118144000D01*
X132992583Y-118144000D01*
X132967313Y-118138973D01*
X132789726Y-118103650D01*
X132598638Y-118024498D01*
X132426664Y-117909589D01*
X132280411Y-117763336D01*
X132165502Y-117591362D01*
X132086350Y-117400274D01*
X132046000Y-117197416D01*
X132046000Y-116990584D01*
X132086350Y-116787726D01*
X132165502Y-116596638D01*
X132280411Y-116424664D01*
X132426664Y-116278411D01*
X132598638Y-116163502D01*
X132789726Y-116084350D01*
X132967313Y-116049027D01*
X132992583Y-116044000D01*
X133199417Y-116044000D01*
X133224687Y-116049027D01*
G37*
G36*
X163704687Y-116049027D02*
G01*
X163882274Y-116084350D01*
X164073362Y-116163502D01*
X164245336Y-116278411D01*
X164391589Y-116424664D01*
X164506498Y-116596638D01*
X164585650Y-116787726D01*
X164626000Y-116990584D01*
X164626000Y-117197416D01*
X164585650Y-117400274D01*
X164506498Y-117591362D01*
X164391589Y-117763336D01*
X164245336Y-117909589D01*
X164073362Y-118024498D01*
X163882274Y-118103650D01*
X163704687Y-118138973D01*
X163679417Y-118144000D01*
X163472583Y-118144000D01*
X163447313Y-118138973D01*
X163269726Y-118103650D01*
X163078638Y-118024498D01*
X162906664Y-117909589D01*
X162760411Y-117763336D01*
X162645502Y-117591362D01*
X162566350Y-117400274D01*
X162526000Y-117197416D01*
X162526000Y-116990584D01*
X162566350Y-116787726D01*
X162645502Y-116596638D01*
X162760411Y-116424664D01*
X162906664Y-116278411D01*
X163078638Y-116163502D01*
X163269726Y-116084350D01*
X163447313Y-116049027D01*
X163472583Y-116044000D01*
X163679417Y-116044000D01*
X163704687Y-116049027D01*
G37*
G36*
X161164687Y-116049027D02*
G01*
X161342274Y-116084350D01*
X161533362Y-116163502D01*
X161705336Y-116278411D01*
X161851589Y-116424664D01*
X161966498Y-116596638D01*
X162045650Y-116787726D01*
X162086000Y-116990584D01*
X162086000Y-117197416D01*
X162045650Y-117400274D01*
X161966498Y-117591362D01*
X161851589Y-117763336D01*
X161705336Y-117909589D01*
X161533362Y-118024498D01*
X161342274Y-118103650D01*
X161164687Y-118138973D01*
X161139417Y-118144000D01*
X160932583Y-118144000D01*
X160907313Y-118138973D01*
X160729726Y-118103650D01*
X160538638Y-118024498D01*
X160366664Y-117909589D01*
X160220411Y-117763336D01*
X160105502Y-117591362D01*
X160026350Y-117400274D01*
X159986000Y-117197416D01*
X159986000Y-116990584D01*
X160026350Y-116787726D01*
X160105502Y-116596638D01*
X160220411Y-116424664D01*
X160366664Y-116278411D01*
X160538638Y-116163502D01*
X160729726Y-116084350D01*
X160907313Y-116049027D01*
X160932583Y-116044000D01*
X161139417Y-116044000D01*
X161164687Y-116049027D01*
G37*
G36*
X158624687Y-116049027D02*
G01*
X158802274Y-116084350D01*
X158993362Y-116163502D01*
X159165336Y-116278411D01*
X159311589Y-116424664D01*
X159426498Y-116596638D01*
X159505650Y-116787726D01*
X159546000Y-116990584D01*
X159546000Y-117197416D01*
X159505650Y-117400274D01*
X159426498Y-117591362D01*
X159311589Y-117763336D01*
X159165336Y-117909589D01*
X158993362Y-118024498D01*
X158802274Y-118103650D01*
X158624687Y-118138973D01*
X158599417Y-118144000D01*
X158392583Y-118144000D01*
X158367313Y-118138973D01*
X158189726Y-118103650D01*
X157998638Y-118024498D01*
X157826664Y-117909589D01*
X157680411Y-117763336D01*
X157565502Y-117591362D01*
X157486350Y-117400274D01*
X157446000Y-117197416D01*
X157446000Y-116990584D01*
X157486350Y-116787726D01*
X157565502Y-116596638D01*
X157680411Y-116424664D01*
X157826664Y-116278411D01*
X157998638Y-116163502D01*
X158189726Y-116084350D01*
X158367313Y-116049027D01*
X158392583Y-116044000D01*
X158599417Y-116044000D01*
X158624687Y-116049027D01*
G37*
G36*
X156084687Y-116049027D02*
G01*
X156262274Y-116084350D01*
X156453362Y-116163502D01*
X156625336Y-116278411D01*
X156771589Y-116424664D01*
X156886498Y-116596638D01*
X156965650Y-116787726D01*
X157006000Y-116990584D01*
X157006000Y-117197416D01*
X156965650Y-117400274D01*
X156886498Y-117591362D01*
X156771589Y-117763336D01*
X156625336Y-117909589D01*
X156453362Y-118024498D01*
X156262274Y-118103650D01*
X156084687Y-118138973D01*
X156059417Y-118144000D01*
X155852583Y-118144000D01*
X155827313Y-118138973D01*
X155649726Y-118103650D01*
X155458638Y-118024498D01*
X155286664Y-117909589D01*
X155140411Y-117763336D01*
X155025502Y-117591362D01*
X154946350Y-117400274D01*
X154906000Y-117197416D01*
X154906000Y-116990584D01*
X154946350Y-116787726D01*
X155025502Y-116596638D01*
X155140411Y-116424664D01*
X155286664Y-116278411D01*
X155458638Y-116163502D01*
X155649726Y-116084350D01*
X155827313Y-116049027D01*
X155852583Y-116044000D01*
X156059417Y-116044000D01*
X156084687Y-116049027D01*
G37*
G36*
X153544687Y-116049027D02*
G01*
X153722274Y-116084350D01*
X153913362Y-116163502D01*
X154085336Y-116278411D01*
X154231589Y-116424664D01*
X154346498Y-116596638D01*
X154425650Y-116787726D01*
X154466000Y-116990584D01*
X154466000Y-117197416D01*
X154425650Y-117400274D01*
X154346498Y-117591362D01*
X154231589Y-117763336D01*
X154085336Y-117909589D01*
X153913362Y-118024498D01*
X153722274Y-118103650D01*
X153544687Y-118138973D01*
X153519417Y-118144000D01*
X153312583Y-118144000D01*
X153287313Y-118138973D01*
X153109726Y-118103650D01*
X152918638Y-118024498D01*
X152746664Y-117909589D01*
X152600411Y-117763336D01*
X152485502Y-117591362D01*
X152406350Y-117400274D01*
X152366000Y-117197416D01*
X152366000Y-116990584D01*
X152406350Y-116787726D01*
X152485502Y-116596638D01*
X152600411Y-116424664D01*
X152746664Y-116278411D01*
X152918638Y-116163502D01*
X153109726Y-116084350D01*
X153287313Y-116049027D01*
X153312583Y-116044000D01*
X153519417Y-116044000D01*
X153544687Y-116049027D01*
G37*
G36*
X151004687Y-116049027D02*
G01*
X151182274Y-116084350D01*
X151373362Y-116163502D01*
X151545336Y-116278411D01*
X151691589Y-116424664D01*
X151806498Y-116596638D01*
X151885650Y-116787726D01*
X151926000Y-116990584D01*
X151926000Y-117197416D01*
X151885650Y-117400274D01*
X151806498Y-117591362D01*
X151691589Y-117763336D01*
X151545336Y-117909589D01*
X151373362Y-118024498D01*
X151182274Y-118103650D01*
X151004687Y-118138973D01*
X150979417Y-118144000D01*
X150772583Y-118144000D01*
X150747313Y-118138973D01*
X150569726Y-118103650D01*
X150378638Y-118024498D01*
X150206664Y-117909589D01*
X150060411Y-117763336D01*
X149945502Y-117591362D01*
X149866350Y-117400274D01*
X149826000Y-117197416D01*
X149826000Y-116990584D01*
X149866350Y-116787726D01*
X149945502Y-116596638D01*
X150060411Y-116424664D01*
X150206664Y-116278411D01*
X150378638Y-116163502D01*
X150569726Y-116084350D01*
X150747313Y-116049027D01*
X150772583Y-116044000D01*
X150979417Y-116044000D01*
X151004687Y-116049027D01*
G37*
G36*
X148464687Y-116049027D02*
G01*
X148642274Y-116084350D01*
X148833362Y-116163502D01*
X149005336Y-116278411D01*
X149151589Y-116424664D01*
X149266498Y-116596638D01*
X149345650Y-116787726D01*
X149386000Y-116990584D01*
X149386000Y-117197416D01*
X149345650Y-117400274D01*
X149266498Y-117591362D01*
X149151589Y-117763336D01*
X149005336Y-117909589D01*
X148833362Y-118024498D01*
X148642274Y-118103650D01*
X148464687Y-118138973D01*
X148439417Y-118144000D01*
X148232583Y-118144000D01*
X148207313Y-118138973D01*
X148029726Y-118103650D01*
X147838638Y-118024498D01*
X147666664Y-117909589D01*
X147520411Y-117763336D01*
X147405502Y-117591362D01*
X147326350Y-117400274D01*
X147286000Y-117197416D01*
X147286000Y-116990584D01*
X147326350Y-116787726D01*
X147405502Y-116596638D01*
X147520411Y-116424664D01*
X147666664Y-116278411D01*
X147838638Y-116163502D01*
X148029726Y-116084350D01*
X148207313Y-116049027D01*
X148232583Y-116044000D01*
X148439417Y-116044000D01*
X148464687Y-116049027D01*
G37*
G36*
X145924687Y-116049027D02*
G01*
X146102274Y-116084350D01*
X146293362Y-116163502D01*
X146465336Y-116278411D01*
X146611589Y-116424664D01*
X146726498Y-116596638D01*
X146805650Y-116787726D01*
X146846000Y-116990584D01*
X146846000Y-117197416D01*
X146805650Y-117400274D01*
X146726498Y-117591362D01*
X146611589Y-117763336D01*
X146465336Y-117909589D01*
X146293362Y-118024498D01*
X146102274Y-118103650D01*
X145924687Y-118138973D01*
X145899417Y-118144000D01*
X145692583Y-118144000D01*
X145667313Y-118138973D01*
X145489726Y-118103650D01*
X145298638Y-118024498D01*
X145126664Y-117909589D01*
X144980411Y-117763336D01*
X144865502Y-117591362D01*
X144786350Y-117400274D01*
X144746000Y-117197416D01*
X144746000Y-116990584D01*
X144786350Y-116787726D01*
X144865502Y-116596638D01*
X144980411Y-116424664D01*
X145126664Y-116278411D01*
X145298638Y-116163502D01*
X145489726Y-116084350D01*
X145667313Y-116049027D01*
X145692583Y-116044000D01*
X145899417Y-116044000D01*
X145924687Y-116049027D01*
G37*
G36*
X143384687Y-116049027D02*
G01*
X143562274Y-116084350D01*
X143753362Y-116163502D01*
X143925336Y-116278411D01*
X144071589Y-116424664D01*
X144186498Y-116596638D01*
X144265650Y-116787726D01*
X144306000Y-116990584D01*
X144306000Y-117197416D01*
X144265650Y-117400274D01*
X144186498Y-117591362D01*
X144071589Y-117763336D01*
X143925336Y-117909589D01*
X143753362Y-118024498D01*
X143562274Y-118103650D01*
X143384687Y-118138973D01*
X143359417Y-118144000D01*
X143152583Y-118144000D01*
X143127313Y-118138973D01*
X142949726Y-118103650D01*
X142758638Y-118024498D01*
X142586664Y-117909589D01*
X142440411Y-117763336D01*
X142325502Y-117591362D01*
X142246350Y-117400274D01*
X142206000Y-117197416D01*
X142206000Y-116990584D01*
X142246350Y-116787726D01*
X142325502Y-116596638D01*
X142440411Y-116424664D01*
X142586664Y-116278411D01*
X142758638Y-116163502D01*
X142949726Y-116084350D01*
X143127313Y-116049027D01*
X143152583Y-116044000D01*
X143359417Y-116044000D01*
X143384687Y-116049027D01*
G37*
G36*
X129066000Y-118144000D02*
G01*
X126966000Y-118144000D01*
X126966000Y-116044000D01*
X129066000Y-116044000D01*
X129066000Y-118144000D01*
G37*
G36*
X140844687Y-116049027D02*
G01*
X141022274Y-116084350D01*
X141213362Y-116163502D01*
X141385336Y-116278411D01*
X141531589Y-116424664D01*
X141646498Y-116596638D01*
X141725650Y-116787726D01*
X141766000Y-116990584D01*
X141766000Y-117197416D01*
X141725650Y-117400274D01*
X141646498Y-117591362D01*
X141531589Y-117763336D01*
X141385336Y-117909589D01*
X141213362Y-118024498D01*
X141022274Y-118103650D01*
X140844687Y-118138973D01*
X140819417Y-118144000D01*
X140612583Y-118144000D01*
X140587313Y-118138973D01*
X140409726Y-118103650D01*
X140218638Y-118024498D01*
X140046664Y-117909589D01*
X139900411Y-117763336D01*
X139785502Y-117591362D01*
X139706350Y-117400274D01*
X139666000Y-117197416D01*
X139666000Y-116990584D01*
X139706350Y-116787726D01*
X139785502Y-116596638D01*
X139900411Y-116424664D01*
X140046664Y-116278411D01*
X140218638Y-116163502D01*
X140409726Y-116084350D01*
X140587313Y-116049027D01*
X140612583Y-116044000D01*
X140819417Y-116044000D01*
X140844687Y-116049027D01*
G37*
M02*
