%TF.GenerationSoftware,KiCad,Pcbnew,(5.1.5)-3*%
%TF.CreationDate,2021-02-13T19:55:16+01:00*%
%TF.ProjectId,PSACANBridgeHW_v11,50534156-616e-4436-916e-427269646765,rev?*%
%TF.SameCoordinates,Original*%
%TF.FileFunction,Soldermask,Top*%
%TF.FilePolarity,Negative*%
%FSLAX46Y46*%
G04 Gerber Fmt 4.6, Leading zero omitted, Abs format (unit mm)*
G04 Created by KiCad (PCBNEW (5.1.5)-3) date 2021-02-13 19:55:16*
%MOMM*%
%LPD*%
G04 APERTURE LIST*
%ADD10C,0.100000*%
G04 APERTURE END LIST*
D10*
G36*
X128144687Y-141449027D02*
G01*
X128322274Y-141484350D01*
X128513362Y-141563502D01*
X128685336Y-141678411D01*
X128831589Y-141824664D01*
X128946498Y-141996638D01*
X129025650Y-142187726D01*
X129066000Y-142390584D01*
X129066000Y-142597416D01*
X129025650Y-142800274D01*
X128946498Y-142991362D01*
X128831589Y-143163336D01*
X128685336Y-143309589D01*
X128513362Y-143424498D01*
X128322274Y-143503650D01*
X128144687Y-143538973D01*
X128119417Y-143544000D01*
X127912583Y-143544000D01*
X127887313Y-143538973D01*
X127709726Y-143503650D01*
X127518638Y-143424498D01*
X127346664Y-143309589D01*
X127200411Y-143163336D01*
X127085502Y-142991362D01*
X127006350Y-142800274D01*
X126966000Y-142597416D01*
X126966000Y-142390584D01*
X127006350Y-142187726D01*
X127085502Y-141996638D01*
X127200411Y-141824664D01*
X127346664Y-141678411D01*
X127518638Y-141563502D01*
X127709726Y-141484350D01*
X127887313Y-141449027D01*
X127912583Y-141444000D01*
X128119417Y-141444000D01*
X128144687Y-141449027D01*
G37*
G36*
X148464687Y-141449027D02*
G01*
X148642274Y-141484350D01*
X148833362Y-141563502D01*
X149005336Y-141678411D01*
X149151589Y-141824664D01*
X149266498Y-141996638D01*
X149345650Y-142187726D01*
X149386000Y-142390584D01*
X149386000Y-142597416D01*
X149345650Y-142800274D01*
X149266498Y-142991362D01*
X149151589Y-143163336D01*
X149005336Y-143309589D01*
X148833362Y-143424498D01*
X148642274Y-143503650D01*
X148464687Y-143538973D01*
X148439417Y-143544000D01*
X148232583Y-143544000D01*
X148207313Y-143538973D01*
X148029726Y-143503650D01*
X147838638Y-143424498D01*
X147666664Y-143309589D01*
X147520411Y-143163336D01*
X147405502Y-142991362D01*
X147326350Y-142800274D01*
X147286000Y-142597416D01*
X147286000Y-142390584D01*
X147326350Y-142187726D01*
X147405502Y-141996638D01*
X147520411Y-141824664D01*
X147666664Y-141678411D01*
X147838638Y-141563502D01*
X148029726Y-141484350D01*
X148207313Y-141449027D01*
X148232583Y-141444000D01*
X148439417Y-141444000D01*
X148464687Y-141449027D01*
G37*
G36*
X163704687Y-141449027D02*
G01*
X163882274Y-141484350D01*
X164073362Y-141563502D01*
X164245336Y-141678411D01*
X164391589Y-141824664D01*
X164506498Y-141996638D01*
X164585650Y-142187726D01*
X164626000Y-142390584D01*
X164626000Y-142597416D01*
X164585650Y-142800274D01*
X164506498Y-142991362D01*
X164391589Y-143163336D01*
X164245336Y-143309589D01*
X164073362Y-143424498D01*
X163882274Y-143503650D01*
X163704687Y-143538973D01*
X163679417Y-143544000D01*
X163472583Y-143544000D01*
X163447313Y-143538973D01*
X163269726Y-143503650D01*
X163078638Y-143424498D01*
X162906664Y-143309589D01*
X162760411Y-143163336D01*
X162645502Y-142991362D01*
X162566350Y-142800274D01*
X162526000Y-142597416D01*
X162526000Y-142390584D01*
X162566350Y-142187726D01*
X162645502Y-141996638D01*
X162760411Y-141824664D01*
X162906664Y-141678411D01*
X163078638Y-141563502D01*
X163269726Y-141484350D01*
X163447313Y-141449027D01*
X163472583Y-141444000D01*
X163679417Y-141444000D01*
X163704687Y-141449027D01*
G37*
G36*
X158624687Y-141449027D02*
G01*
X158802274Y-141484350D01*
X158993362Y-141563502D01*
X159165336Y-141678411D01*
X159311589Y-141824664D01*
X159426498Y-141996638D01*
X159505650Y-142187726D01*
X159546000Y-142390584D01*
X159546000Y-142597416D01*
X159505650Y-142800274D01*
X159426498Y-142991362D01*
X159311589Y-143163336D01*
X159165336Y-143309589D01*
X158993362Y-143424498D01*
X158802274Y-143503650D01*
X158624687Y-143538973D01*
X158599417Y-143544000D01*
X158392583Y-143544000D01*
X158367313Y-143538973D01*
X158189726Y-143503650D01*
X157998638Y-143424498D01*
X157826664Y-143309589D01*
X157680411Y-143163336D01*
X157565502Y-142991362D01*
X157486350Y-142800274D01*
X157446000Y-142597416D01*
X157446000Y-142390584D01*
X157486350Y-142187726D01*
X157565502Y-141996638D01*
X157680411Y-141824664D01*
X157826664Y-141678411D01*
X157998638Y-141563502D01*
X158189726Y-141484350D01*
X158367313Y-141449027D01*
X158392583Y-141444000D01*
X158599417Y-141444000D01*
X158624687Y-141449027D01*
G37*
G36*
X156084687Y-141449027D02*
G01*
X156262274Y-141484350D01*
X156453362Y-141563502D01*
X156625336Y-141678411D01*
X156771589Y-141824664D01*
X156886498Y-141996638D01*
X156965650Y-142187726D01*
X157006000Y-142390584D01*
X157006000Y-142597416D01*
X156965650Y-142800274D01*
X156886498Y-142991362D01*
X156771589Y-143163336D01*
X156625336Y-143309589D01*
X156453362Y-143424498D01*
X156262274Y-143503650D01*
X156084687Y-143538973D01*
X156059417Y-143544000D01*
X155852583Y-143544000D01*
X155827313Y-143538973D01*
X155649726Y-143503650D01*
X155458638Y-143424498D01*
X155286664Y-143309589D01*
X155140411Y-143163336D01*
X155025502Y-142991362D01*
X154946350Y-142800274D01*
X154906000Y-142597416D01*
X154906000Y-142390584D01*
X154946350Y-142187726D01*
X155025502Y-141996638D01*
X155140411Y-141824664D01*
X155286664Y-141678411D01*
X155458638Y-141563502D01*
X155649726Y-141484350D01*
X155827313Y-141449027D01*
X155852583Y-141444000D01*
X156059417Y-141444000D01*
X156084687Y-141449027D01*
G37*
G36*
X153544687Y-141449027D02*
G01*
X153722274Y-141484350D01*
X153913362Y-141563502D01*
X154085336Y-141678411D01*
X154231589Y-141824664D01*
X154346498Y-141996638D01*
X154425650Y-142187726D01*
X154466000Y-142390584D01*
X154466000Y-142597416D01*
X154425650Y-142800274D01*
X154346498Y-142991362D01*
X154231589Y-143163336D01*
X154085336Y-143309589D01*
X153913362Y-143424498D01*
X153722274Y-143503650D01*
X153544687Y-143538973D01*
X153519417Y-143544000D01*
X153312583Y-143544000D01*
X153287313Y-143538973D01*
X153109726Y-143503650D01*
X152918638Y-143424498D01*
X152746664Y-143309589D01*
X152600411Y-143163336D01*
X152485502Y-142991362D01*
X152406350Y-142800274D01*
X152366000Y-142597416D01*
X152366000Y-142390584D01*
X152406350Y-142187726D01*
X152485502Y-141996638D01*
X152600411Y-141824664D01*
X152746664Y-141678411D01*
X152918638Y-141563502D01*
X153109726Y-141484350D01*
X153287313Y-141449027D01*
X153312583Y-141444000D01*
X153519417Y-141444000D01*
X153544687Y-141449027D01*
G37*
G36*
X151004687Y-141449027D02*
G01*
X151182274Y-141484350D01*
X151373362Y-141563502D01*
X151545336Y-141678411D01*
X151691589Y-141824664D01*
X151806498Y-141996638D01*
X151885650Y-142187726D01*
X151926000Y-142390584D01*
X151926000Y-142597416D01*
X151885650Y-142800274D01*
X151806498Y-142991362D01*
X151691589Y-143163336D01*
X151545336Y-143309589D01*
X151373362Y-143424498D01*
X151182274Y-143503650D01*
X151004687Y-143538973D01*
X150979417Y-143544000D01*
X150772583Y-143544000D01*
X150747313Y-143538973D01*
X150569726Y-143503650D01*
X150378638Y-143424498D01*
X150206664Y-143309589D01*
X150060411Y-143163336D01*
X149945502Y-142991362D01*
X149866350Y-142800274D01*
X149826000Y-142597416D01*
X149826000Y-142390584D01*
X149866350Y-142187726D01*
X149945502Y-141996638D01*
X150060411Y-141824664D01*
X150206664Y-141678411D01*
X150378638Y-141563502D01*
X150569726Y-141484350D01*
X150747313Y-141449027D01*
X150772583Y-141444000D01*
X150979417Y-141444000D01*
X151004687Y-141449027D01*
G37*
G36*
X161164687Y-141449027D02*
G01*
X161342274Y-141484350D01*
X161533362Y-141563502D01*
X161705336Y-141678411D01*
X161851589Y-141824664D01*
X161966498Y-141996638D01*
X162045650Y-142187726D01*
X162086000Y-142390584D01*
X162086000Y-142597416D01*
X162045650Y-142800274D01*
X161966498Y-142991362D01*
X161851589Y-143163336D01*
X161705336Y-143309589D01*
X161533362Y-143424498D01*
X161342274Y-143503650D01*
X161164687Y-143538973D01*
X161139417Y-143544000D01*
X160932583Y-143544000D01*
X160907313Y-143538973D01*
X160729726Y-143503650D01*
X160538638Y-143424498D01*
X160366664Y-143309589D01*
X160220411Y-143163336D01*
X160105502Y-142991362D01*
X160026350Y-142800274D01*
X159986000Y-142597416D01*
X159986000Y-142390584D01*
X160026350Y-142187726D01*
X160105502Y-141996638D01*
X160220411Y-141824664D01*
X160366664Y-141678411D01*
X160538638Y-141563502D01*
X160729726Y-141484350D01*
X160907313Y-141449027D01*
X160932583Y-141444000D01*
X161139417Y-141444000D01*
X161164687Y-141449027D01*
G37*
G36*
X143384687Y-141449027D02*
G01*
X143562274Y-141484350D01*
X143753362Y-141563502D01*
X143925336Y-141678411D01*
X144071589Y-141824664D01*
X144186498Y-141996638D01*
X144265650Y-142187726D01*
X144306000Y-142390584D01*
X144306000Y-142597416D01*
X144265650Y-142800274D01*
X144186498Y-142991362D01*
X144071589Y-143163336D01*
X143925336Y-143309589D01*
X143753362Y-143424498D01*
X143562274Y-143503650D01*
X143384687Y-143538973D01*
X143359417Y-143544000D01*
X143152583Y-143544000D01*
X143127313Y-143538973D01*
X142949726Y-143503650D01*
X142758638Y-143424498D01*
X142586664Y-143309589D01*
X142440411Y-143163336D01*
X142325502Y-142991362D01*
X142246350Y-142800274D01*
X142206000Y-142597416D01*
X142206000Y-142390584D01*
X142246350Y-142187726D01*
X142325502Y-141996638D01*
X142440411Y-141824664D01*
X142586664Y-141678411D01*
X142758638Y-141563502D01*
X142949726Y-141484350D01*
X143127313Y-141449027D01*
X143152583Y-141444000D01*
X143359417Y-141444000D01*
X143384687Y-141449027D01*
G37*
G36*
X140844687Y-141449027D02*
G01*
X141022274Y-141484350D01*
X141213362Y-141563502D01*
X141385336Y-141678411D01*
X141531589Y-141824664D01*
X141646498Y-141996638D01*
X141725650Y-142187726D01*
X141766000Y-142390584D01*
X141766000Y-142597416D01*
X141725650Y-142800274D01*
X141646498Y-142991362D01*
X141531589Y-143163336D01*
X141385336Y-143309589D01*
X141213362Y-143424498D01*
X141022274Y-143503650D01*
X140844687Y-143538973D01*
X140819417Y-143544000D01*
X140612583Y-143544000D01*
X140587313Y-143538973D01*
X140409726Y-143503650D01*
X140218638Y-143424498D01*
X140046664Y-143309589D01*
X139900411Y-143163336D01*
X139785502Y-142991362D01*
X139706350Y-142800274D01*
X139666000Y-142597416D01*
X139666000Y-142390584D01*
X139706350Y-142187726D01*
X139785502Y-141996638D01*
X139900411Y-141824664D01*
X140046664Y-141678411D01*
X140218638Y-141563502D01*
X140409726Y-141484350D01*
X140587313Y-141449027D01*
X140612583Y-141444000D01*
X140819417Y-141444000D01*
X140844687Y-141449027D01*
G37*
G36*
X138304687Y-141449027D02*
G01*
X138482274Y-141484350D01*
X138673362Y-141563502D01*
X138845336Y-141678411D01*
X138991589Y-141824664D01*
X139106498Y-141996638D01*
X139185650Y-142187726D01*
X139226000Y-142390584D01*
X139226000Y-142597416D01*
X139185650Y-142800274D01*
X139106498Y-142991362D01*
X138991589Y-143163336D01*
X138845336Y-143309589D01*
X138673362Y-143424498D01*
X138482274Y-143503650D01*
X138304687Y-143538973D01*
X138279417Y-143544000D01*
X138072583Y-143544000D01*
X138047313Y-143538973D01*
X137869726Y-143503650D01*
X137678638Y-143424498D01*
X137506664Y-143309589D01*
X137360411Y-143163336D01*
X137245502Y-142991362D01*
X137166350Y-142800274D01*
X137126000Y-142597416D01*
X137126000Y-142390584D01*
X137166350Y-142187726D01*
X137245502Y-141996638D01*
X137360411Y-141824664D01*
X137506664Y-141678411D01*
X137678638Y-141563502D01*
X137869726Y-141484350D01*
X138047313Y-141449027D01*
X138072583Y-141444000D01*
X138279417Y-141444000D01*
X138304687Y-141449027D01*
G37*
G36*
X135764687Y-141449027D02*
G01*
X135942274Y-141484350D01*
X136133362Y-141563502D01*
X136305336Y-141678411D01*
X136451589Y-141824664D01*
X136566498Y-141996638D01*
X136645650Y-142187726D01*
X136686000Y-142390584D01*
X136686000Y-142597416D01*
X136645650Y-142800274D01*
X136566498Y-142991362D01*
X136451589Y-143163336D01*
X136305336Y-143309589D01*
X136133362Y-143424498D01*
X135942274Y-143503650D01*
X135764687Y-143538973D01*
X135739417Y-143544000D01*
X135532583Y-143544000D01*
X135507313Y-143538973D01*
X135329726Y-143503650D01*
X135138638Y-143424498D01*
X134966664Y-143309589D01*
X134820411Y-143163336D01*
X134705502Y-142991362D01*
X134626350Y-142800274D01*
X134586000Y-142597416D01*
X134586000Y-142390584D01*
X134626350Y-142187726D01*
X134705502Y-141996638D01*
X134820411Y-141824664D01*
X134966664Y-141678411D01*
X135138638Y-141563502D01*
X135329726Y-141484350D01*
X135507313Y-141449027D01*
X135532583Y-141444000D01*
X135739417Y-141444000D01*
X135764687Y-141449027D01*
G37*
G36*
X133224687Y-141449027D02*
G01*
X133402274Y-141484350D01*
X133593362Y-141563502D01*
X133765336Y-141678411D01*
X133911589Y-141824664D01*
X134026498Y-141996638D01*
X134105650Y-142187726D01*
X134146000Y-142390584D01*
X134146000Y-142597416D01*
X134105650Y-142800274D01*
X134026498Y-142991362D01*
X133911589Y-143163336D01*
X133765336Y-143309589D01*
X133593362Y-143424498D01*
X133402274Y-143503650D01*
X133224687Y-143538973D01*
X133199417Y-143544000D01*
X132992583Y-143544000D01*
X132967313Y-143538973D01*
X132789726Y-143503650D01*
X132598638Y-143424498D01*
X132426664Y-143309589D01*
X132280411Y-143163336D01*
X132165502Y-142991362D01*
X132086350Y-142800274D01*
X132046000Y-142597416D01*
X132046000Y-142390584D01*
X132086350Y-142187726D01*
X132165502Y-141996638D01*
X132280411Y-141824664D01*
X132426664Y-141678411D01*
X132598638Y-141563502D01*
X132789726Y-141484350D01*
X132967313Y-141449027D01*
X132992583Y-141444000D01*
X133199417Y-141444000D01*
X133224687Y-141449027D01*
G37*
G36*
X130684687Y-141449027D02*
G01*
X130862274Y-141484350D01*
X131053362Y-141563502D01*
X131225336Y-141678411D01*
X131371589Y-141824664D01*
X131486498Y-141996638D01*
X131565650Y-142187726D01*
X131606000Y-142390584D01*
X131606000Y-142597416D01*
X131565650Y-142800274D01*
X131486498Y-142991362D01*
X131371589Y-143163336D01*
X131225336Y-143309589D01*
X131053362Y-143424498D01*
X130862274Y-143503650D01*
X130684687Y-143538973D01*
X130659417Y-143544000D01*
X130452583Y-143544000D01*
X130427313Y-143538973D01*
X130249726Y-143503650D01*
X130058638Y-143424498D01*
X129886664Y-143309589D01*
X129740411Y-143163336D01*
X129625502Y-142991362D01*
X129546350Y-142800274D01*
X129506000Y-142597416D01*
X129506000Y-142390584D01*
X129546350Y-142187726D01*
X129625502Y-141996638D01*
X129740411Y-141824664D01*
X129886664Y-141678411D01*
X130058638Y-141563502D01*
X130249726Y-141484350D01*
X130427313Y-141449027D01*
X130452583Y-141444000D01*
X130659417Y-141444000D01*
X130684687Y-141449027D01*
G37*
G36*
X145924687Y-141449027D02*
G01*
X146102274Y-141484350D01*
X146293362Y-141563502D01*
X146465336Y-141678411D01*
X146611589Y-141824664D01*
X146726498Y-141996638D01*
X146805650Y-142187726D01*
X146846000Y-142390584D01*
X146846000Y-142597416D01*
X146805650Y-142800274D01*
X146726498Y-142991362D01*
X146611589Y-143163336D01*
X146465336Y-143309589D01*
X146293362Y-143424498D01*
X146102274Y-143503650D01*
X145924687Y-143538973D01*
X145899417Y-143544000D01*
X145692583Y-143544000D01*
X145667313Y-143538973D01*
X145489726Y-143503650D01*
X145298638Y-143424498D01*
X145126664Y-143309589D01*
X144980411Y-143163336D01*
X144865502Y-142991362D01*
X144786350Y-142800274D01*
X144746000Y-142597416D01*
X144746000Y-142390584D01*
X144786350Y-142187726D01*
X144865502Y-141996638D01*
X144980411Y-141824664D01*
X145126664Y-141678411D01*
X145298638Y-141563502D01*
X145489726Y-141484350D01*
X145667313Y-141449027D01*
X145692583Y-141444000D01*
X145899417Y-141444000D01*
X145924687Y-141449027D01*
G37*
G36*
X123199530Y-140300877D02*
G01*
X123251010Y-140316493D01*
X123298445Y-140341848D01*
X123340027Y-140375973D01*
X123374152Y-140417555D01*
X123399507Y-140464990D01*
X123415123Y-140516470D01*
X123421000Y-140576140D01*
X123421000Y-141363860D01*
X123415123Y-141423530D01*
X123399507Y-141475010D01*
X123374152Y-141522445D01*
X123340027Y-141564027D01*
X123298445Y-141598152D01*
X123251010Y-141623507D01*
X123199530Y-141639123D01*
X123139860Y-141645000D01*
X122252140Y-141645000D01*
X122192470Y-141639123D01*
X122140990Y-141623507D01*
X122093555Y-141598152D01*
X122051973Y-141564027D01*
X122017848Y-141522445D01*
X121992493Y-141475010D01*
X121976877Y-141423530D01*
X121971000Y-141363860D01*
X121971000Y-140576140D01*
X121976877Y-140516470D01*
X121992493Y-140464990D01*
X122017848Y-140417555D01*
X122051973Y-140375973D01*
X122093555Y-140341848D01*
X122140990Y-140316493D01*
X122192470Y-140300877D01*
X122252140Y-140295000D01*
X123139860Y-140295000D01*
X123199530Y-140300877D01*
G37*
G36*
X124949530Y-140300877D02*
G01*
X125001010Y-140316493D01*
X125048445Y-140341848D01*
X125090027Y-140375973D01*
X125124152Y-140417555D01*
X125149507Y-140464990D01*
X125165123Y-140516470D01*
X125171000Y-140576140D01*
X125171000Y-141363860D01*
X125165123Y-141423530D01*
X125149507Y-141475010D01*
X125124152Y-141522445D01*
X125090027Y-141564027D01*
X125048445Y-141598152D01*
X125001010Y-141623507D01*
X124949530Y-141639123D01*
X124889860Y-141645000D01*
X124002140Y-141645000D01*
X123942470Y-141639123D01*
X123890990Y-141623507D01*
X123843555Y-141598152D01*
X123801973Y-141564027D01*
X123767848Y-141522445D01*
X123742493Y-141475010D01*
X123726877Y-141423530D01*
X123721000Y-141363860D01*
X123721000Y-140576140D01*
X123726877Y-140516470D01*
X123742493Y-140464990D01*
X123767848Y-140417555D01*
X123801973Y-140375973D01*
X123843555Y-140341848D01*
X123890990Y-140316493D01*
X123942470Y-140300877D01*
X124002140Y-140295000D01*
X124889860Y-140295000D01*
X124949530Y-140300877D01*
G37*
G36*
X124758067Y-137840076D02*
G01*
X124801728Y-137853320D01*
X124841964Y-137874827D01*
X124877231Y-137903769D01*
X124906173Y-137939036D01*
X124927680Y-137979272D01*
X124940924Y-138022933D01*
X124946000Y-138074474D01*
X124946000Y-139495526D01*
X124940924Y-139547067D01*
X124927680Y-139590728D01*
X124906173Y-139630964D01*
X124877231Y-139666231D01*
X124841964Y-139695173D01*
X124801728Y-139716680D01*
X124758067Y-139729924D01*
X124706526Y-139735000D01*
X122435474Y-139735000D01*
X122383933Y-139729924D01*
X122340272Y-139716680D01*
X122300036Y-139695173D01*
X122264769Y-139666231D01*
X122235827Y-139630964D01*
X122214320Y-139590728D01*
X122201076Y-139547067D01*
X122196000Y-139495526D01*
X122196000Y-138074474D01*
X122201076Y-138022933D01*
X122214320Y-137979272D01*
X122235827Y-137939036D01*
X122264769Y-137903769D01*
X122300036Y-137874827D01*
X122340272Y-137853320D01*
X122383933Y-137840076D01*
X122435474Y-137835000D01*
X124706526Y-137835000D01*
X124758067Y-137840076D01*
G37*
G36*
X121115000Y-139721000D02*
G01*
X118915000Y-139721000D01*
X118915000Y-136821000D01*
X121115000Y-136821000D01*
X121115000Y-139721000D01*
G37*
G36*
X146283963Y-138696196D02*
G01*
X146319021Y-138706831D01*
X146351332Y-138724102D01*
X146379655Y-138747345D01*
X146402898Y-138775668D01*
X146420169Y-138807979D01*
X146430804Y-138843037D01*
X146435000Y-138885641D01*
X146435000Y-139498359D01*
X146430804Y-139540963D01*
X146420169Y-139576021D01*
X146402898Y-139608332D01*
X146379655Y-139636655D01*
X146351332Y-139659898D01*
X146319021Y-139677169D01*
X146283963Y-139687804D01*
X146241359Y-139692000D01*
X144178641Y-139692000D01*
X144136037Y-139687804D01*
X144100979Y-139677169D01*
X144068668Y-139659898D01*
X144040345Y-139636655D01*
X144017102Y-139608332D01*
X143999831Y-139576021D01*
X143989196Y-139540963D01*
X143985000Y-139498359D01*
X143985000Y-138885641D01*
X143989196Y-138843037D01*
X143999831Y-138807979D01*
X144017102Y-138775668D01*
X144040345Y-138747345D01*
X144068668Y-138724102D01*
X144100979Y-138706831D01*
X144136037Y-138696196D01*
X144178641Y-138692000D01*
X146241359Y-138692000D01*
X146283963Y-138696196D01*
G37*
G36*
X155583963Y-138696196D02*
G01*
X155619021Y-138706831D01*
X155651332Y-138724102D01*
X155679655Y-138747345D01*
X155702898Y-138775668D01*
X155720169Y-138807979D01*
X155730804Y-138843037D01*
X155735000Y-138885641D01*
X155735000Y-139498359D01*
X155730804Y-139540963D01*
X155720169Y-139576021D01*
X155702898Y-139608332D01*
X155679655Y-139636655D01*
X155651332Y-139659898D01*
X155619021Y-139677169D01*
X155583963Y-139687804D01*
X155541359Y-139692000D01*
X153478641Y-139692000D01*
X153436037Y-139687804D01*
X153400979Y-139677169D01*
X153368668Y-139659898D01*
X153340345Y-139636655D01*
X153317102Y-139608332D01*
X153299831Y-139576021D01*
X153289196Y-139540963D01*
X153285000Y-139498359D01*
X153285000Y-138885641D01*
X153289196Y-138843037D01*
X153299831Y-138807979D01*
X153317102Y-138775668D01*
X153340345Y-138747345D01*
X153368668Y-138724102D01*
X153400979Y-138706831D01*
X153436037Y-138696196D01*
X153478641Y-138692000D01*
X155541359Y-138692000D01*
X155583963Y-138696196D01*
G37*
G36*
X160138530Y-138141877D02*
G01*
X160190010Y-138157493D01*
X160237445Y-138182848D01*
X160279027Y-138216973D01*
X160313152Y-138258555D01*
X160338507Y-138305990D01*
X160354123Y-138357470D01*
X160360000Y-138417140D01*
X160360000Y-139204860D01*
X160354123Y-139264530D01*
X160338507Y-139316010D01*
X160313152Y-139363445D01*
X160279027Y-139405027D01*
X160237445Y-139439152D01*
X160190010Y-139464507D01*
X160138530Y-139480123D01*
X160078860Y-139486000D01*
X159191140Y-139486000D01*
X159131470Y-139480123D01*
X159079990Y-139464507D01*
X159032555Y-139439152D01*
X158990973Y-139405027D01*
X158956848Y-139363445D01*
X158931493Y-139316010D01*
X158915877Y-139264530D01*
X158910000Y-139204860D01*
X158910000Y-138417140D01*
X158915877Y-138357470D01*
X158931493Y-138305990D01*
X158956848Y-138258555D01*
X158990973Y-138216973D01*
X159032555Y-138182848D01*
X159079990Y-138157493D01*
X159131470Y-138141877D01*
X159191140Y-138136000D01*
X160078860Y-138136000D01*
X160138530Y-138141877D01*
G37*
G36*
X161888530Y-138141877D02*
G01*
X161940010Y-138157493D01*
X161987445Y-138182848D01*
X162029027Y-138216973D01*
X162063152Y-138258555D01*
X162088507Y-138305990D01*
X162104123Y-138357470D01*
X162110000Y-138417140D01*
X162110000Y-139204860D01*
X162104123Y-139264530D01*
X162088507Y-139316010D01*
X162063152Y-139363445D01*
X162029027Y-139405027D01*
X161987445Y-139439152D01*
X161940010Y-139464507D01*
X161888530Y-139480123D01*
X161828860Y-139486000D01*
X160941140Y-139486000D01*
X160881470Y-139480123D01*
X160829990Y-139464507D01*
X160782555Y-139439152D01*
X160740973Y-139405027D01*
X160706848Y-139363445D01*
X160681493Y-139316010D01*
X160665877Y-139264530D01*
X160660000Y-139204860D01*
X160660000Y-138417140D01*
X160665877Y-138357470D01*
X160681493Y-138305990D01*
X160706848Y-138258555D01*
X160740973Y-138216973D01*
X160782555Y-138182848D01*
X160829990Y-138157493D01*
X160881470Y-138141877D01*
X160941140Y-138136000D01*
X161828860Y-138136000D01*
X161888530Y-138141877D01*
G37*
G36*
X130811687Y-137131027D02*
G01*
X130989274Y-137166350D01*
X131180362Y-137245502D01*
X131352336Y-137360411D01*
X131498589Y-137506664D01*
X131613498Y-137678638D01*
X131692650Y-137869726D01*
X131723124Y-138022933D01*
X131733000Y-138072583D01*
X131733000Y-138279417D01*
X131729372Y-138297656D01*
X131692650Y-138482274D01*
X131613498Y-138673362D01*
X131498589Y-138845336D01*
X131352336Y-138991589D01*
X131180362Y-139106498D01*
X130989274Y-139185650D01*
X130811687Y-139220973D01*
X130786417Y-139226000D01*
X130579583Y-139226000D01*
X130554313Y-139220973D01*
X130376726Y-139185650D01*
X130185638Y-139106498D01*
X130013664Y-138991589D01*
X129867411Y-138845336D01*
X129752502Y-138673362D01*
X129673350Y-138482274D01*
X129636628Y-138297656D01*
X129633000Y-138279417D01*
X129633000Y-138072583D01*
X129642876Y-138022933D01*
X129673350Y-137869726D01*
X129752502Y-137678638D01*
X129867411Y-137506664D01*
X130013664Y-137360411D01*
X130185638Y-137245502D01*
X130376726Y-137166350D01*
X130554313Y-137131027D01*
X130579583Y-137126000D01*
X130786417Y-137126000D01*
X130811687Y-137131027D01*
G37*
G36*
X133351687Y-137131027D02*
G01*
X133529274Y-137166350D01*
X133720362Y-137245502D01*
X133892336Y-137360411D01*
X134038589Y-137506664D01*
X134153498Y-137678638D01*
X134232650Y-137869726D01*
X134263124Y-138022933D01*
X134273000Y-138072583D01*
X134273000Y-138279417D01*
X134269372Y-138297656D01*
X134232650Y-138482274D01*
X134153498Y-138673362D01*
X134038589Y-138845336D01*
X133892336Y-138991589D01*
X133720362Y-139106498D01*
X133529274Y-139185650D01*
X133351687Y-139220973D01*
X133326417Y-139226000D01*
X133119583Y-139226000D01*
X133094313Y-139220973D01*
X132916726Y-139185650D01*
X132725638Y-139106498D01*
X132553664Y-138991589D01*
X132407411Y-138845336D01*
X132292502Y-138673362D01*
X132213350Y-138482274D01*
X132176628Y-138297656D01*
X132173000Y-138279417D01*
X132173000Y-138072583D01*
X132182876Y-138022933D01*
X132213350Y-137869726D01*
X132292502Y-137678638D01*
X132407411Y-137506664D01*
X132553664Y-137360411D01*
X132725638Y-137245502D01*
X132916726Y-137166350D01*
X133094313Y-137131027D01*
X133119583Y-137126000D01*
X133326417Y-137126000D01*
X133351687Y-137131027D01*
G37*
G36*
X129193000Y-139226000D02*
G01*
X127093000Y-139226000D01*
X127093000Y-137126000D01*
X129193000Y-137126000D01*
X129193000Y-139226000D01*
G37*
G36*
X142693530Y-137061877D02*
G01*
X142745010Y-137077493D01*
X142792445Y-137102848D01*
X142834027Y-137136973D01*
X142868152Y-137178555D01*
X142893507Y-137225990D01*
X142909123Y-137277470D01*
X142915000Y-137337140D01*
X142915000Y-138224860D01*
X142909123Y-138284530D01*
X142893507Y-138336010D01*
X142868152Y-138383445D01*
X142834027Y-138425027D01*
X142792445Y-138459152D01*
X142745010Y-138484507D01*
X142693530Y-138500123D01*
X142633860Y-138506000D01*
X141846140Y-138506000D01*
X141786470Y-138500123D01*
X141734990Y-138484507D01*
X141687555Y-138459152D01*
X141645973Y-138425027D01*
X141611848Y-138383445D01*
X141586493Y-138336010D01*
X141570877Y-138284530D01*
X141565000Y-138224860D01*
X141565000Y-137337140D01*
X141570877Y-137277470D01*
X141586493Y-137225990D01*
X141611848Y-137178555D01*
X141645973Y-137136973D01*
X141687555Y-137102848D01*
X141734990Y-137077493D01*
X141786470Y-137061877D01*
X141846140Y-137056000D01*
X142633860Y-137056000D01*
X142693530Y-137061877D01*
G37*
G36*
X146283963Y-137426196D02*
G01*
X146319021Y-137436831D01*
X146351332Y-137454102D01*
X146379655Y-137477345D01*
X146402898Y-137505668D01*
X146420169Y-137537979D01*
X146430804Y-137573037D01*
X146435000Y-137615641D01*
X146435000Y-138228359D01*
X146430804Y-138270963D01*
X146420169Y-138306021D01*
X146402898Y-138338332D01*
X146379655Y-138366655D01*
X146351332Y-138389898D01*
X146319021Y-138407169D01*
X146283963Y-138417804D01*
X146241359Y-138422000D01*
X144178641Y-138422000D01*
X144136037Y-138417804D01*
X144100979Y-138407169D01*
X144068668Y-138389898D01*
X144040345Y-138366655D01*
X144017102Y-138338332D01*
X143999831Y-138306021D01*
X143989196Y-138270963D01*
X143985000Y-138228359D01*
X143985000Y-137615641D01*
X143989196Y-137573037D01*
X143999831Y-137537979D01*
X144017102Y-137505668D01*
X144040345Y-137477345D01*
X144068668Y-137454102D01*
X144100979Y-137436831D01*
X144136037Y-137426196D01*
X144178641Y-137422000D01*
X146241359Y-137422000D01*
X146283963Y-137426196D01*
G37*
G36*
X155583963Y-137426196D02*
G01*
X155619021Y-137436831D01*
X155651332Y-137454102D01*
X155679655Y-137477345D01*
X155702898Y-137505668D01*
X155720169Y-137537979D01*
X155730804Y-137573037D01*
X155735000Y-137615641D01*
X155735000Y-138228359D01*
X155730804Y-138270963D01*
X155720169Y-138306021D01*
X155702898Y-138338332D01*
X155679655Y-138366655D01*
X155651332Y-138389898D01*
X155619021Y-138407169D01*
X155583963Y-138417804D01*
X155541359Y-138422000D01*
X153478641Y-138422000D01*
X153436037Y-138417804D01*
X153400979Y-138407169D01*
X153368668Y-138389898D01*
X153340345Y-138366655D01*
X153317102Y-138338332D01*
X153299831Y-138306021D01*
X153289196Y-138270963D01*
X153285000Y-138228359D01*
X153285000Y-137615641D01*
X153289196Y-137573037D01*
X153299831Y-137537979D01*
X153317102Y-137505668D01*
X153340345Y-137477345D01*
X153368668Y-137454102D01*
X153400979Y-137436831D01*
X153436037Y-137426196D01*
X153478641Y-137422000D01*
X155541359Y-137422000D01*
X155583963Y-137426196D01*
G37*
G36*
X166058963Y-136537196D02*
G01*
X166094021Y-136547831D01*
X166126332Y-136565102D01*
X166154655Y-136588345D01*
X166177898Y-136616668D01*
X166195169Y-136648979D01*
X166205804Y-136684037D01*
X166210000Y-136726641D01*
X166210000Y-137339359D01*
X166205804Y-137381963D01*
X166195169Y-137417021D01*
X166177898Y-137449332D01*
X166154655Y-137477655D01*
X166126332Y-137500898D01*
X166094021Y-137518169D01*
X166058963Y-137528804D01*
X166016359Y-137533000D01*
X164053641Y-137533000D01*
X164011037Y-137528804D01*
X163975979Y-137518169D01*
X163943668Y-137500898D01*
X163915345Y-137477655D01*
X163892102Y-137449332D01*
X163874831Y-137417021D01*
X163864196Y-137381963D01*
X163860000Y-137339359D01*
X163860000Y-136726641D01*
X163864196Y-136684037D01*
X163874831Y-136648979D01*
X163892102Y-136616668D01*
X163915345Y-136588345D01*
X163943668Y-136565102D01*
X163975979Y-136547831D01*
X164011037Y-136537196D01*
X164053641Y-136533000D01*
X166016359Y-136533000D01*
X166058963Y-136537196D01*
G37*
G36*
X161108963Y-136537196D02*
G01*
X161144021Y-136547831D01*
X161176332Y-136565102D01*
X161204655Y-136588345D01*
X161227898Y-136616668D01*
X161245169Y-136648979D01*
X161255804Y-136684037D01*
X161260000Y-136726641D01*
X161260000Y-137339359D01*
X161255804Y-137381963D01*
X161245169Y-137417021D01*
X161227898Y-137449332D01*
X161204655Y-137477655D01*
X161176332Y-137500898D01*
X161144021Y-137518169D01*
X161108963Y-137528804D01*
X161066359Y-137533000D01*
X159103641Y-137533000D01*
X159061037Y-137528804D01*
X159025979Y-137518169D01*
X158993668Y-137500898D01*
X158965345Y-137477655D01*
X158942102Y-137449332D01*
X158924831Y-137417021D01*
X158914196Y-137381963D01*
X158910000Y-137339359D01*
X158910000Y-136726641D01*
X158914196Y-136684037D01*
X158924831Y-136648979D01*
X158942102Y-136616668D01*
X158965345Y-136588345D01*
X158993668Y-136565102D01*
X159025979Y-136547831D01*
X159061037Y-136537196D01*
X159103641Y-136533000D01*
X161066359Y-136533000D01*
X161108963Y-136537196D01*
G37*
G36*
X146283963Y-136156196D02*
G01*
X146319021Y-136166831D01*
X146351332Y-136184102D01*
X146379655Y-136207345D01*
X146402898Y-136235668D01*
X146420169Y-136267979D01*
X146430804Y-136303037D01*
X146435000Y-136345641D01*
X146435000Y-136958359D01*
X146430804Y-137000963D01*
X146420169Y-137036021D01*
X146402898Y-137068332D01*
X146379655Y-137096655D01*
X146351332Y-137119898D01*
X146319021Y-137137169D01*
X146283963Y-137147804D01*
X146241359Y-137152000D01*
X144178641Y-137152000D01*
X144136037Y-137147804D01*
X144100979Y-137137169D01*
X144068668Y-137119898D01*
X144040345Y-137096655D01*
X144017102Y-137068332D01*
X143999831Y-137036021D01*
X143989196Y-137000963D01*
X143985000Y-136958359D01*
X143985000Y-136345641D01*
X143989196Y-136303037D01*
X143999831Y-136267979D01*
X144017102Y-136235668D01*
X144040345Y-136207345D01*
X144068668Y-136184102D01*
X144100979Y-136166831D01*
X144136037Y-136156196D01*
X144178641Y-136152000D01*
X146241359Y-136152000D01*
X146283963Y-136156196D01*
G37*
G36*
X155583963Y-136156196D02*
G01*
X155619021Y-136166831D01*
X155651332Y-136184102D01*
X155679655Y-136207345D01*
X155702898Y-136235668D01*
X155720169Y-136267979D01*
X155730804Y-136303037D01*
X155735000Y-136345641D01*
X155735000Y-136958359D01*
X155730804Y-137000963D01*
X155720169Y-137036021D01*
X155702898Y-137068332D01*
X155679655Y-137096655D01*
X155651332Y-137119898D01*
X155619021Y-137137169D01*
X155583963Y-137147804D01*
X155541359Y-137152000D01*
X153478641Y-137152000D01*
X153436037Y-137147804D01*
X153400979Y-137137169D01*
X153368668Y-137119898D01*
X153340345Y-137096655D01*
X153317102Y-137068332D01*
X153299831Y-137036021D01*
X153289196Y-137000963D01*
X153285000Y-136958359D01*
X153285000Y-136345641D01*
X153289196Y-136303037D01*
X153299831Y-136267979D01*
X153317102Y-136235668D01*
X153340345Y-136207345D01*
X153368668Y-136184102D01*
X153400979Y-136166831D01*
X153436037Y-136156196D01*
X153478641Y-136152000D01*
X155541359Y-136152000D01*
X155583963Y-136156196D01*
G37*
G36*
X173209326Y-134844831D02*
G01*
X173250596Y-134857350D01*
X173288631Y-134877681D01*
X173321964Y-134905036D01*
X173349319Y-134938369D01*
X173369650Y-134976404D01*
X173382169Y-135017674D01*
X173387000Y-135066727D01*
X173387000Y-136713273D01*
X173382169Y-136762326D01*
X173369650Y-136803596D01*
X173349319Y-136841631D01*
X173321964Y-136874964D01*
X173288631Y-136902319D01*
X173250596Y-136922650D01*
X173209326Y-136935169D01*
X173160273Y-136940000D01*
X171263727Y-136940000D01*
X171214674Y-136935169D01*
X171173404Y-136922650D01*
X171135369Y-136902319D01*
X171102036Y-136874964D01*
X171074681Y-136841631D01*
X171054350Y-136803596D01*
X171041831Y-136762326D01*
X171037000Y-136713273D01*
X171037000Y-135066727D01*
X171041831Y-135017674D01*
X171054350Y-134976404D01*
X171074681Y-134938369D01*
X171102036Y-134905036D01*
X171135369Y-134877681D01*
X171173404Y-134857350D01*
X171214674Y-134844831D01*
X171263727Y-134840000D01*
X173160273Y-134840000D01*
X173209326Y-134844831D01*
G37*
G36*
X142693530Y-135311877D02*
G01*
X142745010Y-135327493D01*
X142792445Y-135352848D01*
X142834027Y-135386973D01*
X142868152Y-135428555D01*
X142893507Y-135475990D01*
X142909123Y-135527470D01*
X142915000Y-135587140D01*
X142915000Y-136474860D01*
X142909123Y-136534530D01*
X142893507Y-136586010D01*
X142868152Y-136633445D01*
X142834027Y-136675027D01*
X142792445Y-136709152D01*
X142745010Y-136734507D01*
X142693530Y-136750123D01*
X142633860Y-136756000D01*
X141846140Y-136756000D01*
X141786470Y-136750123D01*
X141734990Y-136734507D01*
X141687555Y-136709152D01*
X141645973Y-136675027D01*
X141611848Y-136633445D01*
X141586493Y-136586010D01*
X141570877Y-136534530D01*
X141565000Y-136474860D01*
X141565000Y-135587140D01*
X141570877Y-135527470D01*
X141586493Y-135475990D01*
X141611848Y-135428555D01*
X141645973Y-135386973D01*
X141687555Y-135352848D01*
X141734990Y-135327493D01*
X141786470Y-135311877D01*
X141846140Y-135306000D01*
X142633860Y-135306000D01*
X142693530Y-135311877D01*
G37*
G36*
X166058963Y-135267196D02*
G01*
X166094021Y-135277831D01*
X166126332Y-135295102D01*
X166154655Y-135318345D01*
X166177898Y-135346668D01*
X166195169Y-135378979D01*
X166205804Y-135414037D01*
X166210000Y-135456641D01*
X166210000Y-135522561D01*
X166212402Y-135546947D01*
X166219515Y-135570396D01*
X166231066Y-135592007D01*
X166246611Y-135610949D01*
X166265553Y-135626494D01*
X166287164Y-135638045D01*
X166310613Y-135645158D01*
X166334999Y-135647560D01*
X166359385Y-135645158D01*
X166382834Y-135638045D01*
X166404445Y-135626494D01*
X166423387Y-135610949D01*
X166438932Y-135592007D01*
X166450483Y-135570396D01*
X166459396Y-135534813D01*
X166462877Y-135499470D01*
X166478493Y-135447990D01*
X166503848Y-135400555D01*
X166537973Y-135358973D01*
X166579555Y-135324848D01*
X166626990Y-135299493D01*
X166678470Y-135283877D01*
X166738140Y-135278000D01*
X167525860Y-135278000D01*
X167585530Y-135283877D01*
X167637010Y-135299493D01*
X167684445Y-135324848D01*
X167726027Y-135358973D01*
X167760152Y-135400555D01*
X167785507Y-135447990D01*
X167801123Y-135499470D01*
X167807000Y-135559140D01*
X167807000Y-136446860D01*
X167801123Y-136506530D01*
X167785507Y-136558010D01*
X167760152Y-136605445D01*
X167726027Y-136647027D01*
X167684445Y-136681152D01*
X167637010Y-136706507D01*
X167585530Y-136722123D01*
X167525860Y-136728000D01*
X166738140Y-136728000D01*
X166678470Y-136722123D01*
X166626990Y-136706507D01*
X166579555Y-136681152D01*
X166537973Y-136647027D01*
X166503848Y-136605445D01*
X166478493Y-136558010D01*
X166462877Y-136506530D01*
X166457000Y-136446860D01*
X166457000Y-136105937D01*
X166454598Y-136081551D01*
X166447485Y-136058102D01*
X166435934Y-136036491D01*
X166420389Y-136017549D01*
X166401447Y-136002004D01*
X166379836Y-135990453D01*
X166356387Y-135983340D01*
X166332001Y-135980938D01*
X166307615Y-135983340D01*
X166284166Y-135990453D01*
X166262555Y-136002004D01*
X166243613Y-136017549D01*
X166228068Y-136036491D01*
X166216517Y-136058102D01*
X166207604Y-136093684D01*
X166205804Y-136111963D01*
X166195169Y-136147021D01*
X166177898Y-136179332D01*
X166154655Y-136207655D01*
X166126332Y-136230898D01*
X166094021Y-136248169D01*
X166058963Y-136258804D01*
X166016359Y-136263000D01*
X164053641Y-136263000D01*
X164011037Y-136258804D01*
X163975979Y-136248169D01*
X163943668Y-136230898D01*
X163915345Y-136207655D01*
X163892102Y-136179332D01*
X163874831Y-136147021D01*
X163864196Y-136111963D01*
X163860000Y-136069359D01*
X163860000Y-135456641D01*
X163864196Y-135414037D01*
X163874831Y-135378979D01*
X163892102Y-135346668D01*
X163915345Y-135318345D01*
X163943668Y-135295102D01*
X163975979Y-135277831D01*
X164011037Y-135267196D01*
X164053641Y-135263000D01*
X166016359Y-135263000D01*
X166058963Y-135267196D01*
G37*
G36*
X124758067Y-134590076D02*
G01*
X124801728Y-134603320D01*
X124841964Y-134624827D01*
X124877231Y-134653769D01*
X124906173Y-134689036D01*
X124927680Y-134729272D01*
X124940924Y-134772933D01*
X124946000Y-134824474D01*
X124946000Y-136245526D01*
X124940924Y-136297067D01*
X124927680Y-136340728D01*
X124906173Y-136380964D01*
X124877231Y-136416231D01*
X124841964Y-136445173D01*
X124801728Y-136466680D01*
X124758067Y-136479924D01*
X124706526Y-136485000D01*
X122435474Y-136485000D01*
X122383933Y-136479924D01*
X122340272Y-136466680D01*
X122300036Y-136445173D01*
X122264769Y-136416231D01*
X122235827Y-136380964D01*
X122214320Y-136340728D01*
X122201076Y-136297067D01*
X122196000Y-136245526D01*
X122196000Y-134824474D01*
X122201076Y-134772933D01*
X122214320Y-134729272D01*
X122235827Y-134689036D01*
X122264769Y-134653769D01*
X122300036Y-134624827D01*
X122340272Y-134603320D01*
X122383933Y-134590076D01*
X122435474Y-134585000D01*
X124706526Y-134585000D01*
X124758067Y-134590076D01*
G37*
G36*
X161108963Y-135267196D02*
G01*
X161144021Y-135277831D01*
X161176332Y-135295102D01*
X161204655Y-135318345D01*
X161227898Y-135346668D01*
X161245169Y-135378979D01*
X161255804Y-135414037D01*
X161260000Y-135456641D01*
X161260000Y-136069359D01*
X161255804Y-136111963D01*
X161245169Y-136147021D01*
X161227898Y-136179332D01*
X161204655Y-136207655D01*
X161176332Y-136230898D01*
X161144021Y-136248169D01*
X161108963Y-136258804D01*
X161066359Y-136263000D01*
X159103641Y-136263000D01*
X159061037Y-136258804D01*
X159025979Y-136248169D01*
X158993668Y-136230898D01*
X158965345Y-136207655D01*
X158942102Y-136179332D01*
X158924831Y-136147021D01*
X158914196Y-136111963D01*
X158910000Y-136069359D01*
X158910000Y-135456641D01*
X158914196Y-135414037D01*
X158924831Y-135378979D01*
X158942102Y-135346668D01*
X158965345Y-135318345D01*
X158993668Y-135295102D01*
X159025979Y-135277831D01*
X159061037Y-135267196D01*
X159103641Y-135263000D01*
X161066359Y-135263000D01*
X161108963Y-135267196D01*
G37*
G36*
X155583963Y-134886196D02*
G01*
X155619021Y-134896831D01*
X155651332Y-134914102D01*
X155679655Y-134937345D01*
X155702898Y-134965668D01*
X155720169Y-134997979D01*
X155730804Y-135033037D01*
X155735000Y-135075641D01*
X155735000Y-135688359D01*
X155730804Y-135730963D01*
X155720169Y-135766021D01*
X155702898Y-135798332D01*
X155679655Y-135826655D01*
X155651332Y-135849898D01*
X155619021Y-135867169D01*
X155583963Y-135877804D01*
X155541359Y-135882000D01*
X153478641Y-135882000D01*
X153436037Y-135877804D01*
X153400979Y-135867169D01*
X153368668Y-135849898D01*
X153340345Y-135826655D01*
X153317102Y-135798332D01*
X153299831Y-135766021D01*
X153289196Y-135730963D01*
X153285000Y-135688359D01*
X153285000Y-135075641D01*
X153289196Y-135033037D01*
X153299831Y-134997979D01*
X153317102Y-134965668D01*
X153340345Y-134937345D01*
X153368668Y-134914102D01*
X153400979Y-134896831D01*
X153436037Y-134886196D01*
X153478641Y-134882000D01*
X155541359Y-134882000D01*
X155583963Y-134886196D01*
G37*
G36*
X146283963Y-134886196D02*
G01*
X146319021Y-134896831D01*
X146351332Y-134914102D01*
X146379655Y-134937345D01*
X146402898Y-134965668D01*
X146420169Y-134997979D01*
X146430804Y-135033037D01*
X146435000Y-135075641D01*
X146435000Y-135688359D01*
X146430804Y-135730963D01*
X146420169Y-135766021D01*
X146402898Y-135798332D01*
X146379655Y-135826655D01*
X146351332Y-135849898D01*
X146319021Y-135867169D01*
X146283963Y-135877804D01*
X146241359Y-135882000D01*
X144178641Y-135882000D01*
X144136037Y-135877804D01*
X144100979Y-135867169D01*
X144068668Y-135849898D01*
X144040345Y-135826655D01*
X144017102Y-135798332D01*
X143999831Y-135766021D01*
X143989196Y-135730963D01*
X143985000Y-135688359D01*
X143985000Y-135075641D01*
X143989196Y-135033037D01*
X143999831Y-134997979D01*
X144017102Y-134965668D01*
X144040345Y-134937345D01*
X144068668Y-134914102D01*
X144100979Y-134896831D01*
X144136037Y-134886196D01*
X144178641Y-134882000D01*
X146241359Y-134882000D01*
X146283963Y-134886196D01*
G37*
G36*
X127679000Y-135802000D02*
G01*
X126079000Y-135802000D01*
X126079000Y-133202000D01*
X127679000Y-133202000D01*
X127679000Y-135802000D01*
G37*
G36*
X132239000Y-135802000D02*
G01*
X130639000Y-135802000D01*
X130639000Y-133202000D01*
X132239000Y-133202000D01*
X132239000Y-135802000D01*
G37*
G36*
X121115000Y-135721000D02*
G01*
X118915000Y-135721000D01*
X118915000Y-132821000D01*
X121115000Y-132821000D01*
X121115000Y-135721000D01*
G37*
G36*
X161108963Y-133997196D02*
G01*
X161144021Y-134007831D01*
X161176332Y-134025102D01*
X161204655Y-134048345D01*
X161227898Y-134076668D01*
X161245169Y-134108979D01*
X161255804Y-134144037D01*
X161260000Y-134186641D01*
X161260000Y-134799359D01*
X161255804Y-134841963D01*
X161245169Y-134877021D01*
X161227898Y-134909332D01*
X161204655Y-134937655D01*
X161176332Y-134960898D01*
X161144021Y-134978169D01*
X161108963Y-134988804D01*
X161066359Y-134993000D01*
X159103641Y-134993000D01*
X159061037Y-134988804D01*
X159025979Y-134978169D01*
X158993668Y-134960898D01*
X158965345Y-134937655D01*
X158942102Y-134909332D01*
X158924831Y-134877021D01*
X158914196Y-134841963D01*
X158910000Y-134799359D01*
X158910000Y-134186641D01*
X158914196Y-134144037D01*
X158924831Y-134108979D01*
X158942102Y-134076668D01*
X158965345Y-134048345D01*
X158993668Y-134025102D01*
X159025979Y-134007831D01*
X159061037Y-133997196D01*
X159103641Y-133993000D01*
X161066359Y-133993000D01*
X161108963Y-133997196D01*
G37*
G36*
X167585530Y-133533877D02*
G01*
X167637010Y-133549493D01*
X167684445Y-133574848D01*
X167726027Y-133608973D01*
X167760152Y-133650555D01*
X167785507Y-133697990D01*
X167801123Y-133749470D01*
X167807000Y-133809140D01*
X167807000Y-134696860D01*
X167801123Y-134756530D01*
X167785507Y-134808010D01*
X167760152Y-134855445D01*
X167726027Y-134897027D01*
X167684445Y-134931152D01*
X167637010Y-134956507D01*
X167585530Y-134972123D01*
X167525860Y-134978000D01*
X166738140Y-134978000D01*
X166678470Y-134972123D01*
X166626990Y-134956507D01*
X166579555Y-134931152D01*
X166537973Y-134897027D01*
X166503848Y-134855445D01*
X166478493Y-134808010D01*
X166462877Y-134756530D01*
X166459396Y-134721187D01*
X166454616Y-134697153D01*
X166445238Y-134674515D01*
X166431624Y-134654140D01*
X166414297Y-134636813D01*
X166393923Y-134623200D01*
X166371284Y-134613822D01*
X166347251Y-134609042D01*
X166322747Y-134609042D01*
X166298713Y-134613822D01*
X166276075Y-134623200D01*
X166255700Y-134636814D01*
X166238373Y-134654141D01*
X166224760Y-134674515D01*
X166215382Y-134697154D01*
X166210000Y-134733439D01*
X166210000Y-134799359D01*
X166205804Y-134841963D01*
X166195169Y-134877021D01*
X166177898Y-134909332D01*
X166154655Y-134937655D01*
X166126332Y-134960898D01*
X166094021Y-134978169D01*
X166058963Y-134988804D01*
X166016359Y-134993000D01*
X164053641Y-134993000D01*
X164011037Y-134988804D01*
X163975979Y-134978169D01*
X163943668Y-134960898D01*
X163915345Y-134937655D01*
X163892102Y-134909332D01*
X163874831Y-134877021D01*
X163864196Y-134841963D01*
X163860000Y-134799359D01*
X163860000Y-134186641D01*
X163864196Y-134144037D01*
X163874831Y-134108979D01*
X163892102Y-134076668D01*
X163915345Y-134048345D01*
X163943668Y-134025102D01*
X163975979Y-134007831D01*
X164011037Y-133997196D01*
X164053641Y-133993000D01*
X166016359Y-133993000D01*
X166058963Y-133997196D01*
X166094021Y-134007831D01*
X166126332Y-134025102D01*
X166154655Y-134048345D01*
X166177898Y-134076668D01*
X166195169Y-134108979D01*
X166205804Y-134144037D01*
X166207604Y-134162316D01*
X166212385Y-134186349D01*
X166221762Y-134208988D01*
X166235376Y-134229362D01*
X166252703Y-134246689D01*
X166273077Y-134260303D01*
X166295716Y-134269680D01*
X166319750Y-134274460D01*
X166344254Y-134274460D01*
X166368287Y-134269679D01*
X166390926Y-134260302D01*
X166411300Y-134246688D01*
X166428627Y-134229361D01*
X166442241Y-134208987D01*
X166451618Y-134186348D01*
X166457000Y-134150063D01*
X166457000Y-133809140D01*
X166462877Y-133749470D01*
X166478493Y-133697990D01*
X166503848Y-133650555D01*
X166537973Y-133608973D01*
X166579555Y-133574848D01*
X166626990Y-133549493D01*
X166678470Y-133533877D01*
X166738140Y-133528000D01*
X167525860Y-133528000D01*
X167585530Y-133533877D01*
G37*
G36*
X142693530Y-133505877D02*
G01*
X142745010Y-133521493D01*
X142792445Y-133546848D01*
X142834027Y-133580973D01*
X142868152Y-133622555D01*
X142893507Y-133669990D01*
X142909123Y-133721470D01*
X142915000Y-133781140D01*
X142915000Y-134668860D01*
X142909123Y-134728530D01*
X142893507Y-134780010D01*
X142868152Y-134827445D01*
X142834027Y-134869027D01*
X142792445Y-134903152D01*
X142745010Y-134928507D01*
X142693530Y-134944123D01*
X142633860Y-134950000D01*
X141846140Y-134950000D01*
X141786470Y-134944123D01*
X141734990Y-134928507D01*
X141687555Y-134903152D01*
X141645973Y-134869027D01*
X141611848Y-134827445D01*
X141586493Y-134780010D01*
X141570877Y-134728530D01*
X141565000Y-134668860D01*
X141565000Y-133781140D01*
X141570877Y-133721470D01*
X141586493Y-133669990D01*
X141611848Y-133622555D01*
X141645973Y-133580973D01*
X141687555Y-133546848D01*
X141734990Y-133521493D01*
X141786470Y-133505877D01*
X141846140Y-133500000D01*
X142633860Y-133500000D01*
X142693530Y-133505877D01*
G37*
G36*
X155583963Y-133616196D02*
G01*
X155619021Y-133626831D01*
X155651332Y-133644102D01*
X155679655Y-133667345D01*
X155702898Y-133695668D01*
X155720169Y-133727979D01*
X155730804Y-133763037D01*
X155735000Y-133805641D01*
X155735000Y-134418359D01*
X155730804Y-134460963D01*
X155720169Y-134496021D01*
X155702898Y-134528332D01*
X155679655Y-134556655D01*
X155651332Y-134579898D01*
X155619021Y-134597169D01*
X155583963Y-134607804D01*
X155541359Y-134612000D01*
X153478641Y-134612000D01*
X153436037Y-134607804D01*
X153400979Y-134597169D01*
X153368668Y-134579898D01*
X153340345Y-134556655D01*
X153317102Y-134528332D01*
X153299831Y-134496021D01*
X153289196Y-134460963D01*
X153285000Y-134418359D01*
X153285000Y-133805641D01*
X153289196Y-133763037D01*
X153299831Y-133727979D01*
X153317102Y-133695668D01*
X153340345Y-133667345D01*
X153368668Y-133644102D01*
X153400979Y-133626831D01*
X153436037Y-133616196D01*
X153478641Y-133612000D01*
X155541359Y-133612000D01*
X155583963Y-133616196D01*
G37*
G36*
X146283963Y-133616196D02*
G01*
X146319021Y-133626831D01*
X146351332Y-133644102D01*
X146379655Y-133667345D01*
X146402898Y-133695668D01*
X146420169Y-133727979D01*
X146430804Y-133763037D01*
X146435000Y-133805641D01*
X146435000Y-134418359D01*
X146430804Y-134460963D01*
X146420169Y-134496021D01*
X146402898Y-134528332D01*
X146379655Y-134556655D01*
X146351332Y-134579898D01*
X146319021Y-134597169D01*
X146283963Y-134607804D01*
X146241359Y-134612000D01*
X144178641Y-134612000D01*
X144136037Y-134607804D01*
X144100979Y-134597169D01*
X144068668Y-134579898D01*
X144040345Y-134556655D01*
X144017102Y-134528332D01*
X143999831Y-134496021D01*
X143989196Y-134460963D01*
X143985000Y-134418359D01*
X143985000Y-133805641D01*
X143989196Y-133763037D01*
X143999831Y-133727979D01*
X144017102Y-133695668D01*
X144040345Y-133667345D01*
X144068668Y-133644102D01*
X144100979Y-133626831D01*
X144136037Y-133616196D01*
X144178641Y-133612000D01*
X146241359Y-133612000D01*
X146283963Y-133616196D01*
G37*
G36*
X172457661Y-132346804D02*
G01*
X172542836Y-132355193D01*
X172740729Y-132415223D01*
X172740765Y-132415234D01*
X172923170Y-132512732D01*
X173083055Y-132643945D01*
X173214268Y-132803830D01*
X173311766Y-132986235D01*
X173311767Y-132986238D01*
X173371807Y-133184164D01*
X173392080Y-133390000D01*
X173371807Y-133595836D01*
X173325203Y-133749470D01*
X173311766Y-133793765D01*
X173214268Y-133976170D01*
X173083055Y-134136055D01*
X172923170Y-134267268D01*
X172740765Y-134364766D01*
X172740762Y-134364767D01*
X172542836Y-134424807D01*
X172465707Y-134432404D01*
X172388580Y-134440000D01*
X172035420Y-134440000D01*
X171958293Y-134432404D01*
X171881164Y-134424807D01*
X171683238Y-134364767D01*
X171683235Y-134364766D01*
X171500830Y-134267268D01*
X171340945Y-134136055D01*
X171209732Y-133976170D01*
X171112234Y-133793765D01*
X171098797Y-133749470D01*
X171052193Y-133595836D01*
X171031920Y-133390000D01*
X171052193Y-133184164D01*
X171112233Y-132986238D01*
X171112234Y-132986235D01*
X171209732Y-132803830D01*
X171340945Y-132643945D01*
X171500830Y-132512732D01*
X171683235Y-132415234D01*
X171683271Y-132415223D01*
X171881164Y-132355193D01*
X171966339Y-132346804D01*
X172035420Y-132340000D01*
X172388580Y-132340000D01*
X172457661Y-132346804D01*
G37*
G36*
X161108963Y-132727196D02*
G01*
X161144021Y-132737831D01*
X161176332Y-132755102D01*
X161204655Y-132778345D01*
X161227898Y-132806668D01*
X161245169Y-132838979D01*
X161255804Y-132874037D01*
X161260000Y-132916641D01*
X161260000Y-133529359D01*
X161255804Y-133571963D01*
X161245169Y-133607021D01*
X161227898Y-133639332D01*
X161204655Y-133667655D01*
X161176332Y-133690898D01*
X161144021Y-133708169D01*
X161108963Y-133718804D01*
X161066359Y-133723000D01*
X159103641Y-133723000D01*
X159061037Y-133718804D01*
X159025979Y-133708169D01*
X158993668Y-133690898D01*
X158965345Y-133667655D01*
X158942102Y-133639332D01*
X158924831Y-133607021D01*
X158914196Y-133571963D01*
X158910000Y-133529359D01*
X158910000Y-132916641D01*
X158914196Y-132874037D01*
X158924831Y-132838979D01*
X158942102Y-132806668D01*
X158965345Y-132778345D01*
X158993668Y-132755102D01*
X159025979Y-132737831D01*
X159061037Y-132727196D01*
X159103641Y-132723000D01*
X161066359Y-132723000D01*
X161108963Y-132727196D01*
G37*
G36*
X166058963Y-132727196D02*
G01*
X166094021Y-132737831D01*
X166126332Y-132755102D01*
X166154655Y-132778345D01*
X166177898Y-132806668D01*
X166195169Y-132838979D01*
X166205804Y-132874037D01*
X166210000Y-132916641D01*
X166210000Y-133529359D01*
X166205804Y-133571963D01*
X166195169Y-133607021D01*
X166177898Y-133639332D01*
X166154655Y-133667655D01*
X166126332Y-133690898D01*
X166094021Y-133708169D01*
X166058963Y-133718804D01*
X166016359Y-133723000D01*
X164053641Y-133723000D01*
X164011037Y-133718804D01*
X163975979Y-133708169D01*
X163943668Y-133690898D01*
X163915345Y-133667655D01*
X163892102Y-133639332D01*
X163874831Y-133607021D01*
X163864196Y-133571963D01*
X163860000Y-133529359D01*
X163860000Y-132916641D01*
X163864196Y-132874037D01*
X163874831Y-132838979D01*
X163892102Y-132806668D01*
X163915345Y-132778345D01*
X163943668Y-132755102D01*
X163975979Y-132737831D01*
X164011037Y-132727196D01*
X164053641Y-132723000D01*
X166016359Y-132723000D01*
X166058963Y-132727196D01*
G37*
G36*
X137908727Y-131696010D02*
G01*
X138072105Y-131728508D01*
X138244994Y-131800121D01*
X138400590Y-131904087D01*
X138532913Y-132036410D01*
X138636879Y-132192006D01*
X138708492Y-132364895D01*
X138726038Y-132453107D01*
X138745000Y-132548432D01*
X138745000Y-132735568D01*
X138741114Y-132755102D01*
X138708492Y-132919105D01*
X138636879Y-133091994D01*
X138532913Y-133247590D01*
X138400590Y-133379913D01*
X138244994Y-133483879D01*
X138072105Y-133555492D01*
X137989300Y-133571963D01*
X137888568Y-133592000D01*
X137701432Y-133592000D01*
X137600700Y-133571963D01*
X137517895Y-133555492D01*
X137345006Y-133483879D01*
X137189410Y-133379913D01*
X137057087Y-133247590D01*
X136953121Y-133091994D01*
X136881508Y-132919105D01*
X136848886Y-132755102D01*
X136845000Y-132735568D01*
X136845000Y-132548432D01*
X136863962Y-132453107D01*
X136881508Y-132364895D01*
X136953121Y-132192006D01*
X137057087Y-132036410D01*
X137189410Y-131904087D01*
X137345006Y-131800121D01*
X137517895Y-131728508D01*
X137681273Y-131696010D01*
X137701432Y-131692000D01*
X137888568Y-131692000D01*
X137908727Y-131696010D01*
G37*
G36*
X146283963Y-132346196D02*
G01*
X146319021Y-132356831D01*
X146351332Y-132374102D01*
X146379655Y-132397345D01*
X146402898Y-132425668D01*
X146420169Y-132457979D01*
X146430804Y-132493037D01*
X146435000Y-132535641D01*
X146435000Y-133148359D01*
X146430804Y-133190963D01*
X146420169Y-133226021D01*
X146402898Y-133258332D01*
X146379655Y-133286655D01*
X146351332Y-133309898D01*
X146319021Y-133327169D01*
X146283963Y-133337804D01*
X146241359Y-133342000D01*
X144178641Y-133342000D01*
X144136037Y-133337804D01*
X144100979Y-133327169D01*
X144068668Y-133309898D01*
X144040345Y-133286655D01*
X144017102Y-133258332D01*
X143999831Y-133226021D01*
X143989196Y-133190963D01*
X143985000Y-133148359D01*
X143985000Y-132535641D01*
X143989196Y-132493037D01*
X143999831Y-132457979D01*
X144017102Y-132425668D01*
X144040345Y-132397345D01*
X144068668Y-132374102D01*
X144100979Y-132356831D01*
X144136037Y-132346196D01*
X144178641Y-132342000D01*
X146241359Y-132342000D01*
X146283963Y-132346196D01*
G37*
G36*
X155583963Y-132346196D02*
G01*
X155619021Y-132356831D01*
X155651332Y-132374102D01*
X155679655Y-132397345D01*
X155702898Y-132425668D01*
X155720169Y-132457979D01*
X155730804Y-132493037D01*
X155735000Y-132535641D01*
X155735000Y-133148359D01*
X155730804Y-133190963D01*
X155720169Y-133226021D01*
X155702898Y-133258332D01*
X155679655Y-133286655D01*
X155651332Y-133309898D01*
X155619021Y-133327169D01*
X155583963Y-133337804D01*
X155541359Y-133342000D01*
X153478641Y-133342000D01*
X153436037Y-133337804D01*
X153400979Y-133327169D01*
X153368668Y-133309898D01*
X153340345Y-133286655D01*
X153317102Y-133258332D01*
X153299831Y-133226021D01*
X153289196Y-133190963D01*
X153285000Y-133148359D01*
X153285000Y-132535641D01*
X153289196Y-132493037D01*
X153299831Y-132457979D01*
X153317102Y-132425668D01*
X153340345Y-132397345D01*
X153368668Y-132374102D01*
X153400979Y-132356831D01*
X153436037Y-132346196D01*
X153478641Y-132342000D01*
X155541359Y-132342000D01*
X155583963Y-132346196D01*
G37*
G36*
X142693530Y-131755877D02*
G01*
X142745010Y-131771493D01*
X142792445Y-131796848D01*
X142834027Y-131830973D01*
X142868152Y-131872555D01*
X142893507Y-131919990D01*
X142909123Y-131971470D01*
X142915000Y-132031140D01*
X142915000Y-132918860D01*
X142909123Y-132978530D01*
X142893507Y-133030010D01*
X142868152Y-133077445D01*
X142834027Y-133119027D01*
X142792445Y-133153152D01*
X142745010Y-133178507D01*
X142693530Y-133194123D01*
X142633860Y-133200000D01*
X141846140Y-133200000D01*
X141786470Y-133194123D01*
X141734990Y-133178507D01*
X141687555Y-133153152D01*
X141645973Y-133119027D01*
X141611848Y-133077445D01*
X141586493Y-133030010D01*
X141570877Y-132978530D01*
X141565000Y-132918860D01*
X141565000Y-132031140D01*
X141570877Y-131971470D01*
X141586493Y-131919990D01*
X141611848Y-131872555D01*
X141645973Y-131830973D01*
X141687555Y-131796848D01*
X141734990Y-131771493D01*
X141786470Y-131755877D01*
X141846140Y-131750000D01*
X142633860Y-131750000D01*
X142693530Y-131755877D01*
G37*
G36*
X146283963Y-131076196D02*
G01*
X146319021Y-131086831D01*
X146351332Y-131104102D01*
X146379655Y-131127345D01*
X146402898Y-131155668D01*
X146420169Y-131187979D01*
X146430804Y-131223037D01*
X146435000Y-131265641D01*
X146435000Y-131878359D01*
X146430804Y-131920963D01*
X146420169Y-131956021D01*
X146402898Y-131988332D01*
X146379655Y-132016655D01*
X146351332Y-132039898D01*
X146319021Y-132057169D01*
X146283963Y-132067804D01*
X146241359Y-132072000D01*
X144178641Y-132072000D01*
X144136037Y-132067804D01*
X144100979Y-132057169D01*
X144068668Y-132039898D01*
X144040345Y-132016655D01*
X144017102Y-131988332D01*
X143999831Y-131956021D01*
X143989196Y-131920963D01*
X143985000Y-131878359D01*
X143985000Y-131265641D01*
X143989196Y-131223037D01*
X143999831Y-131187979D01*
X144017102Y-131155668D01*
X144040345Y-131127345D01*
X144068668Y-131104102D01*
X144100979Y-131086831D01*
X144136037Y-131076196D01*
X144178641Y-131072000D01*
X146241359Y-131072000D01*
X146283963Y-131076196D01*
G37*
G36*
X155583963Y-131076196D02*
G01*
X155619021Y-131086831D01*
X155651332Y-131104102D01*
X155679655Y-131127345D01*
X155702898Y-131155668D01*
X155720169Y-131187979D01*
X155730804Y-131223037D01*
X155735000Y-131265641D01*
X155735000Y-131878359D01*
X155730804Y-131920963D01*
X155720169Y-131956021D01*
X155702898Y-131988332D01*
X155679655Y-132016655D01*
X155651332Y-132039898D01*
X155619021Y-132057169D01*
X155583963Y-132067804D01*
X155541359Y-132072000D01*
X153478641Y-132072000D01*
X153436037Y-132067804D01*
X153400979Y-132057169D01*
X153368668Y-132039898D01*
X153340345Y-132016655D01*
X153317102Y-131988332D01*
X153299831Y-131956021D01*
X153289196Y-131920963D01*
X153285000Y-131878359D01*
X153285000Y-131265641D01*
X153289196Y-131223037D01*
X153299831Y-131187979D01*
X153317102Y-131155668D01*
X153340345Y-131127345D01*
X153368668Y-131104102D01*
X153400979Y-131086831D01*
X153436037Y-131076196D01*
X153478641Y-131072000D01*
X155541359Y-131072000D01*
X155583963Y-131076196D01*
G37*
G36*
X172465707Y-129847596D02*
G01*
X172542836Y-129855193D01*
X172731093Y-129912300D01*
X172740765Y-129915234D01*
X172923170Y-130012732D01*
X173083055Y-130143945D01*
X173214268Y-130303830D01*
X173311766Y-130486235D01*
X173311767Y-130486238D01*
X173371807Y-130684164D01*
X173392080Y-130890000D01*
X173371807Y-131095836D01*
X173320297Y-131265641D01*
X173311766Y-131293765D01*
X173214268Y-131476170D01*
X173083055Y-131636055D01*
X172923170Y-131767268D01*
X172740765Y-131864766D01*
X172740762Y-131864767D01*
X172542836Y-131924807D01*
X172465707Y-131932403D01*
X172388580Y-131940000D01*
X172035420Y-131940000D01*
X171958293Y-131932403D01*
X171881164Y-131924807D01*
X171683238Y-131864767D01*
X171683235Y-131864766D01*
X171500830Y-131767268D01*
X171340945Y-131636055D01*
X171209732Y-131476170D01*
X171112234Y-131293765D01*
X171103703Y-131265641D01*
X171052193Y-131095836D01*
X171031920Y-130890000D01*
X171052193Y-130684164D01*
X171112233Y-130486238D01*
X171112234Y-130486235D01*
X171209732Y-130303830D01*
X171340945Y-130143945D01*
X171500830Y-130012732D01*
X171683235Y-129915234D01*
X171692907Y-129912300D01*
X171881164Y-129855193D01*
X171958293Y-129847596D01*
X172035420Y-129840000D01*
X172388580Y-129840000D01*
X172465707Y-129847596D01*
G37*
G36*
X163811530Y-130521877D02*
G01*
X163863010Y-130537493D01*
X163910445Y-130562848D01*
X163952027Y-130596973D01*
X163986152Y-130638555D01*
X164011507Y-130685990D01*
X164027123Y-130737470D01*
X164033000Y-130797140D01*
X164033000Y-131584860D01*
X164027123Y-131644530D01*
X164011507Y-131696010D01*
X163986152Y-131743445D01*
X163952027Y-131785027D01*
X163910445Y-131819152D01*
X163863010Y-131844507D01*
X163811530Y-131860123D01*
X163751860Y-131866000D01*
X162864140Y-131866000D01*
X162804470Y-131860123D01*
X162752990Y-131844507D01*
X162705555Y-131819152D01*
X162663973Y-131785027D01*
X162629848Y-131743445D01*
X162604493Y-131696010D01*
X162588877Y-131644530D01*
X162583000Y-131584860D01*
X162583000Y-130797140D01*
X162588877Y-130737470D01*
X162604493Y-130685990D01*
X162629848Y-130638555D01*
X162663973Y-130596973D01*
X162705555Y-130562848D01*
X162752990Y-130537493D01*
X162804470Y-130521877D01*
X162864140Y-130516000D01*
X163751860Y-130516000D01*
X163811530Y-130521877D01*
G37*
G36*
X162061530Y-130521877D02*
G01*
X162113010Y-130537493D01*
X162160445Y-130562848D01*
X162202027Y-130596973D01*
X162236152Y-130638555D01*
X162261507Y-130685990D01*
X162277123Y-130737470D01*
X162283000Y-130797140D01*
X162283000Y-131584860D01*
X162277123Y-131644530D01*
X162261507Y-131696010D01*
X162236152Y-131743445D01*
X162202027Y-131785027D01*
X162160445Y-131819152D01*
X162113010Y-131844507D01*
X162061530Y-131860123D01*
X162001860Y-131866000D01*
X161114140Y-131866000D01*
X161054470Y-131860123D01*
X161002990Y-131844507D01*
X160955555Y-131819152D01*
X160913973Y-131785027D01*
X160879848Y-131743445D01*
X160854493Y-131696010D01*
X160838877Y-131644530D01*
X160833000Y-131584860D01*
X160833000Y-130797140D01*
X160838877Y-130737470D01*
X160854493Y-130685990D01*
X160879848Y-130638555D01*
X160913973Y-130596973D01*
X160955555Y-130562848D01*
X161002990Y-130537493D01*
X161054470Y-130521877D01*
X161114140Y-130516000D01*
X162001860Y-130516000D01*
X162061530Y-130521877D01*
G37*
G36*
X158187530Y-130203877D02*
G01*
X158239010Y-130219493D01*
X158286445Y-130244848D01*
X158328027Y-130278973D01*
X158362152Y-130320555D01*
X158387507Y-130367990D01*
X158403123Y-130419470D01*
X158409000Y-130479140D01*
X158409000Y-131366860D01*
X158403123Y-131426530D01*
X158387507Y-131478010D01*
X158362152Y-131525445D01*
X158328027Y-131567027D01*
X158286445Y-131601152D01*
X158239010Y-131626507D01*
X158187530Y-131642123D01*
X158127860Y-131648000D01*
X157340140Y-131648000D01*
X157280470Y-131642123D01*
X157228990Y-131626507D01*
X157181555Y-131601152D01*
X157139973Y-131567027D01*
X157105848Y-131525445D01*
X157080493Y-131478010D01*
X157064877Y-131426530D01*
X157059000Y-131366860D01*
X157059000Y-130479140D01*
X157064877Y-130419470D01*
X157080493Y-130367990D01*
X157105848Y-130320555D01*
X157139973Y-130278973D01*
X157181555Y-130244848D01*
X157228990Y-130219493D01*
X157280470Y-130203877D01*
X157340140Y-130198000D01*
X158127860Y-130198000D01*
X158187530Y-130203877D01*
G37*
G36*
X132259000Y-131602000D02*
G01*
X126059000Y-131602000D01*
X126059000Y-124802000D01*
X132259000Y-124802000D01*
X132259000Y-131602000D01*
G37*
G36*
X120455866Y-127423246D02*
G01*
X120509125Y-127428491D01*
X120645788Y-127469947D01*
X120645790Y-127469948D01*
X120771736Y-127537268D01*
X120882133Y-127627867D01*
X120972732Y-127738264D01*
X121007777Y-127803829D01*
X121040053Y-127864212D01*
X121081509Y-128000875D01*
X121095507Y-128143000D01*
X121081509Y-128285125D01*
X121040053Y-128421788D01*
X121040052Y-128421790D01*
X120972732Y-128547736D01*
X120882133Y-128658133D01*
X120853813Y-128681374D01*
X120836485Y-128698701D01*
X120822872Y-128719076D01*
X120813494Y-128741715D01*
X120808714Y-128765748D01*
X120808714Y-128790252D01*
X120813494Y-128814285D01*
X120822872Y-128836924D01*
X120836485Y-128857298D01*
X120853813Y-128874626D01*
X120882133Y-128897867D01*
X120946394Y-128976171D01*
X120972731Y-129008263D01*
X121040053Y-129134212D01*
X121081509Y-129270875D01*
X121095507Y-129413000D01*
X121081509Y-129555125D01*
X121062782Y-129616860D01*
X121040052Y-129691791D01*
X120996069Y-129774077D01*
X120986691Y-129796716D01*
X120981911Y-129820749D01*
X120981911Y-129845253D01*
X120986691Y-129869286D01*
X120996069Y-129891925D01*
X121009683Y-129912300D01*
X121027010Y-129929627D01*
X121047384Y-129943240D01*
X121070023Y-129952618D01*
X121092000Y-129955878D01*
X121092000Y-131408000D01*
X119192000Y-131408000D01*
X119192000Y-129956591D01*
X119202078Y-129955598D01*
X119225527Y-129948485D01*
X119247138Y-129936934D01*
X119266080Y-129921389D01*
X119281625Y-129902447D01*
X119293176Y-129880836D01*
X119300289Y-129857387D01*
X119302691Y-129833001D01*
X119300289Y-129808615D01*
X119287931Y-129774077D01*
X119243948Y-129691791D01*
X119221218Y-129616860D01*
X119202491Y-129555125D01*
X119188493Y-129413000D01*
X119202491Y-129270875D01*
X119243947Y-129134212D01*
X119311269Y-129008263D01*
X119337606Y-128976171D01*
X119401867Y-128897867D01*
X119430187Y-128874626D01*
X119447515Y-128857299D01*
X119461128Y-128836924D01*
X119470506Y-128814285D01*
X119475286Y-128790252D01*
X119475286Y-128765748D01*
X119470506Y-128741715D01*
X119461128Y-128719076D01*
X119447515Y-128698702D01*
X119430187Y-128681374D01*
X119401867Y-128658133D01*
X119311268Y-128547736D01*
X119243948Y-128421790D01*
X119243947Y-128421788D01*
X119202491Y-128285125D01*
X119188493Y-128143000D01*
X119202491Y-128000875D01*
X119243947Y-127864212D01*
X119276223Y-127803829D01*
X119311268Y-127738264D01*
X119401867Y-127627867D01*
X119512264Y-127537268D01*
X119638210Y-127469948D01*
X119638212Y-127469947D01*
X119774875Y-127428491D01*
X119828134Y-127423246D01*
X119881391Y-127418000D01*
X120402609Y-127418000D01*
X120455866Y-127423246D01*
G37*
G36*
X155583963Y-129806196D02*
G01*
X155619021Y-129816831D01*
X155651332Y-129834102D01*
X155679655Y-129857345D01*
X155702898Y-129885668D01*
X155720169Y-129917979D01*
X155730804Y-129953037D01*
X155735000Y-129995641D01*
X155735000Y-130608359D01*
X155730804Y-130650963D01*
X155720169Y-130686021D01*
X155702898Y-130718332D01*
X155679655Y-130746655D01*
X155651332Y-130769898D01*
X155619021Y-130787169D01*
X155583963Y-130797804D01*
X155541359Y-130802000D01*
X153478641Y-130802000D01*
X153436037Y-130797804D01*
X153400979Y-130787169D01*
X153368668Y-130769898D01*
X153340345Y-130746655D01*
X153317102Y-130718332D01*
X153299831Y-130686021D01*
X153289196Y-130650963D01*
X153285000Y-130608359D01*
X153285000Y-129995641D01*
X153289196Y-129953037D01*
X153299831Y-129917979D01*
X153317102Y-129885668D01*
X153340345Y-129857345D01*
X153368668Y-129834102D01*
X153400979Y-129816831D01*
X153436037Y-129806196D01*
X153478641Y-129802000D01*
X155541359Y-129802000D01*
X155583963Y-129806196D01*
G37*
G36*
X146283963Y-129806196D02*
G01*
X146319021Y-129816831D01*
X146351332Y-129834102D01*
X146379655Y-129857345D01*
X146402898Y-129885668D01*
X146420169Y-129917979D01*
X146430804Y-129953037D01*
X146435000Y-129995641D01*
X146435000Y-130608359D01*
X146430804Y-130650963D01*
X146420169Y-130686021D01*
X146402898Y-130718332D01*
X146379655Y-130746655D01*
X146351332Y-130769898D01*
X146319021Y-130787169D01*
X146283963Y-130797804D01*
X146241359Y-130802000D01*
X144178641Y-130802000D01*
X144136037Y-130797804D01*
X144100979Y-130787169D01*
X144068668Y-130769898D01*
X144040345Y-130746655D01*
X144017102Y-130718332D01*
X143999831Y-130686021D01*
X143989196Y-130650963D01*
X143985000Y-130608359D01*
X143985000Y-129995641D01*
X143989196Y-129953037D01*
X143999831Y-129917979D01*
X144017102Y-129885668D01*
X144040345Y-129857345D01*
X144068668Y-129834102D01*
X144100979Y-129816831D01*
X144136037Y-129806196D01*
X144178641Y-129802000D01*
X146241359Y-129802000D01*
X146283963Y-129806196D01*
G37*
G36*
X123643530Y-128538877D02*
G01*
X123695010Y-128554493D01*
X123742445Y-128579848D01*
X123784027Y-128613973D01*
X123818152Y-128655555D01*
X123843507Y-128702990D01*
X123859123Y-128754470D01*
X123865000Y-128814140D01*
X123865000Y-129701860D01*
X123859123Y-129761530D01*
X123843507Y-129813010D01*
X123818152Y-129860445D01*
X123784027Y-129902027D01*
X123742445Y-129936152D01*
X123695010Y-129961507D01*
X123643530Y-129977123D01*
X123583860Y-129983000D01*
X122796140Y-129983000D01*
X122736470Y-129977123D01*
X122684990Y-129961507D01*
X122637555Y-129936152D01*
X122595973Y-129902027D01*
X122561848Y-129860445D01*
X122536493Y-129813010D01*
X122520877Y-129761530D01*
X122515000Y-129701860D01*
X122515000Y-128814140D01*
X122520877Y-128754470D01*
X122536493Y-128702990D01*
X122561848Y-128655555D01*
X122595973Y-128613973D01*
X122637555Y-128579848D01*
X122684990Y-128554493D01*
X122736470Y-128538877D01*
X122796140Y-128533000D01*
X123583860Y-128533000D01*
X123643530Y-128538877D01*
G37*
G36*
X158187530Y-128453877D02*
G01*
X158239010Y-128469493D01*
X158286445Y-128494848D01*
X158328027Y-128528973D01*
X158362152Y-128570555D01*
X158387507Y-128617990D01*
X158403123Y-128669470D01*
X158409000Y-128729140D01*
X158409000Y-129616860D01*
X158403123Y-129676530D01*
X158387507Y-129728010D01*
X158362152Y-129775445D01*
X158328027Y-129817027D01*
X158286445Y-129851152D01*
X158239010Y-129876507D01*
X158187530Y-129892123D01*
X158127860Y-129898000D01*
X157340140Y-129898000D01*
X157280470Y-129892123D01*
X157228990Y-129876507D01*
X157181555Y-129851152D01*
X157139973Y-129817027D01*
X157105848Y-129775445D01*
X157080493Y-129728010D01*
X157064877Y-129676530D01*
X157059000Y-129616860D01*
X157059000Y-128729140D01*
X157064877Y-128669470D01*
X157080493Y-128617990D01*
X157105848Y-128570555D01*
X157139973Y-128528973D01*
X157181555Y-128494848D01*
X157228990Y-128469493D01*
X157280470Y-128453877D01*
X157340140Y-128448000D01*
X158127860Y-128448000D01*
X158187530Y-128453877D01*
G37*
G36*
X155583963Y-128536196D02*
G01*
X155619021Y-128546831D01*
X155651332Y-128564102D01*
X155679655Y-128587345D01*
X155702898Y-128615668D01*
X155720169Y-128647979D01*
X155730804Y-128683037D01*
X155735000Y-128725641D01*
X155735000Y-129338359D01*
X155730804Y-129380963D01*
X155720169Y-129416021D01*
X155702898Y-129448332D01*
X155679655Y-129476655D01*
X155651332Y-129499898D01*
X155619021Y-129517169D01*
X155583963Y-129527804D01*
X155541359Y-129532000D01*
X153478641Y-129532000D01*
X153436037Y-129527804D01*
X153400979Y-129517169D01*
X153368668Y-129499898D01*
X153340345Y-129476655D01*
X153317102Y-129448332D01*
X153299831Y-129416021D01*
X153289196Y-129380963D01*
X153285000Y-129338359D01*
X153285000Y-128725641D01*
X153289196Y-128683037D01*
X153299831Y-128647979D01*
X153317102Y-128615668D01*
X153340345Y-128587345D01*
X153368668Y-128564102D01*
X153400979Y-128546831D01*
X153436037Y-128536196D01*
X153478641Y-128532000D01*
X155541359Y-128532000D01*
X155583963Y-128536196D01*
G37*
G36*
X146283963Y-128536196D02*
G01*
X146319021Y-128546831D01*
X146351332Y-128564102D01*
X146379655Y-128587345D01*
X146402898Y-128615668D01*
X146420169Y-128647979D01*
X146430804Y-128683037D01*
X146435000Y-128725641D01*
X146435000Y-129338359D01*
X146430804Y-129380963D01*
X146420169Y-129416021D01*
X146402898Y-129448332D01*
X146379655Y-129476655D01*
X146351332Y-129499898D01*
X146319021Y-129517169D01*
X146283963Y-129527804D01*
X146241359Y-129532000D01*
X144178641Y-129532000D01*
X144136037Y-129527804D01*
X144100979Y-129517169D01*
X144068668Y-129499898D01*
X144040345Y-129476655D01*
X144017102Y-129448332D01*
X143999831Y-129416021D01*
X143989196Y-129380963D01*
X143985000Y-129338359D01*
X143985000Y-128725641D01*
X143989196Y-128683037D01*
X143999831Y-128647979D01*
X144017102Y-128615668D01*
X144040345Y-128587345D01*
X144068668Y-128564102D01*
X144100979Y-128546831D01*
X144136037Y-128536196D01*
X144178641Y-128532000D01*
X146241359Y-128532000D01*
X146283963Y-128536196D01*
G37*
G36*
X172465707Y-127347596D02*
G01*
X172542836Y-127355193D01*
X172736730Y-127414010D01*
X172740765Y-127415234D01*
X172923170Y-127512732D01*
X173083055Y-127643945D01*
X173214268Y-127803830D01*
X173311766Y-127986235D01*
X173311767Y-127986238D01*
X173371807Y-128184164D01*
X173392080Y-128390000D01*
X173371807Y-128595836D01*
X173327668Y-128741344D01*
X173311766Y-128793765D01*
X173214268Y-128976170D01*
X173083055Y-129136055D01*
X172923170Y-129267268D01*
X172740765Y-129364766D01*
X172740762Y-129364767D01*
X172542836Y-129424807D01*
X172465707Y-129432403D01*
X172388580Y-129440000D01*
X172035420Y-129440000D01*
X171958293Y-129432403D01*
X171881164Y-129424807D01*
X171683238Y-129364767D01*
X171683235Y-129364766D01*
X171500830Y-129267268D01*
X171340945Y-129136055D01*
X171209732Y-128976170D01*
X171112234Y-128793765D01*
X171096332Y-128741344D01*
X171052193Y-128595836D01*
X171031920Y-128390000D01*
X171052193Y-128184164D01*
X171112233Y-127986238D01*
X171112234Y-127986235D01*
X171209732Y-127803830D01*
X171340945Y-127643945D01*
X171500830Y-127512732D01*
X171683235Y-127415234D01*
X171687270Y-127414010D01*
X171881164Y-127355193D01*
X171958293Y-127347596D01*
X172035420Y-127340000D01*
X172388580Y-127340000D01*
X172465707Y-127347596D01*
G37*
G36*
X137978295Y-126829848D02*
G01*
X138072105Y-126848508D01*
X138244994Y-126920121D01*
X138400590Y-127024087D01*
X138532913Y-127156410D01*
X138636879Y-127312006D01*
X138708492Y-127484895D01*
X138718910Y-127537268D01*
X138745000Y-127668432D01*
X138745000Y-127855568D01*
X138731683Y-127922515D01*
X138708492Y-128039105D01*
X138636879Y-128211994D01*
X138532913Y-128367590D01*
X138400590Y-128499913D01*
X138244994Y-128603879D01*
X138072105Y-128675492D01*
X138009223Y-128688000D01*
X137888568Y-128712000D01*
X137701432Y-128712000D01*
X137580777Y-128688000D01*
X137517895Y-128675492D01*
X137345006Y-128603879D01*
X137189410Y-128499913D01*
X137057087Y-128367590D01*
X136953121Y-128211994D01*
X136881508Y-128039105D01*
X136858317Y-127922515D01*
X136845000Y-127855568D01*
X136845000Y-127668432D01*
X136871090Y-127537268D01*
X136881508Y-127484895D01*
X136953121Y-127312006D01*
X137057087Y-127156410D01*
X137189410Y-127024087D01*
X137345006Y-126920121D01*
X137517895Y-126848508D01*
X137611705Y-126829848D01*
X137701432Y-126812000D01*
X137888568Y-126812000D01*
X137978295Y-126829848D01*
G37*
G36*
X161108963Y-127393196D02*
G01*
X161144021Y-127403831D01*
X161176332Y-127421102D01*
X161204655Y-127444345D01*
X161227898Y-127472668D01*
X161245169Y-127504979D01*
X161255804Y-127540037D01*
X161260000Y-127582641D01*
X161260000Y-128195359D01*
X161255804Y-128237963D01*
X161245169Y-128273021D01*
X161227898Y-128305332D01*
X161204655Y-128333655D01*
X161176332Y-128356898D01*
X161144021Y-128374169D01*
X161108963Y-128384804D01*
X161066359Y-128389000D01*
X159103641Y-128389000D01*
X159061037Y-128384804D01*
X159025979Y-128374169D01*
X158993668Y-128356898D01*
X158965345Y-128333655D01*
X158942102Y-128305332D01*
X158924831Y-128273021D01*
X158914196Y-128237963D01*
X158910000Y-128195359D01*
X158910000Y-127582641D01*
X158914196Y-127540037D01*
X158924831Y-127504979D01*
X158942102Y-127472668D01*
X158965345Y-127444345D01*
X158993668Y-127421102D01*
X159025979Y-127403831D01*
X159061037Y-127393196D01*
X159103641Y-127389000D01*
X161066359Y-127389000D01*
X161108963Y-127393196D01*
G37*
G36*
X166058963Y-127393196D02*
G01*
X166094021Y-127403831D01*
X166126332Y-127421102D01*
X166154655Y-127444345D01*
X166177898Y-127472668D01*
X166195169Y-127504979D01*
X166205804Y-127540037D01*
X166210000Y-127582641D01*
X166210000Y-128195359D01*
X166205804Y-128237963D01*
X166195169Y-128273021D01*
X166177898Y-128305332D01*
X166154655Y-128333655D01*
X166126332Y-128356898D01*
X166094021Y-128374169D01*
X166058963Y-128384804D01*
X166016359Y-128389000D01*
X164053641Y-128389000D01*
X164011037Y-128384804D01*
X163975979Y-128374169D01*
X163943668Y-128356898D01*
X163915345Y-128333655D01*
X163892102Y-128305332D01*
X163874831Y-128273021D01*
X163864196Y-128237963D01*
X163860000Y-128195359D01*
X163860000Y-127582641D01*
X163864196Y-127540037D01*
X163874831Y-127504979D01*
X163892102Y-127472668D01*
X163915345Y-127444345D01*
X163943668Y-127421102D01*
X163975979Y-127403831D01*
X164011037Y-127393196D01*
X164053641Y-127389000D01*
X166016359Y-127389000D01*
X166058963Y-127393196D01*
G37*
G36*
X123643530Y-126788877D02*
G01*
X123695010Y-126804493D01*
X123742445Y-126829848D01*
X123784027Y-126863973D01*
X123818152Y-126905555D01*
X123843507Y-126952990D01*
X123859123Y-127004470D01*
X123865000Y-127064140D01*
X123865000Y-127951860D01*
X123859123Y-128011530D01*
X123843507Y-128063010D01*
X123818152Y-128110445D01*
X123784027Y-128152027D01*
X123742445Y-128186152D01*
X123695010Y-128211507D01*
X123643530Y-128227123D01*
X123583860Y-128233000D01*
X122796140Y-128233000D01*
X122736470Y-128227123D01*
X122684990Y-128211507D01*
X122637555Y-128186152D01*
X122595973Y-128152027D01*
X122561848Y-128110445D01*
X122536493Y-128063010D01*
X122520877Y-128011530D01*
X122515000Y-127951860D01*
X122515000Y-127064140D01*
X122520877Y-127004470D01*
X122536493Y-126952990D01*
X122561848Y-126905555D01*
X122595973Y-126863973D01*
X122637555Y-126829848D01*
X122684990Y-126804493D01*
X122736470Y-126788877D01*
X122796140Y-126783000D01*
X123583860Y-126783000D01*
X123643530Y-126788877D01*
G37*
G36*
X147301530Y-125060877D02*
G01*
X147353010Y-125076493D01*
X147400445Y-125101848D01*
X147442027Y-125135973D01*
X147476152Y-125177555D01*
X147501507Y-125224990D01*
X147517123Y-125276470D01*
X147523000Y-125336140D01*
X147523000Y-126123860D01*
X147517123Y-126183530D01*
X147501507Y-126235010D01*
X147476152Y-126282445D01*
X147442027Y-126324027D01*
X147400445Y-126358152D01*
X147353009Y-126383507D01*
X147319655Y-126393625D01*
X147297016Y-126403003D01*
X147276641Y-126416617D01*
X147259314Y-126433944D01*
X147245701Y-126454318D01*
X147236323Y-126476957D01*
X147231543Y-126500990D01*
X147231543Y-126525494D01*
X147236323Y-126549527D01*
X147245701Y-126572166D01*
X147259315Y-126592541D01*
X147276642Y-126609868D01*
X147297019Y-126623483D01*
X147301448Y-126625850D01*
X147343027Y-126659973D01*
X147377152Y-126701555D01*
X147402507Y-126748990D01*
X147418123Y-126800470D01*
X147424000Y-126860140D01*
X147424000Y-127647860D01*
X147418123Y-127707530D01*
X147402507Y-127759010D01*
X147377152Y-127806445D01*
X147343027Y-127848027D01*
X147301445Y-127882152D01*
X147254010Y-127907507D01*
X147202530Y-127923123D01*
X147142860Y-127929000D01*
X146255140Y-127929000D01*
X146195470Y-127923123D01*
X146143990Y-127907507D01*
X146096555Y-127882152D01*
X146054973Y-127848027D01*
X146020848Y-127806445D01*
X145995493Y-127759010D01*
X145979877Y-127707530D01*
X145974000Y-127647860D01*
X145974000Y-126860140D01*
X145979877Y-126800470D01*
X145995493Y-126748990D01*
X146020848Y-126701555D01*
X146054973Y-126659973D01*
X146096555Y-126625848D01*
X146143991Y-126600493D01*
X146177345Y-126590375D01*
X146199984Y-126580997D01*
X146220359Y-126567383D01*
X146237686Y-126550056D01*
X146251299Y-126529682D01*
X146260677Y-126507043D01*
X146265457Y-126483010D01*
X146265457Y-126458506D01*
X146260677Y-126434473D01*
X146251299Y-126411834D01*
X146237685Y-126391459D01*
X146220358Y-126374132D01*
X146199981Y-126360517D01*
X146195552Y-126358150D01*
X146153973Y-126324027D01*
X146119848Y-126282445D01*
X146094493Y-126235010D01*
X146078877Y-126183530D01*
X146073000Y-126123860D01*
X146073000Y-125336140D01*
X146078877Y-125276470D01*
X146094493Y-125224990D01*
X146119848Y-125177555D01*
X146153973Y-125135973D01*
X146195555Y-125101848D01*
X146242990Y-125076493D01*
X146294470Y-125060877D01*
X146354140Y-125055000D01*
X147241860Y-125055000D01*
X147301530Y-125060877D01*
G37*
G36*
X149192196Y-125060877D02*
G01*
X149243676Y-125076493D01*
X149291111Y-125101848D01*
X149332693Y-125135973D01*
X149366818Y-125177555D01*
X149392173Y-125224990D01*
X149407789Y-125276470D01*
X149413666Y-125336140D01*
X149413666Y-126123860D01*
X149407789Y-126183530D01*
X149392173Y-126235010D01*
X149366818Y-126282445D01*
X149332693Y-126324027D01*
X149291111Y-126358152D01*
X149243676Y-126383507D01*
X149192196Y-126399123D01*
X149132526Y-126405000D01*
X149131690Y-126405000D01*
X149107304Y-126407402D01*
X149083855Y-126414515D01*
X149062244Y-126426066D01*
X149043302Y-126441611D01*
X149027757Y-126460553D01*
X149016206Y-126482164D01*
X149009093Y-126505613D01*
X149006691Y-126529999D01*
X149009093Y-126554385D01*
X149016206Y-126577834D01*
X149027757Y-126599445D01*
X149052391Y-126626624D01*
X149093027Y-126659973D01*
X149127152Y-126701555D01*
X149152507Y-126748990D01*
X149168123Y-126800470D01*
X149174000Y-126860140D01*
X149174000Y-127647860D01*
X149168123Y-127707530D01*
X149152507Y-127759010D01*
X149127152Y-127806445D01*
X149093027Y-127848027D01*
X149051445Y-127882152D01*
X149004010Y-127907507D01*
X148952530Y-127923123D01*
X148892860Y-127929000D01*
X148005140Y-127929000D01*
X147945470Y-127923123D01*
X147893990Y-127907507D01*
X147846555Y-127882152D01*
X147804973Y-127848027D01*
X147770848Y-127806445D01*
X147745493Y-127759010D01*
X147729877Y-127707530D01*
X147724000Y-127647860D01*
X147724000Y-126860140D01*
X147729877Y-126800470D01*
X147745493Y-126748990D01*
X147770848Y-126701555D01*
X147804973Y-126659973D01*
X147846555Y-126625848D01*
X147893990Y-126600493D01*
X147945470Y-126584877D01*
X148005140Y-126579000D01*
X148005976Y-126579000D01*
X148030362Y-126576598D01*
X148053811Y-126569485D01*
X148075422Y-126557934D01*
X148094364Y-126542389D01*
X148109909Y-126523447D01*
X148121460Y-126501836D01*
X148128573Y-126478387D01*
X148130975Y-126454001D01*
X148128573Y-126429615D01*
X148121460Y-126406166D01*
X148109909Y-126384555D01*
X148085275Y-126357376D01*
X148044639Y-126324027D01*
X148010514Y-126282445D01*
X147985159Y-126235010D01*
X147969543Y-126183530D01*
X147963666Y-126123860D01*
X147963666Y-125336140D01*
X147969543Y-125276470D01*
X147985159Y-125224990D01*
X148010514Y-125177555D01*
X148044639Y-125135973D01*
X148086221Y-125101848D01*
X148133656Y-125076493D01*
X148185136Y-125060877D01*
X148244806Y-125055000D01*
X149132526Y-125055000D01*
X149192196Y-125060877D01*
G37*
G36*
X166058963Y-126123196D02*
G01*
X166094021Y-126133831D01*
X166126332Y-126151102D01*
X166154655Y-126174345D01*
X166177898Y-126202668D01*
X166195169Y-126234979D01*
X166205804Y-126270037D01*
X166210000Y-126312641D01*
X166210000Y-126378561D01*
X166212402Y-126402947D01*
X166219515Y-126426396D01*
X166231066Y-126448007D01*
X166246611Y-126466949D01*
X166265553Y-126482494D01*
X166287164Y-126494045D01*
X166310613Y-126501158D01*
X166334999Y-126503560D01*
X166359385Y-126501158D01*
X166382834Y-126494045D01*
X166404445Y-126482494D01*
X166423387Y-126466949D01*
X166438932Y-126448007D01*
X166450483Y-126426396D01*
X166459396Y-126390813D01*
X166462877Y-126355470D01*
X166478493Y-126303990D01*
X166503848Y-126256555D01*
X166537973Y-126214973D01*
X166579555Y-126180848D01*
X166626990Y-126155493D01*
X166678470Y-126139877D01*
X166738140Y-126134000D01*
X167525860Y-126134000D01*
X167585530Y-126139877D01*
X167637010Y-126155493D01*
X167684445Y-126180848D01*
X167726027Y-126214973D01*
X167760152Y-126256555D01*
X167785507Y-126303990D01*
X167801123Y-126355470D01*
X167807000Y-126415140D01*
X167807000Y-127302860D01*
X167801123Y-127362530D01*
X167785507Y-127414010D01*
X167760152Y-127461445D01*
X167726027Y-127503027D01*
X167684445Y-127537152D01*
X167637010Y-127562507D01*
X167585530Y-127578123D01*
X167525860Y-127584000D01*
X166738140Y-127584000D01*
X166678470Y-127578123D01*
X166626990Y-127562507D01*
X166579555Y-127537152D01*
X166537973Y-127503027D01*
X166503848Y-127461445D01*
X166478493Y-127414010D01*
X166462877Y-127362530D01*
X166457000Y-127302860D01*
X166457000Y-126961937D01*
X166454598Y-126937551D01*
X166447485Y-126914102D01*
X166435934Y-126892491D01*
X166420389Y-126873549D01*
X166401447Y-126858004D01*
X166379836Y-126846453D01*
X166356387Y-126839340D01*
X166332001Y-126836938D01*
X166307615Y-126839340D01*
X166284166Y-126846453D01*
X166262555Y-126858004D01*
X166243613Y-126873549D01*
X166228068Y-126892491D01*
X166216517Y-126914102D01*
X166207604Y-126949684D01*
X166205804Y-126967963D01*
X166195169Y-127003021D01*
X166177898Y-127035332D01*
X166154655Y-127063655D01*
X166126332Y-127086898D01*
X166094021Y-127104169D01*
X166058963Y-127114804D01*
X166016359Y-127119000D01*
X164053641Y-127119000D01*
X164011037Y-127114804D01*
X163975979Y-127104169D01*
X163943668Y-127086898D01*
X163915345Y-127063655D01*
X163892102Y-127035332D01*
X163874831Y-127003021D01*
X163864196Y-126967963D01*
X163860000Y-126925359D01*
X163860000Y-126312641D01*
X163864196Y-126270037D01*
X163874831Y-126234979D01*
X163892102Y-126202668D01*
X163915345Y-126174345D01*
X163943668Y-126151102D01*
X163975979Y-126133831D01*
X164011037Y-126123196D01*
X164053641Y-126119000D01*
X166016359Y-126119000D01*
X166058963Y-126123196D01*
G37*
G36*
X161108963Y-126123196D02*
G01*
X161144021Y-126133831D01*
X161176332Y-126151102D01*
X161204655Y-126174345D01*
X161227898Y-126202668D01*
X161245169Y-126234979D01*
X161255804Y-126270037D01*
X161260000Y-126312641D01*
X161260000Y-126925359D01*
X161255804Y-126967963D01*
X161245169Y-127003021D01*
X161227898Y-127035332D01*
X161204655Y-127063655D01*
X161176332Y-127086898D01*
X161144021Y-127104169D01*
X161108963Y-127114804D01*
X161066359Y-127119000D01*
X159103641Y-127119000D01*
X159061037Y-127114804D01*
X159025979Y-127104169D01*
X158993668Y-127086898D01*
X158965345Y-127063655D01*
X158942102Y-127035332D01*
X158924831Y-127003021D01*
X158914196Y-126967963D01*
X158910000Y-126925359D01*
X158910000Y-126312641D01*
X158914196Y-126270037D01*
X158924831Y-126234979D01*
X158942102Y-126202668D01*
X158965345Y-126174345D01*
X158993668Y-126151102D01*
X159025979Y-126133831D01*
X159061037Y-126123196D01*
X159103641Y-126119000D01*
X161066359Y-126119000D01*
X161108963Y-126123196D01*
G37*
G36*
X172465707Y-124847596D02*
G01*
X172542836Y-124855193D01*
X172740762Y-124915233D01*
X172740765Y-124915234D01*
X172923170Y-125012732D01*
X173083055Y-125143945D01*
X173214268Y-125303830D01*
X173311766Y-125486235D01*
X173311767Y-125486238D01*
X173371807Y-125684164D01*
X173392080Y-125890000D01*
X173371807Y-126095836D01*
X173318964Y-126270037D01*
X173311766Y-126293765D01*
X173214268Y-126476170D01*
X173083055Y-126636055D01*
X172923170Y-126767268D01*
X172740765Y-126864766D01*
X172740762Y-126864767D01*
X172542836Y-126924807D01*
X172465707Y-126932404D01*
X172388580Y-126940000D01*
X172035420Y-126940000D01*
X171958293Y-126932404D01*
X171881164Y-126924807D01*
X171683238Y-126864767D01*
X171683235Y-126864766D01*
X171500830Y-126767268D01*
X171340945Y-126636055D01*
X171209732Y-126476170D01*
X171112234Y-126293765D01*
X171105036Y-126270037D01*
X171052193Y-126095836D01*
X171031920Y-125890000D01*
X171052193Y-125684164D01*
X171112233Y-125486238D01*
X171112234Y-125486235D01*
X171209732Y-125303830D01*
X171340945Y-125143945D01*
X171500830Y-125012732D01*
X171683235Y-124915234D01*
X171683238Y-124915233D01*
X171881164Y-124855193D01*
X171958293Y-124847596D01*
X172035420Y-124840000D01*
X172388580Y-124840000D01*
X172465707Y-124847596D01*
G37*
G36*
X156473530Y-125060877D02*
G01*
X156525010Y-125076493D01*
X156572445Y-125101848D01*
X156614027Y-125135973D01*
X156648152Y-125177555D01*
X156673507Y-125224990D01*
X156689123Y-125276470D01*
X156695000Y-125336140D01*
X156695000Y-126123860D01*
X156689123Y-126183530D01*
X156673507Y-126235010D01*
X156648152Y-126282445D01*
X156614027Y-126324027D01*
X156572445Y-126358152D01*
X156525010Y-126383507D01*
X156473530Y-126399123D01*
X156413860Y-126405000D01*
X155526140Y-126405000D01*
X155466470Y-126399123D01*
X155414990Y-126383507D01*
X155367555Y-126358152D01*
X155325973Y-126324027D01*
X155291848Y-126282445D01*
X155266493Y-126235010D01*
X155250877Y-126183530D01*
X155245000Y-126123860D01*
X155245000Y-125336140D01*
X155250877Y-125276470D01*
X155266493Y-125224990D01*
X155291848Y-125177555D01*
X155325973Y-125135973D01*
X155367555Y-125101848D01*
X155414990Y-125076493D01*
X155466470Y-125060877D01*
X155526140Y-125055000D01*
X156413860Y-125055000D01*
X156473530Y-125060877D01*
G37*
G36*
X145551530Y-125060877D02*
G01*
X145603010Y-125076493D01*
X145650445Y-125101848D01*
X145692027Y-125135973D01*
X145726152Y-125177555D01*
X145751507Y-125224990D01*
X145767123Y-125276470D01*
X145773000Y-125336140D01*
X145773000Y-126123860D01*
X145767123Y-126183530D01*
X145751507Y-126235010D01*
X145726152Y-126282445D01*
X145692027Y-126324027D01*
X145650445Y-126358152D01*
X145603010Y-126383507D01*
X145551530Y-126399123D01*
X145491860Y-126405000D01*
X144604140Y-126405000D01*
X144544470Y-126399123D01*
X144492990Y-126383507D01*
X144445555Y-126358152D01*
X144403973Y-126324027D01*
X144369848Y-126282445D01*
X144344493Y-126235010D01*
X144328877Y-126183530D01*
X144323000Y-126123860D01*
X144323000Y-125336140D01*
X144328877Y-125276470D01*
X144344493Y-125224990D01*
X144369848Y-125177555D01*
X144403973Y-125135973D01*
X144445555Y-125101848D01*
X144492990Y-125076493D01*
X144544470Y-125060877D01*
X144604140Y-125055000D01*
X145491860Y-125055000D01*
X145551530Y-125060877D01*
G37*
G36*
X150942196Y-125060877D02*
G01*
X150993676Y-125076493D01*
X151041111Y-125101848D01*
X151082693Y-125135973D01*
X151116818Y-125177555D01*
X151142173Y-125224990D01*
X151157789Y-125276470D01*
X151163666Y-125336140D01*
X151163666Y-126123860D01*
X151157789Y-126183530D01*
X151142173Y-126235010D01*
X151116818Y-126282445D01*
X151082693Y-126324027D01*
X151041111Y-126358152D01*
X150993676Y-126383507D01*
X150942196Y-126399123D01*
X150882526Y-126405000D01*
X149994806Y-126405000D01*
X149935136Y-126399123D01*
X149883656Y-126383507D01*
X149836221Y-126358152D01*
X149794639Y-126324027D01*
X149760514Y-126282445D01*
X149735159Y-126235010D01*
X149719543Y-126183530D01*
X149713666Y-126123860D01*
X149713666Y-125336140D01*
X149719543Y-125276470D01*
X149735159Y-125224990D01*
X149760514Y-125177555D01*
X149794639Y-125135973D01*
X149836221Y-125101848D01*
X149883656Y-125076493D01*
X149935136Y-125060877D01*
X149994806Y-125055000D01*
X150882526Y-125055000D01*
X150942196Y-125060877D01*
G37*
G36*
X152832862Y-125060877D02*
G01*
X152884342Y-125076493D01*
X152931777Y-125101848D01*
X152973359Y-125135973D01*
X153007484Y-125177555D01*
X153032839Y-125224990D01*
X153048455Y-125276470D01*
X153054332Y-125336140D01*
X153054332Y-126123860D01*
X153048455Y-126183530D01*
X153032839Y-126235010D01*
X153007484Y-126282445D01*
X152973359Y-126324027D01*
X152931777Y-126358152D01*
X152884342Y-126383507D01*
X152832862Y-126399123D01*
X152773192Y-126405000D01*
X151885472Y-126405000D01*
X151825802Y-126399123D01*
X151774322Y-126383507D01*
X151726887Y-126358152D01*
X151685305Y-126324027D01*
X151651180Y-126282445D01*
X151625825Y-126235010D01*
X151610209Y-126183530D01*
X151604332Y-126123860D01*
X151604332Y-125336140D01*
X151610209Y-125276470D01*
X151625825Y-125224990D01*
X151651180Y-125177555D01*
X151685305Y-125135973D01*
X151726887Y-125101848D01*
X151774322Y-125076493D01*
X151825802Y-125060877D01*
X151885472Y-125055000D01*
X152773192Y-125055000D01*
X152832862Y-125060877D01*
G37*
G36*
X154582862Y-125060877D02*
G01*
X154634342Y-125076493D01*
X154681777Y-125101848D01*
X154723359Y-125135973D01*
X154757484Y-125177555D01*
X154782839Y-125224990D01*
X154798455Y-125276470D01*
X154804332Y-125336140D01*
X154804332Y-126123860D01*
X154798455Y-126183530D01*
X154782839Y-126235010D01*
X154757484Y-126282445D01*
X154723359Y-126324027D01*
X154681777Y-126358152D01*
X154634342Y-126383507D01*
X154582862Y-126399123D01*
X154523192Y-126405000D01*
X153635472Y-126405000D01*
X153575802Y-126399123D01*
X153524322Y-126383507D01*
X153476887Y-126358152D01*
X153435305Y-126324027D01*
X153401180Y-126282445D01*
X153375825Y-126235010D01*
X153360209Y-126183530D01*
X153354332Y-126123860D01*
X153354332Y-125336140D01*
X153360209Y-125276470D01*
X153375825Y-125224990D01*
X153401180Y-125177555D01*
X153435305Y-125135973D01*
X153476887Y-125101848D01*
X153524322Y-125076493D01*
X153575802Y-125060877D01*
X153635472Y-125055000D01*
X154523192Y-125055000D01*
X154582862Y-125060877D01*
G37*
G36*
X158223530Y-125060877D02*
G01*
X158275010Y-125076493D01*
X158322445Y-125101848D01*
X158364027Y-125135973D01*
X158398152Y-125177555D01*
X158423507Y-125224990D01*
X158439123Y-125276470D01*
X158445000Y-125336140D01*
X158445000Y-126123860D01*
X158439123Y-126183530D01*
X158423507Y-126235010D01*
X158398152Y-126282445D01*
X158364027Y-126324027D01*
X158322445Y-126358152D01*
X158275010Y-126383507D01*
X158223530Y-126399123D01*
X158163860Y-126405000D01*
X157276140Y-126405000D01*
X157216470Y-126399123D01*
X157164990Y-126383507D01*
X157117555Y-126358152D01*
X157075973Y-126324027D01*
X157041848Y-126282445D01*
X157016493Y-126235010D01*
X157000877Y-126183530D01*
X156995000Y-126123860D01*
X156995000Y-125336140D01*
X157000877Y-125276470D01*
X157016493Y-125224990D01*
X157041848Y-125177555D01*
X157075973Y-125135973D01*
X157117555Y-125101848D01*
X157164990Y-125076493D01*
X157216470Y-125060877D01*
X157276140Y-125055000D01*
X158163860Y-125055000D01*
X158223530Y-125060877D01*
G37*
G36*
X161108963Y-124853196D02*
G01*
X161144021Y-124863831D01*
X161176332Y-124881102D01*
X161204655Y-124904345D01*
X161227898Y-124932668D01*
X161245169Y-124964979D01*
X161255804Y-125000037D01*
X161260000Y-125042641D01*
X161260000Y-125655359D01*
X161255804Y-125697963D01*
X161245169Y-125733021D01*
X161227898Y-125765332D01*
X161204655Y-125793655D01*
X161176332Y-125816898D01*
X161144021Y-125834169D01*
X161108963Y-125844804D01*
X161066359Y-125849000D01*
X159103641Y-125849000D01*
X159061037Y-125844804D01*
X159025979Y-125834169D01*
X158993668Y-125816898D01*
X158965345Y-125793655D01*
X158942102Y-125765332D01*
X158924831Y-125733021D01*
X158914196Y-125697963D01*
X158910000Y-125655359D01*
X158910000Y-125042641D01*
X158914196Y-125000037D01*
X158924831Y-124964979D01*
X158942102Y-124932668D01*
X158965345Y-124904345D01*
X158993668Y-124881102D01*
X159025979Y-124863831D01*
X159061037Y-124853196D01*
X159103641Y-124849000D01*
X161066359Y-124849000D01*
X161108963Y-124853196D01*
G37*
G36*
X167585530Y-124389877D02*
G01*
X167637010Y-124405493D01*
X167684445Y-124430848D01*
X167726027Y-124464973D01*
X167760152Y-124506555D01*
X167785507Y-124553990D01*
X167801123Y-124605470D01*
X167807000Y-124665140D01*
X167807000Y-125552860D01*
X167801123Y-125612530D01*
X167785507Y-125664010D01*
X167760152Y-125711445D01*
X167726027Y-125753027D01*
X167684445Y-125787152D01*
X167637010Y-125812507D01*
X167585530Y-125828123D01*
X167525860Y-125834000D01*
X166738140Y-125834000D01*
X166678470Y-125828123D01*
X166626990Y-125812507D01*
X166579555Y-125787152D01*
X166537973Y-125753027D01*
X166503848Y-125711445D01*
X166478493Y-125664010D01*
X166462877Y-125612530D01*
X166459396Y-125577187D01*
X166454616Y-125553153D01*
X166445238Y-125530515D01*
X166431624Y-125510140D01*
X166414297Y-125492813D01*
X166393923Y-125479200D01*
X166371284Y-125469822D01*
X166347251Y-125465042D01*
X166322747Y-125465042D01*
X166298713Y-125469822D01*
X166276075Y-125479200D01*
X166255700Y-125492814D01*
X166238373Y-125510141D01*
X166224760Y-125530515D01*
X166215382Y-125553154D01*
X166210000Y-125589439D01*
X166210000Y-125655359D01*
X166205804Y-125697963D01*
X166195169Y-125733021D01*
X166177898Y-125765332D01*
X166154655Y-125793655D01*
X166126332Y-125816898D01*
X166094021Y-125834169D01*
X166058963Y-125844804D01*
X166016359Y-125849000D01*
X164053641Y-125849000D01*
X164011037Y-125844804D01*
X163975979Y-125834169D01*
X163943668Y-125816898D01*
X163915345Y-125793655D01*
X163892102Y-125765332D01*
X163874831Y-125733021D01*
X163864196Y-125697963D01*
X163860000Y-125655359D01*
X163860000Y-125042641D01*
X163864196Y-125000037D01*
X163874831Y-124964979D01*
X163892102Y-124932668D01*
X163915345Y-124904345D01*
X163943668Y-124881102D01*
X163975979Y-124863831D01*
X164011037Y-124853196D01*
X164053641Y-124849000D01*
X166016359Y-124849000D01*
X166058963Y-124853196D01*
X166094021Y-124863831D01*
X166126332Y-124881102D01*
X166154655Y-124904345D01*
X166177898Y-124932668D01*
X166195169Y-124964979D01*
X166205804Y-125000037D01*
X166207604Y-125018316D01*
X166212385Y-125042349D01*
X166221762Y-125064988D01*
X166235376Y-125085362D01*
X166252703Y-125102689D01*
X166273077Y-125116303D01*
X166295716Y-125125680D01*
X166319750Y-125130460D01*
X166344254Y-125130460D01*
X166368287Y-125125679D01*
X166390926Y-125116302D01*
X166411300Y-125102688D01*
X166428627Y-125085361D01*
X166442241Y-125064987D01*
X166451618Y-125042348D01*
X166457000Y-125006063D01*
X166457000Y-124665140D01*
X166462877Y-124605470D01*
X166478493Y-124553990D01*
X166503848Y-124506555D01*
X166537973Y-124464973D01*
X166579555Y-124430848D01*
X166626990Y-124405493D01*
X166678470Y-124389877D01*
X166738140Y-124384000D01*
X167525860Y-124384000D01*
X167585530Y-124389877D01*
G37*
G36*
X153762000Y-124713000D02*
G01*
X152562000Y-124713000D01*
X152562000Y-123413000D01*
X153762000Y-123413000D01*
X153762000Y-124713000D01*
G37*
G36*
X150206000Y-124713000D02*
G01*
X149006000Y-124713000D01*
X149006000Y-123413000D01*
X150206000Y-123413000D01*
X150206000Y-124713000D01*
G37*
G36*
X157318000Y-124713000D02*
G01*
X156118000Y-124713000D01*
X156118000Y-123413000D01*
X157318000Y-123413000D01*
X157318000Y-124713000D01*
G37*
G36*
X146650000Y-124713000D02*
G01*
X145450000Y-124713000D01*
X145450000Y-123413000D01*
X146650000Y-123413000D01*
X146650000Y-124713000D01*
G37*
G36*
X161108963Y-123583196D02*
G01*
X161144021Y-123593831D01*
X161176332Y-123611102D01*
X161204655Y-123634345D01*
X161227898Y-123662668D01*
X161245169Y-123694979D01*
X161255804Y-123730037D01*
X161260000Y-123772641D01*
X161260000Y-124385359D01*
X161255804Y-124427963D01*
X161245169Y-124463021D01*
X161227898Y-124495332D01*
X161204655Y-124523655D01*
X161176332Y-124546898D01*
X161144021Y-124564169D01*
X161108963Y-124574804D01*
X161066359Y-124579000D01*
X159103641Y-124579000D01*
X159061037Y-124574804D01*
X159025979Y-124564169D01*
X158993668Y-124546898D01*
X158965345Y-124523655D01*
X158942102Y-124495332D01*
X158924831Y-124463021D01*
X158914196Y-124427963D01*
X158910000Y-124385359D01*
X158910000Y-123772641D01*
X158914196Y-123730037D01*
X158924831Y-123694979D01*
X158942102Y-123662668D01*
X158965345Y-123634345D01*
X158993668Y-123611102D01*
X159025979Y-123593831D01*
X159061037Y-123583196D01*
X159103641Y-123579000D01*
X161066359Y-123579000D01*
X161108963Y-123583196D01*
G37*
G36*
X166058963Y-123583196D02*
G01*
X166094021Y-123593831D01*
X166126332Y-123611102D01*
X166154655Y-123634345D01*
X166177898Y-123662668D01*
X166195169Y-123694979D01*
X166205804Y-123730037D01*
X166210000Y-123772641D01*
X166210000Y-124385359D01*
X166205804Y-124427963D01*
X166195169Y-124463021D01*
X166177898Y-124495332D01*
X166154655Y-124523655D01*
X166126332Y-124546898D01*
X166094021Y-124564169D01*
X166058963Y-124574804D01*
X166016359Y-124579000D01*
X164053641Y-124579000D01*
X164011037Y-124574804D01*
X163975979Y-124564169D01*
X163943668Y-124546898D01*
X163915345Y-124523655D01*
X163892102Y-124495332D01*
X163874831Y-124463021D01*
X163864196Y-124427963D01*
X163860000Y-124385359D01*
X163860000Y-123772641D01*
X163864196Y-123730037D01*
X163874831Y-123694979D01*
X163892102Y-123662668D01*
X163915345Y-123634345D01*
X163943668Y-123611102D01*
X163975979Y-123593831D01*
X164011037Y-123583196D01*
X164053641Y-123579000D01*
X166016359Y-123579000D01*
X166058963Y-123583196D01*
G37*
G36*
X172465707Y-122347596D02*
G01*
X172542836Y-122355193D01*
X172740762Y-122415233D01*
X172740765Y-122415234D01*
X172923170Y-122512732D01*
X173083055Y-122643945D01*
X173214268Y-122803830D01*
X173311766Y-122986235D01*
X173311767Y-122986238D01*
X173371807Y-123184164D01*
X173392080Y-123390000D01*
X173371807Y-123595836D01*
X173315873Y-123780227D01*
X173311766Y-123793765D01*
X173214268Y-123976170D01*
X173083055Y-124136055D01*
X172923170Y-124267268D01*
X172740765Y-124364766D01*
X172740762Y-124364767D01*
X172542836Y-124424807D01*
X172481500Y-124430848D01*
X172388580Y-124440000D01*
X172035420Y-124440000D01*
X171942500Y-124430848D01*
X171881164Y-124424807D01*
X171683238Y-124364767D01*
X171683235Y-124364766D01*
X171500830Y-124267268D01*
X171340945Y-124136055D01*
X171209732Y-123976170D01*
X171112234Y-123793765D01*
X171108127Y-123780227D01*
X171052193Y-123595836D01*
X171031920Y-123390000D01*
X171052193Y-123184164D01*
X171112233Y-122986238D01*
X171112234Y-122986235D01*
X171209732Y-122803830D01*
X171340945Y-122643945D01*
X171500830Y-122512732D01*
X171683235Y-122415234D01*
X171683238Y-122415233D01*
X171881164Y-122355193D01*
X171958293Y-122347596D01*
X172035420Y-122340000D01*
X172388580Y-122340000D01*
X172465707Y-122347596D01*
G37*
G36*
X126818530Y-122964877D02*
G01*
X126870010Y-122980493D01*
X126917445Y-123005848D01*
X126959027Y-123039973D01*
X126993152Y-123081555D01*
X127018507Y-123128990D01*
X127034123Y-123180470D01*
X127040000Y-123240140D01*
X127040000Y-124127860D01*
X127034123Y-124187530D01*
X127018507Y-124239010D01*
X126993152Y-124286445D01*
X126959027Y-124328027D01*
X126917445Y-124362152D01*
X126870010Y-124387507D01*
X126818530Y-124403123D01*
X126758860Y-124409000D01*
X125971140Y-124409000D01*
X125911470Y-124403123D01*
X125859990Y-124387507D01*
X125812555Y-124362152D01*
X125770973Y-124328027D01*
X125736848Y-124286445D01*
X125711493Y-124239010D01*
X125695877Y-124187530D01*
X125690000Y-124127860D01*
X125690000Y-123240140D01*
X125695877Y-123180470D01*
X125711493Y-123128990D01*
X125736848Y-123081555D01*
X125770973Y-123039973D01*
X125812555Y-123005848D01*
X125859990Y-122980493D01*
X125911470Y-122964877D01*
X125971140Y-122959000D01*
X126758860Y-122959000D01*
X126818530Y-122964877D01*
G37*
G36*
X123301000Y-123936000D02*
G01*
X121301000Y-123936000D01*
X121301000Y-121936000D01*
X123301000Y-121936000D01*
X123301000Y-123936000D01*
G37*
G36*
X119327680Y-121961498D02*
G01*
X119392689Y-121974429D01*
X119574678Y-122049811D01*
X119738463Y-122159249D01*
X119877751Y-122298537D01*
X119987189Y-122462322D01*
X120062571Y-122644311D01*
X120062571Y-122644312D01*
X120101000Y-122837507D01*
X120101000Y-123034493D01*
X120082203Y-123128990D01*
X120062571Y-123227689D01*
X119987189Y-123409678D01*
X119877751Y-123573463D01*
X119738463Y-123712751D01*
X119574678Y-123822189D01*
X119392689Y-123897571D01*
X119328290Y-123910381D01*
X119199493Y-123936000D01*
X119002507Y-123936000D01*
X118873710Y-123910381D01*
X118809311Y-123897571D01*
X118627322Y-123822189D01*
X118463537Y-123712751D01*
X118324249Y-123573463D01*
X118214811Y-123409678D01*
X118139429Y-123227689D01*
X118119797Y-123128990D01*
X118101000Y-123034493D01*
X118101000Y-122837507D01*
X118139429Y-122644312D01*
X118139429Y-122644311D01*
X118214811Y-122462322D01*
X118324249Y-122298537D01*
X118463537Y-122159249D01*
X118627322Y-122049811D01*
X118809311Y-121974429D01*
X118874320Y-121961498D01*
X119002507Y-121936000D01*
X119199493Y-121936000D01*
X119327680Y-121961498D01*
G37*
G36*
X132625567Y-121121576D02*
G01*
X132669228Y-121134820D01*
X132709464Y-121156327D01*
X132744731Y-121185269D01*
X132773673Y-121220536D01*
X132795180Y-121260772D01*
X132808424Y-121304433D01*
X132813500Y-121355974D01*
X132813500Y-123627026D01*
X132808424Y-123678567D01*
X132795180Y-123722228D01*
X132773673Y-123762464D01*
X132744731Y-123797731D01*
X132709464Y-123826673D01*
X132669228Y-123848180D01*
X132625567Y-123861424D01*
X132574026Y-123866500D01*
X131152974Y-123866500D01*
X131101433Y-123861424D01*
X131057772Y-123848180D01*
X131017536Y-123826673D01*
X130982269Y-123797731D01*
X130953327Y-123762464D01*
X130931820Y-123722228D01*
X130918576Y-123678567D01*
X130913500Y-123627026D01*
X130913500Y-121355974D01*
X130918576Y-121304433D01*
X130931820Y-121260772D01*
X130953327Y-121220536D01*
X130982269Y-121185269D01*
X131017536Y-121156327D01*
X131057772Y-121134820D01*
X131101433Y-121121576D01*
X131152974Y-121116500D01*
X132574026Y-121116500D01*
X132625567Y-121121576D01*
G37*
G36*
X129375567Y-121121576D02*
G01*
X129419228Y-121134820D01*
X129459464Y-121156327D01*
X129494731Y-121185269D01*
X129523673Y-121220536D01*
X129545180Y-121260772D01*
X129558424Y-121304433D01*
X129563500Y-121355974D01*
X129563500Y-123627026D01*
X129558424Y-123678567D01*
X129545180Y-123722228D01*
X129523673Y-123762464D01*
X129494731Y-123797731D01*
X129459464Y-123826673D01*
X129419228Y-123848180D01*
X129375567Y-123861424D01*
X129324026Y-123866500D01*
X127902974Y-123866500D01*
X127851433Y-123861424D01*
X127807772Y-123848180D01*
X127767536Y-123826673D01*
X127732269Y-123797731D01*
X127703327Y-123762464D01*
X127681820Y-123722228D01*
X127668576Y-123678567D01*
X127663500Y-123627026D01*
X127663500Y-121355974D01*
X127668576Y-121304433D01*
X127681820Y-121260772D01*
X127703327Y-121220536D01*
X127732269Y-121185269D01*
X127767536Y-121156327D01*
X127807772Y-121134820D01*
X127851433Y-121121576D01*
X127902974Y-121116500D01*
X129324026Y-121116500D01*
X129375567Y-121121576D01*
G37*
G36*
X162061530Y-121504877D02*
G01*
X162113010Y-121520493D01*
X162160445Y-121545848D01*
X162202027Y-121579973D01*
X162236152Y-121621555D01*
X162261507Y-121668990D01*
X162277123Y-121720470D01*
X162283000Y-121780140D01*
X162283000Y-122567860D01*
X162277123Y-122627530D01*
X162261507Y-122679010D01*
X162236152Y-122726445D01*
X162202027Y-122768027D01*
X162160445Y-122802152D01*
X162113010Y-122827507D01*
X162061530Y-122843123D01*
X162001860Y-122849000D01*
X161114140Y-122849000D01*
X161054470Y-122843123D01*
X161002990Y-122827507D01*
X160955555Y-122802152D01*
X160913973Y-122768027D01*
X160879848Y-122726445D01*
X160854493Y-122679010D01*
X160838877Y-122627530D01*
X160833000Y-122567860D01*
X160833000Y-121780140D01*
X160838877Y-121720470D01*
X160854493Y-121668990D01*
X160879848Y-121621555D01*
X160913973Y-121579973D01*
X160955555Y-121545848D01*
X161002990Y-121520493D01*
X161054470Y-121504877D01*
X161114140Y-121499000D01*
X162001860Y-121499000D01*
X162061530Y-121504877D01*
G37*
G36*
X163811530Y-121504877D02*
G01*
X163863010Y-121520493D01*
X163910445Y-121545848D01*
X163952027Y-121579973D01*
X163986152Y-121621555D01*
X164011507Y-121668990D01*
X164027123Y-121720470D01*
X164033000Y-121780140D01*
X164033000Y-122567860D01*
X164027123Y-122627530D01*
X164011507Y-122679010D01*
X163986152Y-122726445D01*
X163952027Y-122768027D01*
X163910445Y-122802152D01*
X163863010Y-122827507D01*
X163811530Y-122843123D01*
X163751860Y-122849000D01*
X162864140Y-122849000D01*
X162804470Y-122843123D01*
X162752990Y-122827507D01*
X162705555Y-122802152D01*
X162663973Y-122768027D01*
X162629848Y-122726445D01*
X162604493Y-122679010D01*
X162588877Y-122627530D01*
X162583000Y-122567860D01*
X162583000Y-121780140D01*
X162588877Y-121720470D01*
X162604493Y-121668990D01*
X162629848Y-121621555D01*
X162663973Y-121579973D01*
X162705555Y-121545848D01*
X162752990Y-121520493D01*
X162804470Y-121504877D01*
X162864140Y-121499000D01*
X163751860Y-121499000D01*
X163811530Y-121504877D01*
G37*
G36*
X152812000Y-122713000D02*
G01*
X151612000Y-122713000D01*
X151612000Y-121413000D01*
X152812000Y-121413000D01*
X152812000Y-122713000D01*
G37*
G36*
X151156000Y-122713000D02*
G01*
X149956000Y-122713000D01*
X149956000Y-121413000D01*
X151156000Y-121413000D01*
X151156000Y-122713000D01*
G37*
G36*
X154712000Y-122713000D02*
G01*
X153512000Y-122713000D01*
X153512000Y-121413000D01*
X154712000Y-121413000D01*
X154712000Y-122713000D01*
G37*
G36*
X156368000Y-122713000D02*
G01*
X155168000Y-122713000D01*
X155168000Y-121413000D01*
X156368000Y-121413000D01*
X156368000Y-122713000D01*
G37*
G36*
X145700000Y-122713000D02*
G01*
X144500000Y-122713000D01*
X144500000Y-121413000D01*
X145700000Y-121413000D01*
X145700000Y-122713000D01*
G37*
G36*
X149256000Y-122713000D02*
G01*
X148056000Y-122713000D01*
X148056000Y-121413000D01*
X149256000Y-121413000D01*
X149256000Y-122713000D01*
G37*
G36*
X147600000Y-122713000D02*
G01*
X146400000Y-122713000D01*
X146400000Y-121413000D01*
X147600000Y-121413000D01*
X147600000Y-122713000D01*
G37*
G36*
X158268000Y-122713000D02*
G01*
X157068000Y-122713000D01*
X157068000Y-121413000D01*
X158268000Y-121413000D01*
X158268000Y-122713000D01*
G37*
G36*
X126818530Y-121214877D02*
G01*
X126870010Y-121230493D01*
X126917445Y-121255848D01*
X126959027Y-121289973D01*
X126993152Y-121331555D01*
X127018507Y-121378990D01*
X127034123Y-121430470D01*
X127040000Y-121490140D01*
X127040000Y-122377860D01*
X127034123Y-122437530D01*
X127018507Y-122489010D01*
X126993152Y-122536445D01*
X126959027Y-122578027D01*
X126917445Y-122612152D01*
X126870010Y-122637507D01*
X126818530Y-122653123D01*
X126758860Y-122659000D01*
X125971140Y-122659000D01*
X125911470Y-122653123D01*
X125859990Y-122637507D01*
X125812555Y-122612152D01*
X125770973Y-122578027D01*
X125736848Y-122536445D01*
X125711493Y-122489010D01*
X125695877Y-122437530D01*
X125690000Y-122377860D01*
X125690000Y-121490140D01*
X125695877Y-121430470D01*
X125711493Y-121378990D01*
X125736848Y-121331555D01*
X125770973Y-121289973D01*
X125812555Y-121255848D01*
X125859990Y-121230493D01*
X125911470Y-121214877D01*
X125971140Y-121209000D01*
X126758860Y-121209000D01*
X126818530Y-121214877D01*
G37*
G36*
X142559187Y-119986027D02*
G01*
X142736774Y-120021350D01*
X142927862Y-120100502D01*
X143099836Y-120215411D01*
X143246089Y-120361664D01*
X143360998Y-120533638D01*
X143440150Y-120724726D01*
X143464974Y-120849530D01*
X143479192Y-120921005D01*
X143480500Y-120927584D01*
X143480500Y-121134416D01*
X143440150Y-121337274D01*
X143360998Y-121528362D01*
X143246089Y-121700336D01*
X143099836Y-121846589D01*
X142927862Y-121961498D01*
X142736774Y-122040650D01*
X142559187Y-122075973D01*
X142533917Y-122081000D01*
X142327083Y-122081000D01*
X142301813Y-122075973D01*
X142124226Y-122040650D01*
X141933138Y-121961498D01*
X141761164Y-121846589D01*
X141614911Y-121700336D01*
X141500002Y-121528362D01*
X141420850Y-121337274D01*
X141380500Y-121134416D01*
X141380500Y-120927584D01*
X141381809Y-120921005D01*
X141396026Y-120849530D01*
X141420850Y-120724726D01*
X141500002Y-120533638D01*
X141614911Y-120361664D01*
X141761164Y-120215411D01*
X141933138Y-120100502D01*
X142124226Y-120021350D01*
X142301813Y-119986027D01*
X142327083Y-119981000D01*
X142533917Y-119981000D01*
X142559187Y-119986027D01*
G37*
G36*
X140019187Y-119986027D02*
G01*
X140196774Y-120021350D01*
X140387862Y-120100502D01*
X140559836Y-120215411D01*
X140706089Y-120361664D01*
X140820998Y-120533638D01*
X140900150Y-120724726D01*
X140924974Y-120849530D01*
X140939192Y-120921005D01*
X140940500Y-120927584D01*
X140940500Y-121134416D01*
X140900150Y-121337274D01*
X140820998Y-121528362D01*
X140706089Y-121700336D01*
X140559836Y-121846589D01*
X140387862Y-121961498D01*
X140196774Y-122040650D01*
X140019187Y-122075973D01*
X139993917Y-122081000D01*
X139787083Y-122081000D01*
X139761813Y-122075973D01*
X139584226Y-122040650D01*
X139393138Y-121961498D01*
X139221164Y-121846589D01*
X139074911Y-121700336D01*
X138960002Y-121528362D01*
X138880850Y-121337274D01*
X138840500Y-121134416D01*
X138840500Y-120927584D01*
X138841809Y-120921005D01*
X138856026Y-120849530D01*
X138880850Y-120724726D01*
X138960002Y-120533638D01*
X139074911Y-120361664D01*
X139221164Y-120215411D01*
X139393138Y-120100502D01*
X139584226Y-120021350D01*
X139761813Y-119986027D01*
X139787083Y-119981000D01*
X139993917Y-119981000D01*
X140019187Y-119986027D01*
G37*
G36*
X137479187Y-119986027D02*
G01*
X137656774Y-120021350D01*
X137847862Y-120100502D01*
X138019836Y-120215411D01*
X138166089Y-120361664D01*
X138280998Y-120533638D01*
X138360150Y-120724726D01*
X138384974Y-120849530D01*
X138399192Y-120921005D01*
X138400500Y-120927584D01*
X138400500Y-121134416D01*
X138360150Y-121337274D01*
X138280998Y-121528362D01*
X138166089Y-121700336D01*
X138019836Y-121846589D01*
X137847862Y-121961498D01*
X137656774Y-122040650D01*
X137479187Y-122075973D01*
X137453917Y-122081000D01*
X137247083Y-122081000D01*
X137221813Y-122075973D01*
X137044226Y-122040650D01*
X136853138Y-121961498D01*
X136681164Y-121846589D01*
X136534911Y-121700336D01*
X136420002Y-121528362D01*
X136340850Y-121337274D01*
X136300500Y-121134416D01*
X136300500Y-120927584D01*
X136301809Y-120921005D01*
X136316026Y-120849530D01*
X136340850Y-120724726D01*
X136420002Y-120533638D01*
X136534911Y-120361664D01*
X136681164Y-120215411D01*
X136853138Y-120100502D01*
X137044226Y-120021350D01*
X137221813Y-119986027D01*
X137247083Y-119981000D01*
X137453917Y-119981000D01*
X137479187Y-119986027D01*
G37*
G36*
X135860500Y-122081000D02*
G01*
X133760500Y-122081000D01*
X133760500Y-119981000D01*
X135860500Y-119981000D01*
X135860500Y-122081000D01*
G37*
G36*
X150942196Y-119726877D02*
G01*
X150993676Y-119742493D01*
X151041111Y-119767848D01*
X151082693Y-119801973D01*
X151116818Y-119843555D01*
X151142173Y-119890990D01*
X151157789Y-119942470D01*
X151163666Y-120002140D01*
X151163666Y-120789860D01*
X151157789Y-120849530D01*
X151142173Y-120901010D01*
X151116818Y-120948445D01*
X151082693Y-120990027D01*
X151041111Y-121024152D01*
X150993676Y-121049507D01*
X150942196Y-121065123D01*
X150882526Y-121071000D01*
X149994806Y-121071000D01*
X149935136Y-121065123D01*
X149883656Y-121049507D01*
X149836221Y-121024152D01*
X149794639Y-120990027D01*
X149760514Y-120948445D01*
X149735159Y-120901010D01*
X149719543Y-120849530D01*
X149713666Y-120789860D01*
X149713666Y-120002140D01*
X149719543Y-119942470D01*
X149735159Y-119890990D01*
X149760514Y-119843555D01*
X149794639Y-119801973D01*
X149836221Y-119767848D01*
X149883656Y-119742493D01*
X149935136Y-119726877D01*
X149994806Y-119721000D01*
X150882526Y-119721000D01*
X150942196Y-119726877D01*
G37*
G36*
X149192196Y-119726877D02*
G01*
X149243676Y-119742493D01*
X149291111Y-119767848D01*
X149332693Y-119801973D01*
X149366818Y-119843555D01*
X149392173Y-119890990D01*
X149407789Y-119942470D01*
X149413666Y-120002140D01*
X149413666Y-120789860D01*
X149407789Y-120849530D01*
X149392173Y-120901010D01*
X149366818Y-120948445D01*
X149332693Y-120990027D01*
X149291111Y-121024152D01*
X149243676Y-121049507D01*
X149192196Y-121065123D01*
X149132526Y-121071000D01*
X148244806Y-121071000D01*
X148185136Y-121065123D01*
X148133656Y-121049507D01*
X148086221Y-121024152D01*
X148044639Y-120990027D01*
X148010514Y-120948445D01*
X147985159Y-120901010D01*
X147969543Y-120849530D01*
X147963666Y-120789860D01*
X147963666Y-120002140D01*
X147969543Y-119942470D01*
X147985159Y-119890990D01*
X148010514Y-119843555D01*
X148044639Y-119801973D01*
X148086221Y-119767848D01*
X148133656Y-119742493D01*
X148185136Y-119726877D01*
X148244806Y-119721000D01*
X149132526Y-119721000D01*
X149192196Y-119726877D01*
G37*
G36*
X147301530Y-119726877D02*
G01*
X147353010Y-119742493D01*
X147400445Y-119767848D01*
X147442027Y-119801973D01*
X147476152Y-119843555D01*
X147501507Y-119890990D01*
X147517123Y-119942470D01*
X147523000Y-120002140D01*
X147523000Y-120789860D01*
X147517123Y-120849530D01*
X147501507Y-120901010D01*
X147476152Y-120948445D01*
X147442027Y-120990027D01*
X147400445Y-121024152D01*
X147353010Y-121049507D01*
X147301530Y-121065123D01*
X147241860Y-121071000D01*
X146354140Y-121071000D01*
X146294470Y-121065123D01*
X146242990Y-121049507D01*
X146195555Y-121024152D01*
X146153973Y-120990027D01*
X146119848Y-120948445D01*
X146094493Y-120901010D01*
X146078877Y-120849530D01*
X146073000Y-120789860D01*
X146073000Y-120002140D01*
X146078877Y-119942470D01*
X146094493Y-119890990D01*
X146119848Y-119843555D01*
X146153973Y-119801973D01*
X146195555Y-119767848D01*
X146242990Y-119742493D01*
X146294470Y-119726877D01*
X146354140Y-119721000D01*
X147241860Y-119721000D01*
X147301530Y-119726877D01*
G37*
G36*
X152832862Y-119726877D02*
G01*
X152884342Y-119742493D01*
X152931777Y-119767848D01*
X152973359Y-119801973D01*
X153007484Y-119843555D01*
X153032839Y-119890990D01*
X153048455Y-119942470D01*
X153054332Y-120002140D01*
X153054332Y-120789860D01*
X153048455Y-120849530D01*
X153032839Y-120901010D01*
X153007484Y-120948445D01*
X152973359Y-120990027D01*
X152931777Y-121024152D01*
X152884342Y-121049507D01*
X152832862Y-121065123D01*
X152773192Y-121071000D01*
X151885472Y-121071000D01*
X151825802Y-121065123D01*
X151774322Y-121049507D01*
X151726887Y-121024152D01*
X151685305Y-120990027D01*
X151651180Y-120948445D01*
X151625825Y-120901010D01*
X151610209Y-120849530D01*
X151604332Y-120789860D01*
X151604332Y-120002140D01*
X151610209Y-119942470D01*
X151625825Y-119890990D01*
X151651180Y-119843555D01*
X151685305Y-119801973D01*
X151726887Y-119767848D01*
X151774322Y-119742493D01*
X151825802Y-119726877D01*
X151885472Y-119721000D01*
X152773192Y-119721000D01*
X152832862Y-119726877D01*
G37*
G36*
X145551530Y-119726877D02*
G01*
X145603010Y-119742493D01*
X145650445Y-119767848D01*
X145692027Y-119801973D01*
X145726152Y-119843555D01*
X145751507Y-119890990D01*
X145767123Y-119942470D01*
X145773000Y-120002140D01*
X145773000Y-120789860D01*
X145767123Y-120849530D01*
X145751507Y-120901010D01*
X145726152Y-120948445D01*
X145692027Y-120990027D01*
X145650445Y-121024152D01*
X145603010Y-121049507D01*
X145551530Y-121065123D01*
X145491860Y-121071000D01*
X144604140Y-121071000D01*
X144544470Y-121065123D01*
X144492990Y-121049507D01*
X144445555Y-121024152D01*
X144403973Y-120990027D01*
X144369848Y-120948445D01*
X144344493Y-120901010D01*
X144328877Y-120849530D01*
X144323000Y-120789860D01*
X144323000Y-120002140D01*
X144328877Y-119942470D01*
X144344493Y-119890990D01*
X144369848Y-119843555D01*
X144403973Y-119801973D01*
X144445555Y-119767848D01*
X144492990Y-119742493D01*
X144544470Y-119726877D01*
X144604140Y-119721000D01*
X145491860Y-119721000D01*
X145551530Y-119726877D01*
G37*
G36*
X154582862Y-119726877D02*
G01*
X154634342Y-119742493D01*
X154681777Y-119767848D01*
X154723359Y-119801973D01*
X154757484Y-119843555D01*
X154782839Y-119890990D01*
X154798455Y-119942470D01*
X154804332Y-120002140D01*
X154804332Y-120789860D01*
X154798455Y-120849530D01*
X154782839Y-120901010D01*
X154757484Y-120948445D01*
X154723359Y-120990027D01*
X154681777Y-121024152D01*
X154634342Y-121049507D01*
X154582862Y-121065123D01*
X154523192Y-121071000D01*
X153635472Y-121071000D01*
X153575802Y-121065123D01*
X153524322Y-121049507D01*
X153476887Y-121024152D01*
X153435305Y-120990027D01*
X153401180Y-120948445D01*
X153375825Y-120901010D01*
X153360209Y-120849530D01*
X153354332Y-120789860D01*
X153354332Y-120002140D01*
X153360209Y-119942470D01*
X153375825Y-119890990D01*
X153401180Y-119843555D01*
X153435305Y-119801973D01*
X153476887Y-119767848D01*
X153524322Y-119742493D01*
X153575802Y-119726877D01*
X153635472Y-119721000D01*
X154523192Y-119721000D01*
X154582862Y-119726877D01*
G37*
G36*
X156473530Y-119726877D02*
G01*
X156525010Y-119742493D01*
X156572445Y-119767848D01*
X156614027Y-119801973D01*
X156648152Y-119843555D01*
X156673507Y-119890990D01*
X156689123Y-119942470D01*
X156695000Y-120002140D01*
X156695000Y-120789860D01*
X156689123Y-120849530D01*
X156673507Y-120901010D01*
X156648152Y-120948445D01*
X156614027Y-120990027D01*
X156572445Y-121024152D01*
X156525010Y-121049507D01*
X156473530Y-121065123D01*
X156413860Y-121071000D01*
X155526140Y-121071000D01*
X155466470Y-121065123D01*
X155414990Y-121049507D01*
X155367555Y-121024152D01*
X155325973Y-120990027D01*
X155291848Y-120948445D01*
X155266493Y-120901010D01*
X155250877Y-120849530D01*
X155245000Y-120789860D01*
X155245000Y-120002140D01*
X155250877Y-119942470D01*
X155266493Y-119890990D01*
X155291848Y-119843555D01*
X155325973Y-119801973D01*
X155367555Y-119767848D01*
X155414990Y-119742493D01*
X155466470Y-119726877D01*
X155526140Y-119721000D01*
X156413860Y-119721000D01*
X156473530Y-119726877D01*
G37*
G36*
X158223530Y-119726877D02*
G01*
X158275010Y-119742493D01*
X158322445Y-119767848D01*
X158364027Y-119801973D01*
X158398152Y-119843555D01*
X158423507Y-119890990D01*
X158439123Y-119942470D01*
X158445000Y-120002140D01*
X158445000Y-120789860D01*
X158439123Y-120849530D01*
X158423507Y-120901010D01*
X158398152Y-120948445D01*
X158364027Y-120990027D01*
X158322445Y-121024152D01*
X158275010Y-121049507D01*
X158223530Y-121065123D01*
X158163860Y-121071000D01*
X157276140Y-121071000D01*
X157216470Y-121065123D01*
X157164990Y-121049507D01*
X157117555Y-121024152D01*
X157075973Y-120990027D01*
X157041848Y-120948445D01*
X157016493Y-120901010D01*
X157000877Y-120849530D01*
X156995000Y-120789860D01*
X156995000Y-120002140D01*
X157000877Y-119942470D01*
X157016493Y-119890990D01*
X157041848Y-119843555D01*
X157075973Y-119801973D01*
X157117555Y-119767848D01*
X157164990Y-119742493D01*
X157216470Y-119726877D01*
X157276140Y-119721000D01*
X158163860Y-119721000D01*
X158223530Y-119726877D01*
G37*
G36*
X124568530Y-116805877D02*
G01*
X124620010Y-116821493D01*
X124667445Y-116846848D01*
X124709027Y-116880973D01*
X124743152Y-116922555D01*
X124768507Y-116969990D01*
X124784123Y-117021470D01*
X124790000Y-117081140D01*
X124790000Y-117868860D01*
X124784123Y-117928530D01*
X124768507Y-117980010D01*
X124743152Y-118027445D01*
X124709027Y-118069027D01*
X124667445Y-118103152D01*
X124620010Y-118128507D01*
X124568530Y-118144123D01*
X124508860Y-118150000D01*
X123621140Y-118150000D01*
X123561470Y-118144123D01*
X123509990Y-118128507D01*
X123462555Y-118103152D01*
X123420973Y-118069027D01*
X123386848Y-118027445D01*
X123361493Y-117980010D01*
X123345877Y-117928530D01*
X123340000Y-117868860D01*
X123340000Y-117081140D01*
X123345877Y-117021470D01*
X123361493Y-116969990D01*
X123386848Y-116922555D01*
X123420973Y-116880973D01*
X123462555Y-116846848D01*
X123509990Y-116821493D01*
X123561470Y-116805877D01*
X123621140Y-116800000D01*
X124508860Y-116800000D01*
X124568530Y-116805877D01*
G37*
G36*
X122818530Y-116805877D02*
G01*
X122870010Y-116821493D01*
X122917445Y-116846848D01*
X122959027Y-116880973D01*
X122993152Y-116922555D01*
X123018507Y-116969990D01*
X123034123Y-117021470D01*
X123040000Y-117081140D01*
X123040000Y-117868860D01*
X123034123Y-117928530D01*
X123018507Y-117980010D01*
X122993152Y-118027445D01*
X122959027Y-118069027D01*
X122917445Y-118103152D01*
X122870010Y-118128507D01*
X122818530Y-118144123D01*
X122758860Y-118150000D01*
X121871140Y-118150000D01*
X121811470Y-118144123D01*
X121759990Y-118128507D01*
X121712555Y-118103152D01*
X121670973Y-118069027D01*
X121636848Y-118027445D01*
X121611493Y-117980010D01*
X121595877Y-117928530D01*
X121590000Y-117868860D01*
X121590000Y-117081140D01*
X121595877Y-117021470D01*
X121611493Y-116969990D01*
X121636848Y-116922555D01*
X121670973Y-116880973D01*
X121712555Y-116846848D01*
X121759990Y-116821493D01*
X121811470Y-116805877D01*
X121871140Y-116800000D01*
X122758860Y-116800000D01*
X122818530Y-116805877D01*
G37*
G36*
X130684687Y-116049027D02*
G01*
X130862274Y-116084350D01*
X131053362Y-116163502D01*
X131225336Y-116278411D01*
X131371589Y-116424664D01*
X131486498Y-116596638D01*
X131565650Y-116787726D01*
X131606000Y-116990584D01*
X131606000Y-117197416D01*
X131565650Y-117400274D01*
X131486498Y-117591362D01*
X131371589Y-117763336D01*
X131225336Y-117909589D01*
X131053362Y-118024498D01*
X130862274Y-118103650D01*
X130684687Y-118138973D01*
X130659417Y-118144000D01*
X130452583Y-118144000D01*
X130427313Y-118138973D01*
X130249726Y-118103650D01*
X130058638Y-118024498D01*
X129886664Y-117909589D01*
X129740411Y-117763336D01*
X129625502Y-117591362D01*
X129546350Y-117400274D01*
X129506000Y-117197416D01*
X129506000Y-116990584D01*
X129546350Y-116787726D01*
X129625502Y-116596638D01*
X129740411Y-116424664D01*
X129886664Y-116278411D01*
X130058638Y-116163502D01*
X130249726Y-116084350D01*
X130427313Y-116049027D01*
X130452583Y-116044000D01*
X130659417Y-116044000D01*
X130684687Y-116049027D01*
G37*
G36*
X163704687Y-116049027D02*
G01*
X163882274Y-116084350D01*
X164073362Y-116163502D01*
X164245336Y-116278411D01*
X164391589Y-116424664D01*
X164506498Y-116596638D01*
X164585650Y-116787726D01*
X164626000Y-116990584D01*
X164626000Y-117197416D01*
X164585650Y-117400274D01*
X164506498Y-117591362D01*
X164391589Y-117763336D01*
X164245336Y-117909589D01*
X164073362Y-118024498D01*
X163882274Y-118103650D01*
X163704687Y-118138973D01*
X163679417Y-118144000D01*
X163472583Y-118144000D01*
X163447313Y-118138973D01*
X163269726Y-118103650D01*
X163078638Y-118024498D01*
X162906664Y-117909589D01*
X162760411Y-117763336D01*
X162645502Y-117591362D01*
X162566350Y-117400274D01*
X162526000Y-117197416D01*
X162526000Y-116990584D01*
X162566350Y-116787726D01*
X162645502Y-116596638D01*
X162760411Y-116424664D01*
X162906664Y-116278411D01*
X163078638Y-116163502D01*
X163269726Y-116084350D01*
X163447313Y-116049027D01*
X163472583Y-116044000D01*
X163679417Y-116044000D01*
X163704687Y-116049027D01*
G37*
G36*
X161164687Y-116049027D02*
G01*
X161342274Y-116084350D01*
X161533362Y-116163502D01*
X161705336Y-116278411D01*
X161851589Y-116424664D01*
X161966498Y-116596638D01*
X162045650Y-116787726D01*
X162086000Y-116990584D01*
X162086000Y-117197416D01*
X162045650Y-117400274D01*
X161966498Y-117591362D01*
X161851589Y-117763336D01*
X161705336Y-117909589D01*
X161533362Y-118024498D01*
X161342274Y-118103650D01*
X161164687Y-118138973D01*
X161139417Y-118144000D01*
X160932583Y-118144000D01*
X160907313Y-118138973D01*
X160729726Y-118103650D01*
X160538638Y-118024498D01*
X160366664Y-117909589D01*
X160220411Y-117763336D01*
X160105502Y-117591362D01*
X160026350Y-117400274D01*
X159986000Y-117197416D01*
X159986000Y-116990584D01*
X160026350Y-116787726D01*
X160105502Y-116596638D01*
X160220411Y-116424664D01*
X160366664Y-116278411D01*
X160538638Y-116163502D01*
X160729726Y-116084350D01*
X160907313Y-116049027D01*
X160932583Y-116044000D01*
X161139417Y-116044000D01*
X161164687Y-116049027D01*
G37*
G36*
X158624687Y-116049027D02*
G01*
X158802274Y-116084350D01*
X158993362Y-116163502D01*
X159165336Y-116278411D01*
X159311589Y-116424664D01*
X159426498Y-116596638D01*
X159505650Y-116787726D01*
X159546000Y-116990584D01*
X159546000Y-117197416D01*
X159505650Y-117400274D01*
X159426498Y-117591362D01*
X159311589Y-117763336D01*
X159165336Y-117909589D01*
X158993362Y-118024498D01*
X158802274Y-118103650D01*
X158624687Y-118138973D01*
X158599417Y-118144000D01*
X158392583Y-118144000D01*
X158367313Y-118138973D01*
X158189726Y-118103650D01*
X157998638Y-118024498D01*
X157826664Y-117909589D01*
X157680411Y-117763336D01*
X157565502Y-117591362D01*
X157486350Y-117400274D01*
X157446000Y-117197416D01*
X157446000Y-116990584D01*
X157486350Y-116787726D01*
X157565502Y-116596638D01*
X157680411Y-116424664D01*
X157826664Y-116278411D01*
X157998638Y-116163502D01*
X158189726Y-116084350D01*
X158367313Y-116049027D01*
X158392583Y-116044000D01*
X158599417Y-116044000D01*
X158624687Y-116049027D01*
G37*
G36*
X156084687Y-116049027D02*
G01*
X156262274Y-116084350D01*
X156453362Y-116163502D01*
X156625336Y-116278411D01*
X156771589Y-116424664D01*
X156886498Y-116596638D01*
X156965650Y-116787726D01*
X157006000Y-116990584D01*
X157006000Y-117197416D01*
X156965650Y-117400274D01*
X156886498Y-117591362D01*
X156771589Y-117763336D01*
X156625336Y-117909589D01*
X156453362Y-118024498D01*
X156262274Y-118103650D01*
X156084687Y-118138973D01*
X156059417Y-118144000D01*
X155852583Y-118144000D01*
X155827313Y-118138973D01*
X155649726Y-118103650D01*
X155458638Y-118024498D01*
X155286664Y-117909589D01*
X155140411Y-117763336D01*
X155025502Y-117591362D01*
X154946350Y-117400274D01*
X154906000Y-117197416D01*
X154906000Y-116990584D01*
X154946350Y-116787726D01*
X155025502Y-116596638D01*
X155140411Y-116424664D01*
X155286664Y-116278411D01*
X155458638Y-116163502D01*
X155649726Y-116084350D01*
X155827313Y-116049027D01*
X155852583Y-116044000D01*
X156059417Y-116044000D01*
X156084687Y-116049027D01*
G37*
G36*
X133224687Y-116049027D02*
G01*
X133402274Y-116084350D01*
X133593362Y-116163502D01*
X133765336Y-116278411D01*
X133911589Y-116424664D01*
X134026498Y-116596638D01*
X134105650Y-116787726D01*
X134146000Y-116990584D01*
X134146000Y-117197416D01*
X134105650Y-117400274D01*
X134026498Y-117591362D01*
X133911589Y-117763336D01*
X133765336Y-117909589D01*
X133593362Y-118024498D01*
X133402274Y-118103650D01*
X133224687Y-118138973D01*
X133199417Y-118144000D01*
X132992583Y-118144000D01*
X132967313Y-118138973D01*
X132789726Y-118103650D01*
X132598638Y-118024498D01*
X132426664Y-117909589D01*
X132280411Y-117763336D01*
X132165502Y-117591362D01*
X132086350Y-117400274D01*
X132046000Y-117197416D01*
X132046000Y-116990584D01*
X132086350Y-116787726D01*
X132165502Y-116596638D01*
X132280411Y-116424664D01*
X132426664Y-116278411D01*
X132598638Y-116163502D01*
X132789726Y-116084350D01*
X132967313Y-116049027D01*
X132992583Y-116044000D01*
X133199417Y-116044000D01*
X133224687Y-116049027D01*
G37*
G36*
X135764687Y-116049027D02*
G01*
X135942274Y-116084350D01*
X136133362Y-116163502D01*
X136305336Y-116278411D01*
X136451589Y-116424664D01*
X136566498Y-116596638D01*
X136645650Y-116787726D01*
X136686000Y-116990584D01*
X136686000Y-117197416D01*
X136645650Y-117400274D01*
X136566498Y-117591362D01*
X136451589Y-117763336D01*
X136305336Y-117909589D01*
X136133362Y-118024498D01*
X135942274Y-118103650D01*
X135764687Y-118138973D01*
X135739417Y-118144000D01*
X135532583Y-118144000D01*
X135507313Y-118138973D01*
X135329726Y-118103650D01*
X135138638Y-118024498D01*
X134966664Y-117909589D01*
X134820411Y-117763336D01*
X134705502Y-117591362D01*
X134626350Y-117400274D01*
X134586000Y-117197416D01*
X134586000Y-116990584D01*
X134626350Y-116787726D01*
X134705502Y-116596638D01*
X134820411Y-116424664D01*
X134966664Y-116278411D01*
X135138638Y-116163502D01*
X135329726Y-116084350D01*
X135507313Y-116049027D01*
X135532583Y-116044000D01*
X135739417Y-116044000D01*
X135764687Y-116049027D01*
G37*
G36*
X138304687Y-116049027D02*
G01*
X138482274Y-116084350D01*
X138673362Y-116163502D01*
X138845336Y-116278411D01*
X138991589Y-116424664D01*
X139106498Y-116596638D01*
X139185650Y-116787726D01*
X139226000Y-116990584D01*
X139226000Y-117197416D01*
X139185650Y-117400274D01*
X139106498Y-117591362D01*
X138991589Y-117763336D01*
X138845336Y-117909589D01*
X138673362Y-118024498D01*
X138482274Y-118103650D01*
X138304687Y-118138973D01*
X138279417Y-118144000D01*
X138072583Y-118144000D01*
X138047313Y-118138973D01*
X137869726Y-118103650D01*
X137678638Y-118024498D01*
X137506664Y-117909589D01*
X137360411Y-117763336D01*
X137245502Y-117591362D01*
X137166350Y-117400274D01*
X137126000Y-117197416D01*
X137126000Y-116990584D01*
X137166350Y-116787726D01*
X137245502Y-116596638D01*
X137360411Y-116424664D01*
X137506664Y-116278411D01*
X137678638Y-116163502D01*
X137869726Y-116084350D01*
X138047313Y-116049027D01*
X138072583Y-116044000D01*
X138279417Y-116044000D01*
X138304687Y-116049027D01*
G37*
G36*
X140844687Y-116049027D02*
G01*
X141022274Y-116084350D01*
X141213362Y-116163502D01*
X141385336Y-116278411D01*
X141531589Y-116424664D01*
X141646498Y-116596638D01*
X141725650Y-116787726D01*
X141766000Y-116990584D01*
X141766000Y-117197416D01*
X141725650Y-117400274D01*
X141646498Y-117591362D01*
X141531589Y-117763336D01*
X141385336Y-117909589D01*
X141213362Y-118024498D01*
X141022274Y-118103650D01*
X140844687Y-118138973D01*
X140819417Y-118144000D01*
X140612583Y-118144000D01*
X140587313Y-118138973D01*
X140409726Y-118103650D01*
X140218638Y-118024498D01*
X140046664Y-117909589D01*
X139900411Y-117763336D01*
X139785502Y-117591362D01*
X139706350Y-117400274D01*
X139666000Y-117197416D01*
X139666000Y-116990584D01*
X139706350Y-116787726D01*
X139785502Y-116596638D01*
X139900411Y-116424664D01*
X140046664Y-116278411D01*
X140218638Y-116163502D01*
X140409726Y-116084350D01*
X140587313Y-116049027D01*
X140612583Y-116044000D01*
X140819417Y-116044000D01*
X140844687Y-116049027D01*
G37*
G36*
X143384687Y-116049027D02*
G01*
X143562274Y-116084350D01*
X143753362Y-116163502D01*
X143925336Y-116278411D01*
X144071589Y-116424664D01*
X144186498Y-116596638D01*
X144265650Y-116787726D01*
X144306000Y-116990584D01*
X144306000Y-117197416D01*
X144265650Y-117400274D01*
X144186498Y-117591362D01*
X144071589Y-117763336D01*
X143925336Y-117909589D01*
X143753362Y-118024498D01*
X143562274Y-118103650D01*
X143384687Y-118138973D01*
X143359417Y-118144000D01*
X143152583Y-118144000D01*
X143127313Y-118138973D01*
X142949726Y-118103650D01*
X142758638Y-118024498D01*
X142586664Y-117909589D01*
X142440411Y-117763336D01*
X142325502Y-117591362D01*
X142246350Y-117400274D01*
X142206000Y-117197416D01*
X142206000Y-116990584D01*
X142246350Y-116787726D01*
X142325502Y-116596638D01*
X142440411Y-116424664D01*
X142586664Y-116278411D01*
X142758638Y-116163502D01*
X142949726Y-116084350D01*
X143127313Y-116049027D01*
X143152583Y-116044000D01*
X143359417Y-116044000D01*
X143384687Y-116049027D01*
G37*
G36*
X145924687Y-116049027D02*
G01*
X146102274Y-116084350D01*
X146293362Y-116163502D01*
X146465336Y-116278411D01*
X146611589Y-116424664D01*
X146726498Y-116596638D01*
X146805650Y-116787726D01*
X146846000Y-116990584D01*
X146846000Y-117197416D01*
X146805650Y-117400274D01*
X146726498Y-117591362D01*
X146611589Y-117763336D01*
X146465336Y-117909589D01*
X146293362Y-118024498D01*
X146102274Y-118103650D01*
X145924687Y-118138973D01*
X145899417Y-118144000D01*
X145692583Y-118144000D01*
X145667313Y-118138973D01*
X145489726Y-118103650D01*
X145298638Y-118024498D01*
X145126664Y-117909589D01*
X144980411Y-117763336D01*
X144865502Y-117591362D01*
X144786350Y-117400274D01*
X144746000Y-117197416D01*
X144746000Y-116990584D01*
X144786350Y-116787726D01*
X144865502Y-116596638D01*
X144980411Y-116424664D01*
X145126664Y-116278411D01*
X145298638Y-116163502D01*
X145489726Y-116084350D01*
X145667313Y-116049027D01*
X145692583Y-116044000D01*
X145899417Y-116044000D01*
X145924687Y-116049027D01*
G37*
G36*
X148464687Y-116049027D02*
G01*
X148642274Y-116084350D01*
X148833362Y-116163502D01*
X149005336Y-116278411D01*
X149151589Y-116424664D01*
X149266498Y-116596638D01*
X149345650Y-116787726D01*
X149386000Y-116990584D01*
X149386000Y-117197416D01*
X149345650Y-117400274D01*
X149266498Y-117591362D01*
X149151589Y-117763336D01*
X149005336Y-117909589D01*
X148833362Y-118024498D01*
X148642274Y-118103650D01*
X148464687Y-118138973D01*
X148439417Y-118144000D01*
X148232583Y-118144000D01*
X148207313Y-118138973D01*
X148029726Y-118103650D01*
X147838638Y-118024498D01*
X147666664Y-117909589D01*
X147520411Y-117763336D01*
X147405502Y-117591362D01*
X147326350Y-117400274D01*
X147286000Y-117197416D01*
X147286000Y-116990584D01*
X147326350Y-116787726D01*
X147405502Y-116596638D01*
X147520411Y-116424664D01*
X147666664Y-116278411D01*
X147838638Y-116163502D01*
X148029726Y-116084350D01*
X148207313Y-116049027D01*
X148232583Y-116044000D01*
X148439417Y-116044000D01*
X148464687Y-116049027D01*
G37*
G36*
X151004687Y-116049027D02*
G01*
X151182274Y-116084350D01*
X151373362Y-116163502D01*
X151545336Y-116278411D01*
X151691589Y-116424664D01*
X151806498Y-116596638D01*
X151885650Y-116787726D01*
X151926000Y-116990584D01*
X151926000Y-117197416D01*
X151885650Y-117400274D01*
X151806498Y-117591362D01*
X151691589Y-117763336D01*
X151545336Y-117909589D01*
X151373362Y-118024498D01*
X151182274Y-118103650D01*
X151004687Y-118138973D01*
X150979417Y-118144000D01*
X150772583Y-118144000D01*
X150747313Y-118138973D01*
X150569726Y-118103650D01*
X150378638Y-118024498D01*
X150206664Y-117909589D01*
X150060411Y-117763336D01*
X149945502Y-117591362D01*
X149866350Y-117400274D01*
X149826000Y-117197416D01*
X149826000Y-116990584D01*
X149866350Y-116787726D01*
X149945502Y-116596638D01*
X150060411Y-116424664D01*
X150206664Y-116278411D01*
X150378638Y-116163502D01*
X150569726Y-116084350D01*
X150747313Y-116049027D01*
X150772583Y-116044000D01*
X150979417Y-116044000D01*
X151004687Y-116049027D01*
G37*
G36*
X153544687Y-116049027D02*
G01*
X153722274Y-116084350D01*
X153913362Y-116163502D01*
X154085336Y-116278411D01*
X154231589Y-116424664D01*
X154346498Y-116596638D01*
X154425650Y-116787726D01*
X154466000Y-116990584D01*
X154466000Y-117197416D01*
X154425650Y-117400274D01*
X154346498Y-117591362D01*
X154231589Y-117763336D01*
X154085336Y-117909589D01*
X153913362Y-118024498D01*
X153722274Y-118103650D01*
X153544687Y-118138973D01*
X153519417Y-118144000D01*
X153312583Y-118144000D01*
X153287313Y-118138973D01*
X153109726Y-118103650D01*
X152918638Y-118024498D01*
X152746664Y-117909589D01*
X152600411Y-117763336D01*
X152485502Y-117591362D01*
X152406350Y-117400274D01*
X152366000Y-117197416D01*
X152366000Y-116990584D01*
X152406350Y-116787726D01*
X152485502Y-116596638D01*
X152600411Y-116424664D01*
X152746664Y-116278411D01*
X152918638Y-116163502D01*
X153109726Y-116084350D01*
X153287313Y-116049027D01*
X153312583Y-116044000D01*
X153519417Y-116044000D01*
X153544687Y-116049027D01*
G37*
G36*
X129066000Y-118144000D02*
G01*
X126966000Y-118144000D01*
X126966000Y-116044000D01*
X129066000Y-116044000D01*
X129066000Y-118144000D01*
G37*
M02*
