%TF.GenerationSoftware,KiCad,Pcbnew,7.0.7*%
%TF.CreationDate,2023-09-17T21:28:58+02:00*%
%TF.ProjectId,PSACANBridgeHW_v12,50534143-414e-4427-9269-64676548575f,rev?*%
%TF.SameCoordinates,Original*%
%TF.FileFunction,Soldermask,Bot*%
%TF.FilePolarity,Negative*%
%FSLAX46Y46*%
G04 Gerber Fmt 4.6, Leading zero omitted, Abs format (unit mm)*
G04 Created by KiCad (PCBNEW 7.0.7) date 2023-09-17 21:28:58*
%MOMM*%
%LPD*%
G01*
G04 APERTURE LIST*
G04 Aperture macros list*
%AMRoundRect*
0 Rectangle with rounded corners*
0 $1 Rounding radius*
0 $2 $3 $4 $5 $6 $7 $8 $9 X,Y pos of 4 corners*
0 Add a 4 corners polygon primitive as box body*
4,1,4,$2,$3,$4,$5,$6,$7,$8,$9,$2,$3,0*
0 Add four circle primitives for the rounded corners*
1,1,$1+$1,$2,$3*
1,1,$1+$1,$4,$5*
1,1,$1+$1,$6,$7*
1,1,$1+$1,$8,$9*
0 Add four rect primitives between the rounded corners*
20,1,$1+$1,$2,$3,$4,$5,0*
20,1,$1+$1,$4,$5,$6,$7,0*
20,1,$1+$1,$6,$7,$8,$9,0*
20,1,$1+$1,$8,$9,$2,$3,0*%
G04 Aperture macros list end*
%ADD10RoundRect,0.200000X0.850000X0.850000X-0.850000X0.850000X-0.850000X-0.850000X0.850000X-0.850000X0*%
%ADD11O,2.100000X2.100000*%
%ADD12RoundRect,0.581000X-0.762000X-0.381000X0.762000X-0.381000X0.762000X0.381000X-0.762000X0.381000X0*%
%ADD13C,2.100000*%
%ADD14RoundRect,0.200000X0.850000X-0.850000X0.850000X0.850000X-0.850000X0.850000X-0.850000X-0.850000X0*%
%ADD15C,1.924000*%
%ADD16RoundRect,0.200000X0.600000X-0.600000X0.600000X0.600000X-0.600000X0.600000X-0.600000X-0.600000X0*%
%ADD17C,1.600000*%
%ADD18RoundRect,0.450000X0.725000X-0.600000X0.725000X0.600000X-0.725000X0.600000X-0.725000X-0.600000X0*%
%ADD19O,2.350000X2.100000*%
G04 APERTURE END LIST*
D10*
%TO.C,J2*%
X121900000Y-137345000D03*
D11*
X121900000Y-134805000D03*
X121900000Y-132265000D03*
X121900000Y-129725000D03*
X121900000Y-127185000D03*
%TD*%
D12*
%TO.C,J3*%
X118540800Y-131966168D03*
X118490000Y-128537168D03*
%TD*%
D13*
%TO.C,U5*%
X164399200Y-142506686D03*
X161859200Y-142506686D03*
X159319200Y-142506686D03*
X156779200Y-142506686D03*
X154239200Y-142506686D03*
X151699200Y-142506686D03*
X149159200Y-142506686D03*
X146619200Y-142506686D03*
X144079200Y-142506686D03*
X141539200Y-142506686D03*
X138999200Y-142506686D03*
X136459200Y-142506686D03*
X133919200Y-142506686D03*
X131379200Y-142506686D03*
X128839200Y-142506686D03*
X164450000Y-117094000D03*
X161910000Y-117094000D03*
X159370000Y-117094000D03*
X156830000Y-117094000D03*
X154290000Y-117094000D03*
D11*
X151750000Y-117094000D03*
D13*
X149210000Y-117094000D03*
X146670000Y-117094000D03*
X144130000Y-117094000D03*
X141590000Y-117094000D03*
X139050000Y-117094000D03*
X136510000Y-117094000D03*
X133970000Y-117094000D03*
X131430000Y-117094000D03*
D14*
X128890000Y-117094000D03*
%TD*%
D15*
%TO.C,U3*%
X164390000Y-120323400D03*
X150851800Y-120323400D03*
X164390000Y-138840000D03*
X150851800Y-138840000D03*
%TD*%
D16*
%TO.C,C3*%
X167620000Y-122830000D03*
D17*
X167620000Y-120830000D03*
%TD*%
D16*
%TO.C,C8*%
X148030000Y-121402600D03*
D17*
X148030000Y-119402600D03*
%TD*%
D18*
%TO.C,J1*%
X172212000Y-135890000D03*
D19*
X172212000Y-133390000D03*
X172212000Y-130890000D03*
X172212000Y-128390000D03*
X172212000Y-125890000D03*
X172212000Y-123390000D03*
%TD*%
M02*
