%TF.GenerationSoftware,KiCad,Pcbnew,7.0.7*%
%TF.CreationDate,2023-09-17T21:28:58+02:00*%
%TF.ProjectId,PSACANBridgeHW_v12,50534143-414e-4427-9269-64676548575f,rev?*%
%TF.SameCoordinates,Original*%
%TF.FileFunction,Legend,Top*%
%TF.FilePolarity,Positive*%
%FSLAX46Y46*%
G04 Gerber Fmt 4.6, Leading zero omitted, Abs format (unit mm)*
G04 Created by KiCad (PCBNEW 7.0.7) date 2023-09-17 21:28:58*
%MOMM*%
%LPD*%
G01*
G04 APERTURE LIST*
G04 Aperture macros list*
%AMRoundRect*
0 Rectangle with rounded corners*
0 $1 Rounding radius*
0 $2 $3 $4 $5 $6 $7 $8 $9 X,Y pos of 4 corners*
0 Add a 4 corners polygon primitive as box body*
4,1,4,$2,$3,$4,$5,$6,$7,$8,$9,$2,$3,0*
0 Add four circle primitives for the rounded corners*
1,1,$1+$1,$2,$3*
1,1,$1+$1,$4,$5*
1,1,$1+$1,$6,$7*
1,1,$1+$1,$8,$9*
0 Add four rect primitives between the rounded corners*
20,1,$1+$1,$2,$3,$4,$5,0*
20,1,$1+$1,$4,$5,$6,$7,0*
20,1,$1+$1,$6,$7,$8,$9,0*
20,1,$1+$1,$8,$9,$2,$3,0*%
G04 Aperture macros list end*
%ADD10C,0.100000*%
%ADD11C,0.150000*%
%ADD12C,0.120000*%
%ADD13RoundRect,0.200000X0.850000X0.850000X-0.850000X0.850000X-0.850000X-0.850000X0.850000X-0.850000X0*%
%ADD14O,2.100000X2.100000*%
%ADD15RoundRect,0.437500X0.237500X-0.250000X0.237500X0.250000X-0.237500X0.250000X-0.237500X-0.250000X0*%
%ADD16RoundRect,0.437500X-0.250000X-0.237500X0.250000X-0.237500X0.250000X0.237500X-0.250000X0.237500X0*%
%ADD17RoundRect,0.437500X-0.237500X0.300000X-0.237500X-0.300000X0.237500X-0.300000X0.237500X0.300000X0*%
%ADD18RoundRect,0.350000X-0.875000X-0.150000X0.875000X-0.150000X0.875000X0.150000X-0.875000X0.150000X0*%
%ADD19C,2.100000*%
%ADD20RoundRect,0.200000X0.850000X-0.850000X0.850000X0.850000X-0.850000X0.850000X-0.850000X-0.850000X0*%
%ADD21RoundRect,0.450000X-0.350000X0.850000X-0.350000X-0.850000X0.350000X-0.850000X0.350000X0.850000X0*%
%ADD22RoundRect,0.449997X-2.650003X2.950003X-2.650003X-2.950003X2.650003X-2.950003X2.650003X2.950003X0*%
%ADD23RoundRect,0.200000X1.200000X-1.000000X1.200000X1.000000X-1.200000X1.000000X-1.200000X-1.000000X0*%
%ADD24RoundRect,0.200000X-0.500000X-0.750000X0.500000X-0.750000X0.500000X0.750000X-0.500000X0.750000X0*%
%ADD25C,1.924000*%
%ADD26RoundRect,0.350000X-0.825000X-0.150000X0.825000X-0.150000X0.825000X0.150000X-0.825000X0.150000X0*%
%ADD27RoundRect,0.437500X0.250000X0.237500X-0.250000X0.237500X-0.250000X-0.237500X0.250000X-0.237500X0*%
%ADD28RoundRect,0.200000X0.500000X0.750000X-0.500000X0.750000X-0.500000X-0.750000X0.500000X-0.750000X0*%
%ADD29RoundRect,0.437500X0.237500X-0.300000X0.237500X0.300000X-0.237500X0.300000X-0.237500X-0.300000X0*%
%ADD30RoundRect,0.200000X0.600000X-0.600000X0.600000X0.600000X-0.600000X0.600000X-0.600000X-0.600000X0*%
%ADD31C,1.600000*%
%ADD32RoundRect,0.437500X-0.300000X-0.237500X0.300000X-0.237500X0.300000X0.237500X-0.300000X0.237500X0*%
%ADD33RoundRect,0.437500X-0.237500X0.250000X-0.237500X-0.250000X0.237500X-0.250000X0.237500X0.250000X0*%
%ADD34RoundRect,0.350000X-0.150000X0.587500X-0.150000X-0.587500X0.150000X-0.587500X0.150000X0.587500X0*%
%ADD35RoundRect,0.450000X-0.650000X1.000000X-0.650000X-1.000000X0.650000X-1.000000X0.650000X1.000000X0*%
%ADD36RoundRect,0.450000X0.725000X-0.600000X0.725000X0.600000X-0.725000X0.600000X-0.725000X-0.600000X0*%
%ADD37O,2.350000X2.100000*%
G04 APERTURE END LIST*
D10*
X120930074Y-138906895D02*
X121425312Y-138906895D01*
X121425312Y-138906895D02*
X121158646Y-139211657D01*
X121158646Y-139211657D02*
X121272931Y-139211657D01*
X121272931Y-139211657D02*
X121349122Y-139249752D01*
X121349122Y-139249752D02*
X121387217Y-139287847D01*
X121387217Y-139287847D02*
X121425312Y-139364038D01*
X121425312Y-139364038D02*
X121425312Y-139554514D01*
X121425312Y-139554514D02*
X121387217Y-139630704D01*
X121387217Y-139630704D02*
X121349122Y-139668800D01*
X121349122Y-139668800D02*
X121272931Y-139706895D01*
X121272931Y-139706895D02*
X121044360Y-139706895D01*
X121044360Y-139706895D02*
X120968169Y-139668800D01*
X120968169Y-139668800D02*
X120930074Y-139630704D01*
X121653884Y-138906895D02*
X121920551Y-139706895D01*
X121920551Y-139706895D02*
X122187217Y-138906895D01*
X122377693Y-138906895D02*
X122872931Y-138906895D01*
X122872931Y-138906895D02*
X122606265Y-139211657D01*
X122606265Y-139211657D02*
X122720550Y-139211657D01*
X122720550Y-139211657D02*
X122796741Y-139249752D01*
X122796741Y-139249752D02*
X122834836Y-139287847D01*
X122834836Y-139287847D02*
X122872931Y-139364038D01*
X122872931Y-139364038D02*
X122872931Y-139554514D01*
X122872931Y-139554514D02*
X122834836Y-139630704D01*
X122834836Y-139630704D02*
X122796741Y-139668800D01*
X122796741Y-139668800D02*
X122720550Y-139706895D01*
X122720550Y-139706895D02*
X122491979Y-139706895D01*
X122491979Y-139706895D02*
X122415788Y-139668800D01*
X122415788Y-139668800D02*
X122377693Y-139630704D01*
D11*
X159360000Y-127680000D02*
X159030000Y-127680000D01*
X159360000Y-125860000D02*
X159360000Y-127680000D01*
X161890000Y-127670000D02*
X162220000Y-127670000D01*
X161890000Y-125850000D02*
X161890000Y-127670000D01*
D10*
X158537217Y-122696895D02*
X158156265Y-122696895D01*
X158156265Y-122696895D02*
X158118169Y-123077847D01*
X158118169Y-123077847D02*
X158156265Y-123039752D01*
X158156265Y-123039752D02*
X158232455Y-123001657D01*
X158232455Y-123001657D02*
X158422931Y-123001657D01*
X158422931Y-123001657D02*
X158499122Y-123039752D01*
X158499122Y-123039752D02*
X158537217Y-123077847D01*
X158537217Y-123077847D02*
X158575312Y-123154038D01*
X158575312Y-123154038D02*
X158575312Y-123344514D01*
X158575312Y-123344514D02*
X158537217Y-123420704D01*
X158537217Y-123420704D02*
X158499122Y-123458800D01*
X158499122Y-123458800D02*
X158422931Y-123496895D01*
X158422931Y-123496895D02*
X158232455Y-123496895D01*
X158232455Y-123496895D02*
X158156265Y-123458800D01*
X158156265Y-123458800D02*
X158118169Y-123420704D01*
X158803884Y-122696895D02*
X159070551Y-123496895D01*
X159070551Y-123496895D02*
X159337217Y-122696895D01*
X160213408Y-123192133D02*
X160822932Y-123192133D01*
X160518170Y-123496895D02*
X160518170Y-122887371D01*
X161699122Y-122696895D02*
X161965789Y-123496895D01*
X161965789Y-123496895D02*
X162232455Y-122696895D01*
X162499122Y-123496895D02*
X162499122Y-122696895D01*
X162880074Y-123496895D02*
X162880074Y-122696895D01*
X162880074Y-122696895D02*
X163337217Y-123496895D01*
X163337217Y-123496895D02*
X163337217Y-122696895D01*
D11*
X145220000Y-133380000D02*
G75*
G03*
X145220000Y-133380000I-138924J0D01*
G01*
X145220000Y-124110000D02*
G75*
G03*
X145220000Y-124110000I-138924J0D01*
G01*
X130288924Y-129160000D02*
G75*
G03*
X130288924Y-129160000I-138924J0D01*
G01*
X118238924Y-120020000D02*
G75*
G03*
X118238924Y-120020000I-138924J0D01*
G01*
D10*
X174542857Y-126163704D02*
X174504761Y-126201800D01*
X174504761Y-126201800D02*
X174390476Y-126239895D01*
X174390476Y-126239895D02*
X174314285Y-126239895D01*
X174314285Y-126239895D02*
X174199999Y-126201800D01*
X174199999Y-126201800D02*
X174123809Y-126125609D01*
X174123809Y-126125609D02*
X174085714Y-126049419D01*
X174085714Y-126049419D02*
X174047618Y-125897038D01*
X174047618Y-125897038D02*
X174047618Y-125782752D01*
X174047618Y-125782752D02*
X174085714Y-125630371D01*
X174085714Y-125630371D02*
X174123809Y-125554180D01*
X174123809Y-125554180D02*
X174199999Y-125477990D01*
X174199999Y-125477990D02*
X174314285Y-125439895D01*
X174314285Y-125439895D02*
X174390476Y-125439895D01*
X174390476Y-125439895D02*
X174504761Y-125477990D01*
X174504761Y-125477990D02*
X174542857Y-125516085D01*
X174847618Y-125516085D02*
X174885714Y-125477990D01*
X174885714Y-125477990D02*
X174961904Y-125439895D01*
X174961904Y-125439895D02*
X175152380Y-125439895D01*
X175152380Y-125439895D02*
X175228571Y-125477990D01*
X175228571Y-125477990D02*
X175266666Y-125516085D01*
X175266666Y-125516085D02*
X175304761Y-125592276D01*
X175304761Y-125592276D02*
X175304761Y-125668466D01*
X175304761Y-125668466D02*
X175266666Y-125782752D01*
X175266666Y-125782752D02*
X174809523Y-126239895D01*
X174809523Y-126239895D02*
X175304761Y-126239895D01*
X175457143Y-126316085D02*
X176066666Y-126316085D01*
X176257143Y-126239895D02*
X176257143Y-125439895D01*
X176257143Y-125820847D02*
X176714286Y-125820847D01*
X176714286Y-126239895D02*
X176714286Y-125439895D01*
X174542857Y-128665604D02*
X174504761Y-128703700D01*
X174504761Y-128703700D02*
X174390476Y-128741795D01*
X174390476Y-128741795D02*
X174314285Y-128741795D01*
X174314285Y-128741795D02*
X174199999Y-128703700D01*
X174199999Y-128703700D02*
X174123809Y-128627509D01*
X174123809Y-128627509D02*
X174085714Y-128551319D01*
X174085714Y-128551319D02*
X174047618Y-128398938D01*
X174047618Y-128398938D02*
X174047618Y-128284652D01*
X174047618Y-128284652D02*
X174085714Y-128132271D01*
X174085714Y-128132271D02*
X174123809Y-128056080D01*
X174123809Y-128056080D02*
X174199999Y-127979890D01*
X174199999Y-127979890D02*
X174314285Y-127941795D01*
X174314285Y-127941795D02*
X174390476Y-127941795D01*
X174390476Y-127941795D02*
X174504761Y-127979890D01*
X174504761Y-127979890D02*
X174542857Y-128017985D01*
X175304761Y-128741795D02*
X174847618Y-128741795D01*
X175076190Y-128741795D02*
X175076190Y-127941795D01*
X175076190Y-127941795D02*
X174999999Y-128056080D01*
X174999999Y-128056080D02*
X174923809Y-128132271D01*
X174923809Y-128132271D02*
X174847618Y-128170366D01*
X175457143Y-128817985D02*
X176066666Y-128817985D01*
X176638095Y-128741795D02*
X176257143Y-128741795D01*
X176257143Y-128741795D02*
X176257143Y-127941795D01*
X174542857Y-131167504D02*
X174504761Y-131205600D01*
X174504761Y-131205600D02*
X174390476Y-131243695D01*
X174390476Y-131243695D02*
X174314285Y-131243695D01*
X174314285Y-131243695D02*
X174199999Y-131205600D01*
X174199999Y-131205600D02*
X174123809Y-131129409D01*
X174123809Y-131129409D02*
X174085714Y-131053219D01*
X174085714Y-131053219D02*
X174047618Y-130900838D01*
X174047618Y-130900838D02*
X174047618Y-130786552D01*
X174047618Y-130786552D02*
X174085714Y-130634171D01*
X174085714Y-130634171D02*
X174123809Y-130557980D01*
X174123809Y-130557980D02*
X174199999Y-130481790D01*
X174199999Y-130481790D02*
X174314285Y-130443695D01*
X174314285Y-130443695D02*
X174390476Y-130443695D01*
X174390476Y-130443695D02*
X174504761Y-130481790D01*
X174504761Y-130481790D02*
X174542857Y-130519885D01*
X175304761Y-131243695D02*
X174847618Y-131243695D01*
X175076190Y-131243695D02*
X175076190Y-130443695D01*
X175076190Y-130443695D02*
X174999999Y-130557980D01*
X174999999Y-130557980D02*
X174923809Y-130634171D01*
X174923809Y-130634171D02*
X174847618Y-130672266D01*
X175457143Y-131319885D02*
X176066666Y-131319885D01*
X176257143Y-131243695D02*
X176257143Y-130443695D01*
X176257143Y-130824647D02*
X176714286Y-130824647D01*
X176714286Y-131243695D02*
X176714286Y-130443695D01*
X174504761Y-132983690D02*
X174428571Y-132945595D01*
X174428571Y-132945595D02*
X174314285Y-132945595D01*
X174314285Y-132945595D02*
X174199999Y-132983690D01*
X174199999Y-132983690D02*
X174123809Y-133059880D01*
X174123809Y-133059880D02*
X174085714Y-133136071D01*
X174085714Y-133136071D02*
X174047618Y-133288452D01*
X174047618Y-133288452D02*
X174047618Y-133402738D01*
X174047618Y-133402738D02*
X174085714Y-133555119D01*
X174085714Y-133555119D02*
X174123809Y-133631309D01*
X174123809Y-133631309D02*
X174199999Y-133707500D01*
X174199999Y-133707500D02*
X174314285Y-133745595D01*
X174314285Y-133745595D02*
X174390476Y-133745595D01*
X174390476Y-133745595D02*
X174504761Y-133707500D01*
X174504761Y-133707500D02*
X174542857Y-133669404D01*
X174542857Y-133669404D02*
X174542857Y-133402738D01*
X174542857Y-133402738D02*
X174390476Y-133402738D01*
X174885714Y-133745595D02*
X174885714Y-132945595D01*
X174885714Y-132945595D02*
X175342857Y-133745595D01*
X175342857Y-133745595D02*
X175342857Y-132945595D01*
X175723809Y-133745595D02*
X175723809Y-132945595D01*
X175723809Y-132945595D02*
X175914285Y-132945595D01*
X175914285Y-132945595D02*
X176028571Y-132983690D01*
X176028571Y-132983690D02*
X176104761Y-133059880D01*
X176104761Y-133059880D02*
X176142856Y-133136071D01*
X176142856Y-133136071D02*
X176180952Y-133288452D01*
X176180952Y-133288452D02*
X176180952Y-133402738D01*
X176180952Y-133402738D02*
X176142856Y-133555119D01*
X176142856Y-133555119D02*
X176104761Y-133631309D01*
X176104761Y-133631309D02*
X176028571Y-133707500D01*
X176028571Y-133707500D02*
X175914285Y-133745595D01*
X175914285Y-133745595D02*
X175723809Y-133745595D01*
X174085714Y-135942733D02*
X174695238Y-135942733D01*
X174390476Y-136247495D02*
X174390476Y-135637971D01*
X175495237Y-136247495D02*
X175038094Y-136247495D01*
X175266666Y-136247495D02*
X175266666Y-135447495D01*
X175266666Y-135447495D02*
X175190475Y-135561780D01*
X175190475Y-135561780D02*
X175114285Y-135637971D01*
X175114285Y-135637971D02*
X175038094Y-135676066D01*
X175799999Y-135523685D02*
X175838095Y-135485590D01*
X175838095Y-135485590D02*
X175914285Y-135447495D01*
X175914285Y-135447495D02*
X176104761Y-135447495D01*
X176104761Y-135447495D02*
X176180952Y-135485590D01*
X176180952Y-135485590D02*
X176219047Y-135523685D01*
X176219047Y-135523685D02*
X176257142Y-135599876D01*
X176257142Y-135599876D02*
X176257142Y-135676066D01*
X176257142Y-135676066D02*
X176219047Y-135790352D01*
X176219047Y-135790352D02*
X175761904Y-136247495D01*
X175761904Y-136247495D02*
X176257142Y-136247495D01*
X176485714Y-135447495D02*
X176752381Y-136247495D01*
X176752381Y-136247495D02*
X177019047Y-135447495D01*
X165211847Y-135346191D02*
X165211847Y-135079525D01*
X165630895Y-134965239D02*
X165630895Y-135346191D01*
X165630895Y-135346191D02*
X164830895Y-135346191D01*
X164830895Y-135346191D02*
X164830895Y-134965239D01*
X165592800Y-134660477D02*
X165630895Y-134546191D01*
X165630895Y-134546191D02*
X165630895Y-134355715D01*
X165630895Y-134355715D02*
X165592800Y-134279524D01*
X165592800Y-134279524D02*
X165554704Y-134241429D01*
X165554704Y-134241429D02*
X165478514Y-134203334D01*
X165478514Y-134203334D02*
X165402323Y-134203334D01*
X165402323Y-134203334D02*
X165326133Y-134241429D01*
X165326133Y-134241429D02*
X165288038Y-134279524D01*
X165288038Y-134279524D02*
X165249942Y-134355715D01*
X165249942Y-134355715D02*
X165211847Y-134508096D01*
X165211847Y-134508096D02*
X165173752Y-134584286D01*
X165173752Y-134584286D02*
X165135657Y-134622381D01*
X165135657Y-134622381D02*
X165059466Y-134660477D01*
X165059466Y-134660477D02*
X164983276Y-134660477D01*
X164983276Y-134660477D02*
X164907085Y-134622381D01*
X164907085Y-134622381D02*
X164868990Y-134584286D01*
X164868990Y-134584286D02*
X164830895Y-134508096D01*
X164830895Y-134508096D02*
X164830895Y-134317619D01*
X164830895Y-134317619D02*
X164868990Y-134203334D01*
X165630895Y-133860476D02*
X164830895Y-133860476D01*
X164830895Y-133860476D02*
X164830895Y-133555714D01*
X164830895Y-133555714D02*
X164868990Y-133479524D01*
X164868990Y-133479524D02*
X164907085Y-133441429D01*
X164907085Y-133441429D02*
X164983276Y-133403333D01*
X164983276Y-133403333D02*
X165097561Y-133403333D01*
X165097561Y-133403333D02*
X165173752Y-133441429D01*
X165173752Y-133441429D02*
X165211847Y-133479524D01*
X165211847Y-133479524D02*
X165249942Y-133555714D01*
X165249942Y-133555714D02*
X165249942Y-133860476D01*
X164830895Y-133136667D02*
X164830895Y-132641429D01*
X164830895Y-132641429D02*
X165135657Y-132908095D01*
X165135657Y-132908095D02*
X165135657Y-132793810D01*
X165135657Y-132793810D02*
X165173752Y-132717619D01*
X165173752Y-132717619D02*
X165211847Y-132679524D01*
X165211847Y-132679524D02*
X165288038Y-132641429D01*
X165288038Y-132641429D02*
X165478514Y-132641429D01*
X165478514Y-132641429D02*
X165554704Y-132679524D01*
X165554704Y-132679524D02*
X165592800Y-132717619D01*
X165592800Y-132717619D02*
X165630895Y-132793810D01*
X165630895Y-132793810D02*
X165630895Y-133022381D01*
X165630895Y-133022381D02*
X165592800Y-133098572D01*
X165592800Y-133098572D02*
X165554704Y-133136667D01*
X164907085Y-132336667D02*
X164868990Y-132298571D01*
X164868990Y-132298571D02*
X164830895Y-132222381D01*
X164830895Y-132222381D02*
X164830895Y-132031905D01*
X164830895Y-132031905D02*
X164868990Y-131955714D01*
X164868990Y-131955714D02*
X164907085Y-131917619D01*
X164907085Y-131917619D02*
X164983276Y-131879524D01*
X164983276Y-131879524D02*
X165059466Y-131879524D01*
X165059466Y-131879524D02*
X165173752Y-131917619D01*
X165173752Y-131917619D02*
X165630895Y-132374762D01*
X165630895Y-132374762D02*
X165630895Y-131879524D01*
X165630895Y-130927142D02*
X164830895Y-130927142D01*
X164830895Y-130927142D02*
X164830895Y-130736666D01*
X164830895Y-130736666D02*
X164868990Y-130622380D01*
X164868990Y-130622380D02*
X164945180Y-130546190D01*
X164945180Y-130546190D02*
X165021371Y-130508095D01*
X165021371Y-130508095D02*
X165173752Y-130469999D01*
X165173752Y-130469999D02*
X165288038Y-130469999D01*
X165288038Y-130469999D02*
X165440419Y-130508095D01*
X165440419Y-130508095D02*
X165516609Y-130546190D01*
X165516609Y-130546190D02*
X165592800Y-130622380D01*
X165592800Y-130622380D02*
X165630895Y-130736666D01*
X165630895Y-130736666D02*
X165630895Y-130927142D01*
X165097561Y-129784285D02*
X165630895Y-129784285D01*
X165097561Y-130127142D02*
X165516609Y-130127142D01*
X165516609Y-130127142D02*
X165592800Y-130089047D01*
X165592800Y-130089047D02*
X165630895Y-130012857D01*
X165630895Y-130012857D02*
X165630895Y-129898571D01*
X165630895Y-129898571D02*
X165592800Y-129822380D01*
X165592800Y-129822380D02*
X165554704Y-129784285D01*
X165630895Y-129060475D02*
X165211847Y-129060475D01*
X165211847Y-129060475D02*
X165135657Y-129098570D01*
X165135657Y-129098570D02*
X165097561Y-129174761D01*
X165097561Y-129174761D02*
X165097561Y-129327142D01*
X165097561Y-129327142D02*
X165135657Y-129403332D01*
X165592800Y-129060475D02*
X165630895Y-129136666D01*
X165630895Y-129136666D02*
X165630895Y-129327142D01*
X165630895Y-129327142D02*
X165592800Y-129403332D01*
X165592800Y-129403332D02*
X165516609Y-129441428D01*
X165516609Y-129441428D02*
X165440419Y-129441428D01*
X165440419Y-129441428D02*
X165364228Y-129403332D01*
X165364228Y-129403332D02*
X165326133Y-129327142D01*
X165326133Y-129327142D02*
X165326133Y-129136666D01*
X165326133Y-129136666D02*
X165288038Y-129060475D01*
X165630895Y-128565237D02*
X165592800Y-128641427D01*
X165592800Y-128641427D02*
X165516609Y-128679522D01*
X165516609Y-128679522D02*
X164830895Y-128679522D01*
X165554704Y-127803331D02*
X165592800Y-127841427D01*
X165592800Y-127841427D02*
X165630895Y-127955712D01*
X165630895Y-127955712D02*
X165630895Y-128031903D01*
X165630895Y-128031903D02*
X165592800Y-128146189D01*
X165592800Y-128146189D02*
X165516609Y-128222379D01*
X165516609Y-128222379D02*
X165440419Y-128260474D01*
X165440419Y-128260474D02*
X165288038Y-128298570D01*
X165288038Y-128298570D02*
X165173752Y-128298570D01*
X165173752Y-128298570D02*
X165021371Y-128260474D01*
X165021371Y-128260474D02*
X164945180Y-128222379D01*
X164945180Y-128222379D02*
X164868990Y-128146189D01*
X164868990Y-128146189D02*
X164830895Y-128031903D01*
X164830895Y-128031903D02*
X164830895Y-127955712D01*
X164830895Y-127955712D02*
X164868990Y-127841427D01*
X164868990Y-127841427D02*
X164907085Y-127803331D01*
X165402323Y-127498570D02*
X165402323Y-127117617D01*
X165630895Y-127574760D02*
X164830895Y-127308093D01*
X164830895Y-127308093D02*
X165630895Y-127041427D01*
X165630895Y-126774760D02*
X164830895Y-126774760D01*
X164830895Y-126774760D02*
X165630895Y-126317617D01*
X165630895Y-126317617D02*
X164830895Y-126317617D01*
X165097561Y-125403332D02*
X165630895Y-125212856D01*
X165630895Y-125212856D02*
X165097561Y-125022379D01*
X165630895Y-124298570D02*
X165630895Y-124755713D01*
X165630895Y-124527141D02*
X164830895Y-124527141D01*
X164830895Y-124527141D02*
X164945180Y-124603332D01*
X164945180Y-124603332D02*
X165021371Y-124679522D01*
X165021371Y-124679522D02*
X165059466Y-124755713D01*
X165554704Y-123955712D02*
X165592800Y-123917617D01*
X165592800Y-123917617D02*
X165630895Y-123955712D01*
X165630895Y-123955712D02*
X165592800Y-123993808D01*
X165592800Y-123993808D02*
X165554704Y-123955712D01*
X165554704Y-123955712D02*
X165630895Y-123955712D01*
X164830895Y-123650951D02*
X164830895Y-123155713D01*
X164830895Y-123155713D02*
X165135657Y-123422379D01*
X165135657Y-123422379D02*
X165135657Y-123308094D01*
X165135657Y-123308094D02*
X165173752Y-123231903D01*
X165173752Y-123231903D02*
X165211847Y-123193808D01*
X165211847Y-123193808D02*
X165288038Y-123155713D01*
X165288038Y-123155713D02*
X165478514Y-123155713D01*
X165478514Y-123155713D02*
X165554704Y-123193808D01*
X165554704Y-123193808D02*
X165592800Y-123231903D01*
X165592800Y-123231903D02*
X165630895Y-123308094D01*
X165630895Y-123308094D02*
X165630895Y-123536665D01*
X165630895Y-123536665D02*
X165592800Y-123612856D01*
X165592800Y-123612856D02*
X165554704Y-123650951D01*
X166195085Y-131822381D02*
X166156990Y-131784285D01*
X166156990Y-131784285D02*
X166118895Y-131708095D01*
X166118895Y-131708095D02*
X166118895Y-131517619D01*
X166118895Y-131517619D02*
X166156990Y-131441428D01*
X166156990Y-131441428D02*
X166195085Y-131403333D01*
X166195085Y-131403333D02*
X166271276Y-131365238D01*
X166271276Y-131365238D02*
X166347466Y-131365238D01*
X166347466Y-131365238D02*
X166461752Y-131403333D01*
X166461752Y-131403333D02*
X166918895Y-131860476D01*
X166918895Y-131860476D02*
X166918895Y-131365238D01*
X166118895Y-130869999D02*
X166118895Y-130793809D01*
X166118895Y-130793809D02*
X166156990Y-130717618D01*
X166156990Y-130717618D02*
X166195085Y-130679523D01*
X166195085Y-130679523D02*
X166271276Y-130641428D01*
X166271276Y-130641428D02*
X166423657Y-130603333D01*
X166423657Y-130603333D02*
X166614133Y-130603333D01*
X166614133Y-130603333D02*
X166766514Y-130641428D01*
X166766514Y-130641428D02*
X166842704Y-130679523D01*
X166842704Y-130679523D02*
X166880800Y-130717618D01*
X166880800Y-130717618D02*
X166918895Y-130793809D01*
X166918895Y-130793809D02*
X166918895Y-130869999D01*
X166918895Y-130869999D02*
X166880800Y-130946190D01*
X166880800Y-130946190D02*
X166842704Y-130984285D01*
X166842704Y-130984285D02*
X166766514Y-131022380D01*
X166766514Y-131022380D02*
X166614133Y-131060476D01*
X166614133Y-131060476D02*
X166423657Y-131060476D01*
X166423657Y-131060476D02*
X166271276Y-131022380D01*
X166271276Y-131022380D02*
X166195085Y-130984285D01*
X166195085Y-130984285D02*
X166156990Y-130946190D01*
X166156990Y-130946190D02*
X166118895Y-130869999D01*
X166195085Y-130298571D02*
X166156990Y-130260475D01*
X166156990Y-130260475D02*
X166118895Y-130184285D01*
X166118895Y-130184285D02*
X166118895Y-129993809D01*
X166118895Y-129993809D02*
X166156990Y-129917618D01*
X166156990Y-129917618D02*
X166195085Y-129879523D01*
X166195085Y-129879523D02*
X166271276Y-129841428D01*
X166271276Y-129841428D02*
X166347466Y-129841428D01*
X166347466Y-129841428D02*
X166461752Y-129879523D01*
X166461752Y-129879523D02*
X166918895Y-130336666D01*
X166918895Y-130336666D02*
X166918895Y-129841428D01*
X166118895Y-129574761D02*
X166118895Y-129079523D01*
X166118895Y-129079523D02*
X166423657Y-129346189D01*
X166423657Y-129346189D02*
X166423657Y-129231904D01*
X166423657Y-129231904D02*
X166461752Y-129155713D01*
X166461752Y-129155713D02*
X166499847Y-129117618D01*
X166499847Y-129117618D02*
X166576038Y-129079523D01*
X166576038Y-129079523D02*
X166766514Y-129079523D01*
X166766514Y-129079523D02*
X166842704Y-129117618D01*
X166842704Y-129117618D02*
X166880800Y-129155713D01*
X166880800Y-129155713D02*
X166918895Y-129231904D01*
X166918895Y-129231904D02*
X166918895Y-129460475D01*
X166918895Y-129460475D02*
X166880800Y-129536666D01*
X166880800Y-129536666D02*
X166842704Y-129574761D01*
X166842704Y-128736665D02*
X166880800Y-128698570D01*
X166880800Y-128698570D02*
X166918895Y-128736665D01*
X166918895Y-128736665D02*
X166880800Y-128774761D01*
X166880800Y-128774761D02*
X166842704Y-128736665D01*
X166842704Y-128736665D02*
X166918895Y-128736665D01*
X166118895Y-128203332D02*
X166118895Y-128127142D01*
X166118895Y-128127142D02*
X166156990Y-128050951D01*
X166156990Y-128050951D02*
X166195085Y-128012856D01*
X166195085Y-128012856D02*
X166271276Y-127974761D01*
X166271276Y-127974761D02*
X166423657Y-127936666D01*
X166423657Y-127936666D02*
X166614133Y-127936666D01*
X166614133Y-127936666D02*
X166766514Y-127974761D01*
X166766514Y-127974761D02*
X166842704Y-128012856D01*
X166842704Y-128012856D02*
X166880800Y-128050951D01*
X166880800Y-128050951D02*
X166918895Y-128127142D01*
X166918895Y-128127142D02*
X166918895Y-128203332D01*
X166918895Y-128203332D02*
X166880800Y-128279523D01*
X166880800Y-128279523D02*
X166842704Y-128317618D01*
X166842704Y-128317618D02*
X166766514Y-128355713D01*
X166766514Y-128355713D02*
X166614133Y-128393809D01*
X166614133Y-128393809D02*
X166423657Y-128393809D01*
X166423657Y-128393809D02*
X166271276Y-128355713D01*
X166271276Y-128355713D02*
X166195085Y-128317618D01*
X166195085Y-128317618D02*
X166156990Y-128279523D01*
X166156990Y-128279523D02*
X166118895Y-128203332D01*
X166918895Y-127555713D02*
X166918895Y-127403332D01*
X166918895Y-127403332D02*
X166880800Y-127327142D01*
X166880800Y-127327142D02*
X166842704Y-127289046D01*
X166842704Y-127289046D02*
X166728419Y-127212856D01*
X166728419Y-127212856D02*
X166576038Y-127174761D01*
X166576038Y-127174761D02*
X166271276Y-127174761D01*
X166271276Y-127174761D02*
X166195085Y-127212856D01*
X166195085Y-127212856D02*
X166156990Y-127250951D01*
X166156990Y-127250951D02*
X166118895Y-127327142D01*
X166118895Y-127327142D02*
X166118895Y-127479523D01*
X166118895Y-127479523D02*
X166156990Y-127555713D01*
X166156990Y-127555713D02*
X166195085Y-127593808D01*
X166195085Y-127593808D02*
X166271276Y-127631904D01*
X166271276Y-127631904D02*
X166461752Y-127631904D01*
X166461752Y-127631904D02*
X166537942Y-127593808D01*
X166537942Y-127593808D02*
X166576038Y-127555713D01*
X166576038Y-127555713D02*
X166614133Y-127479523D01*
X166614133Y-127479523D02*
X166614133Y-127327142D01*
X166614133Y-127327142D02*
X166576038Y-127250951D01*
X166576038Y-127250951D02*
X166537942Y-127212856D01*
X166537942Y-127212856D02*
X166461752Y-127174761D01*
X166842704Y-126831903D02*
X166880800Y-126793808D01*
X166880800Y-126793808D02*
X166918895Y-126831903D01*
X166918895Y-126831903D02*
X166880800Y-126869999D01*
X166880800Y-126869999D02*
X166842704Y-126831903D01*
X166842704Y-126831903D02*
X166918895Y-126831903D01*
X166918895Y-126031904D02*
X166918895Y-126489047D01*
X166918895Y-126260475D02*
X166118895Y-126260475D01*
X166118895Y-126260475D02*
X166233180Y-126336666D01*
X166233180Y-126336666D02*
X166309371Y-126412856D01*
X166309371Y-126412856D02*
X166347466Y-126489047D01*
X166118895Y-125765237D02*
X166118895Y-125231903D01*
X166118895Y-125231903D02*
X166918895Y-125574761D01*
X166842704Y-124927141D02*
X166880800Y-124889046D01*
X166880800Y-124889046D02*
X166918895Y-124927141D01*
X166918895Y-124927141D02*
X166880800Y-124965237D01*
X166880800Y-124965237D02*
X166842704Y-124927141D01*
X166842704Y-124927141D02*
X166918895Y-124927141D01*
X174542857Y-123661804D02*
X174504761Y-123699900D01*
X174504761Y-123699900D02*
X174390476Y-123737995D01*
X174390476Y-123737995D02*
X174314285Y-123737995D01*
X174314285Y-123737995D02*
X174199999Y-123699900D01*
X174199999Y-123699900D02*
X174123809Y-123623709D01*
X174123809Y-123623709D02*
X174085714Y-123547519D01*
X174085714Y-123547519D02*
X174047618Y-123395138D01*
X174047618Y-123395138D02*
X174047618Y-123280852D01*
X174047618Y-123280852D02*
X174085714Y-123128471D01*
X174085714Y-123128471D02*
X174123809Y-123052280D01*
X174123809Y-123052280D02*
X174199999Y-122976090D01*
X174199999Y-122976090D02*
X174314285Y-122937995D01*
X174314285Y-122937995D02*
X174390476Y-122937995D01*
X174390476Y-122937995D02*
X174504761Y-122976090D01*
X174504761Y-122976090D02*
X174542857Y-123014185D01*
X174847618Y-123014185D02*
X174885714Y-122976090D01*
X174885714Y-122976090D02*
X174961904Y-122937995D01*
X174961904Y-122937995D02*
X175152380Y-122937995D01*
X175152380Y-122937995D02*
X175228571Y-122976090D01*
X175228571Y-122976090D02*
X175266666Y-123014185D01*
X175266666Y-123014185D02*
X175304761Y-123090376D01*
X175304761Y-123090376D02*
X175304761Y-123166566D01*
X175304761Y-123166566D02*
X175266666Y-123280852D01*
X175266666Y-123280852D02*
X174809523Y-123737995D01*
X174809523Y-123737995D02*
X175304761Y-123737995D01*
X175457143Y-123814185D02*
X176066666Y-123814185D01*
X176638095Y-123737995D02*
X176257143Y-123737995D01*
X176257143Y-123737995D02*
X176257143Y-122937995D01*
X119644895Y-138824285D02*
X119263942Y-139090952D01*
X119644895Y-139281428D02*
X118844895Y-139281428D01*
X118844895Y-139281428D02*
X118844895Y-138976666D01*
X118844895Y-138976666D02*
X118882990Y-138900476D01*
X118882990Y-138900476D02*
X118921085Y-138862381D01*
X118921085Y-138862381D02*
X118997276Y-138824285D01*
X118997276Y-138824285D02*
X119111561Y-138824285D01*
X119111561Y-138824285D02*
X119187752Y-138862381D01*
X119187752Y-138862381D02*
X119225847Y-138900476D01*
X119225847Y-138900476D02*
X119263942Y-138976666D01*
X119263942Y-138976666D02*
X119263942Y-139281428D01*
X119644895Y-138062381D02*
X119644895Y-138519524D01*
X119644895Y-138290952D02*
X118844895Y-138290952D01*
X118844895Y-138290952D02*
X118959180Y-138367143D01*
X118959180Y-138367143D02*
X119035371Y-138443333D01*
X119035371Y-138443333D02*
X119073466Y-138519524D01*
X118844895Y-137567142D02*
X118844895Y-137490952D01*
X118844895Y-137490952D02*
X118882990Y-137414761D01*
X118882990Y-137414761D02*
X118921085Y-137376666D01*
X118921085Y-137376666D02*
X118997276Y-137338571D01*
X118997276Y-137338571D02*
X119149657Y-137300476D01*
X119149657Y-137300476D02*
X119340133Y-137300476D01*
X119340133Y-137300476D02*
X119492514Y-137338571D01*
X119492514Y-137338571D02*
X119568704Y-137376666D01*
X119568704Y-137376666D02*
X119606800Y-137414761D01*
X119606800Y-137414761D02*
X119644895Y-137490952D01*
X119644895Y-137490952D02*
X119644895Y-137567142D01*
X119644895Y-137567142D02*
X119606800Y-137643333D01*
X119606800Y-137643333D02*
X119568704Y-137681428D01*
X119568704Y-137681428D02*
X119492514Y-137719523D01*
X119492514Y-137719523D02*
X119340133Y-137757619D01*
X119340133Y-137757619D02*
X119149657Y-137757619D01*
X119149657Y-137757619D02*
X118997276Y-137719523D01*
X118997276Y-137719523D02*
X118921085Y-137681428D01*
X118921085Y-137681428D02*
X118882990Y-137643333D01*
X118882990Y-137643333D02*
X118844895Y-137567142D01*
X126614895Y-117793332D02*
X126233942Y-118059999D01*
X126614895Y-118250475D02*
X125814895Y-118250475D01*
X125814895Y-118250475D02*
X125814895Y-117945713D01*
X125814895Y-117945713D02*
X125852990Y-117869523D01*
X125852990Y-117869523D02*
X125891085Y-117831428D01*
X125891085Y-117831428D02*
X125967276Y-117793332D01*
X125967276Y-117793332D02*
X126081561Y-117793332D01*
X126081561Y-117793332D02*
X126157752Y-117831428D01*
X126157752Y-117831428D02*
X126195847Y-117869523D01*
X126195847Y-117869523D02*
X126233942Y-117945713D01*
X126233942Y-117945713D02*
X126233942Y-118250475D01*
X126614895Y-117412380D02*
X126614895Y-117259999D01*
X126614895Y-117259999D02*
X126576800Y-117183809D01*
X126576800Y-117183809D02*
X126538704Y-117145713D01*
X126538704Y-117145713D02*
X126424419Y-117069523D01*
X126424419Y-117069523D02*
X126272038Y-117031428D01*
X126272038Y-117031428D02*
X125967276Y-117031428D01*
X125967276Y-117031428D02*
X125891085Y-117069523D01*
X125891085Y-117069523D02*
X125852990Y-117107618D01*
X125852990Y-117107618D02*
X125814895Y-117183809D01*
X125814895Y-117183809D02*
X125814895Y-117336190D01*
X125814895Y-117336190D02*
X125852990Y-117412380D01*
X125852990Y-117412380D02*
X125891085Y-117450475D01*
X125891085Y-117450475D02*
X125967276Y-117488571D01*
X125967276Y-117488571D02*
X126157752Y-117488571D01*
X126157752Y-117488571D02*
X126233942Y-117450475D01*
X126233942Y-117450475D02*
X126272038Y-117412380D01*
X126272038Y-117412380D02*
X126310133Y-117336190D01*
X126310133Y-117336190D02*
X126310133Y-117183809D01*
X126310133Y-117183809D02*
X126272038Y-117107618D01*
X126272038Y-117107618D02*
X126233942Y-117069523D01*
X126233942Y-117069523D02*
X126157752Y-117031428D01*
X123298704Y-118934285D02*
X123336800Y-118972381D01*
X123336800Y-118972381D02*
X123374895Y-119086666D01*
X123374895Y-119086666D02*
X123374895Y-119162857D01*
X123374895Y-119162857D02*
X123336800Y-119277143D01*
X123336800Y-119277143D02*
X123260609Y-119353333D01*
X123260609Y-119353333D02*
X123184419Y-119391428D01*
X123184419Y-119391428D02*
X123032038Y-119429524D01*
X123032038Y-119429524D02*
X122917752Y-119429524D01*
X122917752Y-119429524D02*
X122765371Y-119391428D01*
X122765371Y-119391428D02*
X122689180Y-119353333D01*
X122689180Y-119353333D02*
X122612990Y-119277143D01*
X122612990Y-119277143D02*
X122574895Y-119162857D01*
X122574895Y-119162857D02*
X122574895Y-119086666D01*
X122574895Y-119086666D02*
X122612990Y-118972381D01*
X122612990Y-118972381D02*
X122651085Y-118934285D01*
X123374895Y-118172381D02*
X123374895Y-118629524D01*
X123374895Y-118400952D02*
X122574895Y-118400952D01*
X122574895Y-118400952D02*
X122689180Y-118477143D01*
X122689180Y-118477143D02*
X122765371Y-118553333D01*
X122765371Y-118553333D02*
X122803466Y-118629524D01*
X122574895Y-117677142D02*
X122574895Y-117600952D01*
X122574895Y-117600952D02*
X122612990Y-117524761D01*
X122612990Y-117524761D02*
X122651085Y-117486666D01*
X122651085Y-117486666D02*
X122727276Y-117448571D01*
X122727276Y-117448571D02*
X122879657Y-117410476D01*
X122879657Y-117410476D02*
X123070133Y-117410476D01*
X123070133Y-117410476D02*
X123222514Y-117448571D01*
X123222514Y-117448571D02*
X123298704Y-117486666D01*
X123298704Y-117486666D02*
X123336800Y-117524761D01*
X123336800Y-117524761D02*
X123374895Y-117600952D01*
X123374895Y-117600952D02*
X123374895Y-117677142D01*
X123374895Y-117677142D02*
X123336800Y-117753333D01*
X123336800Y-117753333D02*
X123298704Y-117791428D01*
X123298704Y-117791428D02*
X123222514Y-117829523D01*
X123222514Y-117829523D02*
X123070133Y-117867619D01*
X123070133Y-117867619D02*
X122879657Y-117867619D01*
X122879657Y-117867619D02*
X122727276Y-117829523D01*
X122727276Y-117829523D02*
X122651085Y-117791428D01*
X122651085Y-117791428D02*
X122612990Y-117753333D01*
X122612990Y-117753333D02*
X122574895Y-117677142D01*
X122440476Y-122614895D02*
X122440476Y-123262514D01*
X122440476Y-123262514D02*
X122478571Y-123338704D01*
X122478571Y-123338704D02*
X122516666Y-123376800D01*
X122516666Y-123376800D02*
X122592857Y-123414895D01*
X122592857Y-123414895D02*
X122745238Y-123414895D01*
X122745238Y-123414895D02*
X122821428Y-123376800D01*
X122821428Y-123376800D02*
X122859523Y-123338704D01*
X122859523Y-123338704D02*
X122897619Y-123262514D01*
X122897619Y-123262514D02*
X122897619Y-122614895D01*
X123202380Y-122614895D02*
X123735714Y-122614895D01*
X123735714Y-122614895D02*
X123392856Y-123414895D01*
X160010476Y-129944895D02*
X160010476Y-130592514D01*
X160010476Y-130592514D02*
X160048571Y-130668704D01*
X160048571Y-130668704D02*
X160086666Y-130706800D01*
X160086666Y-130706800D02*
X160162857Y-130744895D01*
X160162857Y-130744895D02*
X160315238Y-130744895D01*
X160315238Y-130744895D02*
X160391428Y-130706800D01*
X160391428Y-130706800D02*
X160429523Y-130668704D01*
X160429523Y-130668704D02*
X160467619Y-130592514D01*
X160467619Y-130592514D02*
X160467619Y-129944895D01*
X161191428Y-129944895D02*
X161039047Y-129944895D01*
X161039047Y-129944895D02*
X160962856Y-129982990D01*
X160962856Y-129982990D02*
X160924761Y-130021085D01*
X160924761Y-130021085D02*
X160848571Y-130135371D01*
X160848571Y-130135371D02*
X160810475Y-130287752D01*
X160810475Y-130287752D02*
X160810475Y-130592514D01*
X160810475Y-130592514D02*
X160848571Y-130668704D01*
X160848571Y-130668704D02*
X160886666Y-130706800D01*
X160886666Y-130706800D02*
X160962856Y-130744895D01*
X160962856Y-130744895D02*
X161115237Y-130744895D01*
X161115237Y-130744895D02*
X161191428Y-130706800D01*
X161191428Y-130706800D02*
X161229523Y-130668704D01*
X161229523Y-130668704D02*
X161267618Y-130592514D01*
X161267618Y-130592514D02*
X161267618Y-130402038D01*
X161267618Y-130402038D02*
X161229523Y-130325847D01*
X161229523Y-130325847D02*
X161191428Y-130287752D01*
X161191428Y-130287752D02*
X161115237Y-130249657D01*
X161115237Y-130249657D02*
X160962856Y-130249657D01*
X160962856Y-130249657D02*
X160886666Y-130287752D01*
X160886666Y-130287752D02*
X160848571Y-130325847D01*
X160848571Y-130325847D02*
X160810475Y-130402038D01*
X125449048Y-134383942D02*
X125449048Y-134764895D01*
X125182381Y-133964895D02*
X125449048Y-134383942D01*
X125449048Y-134383942D02*
X125715714Y-133964895D01*
X126401428Y-134764895D02*
X125944285Y-134764895D01*
X126172857Y-134764895D02*
X126172857Y-133964895D01*
X126172857Y-133964895D02*
X126096666Y-134079180D01*
X126096666Y-134079180D02*
X126020476Y-134155371D01*
X126020476Y-134155371D02*
X125944285Y-134193466D01*
X148480476Y-125774895D02*
X148480476Y-126422514D01*
X148480476Y-126422514D02*
X148518571Y-126498704D01*
X148518571Y-126498704D02*
X148556666Y-126536800D01*
X148556666Y-126536800D02*
X148632857Y-126574895D01*
X148632857Y-126574895D02*
X148785238Y-126574895D01*
X148785238Y-126574895D02*
X148861428Y-126536800D01*
X148861428Y-126536800D02*
X148899523Y-126498704D01*
X148899523Y-126498704D02*
X148937619Y-126422514D01*
X148937619Y-126422514D02*
X148937619Y-125774895D01*
X149661428Y-126041561D02*
X149661428Y-126574895D01*
X149470952Y-125736800D02*
X149280475Y-126308228D01*
X149280475Y-126308228D02*
X149775714Y-126308228D01*
X148730476Y-134634895D02*
X148730476Y-135282514D01*
X148730476Y-135282514D02*
X148768571Y-135358704D01*
X148768571Y-135358704D02*
X148806666Y-135396800D01*
X148806666Y-135396800D02*
X148882857Y-135434895D01*
X148882857Y-135434895D02*
X149035238Y-135434895D01*
X149035238Y-135434895D02*
X149111428Y-135396800D01*
X149111428Y-135396800D02*
X149149523Y-135358704D01*
X149149523Y-135358704D02*
X149187619Y-135282514D01*
X149187619Y-135282514D02*
X149187619Y-134634895D01*
X149530475Y-134711085D02*
X149568571Y-134672990D01*
X149568571Y-134672990D02*
X149644761Y-134634895D01*
X149644761Y-134634895D02*
X149835237Y-134634895D01*
X149835237Y-134634895D02*
X149911428Y-134672990D01*
X149911428Y-134672990D02*
X149949523Y-134711085D01*
X149949523Y-134711085D02*
X149987618Y-134787276D01*
X149987618Y-134787276D02*
X149987618Y-134863466D01*
X149987618Y-134863466D02*
X149949523Y-134977752D01*
X149949523Y-134977752D02*
X149492380Y-135434895D01*
X149492380Y-135434895D02*
X149987618Y-135434895D01*
X152286667Y-130154895D02*
X152020000Y-129773942D01*
X151829524Y-130154895D02*
X151829524Y-129354895D01*
X151829524Y-129354895D02*
X152134286Y-129354895D01*
X152134286Y-129354895D02*
X152210476Y-129392990D01*
X152210476Y-129392990D02*
X152248571Y-129431085D01*
X152248571Y-129431085D02*
X152286667Y-129507276D01*
X152286667Y-129507276D02*
X152286667Y-129621561D01*
X152286667Y-129621561D02*
X152248571Y-129697752D01*
X152248571Y-129697752D02*
X152210476Y-129735847D01*
X152210476Y-129735847D02*
X152134286Y-129773942D01*
X152134286Y-129773942D02*
X151829524Y-129773942D01*
X152591428Y-129431085D02*
X152629524Y-129392990D01*
X152629524Y-129392990D02*
X152705714Y-129354895D01*
X152705714Y-129354895D02*
X152896190Y-129354895D01*
X152896190Y-129354895D02*
X152972381Y-129392990D01*
X152972381Y-129392990D02*
X153010476Y-129431085D01*
X153010476Y-129431085D02*
X153048571Y-129507276D01*
X153048571Y-129507276D02*
X153048571Y-129583466D01*
X153048571Y-129583466D02*
X153010476Y-129697752D01*
X153010476Y-129697752D02*
X152553333Y-130154895D01*
X152553333Y-130154895D02*
X153048571Y-130154895D01*
X153776667Y-122694895D02*
X153510000Y-122313942D01*
X153319524Y-122694895D02*
X153319524Y-121894895D01*
X153319524Y-121894895D02*
X153624286Y-121894895D01*
X153624286Y-121894895D02*
X153700476Y-121932990D01*
X153700476Y-121932990D02*
X153738571Y-121971085D01*
X153738571Y-121971085D02*
X153776667Y-122047276D01*
X153776667Y-122047276D02*
X153776667Y-122161561D01*
X153776667Y-122161561D02*
X153738571Y-122237752D01*
X153738571Y-122237752D02*
X153700476Y-122275847D01*
X153700476Y-122275847D02*
X153624286Y-122313942D01*
X153624286Y-122313942D02*
X153319524Y-122313942D01*
X154538571Y-122694895D02*
X154081428Y-122694895D01*
X154310000Y-122694895D02*
X154310000Y-121894895D01*
X154310000Y-121894895D02*
X154233809Y-122009180D01*
X154233809Y-122009180D02*
X154157619Y-122085371D01*
X154157619Y-122085371D02*
X154081428Y-122123466D01*
X128573704Y-133673832D02*
X128611800Y-133711928D01*
X128611800Y-133711928D02*
X128649895Y-133826213D01*
X128649895Y-133826213D02*
X128649895Y-133902404D01*
X128649895Y-133902404D02*
X128611800Y-134016690D01*
X128611800Y-134016690D02*
X128535609Y-134092880D01*
X128535609Y-134092880D02*
X128459419Y-134130975D01*
X128459419Y-134130975D02*
X128307038Y-134169071D01*
X128307038Y-134169071D02*
X128192752Y-134169071D01*
X128192752Y-134169071D02*
X128040371Y-134130975D01*
X128040371Y-134130975D02*
X127964180Y-134092880D01*
X127964180Y-134092880D02*
X127887990Y-134016690D01*
X127887990Y-134016690D02*
X127849895Y-133902404D01*
X127849895Y-133902404D02*
X127849895Y-133826213D01*
X127849895Y-133826213D02*
X127887990Y-133711928D01*
X127887990Y-133711928D02*
X127926085Y-133673832D01*
X128649895Y-132911928D02*
X128649895Y-133369071D01*
X128649895Y-133140499D02*
X127849895Y-133140499D01*
X127849895Y-133140499D02*
X127964180Y-133216690D01*
X127964180Y-133216690D02*
X128040371Y-133292880D01*
X128040371Y-133292880D02*
X128078466Y-133369071D01*
X128548704Y-137198832D02*
X128586800Y-137236928D01*
X128586800Y-137236928D02*
X128624895Y-137351213D01*
X128624895Y-137351213D02*
X128624895Y-137427404D01*
X128624895Y-137427404D02*
X128586800Y-137541690D01*
X128586800Y-137541690D02*
X128510609Y-137617880D01*
X128510609Y-137617880D02*
X128434419Y-137655975D01*
X128434419Y-137655975D02*
X128282038Y-137694071D01*
X128282038Y-137694071D02*
X128167752Y-137694071D01*
X128167752Y-137694071D02*
X128015371Y-137655975D01*
X128015371Y-137655975D02*
X127939180Y-137617880D01*
X127939180Y-137617880D02*
X127862990Y-137541690D01*
X127862990Y-137541690D02*
X127824895Y-137427404D01*
X127824895Y-137427404D02*
X127824895Y-137351213D01*
X127824895Y-137351213D02*
X127862990Y-137236928D01*
X127862990Y-137236928D02*
X127901085Y-137198832D01*
X127901085Y-136894071D02*
X127862990Y-136855975D01*
X127862990Y-136855975D02*
X127824895Y-136779785D01*
X127824895Y-136779785D02*
X127824895Y-136589309D01*
X127824895Y-136589309D02*
X127862990Y-136513118D01*
X127862990Y-136513118D02*
X127901085Y-136475023D01*
X127901085Y-136475023D02*
X127977276Y-136436928D01*
X127977276Y-136436928D02*
X128053466Y-136436928D01*
X128053466Y-136436928D02*
X128167752Y-136475023D01*
X128167752Y-136475023D02*
X128624895Y-136932166D01*
X128624895Y-136932166D02*
X128624895Y-136436928D01*
X170908704Y-122113332D02*
X170946800Y-122151428D01*
X170946800Y-122151428D02*
X170984895Y-122265713D01*
X170984895Y-122265713D02*
X170984895Y-122341904D01*
X170984895Y-122341904D02*
X170946800Y-122456190D01*
X170946800Y-122456190D02*
X170870609Y-122532380D01*
X170870609Y-122532380D02*
X170794419Y-122570475D01*
X170794419Y-122570475D02*
X170642038Y-122608571D01*
X170642038Y-122608571D02*
X170527752Y-122608571D01*
X170527752Y-122608571D02*
X170375371Y-122570475D01*
X170375371Y-122570475D02*
X170299180Y-122532380D01*
X170299180Y-122532380D02*
X170222990Y-122456190D01*
X170222990Y-122456190D02*
X170184895Y-122341904D01*
X170184895Y-122341904D02*
X170184895Y-122265713D01*
X170184895Y-122265713D02*
X170222990Y-122151428D01*
X170222990Y-122151428D02*
X170261085Y-122113332D01*
X170184895Y-121846666D02*
X170184895Y-121351428D01*
X170184895Y-121351428D02*
X170489657Y-121618094D01*
X170489657Y-121618094D02*
X170489657Y-121503809D01*
X170489657Y-121503809D02*
X170527752Y-121427618D01*
X170527752Y-121427618D02*
X170565847Y-121389523D01*
X170565847Y-121389523D02*
X170642038Y-121351428D01*
X170642038Y-121351428D02*
X170832514Y-121351428D01*
X170832514Y-121351428D02*
X170908704Y-121389523D01*
X170908704Y-121389523D02*
X170946800Y-121427618D01*
X170946800Y-121427618D02*
X170984895Y-121503809D01*
X170984895Y-121503809D02*
X170984895Y-121732380D01*
X170984895Y-121732380D02*
X170946800Y-121808571D01*
X170946800Y-121808571D02*
X170908704Y-121846666D01*
X160191667Y-118763704D02*
X160153571Y-118801800D01*
X160153571Y-118801800D02*
X160039286Y-118839895D01*
X160039286Y-118839895D02*
X159963095Y-118839895D01*
X159963095Y-118839895D02*
X159848809Y-118801800D01*
X159848809Y-118801800D02*
X159772619Y-118725609D01*
X159772619Y-118725609D02*
X159734524Y-118649419D01*
X159734524Y-118649419D02*
X159696428Y-118497038D01*
X159696428Y-118497038D02*
X159696428Y-118382752D01*
X159696428Y-118382752D02*
X159734524Y-118230371D01*
X159734524Y-118230371D02*
X159772619Y-118154180D01*
X159772619Y-118154180D02*
X159848809Y-118077990D01*
X159848809Y-118077990D02*
X159963095Y-118039895D01*
X159963095Y-118039895D02*
X160039286Y-118039895D01*
X160039286Y-118039895D02*
X160153571Y-118077990D01*
X160153571Y-118077990D02*
X160191667Y-118116085D01*
X160877381Y-118306561D02*
X160877381Y-118839895D01*
X160686905Y-118001800D02*
X160496428Y-118573228D01*
X160496428Y-118573228D02*
X160991667Y-118573228D01*
X148826667Y-130078704D02*
X148788571Y-130116800D01*
X148788571Y-130116800D02*
X148674286Y-130154895D01*
X148674286Y-130154895D02*
X148598095Y-130154895D01*
X148598095Y-130154895D02*
X148483809Y-130116800D01*
X148483809Y-130116800D02*
X148407619Y-130040609D01*
X148407619Y-130040609D02*
X148369524Y-129964419D01*
X148369524Y-129964419D02*
X148331428Y-129812038D01*
X148331428Y-129812038D02*
X148331428Y-129697752D01*
X148331428Y-129697752D02*
X148369524Y-129545371D01*
X148369524Y-129545371D02*
X148407619Y-129469180D01*
X148407619Y-129469180D02*
X148483809Y-129392990D01*
X148483809Y-129392990D02*
X148598095Y-129354895D01*
X148598095Y-129354895D02*
X148674286Y-129354895D01*
X148674286Y-129354895D02*
X148788571Y-129392990D01*
X148788571Y-129392990D02*
X148826667Y-129431085D01*
X149550476Y-129354895D02*
X149169524Y-129354895D01*
X149169524Y-129354895D02*
X149131428Y-129735847D01*
X149131428Y-129735847D02*
X149169524Y-129697752D01*
X149169524Y-129697752D02*
X149245714Y-129659657D01*
X149245714Y-129659657D02*
X149436190Y-129659657D01*
X149436190Y-129659657D02*
X149512381Y-129697752D01*
X149512381Y-129697752D02*
X149550476Y-129735847D01*
X149550476Y-129735847D02*
X149588571Y-129812038D01*
X149588571Y-129812038D02*
X149588571Y-130002514D01*
X149588571Y-130002514D02*
X149550476Y-130078704D01*
X149550476Y-130078704D02*
X149512381Y-130116800D01*
X149512381Y-130116800D02*
X149436190Y-130154895D01*
X149436190Y-130154895D02*
X149245714Y-130154895D01*
X149245714Y-130154895D02*
X149169524Y-130116800D01*
X149169524Y-130116800D02*
X149131428Y-130078704D01*
X155426667Y-118773704D02*
X155388571Y-118811800D01*
X155388571Y-118811800D02*
X155274286Y-118849895D01*
X155274286Y-118849895D02*
X155198095Y-118849895D01*
X155198095Y-118849895D02*
X155083809Y-118811800D01*
X155083809Y-118811800D02*
X155007619Y-118735609D01*
X155007619Y-118735609D02*
X154969524Y-118659419D01*
X154969524Y-118659419D02*
X154931428Y-118507038D01*
X154931428Y-118507038D02*
X154931428Y-118392752D01*
X154931428Y-118392752D02*
X154969524Y-118240371D01*
X154969524Y-118240371D02*
X155007619Y-118164180D01*
X155007619Y-118164180D02*
X155083809Y-118087990D01*
X155083809Y-118087990D02*
X155198095Y-118049895D01*
X155198095Y-118049895D02*
X155274286Y-118049895D01*
X155274286Y-118049895D02*
X155388571Y-118087990D01*
X155388571Y-118087990D02*
X155426667Y-118126085D01*
X156112381Y-118049895D02*
X155960000Y-118049895D01*
X155960000Y-118049895D02*
X155883809Y-118087990D01*
X155883809Y-118087990D02*
X155845714Y-118126085D01*
X155845714Y-118126085D02*
X155769524Y-118240371D01*
X155769524Y-118240371D02*
X155731428Y-118392752D01*
X155731428Y-118392752D02*
X155731428Y-118697514D01*
X155731428Y-118697514D02*
X155769524Y-118773704D01*
X155769524Y-118773704D02*
X155807619Y-118811800D01*
X155807619Y-118811800D02*
X155883809Y-118849895D01*
X155883809Y-118849895D02*
X156036190Y-118849895D01*
X156036190Y-118849895D02*
X156112381Y-118811800D01*
X156112381Y-118811800D02*
X156150476Y-118773704D01*
X156150476Y-118773704D02*
X156188571Y-118697514D01*
X156188571Y-118697514D02*
X156188571Y-118507038D01*
X156188571Y-118507038D02*
X156150476Y-118430847D01*
X156150476Y-118430847D02*
X156112381Y-118392752D01*
X156112381Y-118392752D02*
X156036190Y-118354657D01*
X156036190Y-118354657D02*
X155883809Y-118354657D01*
X155883809Y-118354657D02*
X155807619Y-118392752D01*
X155807619Y-118392752D02*
X155769524Y-118430847D01*
X155769524Y-118430847D02*
X155731428Y-118507038D01*
X157916667Y-118763704D02*
X157878571Y-118801800D01*
X157878571Y-118801800D02*
X157764286Y-118839895D01*
X157764286Y-118839895D02*
X157688095Y-118839895D01*
X157688095Y-118839895D02*
X157573809Y-118801800D01*
X157573809Y-118801800D02*
X157497619Y-118725609D01*
X157497619Y-118725609D02*
X157459524Y-118649419D01*
X157459524Y-118649419D02*
X157421428Y-118497038D01*
X157421428Y-118497038D02*
X157421428Y-118382752D01*
X157421428Y-118382752D02*
X157459524Y-118230371D01*
X157459524Y-118230371D02*
X157497619Y-118154180D01*
X157497619Y-118154180D02*
X157573809Y-118077990D01*
X157573809Y-118077990D02*
X157688095Y-118039895D01*
X157688095Y-118039895D02*
X157764286Y-118039895D01*
X157764286Y-118039895D02*
X157878571Y-118077990D01*
X157878571Y-118077990D02*
X157916667Y-118116085D01*
X158183333Y-118039895D02*
X158716667Y-118039895D01*
X158716667Y-118039895D02*
X158373809Y-118839895D01*
X150206667Y-122458704D02*
X150168571Y-122496800D01*
X150168571Y-122496800D02*
X150054286Y-122534895D01*
X150054286Y-122534895D02*
X149978095Y-122534895D01*
X149978095Y-122534895D02*
X149863809Y-122496800D01*
X149863809Y-122496800D02*
X149787619Y-122420609D01*
X149787619Y-122420609D02*
X149749524Y-122344419D01*
X149749524Y-122344419D02*
X149711428Y-122192038D01*
X149711428Y-122192038D02*
X149711428Y-122077752D01*
X149711428Y-122077752D02*
X149749524Y-121925371D01*
X149749524Y-121925371D02*
X149787619Y-121849180D01*
X149787619Y-121849180D02*
X149863809Y-121772990D01*
X149863809Y-121772990D02*
X149978095Y-121734895D01*
X149978095Y-121734895D02*
X150054286Y-121734895D01*
X150054286Y-121734895D02*
X150168571Y-121772990D01*
X150168571Y-121772990D02*
X150206667Y-121811085D01*
X150663809Y-122077752D02*
X150587619Y-122039657D01*
X150587619Y-122039657D02*
X150549524Y-122001561D01*
X150549524Y-122001561D02*
X150511428Y-121925371D01*
X150511428Y-121925371D02*
X150511428Y-121887276D01*
X150511428Y-121887276D02*
X150549524Y-121811085D01*
X150549524Y-121811085D02*
X150587619Y-121772990D01*
X150587619Y-121772990D02*
X150663809Y-121734895D01*
X150663809Y-121734895D02*
X150816190Y-121734895D01*
X150816190Y-121734895D02*
X150892381Y-121772990D01*
X150892381Y-121772990D02*
X150930476Y-121811085D01*
X150930476Y-121811085D02*
X150968571Y-121887276D01*
X150968571Y-121887276D02*
X150968571Y-121925371D01*
X150968571Y-121925371D02*
X150930476Y-122001561D01*
X150930476Y-122001561D02*
X150892381Y-122039657D01*
X150892381Y-122039657D02*
X150816190Y-122077752D01*
X150816190Y-122077752D02*
X150663809Y-122077752D01*
X150663809Y-122077752D02*
X150587619Y-122115847D01*
X150587619Y-122115847D02*
X150549524Y-122153942D01*
X150549524Y-122153942D02*
X150511428Y-122230133D01*
X150511428Y-122230133D02*
X150511428Y-122382514D01*
X150511428Y-122382514D02*
X150549524Y-122458704D01*
X150549524Y-122458704D02*
X150587619Y-122496800D01*
X150587619Y-122496800D02*
X150663809Y-122534895D01*
X150663809Y-122534895D02*
X150816190Y-122534895D01*
X150816190Y-122534895D02*
X150892381Y-122496800D01*
X150892381Y-122496800D02*
X150930476Y-122458704D01*
X150930476Y-122458704D02*
X150968571Y-122382514D01*
X150968571Y-122382514D02*
X150968571Y-122230133D01*
X150968571Y-122230133D02*
X150930476Y-122153942D01*
X150930476Y-122153942D02*
X150892381Y-122115847D01*
X150892381Y-122115847D02*
X150816190Y-122077752D01*
X155539895Y-135483332D02*
X155158942Y-135749999D01*
X155539895Y-135940475D02*
X154739895Y-135940475D01*
X154739895Y-135940475D02*
X154739895Y-135635713D01*
X154739895Y-135635713D02*
X154777990Y-135559523D01*
X154777990Y-135559523D02*
X154816085Y-135521428D01*
X154816085Y-135521428D02*
X154892276Y-135483332D01*
X154892276Y-135483332D02*
X155006561Y-135483332D01*
X155006561Y-135483332D02*
X155082752Y-135521428D01*
X155082752Y-135521428D02*
X155120847Y-135559523D01*
X155120847Y-135559523D02*
X155158942Y-135635713D01*
X155158942Y-135635713D02*
X155158942Y-135940475D01*
X154739895Y-135216666D02*
X154739895Y-134721428D01*
X154739895Y-134721428D02*
X155044657Y-134988094D01*
X155044657Y-134988094D02*
X155044657Y-134873809D01*
X155044657Y-134873809D02*
X155082752Y-134797618D01*
X155082752Y-134797618D02*
X155120847Y-134759523D01*
X155120847Y-134759523D02*
X155197038Y-134721428D01*
X155197038Y-134721428D02*
X155387514Y-134721428D01*
X155387514Y-134721428D02*
X155463704Y-134759523D01*
X155463704Y-134759523D02*
X155501800Y-134797618D01*
X155501800Y-134797618D02*
X155539895Y-134873809D01*
X155539895Y-134873809D02*
X155539895Y-135102380D01*
X155539895Y-135102380D02*
X155501800Y-135178571D01*
X155501800Y-135178571D02*
X155463704Y-135216666D01*
X155539895Y-126233332D02*
X155158942Y-126499999D01*
X155539895Y-126690475D02*
X154739895Y-126690475D01*
X154739895Y-126690475D02*
X154739895Y-126385713D01*
X154739895Y-126385713D02*
X154777990Y-126309523D01*
X154777990Y-126309523D02*
X154816085Y-126271428D01*
X154816085Y-126271428D02*
X154892276Y-126233332D01*
X154892276Y-126233332D02*
X155006561Y-126233332D01*
X155006561Y-126233332D02*
X155082752Y-126271428D01*
X155082752Y-126271428D02*
X155120847Y-126309523D01*
X155120847Y-126309523D02*
X155158942Y-126385713D01*
X155158942Y-126385713D02*
X155158942Y-126690475D01*
X155006561Y-125547618D02*
X155539895Y-125547618D01*
X154701800Y-125738094D02*
X155273228Y-125928571D01*
X155273228Y-125928571D02*
X155273228Y-125433332D01*
X131816667Y-119487395D02*
X131550000Y-119106442D01*
X131359524Y-119487395D02*
X131359524Y-118687395D01*
X131359524Y-118687395D02*
X131664286Y-118687395D01*
X131664286Y-118687395D02*
X131740476Y-118725490D01*
X131740476Y-118725490D02*
X131778571Y-118763585D01*
X131778571Y-118763585D02*
X131816667Y-118839776D01*
X131816667Y-118839776D02*
X131816667Y-118954061D01*
X131816667Y-118954061D02*
X131778571Y-119030252D01*
X131778571Y-119030252D02*
X131740476Y-119068347D01*
X131740476Y-119068347D02*
X131664286Y-119106442D01*
X131664286Y-119106442D02*
X131359524Y-119106442D01*
X132083333Y-118687395D02*
X132616667Y-118687395D01*
X132616667Y-118687395D02*
X132273809Y-119487395D01*
X135491667Y-119487395D02*
X135225000Y-119106442D01*
X135034524Y-119487395D02*
X135034524Y-118687395D01*
X135034524Y-118687395D02*
X135339286Y-118687395D01*
X135339286Y-118687395D02*
X135415476Y-118725490D01*
X135415476Y-118725490D02*
X135453571Y-118763585D01*
X135453571Y-118763585D02*
X135491667Y-118839776D01*
X135491667Y-118839776D02*
X135491667Y-118954061D01*
X135491667Y-118954061D02*
X135453571Y-119030252D01*
X135453571Y-119030252D02*
X135415476Y-119068347D01*
X135415476Y-119068347D02*
X135339286Y-119106442D01*
X135339286Y-119106442D02*
X135034524Y-119106442D01*
X135948809Y-119030252D02*
X135872619Y-118992157D01*
X135872619Y-118992157D02*
X135834524Y-118954061D01*
X135834524Y-118954061D02*
X135796428Y-118877871D01*
X135796428Y-118877871D02*
X135796428Y-118839776D01*
X135796428Y-118839776D02*
X135834524Y-118763585D01*
X135834524Y-118763585D02*
X135872619Y-118725490D01*
X135872619Y-118725490D02*
X135948809Y-118687395D01*
X135948809Y-118687395D02*
X136101190Y-118687395D01*
X136101190Y-118687395D02*
X136177381Y-118725490D01*
X136177381Y-118725490D02*
X136215476Y-118763585D01*
X136215476Y-118763585D02*
X136253571Y-118839776D01*
X136253571Y-118839776D02*
X136253571Y-118877871D01*
X136253571Y-118877871D02*
X136215476Y-118954061D01*
X136215476Y-118954061D02*
X136177381Y-118992157D01*
X136177381Y-118992157D02*
X136101190Y-119030252D01*
X136101190Y-119030252D02*
X135948809Y-119030252D01*
X135948809Y-119030252D02*
X135872619Y-119068347D01*
X135872619Y-119068347D02*
X135834524Y-119106442D01*
X135834524Y-119106442D02*
X135796428Y-119182633D01*
X135796428Y-119182633D02*
X135796428Y-119335014D01*
X135796428Y-119335014D02*
X135834524Y-119411204D01*
X135834524Y-119411204D02*
X135872619Y-119449300D01*
X135872619Y-119449300D02*
X135948809Y-119487395D01*
X135948809Y-119487395D02*
X136101190Y-119487395D01*
X136101190Y-119487395D02*
X136177381Y-119449300D01*
X136177381Y-119449300D02*
X136215476Y-119411204D01*
X136215476Y-119411204D02*
X136253571Y-119335014D01*
X136253571Y-119335014D02*
X136253571Y-119182633D01*
X136253571Y-119182633D02*
X136215476Y-119106442D01*
X136215476Y-119106442D02*
X136177381Y-119068347D01*
X136177381Y-119068347D02*
X136101190Y-119030252D01*
X135310714Y-127537395D02*
X135044047Y-127156442D01*
X134853571Y-127537395D02*
X134853571Y-126737395D01*
X134853571Y-126737395D02*
X135158333Y-126737395D01*
X135158333Y-126737395D02*
X135234523Y-126775490D01*
X135234523Y-126775490D02*
X135272618Y-126813585D01*
X135272618Y-126813585D02*
X135310714Y-126889776D01*
X135310714Y-126889776D02*
X135310714Y-127004061D01*
X135310714Y-127004061D02*
X135272618Y-127080252D01*
X135272618Y-127080252D02*
X135234523Y-127118347D01*
X135234523Y-127118347D02*
X135158333Y-127156442D01*
X135158333Y-127156442D02*
X134853571Y-127156442D01*
X136072618Y-127537395D02*
X135615475Y-127537395D01*
X135844047Y-127537395D02*
X135844047Y-126737395D01*
X135844047Y-126737395D02*
X135767856Y-126851680D01*
X135767856Y-126851680D02*
X135691666Y-126927871D01*
X135691666Y-126927871D02*
X135615475Y-126965966D01*
X136377380Y-126813585D02*
X136415476Y-126775490D01*
X136415476Y-126775490D02*
X136491666Y-126737395D01*
X136491666Y-126737395D02*
X136682142Y-126737395D01*
X136682142Y-126737395D02*
X136758333Y-126775490D01*
X136758333Y-126775490D02*
X136796428Y-126813585D01*
X136796428Y-126813585D02*
X136834523Y-126889776D01*
X136834523Y-126889776D02*
X136834523Y-126965966D01*
X136834523Y-126965966D02*
X136796428Y-127080252D01*
X136796428Y-127080252D02*
X136339285Y-127537395D01*
X136339285Y-127537395D02*
X136834523Y-127537395D01*
X138760714Y-119487395D02*
X138494047Y-119106442D01*
X138303571Y-119487395D02*
X138303571Y-118687395D01*
X138303571Y-118687395D02*
X138608333Y-118687395D01*
X138608333Y-118687395D02*
X138684523Y-118725490D01*
X138684523Y-118725490D02*
X138722618Y-118763585D01*
X138722618Y-118763585D02*
X138760714Y-118839776D01*
X138760714Y-118839776D02*
X138760714Y-118954061D01*
X138760714Y-118954061D02*
X138722618Y-119030252D01*
X138722618Y-119030252D02*
X138684523Y-119068347D01*
X138684523Y-119068347D02*
X138608333Y-119106442D01*
X138608333Y-119106442D02*
X138303571Y-119106442D01*
X139522618Y-119487395D02*
X139065475Y-119487395D01*
X139294047Y-119487395D02*
X139294047Y-118687395D01*
X139294047Y-118687395D02*
X139217856Y-118801680D01*
X139217856Y-118801680D02*
X139141666Y-118877871D01*
X139141666Y-118877871D02*
X139065475Y-118915966D01*
X139789285Y-118687395D02*
X140284523Y-118687395D01*
X140284523Y-118687395D02*
X140017857Y-118992157D01*
X140017857Y-118992157D02*
X140132142Y-118992157D01*
X140132142Y-118992157D02*
X140208333Y-119030252D01*
X140208333Y-119030252D02*
X140246428Y-119068347D01*
X140246428Y-119068347D02*
X140284523Y-119144538D01*
X140284523Y-119144538D02*
X140284523Y-119335014D01*
X140284523Y-119335014D02*
X140246428Y-119411204D01*
X140246428Y-119411204D02*
X140208333Y-119449300D01*
X140208333Y-119449300D02*
X140132142Y-119487395D01*
X140132142Y-119487395D02*
X139903571Y-119487395D01*
X139903571Y-119487395D02*
X139827380Y-119449300D01*
X139827380Y-119449300D02*
X139789285Y-119411204D01*
X142385714Y-119487395D02*
X142119047Y-119106442D01*
X141928571Y-119487395D02*
X141928571Y-118687395D01*
X141928571Y-118687395D02*
X142233333Y-118687395D01*
X142233333Y-118687395D02*
X142309523Y-118725490D01*
X142309523Y-118725490D02*
X142347618Y-118763585D01*
X142347618Y-118763585D02*
X142385714Y-118839776D01*
X142385714Y-118839776D02*
X142385714Y-118954061D01*
X142385714Y-118954061D02*
X142347618Y-119030252D01*
X142347618Y-119030252D02*
X142309523Y-119068347D01*
X142309523Y-119068347D02*
X142233333Y-119106442D01*
X142233333Y-119106442D02*
X141928571Y-119106442D01*
X143147618Y-119487395D02*
X142690475Y-119487395D01*
X142919047Y-119487395D02*
X142919047Y-118687395D01*
X142919047Y-118687395D02*
X142842856Y-118801680D01*
X142842856Y-118801680D02*
X142766666Y-118877871D01*
X142766666Y-118877871D02*
X142690475Y-118915966D01*
X143833333Y-118954061D02*
X143833333Y-119487395D01*
X143642857Y-118649300D02*
X143452380Y-119220728D01*
X143452380Y-119220728D02*
X143947619Y-119220728D01*
X138760714Y-127537395D02*
X138494047Y-127156442D01*
X138303571Y-127537395D02*
X138303571Y-126737395D01*
X138303571Y-126737395D02*
X138608333Y-126737395D01*
X138608333Y-126737395D02*
X138684523Y-126775490D01*
X138684523Y-126775490D02*
X138722618Y-126813585D01*
X138722618Y-126813585D02*
X138760714Y-126889776D01*
X138760714Y-126889776D02*
X138760714Y-127004061D01*
X138760714Y-127004061D02*
X138722618Y-127080252D01*
X138722618Y-127080252D02*
X138684523Y-127118347D01*
X138684523Y-127118347D02*
X138608333Y-127156442D01*
X138608333Y-127156442D02*
X138303571Y-127156442D01*
X139522618Y-127537395D02*
X139065475Y-127537395D01*
X139294047Y-127537395D02*
X139294047Y-126737395D01*
X139294047Y-126737395D02*
X139217856Y-126851680D01*
X139217856Y-126851680D02*
X139141666Y-126927871D01*
X139141666Y-126927871D02*
X139065475Y-126965966D01*
X140246428Y-126737395D02*
X139865476Y-126737395D01*
X139865476Y-126737395D02*
X139827380Y-127118347D01*
X139827380Y-127118347D02*
X139865476Y-127080252D01*
X139865476Y-127080252D02*
X139941666Y-127042157D01*
X139941666Y-127042157D02*
X140132142Y-127042157D01*
X140132142Y-127042157D02*
X140208333Y-127080252D01*
X140208333Y-127080252D02*
X140246428Y-127118347D01*
X140246428Y-127118347D02*
X140284523Y-127194538D01*
X140284523Y-127194538D02*
X140284523Y-127385014D01*
X140284523Y-127385014D02*
X140246428Y-127461204D01*
X140246428Y-127461204D02*
X140208333Y-127499300D01*
X140208333Y-127499300D02*
X140132142Y-127537395D01*
X140132142Y-127537395D02*
X139941666Y-127537395D01*
X139941666Y-127537395D02*
X139865476Y-127499300D01*
X139865476Y-127499300D02*
X139827380Y-127461204D01*
X142410714Y-127537395D02*
X142144047Y-127156442D01*
X141953571Y-127537395D02*
X141953571Y-126737395D01*
X141953571Y-126737395D02*
X142258333Y-126737395D01*
X142258333Y-126737395D02*
X142334523Y-126775490D01*
X142334523Y-126775490D02*
X142372618Y-126813585D01*
X142372618Y-126813585D02*
X142410714Y-126889776D01*
X142410714Y-126889776D02*
X142410714Y-127004061D01*
X142410714Y-127004061D02*
X142372618Y-127080252D01*
X142372618Y-127080252D02*
X142334523Y-127118347D01*
X142334523Y-127118347D02*
X142258333Y-127156442D01*
X142258333Y-127156442D02*
X141953571Y-127156442D01*
X143172618Y-127537395D02*
X142715475Y-127537395D01*
X142944047Y-127537395D02*
X142944047Y-126737395D01*
X142944047Y-126737395D02*
X142867856Y-126851680D01*
X142867856Y-126851680D02*
X142791666Y-126927871D01*
X142791666Y-126927871D02*
X142715475Y-126965966D01*
X143858333Y-126737395D02*
X143705952Y-126737395D01*
X143705952Y-126737395D02*
X143629761Y-126775490D01*
X143629761Y-126775490D02*
X143591666Y-126813585D01*
X143591666Y-126813585D02*
X143515476Y-126927871D01*
X143515476Y-126927871D02*
X143477380Y-127080252D01*
X143477380Y-127080252D02*
X143477380Y-127385014D01*
X143477380Y-127385014D02*
X143515476Y-127461204D01*
X143515476Y-127461204D02*
X143553571Y-127499300D01*
X143553571Y-127499300D02*
X143629761Y-127537395D01*
X143629761Y-127537395D02*
X143782142Y-127537395D01*
X143782142Y-127537395D02*
X143858333Y-127499300D01*
X143858333Y-127499300D02*
X143896428Y-127461204D01*
X143896428Y-127461204D02*
X143934523Y-127385014D01*
X143934523Y-127385014D02*
X143934523Y-127194538D01*
X143934523Y-127194538D02*
X143896428Y-127118347D01*
X143896428Y-127118347D02*
X143858333Y-127080252D01*
X143858333Y-127080252D02*
X143782142Y-127042157D01*
X143782142Y-127042157D02*
X143629761Y-127042157D01*
X143629761Y-127042157D02*
X143553571Y-127080252D01*
X143553571Y-127080252D02*
X143515476Y-127118347D01*
X143515476Y-127118347D02*
X143477380Y-127194538D01*
X143413704Y-129833332D02*
X143451800Y-129871428D01*
X143451800Y-129871428D02*
X143489895Y-129985713D01*
X143489895Y-129985713D02*
X143489895Y-130061904D01*
X143489895Y-130061904D02*
X143451800Y-130176190D01*
X143451800Y-130176190D02*
X143375609Y-130252380D01*
X143375609Y-130252380D02*
X143299419Y-130290475D01*
X143299419Y-130290475D02*
X143147038Y-130328571D01*
X143147038Y-130328571D02*
X143032752Y-130328571D01*
X143032752Y-130328571D02*
X142880371Y-130290475D01*
X142880371Y-130290475D02*
X142804180Y-130252380D01*
X142804180Y-130252380D02*
X142727990Y-130176190D01*
X142727990Y-130176190D02*
X142689895Y-130061904D01*
X142689895Y-130061904D02*
X142689895Y-129985713D01*
X142689895Y-129985713D02*
X142727990Y-129871428D01*
X142727990Y-129871428D02*
X142766085Y-129833332D01*
X143489895Y-129452380D02*
X143489895Y-129299999D01*
X143489895Y-129299999D02*
X143451800Y-129223809D01*
X143451800Y-129223809D02*
X143413704Y-129185713D01*
X143413704Y-129185713D02*
X143299419Y-129109523D01*
X143299419Y-129109523D02*
X143147038Y-129071428D01*
X143147038Y-129071428D02*
X142842276Y-129071428D01*
X142842276Y-129071428D02*
X142766085Y-129109523D01*
X142766085Y-129109523D02*
X142727990Y-129147618D01*
X142727990Y-129147618D02*
X142689895Y-129223809D01*
X142689895Y-129223809D02*
X142689895Y-129376190D01*
X142689895Y-129376190D02*
X142727990Y-129452380D01*
X142727990Y-129452380D02*
X142766085Y-129490475D01*
X142766085Y-129490475D02*
X142842276Y-129528571D01*
X142842276Y-129528571D02*
X143032752Y-129528571D01*
X143032752Y-129528571D02*
X143108942Y-129490475D01*
X143108942Y-129490475D02*
X143147038Y-129452380D01*
X143147038Y-129452380D02*
X143185133Y-129376190D01*
X143185133Y-129376190D02*
X143185133Y-129223809D01*
X143185133Y-129223809D02*
X143147038Y-129147618D01*
X143147038Y-129147618D02*
X143108942Y-129109523D01*
X143108942Y-129109523D02*
X143032752Y-129071428D01*
X147964895Y-129833332D02*
X147583942Y-130099999D01*
X147964895Y-130290475D02*
X147164895Y-130290475D01*
X147164895Y-130290475D02*
X147164895Y-129985713D01*
X147164895Y-129985713D02*
X147202990Y-129909523D01*
X147202990Y-129909523D02*
X147241085Y-129871428D01*
X147241085Y-129871428D02*
X147317276Y-129833332D01*
X147317276Y-129833332D02*
X147431561Y-129833332D01*
X147431561Y-129833332D02*
X147507752Y-129871428D01*
X147507752Y-129871428D02*
X147545847Y-129909523D01*
X147545847Y-129909523D02*
X147583942Y-129985713D01*
X147583942Y-129985713D02*
X147583942Y-130290475D01*
X147164895Y-129109523D02*
X147164895Y-129490475D01*
X147164895Y-129490475D02*
X147545847Y-129528571D01*
X147545847Y-129528571D02*
X147507752Y-129490475D01*
X147507752Y-129490475D02*
X147469657Y-129414285D01*
X147469657Y-129414285D02*
X147469657Y-129223809D01*
X147469657Y-129223809D02*
X147507752Y-129147618D01*
X147507752Y-129147618D02*
X147545847Y-129109523D01*
X147545847Y-129109523D02*
X147622038Y-129071428D01*
X147622038Y-129071428D02*
X147812514Y-129071428D01*
X147812514Y-129071428D02*
X147888704Y-129109523D01*
X147888704Y-129109523D02*
X147926800Y-129147618D01*
X147926800Y-129147618D02*
X147964895Y-129223809D01*
X147964895Y-129223809D02*
X147964895Y-129414285D01*
X147964895Y-129414285D02*
X147926800Y-129490475D01*
X147926800Y-129490475D02*
X147888704Y-129528571D01*
X147856667Y-140475895D02*
X147590000Y-140094942D01*
X147399524Y-140475895D02*
X147399524Y-139675895D01*
X147399524Y-139675895D02*
X147704286Y-139675895D01*
X147704286Y-139675895D02*
X147780476Y-139713990D01*
X147780476Y-139713990D02*
X147818571Y-139752085D01*
X147818571Y-139752085D02*
X147856667Y-139828276D01*
X147856667Y-139828276D02*
X147856667Y-139942561D01*
X147856667Y-139942561D02*
X147818571Y-140018752D01*
X147818571Y-140018752D02*
X147780476Y-140056847D01*
X147780476Y-140056847D02*
X147704286Y-140094942D01*
X147704286Y-140094942D02*
X147399524Y-140094942D01*
X148542381Y-139675895D02*
X148390000Y-139675895D01*
X148390000Y-139675895D02*
X148313809Y-139713990D01*
X148313809Y-139713990D02*
X148275714Y-139752085D01*
X148275714Y-139752085D02*
X148199524Y-139866371D01*
X148199524Y-139866371D02*
X148161428Y-140018752D01*
X148161428Y-140018752D02*
X148161428Y-140323514D01*
X148161428Y-140323514D02*
X148199524Y-140399704D01*
X148199524Y-140399704D02*
X148237619Y-140437800D01*
X148237619Y-140437800D02*
X148313809Y-140475895D01*
X148313809Y-140475895D02*
X148466190Y-140475895D01*
X148466190Y-140475895D02*
X148542381Y-140437800D01*
X148542381Y-140437800D02*
X148580476Y-140399704D01*
X148580476Y-140399704D02*
X148618571Y-140323514D01*
X148618571Y-140323514D02*
X148618571Y-140133038D01*
X148618571Y-140133038D02*
X148580476Y-140056847D01*
X148580476Y-140056847D02*
X148542381Y-140018752D01*
X148542381Y-140018752D02*
X148466190Y-139980657D01*
X148466190Y-139980657D02*
X148313809Y-139980657D01*
X148313809Y-139980657D02*
X148237619Y-140018752D01*
X148237619Y-140018752D02*
X148199524Y-140056847D01*
X148199524Y-140056847D02*
X148161428Y-140133038D01*
X136066085Y-122248690D02*
X136027990Y-122324880D01*
X136027990Y-122324880D02*
X135951800Y-122401071D01*
X135951800Y-122401071D02*
X135837514Y-122515357D01*
X135837514Y-122515357D02*
X135799419Y-122591547D01*
X135799419Y-122591547D02*
X135799419Y-122667738D01*
X135989895Y-122629642D02*
X135951800Y-122705833D01*
X135951800Y-122705833D02*
X135875609Y-122782023D01*
X135875609Y-122782023D02*
X135723228Y-122820119D01*
X135723228Y-122820119D02*
X135456561Y-122820119D01*
X135456561Y-122820119D02*
X135304180Y-122782023D01*
X135304180Y-122782023D02*
X135227990Y-122705833D01*
X135227990Y-122705833D02*
X135189895Y-122629642D01*
X135189895Y-122629642D02*
X135189895Y-122477261D01*
X135189895Y-122477261D02*
X135227990Y-122401071D01*
X135227990Y-122401071D02*
X135304180Y-122324880D01*
X135304180Y-122324880D02*
X135456561Y-122286785D01*
X135456561Y-122286785D02*
X135723228Y-122286785D01*
X135723228Y-122286785D02*
X135875609Y-122324880D01*
X135875609Y-122324880D02*
X135951800Y-122401071D01*
X135951800Y-122401071D02*
X135989895Y-122477261D01*
X135989895Y-122477261D02*
X135989895Y-122629642D01*
X135266085Y-121982024D02*
X135227990Y-121943928D01*
X135227990Y-121943928D02*
X135189895Y-121867738D01*
X135189895Y-121867738D02*
X135189895Y-121677262D01*
X135189895Y-121677262D02*
X135227990Y-121601071D01*
X135227990Y-121601071D02*
X135266085Y-121562976D01*
X135266085Y-121562976D02*
X135342276Y-121524881D01*
X135342276Y-121524881D02*
X135418466Y-121524881D01*
X135418466Y-121524881D02*
X135532752Y-121562976D01*
X135532752Y-121562976D02*
X135989895Y-122020119D01*
X135989895Y-122020119D02*
X135989895Y-121524881D01*
X168414895Y-136590475D02*
X167614895Y-136590475D01*
X167614895Y-136590475D02*
X167614895Y-136399999D01*
X167614895Y-136399999D02*
X167652990Y-136285713D01*
X167652990Y-136285713D02*
X167729180Y-136209523D01*
X167729180Y-136209523D02*
X167805371Y-136171428D01*
X167805371Y-136171428D02*
X167957752Y-136133332D01*
X167957752Y-136133332D02*
X168072038Y-136133332D01*
X168072038Y-136133332D02*
X168224419Y-136171428D01*
X168224419Y-136171428D02*
X168300609Y-136209523D01*
X168300609Y-136209523D02*
X168376800Y-136285713D01*
X168376800Y-136285713D02*
X168414895Y-136399999D01*
X168414895Y-136399999D02*
X168414895Y-136590475D01*
X168414895Y-135371428D02*
X168414895Y-135828571D01*
X168414895Y-135599999D02*
X167614895Y-135599999D01*
X167614895Y-135599999D02*
X167729180Y-135676190D01*
X167729180Y-135676190D02*
X167805371Y-135752380D01*
X167805371Y-135752380D02*
X167843466Y-135828571D01*
X139816085Y-122248690D02*
X139777990Y-122324880D01*
X139777990Y-122324880D02*
X139701800Y-122401071D01*
X139701800Y-122401071D02*
X139587514Y-122515357D01*
X139587514Y-122515357D02*
X139549419Y-122591547D01*
X139549419Y-122591547D02*
X139549419Y-122667738D01*
X139739895Y-122629642D02*
X139701800Y-122705833D01*
X139701800Y-122705833D02*
X139625609Y-122782023D01*
X139625609Y-122782023D02*
X139473228Y-122820119D01*
X139473228Y-122820119D02*
X139206561Y-122820119D01*
X139206561Y-122820119D02*
X139054180Y-122782023D01*
X139054180Y-122782023D02*
X138977990Y-122705833D01*
X138977990Y-122705833D02*
X138939895Y-122629642D01*
X138939895Y-122629642D02*
X138939895Y-122477261D01*
X138939895Y-122477261D02*
X138977990Y-122401071D01*
X138977990Y-122401071D02*
X139054180Y-122324880D01*
X139054180Y-122324880D02*
X139206561Y-122286785D01*
X139206561Y-122286785D02*
X139473228Y-122286785D01*
X139473228Y-122286785D02*
X139625609Y-122324880D01*
X139625609Y-122324880D02*
X139701800Y-122401071D01*
X139701800Y-122401071D02*
X139739895Y-122477261D01*
X139739895Y-122477261D02*
X139739895Y-122629642D01*
X138939895Y-122020119D02*
X138939895Y-121524881D01*
X138939895Y-121524881D02*
X139244657Y-121791547D01*
X139244657Y-121791547D02*
X139244657Y-121677262D01*
X139244657Y-121677262D02*
X139282752Y-121601071D01*
X139282752Y-121601071D02*
X139320847Y-121562976D01*
X139320847Y-121562976D02*
X139397038Y-121524881D01*
X139397038Y-121524881D02*
X139587514Y-121524881D01*
X139587514Y-121524881D02*
X139663704Y-121562976D01*
X139663704Y-121562976D02*
X139701800Y-121601071D01*
X139701800Y-121601071D02*
X139739895Y-121677262D01*
X139739895Y-121677262D02*
X139739895Y-121905833D01*
X139739895Y-121905833D02*
X139701800Y-121982024D01*
X139701800Y-121982024D02*
X139663704Y-122020119D01*
X132466085Y-122248690D02*
X132427990Y-122324880D01*
X132427990Y-122324880D02*
X132351800Y-122401071D01*
X132351800Y-122401071D02*
X132237514Y-122515357D01*
X132237514Y-122515357D02*
X132199419Y-122591547D01*
X132199419Y-122591547D02*
X132199419Y-122667738D01*
X132389895Y-122629642D02*
X132351800Y-122705833D01*
X132351800Y-122705833D02*
X132275609Y-122782023D01*
X132275609Y-122782023D02*
X132123228Y-122820119D01*
X132123228Y-122820119D02*
X131856561Y-122820119D01*
X131856561Y-122820119D02*
X131704180Y-122782023D01*
X131704180Y-122782023D02*
X131627990Y-122705833D01*
X131627990Y-122705833D02*
X131589895Y-122629642D01*
X131589895Y-122629642D02*
X131589895Y-122477261D01*
X131589895Y-122477261D02*
X131627990Y-122401071D01*
X131627990Y-122401071D02*
X131704180Y-122324880D01*
X131704180Y-122324880D02*
X131856561Y-122286785D01*
X131856561Y-122286785D02*
X132123228Y-122286785D01*
X132123228Y-122286785D02*
X132275609Y-122324880D01*
X132275609Y-122324880D02*
X132351800Y-122401071D01*
X132351800Y-122401071D02*
X132389895Y-122477261D01*
X132389895Y-122477261D02*
X132389895Y-122629642D01*
X132389895Y-121524881D02*
X132389895Y-121982024D01*
X132389895Y-121753452D02*
X131589895Y-121753452D01*
X131589895Y-121753452D02*
X131704180Y-121829643D01*
X131704180Y-121829643D02*
X131780371Y-121905833D01*
X131780371Y-121905833D02*
X131818466Y-121982024D01*
X135765476Y-133489895D02*
X135765476Y-134137514D01*
X135765476Y-134137514D02*
X135803571Y-134213704D01*
X135803571Y-134213704D02*
X135841666Y-134251800D01*
X135841666Y-134251800D02*
X135917857Y-134289895D01*
X135917857Y-134289895D02*
X136070238Y-134289895D01*
X136070238Y-134289895D02*
X136146428Y-134251800D01*
X136146428Y-134251800D02*
X136184523Y-134213704D01*
X136184523Y-134213704D02*
X136222619Y-134137514D01*
X136222619Y-134137514D02*
X136222619Y-133489895D01*
X137022618Y-134289895D02*
X136565475Y-134289895D01*
X136794047Y-134289895D02*
X136794047Y-133489895D01*
X136794047Y-133489895D02*
X136717856Y-133604180D01*
X136717856Y-133604180D02*
X136641666Y-133680371D01*
X136641666Y-133680371D02*
X136565475Y-133718466D01*
X131485714Y-127537395D02*
X131219047Y-127156442D01*
X131028571Y-127537395D02*
X131028571Y-126737395D01*
X131028571Y-126737395D02*
X131333333Y-126737395D01*
X131333333Y-126737395D02*
X131409523Y-126775490D01*
X131409523Y-126775490D02*
X131447618Y-126813585D01*
X131447618Y-126813585D02*
X131485714Y-126889776D01*
X131485714Y-126889776D02*
X131485714Y-127004061D01*
X131485714Y-127004061D02*
X131447618Y-127080252D01*
X131447618Y-127080252D02*
X131409523Y-127118347D01*
X131409523Y-127118347D02*
X131333333Y-127156442D01*
X131333333Y-127156442D02*
X131028571Y-127156442D01*
X132247618Y-127537395D02*
X131790475Y-127537395D01*
X132019047Y-127537395D02*
X132019047Y-126737395D01*
X132019047Y-126737395D02*
X131942856Y-126851680D01*
X131942856Y-126851680D02*
X131866666Y-126927871D01*
X131866666Y-126927871D02*
X131790475Y-126965966D01*
X133009523Y-127537395D02*
X132552380Y-127537395D01*
X132780952Y-127537395D02*
X132780952Y-126737395D01*
X132780952Y-126737395D02*
X132704761Y-126851680D01*
X132704761Y-126851680D02*
X132628571Y-126927871D01*
X132628571Y-126927871D02*
X132552380Y-126965966D01*
X143391085Y-122248690D02*
X143352990Y-122324880D01*
X143352990Y-122324880D02*
X143276800Y-122401071D01*
X143276800Y-122401071D02*
X143162514Y-122515357D01*
X143162514Y-122515357D02*
X143124419Y-122591547D01*
X143124419Y-122591547D02*
X143124419Y-122667738D01*
X143314895Y-122629642D02*
X143276800Y-122705833D01*
X143276800Y-122705833D02*
X143200609Y-122782023D01*
X143200609Y-122782023D02*
X143048228Y-122820119D01*
X143048228Y-122820119D02*
X142781561Y-122820119D01*
X142781561Y-122820119D02*
X142629180Y-122782023D01*
X142629180Y-122782023D02*
X142552990Y-122705833D01*
X142552990Y-122705833D02*
X142514895Y-122629642D01*
X142514895Y-122629642D02*
X142514895Y-122477261D01*
X142514895Y-122477261D02*
X142552990Y-122401071D01*
X142552990Y-122401071D02*
X142629180Y-122324880D01*
X142629180Y-122324880D02*
X142781561Y-122286785D01*
X142781561Y-122286785D02*
X143048228Y-122286785D01*
X143048228Y-122286785D02*
X143200609Y-122324880D01*
X143200609Y-122324880D02*
X143276800Y-122401071D01*
X143276800Y-122401071D02*
X143314895Y-122477261D01*
X143314895Y-122477261D02*
X143314895Y-122629642D01*
X142781561Y-121601071D02*
X143314895Y-121601071D01*
X142476800Y-121791547D02*
X143048228Y-121982024D01*
X143048228Y-121982024D02*
X143048228Y-121486785D01*
D12*
%TO.C,J2*%
X120570000Y-136075000D02*
X120570000Y-125855000D01*
X123230000Y-138675000D02*
X121900000Y-138675000D01*
X123230000Y-136075000D02*
X123230000Y-125855000D01*
X123230000Y-125855000D02*
X120570000Y-125855000D01*
X123230000Y-136075000D02*
X120570000Y-136075000D01*
X123230000Y-137345000D02*
X123230000Y-138675000D01*
%TO.C,R10*%
X118747500Y-135514724D02*
X118747500Y-135005276D01*
X119792500Y-135514724D02*
X119792500Y-135005276D01*
%TO.C,R9*%
X126965276Y-118797500D02*
X127474724Y-118797500D01*
X126965276Y-119842500D02*
X127474724Y-119842500D01*
%TO.C,C10*%
X125150000Y-118263733D02*
X125150000Y-118556267D01*
X124130000Y-118263733D02*
X124130000Y-118556267D01*
%TO.C,U7*%
X123060000Y-120350000D02*
X119200000Y-120350000D01*
X123060000Y-120350000D02*
X126920000Y-120350000D01*
X119200000Y-120350000D02*
X119200000Y-120605000D01*
X126920000Y-120350000D02*
X126920000Y-120605000D01*
X123060000Y-130870000D02*
X119200000Y-130870000D01*
X119200000Y-120605000D02*
X117385000Y-120605000D01*
X119200000Y-130870000D02*
X119200000Y-130615000D01*
X123060000Y-130870000D02*
X126920000Y-130870000D01*
X126920000Y-130870000D02*
X126920000Y-130615000D01*
%TO.C,U6*%
X164065000Y-136035000D02*
X164065000Y-129615000D01*
X164065000Y-129615000D02*
X163795000Y-129615000D01*
X163795000Y-129615000D02*
X163795000Y-126785000D01*
X157165000Y-136035000D02*
X157165000Y-129615000D01*
X157165000Y-129615000D02*
X157435000Y-129615000D01*
X157435000Y-129615000D02*
X157435000Y-128515000D01*
%TO.C,Y1*%
X127650000Y-137430000D02*
X127650000Y-131680000D01*
X124050000Y-131680000D02*
X124050000Y-137430000D01*
X124050000Y-137430000D02*
X127650000Y-137430000D01*
%TO.C,JP5*%
X162680000Y-124047500D02*
X162680000Y-126047500D01*
X159030000Y-126547500D02*
X159630000Y-126547500D01*
X159330000Y-126247500D02*
X159630000Y-126547500D01*
X162680000Y-126047500D02*
X158580000Y-126047500D01*
X158580000Y-124047500D02*
X162680000Y-124047500D01*
X159330000Y-126247500D02*
X159030000Y-126547500D01*
X158580000Y-126047500D02*
X158580000Y-124047500D01*
%TO.C,U4*%
X149110000Y-123460000D02*
X151060000Y-123460000D01*
X149110000Y-128580000D02*
X151060000Y-128580000D01*
X149110000Y-123460000D02*
X145660000Y-123460000D01*
X149110000Y-128580000D02*
X147160000Y-128580000D01*
%TO.C,U2*%
X149110000Y-132650000D02*
X151060000Y-132650000D01*
X149110000Y-137770000D02*
X151060000Y-137770000D01*
X149110000Y-132650000D02*
X145660000Y-132650000D01*
X149110000Y-137770000D02*
X147160000Y-137770000D01*
%TO.C,R2*%
X152165276Y-130767500D02*
X152674724Y-130767500D01*
X152165276Y-131812500D02*
X152674724Y-131812500D01*
%TO.C,R1*%
X154814724Y-124232500D02*
X154305276Y-124232500D01*
X154814724Y-123187500D02*
X154305276Y-123187500D01*
%TO.C,JP2*%
X156320000Y-139940000D02*
X153520000Y-139940000D01*
X153520000Y-139940000D02*
X153520000Y-137940000D01*
X153520000Y-137940000D02*
X156320000Y-137940000D01*
X156320000Y-137940000D02*
X156320000Y-139940000D01*
%TO.C,JP1*%
X153390000Y-128210000D02*
X156190000Y-128210000D01*
X156190000Y-128210000D02*
X156190000Y-130210000D01*
X156190000Y-130210000D02*
X153390000Y-130210000D01*
X153390000Y-130210000D02*
X153390000Y-128210000D01*
%TO.C,C1*%
X128960000Y-133652767D02*
X128960000Y-133360233D01*
X129980000Y-133652767D02*
X129980000Y-133360233D01*
%TO.C,C2*%
X129980000Y-136916233D02*
X129980000Y-137208767D01*
X128960000Y-136916233D02*
X128960000Y-137208767D01*
%TO.C,C3*%
X166425000Y-124099801D02*
X166425000Y-123699801D01*
X166225000Y-123899801D02*
X166625000Y-123899801D01*
X165540000Y-121830000D02*
X169700000Y-121830000D01*
X165540000Y-121790000D02*
X169700000Y-121790000D01*
X165541000Y-121750000D02*
X169699000Y-121750000D01*
X165543000Y-121710000D02*
X169697000Y-121710000D01*
X165546000Y-121670000D02*
X169694000Y-121670000D01*
X165549000Y-121630000D02*
X166780000Y-121630000D01*
X168460000Y-121630000D02*
X169691000Y-121630000D01*
X165553000Y-121590000D02*
X166780000Y-121590000D01*
X168460000Y-121590000D02*
X169687000Y-121590000D01*
X165558000Y-121550000D02*
X166780000Y-121550000D01*
X168460000Y-121550000D02*
X169682000Y-121550000D01*
X165564000Y-121510000D02*
X166780000Y-121510000D01*
X168460000Y-121510000D02*
X169676000Y-121510000D01*
X165570000Y-121470000D02*
X166780000Y-121470000D01*
X168460000Y-121470000D02*
X169670000Y-121470000D01*
X165578000Y-121430000D02*
X166780000Y-121430000D01*
X168460000Y-121430000D02*
X169662000Y-121430000D01*
X165586000Y-121390000D02*
X166780000Y-121390000D01*
X168460000Y-121390000D02*
X169654000Y-121390000D01*
X165595000Y-121350000D02*
X166780000Y-121350000D01*
X168460000Y-121350000D02*
X169645000Y-121350000D01*
X165604000Y-121310000D02*
X166780000Y-121310000D01*
X168460000Y-121310000D02*
X169636000Y-121310000D01*
X165615000Y-121270000D02*
X166780000Y-121270000D01*
X168460000Y-121270000D02*
X169625000Y-121270000D01*
X165626000Y-121230000D02*
X166780000Y-121230000D01*
X168460000Y-121230000D02*
X169614000Y-121230000D01*
X165638000Y-121190000D02*
X166780000Y-121190000D01*
X168460000Y-121190000D02*
X169602000Y-121190000D01*
X165652000Y-121150000D02*
X166780000Y-121150000D01*
X168460000Y-121150000D02*
X169588000Y-121150000D01*
X165666000Y-121109000D02*
X166780000Y-121109000D01*
X168460000Y-121109000D02*
X169574000Y-121109000D01*
X165680000Y-121069000D02*
X166780000Y-121069000D01*
X168460000Y-121069000D02*
X169560000Y-121069000D01*
X165696000Y-121029000D02*
X166780000Y-121029000D01*
X168460000Y-121029000D02*
X169544000Y-121029000D01*
X165713000Y-120989000D02*
X166780000Y-120989000D01*
X168460000Y-120989000D02*
X169527000Y-120989000D01*
X165731000Y-120949000D02*
X166780000Y-120949000D01*
X168460000Y-120949000D02*
X169509000Y-120949000D01*
X165750000Y-120909000D02*
X166780000Y-120909000D01*
X168460000Y-120909000D02*
X169490000Y-120909000D01*
X165769000Y-120869000D02*
X166780000Y-120869000D01*
X168460000Y-120869000D02*
X169471000Y-120869000D01*
X165790000Y-120829000D02*
X166780000Y-120829000D01*
X168460000Y-120829000D02*
X169450000Y-120829000D01*
X165812000Y-120789000D02*
X166780000Y-120789000D01*
X168460000Y-120789000D02*
X169428000Y-120789000D01*
X165835000Y-120749000D02*
X166780000Y-120749000D01*
X168460000Y-120749000D02*
X169405000Y-120749000D01*
X165860000Y-120709000D02*
X166780000Y-120709000D01*
X168460000Y-120709000D02*
X169380000Y-120709000D01*
X165885000Y-120669000D02*
X166780000Y-120669000D01*
X168460000Y-120669000D02*
X169355000Y-120669000D01*
X165912000Y-120629000D02*
X166780000Y-120629000D01*
X168460000Y-120629000D02*
X169328000Y-120629000D01*
X165940000Y-120589000D02*
X166780000Y-120589000D01*
X168460000Y-120589000D02*
X169300000Y-120589000D01*
X165970000Y-120549000D02*
X166780000Y-120549000D01*
X168460000Y-120549000D02*
X169270000Y-120549000D01*
X166001000Y-120509000D02*
X166780000Y-120509000D01*
X168460000Y-120509000D02*
X169239000Y-120509000D01*
X166033000Y-120469000D02*
X166780000Y-120469000D01*
X168460000Y-120469000D02*
X169207000Y-120469000D01*
X166068000Y-120429000D02*
X166780000Y-120429000D01*
X168460000Y-120429000D02*
X169172000Y-120429000D01*
X166104000Y-120389000D02*
X166780000Y-120389000D01*
X168460000Y-120389000D02*
X169136000Y-120389000D01*
X166142000Y-120349000D02*
X166780000Y-120349000D01*
X168460000Y-120349000D02*
X169098000Y-120349000D01*
X166182000Y-120309000D02*
X166780000Y-120309000D01*
X168460000Y-120309000D02*
X169058000Y-120309000D01*
X166224000Y-120269000D02*
X166780000Y-120269000D01*
X168460000Y-120269000D02*
X169016000Y-120269000D01*
X166269000Y-120229000D02*
X166780000Y-120229000D01*
X168460000Y-120229000D02*
X168971000Y-120229000D01*
X166316000Y-120189000D02*
X166780000Y-120189000D01*
X168460000Y-120189000D02*
X168924000Y-120189000D01*
X166366000Y-120149000D02*
X166780000Y-120149000D01*
X168460000Y-120149000D02*
X168874000Y-120149000D01*
X166420000Y-120109000D02*
X166780000Y-120109000D01*
X168460000Y-120109000D02*
X168820000Y-120109000D01*
X166478000Y-120069000D02*
X166780000Y-120069000D01*
X168460000Y-120069000D02*
X168762000Y-120069000D01*
X166540000Y-120029000D02*
X166780000Y-120029000D01*
X168460000Y-120029000D02*
X168700000Y-120029000D01*
X166607000Y-119989000D02*
X168633000Y-119989000D01*
X166680000Y-119949000D02*
X168560000Y-119949000D01*
X166761000Y-119909000D02*
X168479000Y-119909000D01*
X166852000Y-119869000D02*
X168388000Y-119869000D01*
X166956000Y-119829000D02*
X168284000Y-119829000D01*
X167083000Y-119789000D02*
X168157000Y-119789000D01*
X167250000Y-119749000D02*
X167990000Y-119749000D01*
X169740000Y-121830000D02*
G75*
G03*
X169740000Y-121830000I-2120000J0D01*
G01*
%TO.C,C4*%
X159815000Y-120971267D02*
X159815000Y-120678733D01*
X160835000Y-120971267D02*
X160835000Y-120678733D01*
%TO.C,C5*%
X148826733Y-130789000D02*
X149119267Y-130789000D01*
X148826733Y-131809000D02*
X149119267Y-131809000D01*
%TO.C,C6*%
X156160000Y-120678733D02*
X156160000Y-120971267D01*
X155140000Y-120678733D02*
X155140000Y-120971267D01*
%TO.C,C7*%
X157515000Y-120678733D02*
X157515000Y-120971267D01*
X158535000Y-120678733D02*
X158535000Y-120971267D01*
%TO.C,C8*%
X146835000Y-122672401D02*
X146835000Y-122272401D01*
X146635000Y-122472401D02*
X147035000Y-122472401D01*
X145950000Y-120402600D02*
X150110000Y-120402600D01*
X145950000Y-120362600D02*
X150110000Y-120362600D01*
X145951000Y-120322600D02*
X150109000Y-120322600D01*
X145953000Y-120282600D02*
X150107000Y-120282600D01*
X145956000Y-120242600D02*
X150104000Y-120242600D01*
X145959000Y-120202600D02*
X147190000Y-120202600D01*
X148870000Y-120202600D02*
X150101000Y-120202600D01*
X145963000Y-120162600D02*
X147190000Y-120162600D01*
X148870000Y-120162600D02*
X150097000Y-120162600D01*
X145968000Y-120122600D02*
X147190000Y-120122600D01*
X148870000Y-120122600D02*
X150092000Y-120122600D01*
X145974000Y-120082600D02*
X147190000Y-120082600D01*
X148870000Y-120082600D02*
X150086000Y-120082600D01*
X145980000Y-120042600D02*
X147190000Y-120042600D01*
X148870000Y-120042600D02*
X150080000Y-120042600D01*
X145988000Y-120002600D02*
X147190000Y-120002600D01*
X148870000Y-120002600D02*
X150072000Y-120002600D01*
X145996000Y-119962600D02*
X147190000Y-119962600D01*
X148870000Y-119962600D02*
X150064000Y-119962600D01*
X146005000Y-119922600D02*
X147190000Y-119922600D01*
X148870000Y-119922600D02*
X150055000Y-119922600D01*
X146014000Y-119882600D02*
X147190000Y-119882600D01*
X148870000Y-119882600D02*
X150046000Y-119882600D01*
X146025000Y-119842600D02*
X147190000Y-119842600D01*
X148870000Y-119842600D02*
X150035000Y-119842600D01*
X146036000Y-119802600D02*
X147190000Y-119802600D01*
X148870000Y-119802600D02*
X150024000Y-119802600D01*
X146048000Y-119762600D02*
X147190000Y-119762600D01*
X148870000Y-119762600D02*
X150012000Y-119762600D01*
X146062000Y-119722600D02*
X147190000Y-119722600D01*
X148870000Y-119722600D02*
X149998000Y-119722600D01*
X146076000Y-119681600D02*
X147190000Y-119681600D01*
X148870000Y-119681600D02*
X149984000Y-119681600D01*
X146090000Y-119641600D02*
X147190000Y-119641600D01*
X148870000Y-119641600D02*
X149970000Y-119641600D01*
X146106000Y-119601600D02*
X147190000Y-119601600D01*
X148870000Y-119601600D02*
X149954000Y-119601600D01*
X146123000Y-119561600D02*
X147190000Y-119561600D01*
X148870000Y-119561600D02*
X149937000Y-119561600D01*
X146141000Y-119521600D02*
X147190000Y-119521600D01*
X148870000Y-119521600D02*
X149919000Y-119521600D01*
X146160000Y-119481600D02*
X147190000Y-119481600D01*
X148870000Y-119481600D02*
X149900000Y-119481600D01*
X146179000Y-119441600D02*
X147190000Y-119441600D01*
X148870000Y-119441600D02*
X149881000Y-119441600D01*
X146200000Y-119401600D02*
X147190000Y-119401600D01*
X148870000Y-119401600D02*
X149860000Y-119401600D01*
X146222000Y-119361600D02*
X147190000Y-119361600D01*
X148870000Y-119361600D02*
X149838000Y-119361600D01*
X146245000Y-119321600D02*
X147190000Y-119321600D01*
X148870000Y-119321600D02*
X149815000Y-119321600D01*
X146270000Y-119281600D02*
X147190000Y-119281600D01*
X148870000Y-119281600D02*
X149790000Y-119281600D01*
X146295000Y-119241600D02*
X147190000Y-119241600D01*
X148870000Y-119241600D02*
X149765000Y-119241600D01*
X146322000Y-119201600D02*
X147190000Y-119201600D01*
X148870000Y-119201600D02*
X149738000Y-119201600D01*
X146350000Y-119161600D02*
X147190000Y-119161600D01*
X148870000Y-119161600D02*
X149710000Y-119161600D01*
X146380000Y-119121600D02*
X147190000Y-119121600D01*
X148870000Y-119121600D02*
X149680000Y-119121600D01*
X146411000Y-119081600D02*
X147190000Y-119081600D01*
X148870000Y-119081600D02*
X149649000Y-119081600D01*
X146443000Y-119041600D02*
X147190000Y-119041600D01*
X148870000Y-119041600D02*
X149617000Y-119041600D01*
X146478000Y-119001600D02*
X147190000Y-119001600D01*
X148870000Y-119001600D02*
X149582000Y-119001600D01*
X146514000Y-118961600D02*
X147190000Y-118961600D01*
X148870000Y-118961600D02*
X149546000Y-118961600D01*
X146552000Y-118921600D02*
X147190000Y-118921600D01*
X148870000Y-118921600D02*
X149508000Y-118921600D01*
X146592000Y-118881600D02*
X147190000Y-118881600D01*
X148870000Y-118881600D02*
X149468000Y-118881600D01*
X146634000Y-118841600D02*
X147190000Y-118841600D01*
X148870000Y-118841600D02*
X149426000Y-118841600D01*
X146679000Y-118801600D02*
X147190000Y-118801600D01*
X148870000Y-118801600D02*
X149381000Y-118801600D01*
X146726000Y-118761600D02*
X147190000Y-118761600D01*
X148870000Y-118761600D02*
X149334000Y-118761600D01*
X146776000Y-118721600D02*
X147190000Y-118721600D01*
X148870000Y-118721600D02*
X149284000Y-118721600D01*
X146830000Y-118681600D02*
X147190000Y-118681600D01*
X148870000Y-118681600D02*
X149230000Y-118681600D01*
X146888000Y-118641600D02*
X147190000Y-118641600D01*
X148870000Y-118641600D02*
X149172000Y-118641600D01*
X146950000Y-118601600D02*
X147190000Y-118601600D01*
X148870000Y-118601600D02*
X149110000Y-118601600D01*
X147017000Y-118561600D02*
X149043000Y-118561600D01*
X147090000Y-118521600D02*
X148970000Y-118521600D01*
X147171000Y-118481600D02*
X148889000Y-118481600D01*
X147262000Y-118441600D02*
X148798000Y-118441600D01*
X147366000Y-118401600D02*
X148694000Y-118401600D01*
X147493000Y-118361600D02*
X148567000Y-118361600D01*
X147660000Y-118321600D02*
X148400000Y-118321600D01*
X150150000Y-120402600D02*
G75*
G03*
X150150000Y-120402600I-2120000J0D01*
G01*
%TO.C,R3*%
X154397500Y-134895276D02*
X154397500Y-135404724D01*
X153352500Y-134895276D02*
X153352500Y-135404724D01*
%TO.C,R4*%
X154397500Y-125970276D02*
X154397500Y-126479724D01*
X153352500Y-125970276D02*
X153352500Y-126479724D01*
%TO.C,R7*%
X132217224Y-120920000D02*
X131707776Y-120920000D01*
X132217224Y-119875000D02*
X131707776Y-119875000D01*
%TO.C,R8*%
X135883390Y-120920000D02*
X135373942Y-120920000D01*
X135883390Y-119875000D02*
X135373942Y-119875000D01*
%TO.C,R12*%
X135373942Y-125325000D02*
X135883390Y-125325000D01*
X135373942Y-126370000D02*
X135883390Y-126370000D01*
%TO.C,R13*%
X139524056Y-120920000D02*
X139014608Y-120920000D01*
X139524056Y-119875000D02*
X139014608Y-119875000D01*
%TO.C,R14*%
X143164724Y-120920000D02*
X142655276Y-120920000D01*
X143164724Y-119875000D02*
X142655276Y-119875000D01*
%TO.C,R15*%
X139014608Y-125325000D02*
X139524056Y-125325000D01*
X139014608Y-126370000D02*
X139524056Y-126370000D01*
%TO.C,R16*%
X142655276Y-125325000D02*
X143164724Y-125325000D01*
X142655276Y-126370000D02*
X143164724Y-126370000D01*
%TO.C,C9*%
X143940000Y-130746267D02*
X143940000Y-130453733D01*
X144960000Y-130746267D02*
X144960000Y-130453733D01*
%TO.C,R5*%
X145602500Y-130854724D02*
X145602500Y-130345276D01*
X146647500Y-130854724D02*
X146647500Y-130345276D01*
%TO.C,R6*%
X147285276Y-138257500D02*
X147794724Y-138257500D01*
X147285276Y-139302500D02*
X147794724Y-139302500D01*
%TO.C,Q2*%
X137185000Y-123122500D02*
X137185000Y-121447500D01*
X137185000Y-123122500D02*
X137185000Y-123772500D01*
X134065000Y-123122500D02*
X134065000Y-122472500D01*
X134065000Y-123122500D02*
X134065000Y-123772500D01*
%TO.C,D1*%
X169700000Y-132490000D02*
X166400000Y-132490000D01*
X169700000Y-132490000D02*
X169700000Y-138000000D01*
X166400000Y-132490000D02*
X166400000Y-138000000D01*
%TO.C,Q3*%
X140835000Y-123122500D02*
X140835000Y-121447500D01*
X140835000Y-123122500D02*
X140835000Y-123772500D01*
X137715000Y-123122500D02*
X137715000Y-122472500D01*
X137715000Y-123122500D02*
X137715000Y-123772500D01*
%TO.C,Q1*%
X133585000Y-123122500D02*
X133585000Y-121447500D01*
X133585000Y-123122500D02*
X133585000Y-123772500D01*
X130465000Y-123122500D02*
X130465000Y-122472500D01*
X130465000Y-123122500D02*
X130465000Y-123772500D01*
%TO.C,U1*%
X132540000Y-128335000D02*
X132540000Y-128580000D01*
X132540000Y-128580000D02*
X130725000Y-128580000D01*
X132540000Y-140105000D02*
X132540000Y-139860000D01*
X136400000Y-128335000D02*
X132540000Y-128335000D01*
X136400000Y-128335000D02*
X140260000Y-128335000D01*
X136400000Y-140105000D02*
X132540000Y-140105000D01*
X136400000Y-140105000D02*
X140260000Y-140105000D01*
X140260000Y-128335000D02*
X140260000Y-128580000D01*
X140260000Y-140105000D02*
X140260000Y-139860000D01*
%TO.C,R11*%
X131720276Y-125325000D02*
X132229724Y-125325000D01*
X131720276Y-126370000D02*
X132229724Y-126370000D01*
%TO.C,Q4*%
X144460000Y-123122500D02*
X144460000Y-121447500D01*
X144460000Y-123122500D02*
X144460000Y-123772500D01*
X141340000Y-123122500D02*
X141340000Y-122472500D01*
X141340000Y-123122500D02*
X141340000Y-123772500D01*
%TD*%
%LPC*%
D13*
%TO.C,J2*%
X121900000Y-137345000D03*
D14*
X121900000Y-134805000D03*
X121900000Y-132265000D03*
X121900000Y-129725000D03*
X121900000Y-127185000D03*
%TD*%
D15*
%TO.C,R10*%
X119270000Y-136172500D03*
X119270000Y-134347500D03*
%TD*%
D16*
%TO.C,R9*%
X126307500Y-119320000D03*
X128132500Y-119320000D03*
%TD*%
D17*
%TO.C,C10*%
X124640000Y-117547500D03*
X124640000Y-119272500D03*
%TD*%
D18*
%TO.C,U7*%
X127710000Y-121165000D03*
X127710000Y-122435000D03*
X127710000Y-123705000D03*
X127710000Y-124975000D03*
X127710000Y-126245000D03*
X127710000Y-127515000D03*
X127710000Y-128785000D03*
X127710000Y-130055000D03*
X118410000Y-130055000D03*
X118410000Y-128785000D03*
X118410000Y-127515000D03*
X118410000Y-126245000D03*
X118410000Y-124975000D03*
X118410000Y-123705000D03*
X118410000Y-122435000D03*
X118410000Y-121165000D03*
%TD*%
D19*
%TO.C,U5*%
X164399200Y-142506686D03*
X161859200Y-142506686D03*
X159319200Y-142506686D03*
X156779200Y-142506686D03*
X154239200Y-142506686D03*
X151699200Y-142506686D03*
X149159200Y-142506686D03*
X146619200Y-142506686D03*
X144079200Y-142506686D03*
X141539200Y-142506686D03*
X138999200Y-142506686D03*
X136459200Y-142506686D03*
X133919200Y-142506686D03*
X131379200Y-142506686D03*
X128839200Y-142506686D03*
X164450000Y-117094000D03*
X161910000Y-117094000D03*
X159370000Y-117094000D03*
X156830000Y-117094000D03*
X154290000Y-117094000D03*
D14*
X151750000Y-117094000D03*
D19*
X149210000Y-117094000D03*
X146670000Y-117094000D03*
X144130000Y-117094000D03*
X141590000Y-117094000D03*
X139050000Y-117094000D03*
X136510000Y-117094000D03*
X133970000Y-117094000D03*
X131430000Y-117094000D03*
D20*
X128890000Y-117094000D03*
%TD*%
D21*
%TO.C,U6*%
X162895000Y-127885000D03*
X158335000Y-127885000D03*
D22*
X160615000Y-134185000D03*
%TD*%
D23*
%TO.C,Y1*%
X125850000Y-136230000D03*
X125850000Y-132530000D03*
%TD*%
D24*
%TO.C,JP5*%
X159330000Y-125047500D03*
X160630000Y-125047500D03*
X161930000Y-125047500D03*
%TD*%
D25*
%TO.C,U3*%
X164390000Y-120323400D03*
X150851800Y-120323400D03*
X164390000Y-138840000D03*
X150851800Y-138840000D03*
%TD*%
D26*
%TO.C,U4*%
X146635000Y-124115000D03*
X146635000Y-125385000D03*
X146635000Y-126655000D03*
X146635000Y-127925000D03*
X151585000Y-127925000D03*
X151585000Y-126655000D03*
X151585000Y-125385000D03*
X151585000Y-124115000D03*
%TD*%
%TO.C,U2*%
X146635000Y-133305000D03*
X146635000Y-134575000D03*
X146635000Y-135845000D03*
X146635000Y-137115000D03*
X151585000Y-137115000D03*
X151585000Y-135845000D03*
X151585000Y-134575000D03*
X151585000Y-133305000D03*
%TD*%
D16*
%TO.C,R2*%
X151507500Y-131290000D03*
X153332500Y-131290000D03*
%TD*%
D27*
%TO.C,R1*%
X155472500Y-123710000D03*
X153647500Y-123710000D03*
%TD*%
D24*
%TO.C,JP2*%
X154270000Y-138940000D03*
X155570000Y-138940000D03*
%TD*%
D28*
%TO.C,JP1*%
X155440000Y-129210000D03*
X154140000Y-129210000D03*
%TD*%
D29*
%TO.C,C1*%
X129470000Y-134369000D03*
X129470000Y-132644000D03*
%TD*%
D17*
%TO.C,C2*%
X129470000Y-136200000D03*
X129470000Y-137925000D03*
%TD*%
D30*
%TO.C,C3*%
X167620000Y-122830000D03*
D31*
X167620000Y-120830000D03*
%TD*%
D29*
%TO.C,C4*%
X160325000Y-121687500D03*
X160325000Y-119962500D03*
%TD*%
D32*
%TO.C,C5*%
X148110500Y-131299000D03*
X149835500Y-131299000D03*
%TD*%
D17*
%TO.C,C6*%
X155650000Y-119962500D03*
X155650000Y-121687500D03*
%TD*%
%TO.C,C7*%
X158025000Y-121687500D03*
X158025000Y-119962500D03*
%TD*%
D30*
%TO.C,C8*%
X148030000Y-121402600D03*
D31*
X148030000Y-119402600D03*
%TD*%
D33*
%TO.C,R3*%
X153875000Y-134237500D03*
X153875000Y-136062500D03*
%TD*%
%TO.C,R4*%
X153875000Y-125312500D03*
X153875000Y-127137500D03*
%TD*%
D27*
%TO.C,R7*%
X132875000Y-120397500D03*
X131050000Y-120397500D03*
%TD*%
%TO.C,R8*%
X136541166Y-120397500D03*
X134716166Y-120397500D03*
%TD*%
D16*
%TO.C,R12*%
X134716166Y-125847500D03*
X136541166Y-125847500D03*
%TD*%
D27*
%TO.C,R13*%
X140181832Y-120397500D03*
X138356832Y-120397500D03*
%TD*%
%TO.C,R14*%
X143822500Y-120397500D03*
X141997500Y-120397500D03*
%TD*%
D16*
%TO.C,R15*%
X138356832Y-125847500D03*
X140181832Y-125847500D03*
%TD*%
%TO.C,R16*%
X141997500Y-125847500D03*
X143822500Y-125847500D03*
%TD*%
D29*
%TO.C,C9*%
X144450000Y-131462500D03*
X144450000Y-129737500D03*
%TD*%
D15*
%TO.C,R5*%
X146125000Y-131512500D03*
X146125000Y-129687500D03*
%TD*%
D16*
%TO.C,R6*%
X146627500Y-138780000D03*
X148452500Y-138780000D03*
%TD*%
D34*
%TO.C,Q2*%
X136575000Y-122185000D03*
X134675000Y-122185000D03*
X135625000Y-124060000D03*
%TD*%
D35*
%TO.C,D1*%
X168050000Y-134000000D03*
X168050000Y-138000000D03*
%TD*%
D34*
%TO.C,Q3*%
X140225000Y-122185000D03*
X138325000Y-122185000D03*
X139275000Y-124060000D03*
%TD*%
%TO.C,Q1*%
X132975000Y-122185000D03*
X131075000Y-122185000D03*
X132025000Y-124060000D03*
%TD*%
D18*
%TO.C,U1*%
X131750000Y-129140000D03*
X131750000Y-130410000D03*
X131750000Y-131680000D03*
X131750000Y-132950000D03*
X131750000Y-134220000D03*
X131750000Y-135490000D03*
X131750000Y-136760000D03*
X131750000Y-138030000D03*
X131750000Y-139300000D03*
X141050000Y-139300000D03*
X141050000Y-138030000D03*
X141050000Y-136760000D03*
X141050000Y-135490000D03*
X141050000Y-134220000D03*
X141050000Y-132950000D03*
X141050000Y-131680000D03*
X141050000Y-130410000D03*
X141050000Y-129140000D03*
%TD*%
D16*
%TO.C,R11*%
X131062500Y-125847500D03*
X132887500Y-125847500D03*
%TD*%
D34*
%TO.C,Q4*%
X143850000Y-122185000D03*
X141950000Y-122185000D03*
X142900000Y-124060000D03*
%TD*%
D36*
%TO.C,J1*%
X172212000Y-135890000D03*
D37*
X172212000Y-133390000D03*
X172212000Y-130890000D03*
X172212000Y-128390000D03*
X172212000Y-125890000D03*
X172212000Y-123390000D03*
%TD*%
%LPD*%
M02*
