%TF.GenerationSoftware,KiCad,Pcbnew,7.0.7*%
%TF.CreationDate,2023-09-17T21:28:58+02:00*%
%TF.ProjectId,PSACANBridgeHW_v12,50534143-414e-4427-9269-64676548575f,rev?*%
%TF.SameCoordinates,Original*%
%TF.FileFunction,Paste,Top*%
%TF.FilePolarity,Positive*%
%FSLAX46Y46*%
G04 Gerber Fmt 4.6, Leading zero omitted, Abs format (unit mm)*
G04 Created by KiCad (PCBNEW 7.0.7) date 2023-09-17 21:28:58*
%MOMM*%
%LPD*%
G01*
G04 APERTURE LIST*
G04 Aperture macros list*
%AMRoundRect*
0 Rectangle with rounded corners*
0 $1 Rounding radius*
0 $2 $3 $4 $5 $6 $7 $8 $9 X,Y pos of 4 corners*
0 Add a 4 corners polygon primitive as box body*
4,1,4,$2,$3,$4,$5,$6,$7,$8,$9,$2,$3,0*
0 Add four circle primitives for the rounded corners*
1,1,$1+$1,$2,$3*
1,1,$1+$1,$4,$5*
1,1,$1+$1,$6,$7*
1,1,$1+$1,$8,$9*
0 Add four rect primitives between the rounded corners*
20,1,$1+$1,$2,$3,$4,$5,0*
20,1,$1+$1,$4,$5,$6,$7,0*
20,1,$1+$1,$6,$7,$8,$9,0*
20,1,$1+$1,$8,$9,$2,$3,0*%
G04 Aperture macros list end*
%ADD10RoundRect,0.237500X0.237500X-0.250000X0.237500X0.250000X-0.237500X0.250000X-0.237500X-0.250000X0*%
%ADD11RoundRect,0.237500X-0.250000X-0.237500X0.250000X-0.237500X0.250000X0.237500X-0.250000X0.237500X0*%
%ADD12RoundRect,0.237500X-0.237500X0.300000X-0.237500X-0.300000X0.237500X-0.300000X0.237500X0.300000X0*%
%ADD13RoundRect,0.150000X-0.875000X-0.150000X0.875000X-0.150000X0.875000X0.150000X-0.875000X0.150000X0*%
%ADD14RoundRect,0.250000X-0.350000X0.850000X-0.350000X-0.850000X0.350000X-0.850000X0.350000X0.850000X0*%
%ADD15RoundRect,0.250000X-1.125000X1.275000X-1.125000X-1.275000X1.125000X-1.275000X1.125000X1.275000X0*%
%ADD16R,2.400000X2.000000*%
%ADD17RoundRect,0.150000X-0.825000X-0.150000X0.825000X-0.150000X0.825000X0.150000X-0.825000X0.150000X0*%
%ADD18RoundRect,0.237500X0.250000X0.237500X-0.250000X0.237500X-0.250000X-0.237500X0.250000X-0.237500X0*%
%ADD19RoundRect,0.237500X0.237500X-0.300000X0.237500X0.300000X-0.237500X0.300000X-0.237500X-0.300000X0*%
%ADD20RoundRect,0.237500X-0.300000X-0.237500X0.300000X-0.237500X0.300000X0.237500X-0.300000X0.237500X0*%
%ADD21RoundRect,0.237500X-0.237500X0.250000X-0.237500X-0.250000X0.237500X-0.250000X0.237500X0.250000X0*%
%ADD22RoundRect,0.150000X-0.150000X0.587500X-0.150000X-0.587500X0.150000X-0.587500X0.150000X0.587500X0*%
%ADD23RoundRect,0.250000X-0.650000X1.000000X-0.650000X-1.000000X0.650000X-1.000000X0.650000X1.000000X0*%
G04 APERTURE END LIST*
D10*
%TO.C,R10*%
X119270000Y-136172500D03*
X119270000Y-134347500D03*
%TD*%
D11*
%TO.C,R9*%
X126307500Y-119320000D03*
X128132500Y-119320000D03*
%TD*%
D12*
%TO.C,C10*%
X124640000Y-117547500D03*
X124640000Y-119272500D03*
%TD*%
D13*
%TO.C,U7*%
X127710000Y-121165000D03*
X127710000Y-122435000D03*
X127710000Y-123705000D03*
X127710000Y-124975000D03*
X127710000Y-126245000D03*
X127710000Y-127515000D03*
X127710000Y-128785000D03*
X127710000Y-130055000D03*
X118410000Y-130055000D03*
X118410000Y-128785000D03*
X118410000Y-127515000D03*
X118410000Y-126245000D03*
X118410000Y-124975000D03*
X118410000Y-123705000D03*
X118410000Y-122435000D03*
X118410000Y-121165000D03*
%TD*%
D14*
%TO.C,U6*%
X162895000Y-127885000D03*
X158335000Y-127885000D03*
D15*
X159090000Y-135860000D03*
X162140000Y-132510000D03*
X162140000Y-135860000D03*
X159090000Y-132510000D03*
%TD*%
D16*
%TO.C,Y1*%
X125850000Y-136230000D03*
X125850000Y-132530000D03*
%TD*%
D17*
%TO.C,U4*%
X146635000Y-124115000D03*
X146635000Y-125385000D03*
X146635000Y-126655000D03*
X146635000Y-127925000D03*
X151585000Y-127925000D03*
X151585000Y-126655000D03*
X151585000Y-125385000D03*
X151585000Y-124115000D03*
%TD*%
%TO.C,U2*%
X146635000Y-133305000D03*
X146635000Y-134575000D03*
X146635000Y-135845000D03*
X146635000Y-137115000D03*
X151585000Y-137115000D03*
X151585000Y-135845000D03*
X151585000Y-134575000D03*
X151585000Y-133305000D03*
%TD*%
D11*
%TO.C,R2*%
X151507500Y-131290000D03*
X153332500Y-131290000D03*
%TD*%
D18*
%TO.C,R1*%
X155472500Y-123710000D03*
X153647500Y-123710000D03*
%TD*%
D19*
%TO.C,C1*%
X129470000Y-134369000D03*
X129470000Y-132644000D03*
%TD*%
D12*
%TO.C,C2*%
X129470000Y-136200000D03*
X129470000Y-137925000D03*
%TD*%
D19*
%TO.C,C4*%
X160325000Y-121687500D03*
X160325000Y-119962500D03*
%TD*%
D20*
%TO.C,C5*%
X148110500Y-131299000D03*
X149835500Y-131299000D03*
%TD*%
D12*
%TO.C,C6*%
X155650000Y-119962500D03*
X155650000Y-121687500D03*
%TD*%
%TO.C,C7*%
X158025000Y-121687500D03*
X158025000Y-119962500D03*
%TD*%
D21*
%TO.C,R3*%
X153875000Y-134237500D03*
X153875000Y-136062500D03*
%TD*%
%TO.C,R4*%
X153875000Y-125312500D03*
X153875000Y-127137500D03*
%TD*%
D18*
%TO.C,R7*%
X132875000Y-120397500D03*
X131050000Y-120397500D03*
%TD*%
%TO.C,R8*%
X136541166Y-120397500D03*
X134716166Y-120397500D03*
%TD*%
D11*
%TO.C,R12*%
X134716166Y-125847500D03*
X136541166Y-125847500D03*
%TD*%
D18*
%TO.C,R13*%
X140181832Y-120397500D03*
X138356832Y-120397500D03*
%TD*%
%TO.C,R14*%
X143822500Y-120397500D03*
X141997500Y-120397500D03*
%TD*%
D11*
%TO.C,R15*%
X138356832Y-125847500D03*
X140181832Y-125847500D03*
%TD*%
%TO.C,R16*%
X141997500Y-125847500D03*
X143822500Y-125847500D03*
%TD*%
D19*
%TO.C,C9*%
X144450000Y-131462500D03*
X144450000Y-129737500D03*
%TD*%
D10*
%TO.C,R5*%
X146125000Y-131512500D03*
X146125000Y-129687500D03*
%TD*%
D11*
%TO.C,R6*%
X146627500Y-138780000D03*
X148452500Y-138780000D03*
%TD*%
D22*
%TO.C,Q2*%
X136575000Y-122185000D03*
X134675000Y-122185000D03*
X135625000Y-124060000D03*
%TD*%
D23*
%TO.C,D1*%
X168050000Y-134000000D03*
X168050000Y-138000000D03*
%TD*%
D22*
%TO.C,Q3*%
X140225000Y-122185000D03*
X138325000Y-122185000D03*
X139275000Y-124060000D03*
%TD*%
%TO.C,Q1*%
X132975000Y-122185000D03*
X131075000Y-122185000D03*
X132025000Y-124060000D03*
%TD*%
D13*
%TO.C,U1*%
X131750000Y-129140000D03*
X131750000Y-130410000D03*
X131750000Y-131680000D03*
X131750000Y-132950000D03*
X131750000Y-134220000D03*
X131750000Y-135490000D03*
X131750000Y-136760000D03*
X131750000Y-138030000D03*
X131750000Y-139300000D03*
X141050000Y-139300000D03*
X141050000Y-138030000D03*
X141050000Y-136760000D03*
X141050000Y-135490000D03*
X141050000Y-134220000D03*
X141050000Y-132950000D03*
X141050000Y-131680000D03*
X141050000Y-130410000D03*
X141050000Y-129140000D03*
%TD*%
D11*
%TO.C,R11*%
X131062500Y-125847500D03*
X132887500Y-125847500D03*
%TD*%
D22*
%TO.C,Q4*%
X143850000Y-122185000D03*
X141950000Y-122185000D03*
X142900000Y-124060000D03*
%TD*%
M02*
