%TF.GenerationSoftware,KiCad,Pcbnew,7.0.7*%
%TF.CreationDate,2023-09-17T21:28:58+02:00*%
%TF.ProjectId,PSACANBridgeHW_v12,50534143-414e-4427-9269-64676548575f,rev?*%
%TF.SameCoordinates,Original*%
%TF.FileFunction,Legend,Bot*%
%TF.FilePolarity,Positive*%
%FSLAX46Y46*%
G04 Gerber Fmt 4.6, Leading zero omitted, Abs format (unit mm)*
G04 Created by KiCad (PCBNEW 7.0.7) date 2023-09-17 21:28:58*
%MOMM*%
%LPD*%
G01*
G04 APERTURE LIST*
G04 Aperture macros list*
%AMRoundRect*
0 Rectangle with rounded corners*
0 $1 Rounding radius*
0 $2 $3 $4 $5 $6 $7 $8 $9 X,Y pos of 4 corners*
0 Add a 4 corners polygon primitive as box body*
4,1,4,$2,$3,$4,$5,$6,$7,$8,$9,$2,$3,0*
0 Add four circle primitives for the rounded corners*
1,1,$1+$1,$2,$3*
1,1,$1+$1,$4,$5*
1,1,$1+$1,$6,$7*
1,1,$1+$1,$8,$9*
0 Add four rect primitives between the rounded corners*
20,1,$1+$1,$2,$3,$4,$5,0*
20,1,$1+$1,$4,$5,$6,$7,0*
20,1,$1+$1,$6,$7,$8,$9,0*
20,1,$1+$1,$8,$9,$2,$3,0*%
G04 Aperture macros list end*
%ADD10C,0.100000*%
%ADD11C,0.150000*%
%ADD12C,0.200000*%
%ADD13C,0.120000*%
%ADD14RoundRect,0.200000X0.850000X0.850000X-0.850000X0.850000X-0.850000X-0.850000X0.850000X-0.850000X0*%
%ADD15O,2.100000X2.100000*%
%ADD16RoundRect,0.581000X-0.762000X-0.381000X0.762000X-0.381000X0.762000X0.381000X-0.762000X0.381000X0*%
%ADD17C,2.100000*%
%ADD18RoundRect,0.200000X0.850000X-0.850000X0.850000X0.850000X-0.850000X0.850000X-0.850000X-0.850000X0*%
%ADD19C,1.924000*%
%ADD20RoundRect,0.200000X0.600000X-0.600000X0.600000X0.600000X-0.600000X0.600000X-0.600000X-0.600000X0*%
%ADD21C,1.600000*%
%ADD22RoundRect,0.450000X0.725000X-0.600000X0.725000X0.600000X-0.725000X0.600000X-0.725000X-0.600000X0*%
%ADD23O,2.350000X2.100000*%
G04 APERTURE END LIST*
D10*
X164844895Y-126344761D02*
X165416323Y-126344761D01*
X165416323Y-126344761D02*
X165530609Y-126306666D01*
X165530609Y-126306666D02*
X165606800Y-126230475D01*
X165606800Y-126230475D02*
X165644895Y-126116190D01*
X165644895Y-126116190D02*
X165644895Y-126039999D01*
X165644895Y-127106666D02*
X165644895Y-126725714D01*
X165644895Y-126725714D02*
X164844895Y-126725714D01*
X165568704Y-127830476D02*
X165606800Y-127792380D01*
X165606800Y-127792380D02*
X165644895Y-127678095D01*
X165644895Y-127678095D02*
X165644895Y-127601904D01*
X165644895Y-127601904D02*
X165606800Y-127487618D01*
X165606800Y-127487618D02*
X165530609Y-127411428D01*
X165530609Y-127411428D02*
X165454419Y-127373333D01*
X165454419Y-127373333D02*
X165302038Y-127335237D01*
X165302038Y-127335237D02*
X165187752Y-127335237D01*
X165187752Y-127335237D02*
X165035371Y-127373333D01*
X165035371Y-127373333D02*
X164959180Y-127411428D01*
X164959180Y-127411428D02*
X164882990Y-127487618D01*
X164882990Y-127487618D02*
X164844895Y-127601904D01*
X164844895Y-127601904D02*
X164844895Y-127678095D01*
X164844895Y-127678095D02*
X164882990Y-127792380D01*
X164882990Y-127792380D02*
X164921085Y-127830476D01*
X164844895Y-128401904D02*
X165416323Y-128401904D01*
X165416323Y-128401904D02*
X165530609Y-128363809D01*
X165530609Y-128363809D02*
X165606800Y-128287618D01*
X165606800Y-128287618D02*
X165644895Y-128173333D01*
X165644895Y-128173333D02*
X165644895Y-128097142D01*
X165644895Y-129163809D02*
X165644895Y-128782857D01*
X165644895Y-128782857D02*
X164844895Y-128782857D01*
X165568704Y-129887619D02*
X165606800Y-129849523D01*
X165606800Y-129849523D02*
X165644895Y-129735238D01*
X165644895Y-129735238D02*
X165644895Y-129659047D01*
X165644895Y-129659047D02*
X165606800Y-129544761D01*
X165606800Y-129544761D02*
X165530609Y-129468571D01*
X165530609Y-129468571D02*
X165454419Y-129430476D01*
X165454419Y-129430476D02*
X165302038Y-129392380D01*
X165302038Y-129392380D02*
X165187752Y-129392380D01*
X165187752Y-129392380D02*
X165035371Y-129430476D01*
X165035371Y-129430476D02*
X164959180Y-129468571D01*
X164959180Y-129468571D02*
X164882990Y-129544761D01*
X164882990Y-129544761D02*
X164844895Y-129659047D01*
X164844895Y-129659047D02*
X164844895Y-129735238D01*
X164844895Y-129735238D02*
X164882990Y-129849523D01*
X164882990Y-129849523D02*
X164921085Y-129887619D01*
X164844895Y-130459047D02*
X165416323Y-130459047D01*
X165416323Y-130459047D02*
X165530609Y-130420952D01*
X165530609Y-130420952D02*
X165606800Y-130344761D01*
X165606800Y-130344761D02*
X165644895Y-130230476D01*
X165644895Y-130230476D02*
X165644895Y-130154285D01*
X165644895Y-131220952D02*
X165644895Y-130840000D01*
X165644895Y-130840000D02*
X164844895Y-130840000D01*
X165568704Y-131944762D02*
X165606800Y-131906666D01*
X165606800Y-131906666D02*
X165644895Y-131792381D01*
X165644895Y-131792381D02*
X165644895Y-131716190D01*
X165644895Y-131716190D02*
X165606800Y-131601904D01*
X165606800Y-131601904D02*
X165530609Y-131525714D01*
X165530609Y-131525714D02*
X165454419Y-131487619D01*
X165454419Y-131487619D02*
X165302038Y-131449523D01*
X165302038Y-131449523D02*
X165187752Y-131449523D01*
X165187752Y-131449523D02*
X165035371Y-131487619D01*
X165035371Y-131487619D02*
X164959180Y-131525714D01*
X164959180Y-131525714D02*
X164882990Y-131601904D01*
X164882990Y-131601904D02*
X164844895Y-131716190D01*
X164844895Y-131716190D02*
X164844895Y-131792381D01*
X164844895Y-131792381D02*
X164882990Y-131906666D01*
X164882990Y-131906666D02*
X164921085Y-131944762D01*
X164844895Y-132516190D02*
X165416323Y-132516190D01*
X165416323Y-132516190D02*
X165530609Y-132478095D01*
X165530609Y-132478095D02*
X165606800Y-132401904D01*
X165606800Y-132401904D02*
X165644895Y-132287619D01*
X165644895Y-132287619D02*
X165644895Y-132211428D01*
X165644895Y-133278095D02*
X165644895Y-132897143D01*
X165644895Y-132897143D02*
X164844895Y-132897143D01*
X165568704Y-134001905D02*
X165606800Y-133963809D01*
X165606800Y-133963809D02*
X165644895Y-133849524D01*
X165644895Y-133849524D02*
X165644895Y-133773333D01*
X165644895Y-133773333D02*
X165606800Y-133659047D01*
X165606800Y-133659047D02*
X165530609Y-133582857D01*
X165530609Y-133582857D02*
X165454419Y-133544762D01*
X165454419Y-133544762D02*
X165302038Y-133506666D01*
X165302038Y-133506666D02*
X165187752Y-133506666D01*
X165187752Y-133506666D02*
X165035371Y-133544762D01*
X165035371Y-133544762D02*
X164959180Y-133582857D01*
X164959180Y-133582857D02*
X164882990Y-133659047D01*
X164882990Y-133659047D02*
X164844895Y-133773333D01*
X164844895Y-133773333D02*
X164844895Y-133849524D01*
X164844895Y-133849524D02*
X164882990Y-133963809D01*
X164882990Y-133963809D02*
X164921085Y-134001905D01*
X127685980Y-130673901D02*
X126971695Y-130673901D01*
X126971695Y-130673901D02*
X126828838Y-130721520D01*
X126828838Y-130721520D02*
X126733600Y-130816758D01*
X126733600Y-130816758D02*
X126685980Y-130959615D01*
X126685980Y-130959615D02*
X126685980Y-131054853D01*
X127685980Y-130292948D02*
X127685980Y-129673901D01*
X127685980Y-129673901D02*
X127305028Y-130007234D01*
X127305028Y-130007234D02*
X127305028Y-129864377D01*
X127305028Y-129864377D02*
X127257409Y-129769139D01*
X127257409Y-129769139D02*
X127209790Y-129721520D01*
X127209790Y-129721520D02*
X127114552Y-129673901D01*
X127114552Y-129673901D02*
X126876457Y-129673901D01*
X126876457Y-129673901D02*
X126781219Y-129721520D01*
X126781219Y-129721520D02*
X126733600Y-129769139D01*
X126733600Y-129769139D02*
X126685980Y-129864377D01*
X126685980Y-129864377D02*
X126685980Y-130150091D01*
X126685980Y-130150091D02*
X126733600Y-130245329D01*
X126733600Y-130245329D02*
X126781219Y-130292948D01*
X116915733Y-128893683D02*
X116915733Y-128131779D01*
X116915733Y-132297283D02*
X116915733Y-131535379D01*
X116534780Y-131916331D02*
X117296685Y-131916331D01*
D11*
X141901495Y-139052399D02*
X141101495Y-139052399D01*
X141101495Y-139052399D02*
X141101495Y-139242875D01*
X141101495Y-139242875D02*
X141139590Y-139357161D01*
X141139590Y-139357161D02*
X141215780Y-139433351D01*
X141215780Y-139433351D02*
X141291971Y-139471446D01*
X141291971Y-139471446D02*
X141444352Y-139509542D01*
X141444352Y-139509542D02*
X141558638Y-139509542D01*
X141558638Y-139509542D02*
X141711019Y-139471446D01*
X141711019Y-139471446D02*
X141787209Y-139433351D01*
X141787209Y-139433351D02*
X141863400Y-139357161D01*
X141863400Y-139357161D02*
X141901495Y-139242875D01*
X141901495Y-139242875D02*
X141901495Y-139052399D01*
X141177685Y-139814303D02*
X141139590Y-139852399D01*
X141139590Y-139852399D02*
X141101495Y-139928589D01*
X141101495Y-139928589D02*
X141101495Y-140119065D01*
X141101495Y-140119065D02*
X141139590Y-140195256D01*
X141139590Y-140195256D02*
X141177685Y-140233351D01*
X141177685Y-140233351D02*
X141253876Y-140271446D01*
X141253876Y-140271446D02*
X141330066Y-140271446D01*
X141330066Y-140271446D02*
X141444352Y-140233351D01*
X141444352Y-140233351D02*
X141901495Y-139776208D01*
X141901495Y-139776208D02*
X141901495Y-140271446D01*
X141101495Y-140538113D02*
X141101495Y-141071447D01*
X141101495Y-141071447D02*
X141901495Y-140728589D01*
X149521495Y-139052399D02*
X148721495Y-139052399D01*
X148721495Y-139052399D02*
X148721495Y-139242875D01*
X148721495Y-139242875D02*
X148759590Y-139357161D01*
X148759590Y-139357161D02*
X148835780Y-139433351D01*
X148835780Y-139433351D02*
X148911971Y-139471446D01*
X148911971Y-139471446D02*
X149064352Y-139509542D01*
X149064352Y-139509542D02*
X149178638Y-139509542D01*
X149178638Y-139509542D02*
X149331019Y-139471446D01*
X149331019Y-139471446D02*
X149407209Y-139433351D01*
X149407209Y-139433351D02*
X149483400Y-139357161D01*
X149483400Y-139357161D02*
X149521495Y-139242875D01*
X149521495Y-139242875D02*
X149521495Y-139052399D01*
X148721495Y-139776208D02*
X148721495Y-140271446D01*
X148721495Y-140271446D02*
X149026257Y-140004780D01*
X149026257Y-140004780D02*
X149026257Y-140119065D01*
X149026257Y-140119065D02*
X149064352Y-140195256D01*
X149064352Y-140195256D02*
X149102447Y-140233351D01*
X149102447Y-140233351D02*
X149178638Y-140271446D01*
X149178638Y-140271446D02*
X149369114Y-140271446D01*
X149369114Y-140271446D02*
X149445304Y-140233351D01*
X149445304Y-140233351D02*
X149483400Y-140195256D01*
X149483400Y-140195256D02*
X149521495Y-140119065D01*
X149521495Y-140119065D02*
X149521495Y-139890494D01*
X149521495Y-139890494D02*
X149483400Y-139814303D01*
X149483400Y-139814303D02*
X149445304Y-139776208D01*
X148721495Y-140538113D02*
X148721495Y-141033351D01*
X148721495Y-141033351D02*
X149026257Y-140766685D01*
X149026257Y-140766685D02*
X149026257Y-140880970D01*
X149026257Y-140880970D02*
X149064352Y-140957161D01*
X149064352Y-140957161D02*
X149102447Y-140995256D01*
X149102447Y-140995256D02*
X149178638Y-141033351D01*
X149178638Y-141033351D02*
X149369114Y-141033351D01*
X149369114Y-141033351D02*
X149445304Y-140995256D01*
X149445304Y-140995256D02*
X149483400Y-140957161D01*
X149483400Y-140957161D02*
X149521495Y-140880970D01*
X149521495Y-140880970D02*
X149521495Y-140652399D01*
X149521495Y-140652399D02*
X149483400Y-140576208D01*
X149483400Y-140576208D02*
X149445304Y-140538113D01*
X164342447Y-139814305D02*
X164342447Y-140080971D01*
X164761495Y-140195257D02*
X164761495Y-139814305D01*
X164761495Y-139814305D02*
X163961495Y-139814305D01*
X163961495Y-139814305D02*
X163961495Y-140195257D01*
X164761495Y-140538115D02*
X163961495Y-140538115D01*
X163961495Y-140538115D02*
X164761495Y-140995258D01*
X164761495Y-140995258D02*
X163961495Y-140995258D01*
X136821495Y-118618115D02*
X136021495Y-118618115D01*
X136021495Y-118618115D02*
X136021495Y-118808591D01*
X136021495Y-118808591D02*
X136059590Y-118922877D01*
X136059590Y-118922877D02*
X136135780Y-118999067D01*
X136135780Y-118999067D02*
X136211971Y-119037162D01*
X136211971Y-119037162D02*
X136364352Y-119075258D01*
X136364352Y-119075258D02*
X136478638Y-119075258D01*
X136478638Y-119075258D02*
X136631019Y-119037162D01*
X136631019Y-119037162D02*
X136707209Y-118999067D01*
X136707209Y-118999067D02*
X136783400Y-118922877D01*
X136783400Y-118922877D02*
X136821495Y-118808591D01*
X136821495Y-118808591D02*
X136821495Y-118618115D01*
X136097685Y-119380019D02*
X136059590Y-119418115D01*
X136059590Y-119418115D02*
X136021495Y-119494305D01*
X136021495Y-119494305D02*
X136021495Y-119684781D01*
X136021495Y-119684781D02*
X136059590Y-119760972D01*
X136059590Y-119760972D02*
X136097685Y-119799067D01*
X136097685Y-119799067D02*
X136173876Y-119837162D01*
X136173876Y-119837162D02*
X136250066Y-119837162D01*
X136250066Y-119837162D02*
X136364352Y-119799067D01*
X136364352Y-119799067D02*
X136821495Y-119341924D01*
X136821495Y-119341924D02*
X136821495Y-119837162D01*
X161421495Y-139776209D02*
X162221495Y-140042876D01*
X162221495Y-140042876D02*
X161421495Y-140309542D01*
X162221495Y-140576209D02*
X161421495Y-140576209D01*
X161421495Y-140576209D02*
X161421495Y-140880971D01*
X161421495Y-140880971D02*
X161459590Y-140957161D01*
X161459590Y-140957161D02*
X161497685Y-140995256D01*
X161497685Y-140995256D02*
X161573876Y-141033352D01*
X161573876Y-141033352D02*
X161688161Y-141033352D01*
X161688161Y-141033352D02*
X161764352Y-140995256D01*
X161764352Y-140995256D02*
X161802447Y-140957161D01*
X161802447Y-140957161D02*
X161840542Y-140880971D01*
X161840542Y-140880971D02*
X161840542Y-140576209D01*
X128401495Y-118541923D02*
X128401495Y-119037161D01*
X128401495Y-119037161D02*
X128706257Y-118770495D01*
X128706257Y-118770495D02*
X128706257Y-118884780D01*
X128706257Y-118884780D02*
X128744352Y-118960971D01*
X128744352Y-118960971D02*
X128782447Y-118999066D01*
X128782447Y-118999066D02*
X128858638Y-119037161D01*
X128858638Y-119037161D02*
X129049114Y-119037161D01*
X129049114Y-119037161D02*
X129125304Y-118999066D01*
X129125304Y-118999066D02*
X129163400Y-118960971D01*
X129163400Y-118960971D02*
X129201495Y-118884780D01*
X129201495Y-118884780D02*
X129201495Y-118656209D01*
X129201495Y-118656209D02*
X129163400Y-118580018D01*
X129163400Y-118580018D02*
X129125304Y-118541923D01*
X128401495Y-119265733D02*
X129201495Y-119532400D01*
X129201495Y-119532400D02*
X128401495Y-119799066D01*
X128401495Y-119989542D02*
X128401495Y-120484780D01*
X128401495Y-120484780D02*
X128706257Y-120218114D01*
X128706257Y-120218114D02*
X128706257Y-120332399D01*
X128706257Y-120332399D02*
X128744352Y-120408590D01*
X128744352Y-120408590D02*
X128782447Y-120446685D01*
X128782447Y-120446685D02*
X128858638Y-120484780D01*
X128858638Y-120484780D02*
X129049114Y-120484780D01*
X129049114Y-120484780D02*
X129125304Y-120446685D01*
X129125304Y-120446685D02*
X129163400Y-120408590D01*
X129163400Y-120408590D02*
X129201495Y-120332399D01*
X129201495Y-120332399D02*
X129201495Y-120103828D01*
X129201495Y-120103828D02*
X129163400Y-120027637D01*
X129163400Y-120027637D02*
X129125304Y-119989542D01*
X130979590Y-139357162D02*
X130941495Y-139280972D01*
X130941495Y-139280972D02*
X130941495Y-139166686D01*
X130941495Y-139166686D02*
X130979590Y-139052400D01*
X130979590Y-139052400D02*
X131055780Y-138976210D01*
X131055780Y-138976210D02*
X131131971Y-138938115D01*
X131131971Y-138938115D02*
X131284352Y-138900019D01*
X131284352Y-138900019D02*
X131398638Y-138900019D01*
X131398638Y-138900019D02*
X131551019Y-138938115D01*
X131551019Y-138938115D02*
X131627209Y-138976210D01*
X131627209Y-138976210D02*
X131703400Y-139052400D01*
X131703400Y-139052400D02*
X131741495Y-139166686D01*
X131741495Y-139166686D02*
X131741495Y-139242877D01*
X131741495Y-139242877D02*
X131703400Y-139357162D01*
X131703400Y-139357162D02*
X131665304Y-139395258D01*
X131665304Y-139395258D02*
X131398638Y-139395258D01*
X131398638Y-139395258D02*
X131398638Y-139242877D01*
X131741495Y-139738115D02*
X130941495Y-139738115D01*
X130941495Y-139738115D02*
X131741495Y-140195258D01*
X131741495Y-140195258D02*
X130941495Y-140195258D01*
X131741495Y-140576210D02*
X130941495Y-140576210D01*
X130941495Y-140576210D02*
X130941495Y-140766686D01*
X130941495Y-140766686D02*
X130979590Y-140880972D01*
X130979590Y-140880972D02*
X131055780Y-140957162D01*
X131055780Y-140957162D02*
X131131971Y-140995257D01*
X131131971Y-140995257D02*
X131284352Y-141033353D01*
X131284352Y-141033353D02*
X131398638Y-141033353D01*
X131398638Y-141033353D02*
X131551019Y-140995257D01*
X131551019Y-140995257D02*
X131627209Y-140957162D01*
X131627209Y-140957162D02*
X131703400Y-140880972D01*
X131703400Y-140880972D02*
X131741495Y-140766686D01*
X131741495Y-140766686D02*
X131741495Y-140576210D01*
X157141495Y-139052399D02*
X156341495Y-139052399D01*
X156341495Y-139052399D02*
X156341495Y-139242875D01*
X156341495Y-139242875D02*
X156379590Y-139357161D01*
X156379590Y-139357161D02*
X156455780Y-139433351D01*
X156455780Y-139433351D02*
X156531971Y-139471446D01*
X156531971Y-139471446D02*
X156684352Y-139509542D01*
X156684352Y-139509542D02*
X156798638Y-139509542D01*
X156798638Y-139509542D02*
X156951019Y-139471446D01*
X156951019Y-139471446D02*
X157027209Y-139433351D01*
X157027209Y-139433351D02*
X157103400Y-139357161D01*
X157103400Y-139357161D02*
X157141495Y-139242875D01*
X157141495Y-139242875D02*
X157141495Y-139052399D01*
X156341495Y-139776208D02*
X156341495Y-140271446D01*
X156341495Y-140271446D02*
X156646257Y-140004780D01*
X156646257Y-140004780D02*
X156646257Y-140119065D01*
X156646257Y-140119065D02*
X156684352Y-140195256D01*
X156684352Y-140195256D02*
X156722447Y-140233351D01*
X156722447Y-140233351D02*
X156798638Y-140271446D01*
X156798638Y-140271446D02*
X156989114Y-140271446D01*
X156989114Y-140271446D02*
X157065304Y-140233351D01*
X157065304Y-140233351D02*
X157103400Y-140195256D01*
X157103400Y-140195256D02*
X157141495Y-140119065D01*
X157141495Y-140119065D02*
X157141495Y-139890494D01*
X157141495Y-139890494D02*
X157103400Y-139814303D01*
X157103400Y-139814303D02*
X157065304Y-139776208D01*
X156608161Y-140957161D02*
X157141495Y-140957161D01*
X156303400Y-140766685D02*
X156874828Y-140576208D01*
X156874828Y-140576208D02*
X156874828Y-141071447D01*
X141901495Y-119075257D02*
X141520542Y-118808590D01*
X141901495Y-118618114D02*
X141101495Y-118618114D01*
X141101495Y-118618114D02*
X141101495Y-118922876D01*
X141101495Y-118922876D02*
X141139590Y-118999066D01*
X141139590Y-118999066D02*
X141177685Y-119037161D01*
X141177685Y-119037161D02*
X141253876Y-119075257D01*
X141253876Y-119075257D02*
X141368161Y-119075257D01*
X141368161Y-119075257D02*
X141444352Y-119037161D01*
X141444352Y-119037161D02*
X141482447Y-118999066D01*
X141482447Y-118999066D02*
X141520542Y-118922876D01*
X141520542Y-118922876D02*
X141520542Y-118618114D01*
X141101495Y-119341923D02*
X141901495Y-119875257D01*
X141101495Y-119875257D02*
X141901495Y-119341923D01*
X141177685Y-120141923D02*
X141139590Y-120180019D01*
X141139590Y-120180019D02*
X141101495Y-120256209D01*
X141101495Y-120256209D02*
X141101495Y-120446685D01*
X141101495Y-120446685D02*
X141139590Y-120522876D01*
X141139590Y-120522876D02*
X141177685Y-120560971D01*
X141177685Y-120560971D02*
X141253876Y-120599066D01*
X141253876Y-120599066D02*
X141330066Y-120599066D01*
X141330066Y-120599066D02*
X141444352Y-120560971D01*
X141444352Y-120560971D02*
X141901495Y-120103828D01*
X141901495Y-120103828D02*
X141901495Y-120599066D01*
X162221495Y-118618114D02*
X161421495Y-118618114D01*
X161421495Y-118618114D02*
X161421495Y-118808590D01*
X161421495Y-118808590D02*
X161459590Y-118922876D01*
X161459590Y-118922876D02*
X161535780Y-118999066D01*
X161535780Y-118999066D02*
X161611971Y-119037161D01*
X161611971Y-119037161D02*
X161764352Y-119075257D01*
X161764352Y-119075257D02*
X161878638Y-119075257D01*
X161878638Y-119075257D02*
X162031019Y-119037161D01*
X162031019Y-119037161D02*
X162107209Y-118999066D01*
X162107209Y-118999066D02*
X162183400Y-118922876D01*
X162183400Y-118922876D02*
X162221495Y-118808590D01*
X162221495Y-118808590D02*
X162221495Y-118618114D01*
X161497685Y-119380018D02*
X161459590Y-119418114D01*
X161459590Y-119418114D02*
X161421495Y-119494304D01*
X161421495Y-119494304D02*
X161421495Y-119684780D01*
X161421495Y-119684780D02*
X161459590Y-119760971D01*
X161459590Y-119760971D02*
X161497685Y-119799066D01*
X161497685Y-119799066D02*
X161573876Y-119837161D01*
X161573876Y-119837161D02*
X161650066Y-119837161D01*
X161650066Y-119837161D02*
X161764352Y-119799066D01*
X161764352Y-119799066D02*
X162221495Y-119341923D01*
X162221495Y-119341923D02*
X162221495Y-119837161D01*
X161497685Y-120141923D02*
X161459590Y-120180019D01*
X161459590Y-120180019D02*
X161421495Y-120256209D01*
X161421495Y-120256209D02*
X161421495Y-120446685D01*
X161421495Y-120446685D02*
X161459590Y-120522876D01*
X161459590Y-120522876D02*
X161497685Y-120560971D01*
X161497685Y-120560971D02*
X161573876Y-120599066D01*
X161573876Y-120599066D02*
X161650066Y-120599066D01*
X161650066Y-120599066D02*
X161764352Y-120560971D01*
X161764352Y-120560971D02*
X162221495Y-120103828D01*
X162221495Y-120103828D02*
X162221495Y-120599066D01*
X154601495Y-139052399D02*
X153801495Y-139052399D01*
X153801495Y-139052399D02*
X153801495Y-139242875D01*
X153801495Y-139242875D02*
X153839590Y-139357161D01*
X153839590Y-139357161D02*
X153915780Y-139433351D01*
X153915780Y-139433351D02*
X153991971Y-139471446D01*
X153991971Y-139471446D02*
X154144352Y-139509542D01*
X154144352Y-139509542D02*
X154258638Y-139509542D01*
X154258638Y-139509542D02*
X154411019Y-139471446D01*
X154411019Y-139471446D02*
X154487209Y-139433351D01*
X154487209Y-139433351D02*
X154563400Y-139357161D01*
X154563400Y-139357161D02*
X154601495Y-139242875D01*
X154601495Y-139242875D02*
X154601495Y-139052399D01*
X153801495Y-139776208D02*
X153801495Y-140271446D01*
X153801495Y-140271446D02*
X154106257Y-140004780D01*
X154106257Y-140004780D02*
X154106257Y-140119065D01*
X154106257Y-140119065D02*
X154144352Y-140195256D01*
X154144352Y-140195256D02*
X154182447Y-140233351D01*
X154182447Y-140233351D02*
X154258638Y-140271446D01*
X154258638Y-140271446D02*
X154449114Y-140271446D01*
X154449114Y-140271446D02*
X154525304Y-140233351D01*
X154525304Y-140233351D02*
X154563400Y-140195256D01*
X154563400Y-140195256D02*
X154601495Y-140119065D01*
X154601495Y-140119065D02*
X154601495Y-139890494D01*
X154601495Y-139890494D02*
X154563400Y-139814303D01*
X154563400Y-139814303D02*
X154525304Y-139776208D01*
X153801495Y-140995256D02*
X153801495Y-140614304D01*
X153801495Y-140614304D02*
X154182447Y-140576208D01*
X154182447Y-140576208D02*
X154144352Y-140614304D01*
X154144352Y-140614304D02*
X154106257Y-140690494D01*
X154106257Y-140690494D02*
X154106257Y-140880970D01*
X154106257Y-140880970D02*
X154144352Y-140957161D01*
X154144352Y-140957161D02*
X154182447Y-140995256D01*
X154182447Y-140995256D02*
X154258638Y-141033351D01*
X154258638Y-141033351D02*
X154449114Y-141033351D01*
X154449114Y-141033351D02*
X154525304Y-140995256D01*
X154525304Y-140995256D02*
X154563400Y-140957161D01*
X154563400Y-140957161D02*
X154601495Y-140880970D01*
X154601495Y-140880970D02*
X154601495Y-140690494D01*
X154601495Y-140690494D02*
X154563400Y-140614304D01*
X154563400Y-140614304D02*
X154525304Y-140576208D01*
X139361495Y-139052399D02*
X138561495Y-139052399D01*
X138561495Y-139052399D02*
X138561495Y-139242875D01*
X138561495Y-139242875D02*
X138599590Y-139357161D01*
X138599590Y-139357161D02*
X138675780Y-139433351D01*
X138675780Y-139433351D02*
X138751971Y-139471446D01*
X138751971Y-139471446D02*
X138904352Y-139509542D01*
X138904352Y-139509542D02*
X139018638Y-139509542D01*
X139018638Y-139509542D02*
X139171019Y-139471446D01*
X139171019Y-139471446D02*
X139247209Y-139433351D01*
X139247209Y-139433351D02*
X139323400Y-139357161D01*
X139323400Y-139357161D02*
X139361495Y-139242875D01*
X139361495Y-139242875D02*
X139361495Y-139052399D01*
X139361495Y-140271446D02*
X139361495Y-139814303D01*
X139361495Y-140042875D02*
X138561495Y-140042875D01*
X138561495Y-140042875D02*
X138675780Y-139966684D01*
X138675780Y-139966684D02*
X138751971Y-139890494D01*
X138751971Y-139890494D02*
X138790066Y-139814303D01*
X138828161Y-140957161D02*
X139361495Y-140957161D01*
X138523400Y-140766685D02*
X139094828Y-140576208D01*
X139094828Y-140576208D02*
X139094828Y-141071447D01*
X130979590Y-119037162D02*
X130941495Y-118960972D01*
X130941495Y-118960972D02*
X130941495Y-118846686D01*
X130941495Y-118846686D02*
X130979590Y-118732400D01*
X130979590Y-118732400D02*
X131055780Y-118656210D01*
X131055780Y-118656210D02*
X131131971Y-118618115D01*
X131131971Y-118618115D02*
X131284352Y-118580019D01*
X131284352Y-118580019D02*
X131398638Y-118580019D01*
X131398638Y-118580019D02*
X131551019Y-118618115D01*
X131551019Y-118618115D02*
X131627209Y-118656210D01*
X131627209Y-118656210D02*
X131703400Y-118732400D01*
X131703400Y-118732400D02*
X131741495Y-118846686D01*
X131741495Y-118846686D02*
X131741495Y-118922877D01*
X131741495Y-118922877D02*
X131703400Y-119037162D01*
X131703400Y-119037162D02*
X131665304Y-119075258D01*
X131665304Y-119075258D02*
X131398638Y-119075258D01*
X131398638Y-119075258D02*
X131398638Y-118922877D01*
X131741495Y-119418115D02*
X130941495Y-119418115D01*
X130941495Y-119418115D02*
X131741495Y-119875258D01*
X131741495Y-119875258D02*
X130941495Y-119875258D01*
X131741495Y-120256210D02*
X130941495Y-120256210D01*
X130941495Y-120256210D02*
X130941495Y-120446686D01*
X130941495Y-120446686D02*
X130979590Y-120560972D01*
X130979590Y-120560972D02*
X131055780Y-120637162D01*
X131055780Y-120637162D02*
X131131971Y-120675257D01*
X131131971Y-120675257D02*
X131284352Y-120713353D01*
X131284352Y-120713353D02*
X131398638Y-120713353D01*
X131398638Y-120713353D02*
X131551019Y-120675257D01*
X131551019Y-120675257D02*
X131627209Y-120637162D01*
X131627209Y-120637162D02*
X131703400Y-120560972D01*
X131703400Y-120560972D02*
X131741495Y-120446686D01*
X131741495Y-120446686D02*
X131741495Y-120256210D01*
X158881495Y-118503828D02*
X158881495Y-118960971D01*
X159681495Y-118732399D02*
X158881495Y-118732399D01*
X158881495Y-119151447D02*
X159681495Y-119684781D01*
X158881495Y-119684781D02*
X159681495Y-119151447D01*
X158881495Y-120141924D02*
X158881495Y-120218114D01*
X158881495Y-120218114D02*
X158919590Y-120294305D01*
X158919590Y-120294305D02*
X158957685Y-120332400D01*
X158957685Y-120332400D02*
X159033876Y-120370495D01*
X159033876Y-120370495D02*
X159186257Y-120408590D01*
X159186257Y-120408590D02*
X159376733Y-120408590D01*
X159376733Y-120408590D02*
X159529114Y-120370495D01*
X159529114Y-120370495D02*
X159605304Y-120332400D01*
X159605304Y-120332400D02*
X159643400Y-120294305D01*
X159643400Y-120294305D02*
X159681495Y-120218114D01*
X159681495Y-120218114D02*
X159681495Y-120141924D01*
X159681495Y-120141924D02*
X159643400Y-120065733D01*
X159643400Y-120065733D02*
X159605304Y-120027638D01*
X159605304Y-120027638D02*
X159529114Y-119989543D01*
X159529114Y-119989543D02*
X159376733Y-119951447D01*
X159376733Y-119951447D02*
X159186257Y-119951447D01*
X159186257Y-119951447D02*
X159033876Y-119989543D01*
X159033876Y-119989543D02*
X158957685Y-120027638D01*
X158957685Y-120027638D02*
X158919590Y-120065733D01*
X158919590Y-120065733D02*
X158881495Y-120141924D01*
X134281495Y-118618114D02*
X133481495Y-118618114D01*
X133481495Y-118618114D02*
X133481495Y-118808590D01*
X133481495Y-118808590D02*
X133519590Y-118922876D01*
X133519590Y-118922876D02*
X133595780Y-118999066D01*
X133595780Y-118999066D02*
X133671971Y-119037161D01*
X133671971Y-119037161D02*
X133824352Y-119075257D01*
X133824352Y-119075257D02*
X133938638Y-119075257D01*
X133938638Y-119075257D02*
X134091019Y-119037161D01*
X134091019Y-119037161D02*
X134167209Y-118999066D01*
X134167209Y-118999066D02*
X134243400Y-118922876D01*
X134243400Y-118922876D02*
X134281495Y-118808590D01*
X134281495Y-118808590D02*
X134281495Y-118618114D01*
X134281495Y-119837161D02*
X134281495Y-119380018D01*
X134281495Y-119608590D02*
X133481495Y-119608590D01*
X133481495Y-119608590D02*
X133595780Y-119532399D01*
X133595780Y-119532399D02*
X133671971Y-119456209D01*
X133671971Y-119456209D02*
X133710066Y-119380018D01*
X133481495Y-120560971D02*
X133481495Y-120180019D01*
X133481495Y-120180019D02*
X133862447Y-120141923D01*
X133862447Y-120141923D02*
X133824352Y-120180019D01*
X133824352Y-120180019D02*
X133786257Y-120256209D01*
X133786257Y-120256209D02*
X133786257Y-120446685D01*
X133786257Y-120446685D02*
X133824352Y-120522876D01*
X133824352Y-120522876D02*
X133862447Y-120560971D01*
X133862447Y-120560971D02*
X133938638Y-120599066D01*
X133938638Y-120599066D02*
X134129114Y-120599066D01*
X134129114Y-120599066D02*
X134205304Y-120560971D01*
X134205304Y-120560971D02*
X134243400Y-120522876D01*
X134243400Y-120522876D02*
X134281495Y-120446685D01*
X134281495Y-120446685D02*
X134281495Y-120256209D01*
X134281495Y-120256209D02*
X134243400Y-120180019D01*
X134243400Y-120180019D02*
X134205304Y-120141923D01*
X164761495Y-118618114D02*
X163961495Y-118618114D01*
X163961495Y-118618114D02*
X163961495Y-118808590D01*
X163961495Y-118808590D02*
X163999590Y-118922876D01*
X163999590Y-118922876D02*
X164075780Y-118999066D01*
X164075780Y-118999066D02*
X164151971Y-119037161D01*
X164151971Y-119037161D02*
X164304352Y-119075257D01*
X164304352Y-119075257D02*
X164418638Y-119075257D01*
X164418638Y-119075257D02*
X164571019Y-119037161D01*
X164571019Y-119037161D02*
X164647209Y-118999066D01*
X164647209Y-118999066D02*
X164723400Y-118922876D01*
X164723400Y-118922876D02*
X164761495Y-118808590D01*
X164761495Y-118808590D02*
X164761495Y-118618114D01*
X164037685Y-119380018D02*
X163999590Y-119418114D01*
X163999590Y-119418114D02*
X163961495Y-119494304D01*
X163961495Y-119494304D02*
X163961495Y-119684780D01*
X163961495Y-119684780D02*
X163999590Y-119760971D01*
X163999590Y-119760971D02*
X164037685Y-119799066D01*
X164037685Y-119799066D02*
X164113876Y-119837161D01*
X164113876Y-119837161D02*
X164190066Y-119837161D01*
X164190066Y-119837161D02*
X164304352Y-119799066D01*
X164304352Y-119799066D02*
X164761495Y-119341923D01*
X164761495Y-119341923D02*
X164761495Y-119837161D01*
X163961495Y-120103828D02*
X163961495Y-120599066D01*
X163961495Y-120599066D02*
X164266257Y-120332400D01*
X164266257Y-120332400D02*
X164266257Y-120446685D01*
X164266257Y-120446685D02*
X164304352Y-120522876D01*
X164304352Y-120522876D02*
X164342447Y-120560971D01*
X164342447Y-120560971D02*
X164418638Y-120599066D01*
X164418638Y-120599066D02*
X164609114Y-120599066D01*
X164609114Y-120599066D02*
X164685304Y-120560971D01*
X164685304Y-120560971D02*
X164723400Y-120522876D01*
X164723400Y-120522876D02*
X164761495Y-120446685D01*
X164761495Y-120446685D02*
X164761495Y-120218114D01*
X164761495Y-120218114D02*
X164723400Y-120141923D01*
X164723400Y-120141923D02*
X164685304Y-120103828D01*
X139361495Y-118618115D02*
X138561495Y-118618115D01*
X138561495Y-118618115D02*
X138561495Y-118808591D01*
X138561495Y-118808591D02*
X138599590Y-118922877D01*
X138599590Y-118922877D02*
X138675780Y-118999067D01*
X138675780Y-118999067D02*
X138751971Y-119037162D01*
X138751971Y-119037162D02*
X138904352Y-119075258D01*
X138904352Y-119075258D02*
X139018638Y-119075258D01*
X139018638Y-119075258D02*
X139171019Y-119037162D01*
X139171019Y-119037162D02*
X139247209Y-118999067D01*
X139247209Y-118999067D02*
X139323400Y-118922877D01*
X139323400Y-118922877D02*
X139361495Y-118808591D01*
X139361495Y-118808591D02*
X139361495Y-118618115D01*
X138828161Y-119760972D02*
X139361495Y-119760972D01*
X138523400Y-119570496D02*
X139094828Y-119380019D01*
X139094828Y-119380019D02*
X139094828Y-119875258D01*
X157141495Y-119075257D02*
X156760542Y-118808590D01*
X157141495Y-118618114D02*
X156341495Y-118618114D01*
X156341495Y-118618114D02*
X156341495Y-118922876D01*
X156341495Y-118922876D02*
X156379590Y-118999066D01*
X156379590Y-118999066D02*
X156417685Y-119037161D01*
X156417685Y-119037161D02*
X156493876Y-119075257D01*
X156493876Y-119075257D02*
X156608161Y-119075257D01*
X156608161Y-119075257D02*
X156684352Y-119037161D01*
X156684352Y-119037161D02*
X156722447Y-118999066D01*
X156722447Y-118999066D02*
X156760542Y-118922876D01*
X156760542Y-118922876D02*
X156760542Y-118618114D01*
X156341495Y-119341923D02*
X157141495Y-119875257D01*
X156341495Y-119875257D02*
X157141495Y-119341923D01*
X156341495Y-120332400D02*
X156341495Y-120408590D01*
X156341495Y-120408590D02*
X156379590Y-120484781D01*
X156379590Y-120484781D02*
X156417685Y-120522876D01*
X156417685Y-120522876D02*
X156493876Y-120560971D01*
X156493876Y-120560971D02*
X156646257Y-120599066D01*
X156646257Y-120599066D02*
X156836733Y-120599066D01*
X156836733Y-120599066D02*
X156989114Y-120560971D01*
X156989114Y-120560971D02*
X157065304Y-120522876D01*
X157065304Y-120522876D02*
X157103400Y-120484781D01*
X157103400Y-120484781D02*
X157141495Y-120408590D01*
X157141495Y-120408590D02*
X157141495Y-120332400D01*
X157141495Y-120332400D02*
X157103400Y-120256209D01*
X157103400Y-120256209D02*
X157065304Y-120218114D01*
X157065304Y-120218114D02*
X156989114Y-120180019D01*
X156989114Y-120180019D02*
X156836733Y-120141923D01*
X156836733Y-120141923D02*
X156646257Y-120141923D01*
X156646257Y-120141923D02*
X156493876Y-120180019D01*
X156493876Y-120180019D02*
X156417685Y-120218114D01*
X156417685Y-120218114D02*
X156379590Y-120256209D01*
X156379590Y-120256209D02*
X156341495Y-120332400D01*
X144441495Y-139052399D02*
X143641495Y-139052399D01*
X143641495Y-139052399D02*
X143641495Y-139242875D01*
X143641495Y-139242875D02*
X143679590Y-139357161D01*
X143679590Y-139357161D02*
X143755780Y-139433351D01*
X143755780Y-139433351D02*
X143831971Y-139471446D01*
X143831971Y-139471446D02*
X143984352Y-139509542D01*
X143984352Y-139509542D02*
X144098638Y-139509542D01*
X144098638Y-139509542D02*
X144251019Y-139471446D01*
X144251019Y-139471446D02*
X144327209Y-139433351D01*
X144327209Y-139433351D02*
X144403400Y-139357161D01*
X144403400Y-139357161D02*
X144441495Y-139242875D01*
X144441495Y-139242875D02*
X144441495Y-139052399D01*
X143717685Y-139814303D02*
X143679590Y-139852399D01*
X143679590Y-139852399D02*
X143641495Y-139928589D01*
X143641495Y-139928589D02*
X143641495Y-140119065D01*
X143641495Y-140119065D02*
X143679590Y-140195256D01*
X143679590Y-140195256D02*
X143717685Y-140233351D01*
X143717685Y-140233351D02*
X143793876Y-140271446D01*
X143793876Y-140271446D02*
X143870066Y-140271446D01*
X143870066Y-140271446D02*
X143984352Y-140233351D01*
X143984352Y-140233351D02*
X144441495Y-139776208D01*
X144441495Y-139776208D02*
X144441495Y-140271446D01*
X143641495Y-140957161D02*
X143641495Y-140804780D01*
X143641495Y-140804780D02*
X143679590Y-140728589D01*
X143679590Y-140728589D02*
X143717685Y-140690494D01*
X143717685Y-140690494D02*
X143831971Y-140614304D01*
X143831971Y-140614304D02*
X143984352Y-140576208D01*
X143984352Y-140576208D02*
X144289114Y-140576208D01*
X144289114Y-140576208D02*
X144365304Y-140614304D01*
X144365304Y-140614304D02*
X144403400Y-140652399D01*
X144403400Y-140652399D02*
X144441495Y-140728589D01*
X144441495Y-140728589D02*
X144441495Y-140880970D01*
X144441495Y-140880970D02*
X144403400Y-140957161D01*
X144403400Y-140957161D02*
X144365304Y-140995256D01*
X144365304Y-140995256D02*
X144289114Y-141033351D01*
X144289114Y-141033351D02*
X144098638Y-141033351D01*
X144098638Y-141033351D02*
X144022447Y-140995256D01*
X144022447Y-140995256D02*
X143984352Y-140957161D01*
X143984352Y-140957161D02*
X143946257Y-140880970D01*
X143946257Y-140880970D02*
X143946257Y-140728589D01*
X143946257Y-140728589D02*
X143984352Y-140652399D01*
X143984352Y-140652399D02*
X144022447Y-140614304D01*
X144022447Y-140614304D02*
X144098638Y-140576208D01*
X154601495Y-118618114D02*
X153801495Y-118618114D01*
X153801495Y-118618114D02*
X153801495Y-118808590D01*
X153801495Y-118808590D02*
X153839590Y-118922876D01*
X153839590Y-118922876D02*
X153915780Y-118999066D01*
X153915780Y-118999066D02*
X153991971Y-119037161D01*
X153991971Y-119037161D02*
X154144352Y-119075257D01*
X154144352Y-119075257D02*
X154258638Y-119075257D01*
X154258638Y-119075257D02*
X154411019Y-119037161D01*
X154411019Y-119037161D02*
X154487209Y-118999066D01*
X154487209Y-118999066D02*
X154563400Y-118922876D01*
X154563400Y-118922876D02*
X154601495Y-118808590D01*
X154601495Y-118808590D02*
X154601495Y-118618114D01*
X153877685Y-119380018D02*
X153839590Y-119418114D01*
X153839590Y-119418114D02*
X153801495Y-119494304D01*
X153801495Y-119494304D02*
X153801495Y-119684780D01*
X153801495Y-119684780D02*
X153839590Y-119760971D01*
X153839590Y-119760971D02*
X153877685Y-119799066D01*
X153877685Y-119799066D02*
X153953876Y-119837161D01*
X153953876Y-119837161D02*
X154030066Y-119837161D01*
X154030066Y-119837161D02*
X154144352Y-119799066D01*
X154144352Y-119799066D02*
X154601495Y-119341923D01*
X154601495Y-119341923D02*
X154601495Y-119837161D01*
X154601495Y-120599066D02*
X154601495Y-120141923D01*
X154601495Y-120370495D02*
X153801495Y-120370495D01*
X153801495Y-120370495D02*
X153915780Y-120294304D01*
X153915780Y-120294304D02*
X153991971Y-120218114D01*
X153991971Y-120218114D02*
X154030066Y-120141923D01*
X128401495Y-139357162D02*
X129201495Y-139623829D01*
X129201495Y-139623829D02*
X128401495Y-139890495D01*
X129201495Y-140157162D02*
X128401495Y-140157162D01*
X129201495Y-140538114D02*
X128401495Y-140538114D01*
X128401495Y-140538114D02*
X129201495Y-140995257D01*
X129201495Y-140995257D02*
X128401495Y-140995257D01*
X136821495Y-139052399D02*
X136021495Y-139052399D01*
X136021495Y-139052399D02*
X136021495Y-139242875D01*
X136021495Y-139242875D02*
X136059590Y-139357161D01*
X136059590Y-139357161D02*
X136135780Y-139433351D01*
X136135780Y-139433351D02*
X136211971Y-139471446D01*
X136211971Y-139471446D02*
X136364352Y-139509542D01*
X136364352Y-139509542D02*
X136478638Y-139509542D01*
X136478638Y-139509542D02*
X136631019Y-139471446D01*
X136631019Y-139471446D02*
X136707209Y-139433351D01*
X136707209Y-139433351D02*
X136783400Y-139357161D01*
X136783400Y-139357161D02*
X136821495Y-139242875D01*
X136821495Y-139242875D02*
X136821495Y-139052399D01*
X136821495Y-140271446D02*
X136821495Y-139814303D01*
X136821495Y-140042875D02*
X136021495Y-140042875D01*
X136021495Y-140042875D02*
X136135780Y-139966684D01*
X136135780Y-139966684D02*
X136211971Y-139890494D01*
X136211971Y-139890494D02*
X136250066Y-139814303D01*
X136097685Y-140576208D02*
X136059590Y-140614304D01*
X136059590Y-140614304D02*
X136021495Y-140690494D01*
X136021495Y-140690494D02*
X136021495Y-140880970D01*
X136021495Y-140880970D02*
X136059590Y-140957161D01*
X136059590Y-140957161D02*
X136097685Y-140995256D01*
X136097685Y-140995256D02*
X136173876Y-141033351D01*
X136173876Y-141033351D02*
X136250066Y-141033351D01*
X136250066Y-141033351D02*
X136364352Y-140995256D01*
X136364352Y-140995256D02*
X136821495Y-140538113D01*
X136821495Y-140538113D02*
X136821495Y-141033351D01*
X152061495Y-118618114D02*
X151261495Y-118618114D01*
X151261495Y-118618114D02*
X151261495Y-118808590D01*
X151261495Y-118808590D02*
X151299590Y-118922876D01*
X151299590Y-118922876D02*
X151375780Y-118999066D01*
X151375780Y-118999066D02*
X151451971Y-119037161D01*
X151451971Y-119037161D02*
X151604352Y-119075257D01*
X151604352Y-119075257D02*
X151718638Y-119075257D01*
X151718638Y-119075257D02*
X151871019Y-119037161D01*
X151871019Y-119037161D02*
X151947209Y-118999066D01*
X151947209Y-118999066D02*
X152023400Y-118922876D01*
X152023400Y-118922876D02*
X152061495Y-118808590D01*
X152061495Y-118808590D02*
X152061495Y-118618114D01*
X152061495Y-119837161D02*
X152061495Y-119380018D01*
X152061495Y-119608590D02*
X151261495Y-119608590D01*
X151261495Y-119608590D02*
X151375780Y-119532399D01*
X151375780Y-119532399D02*
X151451971Y-119456209D01*
X151451971Y-119456209D02*
X151490066Y-119380018D01*
X152061495Y-120218114D02*
X152061495Y-120370495D01*
X152061495Y-120370495D02*
X152023400Y-120446685D01*
X152023400Y-120446685D02*
X151985304Y-120484781D01*
X151985304Y-120484781D02*
X151871019Y-120560971D01*
X151871019Y-120560971D02*
X151718638Y-120599066D01*
X151718638Y-120599066D02*
X151413876Y-120599066D01*
X151413876Y-120599066D02*
X151337685Y-120560971D01*
X151337685Y-120560971D02*
X151299590Y-120522876D01*
X151299590Y-120522876D02*
X151261495Y-120446685D01*
X151261495Y-120446685D02*
X151261495Y-120294304D01*
X151261495Y-120294304D02*
X151299590Y-120218114D01*
X151299590Y-120218114D02*
X151337685Y-120180019D01*
X151337685Y-120180019D02*
X151413876Y-120141923D01*
X151413876Y-120141923D02*
X151604352Y-120141923D01*
X151604352Y-120141923D02*
X151680542Y-120180019D01*
X151680542Y-120180019D02*
X151718638Y-120218114D01*
X151718638Y-120218114D02*
X151756733Y-120294304D01*
X151756733Y-120294304D02*
X151756733Y-120446685D01*
X151756733Y-120446685D02*
X151718638Y-120522876D01*
X151718638Y-120522876D02*
X151680542Y-120560971D01*
X151680542Y-120560971D02*
X151604352Y-120599066D01*
X149521495Y-118618114D02*
X148721495Y-118618114D01*
X148721495Y-118618114D02*
X148721495Y-118808590D01*
X148721495Y-118808590D02*
X148759590Y-118922876D01*
X148759590Y-118922876D02*
X148835780Y-118999066D01*
X148835780Y-118999066D02*
X148911971Y-119037161D01*
X148911971Y-119037161D02*
X149064352Y-119075257D01*
X149064352Y-119075257D02*
X149178638Y-119075257D01*
X149178638Y-119075257D02*
X149331019Y-119037161D01*
X149331019Y-119037161D02*
X149407209Y-118999066D01*
X149407209Y-118999066D02*
X149483400Y-118922876D01*
X149483400Y-118922876D02*
X149521495Y-118808590D01*
X149521495Y-118808590D02*
X149521495Y-118618114D01*
X149521495Y-119837161D02*
X149521495Y-119380018D01*
X149521495Y-119608590D02*
X148721495Y-119608590D01*
X148721495Y-119608590D02*
X148835780Y-119532399D01*
X148835780Y-119532399D02*
X148911971Y-119456209D01*
X148911971Y-119456209D02*
X148950066Y-119380018D01*
X149064352Y-120294304D02*
X149026257Y-120218114D01*
X149026257Y-120218114D02*
X148988161Y-120180019D01*
X148988161Y-120180019D02*
X148911971Y-120141923D01*
X148911971Y-120141923D02*
X148873876Y-120141923D01*
X148873876Y-120141923D02*
X148797685Y-120180019D01*
X148797685Y-120180019D02*
X148759590Y-120218114D01*
X148759590Y-120218114D02*
X148721495Y-120294304D01*
X148721495Y-120294304D02*
X148721495Y-120446685D01*
X148721495Y-120446685D02*
X148759590Y-120522876D01*
X148759590Y-120522876D02*
X148797685Y-120560971D01*
X148797685Y-120560971D02*
X148873876Y-120599066D01*
X148873876Y-120599066D02*
X148911971Y-120599066D01*
X148911971Y-120599066D02*
X148988161Y-120560971D01*
X148988161Y-120560971D02*
X149026257Y-120522876D01*
X149026257Y-120522876D02*
X149064352Y-120446685D01*
X149064352Y-120446685D02*
X149064352Y-120294304D01*
X149064352Y-120294304D02*
X149102447Y-120218114D01*
X149102447Y-120218114D02*
X149140542Y-120180019D01*
X149140542Y-120180019D02*
X149216733Y-120141923D01*
X149216733Y-120141923D02*
X149369114Y-120141923D01*
X149369114Y-120141923D02*
X149445304Y-120180019D01*
X149445304Y-120180019D02*
X149483400Y-120218114D01*
X149483400Y-120218114D02*
X149521495Y-120294304D01*
X149521495Y-120294304D02*
X149521495Y-120446685D01*
X149521495Y-120446685D02*
X149483400Y-120522876D01*
X149483400Y-120522876D02*
X149445304Y-120560971D01*
X149445304Y-120560971D02*
X149369114Y-120599066D01*
X149369114Y-120599066D02*
X149216733Y-120599066D01*
X149216733Y-120599066D02*
X149140542Y-120560971D01*
X149140542Y-120560971D02*
X149102447Y-120522876D01*
X149102447Y-120522876D02*
X149064352Y-120446685D01*
X146981495Y-118618115D02*
X146181495Y-118618115D01*
X146181495Y-118618115D02*
X146181495Y-118808591D01*
X146181495Y-118808591D02*
X146219590Y-118922877D01*
X146219590Y-118922877D02*
X146295780Y-118999067D01*
X146295780Y-118999067D02*
X146371971Y-119037162D01*
X146371971Y-119037162D02*
X146524352Y-119075258D01*
X146524352Y-119075258D02*
X146638638Y-119075258D01*
X146638638Y-119075258D02*
X146791019Y-119037162D01*
X146791019Y-119037162D02*
X146867209Y-118999067D01*
X146867209Y-118999067D02*
X146943400Y-118922877D01*
X146943400Y-118922877D02*
X146981495Y-118808591D01*
X146981495Y-118808591D02*
X146981495Y-118618115D01*
X146181495Y-119799067D02*
X146181495Y-119418115D01*
X146181495Y-119418115D02*
X146562447Y-119380019D01*
X146562447Y-119380019D02*
X146524352Y-119418115D01*
X146524352Y-119418115D02*
X146486257Y-119494305D01*
X146486257Y-119494305D02*
X146486257Y-119684781D01*
X146486257Y-119684781D02*
X146524352Y-119760972D01*
X146524352Y-119760972D02*
X146562447Y-119799067D01*
X146562447Y-119799067D02*
X146638638Y-119837162D01*
X146638638Y-119837162D02*
X146829114Y-119837162D01*
X146829114Y-119837162D02*
X146905304Y-119799067D01*
X146905304Y-119799067D02*
X146943400Y-119760972D01*
X146943400Y-119760972D02*
X146981495Y-119684781D01*
X146981495Y-119684781D02*
X146981495Y-119494305D01*
X146981495Y-119494305D02*
X146943400Y-119418115D01*
X146943400Y-119418115D02*
X146905304Y-119380019D01*
X158881495Y-139738114D02*
X159681495Y-140004781D01*
X159681495Y-140004781D02*
X158881495Y-140271447D01*
X159681495Y-140538114D02*
X158881495Y-140538114D01*
X158881495Y-140538114D02*
X159681495Y-140995257D01*
X159681495Y-140995257D02*
X158881495Y-140995257D01*
X143641495Y-118503828D02*
X143641495Y-118960971D01*
X144441495Y-118732399D02*
X143641495Y-118732399D01*
X143641495Y-119151447D02*
X144441495Y-119684781D01*
X143641495Y-119684781D02*
X144441495Y-119151447D01*
X143717685Y-119951447D02*
X143679590Y-119989543D01*
X143679590Y-119989543D02*
X143641495Y-120065733D01*
X143641495Y-120065733D02*
X143641495Y-120256209D01*
X143641495Y-120256209D02*
X143679590Y-120332400D01*
X143679590Y-120332400D02*
X143717685Y-120370495D01*
X143717685Y-120370495D02*
X143793876Y-120408590D01*
X143793876Y-120408590D02*
X143870066Y-120408590D01*
X143870066Y-120408590D02*
X143984352Y-120370495D01*
X143984352Y-120370495D02*
X144441495Y-119913352D01*
X144441495Y-119913352D02*
X144441495Y-120408590D01*
X134281495Y-139052399D02*
X133481495Y-139052399D01*
X133481495Y-139052399D02*
X133481495Y-139242875D01*
X133481495Y-139242875D02*
X133519590Y-139357161D01*
X133519590Y-139357161D02*
X133595780Y-139433351D01*
X133595780Y-139433351D02*
X133671971Y-139471446D01*
X133671971Y-139471446D02*
X133824352Y-139509542D01*
X133824352Y-139509542D02*
X133938638Y-139509542D01*
X133938638Y-139509542D02*
X134091019Y-139471446D01*
X134091019Y-139471446D02*
X134167209Y-139433351D01*
X134167209Y-139433351D02*
X134243400Y-139357161D01*
X134243400Y-139357161D02*
X134281495Y-139242875D01*
X134281495Y-139242875D02*
X134281495Y-139052399D01*
X134281495Y-140271446D02*
X134281495Y-139814303D01*
X134281495Y-140042875D02*
X133481495Y-140042875D01*
X133481495Y-140042875D02*
X133595780Y-139966684D01*
X133595780Y-139966684D02*
X133671971Y-139890494D01*
X133671971Y-139890494D02*
X133710066Y-139814303D01*
X133481495Y-140538113D02*
X133481495Y-141033351D01*
X133481495Y-141033351D02*
X133786257Y-140766685D01*
X133786257Y-140766685D02*
X133786257Y-140880970D01*
X133786257Y-140880970D02*
X133824352Y-140957161D01*
X133824352Y-140957161D02*
X133862447Y-140995256D01*
X133862447Y-140995256D02*
X133938638Y-141033351D01*
X133938638Y-141033351D02*
X134129114Y-141033351D01*
X134129114Y-141033351D02*
X134205304Y-140995256D01*
X134205304Y-140995256D02*
X134243400Y-140957161D01*
X134243400Y-140957161D02*
X134281495Y-140880970D01*
X134281495Y-140880970D02*
X134281495Y-140652399D01*
X134281495Y-140652399D02*
X134243400Y-140576208D01*
X134243400Y-140576208D02*
X134205304Y-140538113D01*
X152061495Y-139052399D02*
X151261495Y-139052399D01*
X151261495Y-139052399D02*
X151261495Y-139242875D01*
X151261495Y-139242875D02*
X151299590Y-139357161D01*
X151299590Y-139357161D02*
X151375780Y-139433351D01*
X151375780Y-139433351D02*
X151451971Y-139471446D01*
X151451971Y-139471446D02*
X151604352Y-139509542D01*
X151604352Y-139509542D02*
X151718638Y-139509542D01*
X151718638Y-139509542D02*
X151871019Y-139471446D01*
X151871019Y-139471446D02*
X151947209Y-139433351D01*
X151947209Y-139433351D02*
X152023400Y-139357161D01*
X152023400Y-139357161D02*
X152061495Y-139242875D01*
X152061495Y-139242875D02*
X152061495Y-139052399D01*
X151261495Y-139776208D02*
X151261495Y-140271446D01*
X151261495Y-140271446D02*
X151566257Y-140004780D01*
X151566257Y-140004780D02*
X151566257Y-140119065D01*
X151566257Y-140119065D02*
X151604352Y-140195256D01*
X151604352Y-140195256D02*
X151642447Y-140233351D01*
X151642447Y-140233351D02*
X151718638Y-140271446D01*
X151718638Y-140271446D02*
X151909114Y-140271446D01*
X151909114Y-140271446D02*
X151985304Y-140233351D01*
X151985304Y-140233351D02*
X152023400Y-140195256D01*
X152023400Y-140195256D02*
X152061495Y-140119065D01*
X152061495Y-140119065D02*
X152061495Y-139890494D01*
X152061495Y-139890494D02*
X152023400Y-139814303D01*
X152023400Y-139814303D02*
X151985304Y-139776208D01*
X151337685Y-140576208D02*
X151299590Y-140614304D01*
X151299590Y-140614304D02*
X151261495Y-140690494D01*
X151261495Y-140690494D02*
X151261495Y-140880970D01*
X151261495Y-140880970D02*
X151299590Y-140957161D01*
X151299590Y-140957161D02*
X151337685Y-140995256D01*
X151337685Y-140995256D02*
X151413876Y-141033351D01*
X151413876Y-141033351D02*
X151490066Y-141033351D01*
X151490066Y-141033351D02*
X151604352Y-140995256D01*
X151604352Y-140995256D02*
X152061495Y-140538113D01*
X152061495Y-140538113D02*
X152061495Y-141033351D01*
X146981495Y-139052399D02*
X146181495Y-139052399D01*
X146181495Y-139052399D02*
X146181495Y-139242875D01*
X146181495Y-139242875D02*
X146219590Y-139357161D01*
X146219590Y-139357161D02*
X146295780Y-139433351D01*
X146295780Y-139433351D02*
X146371971Y-139471446D01*
X146371971Y-139471446D02*
X146524352Y-139509542D01*
X146524352Y-139509542D02*
X146638638Y-139509542D01*
X146638638Y-139509542D02*
X146791019Y-139471446D01*
X146791019Y-139471446D02*
X146867209Y-139433351D01*
X146867209Y-139433351D02*
X146943400Y-139357161D01*
X146943400Y-139357161D02*
X146981495Y-139242875D01*
X146981495Y-139242875D02*
X146981495Y-139052399D01*
X146257685Y-139814303D02*
X146219590Y-139852399D01*
X146219590Y-139852399D02*
X146181495Y-139928589D01*
X146181495Y-139928589D02*
X146181495Y-140119065D01*
X146181495Y-140119065D02*
X146219590Y-140195256D01*
X146219590Y-140195256D02*
X146257685Y-140233351D01*
X146257685Y-140233351D02*
X146333876Y-140271446D01*
X146333876Y-140271446D02*
X146410066Y-140271446D01*
X146410066Y-140271446D02*
X146524352Y-140233351D01*
X146524352Y-140233351D02*
X146981495Y-139776208D01*
X146981495Y-139776208D02*
X146981495Y-140271446D01*
X146181495Y-140995256D02*
X146181495Y-140614304D01*
X146181495Y-140614304D02*
X146562447Y-140576208D01*
X146562447Y-140576208D02*
X146524352Y-140614304D01*
X146524352Y-140614304D02*
X146486257Y-140690494D01*
X146486257Y-140690494D02*
X146486257Y-140880970D01*
X146486257Y-140880970D02*
X146524352Y-140957161D01*
X146524352Y-140957161D02*
X146562447Y-140995256D01*
X146562447Y-140995256D02*
X146638638Y-141033351D01*
X146638638Y-141033351D02*
X146829114Y-141033351D01*
X146829114Y-141033351D02*
X146905304Y-140995256D01*
X146905304Y-140995256D02*
X146943400Y-140957161D01*
X146943400Y-140957161D02*
X146981495Y-140880970D01*
X146981495Y-140880970D02*
X146981495Y-140690494D01*
X146981495Y-140690494D02*
X146943400Y-140614304D01*
X146943400Y-140614304D02*
X146905304Y-140576208D01*
D10*
X158395504Y-127154819D02*
X158395504Y-127964342D01*
X158395504Y-127964342D02*
X158347885Y-128059580D01*
X158347885Y-128059580D02*
X158300266Y-128107200D01*
X158300266Y-128107200D02*
X158205028Y-128154819D01*
X158205028Y-128154819D02*
X158014552Y-128154819D01*
X158014552Y-128154819D02*
X157919314Y-128107200D01*
X157919314Y-128107200D02*
X157871695Y-128059580D01*
X157871695Y-128059580D02*
X157824076Y-127964342D01*
X157824076Y-127964342D02*
X157824076Y-127154819D01*
X157443123Y-127154819D02*
X156824076Y-127154819D01*
X156824076Y-127154819D02*
X157157409Y-127535771D01*
X157157409Y-127535771D02*
X157014552Y-127535771D01*
X157014552Y-127535771D02*
X156919314Y-127583390D01*
X156919314Y-127583390D02*
X156871695Y-127631009D01*
X156871695Y-127631009D02*
X156824076Y-127726247D01*
X156824076Y-127726247D02*
X156824076Y-127964342D01*
X156824076Y-127964342D02*
X156871695Y-128059580D01*
X156871695Y-128059580D02*
X156919314Y-128107200D01*
X156919314Y-128107200D02*
X157014552Y-128154819D01*
X157014552Y-128154819D02*
X157300266Y-128154819D01*
X157300266Y-128154819D02*
X157395504Y-128107200D01*
X157395504Y-128107200D02*
X157443123Y-128059580D01*
X164819534Y-122480895D02*
X164819534Y-121680895D01*
X164438582Y-122480895D02*
X164438582Y-121680895D01*
X164438582Y-121680895D02*
X163981439Y-122480895D01*
X163981439Y-122480895D02*
X163981439Y-121680895D01*
X163600487Y-122176133D02*
X162990964Y-122176133D01*
X163295725Y-122480895D02*
X163295725Y-121871371D01*
X152094153Y-136590695D02*
X151941772Y-136590695D01*
X151941772Y-136590695D02*
X151865582Y-136628790D01*
X151865582Y-136628790D02*
X151789391Y-136704980D01*
X151789391Y-136704980D02*
X151751296Y-136857361D01*
X151751296Y-136857361D02*
X151751296Y-137124028D01*
X151751296Y-137124028D02*
X151789391Y-137276409D01*
X151789391Y-137276409D02*
X151865582Y-137352600D01*
X151865582Y-137352600D02*
X151941772Y-137390695D01*
X151941772Y-137390695D02*
X152094153Y-137390695D01*
X152094153Y-137390695D02*
X152170344Y-137352600D01*
X152170344Y-137352600D02*
X152246534Y-137276409D01*
X152246534Y-137276409D02*
X152284630Y-137124028D01*
X152284630Y-137124028D02*
X152284630Y-136857361D01*
X152284630Y-136857361D02*
X152246534Y-136704980D01*
X152246534Y-136704980D02*
X152170344Y-136628790D01*
X152170344Y-136628790D02*
X152094153Y-136590695D01*
X151408439Y-136590695D02*
X151408439Y-137238314D01*
X151408439Y-137238314D02*
X151370344Y-137314504D01*
X151370344Y-137314504D02*
X151332249Y-137352600D01*
X151332249Y-137352600D02*
X151256058Y-137390695D01*
X151256058Y-137390695D02*
X151103677Y-137390695D01*
X151103677Y-137390695D02*
X151027487Y-137352600D01*
X151027487Y-137352600D02*
X150989392Y-137314504D01*
X150989392Y-137314504D02*
X150951296Y-137238314D01*
X150951296Y-137238314D02*
X150951296Y-136590695D01*
X150684630Y-136590695D02*
X150227487Y-136590695D01*
X150456059Y-137390695D02*
X150456059Y-136590695D01*
X149960820Y-137085933D02*
X149351297Y-137085933D01*
X164667153Y-136590695D02*
X164514772Y-136590695D01*
X164514772Y-136590695D02*
X164438582Y-136628790D01*
X164438582Y-136628790D02*
X164362391Y-136704980D01*
X164362391Y-136704980D02*
X164324296Y-136857361D01*
X164324296Y-136857361D02*
X164324296Y-137124028D01*
X164324296Y-137124028D02*
X164362391Y-137276409D01*
X164362391Y-137276409D02*
X164438582Y-137352600D01*
X164438582Y-137352600D02*
X164514772Y-137390695D01*
X164514772Y-137390695D02*
X164667153Y-137390695D01*
X164667153Y-137390695D02*
X164743344Y-137352600D01*
X164743344Y-137352600D02*
X164819534Y-137276409D01*
X164819534Y-137276409D02*
X164857630Y-137124028D01*
X164857630Y-137124028D02*
X164857630Y-136857361D01*
X164857630Y-136857361D02*
X164819534Y-136704980D01*
X164819534Y-136704980D02*
X164743344Y-136628790D01*
X164743344Y-136628790D02*
X164667153Y-136590695D01*
X163981439Y-136590695D02*
X163981439Y-137238314D01*
X163981439Y-137238314D02*
X163943344Y-137314504D01*
X163943344Y-137314504D02*
X163905249Y-137352600D01*
X163905249Y-137352600D02*
X163829058Y-137390695D01*
X163829058Y-137390695D02*
X163676677Y-137390695D01*
X163676677Y-137390695D02*
X163600487Y-137352600D01*
X163600487Y-137352600D02*
X163562392Y-137314504D01*
X163562392Y-137314504D02*
X163524296Y-137238314D01*
X163524296Y-137238314D02*
X163524296Y-136590695D01*
X163257630Y-136590695D02*
X162800487Y-136590695D01*
X163029059Y-137390695D02*
X163029059Y-136590695D01*
X162533820Y-137085933D02*
X161924297Y-137085933D01*
X162229058Y-137390695D02*
X162229058Y-136781171D01*
X152246534Y-122430095D02*
X152246534Y-121630095D01*
X151865582Y-122430095D02*
X151865582Y-121630095D01*
X151865582Y-121630095D02*
X151408439Y-122430095D01*
X151408439Y-122430095D02*
X151408439Y-121630095D01*
X151027487Y-122125333D02*
X150417964Y-122125333D01*
D11*
X179566819Y-129306666D02*
X180281104Y-129306666D01*
X180281104Y-129306666D02*
X180423961Y-129259047D01*
X180423961Y-129259047D02*
X180519200Y-129163809D01*
X180519200Y-129163809D02*
X180566819Y-129020952D01*
X180566819Y-129020952D02*
X180566819Y-128925714D01*
X180566819Y-130306666D02*
X180566819Y-129735238D01*
X180566819Y-130020952D02*
X179566819Y-130020952D01*
X179566819Y-130020952D02*
X179709676Y-129925714D01*
X179709676Y-129925714D02*
X179804914Y-129830476D01*
X179804914Y-129830476D02*
X179852533Y-129735238D01*
D12*
%TO.C,J3*%
X131550433Y-130320000D02*
G75*
G03*
X131550433Y-130320000I-5008633J0D01*
G01*
D10*
%TO.C,U3*%
X166155300Y-118570800D02*
X149111900Y-118570800D01*
X149111900Y-118570800D02*
X149111900Y-140592600D01*
X149111900Y-140592600D02*
X166155300Y-140592600D01*
X166155300Y-140592600D02*
X166155300Y-118570800D01*
D13*
%TO.C,J1*%
X170602000Y-138500000D02*
X179022000Y-138500000D01*
X177802000Y-138500000D02*
X177802000Y-137280000D01*
X179022000Y-138500000D02*
X179022000Y-120780000D01*
X170602000Y-137280000D02*
X170602000Y-138500000D01*
X172802000Y-137280000D02*
X172802000Y-138500000D01*
X172802000Y-137280000D02*
X170602000Y-137280000D01*
X173802000Y-137280000D02*
X173802000Y-122000000D01*
X177802000Y-137280000D02*
X172802000Y-137280000D01*
X173802000Y-136210000D02*
X177222000Y-136210000D01*
X177222000Y-136210000D02*
X177302000Y-135890000D01*
X170112000Y-136190000D02*
X170112000Y-135590000D01*
X170712000Y-135890000D02*
X170112000Y-136190000D01*
X173802000Y-135890000D02*
X173802000Y-136210000D01*
X177302000Y-135890000D02*
X177222000Y-135570000D01*
X170112000Y-135590000D02*
X170712000Y-135890000D01*
X173802000Y-135570000D02*
X173802000Y-135890000D01*
X177222000Y-135570000D02*
X173802000Y-135570000D01*
X172802000Y-134720000D02*
X172802000Y-134560000D01*
X173802000Y-133710000D02*
X177222000Y-133710000D01*
X177222000Y-133710000D02*
X177302000Y-133390000D01*
X173802000Y-133390000D02*
X173802000Y-133710000D01*
X177302000Y-133390000D02*
X177222000Y-133070000D01*
X173802000Y-133070000D02*
X173802000Y-133390000D01*
X177222000Y-133070000D02*
X173802000Y-133070000D01*
X172802000Y-132220000D02*
X172802000Y-132060000D01*
X173802000Y-131210000D02*
X177222000Y-131210000D01*
X177222000Y-131210000D02*
X177302000Y-130890000D01*
X173802000Y-130890000D02*
X173802000Y-131210000D01*
X177302000Y-130890000D02*
X177222000Y-130570000D01*
X173802000Y-130570000D02*
X173802000Y-130890000D01*
X177222000Y-130570000D02*
X173802000Y-130570000D01*
X172802000Y-129720000D02*
X172802000Y-129560000D01*
X173802000Y-128710000D02*
X177222000Y-128710000D01*
X177222000Y-128710000D02*
X177302000Y-128390000D01*
X173802000Y-128390000D02*
X173802000Y-128710000D01*
X177302000Y-128390000D02*
X177222000Y-128070000D01*
X173802000Y-128070000D02*
X173802000Y-128390000D01*
X177222000Y-128070000D02*
X173802000Y-128070000D01*
X172802000Y-127220000D02*
X172802000Y-127060000D01*
X173802000Y-126210000D02*
X177222000Y-126210000D01*
X177222000Y-126210000D02*
X177302000Y-125890000D01*
X173802000Y-125890000D02*
X173802000Y-126210000D01*
X177302000Y-125890000D02*
X177222000Y-125570000D01*
X173802000Y-125570000D02*
X173802000Y-125890000D01*
X177222000Y-125570000D02*
X173802000Y-125570000D01*
X172802000Y-124720000D02*
X172802000Y-124560000D01*
X173802000Y-123710000D02*
X177222000Y-123710000D01*
X177222000Y-123710000D02*
X177302000Y-123390000D01*
X173802000Y-123390000D02*
X173802000Y-123710000D01*
X177302000Y-123390000D02*
X177222000Y-123070000D01*
X173802000Y-123070000D02*
X173802000Y-123390000D01*
X177222000Y-123070000D02*
X173802000Y-123070000D01*
X170602000Y-122000000D02*
X172802000Y-122000000D01*
X172802000Y-122000000D02*
X172802000Y-120780000D01*
X177802000Y-122000000D02*
X172802000Y-122000000D01*
X170602000Y-120780000D02*
X170602000Y-122000000D01*
X177802000Y-120780000D02*
X177802000Y-122000000D01*
X179022000Y-120780000D02*
X170602000Y-120780000D01*
%TD*%
%LPC*%
D14*
%TO.C,J2*%
X121900000Y-137345000D03*
D15*
X121900000Y-134805000D03*
X121900000Y-132265000D03*
X121900000Y-129725000D03*
X121900000Y-127185000D03*
%TD*%
D16*
%TO.C,J3*%
X118540800Y-131966168D03*
X118490000Y-128537168D03*
%TD*%
D17*
%TO.C,U5*%
X164399200Y-142506686D03*
X161859200Y-142506686D03*
X159319200Y-142506686D03*
X156779200Y-142506686D03*
X154239200Y-142506686D03*
X151699200Y-142506686D03*
X149159200Y-142506686D03*
X146619200Y-142506686D03*
X144079200Y-142506686D03*
X141539200Y-142506686D03*
X138999200Y-142506686D03*
X136459200Y-142506686D03*
X133919200Y-142506686D03*
X131379200Y-142506686D03*
X128839200Y-142506686D03*
X164450000Y-117094000D03*
X161910000Y-117094000D03*
X159370000Y-117094000D03*
X156830000Y-117094000D03*
X154290000Y-117094000D03*
D15*
X151750000Y-117094000D03*
D17*
X149210000Y-117094000D03*
X146670000Y-117094000D03*
X144130000Y-117094000D03*
X141590000Y-117094000D03*
X139050000Y-117094000D03*
X136510000Y-117094000D03*
X133970000Y-117094000D03*
X131430000Y-117094000D03*
D18*
X128890000Y-117094000D03*
%TD*%
D19*
%TO.C,U3*%
X164390000Y-120323400D03*
X150851800Y-120323400D03*
X164390000Y-138840000D03*
X150851800Y-138840000D03*
%TD*%
D20*
%TO.C,C3*%
X167620000Y-122830000D03*
D21*
X167620000Y-120830000D03*
%TD*%
D20*
%TO.C,C8*%
X148030000Y-121402600D03*
D21*
X148030000Y-119402600D03*
%TD*%
D22*
%TO.C,J1*%
X172212000Y-135890000D03*
D23*
X172212000Y-133390000D03*
X172212000Y-130890000D03*
X172212000Y-128390000D03*
X172212000Y-125890000D03*
X172212000Y-123390000D03*
%TD*%
%LPD*%
M02*
