M48
INCH
T1C0.0157
T2C0.0236
T3C0.0300
T4C0.0374
T5C0.0394
%
G90
G05
T1
X4.6614Y-5.0709
X4.802Y-4.9386
X4.9071Y-4.6279
X4.9232Y-5.0091
X4.9425Y-4.9075
X4.9727Y-4.6976
X5.0047Y-4.922
X5.0134Y-4.8681
X5.0248Y-4.7685
X5.0543Y-4.8205
X5.0728Y-4.9224
X5.0976Y-5.2213
X5.1154Y-4.7012
X5.1583Y-5.0091
X5.1594Y-4.7394
X5.2299Y-4.9555
X5.2362Y-4.811
X5.2589Y-5.0856
X5.2598Y-5.1348
X5.3041Y-4.7388
X5.3583Y-5.0118
X5.377Y-4.811
X5.4469Y-4.7398
X5.4846Y-5.2209
X5.5193Y-4.9551
X5.5197Y-4.811
X5.5768Y-5.1348
X5.626Y-5.185
X5.626Y-5.3848
X5.6618Y-5.2516
X5.6624Y-4.811
X5.74Y-4.7833
X5.752Y-5.1772
X5.7717Y-5.4656
X5.7752Y-4.7657
X5.8356Y-5.3986
X5.8516Y-4.9366
X5.8524Y-5.247
X5.9469Y-5.1079
X6.1378Y-5.0079
X6.1378Y-5.2825
X6.1378Y-5.3563
X6.1555Y-4.9321
T2
X5.828Y-4.7009
X5.828Y-4.7796
X6.5992Y-4.7571
X6.5992Y-4.8358
T3
X5.7724Y-5.6105
X5.939Y-4.7371
X5.939Y-5.4661
X6.472Y-4.7371
X6.472Y-5.4661
T4
X6.78Y-4.8579
X6.78Y-4.9563
X6.78Y-5.0547
X6.78Y-5.1531
X6.78Y-5.2516
X6.78Y-5.35
T5
X4.7992Y-5.0073
X4.7992Y-5.1073
X4.7992Y-5.2073
X4.7992Y-5.3073
X4.7992Y-5.4073
X5.0724Y-5.6105
X5.0744Y-4.61
X5.1724Y-5.6105
X5.1744Y-4.61
X5.2724Y-5.6105
X5.2744Y-4.61
X5.3724Y-5.6105
X5.3744Y-4.61
X5.4724Y-5.6105
X5.4744Y-4.61
X5.5724Y-5.6105
X5.5744Y-4.61
X5.6724Y-5.6105
X5.6744Y-4.61
X5.7744Y-4.61
X5.8724Y-5.6105
X5.8744Y-4.61
X5.9724Y-5.6105
X5.9744Y-4.61
X6.0724Y-5.6105
X6.0744Y-4.61
X6.1724Y-5.6105
X6.1744Y-4.61
X6.2724Y-5.6105
X6.2744Y-4.61
X6.3724Y-5.6105
X6.3744Y-4.61
X6.4724Y-5.6105
X6.4744Y-4.61
T0
M30
